<svg width="1440" height="446" viewBox="0 0 1440 446" fill="none" xmlns="http://www.w3.org/2000/svg">
<path fill-rule="evenodd" clip-rule="evenodd" d="M318.192 10.91C311.392 12.9506 305.022 14.5888 298.91 17.4917C296.7 18.5263 293.774 20.337 291.421 21.113C290.215 21.4004 288.982 21.6591 287.748 21.9465C287.03 22.4926 286.313 23.0387 285.596 23.5847C284.821 23.6997 284.046 23.8147 283.271 23.9009C277.332 26.9762 270.703 30.7125 264.477 33.098C259.799 34.8799 255.897 36.547 251.162 38.1852C249.728 39.1049 248.293 40.0534 246.83 40.9731C242.841 42.6113 239.57 44.422 236.012 45.9166C230.072 48.3883 224.907 51.3486 219.541 53.964C216.844 55.2574 214.147 55.8322 211.564 57.413C204.046 62.0403 196.586 67.2711 188.264 71.0649C184.362 69.398 183.501 65.6616 178.623 64.4832C177.016 64.5407 175.409 64.5982 173.803 64.6557C164.19 64.6557 155.783 66.4088 148.006 68.938C123.128 76.9568 102.067 87.4186 81.9807 100.323C75.8401 104.261 70.2447 108.313 64.5058 112.481C60.3739 115.47 55.5819 117.654 52.6838 121.85C52.5116 121.908 52.3395 121.965 52.196 122.023C49.7857 118.2 41.5504 115.585 35.0655 116.447C33.9464 116.763 32.856 117.108 31.7369 117.424C26.0267 116.303 21.7226 120.499 17.5906 123C9.03972 128.202 0.804459 132.916 -7.51691 138.29C-10.8168 140.417 -14.0018 143.176 -17.6747 145.016C-18.9947 146.338 -20.3433 147.631 -21.6632 148.953C-23.2127 150.275 -25.1352 150.879 -26.8282 152.086C-27.8325 153.178 -28.8368 154.27 -29.8124 155.362C-36.1252 160.478 -41.6345 166.226 -47.6029 171.63C-62.8109 185.31 -78.2484 199.997 -89.0088 217.96C-94.4033 226.956 -97.445 236.556 -101.663 246.73C-104.705 254.088 -108.205 262.509 -109.812 271.045C-110.042 272.281 -111.304 273.2 -111.649 274.178C-113.456 279.207 -113.915 283.863 -115.981 288.807C-119.052 296.107 -123.241 302.746 -123.643 312.461C-125.537 313.007 -127.402 313.553 -129.296 314.099C-132.509 315.967 -135.723 317.835 -138.937 319.675C-143.098 322.491 -146.971 326.314 -150.07 330.194C-152.079 332.694 -155.264 334.505 -157.215 337.092C-163.126 344.938 -167.459 352.756 -171.849 362.24C-173.428 365.632 -175.867 369.109 -177.33 372.587C-178.593 375.576 -179.999 379.169 -180.659 382.129C-180.945 384.169 -181.204 386.181 -181.491 388.222C-181.95 389.803 -183.327 391.958 -183.815 393.482C-184.991 397.045 -183.872 400.868 -184.819 405.15C-185.537 408.369 -186.053 411.531 -185.996 415.842C-184.303 419.693 -183.987 423.89 -182.179 427.827C-180.257 432.023 -170.013 440.099 -165.709 442.456C-164.274 442.686 -162.839 442.887 -161.376 443.117C-160.601 443.548 -159.826 443.979 -159.052 444.439C-156.785 445.187 -153.915 445.1 -152.079 445.761H-142.265C-135.953 446.854 -128.205 443.922 -122.639 442.485C-118.736 441.479 -115.35 441.105 -111.505 440.502C-110.243 439.956 -108.951 439.41 -107.689 438.864C-101.319 436.88 -95.2068 435.645 -89.554 432.771C-86.0533 430.989 -82.8969 427.655 -79.7405 425.528C-78.1337 424.436 -76.7563 424.292 -75.4077 423.056C-72.9113 423.516 -71.0175 425.585 -68.0907 426.189C-64.5039 426.907 -59.5971 426.074 -56.4407 425.528C-52.194 424.809 -47.689 425.24 -43.4709 424.206C-39.1955 423.171 -34.7478 420.556 -31.161 418.63C-29.8985 418.256 -28.6072 417.854 -27.3447 417.48C-25.3074 416.273 -23.2414 415.066 -21.2041 413.859C-20.085 413.485 -18.9946 413.083 -17.8756 412.709C-14.6331 410.899 -11.5628 408.025 -8.5499 405.984C-4.07358 403.254 0.431412 400.494 4.93643 397.764C9.09711 393.769 13.2578 389.774 17.4185 385.779C21.78 382.301 26.0268 378.421 29.5562 374.11C32.5978 370.402 36.8158 367.615 40.0296 364.08C43.186 359.97 46.3423 355.86 49.4987 351.75C51.1056 348.416 52.7125 345.053 54.3193 341.719C54.8071 339.535 55.3237 337.35 55.8115 335.137C57.5331 332.493 61.1199 329.734 63.6163 327.751C68.7239 323.727 72.7124 318.496 77.9348 314.444C80.6895 312.288 83.0711 309.472 85.2519 306.712C88.5804 302.488 93.2289 299.182 96.5574 294.871C98.1643 293.434 99.7712 292.026 101.378 290.589C106.256 284.639 112.511 279.552 116.844 273.172C120.919 267.165 126.113 259.606 127.662 251.645C129.212 243.683 120.23 240.033 125.338 233.394C130.245 227.071 137.762 221.553 144.305 216.811C150.732 211.379 157.16 205.975 163.587 200.543C165.912 198.186 168.236 195.83 170.56 193.473C179.771 186.403 187.863 178.441 197.188 171.457C199.57 169.158 201.952 166.859 204.333 164.559C208.896 161.427 212.597 157.489 216.987 154.213C236.672 139.555 254.979 123.488 274.204 108.371C296.643 90.7237 316.184 70.2314 339.082 53.1593C344.218 49.3367 348.522 43.9334 353.716 40.1684C363.329 33.2418 378.307 18.7275 380 4.50071C377.159 1.02304 372.97 1.85654 367.518 0.735641C353.63 -2.19594 336.04 4.32829 324.591 8.1221C322.439 9.04181 320.258 9.99027 318.106 10.91H318.192Z" fill="#00AB41"/>
<path fill-rule="evenodd" clip-rule="evenodd" d="M1375.95 255.403C1356.67 284.113 1402.71 258.365 1410.58 270.429C1415.22 277.569 1401.69 299.671 1386.39 313.54C1370.76 327.738 1353.09 335.51 1335.98 344.966C1285.78 372.68 1241.39 380.743 1218.69 376.963C1194.54 372.931 1199.26 355.419 1214.07 327.003C1214.83 325.559 1215.52 324.132 1216.21 322.739C1255.1 280.556 1312.81 281.606 1303.19 258.368C1278.09 262.21 1305.78 196.456 1361.83 173.977C1396.35 161.017 1425.22 155.733 1436.03 163.679C1443.27 168.994 1434.44 188.171 1448.94 187.62C1458.57 187.235 1469.92 185.589 1482.26 182.59C1485.97 181.706 1518.11 173.863 1494.76 193.016C1481.14 204.218 1466.39 201.632 1454.14 203.413C1433.74 206.4 1394.43 230.829 1379.63 250.244C1378.21 252.094 1377 253.785 1375.97 255.326L1375.95 255.403Z" fill="#0071EB"/>
</svg>
