<svg width="1440" height="603" viewBox="0 0 1440 603" fill="none" xmlns="http://www.w3.org/2000/svg">
<path fill-rule="evenodd" clip-rule="evenodd" d="M1510.71 228.393C1504.85 230.15 1499.35 231.561 1494.08 234.06C1492.18 234.951 1489.66 236.51 1487.63 237.178C1486.59 237.425 1485.52 237.648 1484.46 237.896C1483.84 238.366 1483.22 238.836 1482.6 239.306C1481.94 239.405 1481.27 239.504 1480.6 239.578C1475.48 242.226 1469.76 245.443 1464.4 247.497C1460.36 249.031 1457 250.466 1452.92 251.877C1451.68 252.669 1450.44 253.485 1449.18 254.277C1445.74 255.688 1442.92 257.247 1439.85 258.534C1434.73 260.662 1430.28 263.21 1425.65 265.462C1423.33 266.576 1421 267.071 1418.78 268.432C1412.29 272.416 1405.86 276.92 1398.69 280.186C1395.32 278.751 1394.58 275.534 1390.37 274.519C1388.99 274.569 1387.6 274.618 1386.22 274.668C1377.93 274.668 1370.68 276.177 1363.98 278.355C1342.53 285.259 1324.37 294.266 1307.05 305.377C1301.76 308.767 1296.93 312.256 1291.98 315.844C1288.42 318.418 1284.29 320.299 1281.79 323.911C1281.64 323.961 1281.49 324.01 1281.37 324.06C1279.29 320.769 1272.19 318.517 1266.6 319.259C1265.63 319.531 1264.69 319.828 1263.73 320.101C1258.81 319.136 1255.1 322.748 1251.53 324.901C1244.16 329.38 1237.06 333.438 1229.89 338.066C1227.04 339.897 1224.29 342.273 1221.13 343.856C1219.99 344.995 1218.83 346.108 1217.69 347.247C1216.35 348.385 1214.7 348.904 1213.24 349.944C1212.37 350.884 1211.5 351.825 1210.66 352.765C1205.22 357.17 1200.47 362.119 1195.32 366.771C1182.21 378.55 1168.9 391.195 1159.62 406.661C1154.97 414.406 1152.35 422.671 1148.71 431.431C1146.09 437.766 1143.07 445.017 1141.69 452.366C1141.49 453.43 1140.4 454.222 1140.1 455.063C1138.55 459.394 1138.15 463.403 1136.37 467.659C1133.72 473.944 1130.11 479.66 1129.76 488.024C1128.13 488.495 1126.52 488.965 1124.89 489.435C1122.12 491.043 1119.35 492.652 1116.58 494.236C1112.99 496.661 1109.65 499.952 1106.98 503.292C1105.25 505.445 1102.5 507.004 1100.82 509.231C1095.72 515.987 1091.98 522.718 1088.2 530.884C1086.84 533.804 1084.74 536.798 1083.47 539.792C1082.39 542.366 1081.17 545.459 1080.6 548.008C1080.36 549.765 1080.13 551.497 1079.89 553.254C1079.49 554.615 1078.3 556.471 1077.88 557.782C1076.87 560.851 1077.83 564.142 1077.02 567.829C1076.4 570.601 1075.95 573.323 1076 577.034C1077.46 580.35 1077.73 583.963 1079.29 587.353C1080.95 590.966 1089.78 597.92 1093.49 599.949C1094.73 600.147 1095.97 600.32 1097.23 600.518C1097.9 600.889 1098.57 601.26 1099.23 601.656C1101.19 602.3 1103.66 602.225 1105.25 602.795H1113.71C1119.15 603.735 1125.83 601.211 1130.63 599.974C1133.99 599.108 1136.91 598.786 1140.23 598.266C1141.32 597.796 1142.43 597.326 1143.52 596.856C1149.01 595.148 1154.28 594.084 1159.15 591.61C1162.17 590.075 1164.89 587.205 1167.61 585.374C1169 584.433 1170.19 584.31 1171.35 583.246C1173.5 583.641 1175.14 585.423 1177.66 585.943C1180.75 586.562 1184.98 585.844 1187.7 585.374C1191.37 584.755 1195.25 585.126 1198.89 584.235C1202.57 583.345 1206.41 581.093 1209.5 579.435C1210.59 579.113 1211.7 578.767 1212.79 578.445C1214.55 577.406 1216.33 576.366 1218.08 575.327C1219.05 575.005 1219.99 574.659 1220.95 574.337C1223.75 572.778 1226.4 570.304 1228.99 568.547C1232.85 566.196 1236.74 563.82 1240.62 561.469C1244.21 558.03 1247.8 554.59 1251.38 551.151C1255.15 548.156 1258.81 544.816 1261.85 541.104C1264.47 537.912 1268.11 535.511 1270.88 532.468C1273.6 528.929 1276.32 525.39 1279.04 521.852C1280.43 518.981 1281.81 516.086 1283.2 513.215C1283.62 511.335 1284.07 509.454 1284.49 507.549C1285.97 505.272 1289.06 502.897 1291.22 501.189C1295.62 497.725 1299.06 493.221 1303.56 489.732C1305.94 487.876 1307.99 485.451 1309.87 483.075C1312.74 479.438 1316.75 476.592 1319.62 472.88C1321 471.643 1322.39 470.43 1323.77 469.193C1327.98 464.071 1333.37 459.691 1337.11 454.197C1340.62 449.025 1345.1 442.517 1346.44 435.663C1347.77 428.808 1340.03 425.665 1344.43 419.949C1348.66 414.505 1355.14 409.754 1360.78 405.671C1366.33 400.994 1371.87 396.342 1377.41 391.665C1379.41 389.636 1381.42 387.607 1383.42 385.578C1391.36 379.49 1398.34 372.636 1406.38 366.622C1408.43 364.643 1410.49 362.663 1412.54 360.683C1416.47 357.986 1419.67 354.596 1423.45 351.775C1440.42 339.155 1456.21 325.322 1472.78 312.306C1492.13 297.112 1508.98 279.468 1528.72 264.769C1533.15 261.478 1536.86 256.826 1541.34 253.584C1549.63 247.621 1562.54 235.124 1564 222.875C1561.55 219.881 1557.94 220.598 1553.24 219.633C1541.26 217.109 1526.1 222.727 1516.23 225.993C1514.37 226.785 1512.49 227.601 1510.63 228.393H1510.71Z" fill="#00AB41"/>
<path fill-rule="evenodd" clip-rule="evenodd" d="M62.2384 221.092C84.8522 186.161 33.1658 220.958 25.2398 208.217C20.5435 200.674 36.5208 173.933 53.995 156.296C71.8224 138.285 91.5201 127.311 110.699 114.501C167.026 76.9388 215.884 62.4024 240.432 63.9239C266.577 65.5483 260.436 86.0412 242.787 120.099C241.886 121.844 241.079 123.506 240.23 125.193C195.504 177.818 132.585 183.639 141.834 208.833C169.416 201.453 135.653 279.478 73.2866 311.811C34.8905 330.703 3.08286 340.238 -8.24442 332.508C-15.8491 327.328 -5.20874 304.465 -21.0221 306.873C-31.5583 308.456 -44.0605 311.715 -57.6568 316.631C-61.7685 318.094 -97.2697 330.9 -70.7427 306.299C-55.27 291.955 -39.3126 293.052 -25.8416 289.547C-3.43791 283.705 40.79 251.134 58.0042 227.325C59.6675 225.026 61.0811 222.985 62.2721 221.101L62.2384 221.092Z" fill="#0071EB"/>
</svg>
