<svg width="1940" height="1208" viewBox="-250 0 1940 908" fill="none" xmlns="http://www.w3.org/2000/svg">
<path fill-rule="evenodd" clip-rule="evenodd" d="M85.2381 872.493C98.2202 832.344 56.7269 879.993 45.6196 869.593C39.04 863.438 47.6712 833.052 60.1581 811.191C72.8926 788.87 89.306 772.952 104.729 755.371C150.043 703.796 194.083 676.736 218.526 671.783C244.561 666.513 243.924 688.197 235.576 726.188C235.152 728.133 234.798 729.973 234.409 731.848C204.412 795.131 144.312 817.346 159.983 839.596C185.063 825.128 172.47 910.414 119.869 958.452C87.219 987.033 58.5663 1004.72 45.4427 1000.12C36.6347 997.044 41.0564 971.858 26.1994 978.367C16.2948 982.682 4.90448 989.156 -7.12257 997.539C-10.7661 1000.05 -42.1779 1021.91 -22.6516 990.854C-11.2613 972.742 4.65685 969.629 16.9315 962.661C37.3421 951.058 72.1144 907.549 82.7265 879.71C83.7524 877.021 84.6013 874.651 85.2734 872.493H85.2381Z" fill="white"/>
<path fill-rule="evenodd" clip-rule="evenodd" d="M1349.95 114.401C1330.67 143.111 1376.71 117.363 1384.58 129.427C1389.22 136.567 1375.69 158.669 1360.39 172.539C1344.76 186.736 1327.09 194.508 1309.98 203.964C1259.78 231.678 1215.39 239.741 1192.69 235.961C1168.54 231.929 1173.26 214.417 1188.07 186.001C1188.83 184.558 1189.52 183.13 1190.21 181.737C1229.1 139.554 1286.81 140.604 1277.19 117.366C1252.09 121.208 1279.78 55.4544 1335.83 32.975C1370.35 20.0155 1399.22 14.7315 1410.03 22.677C1417.27 27.9918 1408.44 47.1692 1422.94 46.618C1432.57 46.2327 1443.92 44.5869 1456.26 41.5885C1459.97 40.7039 1492.11 32.8612 1468.76 52.0145C1455.14 63.2158 1440.39 60.6299 1428.14 62.4114C1407.74 65.3984 1368.43 89.8269 1353.63 109.242C1352.21 111.092 1351 112.783 1349.97 114.324L1349.95 114.401Z" fill="#FFBE00"/>
</svg>
