<svg width="208" height="148" viewBox="0 0 208 148" fill="none" xmlns="http://www.w3.org/2000/svg">
<g clip-path="url(#clip0_47_13490)">
<path d="M47.0982 40.7903L39.9473 41.5078L40.8689 50.6931L48.0198 49.9755L47.0982 40.7903Z" fill="#FF9EAB"/>
<path d="M42.6443 32.3848C39.5281 32.4629 36.6505 33.5305 37.247 39.4605C37.5884 42.8626 37.8681 44.9998 40.9083 44.6953C43.9484 44.3909 48.597 41.7581 48.2555 38.356C47.9141 34.9538 45.6967 32.3087 42.6422 32.3868L42.6443 32.3848Z" fill="#FF9EAB"/>
<path d="M40.9111 44.8187C40.8474 44.8187 40.7939 44.7714 40.7857 44.7056C40.7795 44.6356 40.8289 44.576 40.8988 44.5678C42.0466 44.4526 43.3959 44.0042 44.6012 43.3398C44.6629 43.3069 44.739 43.3274 44.772 43.3892C44.8049 43.4488 44.7843 43.527 44.7226 43.5599C43.4884 44.2407 42.1042 44.6994 40.9235 44.8166C40.9194 44.8166 40.9153 44.8166 40.9111 44.8166V44.8187Z" fill="#360530"/>
<path d="M47.5472 31.8569C45.5602 30.1435 43.5856 30.9333 41.8968 30.3883C37.8201 29.0739 35.3148 33.5744 36.5242 34.8991C34.5414 36.3265 36.5777 38.186 37.0981 37.9885C37.5938 37.7993 38.4433 32.7414 39.5725 34.2573C43.0302 38.8894 45.4841 33.2515 44.4166 36.7153C44.071 37.8343 45.0007 39.0849 45.9592 39.7307C46.2225 39.7204 46.6792 42.2566 47.2263 42.4109C48.1786 42.6803 47.831 41.5799 48.3041 41.3783C48.95 41.1006 49.4354 38.2415 48.7237 36.8572C48.7237 36.8572 50.0319 34.0002 47.5451 31.8569H47.5472Z" fill="#0071EB"/>
<path d="M47.0011 36.929C46.0981 36.8303 45.2527 37.7703 45.1149 39.0291C44.9771 40.2879 45.5962 41.3884 46.4992 41.4891C47.4022 41.5879 48.2476 40.6479 48.3854 39.3891C48.5232 38.1302 47.9041 37.0298 47.0011 36.929Z" fill="#FF9EAB"/>
<path d="M46.3385 39.5239C46.3158 39.5239 46.2912 39.5177 46.2706 39.5033C46.213 39.4663 46.1945 39.3882 46.2336 39.3306C46.6285 38.7176 47.1468 38.586 47.1674 38.5798C47.2353 38.5633 47.3032 38.6045 47.3196 38.6724C47.3361 38.7402 47.2949 38.8081 47.2271 38.8246C47.2188 38.8246 46.7807 38.9439 46.4434 39.4663C46.4187 39.5033 46.3796 39.5239 46.3385 39.5239Z" fill="#360530"/>
<path d="M56.6677 75.8554C58.27 75.9377 58.8295 74.5061 58.8295 74.5061L57.3547 73.5764C56.5772 72.8441 55.0674 75.7732 56.6677 75.8554Z" fill="#5D0859"/>
<path d="M77.9029 84.6447L65.0137 89.3691L67.8141 97.0092L80.7033 92.2848L77.9029 84.6447Z" fill="#DBC3C3"/>
<path d="M78.2572 85.6157L65.3672 90.3379L65.4514 90.5677L78.3414 85.8455L78.2572 85.6157Z" fill="white"/>
<path d="M78.6596 86.7134L65.7695 91.4355L65.8537 91.6654L78.7438 86.9432L78.6596 86.7134Z" fill="white"/>
<path d="M79.0642 87.7968L66.1758 92.5234L66.2601 92.7532L79.1484 88.0266L79.0642 87.7968Z" fill="white"/>
<path d="M79.4623 88.9028L66.5723 93.625L66.6565 93.8548L79.5465 89.1327L79.4623 88.9028Z" fill="white"/>
<path d="M79.8627 90.0024L66.9727 94.7246L67.0569 94.9544L79.9469 90.2323L79.8627 90.0024Z" fill="white"/>
<path d="M80.267 91.0923L67.377 95.8145L67.4612 96.0443L80.3512 91.3221L80.267 91.0923Z" fill="white"/>
<path d="M75.2579 85.6186C75.2579 85.6186 77.0248 90.4111 77.1667 91.1722C77.3786 92.3056 76.7121 92.3529 76.2452 92.8445C75.9573 93.1489 75.768 93.6796 75.8215 94.0951L75.8256 94.1321C78.7217 95.6665 81.3484 97.7913 83.5699 100.815C84.802 101.878 86.5133 102.189 88.0395 101.629L81.3525 83.3848L75.2559 85.6206L75.2579 85.6186Z" fill="#4D9496"/>
<path d="M80.633 84.427C80.6104 84.3633 80.5405 84.3324 80.4767 84.355C80.4129 84.3777 80.38 84.4476 80.4047 84.5114L86.4067 100.888C86.4253 100.938 86.4726 100.969 86.5219 100.969C86.5363 100.969 86.5507 100.967 86.5631 100.96C86.6268 100.938 86.6597 100.868 86.6351 100.804L80.633 84.427Z" fill="white"/>
<path d="M82.8867 96.1798C82.7057 96.0914 82.4856 96.1654 82.3972 96.3485L81.4572 98.2717C81.3687 98.4527 81.4428 98.6728 81.6259 98.7613C81.6773 98.7859 81.7328 98.7983 81.7863 98.7983C81.922 98.7983 82.0516 98.7222 82.1154 98.5926L83.0554 96.6694C83.1439 96.4884 83.0698 96.2683 82.8867 96.1798Z" fill="white"/>
<path d="M81.3867 94.9978C81.2057 94.9094 80.9856 94.9855 80.8972 95.1665L79.9572 97.0897C79.8687 97.2707 79.9428 97.4908 80.1258 97.5793C80.1773 97.6039 80.2328 97.6163 80.2863 97.6163C80.422 97.6163 80.5516 97.5402 80.6154 97.4106L81.5554 95.4874C81.6438 95.3064 81.5698 95.0863 81.3867 94.9978Z" fill="white"/>
<path d="M48.1272 119.069L41.1523 123.26L48.2227 135.027L55.1975 130.836L48.1272 119.069Z" fill="#DBC3C3"/>
<path d="M47.245 119.597L47.0352 119.723L54.1055 131.49L54.3153 131.364L47.245 119.597Z" fill="white"/>
<path d="M46.245 120.198L46.0352 120.324L53.1055 132.091L53.3153 131.965L46.245 120.198Z" fill="white"/>
<path d="M45.243 120.802L45.0332 120.928L52.1035 132.695L52.3133 132.569L45.243 120.802Z" fill="white"/>
<path d="M44.243 121.401L44.0332 121.527L51.1035 133.294L51.3133 133.168L44.243 121.401Z" fill="white"/>
<path d="M43.243 122.001L43.0332 122.127L50.1035 133.894L50.3133 133.768L43.243 122.001Z" fill="white"/>
<path d="M42.243 122.602L42.0332 122.729L49.1035 134.496L49.3133 134.369L42.243 122.602Z" fill="white"/>
<path d="M48.6578 131.335C47.584 131.759 47.4113 131.111 46.8415 130.747C46.4898 130.52 45.9303 130.436 45.5333 130.566L45.4983 130.578C44.5378 133.711 42.9457 136.691 40.3972 139.445C39.5868 140.856 39.6033 142.594 40.4404 143.989L57.0952 133.98L53.7506 128.414C53.7506 128.414 49.3777 131.053 48.6578 131.337V131.335Z" fill="#4D9496"/>
<path d="M55.8619 133.205L40.9123 142.19C40.8547 142.225 40.8362 142.299 40.8712 142.356C40.8938 142.395 40.935 142.416 40.9761 142.416C40.9967 142.416 41.0193 142.41 41.0399 142.399L55.9894 133.415C56.047 133.38 56.0655 133.306 56.0306 133.248C55.9956 133.191 55.9216 133.172 55.864 133.207L55.8619 133.205Z" fill="white"/>
<path d="M44.5599 137.448L42.4927 136.888C42.2973 136.835 42.0958 136.95 42.0443 137.145C41.9909 137.341 42.1061 137.542 42.3015 137.594L44.3686 138.153C44.4016 138.161 44.4324 138.165 44.4653 138.165C44.6258 138.165 44.7739 138.058 44.8191 137.896C44.8726 137.701 44.7574 137.499 44.562 137.448H44.5599Z" fill="white"/>
<path d="M45.4388 135.752L43.3717 135.193C43.1763 135.139 42.9747 135.254 42.9233 135.45C42.8698 135.645 42.985 135.847 43.1804 135.898L45.2476 136.458C45.2805 136.466 45.3113 136.47 45.3442 136.47C45.5047 136.47 45.6528 136.363 45.698 136.201C45.7515 136.005 45.6363 135.804 45.4409 135.752H45.4388Z" fill="white"/>
<path d="M56.1596 69.6094H30.6499L30.6211 78.3862C30.9317 82.5535 34.5909 85.6779 38.7932 85.3632L50.1555 84.5158C54.3578 84.2031 57.513 80.5706 57.2004 76.4033L56.1596 69.6094Z" fill="#F78989"/>
<path d="M58.9929 89.0655L60.3052 98.0665L49.996 92.3689L58.9929 89.0655L56.8558 74.4121L40.5137 77.3021L45.3885 100.706C46.0385 105.469 51.3083 108.442 55.6977 106.403L76.3634 97.1738L71.2417 84.5691L58.9929 89.0675V89.0655Z" fill="#0071EB"/>
<path d="M60.3053 98.0674L58.993 89.0664L49.9961 92.3698L60.3053 98.0674Z" fill="#0071EB"/>
<path d="M42.6312 105.502L42.9788 103.383L41.8887 101.057L42.6312 105.502Z" fill="#0071EB"/>
<path d="M42.6311 105.503L41.8885 101.056L42.9787 103.382L47.1871 77.7118L30.7463 75.4492L27.6239 103.435L27.5766 103.849C27.4244 105.196 27.6692 106.601 28.3644 107.882L40.7346 130.677L52.8806 124.545L42.9766 103.384L42.629 105.503H42.6311Z" fill="#0071EB"/>
<path d="M70.1997 87.0218C70.175 86.958 70.1051 86.9272 70.0413 86.9519C69.9776 86.9765 69.9467 87.0465 69.9714 87.1102L73.6882 96.7633C73.7067 96.8127 73.754 96.8414 73.8013 96.8414C73.8157 96.8414 73.8301 96.8394 73.8445 96.8332C73.9083 96.8085 73.9392 96.7386 73.9145 96.6748L70.1976 87.0218H70.1997Z" fill="#E2CFCF"/>
<path d="M70.9135 93.3227C70.7963 93.407 59.0534 101.74 54.3534 99.0285C53.6664 98.6315 52.6215 96.6569 51.5622 89.5009C50.9245 85.1958 50.5851 81.0121 50.5831 80.971C50.5769 80.9031 50.5193 80.8537 50.4514 80.8599C50.3836 80.8661 50.3342 80.9237 50.3404 80.9915C50.3959 81.6765 51.7123 97.7862 54.2341 99.2404C54.9067 99.6271 55.7336 99.8225 56.7106 99.8225C58.6955 99.8225 61.3037 99.0244 64.5042 97.4324C68.0421 95.6717 71.0287 93.5448 71.0575 93.5222C71.113 93.4831 71.1254 93.407 71.0863 93.3515C71.0472 93.2959 70.9711 93.2836 70.9156 93.3227H70.9135Z" fill="#E2CFCF"/>
<path d="M43.4845 85.2639C43.4166 85.268 43.3672 85.3277 43.3713 85.3956C43.7601 90.5481 44.153 94.6496 44.1571 94.6886C44.1632 94.7524 44.2167 94.7997 44.2784 94.7997C44.2825 94.7997 44.2867 94.7997 44.2908 94.7997C44.3586 94.7935 44.408 94.7339 44.3998 94.666C44.3957 94.6249 44.0028 90.5275 43.614 85.377C43.6099 85.3092 43.5523 85.2598 43.4824 85.2639H43.4845Z" fill="#E2CFCF"/>
<path d="M50.3992 121.869L40.9086 127.133C40.849 127.166 40.8284 127.24 40.8613 127.299C40.884 127.34 40.9251 127.363 40.9683 127.363C40.9889 127.363 41.0094 127.359 41.0279 127.349L50.5185 122.085C50.5781 122.052 50.5987 121.978 50.5658 121.918C50.5329 121.859 50.4588 121.838 50.3992 121.871V121.869Z" fill="#E2CFCF"/>
<path d="M35.2482 102.114C36.1512 96.0313 37.1858 80.5634 37.1961 80.4091C37.2002 80.3412 37.1488 80.2837 37.0829 80.2795C37.013 80.2754 36.9575 80.3248 36.9534 80.3927C36.9431 80.549 35.9084 96.0046 35.0075 102.079C34.6167 104.713 36.0689 109.033 39.3208 114.914C41.7377 119.283 44.3027 122.929 44.3273 122.964C44.352 122.997 44.3891 123.016 44.4281 123.016C44.4528 123.016 44.4775 123.008 44.4981 122.993C44.5536 122.954 44.5659 122.878 44.5269 122.822C44.424 122.678 34.3329 108.282 35.2482 102.112V102.114Z" fill="#E2CFCF"/>
<path d="M69.0582 32.142C68.9266 31.35 68.4699 31.0641 67.9804 31.1464C67.4908 31.2287 67.1556 31.6792 67.2831 32.4382L67.787 35.4783C67.8693 35.9678 68.3321 36.301 68.8216 36.2187C69.3112 36.1365 69.6444 35.6737 69.5621 35.1841L69.0582 32.144V32.142Z" fill="#FF9EAB"/>
<path d="M70.797 31.6115C70.6531 30.7394 70.1903 30.4164 69.7007 30.4987C69.2112 30.581 68.8841 31.0705 69.0219 31.9077L69.565 35.1823C69.6472 35.6718 70.11 36.005 70.5996 35.9228C71.0891 35.8405 71.4223 35.3777 71.3401 34.8881L70.797 31.6136V31.6115Z" fill="#FF9EAB"/>
<path d="M72.6405 31.7232C72.4821 30.7729 72.0152 30.4171 71.5256 30.4973C71.0361 30.5796 70.7152 31.1082 70.8654 32.0173L71.3426 34.8867C71.4248 35.3763 71.8876 35.7095 72.3772 35.6272C72.8667 35.5449 73.1999 35.0821 73.1177 34.5926L72.6405 31.7232Z" fill="#FF9EAB"/>
<path d="M74.4369 31.5641C74.3094 30.7928 73.8548 30.5151 73.3632 30.5953C72.8736 30.6776 72.5384 31.1198 72.6597 31.8583L73.1143 34.5898C73.1966 35.0794 73.6594 35.4126 74.1489 35.3303C74.6385 35.248 74.9717 34.7852 74.8894 34.2957L74.4348 31.5641H74.4369Z" fill="#FF9EAB"/>
<path d="M73.3457 31.8043L69.851 32.3843C68.3289 32.6373 67.3004 34.0751 67.5514 35.5972L69.0694 44.7381L76.4228 43.5183L74.6312 32.7237C74.5304 32.1148 73.9545 31.7035 73.3457 31.8043Z" fill="#FF9EAB"/>
<path d="M69.5075 36.5541C67.8805 36.297 69.7049 33.7855 68.0039 33.7135C67.2408 33.6806 66.0827 34.9518 66.3687 36.5644C66.7183 38.5349 67.6974 39.6168 69.1743 40.2689C70.032 40.6473 72.1115 41.1698 72.5805 39.0286C72.9055 37.5476 72.0889 36.9634 69.5075 36.5562V36.5541Z" fill="#FF9EAB"/>
<path d="M69.5267 36.4333C68.8767 36.3304 68.8582 35.8573 68.9034 35.0901C68.9322 34.6294 68.961 34.1542 68.6936 33.8601C68.5414 33.6914 68.3172 33.603 68.0087 33.5906C67.9182 33.5865 67.8256 33.5989 67.729 33.6235C67.6631 33.642 67.6261 33.7079 67.6426 33.7737C67.6611 33.8395 67.7269 33.8765 67.7927 33.8601C67.8647 33.8416 67.9346 33.8313 67.9984 33.8354C68.2391 33.8457 68.4077 33.9074 68.5126 34.0246C68.7101 34.2427 68.6854 34.6479 68.6607 35.0778C68.6216 35.7257 68.5723 36.532 69.4876 36.676C71.1331 36.9351 71.9826 37.2622 72.3282 37.7682C72.5359 38.0726 72.5771 38.4634 72.4598 39.0023C72.4454 39.0682 72.4866 39.134 72.5524 39.1484C72.5606 39.1484 72.5709 39.1504 72.5791 39.1504C72.6347 39.1504 72.6861 39.1114 72.6984 39.0538C72.8321 38.4449 72.7786 37.9945 72.5298 37.6304C72.1369 37.0544 71.2668 36.7089 69.5246 36.4353L69.5267 36.4333Z" fill="#360530"/>
<path d="M70.9958 32.0788C70.9855 32.013 70.9218 31.9677 70.856 31.978C70.7901 31.9883 70.7449 32.0521 70.7552 32.1179L71.218 34.905C71.2529 35.1107 71.2036 35.3164 71.0843 35.485C70.9629 35.6537 70.784 35.7668 70.5783 35.7997C70.1546 35.8697 69.7535 35.5838 69.6835 35.16C69.6732 35.0942 69.6095 35.049 69.5437 35.0593C69.4778 35.0695 69.4326 35.1333 69.4429 35.1991C69.5251 35.699 69.9592 36.0548 70.4508 36.0548C70.5063 36.0548 70.5618 36.0507 70.6194 36.0404C70.8889 35.9952 71.1254 35.8491 71.2838 35.627C71.4422 35.4048 71.5059 35.1354 71.4607 34.8659L70.9979 32.0788H70.9958Z" fill="#360530"/>
<path d="M72.8081 32.0007C72.7979 31.9349 72.7341 31.8896 72.6683 31.8999C72.6024 31.9102 72.5572 31.9739 72.5675 32.0398L72.9953 34.6109C73.0303 34.8166 72.9809 35.0223 72.8616 35.1909C72.7403 35.3596 72.5613 35.4727 72.3556 35.5056C71.9319 35.5756 71.5308 35.2897 71.4609 34.8659C71.4506 34.8001 71.3868 34.7549 71.321 34.7652C71.2552 34.7754 71.2099 34.8392 71.2202 34.905C71.3025 35.4049 71.7365 35.7607 72.2281 35.7607C72.2836 35.7607 72.3392 35.7566 72.3968 35.7463C72.6662 35.7011 72.9028 35.555 73.0611 35.3329C73.2195 35.1107 73.2833 34.8392 73.238 34.5718L72.8102 31.9986L72.8081 32.0007Z" fill="#360530"/>
<path d="M74.6494 32.0905C74.6391 32.0247 74.5753 31.9795 74.5095 31.9897C74.4437 32 74.3984 32.0638 74.4087 32.1296L74.7707 34.3161C74.8406 34.7398 74.5547 35.1409 74.131 35.2108C73.7073 35.2808 73.3062 34.9949 73.2363 34.5712C73.226 34.5053 73.1622 34.4601 73.0964 34.4704C73.0306 34.4806 72.9853 34.5444 72.9956 34.6102C73.0779 35.1101 73.5119 35.4659 74.0035 35.4659C74.059 35.4659 74.1146 35.4618 74.1721 35.4515C74.7275 35.3589 75.106 34.8324 75.0134 34.275L74.6514 32.0885L74.6494 32.0905Z" fill="#360530"/>
<path d="M69.2655 32.6315C69.2552 32.5657 69.1914 32.5205 69.1256 32.5308C69.0598 32.541 69.0145 32.6048 69.0248 32.6706L69.4444 35.2006C69.5082 35.5853 69.2758 35.9596 68.9035 36.0727C68.8397 36.0913 68.8027 36.1612 68.8212 36.225C68.8376 36.2784 68.8849 36.3113 68.9384 36.3113C68.9508 36.3113 68.9611 36.3113 68.9734 36.3052C69.4629 36.1571 69.7674 35.6655 69.6851 35.1595L69.2655 32.6295V32.6315Z" fill="#360530"/>
<path d="M67.3853 41.7413C67.6774 43.0968 67.8749 44.44 67.9387 45.7297C68.0765 48.1527 67.6569 52.0443 65.3737 53.0399C65.1742 53.1366 64.9376 53.1612 64.7237 53.2188C64.6147 53.2209 64.4933 53.2271 64.3864 53.2476C63.1564 53.2538 62.1937 52.9926 60.8259 52.3776C58.6229 51.3656 56.3912 49.5822 54.5935 47.8565L45.9277 57.4581L47.0405 58.3714C49.842 60.6216 52.7093 62.4584 56.1588 63.8119C61.4388 65.8935 67.7844 65.9963 72.577 62.3391C79.7309 56.9377 79.9654 46.8136 77.6431 39.0488L67.3853 41.7393V41.7413Z" fill="#00AB41"/>
<path d="M7.28058 23.7659C6.85892 23.7803 6.53187 24.2267 6.56478 25.1996L6.76225 31.0803L8.28641 31.0289L8.08895 25.1482C8.05809 24.2164 7.70019 23.7516 7.27853 23.7659H7.28058Z" fill="#FF9EAB"/>
<path d="M4.26365 23.2744C3.85226 23.365 3.61161 23.8627 3.82141 24.813L4.82107 29.3547L6.31026 29.0276L5.31061 24.486C5.11109 23.5748 4.67503 23.1839 4.26365 23.2744Z" fill="#FF9EAB"/>
<path d="M2.0927 24.5781C1.6916 24.7057 1.49826 25.224 1.79239 26.1517L2.96071 29.8253L4.41494 29.3625L3.24662 25.6889C2.96277 24.8003 2.4938 24.4506 2.0927 24.5781Z" fill="#FF9EAB"/>
<path d="M0.387182 25.9391C-0.00362987 26.0954 -0.157898 26.6261 0.206174 27.5311L1.9134 31.7725L3.32855 31.2027L1.62132 26.9614C1.27371 26.0954 0.777993 25.7828 0.387182 25.9391Z" fill="#FF9EAB"/>
<path d="M5.75917 28.6849L2.29946 29.4459C1.69679 29.5776 1.31626 30.1741 1.4479 30.7767L3.8298 41.6084L11.1112 40.0081L9.0893 30.8138C8.75814 29.3061 7.26688 28.3537 5.76123 28.6849H5.75917Z" fill="#FF9EAB"/>
<path d="M10.7892 26.6562C9.11696 25.9733 9.08816 30.3442 7.36447 30.9716C4.87562 31.8766 4.78306 33.7977 5.76626 34.9332C7.18758 36.5725 8.98737 35.3877 9.41521 34.7707C10.1495 33.7072 10.2606 32.3559 10.5342 31.0909C10.8571 29.5975 11.54 26.9627 10.7913 26.6562H10.7892Z" fill="#FF9EAB"/>
<path d="M8.51586 29.7052C8.45621 29.6743 8.38216 29.697 8.35131 29.7566C8.03043 30.3675 7.70544 30.7172 7.32492 30.857C5.92005 31.3692 5.38731 32.1447 5.18779 32.7062C4.96565 33.3356 5.04587 34.0411 5.40994 34.6459C5.43256 34.6829 5.4737 34.7055 5.51484 34.7055C5.53541 34.7055 5.55804 34.6993 5.57861 34.6891C5.6362 34.6541 5.65471 34.58 5.61974 34.5224C5.28858 33.9733 5.21865 33.3562 5.42022 32.7885C5.67939 32.0542 6.36846 31.4659 7.41131 31.0874C7.85354 30.927 8.22173 30.5403 8.5714 29.8718C8.60225 29.8121 8.57963 29.7381 8.51998 29.7072L8.51586 29.7052Z" fill="#360530"/>
<path d="M7.22723 29.0098C7.20255 29.0098 4.64993 29.1456 2.50458 30.5978C2.44905 30.6348 2.43465 30.7109 2.47167 30.7664C2.4943 30.8014 2.53338 30.8199 2.57246 30.8199C2.59509 30.8199 2.61977 30.8137 2.64034 30.7993C4.7281 29.3862 7.21283 29.2546 7.23752 29.2546C7.3054 29.2505 7.35682 29.1949 7.3527 29.1271C7.35065 29.0592 7.291 29.0078 7.22518 29.0098H7.22723Z" fill="#360530"/>
<path d="M27.2066 47.2231C23.5762 47.1738 20.281 46.2584 17.6667 43.7161C14.7439 40.8961 12.8782 36.9509 11.3849 33.123L1.35547 36.5704C1.90672 38.2776 2.49911 39.9869 3.22519 41.6962C5.55155 47.2437 9.10382 52.5999 14.4312 55.8415C21.3301 60.161 29.8127 60.052 37.5241 59.2807L35.9114 46.4477C32.8302 46.929 29.858 47.2828 27.2046 47.2211L27.2066 47.2231Z" fill="#00AB41"/>
<path d="M47.7815 45.5821H39.2063C33.5046 46.1601 31.7254 48.0689 31.4847 51.253L29.5039 77.4971C29.5039 77.4971 36.7154 81.8371 47.9399 77.4971C58.7078 73.3339 58.8271 74.5063 58.8271 74.5063L57.2186 53.1968C56.978 50.0127 55.1 45.5801 47.7795 45.5801L47.7815 45.5821Z" fill="#00AB41"/>
<path d="M43.0937 39.5743C43.3493 39.5743 43.5565 39.3312 43.5565 39.0313C43.5565 38.7314 43.3493 38.4883 43.0937 38.4883C42.8381 38.4883 42.6309 38.7314 42.6309 39.0313C42.6309 39.3312 42.8381 39.5743 43.0937 39.5743Z" fill="#5D0859"/>
<path d="M39.2968 38.4883C39.0417 38.4883 38.834 38.731 38.834 39.0313C38.834 39.3316 39.0417 39.5743 39.2968 39.5743C39.5518 39.5743 39.7596 39.3316 39.7596 39.0313C39.7596 38.731 39.5518 38.4883 39.2968 38.4883Z" fill="#5D0859"/>
<path d="M40.8369 39.292C40.8739 39.2344 40.8574 39.1603 40.7999 39.1233C40.7443 39.0863 40.6682 39.1027 40.6312 39.1603C40.623 39.1727 40.444 39.4524 40.3597 39.6355C40.2774 39.8165 40.2712 39.9769 40.3412 40.1106C40.4481 40.3163 40.6847 40.3657 40.7114 40.3718C40.7196 40.3718 40.7258 40.3739 40.734 40.3739C40.7916 40.3739 40.841 40.3327 40.8533 40.2752C40.8657 40.2093 40.8225 40.1456 40.7567 40.1312C40.7155 40.1229 40.6003 40.0818 40.5551 39.9975C40.5222 39.9337 40.5304 39.8453 40.5798 39.7362C40.6559 39.5696 40.8328 39.2961 40.8348 39.292H40.8369Z" fill="#5D0859"/>
<path d="M41.7115 41.1328H40.2963C40.2346 41.1328 40.1832 41.1781 40.175 41.2398C40.175 41.2562 40.1318 41.6347 40.3683 41.9042C40.5164 42.0708 40.7324 42.1551 41.0121 42.1551C41.2919 42.1551 41.4996 42.0708 41.6457 41.9083C41.8822 41.6388 41.8349 41.2562 41.8328 41.2398C41.8246 41.1781 41.7732 41.1328 41.7115 41.1328ZM41.4605 41.7458C41.3639 41.8548 41.2137 41.9103 41.0121 41.9103C40.8105 41.9103 40.6522 41.8548 40.5514 41.7437C40.4506 41.6306 40.4218 41.4784 40.4156 41.3776H41.5922C41.5881 41.4784 41.5613 41.6326 41.4605 41.7478V41.7458Z" fill="#5D0859"/>
<path d="M92.5434 41.3681C91.3977 35.8165 87.7097 39.0294 85.9551 36.6414C81.5184 30.5982 75.2839 33.3503 73.9675 36.1251C72.9123 38.3506 71.8756 41.7343 74.1094 45.6588C75.8146 48.6516 83.3367 45.0088 84.3281 48.3143C85.4964 52.2121 88.0614 50.5275 90.0257 51.5848C95.4395 54.5035 98.0003 49.351 96.6346 46.3397C95.4601 43.75 93.1563 44.3568 92.5413 41.3661L92.5434 41.3681Z" fill="#3F1378"/>
<path d="M79.3712 46.3761C82.109 46.3761 84.3283 43.6327 84.3283 40.2486C84.3283 36.8645 82.109 34.1211 79.3712 34.1211C76.6334 34.1211 74.4141 36.8645 74.4141 40.2486C74.4141 43.6327 76.6334 46.3761 79.3712 46.3761Z" fill="#FF9EAB"/>
<path d="M75.8185 47.4431C75.8185 49.212 77.1904 49.3499 78.9594 49.3499H79.6628C81.4318 49.3499 82.9292 49.212 82.9292 47.4431V43.8867H75.8164V47.4431H75.8185Z" fill="#FF9EAB"/>
<path d="M79.3725 33.8678C74.6252 33.8082 72.4943 38.1153 73.9691 39.7999C75.1826 41.1842 78.1261 39.7649 79.4877 36.4472C80.2097 38.5041 82.606 40.9682 84.0685 40.4046C86.9605 39.2384 85.5042 33.946 79.3725 33.8678Z" fill="#3F1378"/>
<path d="M85.1577 39.3698C84.2773 39.1826 83.3538 40.0259 83.0926 41.2518C82.8313 42.4777 83.3332 43.6234 84.2136 43.8106C85.0939 43.9978 86.0175 43.1545 86.2787 41.9285C86.5399 40.7026 86.0381 39.5569 85.1577 39.3698Z" fill="#FF9EAB"/>
<path d="M85.2684 40.978C85.2458 40.9821 84.7233 41.0602 84.2749 41.6238C84.2317 41.6773 84.242 41.7555 84.2955 41.7987C84.3181 41.8172 84.3449 41.8254 84.3737 41.8254C84.4107 41.8254 84.4457 41.809 84.4703 41.7781C84.8529 41.2968 85.2972 41.2248 85.3054 41.2227C85.3733 41.2125 85.4206 41.1507 85.4103 41.0829C85.4001 41.015 85.3363 40.9677 85.2705 40.978H85.2684Z" fill="#360530"/>
<path d="M73.6394 39.3698C72.759 39.5569 72.2571 40.7026 72.5184 41.9285C72.7796 43.1545 73.7031 43.9978 74.5835 43.8106C75.4638 43.6234 75.9657 42.4777 75.7045 41.2518C75.4433 40.0259 74.5197 39.1826 73.6394 39.3698Z" fill="#FF9EAB"/>
<path d="M73.528 40.978C73.4601 40.9677 73.3984 41.015 73.3881 41.0829C73.3778 41.1507 73.4251 41.2125 73.493 41.2227C73.4971 41.2227 73.9435 41.2947 74.3281 41.7781C74.3528 41.809 74.3898 41.8254 74.4248 41.8254C74.4515 41.8254 74.4783 41.8172 74.503 41.7987C74.5564 41.7555 74.5647 41.6773 74.5235 41.6238C74.0751 41.0602 73.5506 40.98 73.5301 40.978H73.528Z" fill="#360530"/>
<path d="M82.472 44.8528C81.6061 45.7537 80.5036 46.2494 79.3723 46.2494C78.241 46.2494 77.2475 45.8072 76.3898 44.97C76.3404 44.9227 76.2622 44.9227 76.2149 44.9721C76.1676 45.0215 76.1676 45.0996 76.217 45.1469C77.122 46.0294 78.2142 46.4963 79.3723 46.4963C80.5303 46.4963 81.7356 45.9738 82.651 45.0235C82.6983 44.9742 82.6962 44.896 82.6468 44.8487C82.5975 44.8014 82.5193 44.8034 82.472 44.8528Z" fill="#360530"/>
<path d="M107.055 99.2734L107.081 109.655L118.382 110.475L115.498 99.9769L107.055 99.2734Z" fill="#FF9EAB"/>
<path d="M115.498 99.9769C115.498 103.058 117.87 109.066 118.435 112.538C118.814 114.859 118.45 115.772 118.238 116.438C118.238 116.438 118.345 119.748 121.584 119.748V99.9769C119.649 99.4647 117.635 99.3804 115.498 99.9769Z" fill="#FF3F31"/>
<path d="M115.582 110.173L118.236 116.432V116.436C119.702 111.792 115.498 104.825 115.498 99.9746L115.582 110.171V110.173Z" fill="#FF9EAB"/>
<path d="M73.6309 129.824L78.045 140.258L86.0792 132.909L82.8602 125.072L73.6309 129.824Z" fill="#FF9EAB"/>
<path d="M76.2324 141.243C74.338 142.635 73.3589 142.728 72.6699 142.843C72.6699 142.843 69.7717 144.445 71.2465 147.329L88.8495 138.326C88.4237 136.37 87.5824 134.537 86.0788 132.906C83.3349 134.309 79.0668 139.155 76.2324 141.241V141.243Z" fill="#FF3F31"/>
<path d="M72.6738 142.839V142.843C77.4726 142.033 81.7612 135.117 86.0787 132.908L77.0386 137.627L72.6738 142.839Z" fill="#FF9EAB"/>
<path d="M96.3609 31.6913C96.0503 30.9364 95.534 30.7554 95.065 30.9487C94.5981 31.14 94.3698 31.6645 94.666 32.3886L95.8569 35.2888C96.0482 35.7557 96.5851 35.9799 97.052 35.7886C97.5189 35.5973 97.7431 35.0605 97.5518 34.5936L96.3609 31.6933V31.6913Z" fill="#FF9EAB"/>
<path d="M97.9617 30.7731C97.6202 29.9421 97.0875 29.7262 96.6206 29.9195C96.1536 30.1108 95.9397 30.6723 96.2668 31.4704L97.5503 34.5949C97.7416 35.0618 98.2784 35.286 98.7453 35.0947C99.2123 34.9034 99.4365 34.3665 99.2452 33.8996L97.9617 30.7752V30.7731Z" fill="#FF9EAB"/>
<path d="M99.8157 30.4624C99.4434 29.5573 98.8983 29.3085 98.4314 29.4997C97.9645 29.691 97.7649 30.2896 98.1228 31.1576L99.248 33.8953C99.4393 34.3623 99.9761 34.5865 100.443 34.3952C100.91 34.2039 101.134 33.667 100.943 33.2001L99.8177 30.4624H99.8157Z" fill="#FF9EAB"/>
<path d="M101.563 29.8965C101.26 29.1601 100.746 28.9874 100.279 29.1807C99.8123 29.372 99.5799 29.8883 99.8699 30.5938L100.942 33.1999C101.133 33.6668 101.67 33.891 102.137 33.6997C102.604 33.5084 102.828 32.9716 102.636 32.5047L101.565 29.8986L101.563 29.8965Z" fill="#FF9EAB"/>
<path d="M100.533 30.3824L97.1984 31.7523C95.7462 32.3488 95.053 34.0108 95.6495 35.463L98.4408 42.2549L105.457 39.3711L102.018 31.0016C101.779 30.4215 101.115 30.1438 100.535 30.3824H100.533Z" fill="#FF9EAB"/>
<path d="M97.8095 35.9672C96.1372 36.0823 97.3755 33.1759 95.6723 33.4906C94.9072 33.6326 94.0474 35.1547 94.6994 36.6891C95.4954 38.563 96.7131 39.4145 98.3257 39.7251C99.2616 39.9061 101.444 39.9493 101.421 37.7196C101.407 36.177 100.465 35.782 97.8115 35.9672H97.8095Z" fill="#FF9EAB"/>
<path d="M97.7996 35.8425C97.1331 35.8899 97.0056 35.4229 96.876 34.6516C96.7999 34.1888 96.7197 33.7116 96.3885 33.4792C96.1993 33.3475 95.9587 33.3105 95.6481 33.3681C95.5596 33.3845 95.4691 33.4175 95.3786 33.4648C95.319 33.4977 95.2943 33.5717 95.3272 33.6334C95.3601 33.6931 95.4341 33.7178 95.4958 33.6849C95.5637 33.6499 95.6295 33.6252 95.6933 33.6129C95.934 33.5676 96.115 33.5923 96.2466 33.6828C96.4914 33.8556 96.5593 34.2628 96.6313 34.6927C96.7403 35.3448 96.876 36.1572 97.816 36.0894C99.5068 35.9721 100.424 36.1038 100.883 36.5275C101.159 36.7825 101.288 37.161 101.294 37.7205C101.294 37.7884 101.35 37.8439 101.418 37.8439C101.486 37.8439 101.541 37.7863 101.541 37.7184C101.535 37.0849 101.379 36.6489 101.049 36.3444C100.529 35.8631 99.587 35.7171 97.7975 35.8425H97.7996Z" fill="#360530"/>
<path d="M98.2685 31.188C98.2417 31.1242 98.1697 31.0954 98.106 31.1201C98.0422 31.1469 98.0114 31.2188 98.0381 31.2826L99.1303 33.9422C99.2105 34.1376 99.2105 34.3536 99.1303 34.549C99.048 34.7444 98.8958 34.8966 98.7004 34.9768C98.505 35.057 98.289 35.057 98.0936 34.9768C97.8982 34.8945 97.746 34.7423 97.6658 34.5469C97.6391 34.4832 97.5671 34.4523 97.5033 34.479C97.4395 34.5058 97.4087 34.5778 97.4354 34.6415C97.5403 34.8986 97.7398 35.0982 97.997 35.2051C98.1265 35.2586 98.2623 35.2853 98.3981 35.2853C98.5338 35.2853 98.6655 35.2586 98.793 35.2072C99.0501 35.1023 99.2496 34.9028 99.3566 34.6456C99.4635 34.3885 99.4635 34.1067 99.3586 33.8496L98.2664 31.1901L98.2685 31.188Z" fill="#360530"/>
<path d="M100.048 30.6986C100.021 30.6349 99.9494 30.604 99.8856 30.6307C99.8219 30.6575 99.791 30.7295 99.8177 30.7932L100.826 33.2471C100.906 33.4425 100.906 33.6585 100.826 33.8539C100.743 34.0493 100.591 34.2015 100.396 34.2817C100.2 34.362 99.9844 34.362 99.789 34.2817C99.5935 34.1995 99.4413 34.0473 99.3611 33.8519C99.3344 33.7881 99.2624 33.7572 99.1986 33.784C99.1349 33.8107 99.104 33.8827 99.1307 33.9465C99.2953 34.3476 99.684 34.5903 100.093 34.5903C100.225 34.5903 100.359 34.5656 100.488 34.5121C101.019 34.2941 101.272 33.6852 101.054 33.1546L100.046 30.7007L100.048 30.6986Z" fill="#360530"/>
<path d="M101.892 30.3716C101.865 30.3078 101.793 30.279 101.729 30.3037C101.665 30.3304 101.635 30.4024 101.661 30.4662L102.519 32.5519C102.599 32.7473 102.599 32.9633 102.519 33.1587C102.437 33.3541 102.285 33.5063 102.089 33.5865C101.894 33.6667 101.678 33.6667 101.482 33.5865C101.287 33.5042 101.135 33.352 101.054 33.1566C101.028 33.0929 100.956 33.062 100.892 33.0888C100.828 33.1155 100.797 33.1875 100.824 33.2512C100.929 33.5084 101.129 33.7079 101.386 33.8148C101.515 33.8683 101.651 33.8951 101.787 33.8951C101.922 33.8951 102.054 33.8683 102.182 33.8169C102.712 33.5989 102.965 32.99 102.747 32.4593L101.89 30.3736L101.892 30.3716Z" fill="#360530"/>
<path d="M96.6756 32.1314C96.6488 32.0676 96.5768 32.0388 96.5131 32.0635C96.4493 32.0902 96.4185 32.1622 96.4452 32.226L97.4366 34.6387C97.5868 35.0048 97.4407 35.4306 97.0972 35.626C97.0376 35.661 97.017 35.735 97.052 35.7947C97.0746 35.8358 97.1157 35.8564 97.1589 35.8564C97.1795 35.8564 97.2001 35.8502 97.2206 35.8399C97.6732 35.5828 97.8645 35.0234 97.6649 34.542L96.6735 32.1293L96.6756 32.1314Z" fill="#360530"/>
<path d="M57.0453 2.93075C56.6195 2.97395 56.3192 3.44909 56.42 4.43641L57.0329 10.3911L58.5777 10.2328L57.9647 4.27803C57.868 3.33391 57.4731 2.88756 57.0453 2.93281V2.93075Z" fill="#FF9EAB"/>
<path d="M55.1097 2.0206C54.6839 2.06379 54.3836 2.53894 54.4844 3.52625L54.9699 8.23245L56.5146 8.07406L56.0292 3.36787C55.9325 2.42375 55.5376 1.9774 55.1097 2.02265V2.0206Z" fill="#FF9EAB"/>
<path d="M53.3734 3.01474C52.9476 3.05793 52.6473 3.53513 52.7481 4.52039L53.1492 8.42234L54.6939 8.26396L54.2928 4.36201C54.1962 3.41789 53.8012 2.97154 53.3734 3.0168V3.01474Z" fill="#FF9EAB"/>
<path d="M51.6273 3.92489C51.2015 3.96809 50.9012 4.44323 51.002 5.43055L51.4792 10.0586L53.0239 9.9002L52.5467 5.27217C52.4501 4.32805 52.0551 3.8817 51.6273 3.92695V3.92489Z" fill="#FF9EAB"/>
<path d="M55.9981 7.6617L52.413 8.02988C51.7877 8.09365 51.3331 8.65313 51.3989 9.27637L52.3266 18.2774L59.8713 17.4999L59.1185 10.1958C58.958 8.63461 57.5614 7.4992 56.0002 7.65964L55.9981 7.6617Z" fill="#FF9EAB"/>
<path d="M61.3182 6.19248C59.7056 5.31007 59.1729 9.72419 57.3587 10.1582C54.7382 10.7855 54.4214 12.717 55.2853 13.9779C56.5318 15.8003 58.49 14.8088 58.9919 14.235C59.8578 13.2456 60.1252 11.8922 60.5469 10.6436C61.0447 9.17088 62.0402 6.58535 61.3203 6.19043L61.3182 6.19248Z" fill="#FF9EAB"/>
<path d="M58.4941 9.04499C58.0992 9.62709 57.7289 9.9418 57.3278 10.0385C55.8469 10.3923 55.2195 11.1163 54.9542 11.6614C54.6559 12.2702 54.6559 12.9963 54.9542 13.6483C54.9747 13.6936 55.02 13.7203 55.0673 13.7203C55.0837 13.7203 55.1023 13.7162 55.1187 13.71C55.1804 13.6813 55.2092 13.6072 55.1804 13.5455C54.911 12.951 54.9089 12.3216 55.1784 11.7704C55.526 11.0587 56.2891 10.5424 57.3875 10.2812C57.8523 10.1701 58.2699 9.8225 58.6998 9.18692C58.7389 9.12932 58.7245 9.05322 58.6669 9.01414C58.6093 8.97506 58.5332 8.98945 58.4941 9.04705V9.04499Z" fill="#360530"/>
<path d="M57.4444 8.15758C57.4176 8.15758 54.8239 7.99509 52.4852 9.21483C52.4235 9.24568 52.4008 9.32179 52.4317 9.38144C52.4543 9.42464 52.4975 9.44726 52.5428 9.44726C52.5613 9.44726 52.5818 9.44315 52.6004 9.43286C54.8732 8.24603 57.4012 8.4003 57.4279 8.40235C57.4958 8.40647 57.5554 8.35505 57.5595 8.28717C57.5637 8.21929 57.5122 8.15964 57.4444 8.15553V8.15758Z" fill="#360530"/>
<path d="M92.1454 79.4168C92.1454 79.2522 92.1393 79.0877 92.1269 78.9211L91.0676 72.0078H65.1116L65.0889 79.0424L62.0344 106.424C61.8452 107.681 61.9789 109.003 62.4314 110.122L73.6498 134.287L84.6851 129.165L77.5805 106.837L78.9874 98.2518L80.2031 104.087C80.8798 107.331 83.5928 109.635 86.7255 109.947L112.527 111.198L113.087 98.9368L94.5047 95.5696L92.1496 79.4168H92.1454Z" fill="#FFD833"/>
<path d="M95.6861 40.0595C96.5006 42.8178 98.142 49.0193 97.6648 52.3351C90.803 50.9549 88.8242 47.5589 84.1448 47.5589C84.1448 47.5589 76.6638 48.1554 73.1383 46.8822C69.5284 45.5781 61.8953 23.9704 61.0457 13.6797L50.2676 14.1713C50.5021 22.222 51.9542 32.6217 54.2847 40.2487C57.837 51.8764 61.8253 56.2864 65.5607 58.6909L64.1805 76.9891C64.1805 76.9891 70.2854 81.4485 82.0303 81.4485C93.7752 81.4485 93.7875 76.9891 93.7875 76.9891L92.7941 63.8167C100.672 65.7646 107.814 64.2322 109.229 54.8774C109.918 50.3255 108.692 44.2021 105.925 36.643L95.6902 40.0595H95.6861Z" fill="#FF3F31"/>
<path d="M78.1721 89.6445C78.1043 89.6486 78.0549 89.7083 78.0611 89.7741C78.456 95.0213 78.8571 97.506 78.8612 97.5307C78.8715 97.5903 78.9229 97.6335 78.9805 97.6335C78.9867 97.6335 78.9928 97.6335 79.0011 97.6335C79.0669 97.6233 79.1121 97.5595 79.1019 97.4937C79.0977 97.469 78.6987 94.9925 78.3038 89.7577C78.2997 89.6898 78.2421 89.6404 78.1742 89.6466L78.1721 89.6445Z" fill="#360530"/>
<path d="M81.348 40.1055C81.0888 40.1055 80.877 40.3523 80.877 40.6588C80.877 40.9653 81.0868 41.2121 81.348 41.2121C81.6092 41.2121 81.819 40.9653 81.819 40.6588C81.819 40.3523 81.6092 40.1055 81.348 40.1055Z" fill="#360530"/>
<path d="M77.4847 40.1055C77.2255 40.1055 77.0137 40.3523 77.0137 40.6588C77.0137 40.9653 77.2235 41.2121 77.4847 41.2121C77.7459 41.2121 77.9557 40.9653 77.9557 40.6588C77.9557 40.3523 77.7459 40.1055 77.4847 40.1055Z" fill="#360530"/>
<path d="M79.4208 40.9249C79.4578 40.8673 79.4413 40.7912 79.3837 40.7541C79.3261 40.7171 79.25 40.7336 79.213 40.7912C79.2048 40.8035 79.0217 41.0874 78.9374 41.2745C78.8531 41.4597 78.8469 41.6222 78.9189 41.7579C79.0279 41.9657 79.2685 42.0171 79.2953 42.0233C79.3035 42.0233 79.3117 42.0253 79.3179 42.0253C79.3755 42.0253 79.429 41.9842 79.4393 41.9245C79.4516 41.8566 79.4084 41.7929 79.3405 41.7785C79.3405 41.7785 79.1904 41.7456 79.1369 41.6427C79.1019 41.5769 79.1122 41.4885 79.1616 41.3753C79.2398 41.2046 79.4187 40.9269 79.4208 40.9228V40.9249Z" fill="#360530"/>
<path d="M80.4277 42.4005H78.056C77.9347 42.4005 77.8195 42.454 77.7393 42.5465C77.6632 42.637 77.6303 42.7543 77.6467 42.8674C77.7105 43.2747 78.2864 43.8362 79.1997 43.8362C80.041 43.8362 80.6971 43.3631 80.8226 42.9271C80.8596 42.8016 80.8349 42.6679 80.7568 42.563C80.6786 42.4581 80.5593 42.3984 80.4277 42.3984V42.4005ZM80.584 42.8592C80.4976 43.1574 79.9546 43.5894 79.1997 43.5894C78.4448 43.5894 77.9409 43.1389 77.8915 42.8283C77.8853 42.7851 77.8977 42.7419 77.9265 42.707C77.9573 42.6699 78.0046 42.6473 78.054 42.6473H80.4256C80.477 42.6473 80.5243 42.672 80.5572 42.7131C80.5881 42.7543 80.5984 42.8078 80.584 42.8571V42.8592Z" fill="#360530"/>
<path d="M92.1764 63.5676C91.6046 63.4565 90.4589 62.751 90.4466 62.7448C90.389 62.7099 90.3149 62.7263 90.28 62.7839C90.245 62.8415 90.2615 62.9155 90.3191 62.9505C90.3684 62.9814 91.5141 63.6869 92.1312 63.8062C92.1394 63.8062 92.1476 63.8082 92.1538 63.8082C92.2114 63.8082 92.2608 63.7671 92.2731 63.7095C92.2855 63.6437 92.2423 63.5799 92.1764 63.5676Z" fill="#360530"/>
<path d="M133.336 37.4576C131.096 37.5707 127.802 37.7702 127.574 43.9738C127.346 50.198 123.353 48.6327 120.466 52.078C117.522 55.5871 122.397 62.0623 130.094 56.124C132.799 54.0383 132.795 48.8754 138.809 50.1384C143.583 51.1401 143.565 47.6063 143.565 47.6063L141.121 30.3551C134.703 29.991 137.881 37.2272 133.336 37.4576Z" fill="#D043A8"/>
<path d="M136.34 88.8026L136.69 90.7608C139.158 90.446 138.835 88.8026 138.835 88.8026C137.671 87.6384 136.34 88.8026 136.34 88.8026Z" fill="#360530"/>
<path d="M124.219 46.4414C121.142 46.211 118.205 46.9762 118.205 52.8754C118.205 56.259 118.271 58.392 121.295 58.392C124.318 58.392 129.156 56.2611 129.156 52.8754C129.156 49.4897 127.235 46.6677 124.219 46.4414Z" fill="#FF9EAB"/>
<path d="M120.664 61.0883C120.664 62.8572 122.098 64.2929 123.869 64.2929H124.572C126.73 63.9144 127.577 63.0732 127.769 62.1681L127.777 55.1582H120.664V61.0903V61.0883Z" fill="#FF9EAB"/>
<path d="M125.064 57.4222C123.811 57.957 122.437 58.2655 121.295 58.2655C121.227 58.2655 121.172 58.321 121.172 58.3889C121.172 58.4568 121.227 58.5123 121.295 58.5123C122.47 58.5123 123.879 58.1976 125.16 57.6484C125.224 57.6217 125.253 57.5476 125.226 57.4859C125.199 57.4222 125.125 57.3934 125.064 57.4201V57.4222Z" fill="#360530"/>
<path d="M129.1 46.4058C127.313 44.5238 125.291 45.1038 123.68 44.4024C119.797 42.7055 116.884 46.8892 117.944 48.3146C115.85 49.5241 117.672 51.5563 118.205 51.4123C118.711 51.2745 120.048 46.3791 121.01 47.9814C123.958 52.8851 126.93 47.5762 125.538 50.8817C125.087 51.9492 125.879 53.2718 126.759 54.004C127.019 54.0205 127.218 56.5628 127.741 56.7685C128.652 57.1285 128.419 56.0095 128.903 55.8573C129.565 55.6496 130.326 52.881 129.763 51.4473C129.763 51.4473 131.334 48.763 129.096 46.4079L129.1 46.4058Z" fill="#D043A8"/>
<path d="M128.062 51.3444C127.182 51.1572 126.258 52.0005 125.997 53.2264C125.736 54.4523 126.238 55.598 127.118 55.7852C127.998 55.9724 128.922 55.1291 129.183 53.9032C129.444 52.6772 128.942 51.5315 128.062 51.3444Z" fill="#FF9EAB"/>
<path d="M128.061 52.9897C128.039 52.9917 127.516 53.072 127.068 53.6356C127.025 53.689 127.035 53.7672 127.088 53.8104C127.111 53.8289 127.138 53.8371 127.167 53.8371C127.204 53.8371 127.239 53.8207 127.263 53.7898C127.646 53.3085 128.09 53.2365 128.098 53.2345C128.166 53.2242 128.214 53.1625 128.203 53.0946C128.193 53.0267 128.129 52.9794 128.063 52.9897H128.061Z" fill="#360530"/>
<path d="M141.749 107.664L127.811 108.58L128.353 116.841L142.292 115.925L141.749 107.664Z" fill="#FFFFE9"/>
<path d="M141.827 108.691L127.889 109.607L127.905 109.856L141.843 108.94L141.827 108.691Z" fill="#360530"/>
<path d="M141.907 109.877L127.969 110.793L127.985 111.041L141.923 110.125L141.907 109.877Z" fill="#360530"/>
<path d="M141.985 111.059L128.047 111.975L128.063 112.223L142.002 111.307L141.985 111.059Z" fill="#360530"/>
<path d="M142.061 112.246L128.123 113.162L128.139 113.41L142.078 112.494L142.061 112.246Z" fill="#360530"/>
<path d="M142.138 113.436L128.199 114.352L128.216 114.6L142.154 113.684L142.138 113.436Z" fill="#360530"/>
<path d="M142.218 114.617L128.279 115.533L128.296 115.782L142.234 114.866L142.218 114.617Z" fill="#360530"/>
<path d="M138.894 107.842C138.894 107.842 139.246 113.028 139.166 113.811C139.048 114.98 138.382 114.834 137.787 115.179C137.419 115.393 137.082 115.858 137.014 116.278L137.008 116.315C139.394 118.643 141.35 121.471 142.652 125.058C143.549 126.449 145.131 127.245 146.782 127.136L145.484 107.408L138.892 107.842H138.894Z" fill="#3F1378"/>
<path d="M142.959 107.908C142.891 107.913 142.84 107.972 142.844 108.04L144.008 125.748C144.012 125.814 144.068 125.863 144.132 125.863C144.134 125.863 144.138 125.863 144.14 125.863C144.208 125.859 144.259 125.799 144.255 125.732L143.091 108.024C143.087 107.956 143.025 107.904 142.959 107.908Z" fill="white"/>
<path d="M142.788 120.362L141.319 121.97C141.182 122.122 141.192 122.357 141.344 122.497C141.416 122.563 141.505 122.593 141.595 122.593C141.696 122.593 141.797 122.552 141.871 122.472L143.339 120.864C143.477 120.711 143.467 120.477 143.315 120.337C143.162 120.199 142.928 120.21 142.788 120.362Z" fill="white"/>
<path d="M141.663 118.782L140.194 120.39C140.057 120.542 140.067 120.777 140.219 120.917C140.291 120.983 140.38 121.013 140.47 121.013C140.571 121.013 140.672 120.972 140.746 120.892L142.214 119.284C142.352 119.131 142.342 118.897 142.19 118.757C142.037 118.619 141.803 118.629 141.663 118.782Z" fill="white"/>
<path d="M140.794 116.693C140.747 116.625 140.673 116.586 140.591 116.586C140.511 116.586 140.435 116.625 140.387 116.693L138.947 118.754C138.886 118.84 138.888 118.958 138.951 119.042C138.999 119.108 139.075 119.143 139.151 119.143C139.176 119.143 139.2 119.139 139.225 119.13L141.58 118.396C141.656 118.373 141.716 118.314 141.741 118.24C141.767 118.166 141.755 118.083 141.71 118.018L140.794 116.693ZM139.77 118.439L140.589 117.267L141.109 118.02L139.77 118.437V118.439Z" fill="white"/>
<path d="M145.481 107.419L144.463 107.486L145.759 127.215L146.777 127.148L145.481 107.419Z" fill="white"/>
<path d="M145.568 107.314C145.543 107.292 145.51 107.281 145.477 107.283L144.459 107.351C144.391 107.355 144.34 107.415 144.344 107.483L145.642 127.211C145.644 127.244 145.658 127.274 145.683 127.295C145.706 127.316 145.734 127.326 145.765 127.326C145.767 127.326 145.771 127.326 145.774 127.326L146.792 127.258C146.86 127.254 146.911 127.194 146.907 127.126L145.609 107.399C145.607 107.366 145.593 107.335 145.568 107.314ZM145.88 127.071L144.599 107.59L145.368 107.539L146.65 127.019L145.88 127.071Z" fill="#3F1378"/>
<path d="M139.47 122.623L136.676 130.416L149.825 135.131L152.619 127.337L139.47 122.623Z" fill="#FFFFE9"/>
<path d="M139.117 123.608L139.033 123.842L152.182 128.556L152.266 128.322L139.117 123.608Z" fill="#360530"/>
<path d="M138.717 124.725L138.633 124.959L151.782 129.674L151.866 129.439L138.717 124.725Z" fill="#360530"/>
<path d="M138.314 125.842L138.23 126.076L151.379 130.791L151.463 130.556L138.314 125.842Z" fill="#360530"/>
<path d="M137.916 126.961L137.832 127.195L150.981 131.91L151.065 131.676L137.916 126.961Z" fill="#360530"/>
<path d="M137.514 128.078L137.43 128.312L150.578 133.027L150.662 132.793L137.514 128.078Z" fill="#360530"/>
<path d="M137.113 129.195L137.029 129.43L150.178 134.144L150.262 133.91L137.113 129.195Z" fill="#360530"/>
<path d="M147.791 131.952C147.217 132.976 146.666 132.577 145.983 132.657C145.559 132.707 145.065 132.999 144.835 133.357L144.814 133.387C146.075 136.473 146.742 139.846 146.507 143.658C146.777 145.291 147.91 146.65 149.467 147.208L156.14 128.597L149.92 126.367C149.92 126.367 148.175 131.263 147.791 131.95V131.952Z" fill="#3F1378"/>
<path d="M153.622 128.05C153.558 128.027 153.486 128.06 153.464 128.124L147.474 144.83C147.451 144.894 147.484 144.966 147.548 144.989C147.562 144.993 147.577 144.997 147.589 144.997C147.641 144.997 147.688 144.966 147.706 144.915L153.696 128.208C153.719 128.145 153.686 128.073 153.622 128.05Z" fill="white"/>
<path d="M148.5 139.404L146.511 140.292C146.324 140.377 146.239 140.597 146.324 140.784C146.385 140.922 146.521 141.004 146.663 141.004C146.715 141.004 146.766 140.994 146.815 140.971L148.804 140.083C148.992 139.998 149.076 139.778 148.992 139.591C148.907 139.404 148.687 139.319 148.5 139.404Z" fill="white"/>
<path d="M148.1 137.503L146.111 138.392C145.923 138.476 145.839 138.696 145.923 138.884C145.985 139.021 146.121 139.104 146.263 139.104C146.314 139.104 146.366 139.093 146.415 139.071L148.404 138.182C148.591 138.098 148.676 137.878 148.591 137.691C148.507 137.503 148.287 137.419 148.1 137.503Z" fill="white"/>
<path d="M148.136 135.243C148.12 135.163 148.066 135.097 147.992 135.064C147.918 135.031 147.832 135.037 147.762 135.08L145.621 136.397C145.53 136.452 145.485 136.559 145.508 136.662C145.53 136.765 145.617 136.843 145.724 136.853L148.178 137.119C148.178 137.119 148.196 137.119 148.204 137.119C148.274 137.119 148.34 137.09 148.387 137.039C148.441 136.981 148.463 136.901 148.447 136.823L148.134 135.241L148.136 135.243ZM146.501 136.438L147.719 135.689L147.896 136.588L146.501 136.438Z" fill="white"/>
<path d="M155.178 128.254L148.506 146.865L149.466 147.21L156.138 128.598L155.178 128.254Z" fill="white"/>
<path d="M156.18 128.484L155.219 128.14C155.188 128.13 155.153 128.13 155.124 128.144C155.096 128.159 155.071 128.183 155.061 128.214L148.388 146.825C148.365 146.889 148.398 146.961 148.462 146.983L149.423 147.327C149.437 147.331 149.449 147.335 149.464 147.335C149.482 147.335 149.501 147.331 149.517 147.323C149.546 147.308 149.571 147.284 149.581 147.253L156.254 128.642C156.276 128.578 156.243 128.506 156.18 128.484ZM149.39 147.051L148.664 146.79L155.252 128.414L155.978 128.675L149.39 147.051Z" fill="#3F1378"/>
<path d="M136.032 83.625H110.076L110.047 92.5561C110.364 96.7954 114.085 99.9753 118.361 99.6565L129.923 98.7947C134.199 98.4758 137.408 94.7796 137.091 90.5403L136.032 83.6271V83.625Z" fill="#FF3F31"/>
<path d="M136.702 91.6553L120.152 88.3066L114.284 121.024L114.212 121.417C113.552 125.074 115.713 128.729 119.354 129.848L144.611 137.611L149.068 124.504L130.83 117.689L136.7 91.6553H136.702Z" fill="#FF3F31"/>
<path d="M119.448 106.734L126.066 94.5423L111.013 86.8906L99.3134 111.534L99.1263 111.927C96.6086 117.135 100.922 123.325 106.716 122.716L137.671 119.787L136.714 105.977L119.451 106.734H119.448Z" fill="#FF3F31"/>
<path d="M135.815 119.421L130.973 117.611L133.439 106.672C133.454 106.607 133.412 106.543 133.347 106.526C133.281 106.512 133.215 106.553 133.201 106.619L130.71 117.662C130.697 117.722 130.728 117.782 130.786 117.802L135.727 119.649C135.741 119.656 135.755 119.658 135.77 119.658C135.819 119.658 135.864 119.627 135.883 119.579C135.905 119.516 135.875 119.446 135.811 119.423L135.815 119.421Z" fill="#360530"/>
<path d="M117.945 100.613C117.877 100.601 117.815 100.646 117.803 100.712L114.162 121.001C114.15 121.067 114.195 121.131 114.261 121.143C114.269 121.143 114.275 121.143 114.284 121.143C114.341 121.143 114.393 121.102 114.403 121.043L118.044 100.753C118.056 100.687 118.011 100.624 117.945 100.611V100.613Z" fill="#360530"/>
<path d="M123.02 54.4621C122.059 54.9578 120.146 54.9084 119.85 54.493C119.811 54.4374 119.733 54.4251 119.677 54.4642C119.622 54.5032 119.608 54.5814 119.649 54.6369C119.861 54.9331 120.488 55.0689 121.183 55.0689C121.878 55.0689 122.654 54.9311 123.135 54.6822C123.197 54.6513 123.219 54.5752 123.189 54.5156C123.158 54.4539 123.082 54.4312 123.022 54.4621H123.02Z" fill="#360530"/>
<path d="M123.143 52.1289C122.884 52.1289 122.672 52.3757 122.672 52.6822C122.672 52.9887 122.884 53.2355 123.143 53.2355C123.402 53.2355 123.614 52.9887 123.614 52.6822C123.614 52.3757 123.404 52.1289 123.143 52.1289Z" fill="#360530"/>
<path d="M119.278 52.1289C119.018 52.1289 118.807 52.3757 118.807 52.6822C118.807 52.9887 119.016 53.2355 119.278 53.2355C119.539 53.2355 119.749 52.9887 119.749 52.6822C119.749 52.3757 119.537 52.1289 119.278 52.1289Z" fill="#360530"/>
<path d="M120.845 52.9503C120.882 52.8927 120.865 52.8166 120.808 52.7795C120.75 52.7425 120.674 52.759 120.637 52.8166C120.629 52.8289 120.446 53.1128 120.362 53.2999C120.277 53.4851 120.271 53.6475 120.341 53.7833C120.45 53.9911 120.691 54.0425 120.717 54.0486C120.726 54.0486 120.734 54.0507 120.74 54.0507C120.798 54.0507 120.849 54.0096 120.861 53.9499C120.874 53.882 120.831 53.8183 120.765 53.8039C120.724 53.7956 120.604 53.7545 120.561 53.6681C120.528 53.6023 120.536 53.5138 120.588 53.4028C120.666 53.2321 120.845 52.9544 120.847 52.9503H120.845Z" fill="#360530"/>
<path d="M107.948 43.2076C107.481 43.0163 106.963 43.1953 106.652 43.9502L105.461 46.8504C105.27 47.3173 105.492 47.8542 105.961 48.0455C106.428 48.2368 106.965 48.0146 107.156 47.5456L108.347 44.6454C108.643 43.9214 108.417 43.3989 107.948 43.2056V43.2076Z" fill="#FF9EAB"/>
<path d="M106.392 42.1765C105.926 41.9852 105.393 42.1991 105.051 43.0301L103.768 46.1546C103.577 46.6215 103.799 47.1583 104.268 47.3496C104.735 47.5409 105.271 47.3188 105.463 46.8498L106.746 43.7254C107.073 42.9293 106.861 42.3678 106.392 42.1744V42.1765Z" fill="#FF9EAB"/>
<path d="M104.582 41.7597C104.115 41.5684 103.568 41.8153 103.198 42.7224L102.073 45.4601C101.881 45.927 102.103 46.4639 102.572 46.6552C103.039 46.8464 103.576 46.6243 103.767 46.1553L104.893 43.4176C105.248 42.5496 105.051 41.951 104.584 41.7597H104.582Z" fill="#FF9EAB"/>
<path d="M102.734 41.4396C102.267 41.2483 101.753 41.419 101.451 42.1554L100.379 44.7615C100.188 45.2284 100.41 45.7653 100.879 45.9566C101.346 46.1479 101.883 45.9257 102.074 45.4567L103.146 42.8506C103.436 42.1451 103.203 41.6309 102.736 41.4375L102.734 41.4396Z" fill="#FF9EAB"/>
<path d="M105.815 44.0101L102.481 42.6402C101.901 42.4016 101.236 42.6793 100.998 43.2594L97.5586 51.6289L104.575 54.5106L107.366 47.7187C107.962 46.2666 107.269 44.6046 105.817 44.0081L105.815 44.0101Z" fill="#FF9EAB"/>
<path d="M107.341 45.7485C105.638 45.4337 106.876 48.3402 105.204 48.225C102.548 48.0419 101.608 48.4348 101.594 49.9774C101.571 52.2071 103.754 52.1639 104.69 51.9829C106.302 51.6723 107.52 50.8208 108.316 48.9469C108.966 47.4125 108.108 45.8904 107.343 45.7485H107.341Z" fill="#FF9EAB"/>
<path d="M107.633 45.7245C107.543 45.6772 107.452 45.6443 107.364 45.6279C107.053 45.5703 106.813 45.6073 106.623 45.7389C106.292 45.9714 106.212 46.4486 106.136 46.9114C106.008 47.6827 105.885 48.1476 105.212 48.1023C103.423 47.9789 102.481 48.1249 101.96 48.6042C101.631 48.9086 101.475 49.3447 101.469 49.9782C101.469 50.0461 101.522 50.1037 101.592 50.1037C101.66 50.1037 101.716 50.0481 101.716 49.9803C101.722 49.4208 101.851 49.0403 102.127 48.7873C102.586 48.3635 103.503 48.234 105.194 48.3491C106.132 48.415 106.27 47.6025 106.379 46.9525C106.451 46.5226 106.518 46.1153 106.763 45.9426C106.895 45.85 107.076 45.8274 107.317 45.8726C107.38 45.885 107.448 45.9096 107.514 45.9446C107.576 45.9775 107.65 45.9528 107.683 45.8932C107.716 45.8335 107.691 45.7574 107.631 45.7245H107.633Z" fill="#360530"/>
<path d="M105.508 46.7358C105.444 46.709 105.372 46.7399 105.346 46.8036C105.265 46.999 105.113 47.1513 104.918 47.2335C104.722 47.3158 104.508 47.3158 104.311 47.2335C104.116 47.1533 103.963 47.0011 103.881 46.8057C103.799 46.6103 103.799 46.3964 103.881 46.1989L104.973 43.5393C105 43.4756 104.969 43.4036 104.905 43.3768C104.842 43.3501 104.77 43.3809 104.743 43.4447L103.651 46.1043C103.546 46.3614 103.546 46.6432 103.653 46.9003C103.76 47.1574 103.961 47.3569 104.216 47.4618C104.344 47.5133 104.478 47.54 104.611 47.54C104.745 47.54 104.883 47.5133 105.012 47.4598C105.269 47.3528 105.469 47.1533 105.574 46.8962C105.601 46.8324 105.57 46.7604 105.506 46.7337L105.508 46.7358Z" fill="#360530"/>
<path d="M103.814 46.0417C103.75 46.0149 103.678 46.0458 103.652 46.1096C103.485 46.5127 103.022 46.7061 102.619 46.5415C102.424 46.4613 102.272 46.3091 102.189 46.1137C102.107 45.9183 102.107 45.7043 102.189 45.5069L103.197 43.053C103.224 42.9892 103.193 42.9172 103.129 42.8905C103.065 42.8638 102.993 42.8946 102.967 42.9584L101.959 45.4123C101.741 45.943 101.996 46.5518 102.525 46.7698C102.654 46.8233 102.788 46.848 102.917 46.848C103.327 46.848 103.715 46.6053 103.88 46.2042C103.907 46.1404 103.876 46.0684 103.812 46.0417H103.814Z" fill="#360530"/>
<path d="M102.121 45.3433C102.057 45.3166 101.985 45.3474 101.958 45.4112C101.792 45.8143 101.329 46.0077 100.926 45.8431C100.523 45.6765 100.329 45.2137 100.494 44.8106L101.352 42.7249C101.378 42.6611 101.348 42.5891 101.284 42.5624C101.22 42.5356 101.148 42.5665 101.121 42.6303L100.264 44.716C100.046 45.2466 100.301 45.8555 100.829 46.0735C100.959 46.127 101.092 46.1517 101.224 46.1517C101.633 46.1517 102.022 45.909 102.187 45.5079C102.213 45.4441 102.183 45.3721 102.119 45.3454L102.121 45.3433Z" fill="#360530"/>
<path d="M106.499 44.3241C106.435 44.2974 106.363 44.3282 106.336 44.392L105.345 46.8047C105.148 47.286 105.339 47.8435 105.789 48.1026C105.808 48.1129 105.831 48.1191 105.851 48.1191C105.894 48.1191 105.935 48.0965 105.958 48.0574C105.993 47.9977 105.97 47.9216 105.913 47.8887C105.569 47.6912 105.423 47.2675 105.573 46.9014L106.565 44.4887C106.592 44.4249 106.561 44.3529 106.497 44.3262L106.499 44.3241Z" fill="#360530"/>
<path d="M145.196 16.917C144.692 16.8656 144.244 17.2194 144.164 17.9969L143.843 21.1151C143.791 21.6191 144.157 22.0675 144.659 22.121C145.163 22.1724 145.612 21.8063 145.665 21.3044L145.986 18.1861C146.07 17.3757 145.698 16.9705 145.196 16.9191V16.917Z" fill="#FF9EAB"/>
<path d="M147.055 16.7447C146.552 16.6933 146.099 17.0882 146.011 17.9438L145.665 21.3028C145.614 21.8067 145.98 22.2551 146.482 22.3086C146.986 22.36 147.434 21.9939 147.487 21.492L147.833 18.1331C147.926 17.2383 147.557 16.7982 147.055 16.7467V16.7447Z" fill="#FF9EAB"/>
<path d="M148.845 17.2326C148.341 17.1812 147.884 17.6131 147.79 18.547L147.487 21.4904C147.436 21.9943 147.802 22.4428 148.304 22.4962C148.808 22.5477 149.256 22.1815 149.31 21.6796L149.612 18.7362C149.713 17.7633 149.349 17.2861 148.847 17.2347L148.845 17.2326Z" fill="#FF9EAB"/>
<path d="M150.626 17.8253C150.122 17.7739 149.676 18.1174 149.597 18.8764L149.31 21.68C149.258 22.1839 149.624 22.6323 150.126 22.6858C150.63 22.7372 151.078 22.3711 151.13 21.8692L151.418 19.0656C151.5 18.2737 151.128 17.8788 150.624 17.8274L150.626 17.8253Z" fill="#FF9EAB"/>
<path d="M150.282 19.0024L146.697 18.6343C145.136 18.4738 143.739 19.6092 143.579 21.1704L142.826 28.4745L150.371 29.252L151.299 20.251C151.362 19.6257 150.908 19.0683 150.285 19.0024H150.282Z" fill="#FF9EAB"/>
<path d="M145.241 22.6348C143.712 21.9458 146.178 19.9711 144.529 19.4425C143.788 19.206 142.311 20.1419 142.159 21.8018C141.974 23.8299 142.645 25.1545 143.918 26.1912C144.656 26.7918 146.559 27.8635 147.594 25.8868C148.309 24.519 147.668 23.727 145.241 22.6348Z" fill="#FF9EAB"/>
<path d="M145.292 22.5227C144.681 22.2471 144.79 21.7781 145.041 21.0376C145.191 20.5933 145.347 20.1347 145.166 19.7747C145.063 19.569 144.866 19.423 144.565 19.3263C144.479 19.2996 144.384 19.2852 144.282 19.2852C144.214 19.2852 144.158 19.3407 144.158 19.4086C144.158 19.4764 144.214 19.532 144.282 19.534C144.358 19.534 144.428 19.5443 144.489 19.5649C144.722 19.6389 144.872 19.7459 144.944 19.8878C145.08 20.1552 144.946 20.546 144.806 20.9595C144.594 21.5848 144.329 22.3643 145.189 22.751C146.733 23.4483 147.48 23.9955 147.684 24.5858C147.805 24.9396 147.741 25.3366 147.482 25.8323C147.451 25.8919 147.474 25.968 147.534 25.9989C147.552 26.0092 147.573 26.0133 147.591 26.0133C147.636 26.0133 147.68 25.9886 147.702 25.9475C147.996 25.3859 148.064 24.9293 147.918 24.5056C147.688 23.835 146.925 23.2612 145.289 22.5248L145.292 22.5227Z" fill="#360530"/>
<path d="M147.793 18.5067C147.723 18.4985 147.664 18.5499 147.657 18.6178L147.363 21.4789C147.318 21.913 146.929 22.2297 146.495 22.1845C146.285 22.1618 146.096 22.0611 145.962 21.8965C145.829 21.7319 145.767 21.5263 145.79 21.3165C145.796 21.2486 145.746 21.1869 145.679 21.1807C145.609 21.1725 145.549 21.2239 145.543 21.2918C145.514 21.5674 145.594 21.8389 145.771 22.0549C145.946 22.2709 146.195 22.4046 146.471 22.4334C146.508 22.4375 146.542 22.4395 146.577 22.4395C147.104 22.4395 147.557 22.0405 147.612 21.5057L147.906 18.6445C147.912 18.5767 147.863 18.515 147.795 18.5088L147.793 18.5067Z" fill="#360530"/>
<path d="M149.593 18.9165C149.523 18.9104 149.463 18.9597 149.457 19.0276L149.185 21.6666C149.14 22.1006 148.749 22.4174 148.317 22.3721C147.883 22.3269 147.567 21.9381 147.612 21.5041C147.618 21.4362 147.569 21.3745 147.501 21.3684C147.435 21.3622 147.371 21.4116 147.365 21.4794C147.305 22.0492 147.723 22.5614 148.293 22.621C148.33 22.6251 148.365 22.6272 148.4 22.6272C148.926 22.6272 149.379 22.2282 149.434 21.6934L149.706 19.0543C149.712 18.9865 149.663 18.9248 149.595 18.9186L149.593 18.9165Z" fill="#360530"/>
<path d="M151.374 19.4989C151.304 19.4907 151.244 19.5421 151.238 19.61L151.008 21.852C150.962 22.286 150.572 22.6028 150.14 22.5575C149.93 22.5349 149.741 22.4341 149.607 22.2696C149.473 22.105 149.412 21.8993 149.434 21.6895C149.44 21.6216 149.391 21.5599 149.323 21.5538C149.255 21.5476 149.194 21.597 149.187 21.6648C149.159 21.9405 149.239 22.212 149.416 22.4279C149.591 22.6439 149.839 22.7776 150.115 22.8064C150.152 22.8105 150.187 22.8126 150.222 22.8126C150.749 22.8126 151.201 22.4135 151.257 21.8787L151.487 19.6347C151.493 19.5668 151.444 19.5051 151.376 19.4989H151.374Z" fill="#360530"/>
<path d="M145.944 18.5845C145.874 18.5783 145.814 18.6277 145.808 18.6956L145.541 21.2914C145.5 21.6863 145.171 21.9907 144.776 22.001C144.708 22.001 144.652 22.0607 144.654 22.1286C144.654 22.1964 144.712 22.2499 144.778 22.2499C144.778 22.2499 144.78 22.2499 144.782 22.2499C145.302 22.2355 145.734 21.8344 145.788 21.3161L146.055 18.7203C146.061 18.6524 146.012 18.5907 145.944 18.5845Z" fill="#360530"/>
<path d="M129.876 58.6947C126.351 59.9679 118.195 59.8692 114.76 60.8956C111.327 61.922 112.211 62.7694 105.348 64.1496C104.868 60.8339 106.512 54.6303 107.326 51.874L97.0912 48.4575C94.3247 56.0166 93.0987 62.14 93.7878 66.692C95.203 76.0468 102.345 77.5792 110.222 75.6313L109.229 88.8037C109.229 88.8037 109.239 93.263 120.986 93.263C132.733 93.263 137.038 87.7649 138.836 88.8037L137.456 70.5055C141.191 68.0989 145.18 63.6909 148.732 52.0612C151.062 44.4342 152.514 34.0345 152.749 25.9838L141.971 25.4922C141.121 35.7829 133.488 57.3906 129.878 58.6947H129.876Z" fill="#80DCE8"/>
<path d="M136.686 70.3613C135.559 70.3613 134.403 69.3534 134.393 69.3431C134.341 69.2979 134.265 69.304 134.222 69.3534C134.177 69.4028 134.183 69.4809 134.232 69.5241C134.282 69.5673 135.468 70.6019 136.688 70.6019C136.756 70.6019 136.81 70.5485 136.81 70.4806C136.81 70.4127 136.756 70.3592 136.688 70.3592L136.686 70.3613Z" fill="#360530"/>
<path d="M110.838 72.2537C110.772 72.2332 110.706 72.2702 110.686 72.334C110.336 73.4714 110.26 75.0861 110.258 75.154C110.256 75.2219 110.307 75.2774 110.373 75.2815C110.373 75.2815 110.377 75.2815 110.379 75.2815C110.443 75.2815 110.499 75.2301 110.501 75.1663C110.501 75.1499 110.577 73.5146 110.918 72.406C110.939 72.3422 110.902 72.2743 110.838 72.2537Z" fill="#360530"/>
<path d="M150.154 76.3424L148.494 75.7891L150.037 74.666L150.154 76.3424Z" fill="#360530"/>
<path d="M163.876 30.9804C166.891 31.2067 168.812 34.0308 168.812 37.4144C168.812 40.798 163.974 42.931 160.951 42.931C157.927 42.931 157.863 40.8001 157.861 37.4144C157.861 31.5173 160.799 30.75 163.876 30.9804Z" fill="#FF9EAB"/>
<path d="M167.423 46.7073C167.232 47.6123 166.384 48.4536 164.226 48.8321H163.523C161.754 48.8321 160.318 47.3984 160.318 45.6274V39.6953H167.431L167.423 46.7052V46.7073Z" fill="#FF9EAB"/>
<path d="M160.952 42.8064C162.093 42.8064 163.467 42.4999 164.72 41.9631C164.784 41.9363 164.856 41.9651 164.882 42.0289C164.909 42.0927 164.88 42.1647 164.816 42.1914C163.535 42.7406 162.126 43.0553 160.952 43.0553C160.884 43.0553 160.828 42.9998 160.828 42.9319C160.828 42.864 160.884 42.8085 160.952 42.8085V42.8064Z" fill="#360530"/>
<path d="M160.203 30.6228C160.647 30.3595 161.231 30.125 161.647 30.4294C161.731 30.4911 161.807 30.5754 161.908 30.6001C162.064 30.6392 162.214 30.5261 162.344 30.4294C163.152 29.8329 164.257 29.6622 165.207 29.9851C166.158 30.3081 166.929 31.1185 167.205 32.0832C167.242 32.2127 167.27 32.3464 167.336 32.4657C167.538 32.8298 168.001 32.9347 168.369 33.1322C169.243 33.6032 169.605 34.8312 169.126 35.7013C169.048 35.8432 168.949 35.983 168.93 36.1455C168.912 36.3163 168.988 36.4808 169.056 36.6371C169.261 37.1123 169.407 37.6121 169.494 38.1202C169.572 38.583 169.597 39.0684 169.434 39.5086C169.272 39.9488 168.887 40.3293 168.42 40.3725C168.42 40.3725 168.418 40.3725 168.416 40.3725C168.418 40.5144 168.406 40.6625 168.373 40.8106C168.2 41.6231 167.534 42.2504 166.931 42.0427C166.178 41.7815 166.11 40.8723 166.392 40.1709C166.618 39.6073 166.803 39.2268 167.13 39.1137C167.106 38.8298 167.145 38.5357 167.229 38.2621C166.884 38.1305 166.456 38.4596 166.145 38.258C166.051 38.1963 165.989 38.0975 165.937 37.9988C165.39 36.9498 165.598 35.6848 165.82 34.5226L165.724 34.4794C164.876 35.2364 163.438 34.9731 162.669 34.1359C162.56 34.0166 162.447 33.8809 162.286 33.8562C162.175 33.8398 162.062 33.8829 161.961 33.9364C161.515 34.1771 161.192 34.6399 160.705 34.7756C160.287 34.8908 159.806 34.7119 159.563 34.3519C159.242 34.9752 158.553 35.3907 157.852 35.3824C157.767 35.3824 157.679 35.3742 157.611 35.3228C157.535 35.2652 157.502 35.1685 157.479 35.0739C157.261 34.1668 157.549 33.1898 158.088 32.4287C158.627 31.6677 159.397 31.0958 160.197 30.6186L160.203 30.6228Z" fill="#284EAD"/>
<path d="M167.717 35.8854C168.598 36.0726 169.098 37.2183 168.839 38.4442C168.577 39.6701 167.654 40.5134 166.773 40.3262C165.893 40.1391 165.393 38.9934 165.652 37.7674C165.914 36.5415 166.837 35.6982 167.717 35.8854Z" fill="#FF9EAB"/>
<path d="M167.717 37.5307C167.785 37.5204 167.846 37.5677 167.857 37.6356C167.867 37.7035 167.82 37.7672 167.752 37.7755C167.748 37.7755 167.305 37.8434 166.917 38.3308C166.892 38.3617 166.857 38.3781 166.82 38.3781C166.793 38.3781 166.766 38.3699 166.744 38.3514C166.69 38.3082 166.682 38.23 166.723 38.1766C167.172 37.613 167.696 37.5328 167.717 37.5307Z" fill="#360530"/>
<path d="M203.763 97.7031H189.795V105.982H203.763V97.7031Z" fill="#FFFFE9"/>
<path d="M203.763 98.75H189.795V98.9989H203.763V98.75Z" fill="#360530"/>
<path d="M203.763 99.9375H189.795V100.186H203.763V99.9375Z" fill="#360530"/>
<path d="M203.763 101.125H189.795V101.374H203.763V101.125Z" fill="#360530"/>
<path d="M203.763 102.311H189.795V102.559H203.763V102.311Z" fill="#360530"/>
<path d="M203.763 103.498H189.795V103.747H203.763V103.498Z" fill="#360530"/>
<path d="M203.763 104.688H189.795V104.936H203.763V104.688Z" fill="#360530"/>
<path d="M199.312 104.952C199.929 104.645 200.584 104.834 200.777 103.676C200.906 102.899 200.898 97.7031 200.898 97.7031H207.505V117.474C205.849 117.474 204.325 116.577 203.521 115.131C202.457 111.466 200.691 108.514 198.463 106.036L198.471 105.999C198.566 105.583 198.932 105.141 199.314 104.954L199.312 104.952Z" fill="#1373BA"/>
<path d="M204.948 98.0352C205.016 98.0352 205.071 98.0907 205.071 98.1586V115.906C205.071 115.973 205.016 116.029 204.948 116.029C204.88 116.029 204.824 115.973 204.824 115.906V98.1586C204.824 98.0907 204.88 98.0352 204.948 98.0352Z" fill="white"/>
<path d="M203.961 110.451C204.109 110.309 204.345 110.314 204.487 110.462C204.629 110.61 204.625 110.846 204.477 110.988L202.906 112.496C202.834 112.566 202.741 112.599 202.649 112.599C202.55 112.599 202.453 112.56 202.379 112.484C202.237 112.335 202.241 112.099 202.389 111.957L203.961 110.449V110.451Z" fill="white"/>
<path d="M202.941 108.801C203.089 108.659 203.326 108.663 203.468 108.811C203.61 108.959 203.606 109.196 203.458 109.338L201.886 110.846C201.814 110.915 201.722 110.948 201.629 110.948C201.53 110.948 201.434 110.909 201.36 110.833C201.218 110.685 201.222 110.449 201.37 110.307L202.941 108.799V108.801Z" fill="white"/>
<path d="M200.236 108.593C200.17 108.675 200.164 108.792 200.219 108.881C200.265 108.953 200.345 108.996 200.429 108.996C200.448 108.996 200.468 108.994 200.487 108.99L202.885 108.412C202.961 108.393 203.025 108.34 203.056 108.266C203.087 108.194 203.08 108.109 203.039 108.041L202.212 106.659C202.171 106.589 202.097 106.544 202.017 106.538C201.937 106.532 201.857 106.567 201.807 106.63L200.236 108.593ZM201.077 108.336L201.97 107.221L202.441 108.006L201.077 108.336Z" fill="white"/>
<path d="M207.505 97.7031H206.484V117.474H207.505V97.7031Z" fill="white"/>
<path d="M206.359 97.7035V117.474C206.359 117.542 206.415 117.598 206.483 117.598H207.503C207.571 117.598 207.626 117.542 207.626 117.474V97.7035C207.626 97.6356 207.571 97.5801 207.503 97.5801H206.483C206.415 97.5801 206.359 97.6356 206.359 97.7035ZM206.608 97.8269H207.38V117.349H206.608V97.8269Z" fill="#1373BA"/>
<path d="M164.638 121.424L157.807 126.102L165.698 137.627L172.529 132.95L164.638 121.424Z" fill="#FFFFE9"/>
<path d="M163.774 122.025L163.568 122.166L171.46 133.692L171.665 133.551L163.774 122.025Z" fill="#360530"/>
<path d="M162.793 122.697L162.588 122.838L170.48 134.363L170.685 134.223L162.793 122.697Z" fill="#360530"/>
<path d="M161.817 123.363L161.611 123.504L169.503 135.029L169.708 134.889L161.817 123.363Z" fill="#360530"/>
<path d="M160.834 124.039L160.629 124.18L168.521 135.705L168.726 135.565L160.834 124.039Z" fill="#360530"/>
<path d="M159.858 124.689L159.652 124.83L167.542 136.357L167.747 136.216L159.858 124.689Z" fill="#360530"/>
<path d="M158.877 125.379L158.672 125.52L166.56 137.048L166.765 136.907L158.877 125.379Z" fill="#360530"/>
<path d="M162.659 133.283L162.694 133.268C163.091 133.112 163.66 133.165 164.033 133.373C164.633 133.708 164.847 134.356 165.913 133.861C166.626 133.529 170.911 130.584 170.911 130.584L174.644 136.037L158.331 147.206C157.395 145.84 157.274 144.075 158.014 142.594C160.437 139.645 161.875 136.52 162.661 133.281L162.659 133.283Z" fill="#1373BA"/>
<path d="M172.753 134.086C172.81 134.047 172.886 134.062 172.925 134.119C172.965 134.177 172.95 134.253 172.893 134.292L158.249 144.317C158.229 144.332 158.204 144.34 158.179 144.34C158.14 144.34 158.101 144.322 158.077 144.287C158.038 144.231 158.052 144.153 158.11 144.114L172.753 134.088V134.086Z" fill="white"/>
<path d="M159.988 139.875L162.121 140.32C162.322 140.361 162.452 140.558 162.409 140.76C162.371 140.935 162.217 141.056 162.044 141.056C162.02 141.056 161.993 141.054 161.968 141.048L159.835 140.604C159.634 140.562 159.504 140.365 159.547 140.163C159.589 139.962 159.786 139.832 159.988 139.875Z" fill="white"/>
<path d="M160.775 138.1L162.908 138.544C163.109 138.586 163.239 138.783 163.196 138.985C163.159 139.159 163.004 139.281 162.832 139.281C162.807 139.281 162.78 139.279 162.755 139.273L160.622 138.828C160.421 138.787 160.291 138.59 160.334 138.388C160.376 138.186 160.573 138.057 160.775 138.1Z" fill="white"/>
<path d="M161.303 136.342C161.262 136.439 161.286 136.554 161.365 136.624L163.197 138.276C163.243 138.317 163.302 138.339 163.364 138.339C163.38 138.339 163.397 138.339 163.413 138.335C163.491 138.319 163.555 138.267 163.588 138.195L164.263 136.731C164.298 136.657 164.292 136.57 164.25 136.5C164.209 136.431 164.135 136.385 164.055 136.379L161.55 136.19C161.443 136.184 161.344 136.241 161.303 136.34V136.342ZM162.237 136.743L163.662 136.85L163.28 137.683L162.237 136.743Z" fill="white"/>
<path d="M174.069 135.189L157.756 146.359L158.332 147.201L174.646 136.031L174.069 135.189Z" fill="white"/>
<path d="M157.683 146.262C157.656 146.281 157.637 146.309 157.631 146.342C157.625 146.375 157.631 146.408 157.652 146.435L158.228 147.276C158.252 147.311 158.291 147.33 158.331 147.33C158.355 147.33 158.38 147.324 158.4 147.307L174.714 136.138C174.769 136.099 174.784 136.023 174.747 135.965L174.171 135.124C174.152 135.097 174.123 135.079 174.091 135.073C174.058 135.066 174.025 135.073 173.998 135.091L157.685 146.26L157.683 146.262ZM157.925 146.398L174.033 135.369L174.469 136.004L158.361 147.034L157.925 146.398Z" fill="#1373BA"/>
<path d="M169.663 2.58119C170.023 2.34876 170.555 2.53183 171.092 3.36487L174.338 8.39606L173.034 9.23733L169.788 4.20615C169.274 3.40807 169.303 2.81362 169.663 2.58119Z" fill="#FF9EAB"/>
<path d="M171.901 0.422886C172.298 0.260391 172.788 0.536016 173.164 1.45339L174.962 5.83048L173.526 6.42082L171.729 2.04373C171.369 1.16543 171.504 0.585381 171.901 0.422886Z" fill="#FF9EAB"/>
<path d="M174.471 0.254492C174.88 0.129021 175.343 0.449897 175.633 1.39607L176.785 5.14375L175.302 5.60038L174.15 1.85065C173.87 0.943554 174.061 0.377906 174.471 0.252435V0.254492Z" fill="#FF9EAB"/>
<path d="M176.685 0.403458C177.103 0.30884 177.541 0.662628 177.759 1.62937L178.791 6.16484L177.277 6.50835L176.245 1.97288C176.035 1.04727 176.265 0.498075 176.683 0.403458H176.685Z" fill="#FF9EAB"/>
<path d="M173.784 5.81287L177.119 4.44297C177.699 4.20437 178.363 4.48205 178.602 5.0621L182.041 13.4316L175.025 16.3154L172.234 9.52352C171.637 8.07135 172.33 6.40937 173.782 5.81287H173.784Z" fill="#FF9EAB"/>
<path d="M173.768 8.65415C176.374 7.96715 177.567 9.52011 177.403 11.0381C177.164 13.2328 174.971 13.2863 174.258 13.0189C173.028 12.5561 172.151 11.4906 171.189 10.5897C170.053 9.52834 167.955 7.72032 168.404 7.03125C169.407 5.49063 171.964 9.1293 173.768 8.65415Z" fill="#FF9EAB"/>
<path d="M172.24 8.20999C172.861 8.53499 173.338 8.63989 173.737 8.53293C175.208 8.14623 176.105 8.48562 176.596 8.83941C177.148 9.23639 177.489 9.87403 177.536 10.5898C177.54 10.6577 177.489 10.7174 177.421 10.7215C177.419 10.7215 177.415 10.7215 177.413 10.7215C177.349 10.7215 177.294 10.6701 177.289 10.6063C177.246 9.95425 176.95 9.39889 176.452 9.04098C175.809 8.57818 174.893 8.48562 173.801 8.77359C173.338 8.89494 172.805 8.78593 172.127 8.43008C172.067 8.39717 172.042 8.32312 172.075 8.26142C172.106 8.20177 172.182 8.17708 172.242 8.20999H172.24Z" fill="#360530"/>
<path d="M172.746 6.93468C172.768 6.92028 174.98 5.55244 177.615 5.52365C177.674 5.51953 177.74 5.57712 177.74 5.64706C177.74 5.71494 177.687 5.77253 177.617 5.77253C175.052 5.80133 172.898 7.13214 172.875 7.14654C172.855 7.15888 172.832 7.16505 172.81 7.16505C172.768 7.16505 172.727 7.14448 172.705 7.10746C172.668 7.04987 172.686 6.97171 172.744 6.93674L172.746 6.93468Z" fill="#360530"/>
<path d="M157.317 2.6381C157.662 2.8911 157.658 3.48555 157.099 4.25277L153.571 9.09061L152.316 8.17528L155.844 3.33745C156.428 2.53731 156.969 2.3851 157.315 2.63604L157.317 2.6381Z" fill="#FF9EAB"/>
<path d="M155.209 0.356157C155.596 0.541278 155.698 1.1275 155.289 1.98317L153.242 6.24918L151.844 5.57863L153.89 1.31262C154.318 0.419921 154.824 0.171036 155.211 0.356157H155.209Z" fill="#FF9EAB"/>
<path d="M152.65 0.0385366C153.051 0.188691 153.21 0.762567 152.879 1.65115L151.513 5.32683L150.059 4.78587L151.424 1.11018C151.77 0.180463 152.249 -0.111617 152.65 0.0364797V0.0385366Z" fill="#FF9EAB"/>
<path d="M150.433 0.0585652C150.845 0.177866 151.044 0.737343 150.781 1.65061L149.491 6.12026L148 5.69037L149.29 1.22072C149.565 0.268369 150.022 -0.0607351 150.433 0.0585652Z" fill="#FF9EAB"/>
<path d="M149.768 4.06708L153.018 5.62622C154.433 6.30499 155.032 8.004 154.351 9.41915L151.175 16.0403L144.336 12.7596L148.248 4.60188C148.52 4.03623 149.198 3.79763 149.766 4.06914L149.768 4.06708Z" fill="#FF9EAB"/>
<path d="M152.871 8.46607C154.646 9.04406 157.406 5.55966 158.32 7.15376C158.729 7.86751 156.528 9.55211 155.335 10.5456C154.323 11.3889 153.387 12.403 152.133 12.7958C151.404 13.0221 149.218 12.8432 149.107 10.6382C149.029 9.11193 150.308 7.63096 152.871 8.46607Z" fill="#FF9EAB"/>
<path d="M150.038 8.49136C150.55 8.16637 151.461 7.87634 152.909 8.34943C153.302 8.47696 153.781 8.40085 154.421 8.11083C154.483 8.08203 154.557 8.11083 154.586 8.17254C154.614 8.23424 154.586 8.30829 154.524 8.33709C153.825 8.65385 153.288 8.73201 152.831 8.58392C151.759 8.23424 150.838 8.27538 150.169 8.6991C149.653 9.02821 149.324 9.56506 149.244 10.213C149.236 10.2767 149.182 10.322 149.12 10.322C149.116 10.322 149.11 10.322 149.106 10.322C149.038 10.3138 148.989 10.2521 148.997 10.1842C149.085 9.4725 149.464 8.85543 150.036 8.4893L150.038 8.49136Z" fill="#360530"/>
<path d="M149.208 5.11937C151.839 5.30038 153.968 6.79369 153.988 6.80809C154.044 6.84717 154.058 6.92533 154.017 6.98087C153.993 7.01584 153.955 7.03229 153.916 7.03229C153.892 7.03229 153.867 7.02406 153.844 7.00967C153.824 6.99527 151.748 5.54309 149.19 5.3662C149.122 5.36209 149.07 5.30244 149.074 5.23456C149.079 5.16668 149.14 5.11526 149.206 5.11937H149.208Z" fill="#360530"/>
<path d="M149.536 76.2104L149.559 69.1758H175.515L176.574 76.089C176.587 76.2556 176.591 76.4202 176.593 76.5848L178.948 92.7376L200.463 96.1048L198.711 109.837L171.169 107.115C168.036 106.803 165.323 104.501 164.646 101.255L163.431 95.4198L162.024 104.005L170.609 129.606L157.608 134.359L146.875 107.29C146.422 106.171 146.289 104.849 146.478 103.592L149.532 76.2104H149.536Z" fill="#C7DA3D"/>
<path d="M196.899 97.3555C196.965 97.3637 197.013 97.4233 197.004 97.4912L195.746 107.605C195.737 107.667 195.686 107.712 195.624 107.712C195.62 107.712 195.614 107.712 195.61 107.712C195.544 107.704 195.497 107.644 195.505 107.576L196.764 97.4624C196.772 97.3966 196.834 97.3493 196.899 97.3575V97.3555Z" fill="#360530"/>
<path d="M171.09 80.0333C171.158 80.0333 171.212 80.0868 171.212 80.1547C171.212 80.1979 171.212 84.6037 171.522 89.1289C172.038 96.649 172.978 98.7079 173.676 99.1111C175.665 100.259 180.085 100.946 186.461 101.1C191.291 101.217 195.576 100.987 195.619 100.983C195.685 100.977 195.744 101.03 195.746 101.098C195.75 101.166 195.699 101.221 195.631 101.226C195.358 101.24 192.677 101.382 189.22 101.382C183.822 101.382 176.531 101.036 173.554 99.3188C170.985 97.8379 170.967 80.8725 170.967 80.1526C170.967 80.0847 171.02 80.0312 171.088 80.0312L171.09 80.0333Z" fill="#360530"/>
<path d="M162.621 86.8126C162.687 86.8085 162.747 86.8579 162.751 86.9237C163.146 92.1585 163.545 94.635 163.549 94.6597C163.559 94.7255 163.514 94.7893 163.448 94.7996C163.442 94.7996 163.436 94.7996 163.428 94.7996C163.37 94.7996 163.317 94.7564 163.308 94.6967C163.304 94.672 162.903 92.1873 162.508 86.9401C162.502 86.8723 162.554 86.8147 162.619 86.8105L162.621 86.8126Z" fill="#360530"/>
<path d="M157.734 131.022L167.872 127.39C167.936 127.367 168.006 127.4 168.026 127.464C168.049 127.528 168.016 127.598 167.952 127.62L157.814 131.253C157.799 131.257 157.787 131.259 157.773 131.259C157.723 131.259 157.676 131.228 157.658 131.179C157.635 131.115 157.668 131.045 157.732 131.024L157.734 131.022Z" fill="#360530"/>
<path d="M156.115 80.0352C156.181 80.0434 156.229 80.1051 156.218 80.173C156.192 80.3622 153.6 99.2117 154.511 105.38C155.396 111.36 163.097 128.126 163.173 128.294C163.201 128.356 163.173 128.428 163.113 128.455C163.097 128.463 163.08 128.465 163.062 128.465C163.016 128.465 162.971 128.438 162.951 128.395C162.872 128.226 155.159 111.43 154.268 105.415C153.351 99.2137 155.949 80.3293 155.974 80.1401C155.982 80.0742 156.043 80.0269 156.111 80.0372L156.115 80.0352Z" fill="#360530"/>
<path d="M162.524 36.4863C162.783 36.4863 162.995 36.7332 162.995 37.0396C162.995 37.3461 162.785 37.5929 162.524 37.5929C162.263 37.5929 162.053 37.3461 162.053 37.0396C162.053 36.7332 162.263 36.4863 162.524 36.4863Z" fill="#360530"/>
<path d="M158.659 36.4863C158.918 36.4863 159.13 36.7332 159.13 37.0396C159.13 37.3461 158.918 37.5929 158.659 37.5929C158.399 37.5929 158.188 37.3461 158.188 37.0396C158.188 36.7332 158.399 36.4863 158.659 36.4863Z" fill="#360530"/>
<path d="M160.387 37.172C160.424 37.1144 160.5 37.098 160.56 37.135C160.618 37.172 160.634 37.2481 160.597 37.3078C160.597 37.3098 160.416 37.5896 160.338 37.7603C160.289 37.8714 160.278 37.9619 160.311 38.0256C160.356 38.112 160.474 38.1532 160.515 38.1614C160.583 38.1737 160.626 38.2396 160.614 38.3074C160.603 38.3671 160.55 38.4082 160.492 38.4082C160.484 38.4082 160.476 38.4082 160.47 38.4062C160.443 38.4021 160.2 38.3506 160.093 38.1408C160.023 38.0051 160.029 37.8405 160.112 37.6575C160.196 37.4703 160.381 37.1864 160.387 37.1741V37.172Z" fill="#360530"/>
<path d="M158.913 38.9292C158.837 39.0197 158.804 39.137 158.821 39.2501C158.884 39.6574 159.46 40.2189 160.374 40.2189C161.215 40.2189 161.871 39.7458 161.996 39.3098C162.033 39.1843 162.009 39.0506 161.931 38.9478C161.852 38.8429 161.733 38.7832 161.601 38.7832H159.23C159.109 38.7832 158.993 38.8367 158.913 38.9292ZM159.067 39.2131C159.061 39.1699 159.074 39.1267 159.102 39.0917C159.135 39.0547 159.181 39.0321 159.23 39.0321H161.601C161.653 39.0321 161.7 39.0568 161.731 39.0979C161.762 39.139 161.772 39.1925 161.758 39.2439C161.671 39.5422 161.128 39.9741 160.374 39.9741C159.619 39.9741 159.115 39.5237 159.067 39.2131Z" fill="#360530"/>
<path d="M154.424 12.9137C150.712 22.6511 149.562 36.4735 157.3 44.4727C159.42 44.2835 167.679 44.265 169.802 44.4501C177.507 36.3788 176.153 22.6799 172.434 12.9137L182.301 8.54688C189.122 23.2414 190.453 44.5221 176.888 55.7405L178.249 73.7939C178.249 73.7939 179.572 79.6026 167.95 77.9015C159.332 76.6407 155.885 73.0123 148.492 75.7891L150.002 55.7754C136.352 44.3966 137.753 23.3216 144.557 8.54688L154.424 12.9137Z" fill="#FFBE00"/>
<path d="M174.35 56.7732C175.401 56.7732 176.347 55.7735 176.355 55.7632C176.401 55.7139 176.479 55.7118 176.526 55.7571C176.576 55.8023 176.578 55.8805 176.532 55.9278C176.491 55.973 175.506 57.0138 174.348 57.0138C174.28 57.0138 174.227 56.9604 174.227 56.8925C174.227 56.8246 174.28 56.7711 174.348 56.7711L174.35 56.7732Z" fill="#360530"/>
<path d="M150.778 52.4399C150.839 52.4646 150.872 52.5345 150.848 52.5962C150.677 53.0343 150.278 54.6737 150.278 55.009C150.278 55.0768 150.224 55.1303 150.157 55.1303C150.089 55.1303 150.035 55.0768 150.035 55.009C150.035 54.6161 150.453 52.9479 150.621 52.5098C150.646 52.4481 150.716 52.4152 150.778 52.4399Z" fill="#360530"/>
</g>
<defs>
<clipPath id="clip0_47_13490">
<rect width="208" height="147.333" fill="white"/>
</clipPath>
</defs>
</svg>
