<svg width="208" height="148" viewBox="0 0 208 148" fill="none" xmlns="http://www.w3.org/2000/svg">
<g clip-path="url(#clip0_47_5394)">
<path d="M144.919 55.2402H132.081C131.924 55.2402 131.797 55.3673 131.797 55.5241V56.3912C131.797 56.548 131.924 56.6751 132.081 56.6751H144.919C145.076 56.6751 145.203 56.548 145.203 56.3912V55.5241C145.203 55.3673 145.076 55.2402 144.919 55.2402Z" fill="#EB4829"/>
<path d="M85.5634 14.1855H76.5195V25.8023H85.5634V14.1855Z" fill="#FF9EAB"/>
<path d="M81.0401 3.10161C77.2069 3.39066 74.7617 6.97906 74.7617 11.2836C74.7617 15.5881 80.9125 18.2963 84.7587 18.2963C88.6049 18.2963 88.6856 15.5855 88.6856 11.2836C88.6856 3.78387 84.9514 2.80735 81.0375 3.10161H81.0401Z" fill="#FF9EAB"/>
<path d="M84.7618 18.4533C83.2696 18.4533 81.478 18.0523 79.8479 17.357C79.7672 17.3232 79.7307 17.2294 79.7646 17.1487C79.7984 17.068 79.8922 17.0315 79.9729 17.0653C81.5666 17.7476 83.3113 18.1382 84.7644 18.1382C84.8503 18.1382 84.9232 18.2085 84.9232 18.2971C84.9232 18.3856 84.8529 18.4559 84.7644 18.4559L84.7618 18.4533Z" fill="#360530"/>
<path d="M89.018 5.48088C90.3669 3.66845 86.6639 -1.65165 81.724 0.50712C79.6772 1.40031 77.107 0.66076 74.8337 3.0565C71.9874 6.05378 73.9874 9.4651 73.9874 9.4651C73.2712 11.2879 74.2374 14.8086 75.0811 15.0743C75.6982 15.267 75.4014 16.6888 76.5602 16.2331C77.2242 15.9701 77.4794 12.7384 77.8101 12.7176C78.9299 11.7879 79.935 10.1031 79.3622 8.74638C77.5914 4.54342 81.3725 11.2958 85.1197 5.05902C86.3436 3.02004 88.0441 9.24636 88.6873 9.42083C89.3644 9.60312 91.682 7.01728 89.018 5.48088Z" fill="#0071EB"/>
<path d="M76.1574 9.33553C75.0376 9.5725 74.3996 11.0308 74.733 12.588C75.0637 14.1478 76.2407 15.2181 77.3579 14.9811C78.4776 14.7442 79.1156 13.2859 78.7823 11.7287C78.449 10.1714 77.2745 9.09856 76.1574 9.33553Z" fill="#FF9EAB"/>
<path d="M77.296 12.5076C77.2491 12.5076 77.2049 12.4868 77.1736 12.4477C76.684 11.8331 76.1164 11.742 76.1111 11.742C76.0252 11.729 75.9653 11.6483 75.9783 11.5623C75.9914 11.4764 76.0721 11.4165 76.1554 11.4295C76.1841 11.4321 76.8481 11.5337 77.421 12.2524C77.4757 12.3201 77.4653 12.4191 77.395 12.4737C77.3663 12.4972 77.3325 12.5076 77.296 12.5076Z" fill="#360530"/>
<path d="M84.7953 14.914C83.9047 14.914 82.9255 14.7395 82.3136 14.4219C82.2355 14.3828 82.2068 14.2864 82.2459 14.2083C82.2849 14.1302 82.3813 14.0989 82.4594 14.1406C83.6807 14.7708 86.1129 14.7083 86.4905 14.1797C86.54 14.1094 86.6389 14.0911 86.7119 14.1432C86.7822 14.1927 86.8004 14.2916 86.7483 14.3646C86.4801 14.7421 85.6806 14.914 84.7979 14.914H84.7953Z" fill="#360530"/>
<path d="M82.304 11.1777C81.9733 11.1777 81.7051 11.4928 81.7051 11.8808C81.7051 12.2688 81.9733 12.5839 82.304 12.5839C82.6347 12.5839 82.9029 12.2688 82.9029 11.8808C82.9029 11.4928 82.6347 11.1777 82.304 11.1777Z" fill="#360530"/>
<path d="M87.2181 12.5839C87.5489 12.5839 87.817 12.2691 87.817 11.8808C87.817 11.4925 87.5489 11.1777 87.2181 11.1777C86.8873 11.1777 86.6191 11.4925 86.6191 11.8808C86.6191 12.2691 86.8873 12.5839 87.2181 12.5839Z" fill="#360530"/>
<path d="M85.3555 13.6174C85.28 13.6174 85.2149 13.5653 85.2019 13.4898C85.1863 13.4039 85.2409 13.3205 85.3269 13.3049C85.379 13.2945 85.53 13.2424 85.5847 13.1305C85.6263 13.0471 85.6159 12.9325 85.5534 12.7919C85.4545 12.5758 85.2279 12.2216 85.2253 12.2164C85.1784 12.1435 85.1993 12.0446 85.2722 11.9977C85.3451 11.9508 85.4441 11.9716 85.4909 12.0446C85.5013 12.0602 85.7331 12.4221 85.8425 12.6591C85.9492 12.8935 85.9571 13.1018 85.8685 13.2737C85.7305 13.5393 85.4232 13.6044 85.3894 13.6096C85.379 13.6096 85.3685 13.6122 85.3607 13.6122L85.3555 13.6174Z" fill="#360530"/>
<path d="M87.6074 138.991L97.9403 139.124L99.1044 121.325L88.6074 121.189L87.6074 138.991Z" fill="#FFD833"/>
<path d="M109.536 140.924C104.817 139.609 101.171 137.914 98.4266 134.555C98.4266 134.555 97.3121 135.167 97.0647 135.651C96.6663 136.43 96.4918 137.026 95.0179 137.252C94.0284 137.406 87.4193 137.31 87.4193 137.31L87.3125 145.71L112.452 146.028C112.478 143.924 111.364 141.968 109.536 140.924Z" fill="#1373BA"/>
<path d="M110.899 144.184L88.332 143.897C88.2435 143.897 88.1758 143.824 88.1758 143.738C88.1758 143.65 88.2409 143.582 88.3346 143.582L110.901 143.868C110.99 143.868 111.058 143.941 111.058 144.027C111.058 144.113 110.985 144.184 110.899 144.184Z" fill="white"/>
<path d="M104.125 142.271C104.005 142.271 103.885 142.227 103.792 142.136C103.604 141.954 103.604 141.652 103.786 141.467L105.729 139.493C105.911 139.305 106.213 139.305 106.398 139.488C106.583 139.67 106.586 139.972 106.404 140.157L104.461 142.131C104.367 142.225 104.245 142.271 104.122 142.271H104.125Z" fill="white"/>
<path d="M102.039 140.953C101.919 140.953 101.799 140.909 101.706 140.818C101.518 140.635 101.518 140.333 101.701 140.148L103.643 138.174C103.825 137.987 104.128 137.987 104.312 138.169C104.5 138.352 104.5 138.654 104.318 138.839L102.375 140.812C102.281 140.906 102.159 140.953 102.036 140.953H102.039Z" fill="white"/>
<path d="M100.905 140.305C100.847 140.305 100.79 140.29 100.738 140.259L98.9932 139.186C98.9047 139.131 98.85 139.037 98.8422 138.933C98.837 138.829 98.8813 138.73 98.962 138.667L101.48 136.701C101.587 136.618 101.735 136.613 101.847 136.686C101.959 136.759 102.014 136.897 101.98 137.027L101.207 140.068C101.183 140.165 101.113 140.246 101.019 140.282C100.98 140.298 100.941 140.305 100.899 140.305H100.905ZM99.712 138.884L100.704 139.496L101.144 137.766L99.712 138.884Z" fill="white"/>
<path d="M57.5879 138.754C61.0253 139.564 64.4548 140.392 67.9 141.165C69.2932 135.408 70.5587 129.619 71.8868 123.846C68.4729 123.051 65.0616 122.257 61.6476 121.463C60.3065 127.228 58.9472 132.991 57.5879 138.754Z" fill="#FFD833"/>
<path d="M78.6183 141.968C73.431 140.392 71.5404 137.533 69.6837 134.994C69.6603 134.999 68.1447 134.919 67.4598 135.413C66.3531 136.215 67.2619 136.947 65.0563 136.742C63.5772 136.603 59.9237 135.749 58.1112 135.283L56.1035 143.421C67.6291 146.559 68.9754 147.278 81.5504 146.197C81.4541 144.601 80.8031 142.286 78.6183 141.968Z" fill="#1373BA"/>
<path d="M75.2493 145.015C66.9788 145.015 59.591 142.783 57.2344 141.992C57.1901 141.976 57.1641 141.968 57.151 141.963C57.0833 141.947 57.0312 141.885 57.0312 141.812C57.0312 141.726 57.099 141.653 57.1875 141.65C57.2161 141.65 57.2161 141.65 57.3359 141.689C59.3202 142.356 69.7417 145.622 79.9939 144.432C80.0824 144.421 80.1579 144.484 80.1684 144.57C80.1788 144.655 80.1163 144.734 80.0303 144.744C78.4236 144.932 76.8195 145.01 75.2493 145.01V145.015Z" fill="white"/>
<path d="M73.4337 142.972C73.3321 142.972 73.2306 142.941 73.1446 142.873C72.9389 142.714 72.8998 142.415 73.0587 142.209L74.5222 140.313C74.6836 140.105 74.9805 140.069 75.1862 140.227C75.3919 140.386 75.431 140.686 75.2721 140.891L73.8087 142.787C73.7149 142.907 73.5743 142.972 73.4337 142.972Z" fill="white"/>
<path d="M71.6022 141.838C71.4824 141.838 71.36 141.792 71.2689 141.7C71.084 141.516 71.0814 141.216 71.2663 141.031L72.9876 139.294C73.1725 139.109 73.4719 139.107 73.6568 139.292C73.8417 139.477 73.8443 139.776 73.6594 139.961L71.9381 141.698C71.8444 141.792 71.7246 141.838 71.6022 141.838Z" fill="white"/>
<path d="M70.5787 141.08C70.498 141.08 70.4172 141.048 70.3599 140.991C69.8756 140.522 69.3704 140.061 68.8522 139.59C68.7741 139.52 68.7376 139.416 68.7506 139.314C68.7637 139.21 68.8288 139.121 68.9225 139.075C69.4069 138.832 69.886 138.619 70.3469 138.411C70.8365 138.192 71.3443 137.965 71.8521 137.705C71.9719 137.642 72.1203 137.666 72.2166 137.759C72.313 137.856 72.339 138.002 72.2791 138.124C71.9797 138.733 71.701 139.275 71.4042 139.848C71.2271 140.192 71.0474 140.538 70.8599 140.905C70.8157 140.994 70.7297 141.056 70.6308 141.074C70.6125 141.077 70.5969 141.08 70.5787 141.08ZM69.6204 139.434C69.9147 139.702 70.2063 139.97 70.4901 140.241C70.6099 140.009 70.7271 139.783 70.8417 139.559C70.9953 139.259 71.1464 138.97 71.2974 138.674C71.063 138.78 70.8313 138.884 70.6047 138.986C70.2818 139.129 69.9537 139.278 69.6204 139.434Z" fill="white"/>
<path d="M62.5694 92.513C62.5721 92.4895 62.6632 91.8489 62.6632 91.8489L62.5616 92.6822L62.5694 92.513C62.3872 93.7968 57.1348 131.048 57.1348 131.048L74.4987 133.944L81.9958 95.0728C82.0374 94.867 82.0765 94.453 82.0973 94.2395L85.7665 59.9596L64.3636 58.2539C64.3636 58.2539 62.5851 92.177 62.5694 92.513Z" fill="#FFFFE9"/>
<path d="M62.6641 91.8477C62.6641 91.8477 62.5729 92.4909 62.5703 92.5117L62.5625 92.681L62.6641 91.8477Z" fill="#EB4829"/>
<path d="M98.326 58.9909L76.957 61.0924L81.3475 96.8696C81.7928 99.8487 81.8839 102.846 82.0922 105.835C82.4594 111.629 83.4229 126.78 83.8057 132.787L101.399 132.199C101.375 126.152 101.318 110.544 101.295 104.684C101.615 98.2966 98.727 66.0219 98.326 58.9883V58.9909Z" fill="#FFFFE9"/>
<path d="M73.1478 130.541C73.1478 130.541 73.1296 130.541 73.1217 130.541L59.5207 128.236C59.4348 128.221 59.3775 128.14 59.3905 128.054C59.4061 127.968 59.4869 127.911 59.5728 127.924L73.1738 130.228C73.2598 130.244 73.3171 130.325 73.304 130.411C73.291 130.489 73.2233 130.543 73.1478 130.543V130.541Z" fill="#428FC8"/>
<path d="M70.2781 129.054C70.2781 129.054 70.2599 129.054 70.2495 129.051C70.1635 129.036 70.1063 128.952 70.1245 128.866C70.174 128.606 74.9654 102.807 75.9029 94.3312C76.606 87.9695 74.9264 66.5146 74.9081 66.2985C74.9003 66.2125 74.9654 66.1344 75.054 66.1292C75.1373 66.124 75.2154 66.1865 75.2232 66.275C75.2415 66.4912 76.9237 87.9773 76.2154 94.3677C75.2753 102.857 70.4812 128.666 70.4318 128.926C70.4187 129.002 70.351 129.056 70.2781 129.056V129.054Z" fill="#428FC8"/>
<path d="M83.2178 91.4879C83.2178 91.4879 83.1944 91.488 83.184 91.4853C83.098 91.4671 83.0459 91.3812 83.0642 91.2979C83.0824 91.2119 84.9912 82.5222 85.4938 75.8688C85.5016 75.7828 85.5797 75.7177 85.663 75.7229C85.749 75.7308 85.8141 75.8063 85.8089 75.8922C85.3063 82.569 83.3923 91.2796 83.3741 91.3656C83.3584 91.4385 83.2933 91.4906 83.2204 91.4906L83.2178 91.4879Z" fill="#428FC8"/>
<path d="M85.2761 129.387C85.1928 129.387 85.1225 129.32 85.1173 129.236C85.1147 129.15 85.1824 129.075 85.2683 129.072L99.2938 128.541C99.3797 128.541 99.4552 128.606 99.4578 128.692C99.4604 128.778 99.3927 128.854 99.3068 128.856L85.2813 129.387C85.2813 129.387 85.2787 129.387 85.2761 129.387Z" fill="#428FC8"/>
<path d="M93.3554 128.236C93.2668 128.236 93.1965 128.165 93.1965 128.077V96.2683C93.1965 88.3233 91.3528 65.2304 91.3346 64.9961C91.3268 64.9101 91.3919 64.832 91.4804 64.8268C91.5664 64.819 91.6445 64.8841 91.6497 64.9726C91.6679 65.2044 93.5142 88.3129 93.5142 96.2683V128.077C93.5142 128.163 93.4439 128.236 93.3554 128.236Z" fill="#428FC8"/>
<path d="M136.526 52.7037L129.188 50.6777L128.662 52.5813L136 54.6073C137.214 54.9432 137.938 54.451 138.097 53.8677C138.255 53.2818 137.69 53.0266 136.526 52.7063V52.7037Z" fill="#FF9EAB"/>
<path d="M137.497 54.0084L130.159 51.9824L129.633 53.886L136.971 55.912C138.185 56.2479 138.922 55.6906 139.067 55.1672C139.213 54.6412 138.661 54.3313 137.497 54.011V54.0084Z" fill="#FF9EAB"/>
<path d="M129.609 50.328L116.409 47.8125L115.139 52.4946L124.508 55.6455C129.557 54.4555 131.969 54.8877 132.117 54.1846C132.49 52.4269 131.365 50.7004 129.607 50.328H129.609Z" fill="#FF9EAB"/>
<path d="M127.179 52.3922C124.167 50.5277 122.669 50.6448 121.745 52.1266C121.05 53.2411 121.708 55.0587 122.557 55.5275C124.021 56.3347 125.776 56.2983 127.44 56.4858C129.403 56.7045 132.885 57.2409 133.182 56.2384C133.841 53.9963 129.198 53.6421 127.179 52.3948V52.3922Z" fill="#FF9EAB"/>
<path d="M132.84 55.0606C132.799 55.0606 132.757 55.045 132.726 55.0138C132.13 54.3966 130.877 53.9799 129.666 53.5763C128.924 53.3289 128.156 53.0737 127.541 52.7717C127.463 52.7326 127.432 52.6388 127.468 52.5607C127.507 52.4826 127.601 52.4514 127.679 52.4878C128.276 52.7795 129.033 53.0321 129.765 53.2768C131.012 53.6909 132.304 54.1206 132.952 54.7924C133.012 54.8549 133.012 54.9539 132.95 55.0164C132.919 55.045 132.88 55.0606 132.84 55.0606Z" fill="#360530"/>
<path d="M113.301 42.3914C105.997 39.5009 98.5833 35.5323 95.1433 28.3555L80.4824 36.4281C81.8235 38.6519 83.399 40.8341 85.1854 42.7273C93.0679 51.2087 104.135 55.1799 114.965 57.784C115.804 57.9637 117.879 58.422 118.757 58.6043L121.95 45.2611C121.189 45.0371 119.39 44.4902 118.637 44.2715C116.976 43.7194 114.934 43.0398 113.299 42.3914H113.301Z" fill="#00AB41"/>
<path d="M86.6189 20.847L76.2365 19.9355C66.7629 19.9355 64.3359 25.6697 64.0052 30.094L63.2891 60.1866C64.5859 61.9026 69.8253 62.9703 78.351 63.4625C94.7826 64.413 99.884 61.2282 99.884 61.2282L97.3216 34.4324C96.9232 31.1903 93.8451 23.1073 86.6189 20.8444V20.847Z" fill="#00AB41"/>
<path d="M67.2096 71.5469L65.082 72.4557L68.0845 79.4867C68.5819 80.6507 69.2798 80.9658 69.8657 80.7158C70.4542 80.4658 70.686 79.6924 70.2094 78.5778L67.2069 71.5469H67.2096Z" fill="#FF9EAB"/>
<path d="M65.899 74.3613L63.7715 75.2701L66.1464 80.8272C66.6438 81.9912 67.3417 82.3063 67.9276 82.0563C68.5161 81.8063 68.7479 81.0329 68.2713 79.9184L65.8964 74.3613H65.899Z" fill="#FF9EAB"/>
<path d="M64.024 75.8613L61.8965 76.7701L63.8652 81.3767C64.3625 82.5408 65.0604 82.8558 65.6463 82.6059C66.2349 82.3559 66.4666 81.5825 65.9901 80.4679L64.0214 75.8613H64.024Z" fill="#FF9EAB"/>
<path d="M61.3248 75.4297L59.1973 76.3385L61.5305 81.8018C62.0279 82.9658 62.7258 83.2809 63.3117 83.031C63.9002 82.781 64.132 82.0076 63.6554 80.893L61.3222 75.4297H61.3248Z" fill="#FF9EAB"/>
<path d="M64.2913 63.8828L55.4844 67.6457L61.0675 80.7129C61.3826 81.4498 62.2367 81.7936 62.9737 81.4785L67.1063 79.7129C68.95 78.9239 69.8067 76.7912 69.0203 74.9475L64.2939 63.8854L64.2913 63.8828Z" fill="#FF9EAB"/>
<path d="M65.4916 69.4375C64.3016 69.211 61.5361 69.1693 61.6272 72.0416C61.6897 74.0285 62.8928 74.5285 66.252 74.2733C68.3691 74.1118 66.8796 77.8643 69.028 77.4476C69.9915 77.2601 71.0383 75.2915 70.1711 73.3228C69.1113 70.914 67.5436 69.8281 65.4916 69.4375Z" fill="#FF9EAB"/>
<path d="M68.0415 73.0942C68.0076 73.0135 67.9139 72.9745 67.8332 73.0083C67.7524 73.0422 67.716 73.1359 67.7524 73.2166L69.2055 76.6201C69.2394 76.7009 69.3331 76.7399 69.4138 76.7061C69.4946 76.6722 69.531 76.5785 69.4946 76.4978L68.0415 73.0942Z" fill="#360530"/>
<path d="M75.1159 36.957C75.0221 36.9935 74.9075 37.0794 74.793 37.1784C74.944 37.1133 75.0612 37.0378 75.1159 36.957Z" fill="#FFFF80"/>
<path d="M72.1056 20.7754C70.6369 20.9577 69.314 21.3821 68.1943 21.8925C63.0408 24.2102 59.6503 29.6266 57.6113 34.3269C53.1324 44.9489 51.5387 57.9979 54.0724 69.2839C54.6505 71.7265 55.4682 74.2134 56.7208 76.6664L69.077 70.7005C67.9026 67.9246 67.4886 64.5784 67.4651 61.4118C67.4729 54.5892 69.0302 47.2249 72.0951 41.0871C72.7357 39.845 73.5274 38.5351 74.3867 37.5898C74.4961 37.4727 74.6445 37.3138 74.7956 37.1836C74.569 37.2826 74.2643 37.3633 73.9571 37.4128L72.1082 20.7806L72.1056 20.7754Z" fill="#00AB41"/>
<path d="M67.585 60.2001C67.4991 60.2001 67.4288 60.1298 67.4262 60.0439C67.4262 59.9137 67.2673 46.8856 68.5537 41.2504C68.5745 41.1644 68.6605 41.1124 68.7438 41.1306C68.8297 41.1488 68.8818 41.2347 68.8636 41.3207C67.5824 46.9194 67.7412 59.9085 67.7438 60.0413C67.7438 60.1272 67.6761 60.2001 67.5876 60.2001H67.585Z" fill="#428FC8"/>
<path d="M155.037 61.248H122.814V146.669H155.037V61.248Z" fill="#BC8946"/>
<path d="M146.327 56.6758H131.525V61.2459H146.327V56.6758Z" fill="#FFD833"/>
<path d="M152.943 49.5605L151.115 50.8886" stroke="#EB4829" stroke-width="0.632788" stroke-linecap="round" stroke-linejoin="round"/>
<path d="M150.268 46.8828L148.939 48.7109" stroke="#EB4829" stroke-width="0.632788" stroke-linecap="round" stroke-linejoin="round"/>
<path d="M146.891 45.1621L146.193 47.3131" stroke="#EB4829" stroke-width="0.632788" stroke-linecap="round" stroke-linejoin="round"/>
<path d="M143.15 44.5703V46.8306" stroke="#EB4829" stroke-width="0.632788" stroke-linecap="round" stroke-linejoin="round"/>
<path d="M139.41 45.1621L140.108 47.3131" stroke="#EB4829" stroke-width="0.632788" stroke-linecap="round" stroke-linejoin="round"/>
</g>
<defs>
<clipPath id="clip0_47_5394">
<rect width="208" height="147.333" fill="white"/>
</clipPath>
</defs>
</svg>
