<svg width="208" height="148" viewBox="0 0 208 148" fill="none" xmlns="http://www.w3.org/2000/svg">
<path d="M92.2129 121.561L93.3886 139.553L103.832 139.418L102.823 121.426L92.2129 121.561Z" fill="#EB4829"/>
<path d="M96.3443 137.658C94.8535 137.428 94.6788 136.827 94.2763 136.04C94.0274 135.553 92.8994 134.934 92.8994 134.934C90.127 138.328 86.4411 140.041 81.6722 141.371C79.8266 142.427 78.6986 144.403 78.7251 146.531L104.132 146.208L104.023 137.717C104.023 137.717 97.3452 137.815 96.3443 137.658Z" fill="#BC8946"/>
<path d="M80.0222 144.664C79.9348 144.664 79.8633 144.595 79.8633 144.505C79.8633 144.417 79.9321 144.343 80.0195 144.343L102.826 144.055C102.913 144.055 102.985 144.124 102.985 144.211C102.985 144.298 102.916 144.372 102.829 144.372L80.0222 144.661V144.664Z" fill="white"/>
<path d="M87.3461 142.677C87.2216 142.677 87.0998 142.629 87.0045 142.534L85.0397 140.54C84.8544 140.352 84.857 140.047 85.045 139.862C85.233 139.677 85.5375 139.679 85.7229 139.867L87.6876 141.861C87.873 142.049 87.8703 142.354 87.6823 142.539C87.5897 142.632 87.4679 142.677 87.3461 142.677Z" fill="white"/>
<path d="M89.4535 141.339C89.329 141.339 89.2072 141.291 89.1119 141.196L87.1471 139.202C86.9618 139.014 86.9644 138.709 87.1524 138.524C87.3404 138.339 87.6449 138.341 87.8303 138.529L89.7951 140.523C89.9804 140.711 89.9778 141.016 89.7898 141.201C89.6971 141.294 89.5753 141.339 89.4535 141.339Z" fill="white"/>
<path d="M90.6037 140.688C90.564 140.688 90.5216 140.68 90.4845 140.664C90.3892 140.627 90.3204 140.545 90.2939 140.447L89.5101 137.375C89.4757 137.243 89.5313 137.105 89.6451 137.028C89.759 136.954 89.9099 136.96 90.0159 137.044L92.5632 139.033C92.6452 139.096 92.6903 139.197 92.685 139.303C92.6797 139.406 92.6214 139.502 92.534 139.557L90.7705 140.643C90.7202 140.675 90.6619 140.691 90.6037 140.691V140.688ZM90.3601 138.122L90.8049 139.87L91.8085 139.253L90.3601 138.122Z" fill="white"/>
<path d="M123.77 124.111C125.113 129.947 126.389 135.796 127.798 141.616C131.28 140.832 134.746 139.996 138.22 139.177C136.846 133.355 135.474 127.529 134.116 121.701C130.665 122.503 127.218 123.306 123.768 124.111H123.77Z" fill="#EB4829"/>
<path d="M130.674 137.144C128.448 137.353 129.366 136.612 128.246 135.802C127.553 135.301 126.022 135.381 125.998 135.378C124.121 137.947 122.212 140.833 116.969 142.427C114.761 142.747 114.104 145.088 114.006 146.701C126.716 147.794 128.077 147.066 139.725 143.894L137.697 135.669C135.864 136.141 132.173 137.004 130.677 137.144H130.674Z" fill="#BC8946"/>
<path d="M120.37 145.504C118.782 145.504 117.161 145.422 115.538 145.234C115.451 145.223 115.387 145.144 115.398 145.057C115.408 144.969 115.49 144.906 115.575 144.916C125.939 146.119 136.47 142.819 138.477 142.144C138.599 142.104 138.599 142.102 138.628 142.104C138.715 142.104 138.787 142.178 138.784 142.266C138.784 142.34 138.731 142.401 138.662 142.417C138.649 142.419 138.622 142.43 138.577 142.446C136.197 143.246 128.727 145.502 120.37 145.502V145.504Z" fill="white"/>
<path d="M122.204 143.441C122.061 143.441 121.918 143.377 121.826 143.256L120.345 141.341C120.184 141.132 120.224 140.83 120.433 140.669C120.642 140.507 120.941 140.544 121.105 140.756L122.586 142.67C122.747 142.88 122.707 143.181 122.498 143.343C122.411 143.409 122.308 143.444 122.207 143.444L122.204 143.441Z" fill="white"/>
<path d="M124.057 142.294C123.935 142.294 123.811 142.247 123.718 142.154L121.979 140.399C121.793 140.211 121.793 139.909 121.981 139.721C122.169 139.535 122.471 139.535 122.659 139.723L124.399 141.479C124.584 141.667 124.584 141.969 124.396 142.157C124.303 142.249 124.182 142.294 124.06 142.294H124.057Z" fill="white"/>
<path d="M125.089 141.526C125.07 141.526 125.055 141.526 125.036 141.521C124.935 141.505 124.851 141.441 124.803 141.351C124.612 140.975 124.43 140.62 124.25 140.271C123.953 139.696 123.67 139.154 123.37 138.539C123.31 138.415 123.336 138.266 123.434 138.171C123.532 138.076 123.68 138.052 123.802 138.116C124.313 138.378 124.827 138.605 125.322 138.828C125.788 139.037 126.273 139.252 126.762 139.498C126.858 139.545 126.921 139.635 126.935 139.739C126.948 139.842 126.911 139.948 126.834 140.019C126.312 140.493 125.804 140.957 125.311 141.436C125.25 141.494 125.171 141.526 125.089 141.526ZM124.363 139.095C124.514 139.389 124.663 139.68 124.819 139.977C124.938 140.207 125.057 140.44 125.182 140.679C125.47 140.406 125.764 140.136 126.061 139.863C125.724 139.704 125.391 139.556 125.068 139.41C124.837 139.307 124.604 139.204 124.366 139.093L124.363 139.095Z" fill="white"/>
<path d="M137.683 12.0907C135.858 10.8461 136.242 6.35792 130.769 6.3182C124.147 6.26789 123.162 5.15047 121.226 3.43992C117.286 -0.0394406 114.281 -0.897365 109.824 0.948232C105.815 2.60583 115.811 7.66599 115.694 11.8179C115.575 16.0043 118.885 20.1297 123.074 18.6787C130.044 16.2664 128.034 23.4899 136.208 22.1183C138.509 21.7317 143.143 15.8136 137.68 12.088L137.683 12.0907Z" fill="#3F1378"/>
<path d="M118.965 13.0859H109.824V24.8294H118.965V13.0859Z" fill="#FF9EAB"/>
<path d="M114.395 1.88707C110.442 1.59051 106.666 2.57553 106.666 10.1565C106.666 14.507 106.748 17.245 110.635 17.245C114.522 17.245 120.74 14.5044 120.74 10.1565C120.74 5.80863 118.269 2.17834 114.395 1.88707Z" fill="#FF9EAB"/>
<path d="M110.637 17.4038C110.55 17.4038 110.479 17.3323 110.479 17.2449C110.479 17.1576 110.55 17.0861 110.637 17.0861C112.104 17.0861 113.87 16.6915 115.48 16.0031C115.563 15.9686 115.655 16.0057 115.69 16.0878C115.724 16.1699 115.687 16.2626 115.605 16.297C113.958 17.0013 112.147 17.4065 110.637 17.4065V17.4038Z" fill="#360530"/>
<path d="M117.969 9.29297C117.955 9.30356 117.942 9.31415 117.932 9.33004C117.955 9.31945 117.971 9.30886 117.969 9.29297Z" fill="#3F1378"/>
<path d="M118.11 1.68589C115.86 -0.0140692 109.618 -0.750189 106.894 3.30377C105.654 5.14936 105.464 7.88731 106.902 8.15475C107.948 8.35069 109.147 7.08764 109.616 4.84485C109.971 7.90055 117.371 9.55814 117.933 9.33042C117.943 9.31453 117.957 9.30129 117.97 9.29335C117.97 9.30924 117.957 9.32248 117.933 9.33042C117.557 9.83088 118.399 13.35 118.926 13.8981C119.323 14.3111 119.871 14.1867 120.123 13.7445C123.668 7.48483 120.795 3.71419 118.11 1.68589Z" fill="#3F1378"/>
<path d="M119.333 8.18784C118.202 7.94688 117.013 9.02988 116.68 10.6054C116.346 12.1809 116.99 13.6531 118.12 13.8941C119.251 14.1351 120.44 13.0521 120.774 11.4766C121.11 9.90104 120.464 8.4288 119.333 8.18784Z" fill="#FF9EAB"/>
<path d="M118.178 11.3916C118.144 11.3916 118.109 11.381 118.078 11.3572C118.009 11.3015 117.998 11.2009 118.051 11.1321C118.628 10.4066 119.301 10.3059 119.33 10.3006C119.417 10.2874 119.497 10.3483 119.51 10.4357C119.523 10.5231 119.462 10.6025 119.375 10.6157C119.364 10.6157 118.792 10.7111 118.303 11.3307C118.271 11.3704 118.226 11.3916 118.178 11.3916Z" fill="#360530"/>
<path d="M133.195 92.6153L133.092 91.7706L133.188 92.4432L131.374 57.8164L109.74 59.5402L113.45 94.1882L113.508 94.723C113.519 94.8263 113.535 94.9269 113.556 95.0302L121.134 134.317L138.685 131.389L133.193 92.4405L133.201 92.6126L133.195 92.6153Z" fill="#1373BA"/>
<path d="M133.195 92.6142L133.187 92.4421L133.092 91.7695L133.195 92.6142Z" fill="#1373BA"/>
<path d="M93.9421 86.3859C93.0736 92.7912 90.1927 126.364 89.5254 133.529C89.5254 133.529 107.2 135.579 107.198 135.579C107.65 132.595 112.806 95.7251 113.256 93.628C114.662 85.1599 117.151 69.7305 118.592 61.101L97.0931 58.1406C96.402 64.3473 94.6094 80.3672 93.9395 86.3833L93.9421 86.3859Z" fill="#1373BA"/>
<path d="M122.495 130.878C122.418 130.878 122.352 130.822 122.338 130.745C122.323 130.658 122.383 130.576 122.468 130.563L136.216 128.232C136.306 128.219 136.386 128.277 136.399 128.362C136.412 128.447 136.354 128.532 136.269 128.545L122.521 130.875C122.521 130.875 122.503 130.875 122.495 130.875V130.878Z" fill="#E2CFCF"/>
<path d="M125.394 129.374C125.32 129.374 125.251 129.321 125.238 129.244C125.19 128.982 120.342 102.895 119.394 94.3153C118.679 87.8543 120.379 66.1415 120.398 65.9217C120.406 65.8343 120.482 65.7681 120.57 65.776C120.657 65.784 120.723 65.8608 120.715 65.9482C120.697 66.1653 119 87.8517 119.712 94.2808C120.66 102.847 125.506 128.923 125.553 129.186C125.569 129.273 125.511 129.355 125.426 129.371C125.416 129.371 125.408 129.374 125.397 129.374H125.394Z" fill="#E2CFCF"/>
<path d="M112.316 91.4049C112.242 91.4049 112.176 91.3546 112.16 91.2804C112.141 91.1931 110.208 82.3888 109.7 75.6392C109.692 75.5518 109.758 75.475 109.848 75.4671C109.93 75.4618 110.012 75.5254 110.02 75.6154C110.526 82.3411 112.456 91.1216 112.475 91.2116C112.493 91.2963 112.44 91.3837 112.353 91.4023C112.342 91.4023 112.329 91.4049 112.319 91.4049H112.316Z" fill="#E2CFCF"/>
<path d="M105.371 131.412C105.371 131.412 105.363 131.412 105.358 131.412L91.8221 130.34C91.7347 130.332 91.6685 130.255 91.6764 130.168C91.6844 130.08 91.7585 130.014 91.8485 130.022L105.385 131.095C105.472 131.102 105.538 131.179 105.53 131.267C105.525 131.351 105.454 131.412 105.371 131.412Z" fill="#E2CFCF"/>
<path d="M97.7312 128.547H97.7286C97.6412 128.547 97.5697 128.473 97.5723 128.383C97.5776 128.139 98.1337 103.882 99.3438 95.7394C100.522 87.7957 102.376 64.8356 102.394 64.6053C102.402 64.5179 102.484 64.4517 102.566 64.4596C102.654 64.4676 102.72 64.5444 102.712 64.6317C102.693 64.8621 100.84 87.8328 99.6589 95.7871C98.4541 103.908 97.898 128.147 97.8927 128.391C97.8927 128.478 97.8186 128.547 97.7339 128.547H97.7312Z" fill="#F2E5E5"/>
<path d="M77.0531 61.3491C75.9489 61.8708 75.5782 62.538 75.8139 63.0385C76.0495 63.5363 76.7539 63.6978 77.9057 63.155L84.8645 59.8716L84.0118 58.0684L77.0531 61.3518V61.3491Z" fill="#FF9EAB"/>
<path d="M77.6994 65.0281C76.7091 65.7404 76.4655 66.4659 76.7885 66.9134C77.1116 67.3609 77.8318 67.3901 78.8671 66.646L83.8028 63.0925L82.6378 61.4746L77.702 65.0281H77.6994Z" fill="#FF9EAB"/>
<path d="M80.2153 66.8834C79.2938 67.6831 79.119 68.4298 79.4792 68.8455C79.8393 69.2612 80.5622 69.2242 81.5234 68.3901L85.3284 65.0828L84.0203 63.5762L80.2153 66.8834Z" fill="#FF9EAB"/>
<path d="M82.5823 68.1769C81.7244 69.0428 81.6026 69.8001 81.9944 70.1867C82.3863 70.5733 83.1039 70.4859 83.9989 69.5803L88.2065 65.3331L86.7898 63.9297L82.5823 68.1769Z" fill="#FF9EAB"/>
<path d="M83.3376 57.2139C81.7012 58.3922 81.3278 60.6747 82.5062 62.3138L85.2123 66.0738C85.6837 66.7279 86.5972 66.8788 87.2512 66.4048L99.0212 57.9315L93.3255 50.0195L83.335 57.2113L83.3376 57.2139Z" fill="#FF9EAB"/>
<path d="M87.9196 54.7719C86.262 54.4409 84.5832 55.0102 82.9203 55.3359C80.9609 55.7225 77.4418 56.268 77.463 57.3245C77.5106 59.6864 82.7721 57.4542 84.4191 59.1992C86.7969 61.72 89.1509 60.8356 90.0035 59.0668C91.2348 56.5116 88.8808 54.9625 87.917 54.7719H87.9196Z" fill="#FF9EAB"/>
<path d="M87.4354 60.926C86.6595 60.926 85.5368 60.6215 84.3029 59.3134C83.9401 58.9269 83.3497 58.7177 82.4494 58.6488C82.362 58.6435 82.2958 58.5667 82.3011 58.4767C82.3064 58.3893 82.3858 58.3231 82.4732 58.3284C83.4582 58.4026 84.1123 58.6435 84.5333 59.091C85.5289 60.1449 86.596 60.6665 87.6075 60.5977C88.3939 60.5447 89.0956 60.1396 89.5855 59.4591C89.6358 59.3876 89.7364 59.3717 89.8079 59.422C89.8794 59.4723 89.8953 59.5729 89.845 59.6444C89.3075 60.3938 88.4998 60.8572 87.6313 60.9154C87.5678 60.9207 87.5042 60.9207 87.4354 60.9207V60.926Z" fill="#360530"/>
<path d="M86.5756 65.2582C86.5464 65.2582 86.5173 65.2503 86.4908 65.2317C83.6364 63.4073 82.1509 60.4125 82.1377 60.3834C82.0979 60.304 82.1324 60.2086 82.2118 60.1689C82.2912 60.1292 82.3866 60.1636 82.4263 60.2431C82.4395 60.2722 83.8879 63.1875 86.6656 64.9616C86.7397 65.0093 86.7609 65.1073 86.7133 65.1814C86.6815 65.2291 86.6312 65.2556 86.5782 65.2556L86.5756 65.2582Z" fill="#360530"/>
<path d="M99.2701 24.3477C98.2427 29.7918 97.2815 35.7258 94.7952 40.5926C92.2134 45.9123 88.0695 50.2496 83.3535 53.9805L91.4138 65.2632C101.828 58.421 109.626 48.7985 113.217 36.7479C114.403 32.9905 115.208 29.3919 116.09 26.4634L99.7176 22.2188C99.6144 22.7166 99.3708 23.8525 99.2701 24.3477Z" fill="#F8FFC4"/>
<path d="M119.373 19.0879H108.159C100.702 19.8425 98.3774 22.3395 98.0623 26.5047L95.4727 60.8243C95.4727 60.8243 100.628 64.0442 117.236 63.083C125.852 62.5852 131.148 61.5075 132.459 59.7704L131.733 29.3565C131.4 24.8842 128.945 19.0879 119.37 19.0879H119.373Z" fill="#F8FFC4"/>
<path d="M113.243 9.74023C112.909 9.74023 112.637 10.058 112.637 10.4499C112.637 10.8418 112.907 11.1595 113.243 11.1595C113.579 11.1595 113.849 10.8418 113.849 10.4499C113.849 10.058 113.579 9.74023 113.243 9.74023Z" fill="#360530"/>
<path d="M108.278 9.74023C107.945 9.74023 107.672 10.058 107.672 10.4499C107.672 10.8418 107.942 11.1595 108.278 11.1595C108.615 11.1595 108.885 10.8418 108.885 10.4499C108.885 10.058 108.615 9.74023 108.278 9.74023Z" fill="#360530"/>
<path d="M110.158 12.2087C110.158 12.2087 110.139 12.2087 110.129 12.2061C110.094 12.1981 109.782 12.1346 109.644 11.8645C109.554 11.6897 109.562 11.4806 109.668 11.2422C109.776 11.0013 110.012 10.6359 110.023 10.62C110.07 10.5458 110.168 10.5247 110.243 10.5723C110.317 10.62 110.338 10.718 110.29 10.7921C110.29 10.7948 110.057 11.1549 109.957 11.372C109.89 11.515 109.88 11.6288 109.925 11.7136C109.98 11.8248 110.134 11.8777 110.187 11.8883C110.272 11.9069 110.33 11.989 110.311 12.0763C110.295 12.1531 110.229 12.2061 110.155 12.2061L110.158 12.2087Z" fill="#360530"/>
<path d="M110.527 14.5733C110.429 14.5733 110.331 14.5654 110.235 14.5495C109.335 14.3933 109.033 13.9537 108.779 13.4797C108.697 13.3262 108.705 13.1488 108.8 13.0058C108.893 12.8601 109.057 12.7833 109.224 12.7939L112.158 13.0031C112.351 13.0164 112.507 13.1382 112.568 13.3209C112.629 13.5036 112.576 13.6942 112.431 13.8213C112.065 14.1364 111.273 14.576 110.527 14.576V14.5733ZM109.189 13.109C109.118 13.109 109.081 13.1541 109.068 13.1752C109.054 13.1964 109.025 13.2573 109.062 13.3262C109.295 13.7604 109.531 14.102 110.291 14.2318C110.964 14.3483 111.827 13.9167 112.221 13.5751C112.29 13.5142 112.272 13.4374 112.266 13.4162C112.258 13.395 112.229 13.3235 112.137 13.3156L109.203 13.1064C109.203 13.1064 109.195 13.1064 109.192 13.1064L109.189 13.109Z" fill="#360530"/>
<path d="M101.392 26.3883C100.523 26.6637 99.6469 27.1933 98.7281 27.8606C97.8596 28.5622 97.0069 29.4625 96.2867 30.5111C95.8975 31.1148 95.5532 31.7265 95.2567 32.3408C94.9733 32.9578 94.7827 33.5933 94.6159 34.2076C94.1181 36.0929 93.3952 38.0497 92.4102 39.7735C92.4234 39.8212 92.4393 39.8662 92.4525 39.9139C92.8603 41.3358 92.9927 42.8239 92.9239 44.1532C92.8232 45.5301 92.9186 47.0129 93.1383 48.5037C93.2654 48.2945 93.3952 48.0853 93.5117 47.8735C93.5752 47.7543 93.6467 47.6378 93.7209 47.5213C94.216 45.6228 94.7509 43.7321 95.397 41.8707C96.3847 39.0189 97.6265 36.2333 99.2471 33.6674C100.854 31.1069 102.843 28.782 105.131 26.7908C104.305 26.052 102.994 25.9064 101.395 26.391L101.392 26.3883Z" fill="#4AA03F"/>
<path d="M92.4654 58.4834C92.3728 58.5893 92.2774 58.6846 92.1821 58.7694C92.0709 58.9018 91.9464 59.0209 91.8035 59.1242C91.8035 59.1268 91.8087 59.1321 91.8114 59.1348L91.4513 59.3519C91.4513 59.3519 91.446 59.344 91.4433 59.3413C91.393 59.3651 91.3401 59.3916 91.2871 59.4128C91.9491 59.434 92.6667 59.0951 93.3551 58.441C93.6543 58.1497 93.9377 57.7976 94.1998 57.4004C93.9138 57.6811 93.5987 57.9273 93.2598 58.1286C93.0109 58.2795 92.7435 58.3987 92.4654 58.486V58.4834Z" fill="#4AA03F"/>
<path d="M99.7645 33.9947C98.1572 36.5023 96.9127 39.2349 95.9144 42.0497C95.3901 43.5219 94.9373 45.0153 94.5137 46.5246C94.9109 46.1195 95.3689 45.7567 95.8694 45.4602C96.4414 45.1054 97.0557 44.867 97.6567 44.6976C98.1254 44.5731 98.5888 44.4328 99.0469 44.2819C99.2481 43.6808 99.3991 43.0744 99.4865 42.4733C99.7963 40.7866 100.593 39.1025 101.753 37.9878C102.129 37.6329 102.452 37.2278 102.788 36.8253C103.135 36.4334 103.45 36.0098 103.742 35.5517C104.282 34.7705 104.729 33.9841 105.079 33.1897C105.471 32.4377 105.706 31.6248 105.886 30.8834C106.228 29.5621 106.178 28.2434 105.571 27.3008C103.323 29.2311 101.364 31.4871 99.7671 33.9894L99.7645 33.9947Z" fill="#4AA03F"/>
<path d="M105.127 26.7868C102.839 28.778 100.85 31.1029 99.243 33.6634C97.6225 36.2319 96.3806 39.0149 95.3929 41.8667C94.7468 43.7255 94.212 45.6161 93.7168 47.5173C93.9392 47.1705 94.2093 46.8342 94.5112 46.5244C94.9322 45.0177 95.3876 43.5216 95.9119 42.0494C96.9102 39.232 98.1547 36.4994 99.762 33.9944C101.359 31.4948 103.318 29.2361 105.566 27.3058C105.574 27.2979 105.582 27.2926 105.59 27.2846L105.148 26.7656C105.148 26.7656 105.132 26.7789 105.124 26.7868H105.127Z" fill="#52843F"/>
<path d="M77.0941 40.177C74.9466 38.6545 72.59 37.3173 70.048 36.793C70.0162 37.2961 70.0956 37.8045 70.236 38.2943C70.416 38.9087 70.6596 39.4171 71.0012 40.0234C71.1707 40.3094 71.356 40.5795 71.5599 40.8284C71.7718 41.1197 72.0021 41.3977 72.2537 41.6519C72.5079 41.8929 72.7806 42.1629 73.0825 42.4251C73.3791 42.6899 73.71 42.8938 74.0543 43.1506C74.4435 43.4313 74.8486 43.6749 75.2697 43.8788C75.6827 44.1012 76.1038 44.3077 76.5433 44.4666C77.6766 44.8797 78.7278 45.7032 79.5116 46.7094C80.3563 47.0325 81.2434 47.2761 82.1542 47.4058C82.7288 47.4614 83.3034 47.6547 83.8701 47.8957C84.8684 48.2849 85.7448 48.9866 86.383 49.7519C86.4465 49.8287 86.5127 49.9028 86.5789 49.9769C85.5144 48.3961 84.3149 46.9054 83.0307 45.4967C81.2301 43.5319 79.2521 41.726 77.0941 40.177Z" fill="#4AA03F"/>
<path d="M84.7917 42.0072C84.7414 41.8325 84.6964 41.6577 84.6567 41.4829C83.5339 40.5297 82.5277 39.4202 81.7069 38.2578C81.3759 37.7944 81.0052 37.3337 80.5762 36.9047C80.1314 36.489 79.6415 36.0891 79.1199 35.7184C78.6618 35.3848 78.1348 35.1279 77.645 34.887C77.1525 34.646 76.652 34.4527 76.1251 34.3256C75.6114 34.1906 75.1109 34.0926 74.6396 34.0396C74.1312 34.0079 73.6519 34.0185 73.2124 34.0661C72.3597 34.1376 71.5468 34.4792 71.0278 34.8923C70.5936 35.2339 70.3182 35.6549 70.1699 36.1289C72.8867 36.714 75.2725 38.1148 77.457 39.6824C79.6442 41.2817 81.6327 43.1299 83.4439 45.1344C85.0274 46.9032 86.4864 48.7938 87.7177 50.8274C87.6647 48.9792 87.1033 47.0939 86.2719 45.611C85.6443 44.5492 85.173 43.3073 84.7997 42.0125L84.7917 42.0072Z" fill="#4AA03F"/>
<path d="M83.4379 45.1287C81.6294 43.1243 79.6408 41.276 77.451 39.6767C75.2664 38.1091 72.8807 36.7084 70.1639 36.1232C70.1533 36.1232 70.1454 36.1179 70.1348 36.1152L70.0156 36.7878C70.0156 36.7878 70.0315 36.7931 70.0421 36.7931C72.5841 37.3174 74.9407 38.6546 77.0882 40.1771C79.2463 41.7262 81.2242 43.5347 83.0248 45.4968C84.3091 46.9055 85.5086 48.3963 86.573 49.9771C86.9199 50.3822 87.2986 50.7714 87.7063 51.1395C87.7063 51.0336 87.709 50.9277 87.7063 50.8191C86.4751 48.7829 85.0187 46.8922 83.4326 45.1261L83.4379 45.1287Z" fill="#52843F"/>
<path d="M88.5058 39.5139C87.5764 36.3019 86.4696 33.143 85.1933 30.0529C83.9143 26.976 82.4792 23.9574 80.7501 21.0897C80.7448 21.0791 80.7395 21.0711 80.7342 21.0605L80.1543 21.4207C80.1543 21.4207 80.1649 21.4418 80.1728 21.4498C81.8913 24.2619 83.3371 27.2461 84.6266 30.2912C85.9135 33.3522 87.0336 36.4846 87.9789 39.6674C88.9242 42.8502 89.6841 46.0939 90.174 49.3747C90.3038 50.2644 90.415 51.1567 90.5023 52.0517C90.648 51.8929 90.7857 51.7287 90.926 51.5645C90.8519 50.8099 90.7618 50.0552 90.6559 49.3032C90.182 45.9907 89.4405 42.7205 88.5111 39.5112L88.5058 39.5139Z" fill="#52843F"/>
<path d="M110.145 43.2205C108.999 42.3123 107.235 41.7588 105.286 41.9495C104.188 42.0607 103.15 42.3705 102.263 42.8895C101.278 43.4535 100.184 43.9116 99.048 44.285C98.5899 44.4359 98.1265 44.5762 97.6578 44.7007C97.0568 44.8675 96.4424 45.1084 95.8705 45.4633C95.37 45.7572 94.9119 46.1226 94.5148 46.5277C94.2103 46.8375 93.9428 47.1738 93.7204 47.5207C93.6462 47.6372 93.5774 47.7537 93.5112 47.8729C93.3947 48.0847 93.2623 48.2939 93.1378 48.5031C92.9181 47.0123 92.8227 45.5295 92.9234 44.1526C92.9922 42.8233 92.8625 41.3352 92.452 39.9132C92.4388 39.8656 92.4229 39.8206 92.4097 39.7729C92.1872 39.0103 91.941 38.2689 91.6021 37.599C90.6753 35.658 90.0398 33.4762 89.7591 31.4426C89.6029 30.1265 89.1978 28.7735 88.6337 27.4177C87.5878 25.032 86.0838 23.1016 84.5401 21.9922C83.142 20.9754 81.7704 20.655 80.7483 21.0892C82.4773 23.9569 83.9125 26.9755 85.1915 30.0524C86.4678 33.1425 87.5746 36.3015 88.504 39.5134C89.4361 42.7227 90.1775 45.9929 90.6488 49.3054C90.7547 50.0548 90.8448 50.8094 90.9189 51.5667C90.7786 51.7309 90.6409 51.8951 90.4952 52.0539C90.4078 51.1589 90.2993 50.2666 90.1669 49.3769C89.677 46.0935 88.9171 42.8524 87.9718 39.6696C87.0265 36.4842 85.9064 33.3517 84.6195 30.2934C83.33 27.2483 81.8842 24.2614 80.1657 21.452C79.3078 22.1775 78.9397 23.4776 78.953 25.0399C78.9768 26.7663 79.4349 28.8608 80.3723 30.9924C80.878 32.2131 81.5162 33.3146 82.2046 34.3129C83.3114 35.846 84.0714 37.8479 84.3388 39.8047C84.4262 40.3554 84.5189 40.9194 84.6513 41.4861C84.6936 41.6609 84.736 41.8356 84.7863 42.0104C85.1597 43.3052 85.631 44.5471 86.2586 45.6089C87.09 47.0917 87.6514 48.9797 87.7043 50.8253C87.707 50.9312 87.7043 51.0371 87.7043 51.1457C87.2965 50.775 86.9179 50.3884 86.571 49.9833C86.5048 49.9091 86.4386 49.835 86.3751 49.7582C85.7369 48.9929 84.8605 48.2939 83.8622 47.902C83.2955 47.6637 82.721 47.4677 82.1464 47.4121C81.2381 47.2824 80.3484 47.0414 79.5037 46.7157C78.9133 46.4907 78.3413 46.2285 77.8144 45.9161C77.4013 45.6751 76.9591 45.4606 76.4904 45.2885C76.0217 45.1349 75.5266 45.0184 75.0182 44.9363C71.5282 44.4226 68.6023 46.3371 68.4805 48.6725C72.9422 48.6275 77.3748 49.361 81.54 50.9259C83.6133 51.7415 85.5781 52.8324 87.3601 54.1723C89.1342 55.5306 90.5853 57.2544 91.7954 59.1239C91.9357 59.0206 92.0628 58.9014 92.174 58.769C92.2693 58.6843 92.3647 58.5863 92.4573 58.4831C92.7327 58.3957 93.0028 58.2765 93.2517 58.1256C93.5906 57.9244 93.9057 57.6781 94.1917 57.3974C94.5386 57.0585 94.8405 56.6692 95.0708 56.2217C95.235 55.9437 95.3594 55.6498 95.4442 55.3426C95.8043 54.1484 96.8317 53.2058 97.9915 53.0019C98.7038 52.8668 99.3499 52.6259 99.9483 52.2737C100.282 52.0619 100.608 51.8394 100.896 51.5614C101.693 50.82 102.906 50.5287 103.994 50.7803C104.693 50.9286 105.403 50.9868 106.142 50.91C107.442 50.7803 108.652 50.3037 109.64 49.5649C110.532 48.8923 111.226 48.0026 111.528 46.9355C109.42 46.5807 107.206 46.5595 105.061 46.8137C102.909 47.0838 100.774 47.6504 98.852 48.654C96.9191 49.6364 95.2218 51.0557 93.8951 52.7742C93.2967 53.5606 92.7804 54.4079 92.3302 55.2897C92.2481 55.1335 92.1555 54.9772 92.0548 54.8236C92.4759 54.0081 92.9578 53.2217 93.5086 52.4802C94.1864 51.5879 94.9623 50.7723 95.8096 50.0362C96.6675 49.3107 97.6075 48.6911 98.5978 48.1641C100.578 47.105 102.774 46.4986 104.985 46.1994C107.198 45.9161 109.425 45.9108 111.655 46.2603C111.742 45.1535 111.189 44.0413 110.14 43.2178L110.145 43.2205Z" fill="#78AE37"/>
<path d="M104.99 46.1981C102.779 46.4973 100.587 47.1037 98.6035 48.1629C97.6132 48.6898 96.6732 49.3094 95.8153 50.035C94.968 50.7711 94.1921 51.5866 93.5143 52.479C92.9635 53.2204 92.4842 54.0068 92.0605 54.8224C92.1612 54.9786 92.2538 55.1322 92.3359 55.2884C92.7861 54.4067 93.3024 53.5593 93.9008 52.7729C95.2275 51.0544 96.9248 49.6351 98.8577 48.6527C100.78 47.6465 102.914 47.0799 105.067 46.8124C107.212 46.5556 109.426 46.5794 111.533 46.9342C111.539 46.9342 111.547 46.9342 111.552 46.9369L111.684 46.267C111.684 46.267 111.666 46.267 111.658 46.2643C109.428 45.9148 107.201 45.9201 104.988 46.2034L104.99 46.1981Z" fill="#52843F"/>
<path d="M87.0701 54.5583C85.3172 53.2661 83.3895 52.2202 81.3506 51.4417C77.2622 49.9456 72.8535 49.2677 68.5215 49.3551C68.8551 51.6615 71.0582 53.4462 73.7379 53.846C74.1377 53.9095 74.5349 53.9334 74.9321 53.9175C75.3213 53.9175 75.7079 53.8857 76.0919 53.8089C77.2861 53.5759 78.5915 53.8566 79.5845 54.553C79.9658 54.7887 80.3391 55.0323 80.7575 55.207C81.5069 55.493 82.2483 55.6916 83.04 55.6942C84.3057 55.7128 85.5793 56.4012 86.2784 57.4736C86.3711 57.606 86.4743 57.7305 86.5856 57.847C86.6835 57.9767 86.7815 58.1065 86.8927 58.2283C87.2052 58.5699 87.5679 58.832 87.9731 59.0306C88.3517 59.2451 88.7251 59.4304 89.1461 59.5258C89.8504 59.6952 90.621 59.6873 91.2883 59.4119C91.3412 59.3907 91.3915 59.3642 91.4445 59.3404C90.245 57.5319 88.8177 55.8664 87.0728 54.5583H87.0701Z" fill="#78AE37"/>
<path d="M87.3676 54.1716C85.5856 52.8291 83.6208 51.7408 81.5475 50.9253C77.3823 49.3603 72.9497 48.6269 68.488 48.6719C68.48 48.6719 68.4747 48.6719 68.4668 48.6719L68.5012 49.3524C68.5012 49.3524 68.5171 49.3524 68.5251 49.3524C72.857 49.265 77.2658 49.9429 81.3542 51.4389C83.3931 52.2201 85.3234 53.266 87.0737 54.5555C88.8187 55.8636 90.2432 57.5291 91.4454 59.3377C91.4454 59.343 91.4507 59.3456 91.4533 59.3483L91.8135 59.1311C91.8135 59.1311 91.8082 59.1232 91.8055 59.1205C90.5954 57.2538 89.1444 55.53 87.3703 54.1689L87.3676 54.1716Z" fill="#52843F"/>
<path d="M85.6624 74.786L98.2665 73.9069L100.162 55.7793L81.2695 57.0953L85.6624 74.786Z" fill="#FFD833"/>
<path d="M88.1283 70.1136C86.9977 70.622 86.6031 71.2866 86.8282 71.7844C87.0533 72.2822 87.7603 72.4517 88.9413 71.9194L96.0721 68.7102L95.2592 66.9043L88.1283 70.1136Z" fill="#FF9EAB"/>
<path d="M87.7709 72.8355C86.6403 73.3439 86.2457 74.0086 86.4708 74.5064C86.6959 75.0042 87.4029 75.1736 88.5838 74.6414L94.2212 72.1047L93.4083 70.2988L87.7709 72.8355Z" fill="#FF9EAB"/>
<path d="M89.6967 74.5321C88.566 75.0405 88.1715 75.7052 88.3966 76.203C88.6216 76.7008 89.3286 76.8702 90.5096 76.338L95.1805 74.2356L94.3676 72.4297L89.6967 74.5321Z" fill="#FF9EAB"/>
<path d="M91.5229 76.2717C90.3922 76.7801 89.9977 77.4447 90.2227 77.9425C90.4478 78.4403 91.1548 78.6098 92.3358 78.0776L97.8752 75.5832L97.0623 73.7773L91.5229 76.2717Z" fill="#FF9EAB"/>
<path d="M94.9593 66.2816C93.1111 67.113 92.2875 69.2869 93.119 71.1352L94.9831 75.2765C95.3168 76.0153 96.1853 76.3463 96.924 76.0126L110.794 69.7715L106.822 60.9434L94.9593 66.2816Z" fill="#FF9EAB"/>
<path d="M100.053 64.7492C98.4827 64.1084 96.698 64.3441 94.9848 64.3494C92.9618 64.3547 89.3633 64.217 89.1621 65.2549C88.7119 67.5745 94.3917 66.3935 95.6547 68.4166C97.4765 71.3346 99.9973 70.9188 101.213 69.3513C102.971 67.0846 100.964 65.1199 100.053 64.7492Z" fill="#FF9EAB"/>
<path d="M131.71 27.5991C131.405 26.9133 131.074 26.1746 130.741 25.5046C130.37 24.8585 129.962 24.1569 129.568 23.5293L115.656 33.1518C116.347 34.0203 116.786 35.1748 116.895 36.3717C117.085 38.9613 116.416 41.2121 115.375 43.7408C111.715 51.9308 104.548 59.247 96.625 63.3645L102.368 75.9871C107.087 73.9641 111.305 71.2315 115.221 68.0248C123.427 61.1376 130.489 52.3095 132.785 41.5298C133.593 37.5632 133.521 33.3531 132.351 29.4633C132.16 28.8543 131.916 28.2108 131.705 27.6018L131.71 27.5991Z" fill="#F8FFC4"/>
<path d="M107.846 55.586C107.793 55.586 107.743 55.5596 107.711 55.5119C107.663 55.4378 107.685 55.3398 107.759 55.2921C107.859 55.2286 117.723 48.7412 119.216 34.4054C119.224 34.318 119.306 34.2544 119.391 34.2624C119.478 34.2703 119.542 34.3498 119.534 34.4372C118.745 42.0075 115.636 47.3457 113.166 50.4888C110.486 53.8993 107.957 55.541 107.931 55.5569C107.904 55.5728 107.875 55.5834 107.846 55.5834V55.586Z" fill="#71A9AB"/>
</svg>
