<svg width="208" height="148" viewBox="0 0 208 148" fill="none" xmlns="http://www.w3.org/2000/svg">
<path d="M161.961 117.728L162.949 132.853L171.729 132.741L170.879 117.613L161.961 117.728Z" fill="#FF3F31"/>
<path d="M162.504 132.031C161.92 132.578 158.124 132.956 156.607 134.041C155.055 134.931 154.972 136.66 154.995 138.447H171.978L171.892 131.725C171.892 131.725 163.103 131.473 162.504 132.031Z" fill="#FFBE00"/>
<path d="M178.375 117.13L180.889 132.077L189.612 131.075L187.236 116.113L178.375 117.13Z" fill="#FF3F31"/>
<path d="M180.365 131.305C179.838 131.906 176.102 132.667 174.699 133.901C173.245 134.944 173.339 136.673 173.543 138.448L190.437 136.73L189.672 130.051C189.672 130.051 180.903 130.689 180.365 131.305Z" fill="#FFBE00"/>
<path d="M163.547 87.416L161.079 105.953L161.022 106.374C160.996 106.578 160.984 106.787 160.993 106.998L161.643 128.968H173.089L173.716 107.717L173.65 108.043L173.736 106.998L173.716 107.72L177.32 89.7092L163.547 87.416Z" fill="#0071EB"/>
<path d="M173.65 108.046L173.716 107.72L173.736 106.998L173.65 108.046Z" fill="#0071EB"/>
<path d="M187.439 110.626L187.508 110.042L187.373 109.025L187.439 110.626Z" fill="#0071EB"/>
<path d="M187.438 110.625L187.372 109.025L187.506 110.041L189.59 92.6031L175.68 91.4121L174.738 109.537L174.712 109.992C174.695 110.368 174.723 110.751 174.801 111.138L178.54 129.472L189.828 127.577L187.503 110.041L187.435 110.625H187.438Z" fill="#0071EB"/>
<path d="M179.173 64.7113C177.146 64.3792 172.001 63.7951 168.225 66.7983C162.777 71.1328 163.266 73.1741 162.31 79.4009L160.744 93.601C160.744 93.601 161.961 96.1204 176.467 97.5289C184.552 98.3134 192.325 97.4202 193.545 95.5306L192.577 75.1037C187.902 66.9329 188.105 66.8842 179.173 64.7113Z" fill="#00AB41"/>
<path d="M193.73 101.916L191.932 102.217L192.447 107.971C192.53 108.884 192.974 109.282 193.469 109.199C193.964 109.116 194.331 108.624 194.245 107.673L193.73 101.919V101.916Z" fill="#FF9EAB"/>
<path d="M195.622 103.15L193.879 103.717L195.279 108.023C195.559 108.888 196.092 109.2 196.576 109.042C197.057 108.885 197.317 108.358 197.025 107.456L195.625 103.15H195.622Z" fill="#FF9EAB"/>
<path d="M197.416 102.58L195.721 103.273L197.278 106.694C197.656 107.521 198.226 107.791 198.695 107.599C199.162 107.407 199.368 106.866 198.973 106.001L197.416 102.58Z" fill="#FF9EAB"/>
<path d="M198.307 100.803L196.664 101.596L198.886 105.489C199.338 106.285 199.936 106.511 200.392 106.294C200.847 106.076 201.001 105.527 200.529 104.699L198.31 100.806L198.307 100.803Z" fill="#FF9EAB"/>
<path d="M195.407 90.9375L188.307 93.245L191.619 103.44C192.103 104.926 193.7 105.742 195.186 105.258L198.519 104.176C199.114 103.981 199.438 103.343 199.246 102.75L195.41 90.9375H195.407Z" fill="#FF9EAB"/>
<path d="M190.895 100.589C190.389 101.525 190.415 102.653 190.3 103.723C190.165 104.986 189.836 107.222 190.469 107.417C191.886 107.855 191.537 104.23 192.882 103.58C194.829 102.641 194.74 101.041 193.844 100.176C192.55 98.9252 191.188 100.042 190.895 100.586V100.589Z" fill="#FF9EAB"/>
<path d="M193.856 77.5779C192.15 74.2569 189.654 71.6059 187.22 68.9434L178.23 77.6724C180.126 79.5247 182.405 81.4228 183.684 83.6817C184.792 85.5626 185.591 87.7127 186.31 89.8398C187.317 92.8201 188.136 95.8863 188.955 98.9382L189.914 102.697L199.966 100.576C199.144 95.9951 198.28 91.1625 197.114 86.6563C196.333 83.5872 195.336 80.458 193.859 77.5751L193.856 77.5779Z" fill="#00AB41"/>
<path d="M160.584 60.2126C160.089 60.1181 159.576 60.4559 159.33 61.3778L157.83 66.9576L159.622 67.2954L161.122 61.7156C161.36 60.8309 161.079 60.3042 160.587 60.2097L160.584 60.2126Z" fill="#FF9EAB"/>
<path d="M157.618 59.2841C157.111 59.2641 156.685 59.6706 156.65 60.6182L156.479 65.1417L158.311 65.2104L158.483 60.6869C158.517 59.7794 158.125 59.3013 157.618 59.2812V59.2841Z" fill="#FF9EAB"/>
<path d="M155.128 59.9048C154.624 59.922 154.244 60.36 154.315 61.3076L154.596 65.058L156.425 64.9922L156.145 61.2418C156.076 60.3342 155.632 59.8876 155.128 59.9048Z" fill="#FF9EAB"/>
<path d="M153.084 60.5496C152.583 60.5983 152.245 61.0592 152.405 61.9983L153.147 66.4186L154.962 66.2411L154.221 61.8208C154.069 60.9189 153.585 60.4981 153.084 60.5468V60.5496Z" fill="#FF9EAB"/>
<path d="M157.612 63.315L154.111 63.1805C153.487 63.1576 152.96 63.6443 152.937 64.2684L152.465 76.6791L159.926 76.9626L160.332 66.2495C160.392 64.6864 159.173 63.3723 157.61 63.3122L157.612 63.315Z" fill="#FF9EAB"/>
<path d="M159.195 65.6835C157.045 65.8924 156.576 67.427 157.12 68.5464C157.904 70.1668 159.567 69.5885 160.031 69.1791C160.83 68.4748 161.194 67.4069 161.672 66.4421C162.233 65.3027 163.315 63.3187 162.788 62.915C161.609 62.0132 160.687 65.5374 159.198 65.6835H159.195Z" fill="#FF9EAB"/>
<path d="M167.455 67.3809L167.407 67.4295L167.298 67.5383C166.104 68.7007 164.744 69.8573 163.413 70.8078C162.751 71.2802 162.096 71.701 161.437 72.0531C161.452 72.2335 161.469 72.4167 161.489 72.5971C161.535 72.8805 161.592 73.2384 161.681 73.5161C161.827 73.7108 161.858 73.8396 161.838 73.8396C161.775 73.768 161.724 73.6507 161.681 73.5161C161.649 73.4732 161.612 73.4273 161.569 73.3758C161.337 73.1038 160.902 72.8433 160.604 72.7488C160.306 72.6429 160.175 72.6429 160.203 72.6171C160.619 72.4597 161.031 72.2707 161.437 72.0531C161.354 70.991 161.392 69.9231 161.475 68.778L151.285 67.4725C150.739 71.0168 150.366 74.6928 151.815 78.3144C153.384 82.1879 157.235 84.3179 161.226 83.9744C166.482 83.5907 172.062 79.7859 175.984 76.5594C175.961 76.588 167.458 67.2291 167.458 67.3837L167.455 67.3809Z" fill="#00AB41"/>
<path d="M160.602 72.7484C160.9 72.8429 161.335 73.1034 161.567 73.3754C161.613 73.4241 161.647 73.4699 161.678 73.5157C161.59 73.2408 161.532 72.8801 161.487 72.5967C161.464 72.4163 161.449 72.2331 161.435 72.0527C161.026 72.2703 160.616 72.4593 160.201 72.6167C160.172 72.6454 160.304 72.6425 160.602 72.7484Z" fill="#00AB41"/>
<path d="M181.924 53.0004C178.286 52.1644 173.708 52.5051 172.637 59.5622C172.022 63.6104 172.631 66.2185 176.25 66.7682C179.869 67.3179 186.044 65.6459 186.66 61.5978C187.275 57.5496 185.489 53.8221 181.922 53.0004H181.924Z" fill="#FF9EAB"/>
<path d="M184.352 52.8482C182.148 51.4254 179.354 51.4597 177.003 52.2155C174.126 53.1402 172.792 56.3324 173.468 56.5185C175.056 56.9594 176.728 56.8477 178.272 57.678C179.809 58.471 180.671 59.3585 181.644 60.4522C182.325 61.2051 183.161 61.7204 183.442 62.7196C183.7 63.5756 183.671 64.5776 183.823 65.2819C183.96 66.2782 185.011 66.2868 185.701 65.823C187.072 65.0672 188.177 62.5822 188.3 60.5695L188.306 60.4922C188.592 57.4318 186.923 54.5116 184.355 52.8482H184.352Z" fill="#FF3F31"/>
<path d="M185.289 61.3113C184.229 60.9964 182.97 61.5862 182.477 62.6283C181.985 63.6732 182.443 64.7726 183.502 65.0904C184.561 65.4053 185.821 64.8156 186.314 63.7734C186.806 62.7285 186.348 61.6291 185.289 61.3113Z" fill="#FF9EAB"/>
<path d="M174.177 59.5278C173.882 59.419 173.553 59.5678 173.444 59.8627C173.335 60.1576 173.484 60.4868 173.779 60.5956C174.074 60.7044 174.403 60.5556 174.512 60.2607C174.62 59.9658 174.472 59.6366 174.177 59.5278Z" fill="#360530"/>
<path d="M175.814 62.1853C175.788 62.1853 175.76 62.1795 175.737 62.1623C175.708 62.1452 175.456 61.9848 175.422 61.7014C175.399 61.5153 175.476 61.335 175.648 61.1603C175.705 61.1002 175.803 61.1002 175.86 61.1603C175.92 61.2176 175.92 61.3149 175.86 61.3722C175.757 61.4781 175.708 61.5754 175.717 61.6642C175.731 61.7816 175.846 61.8789 175.891 61.9047C175.963 61.9476 175.983 62.0421 175.94 62.1108C175.911 62.1566 175.863 62.1824 175.811 62.1824L175.814 62.1853Z" fill="#360530"/>
<path d="M175.749 64.2539C175.614 64.2539 175.468 64.2253 175.316 64.168C174.993 64.0478 174.781 63.8588 174.681 63.6011C174.521 63.1889 174.732 62.768 174.744 62.7508C174.778 62.6821 174.858 62.6535 174.93 62.6793L176.565 63.2891C176.636 63.3148 176.676 63.3893 176.659 63.4637C176.653 63.4838 176.545 63.9447 176.155 64.1537C176.032 64.2195 175.898 64.2539 175.752 64.2539H175.749ZM174.961 63.0142C174.924 63.1345 174.893 63.3206 174.961 63.4952C175.027 63.667 175.182 63.7958 175.419 63.8846C175.651 63.9705 175.852 63.9733 176.009 63.8874C176.172 63.7987 176.27 63.6326 176.318 63.5181L174.961 63.0114V63.0142Z" fill="#360530"/>
<path d="M179.007 61.5004C178.712 61.3916 178.383 61.5405 178.274 61.8354C178.165 62.1303 178.314 62.4595 178.609 62.5683C178.904 62.6771 179.233 62.5282 179.342 62.2333C179.451 61.9385 179.302 61.6092 179.007 61.5004Z" fill="#360530"/>
<path d="M47.0879 131.72L55.8713 131.729L56.6815 116.595L47.7635 116.584L47.0879 131.72Z" fill="#FFFF80"/>
<path d="M62.2238 132.843C60.6921 131.775 56.893 131.44 56.3033 130.902C55.6963 130.349 46.9129 130.704 46.9129 130.704L46.9043 137.426L63.8843 137.229C63.8843 135.439 63.7841 133.71 62.2209 132.84L62.2238 132.843Z" fill="#0071EB"/>
<path d="M26.418 125.935L34.2452 129.917L41.8148 116.785L33.8644 112.742L26.418 125.935Z" fill="#FFFF80"/>
<path d="M35.0042 129.374C34.7122 128.607 26.7189 124.951 26.7189 124.951L23.6699 130.943L38.9035 138.45C39.7137 136.855 40.4066 135.269 39.4074 133.783C38.5256 132.137 35.2877 130.122 35.0042 129.374Z" fill="#0071EB"/>
<path d="M46.4713 111.221L46.457 112.183L46.5687 112.704L46.4713 111.221Z" fill="#FF3F31"/>
<path d="M59.1035 110.391L55.7052 88.627L41.9746 91.1606L46.4579 112.18L46.4723 111.218L46.5696 112.704L46.4579 112.183L46.2203 128.679L57.652 129.269L59.198 111.877C59.2266 111.527 59.218 111.147 59.1607 110.783L59.1006 110.391H59.1035Z" fill="#FF3F31"/>
<path d="M32.4264 109.943L31.6992 111.701L31.8309 113.075L32.4264 109.943Z" fill="#FF3F31"/>
<path d="M43.9009 92.7754L29.967 93.6743L31.6963 111.705L32.4263 109.947L31.8279 113.079L31.6963 111.705L27.2559 122.407L37.6053 127.297L43.9496 115.392C44.3618 114.611 44.5937 113.695 44.5622 112.75L44.545 112.26L43.898 92.7783L43.9009 92.7754Z" fill="#FF3F31"/>
<path d="M49.095 62.8115L37.9554 62.1387C29.0231 64.3116 26.5667 72.1618 26.2059 73.4816L25.2383 93.9085C26.4579 95.798 34.2307 96.6941 42.3156 95.9068C56.822 94.4983 58.0416 91.9789 58.0416 91.9789L56.4756 77.7788C56.0977 75.2451 55.9746 64.5807 49.0979 62.8143L49.095 62.8115Z" fill="#FFBE00"/>
<path d="M5.50587 45.7427C5.07643 46.0061 4.92756 46.6016 5.36559 47.449L8.01952 52.5822L9.57122 51.6232L6.91729 46.4899C6.49644 45.6769 5.93531 45.4765 5.50587 45.7398V45.7427Z" fill="#FF9EAB"/>
<path d="M2.69186 47.0562C2.30536 47.3826 2.26528 47.9724 2.87795 48.6938L5.80099 52.1494L7.20096 50.9641L4.27792 47.5086C3.69102 46.8158 3.07835 46.727 2.69186 47.0534V47.0562Z" fill="#FF9EAB"/>
<path d="M1.27186 49.1944C0.911131 49.5494 0.928309 50.1277 1.61827 50.7775L4.35523 53.357L5.66072 52.0745L2.92377 49.495C2.26243 48.8708 1.63259 48.8394 1.27186 49.1944Z" fill="#FF9EAB"/>
<path d="M0.195878 51.0506C-0.141947 51.4256 -0.0789627 51.9896 0.671123 52.5794L4.19824 55.345L5.42071 53.9908L1.89359 51.2252C1.175 50.6612 0.533703 50.6756 0.195878 51.0506Z" fill="#FF9EAB"/>
<path d="M5.40602 50.0401L2.73205 52.3018C2.25394 52.7054 2.19382 53.4212 2.59749 53.8964L10.6165 63.3813L16.3195 58.5601L9.39693 50.3722C8.38632 49.1783 6.59985 49.0295 5.40602 50.0372V50.0401Z" fill="#FF9EAB"/>
<path d="M8.95558 46.2539C7.47831 46.3827 9.17316 49.6064 8.17114 50.7172C6.72536 52.3204 7.41246 53.7691 8.56908 54.2329C10.241 54.9028 11.0799 53.3511 11.1457 52.7384C11.2602 51.6791 10.8108 50.6456 10.5101 49.6121C10.158 48.3925 9.61691 46.1966 8.95558 46.2568V46.2539Z" fill="#FF9EAB"/>
<path d="M22.1527 60.4593C18.2018 58.2691 14.8007 55.0913 11.9549 51.5098L3.61523 57.5076C10.4089 67.7082 21.4598 75.6671 34.1082 76.0937L34.1225 63.5627C30.0515 63.7201 25.8029 62.5034 22.1527 60.4593Z" fill="#FFBE00"/>
<path d="M68.5078 46.319L65.1009 45.5088C63.5807 45.148 62.0519 46.0871 61.6911 47.6073L59.209 58.0369L66.4722 59.7661L69.3495 47.6846C69.4955 47.0776 69.1176 46.465 68.5106 46.3218L68.5078 46.319Z" fill="#FF9EAB"/>
<path d="M63.0711 41.7178C62.57 41.6748 62.1578 42.1071 62.1492 43.0232L62.0977 48.8006L63.9156 48.9552L63.9671 43.1778C63.9757 42.2216 63.5721 41.7607 63.0711 41.7178Z" fill="#FF9EAB"/>
<path d="M66.1759 41.6233C65.6835 41.5059 65.1767 41.861 64.9677 42.7456L63.9199 47.1488L65.7035 47.5725L66.7514 43.1693C66.9718 42.2474 66.6683 41.7407 66.1759 41.6233Z" fill="#FF9EAB"/>
<path d="M68.4097 42.8896C67.9287 42.735 67.379 43.0471 67.0698 43.9031L65.793 47.4388L67.5365 47.9942L68.8134 44.4585C69.1369 43.5653 68.8907 43.0414 68.4068 42.8896H68.4097Z" fill="#FF9EAB"/>
<path d="M70.2054 44.0607C69.7358 43.8803 69.1575 44.1552 68.7682 44.9825L66.8672 49.0422L68.5706 49.7006L70.4716 45.641C70.8753 44.7764 70.6749 44.2439 70.2054 44.0607Z" fill="#FF9EAB"/>
<path d="M62.9385 47.3642C61.5443 46.826 61.6016 43.1844 60.2245 43.7341C59.609 43.9803 60.1186 46.1819 60.3533 47.4301C60.5537 48.4865 60.6167 49.6145 61.1979 50.5077C61.5357 51.0259 62.9815 52.0308 64.1725 50.6795C64.997 49.7433 64.954 48.143 62.9414 47.3642H62.9385Z" fill="#FF9EAB"/>
<path d="M56.6965 59.1873C54.5293 61.4891 51.1081 62.5913 47.9531 63.0952L50.5383 75.3543C53.2495 74.67 55.9092 73.731 58.4114 72.3568C62.4166 70.2124 65.9151 66.7397 67.8762 62.6028C69.7543 58.8152 70.4242 54.2889 70.4099 50.3123L60.1435 49.9258C59.84 53.4071 58.9868 56.7939 56.6936 59.1845L56.6965 59.1873Z" fill="#FFBE00"/>
<path d="M37.2914 49.9692C33.7242 50.788 31.9377 54.5155 32.5532 58.5665C33.1688 62.6147 39.3441 64.2866 42.9628 63.737C46.5816 63.1873 47.1914 60.582 46.5758 56.531C45.5051 49.4739 40.9301 49.1332 37.2885 49.9692H37.2914Z" fill="#FF9EAB"/>
<path d="M28.3274 51.4208C27.815 52.085 27.7033 52.9152 27.6117 53.6367C27.4542 54.8677 26.8043 55.8554 25.6391 56.2247C25.4903 56.2706 25.4702 56.4738 25.6105 56.5454C27.1536 57.3441 29.0746 57.0264 30.655 56.5597C31.8001 56.219 33.2316 55.5405 34.0361 54.109C35.9084 50.7795 30.9613 48.0139 28.3274 51.4236V51.4208Z" fill="#0071EB"/>
<path d="M42.2127 49.1882C39.8594 48.4324 37.0651 48.398 34.8636 49.8209C32.2955 51.4871 30.6264 54.4044 30.9127 57.4649L30.9184 57.5422C31.0416 59.5548 32.1466 62.0398 33.518 62.7957C34.2079 63.2594 35.2558 63.248 35.3961 62.2546C35.5507 61.5503 35.522 60.5511 35.7768 59.6922C36.0574 58.6931 36.8934 58.1778 37.5747 57.4248C38.5481 56.3312 39.4099 55.4437 40.9473 54.6506C42.4904 53.8204 44.1595 53.932 45.7513 53.4912C46.4269 53.3022 45.0928 50.11 42.2155 49.1882H42.2127Z" fill="#0071EB"/>
<path d="M33.9272 58.2833C32.8679 58.5982 32.407 59.7005 32.9022 60.7454C33.3975 61.7904 34.6544 62.3802 35.7136 62.0624C36.7729 61.7475 37.2339 60.6452 36.7386 59.6003C36.2461 58.5553 34.9865 57.9655 33.9272 58.2833Z" fill="#FF9EAB"/>
<path d="M45.0346 56.5004C44.7397 56.6092 44.5909 56.9385 44.6996 57.2333C44.8084 57.5282 45.1377 57.6771 45.4326 57.5683C45.7274 57.4595 45.8763 57.1303 45.7675 56.8354C45.6587 56.5405 45.3295 56.3916 45.0346 56.5004Z" fill="#360530"/>
<path d="M43.4005 59.1549C43.3489 59.1549 43.3003 59.1291 43.2716 59.0833C43.2287 59.0117 43.2516 58.9201 43.3232 58.8771C43.3661 58.8514 43.4835 58.754 43.4978 58.6367C43.5093 58.5479 43.4606 58.4506 43.3547 58.3446C43.2974 58.2845 43.2974 58.19 43.3547 58.1328C43.4148 58.0755 43.5093 58.0755 43.5665 58.1328C43.7383 58.3074 43.8156 58.4878 43.7927 58.6739C43.7583 58.9573 43.5064 59.1176 43.4778 59.1348C43.452 59.1491 43.4262 59.1577 43.4005 59.1577V59.1549Z" fill="#360530"/>
<path d="M43.4662 61.2265C43.3202 61.2265 43.1856 61.1922 43.0625 61.1263C42.6732 60.9173 42.5644 60.4564 42.5586 60.4364C42.5415 60.3619 42.5815 60.2875 42.6531 60.2617L44.2879 59.6519C44.3594 59.6262 44.4396 59.6548 44.4739 59.7235C44.4825 59.7407 44.6944 60.1615 44.5341 60.5738C44.4367 60.8286 44.222 61.0204 43.8985 61.1407C43.7468 61.1979 43.6008 61.2265 43.4662 61.2265ZM42.8936 60.4936C42.9423 60.6081 43.0396 60.7771 43.2057 60.8658C43.3631 60.9488 43.5607 60.9488 43.7926 60.8629C44.0302 60.7742 44.1848 60.6425 44.2506 60.4736C44.3193 60.299 44.285 60.11 44.2506 59.9926L42.8936 60.4994V60.4936Z" fill="#360530"/>
<path d="M40.2084 58.4692C39.9136 58.578 39.7647 58.9072 39.8735 59.2021C39.9823 59.497 40.3115 59.6458 40.6064 59.537C40.9013 59.4283 41.0501 59.099 40.9413 58.8041C40.8325 58.5093 40.5033 58.3604 40.2084 58.4692Z" fill="#360530"/>
<path d="M114.473 135.502C120.39 129.585 120.39 119.993 114.473 114.076C108.557 108.159 98.9637 108.159 93.0471 114.076C87.1304 119.993 87.1304 129.585 93.0471 135.502C98.9637 141.419 108.557 141.419 114.473 135.502Z" fill="#0071EB"/>
<mask id="mask0_47_7758" style="mask-type:luminance" maskUnits="userSpaceOnUse" x="88" y="109" width="31" height="31">
<path d="M114.473 135.502C120.39 129.585 120.39 119.993 114.473 114.076C108.557 108.159 98.9637 108.159 93.0471 114.076C87.1304 119.993 87.1304 129.585 93.0471 135.502C98.9637 141.419 108.557 141.419 114.473 135.502Z" fill="white"/>
</mask>
<g mask="url(#mask0_47_7758)">
<path d="M92.2637 109.223L121.52 117.11" stroke="#FFBE00" stroke-width="1.02493" stroke-miterlimit="10"/>
<path d="M91.0215 113.83L120.278 121.717" stroke="#FFBE00" stroke-width="1.02493" stroke-miterlimit="10"/>
<path d="M89.7793 118.436L119.036 126.323" stroke="#FFBE00" stroke-width="1.02493" stroke-miterlimit="10"/>
<path d="M88.5371 123.041L117.793 130.928" stroke="#FFBE00" stroke-width="1.02493" stroke-miterlimit="10"/>
<path d="M87.2969 127.648L116.553 135.536" stroke="#FFBE00" stroke-width="1.02493" stroke-miterlimit="10"/>
<path d="M86.0547 132.254L115.311 140.141" stroke="#FFBE00" stroke-width="1.02493" stroke-miterlimit="10"/>
</g>
</svg>
