<svg width="208" height="148" viewBox="0 0 208 148" fill="none" xmlns="http://www.w3.org/2000/svg">
<g clip-path="url(#clip0_47_13146)">
<path d="M44.9512 121.203L46.7853 138.886L57.0116 139.02L55.3388 121.336L44.9512 121.203Z" fill="#FF9EAB"/>
<path d="M68.4862 140.798C63.8163 139.497 60.2069 137.819 57.4915 134.494C57.4915 134.494 56.3874 135.101 56.144 135.578C55.7495 136.349 55.5779 136.938 54.1177 137.163C53.1366 137.315 46.5992 137.22 46.5992 137.22L46.4941 145.535L71.3707 145.85C71.3963 143.767 70.2922 141.833 68.4862 140.798Z" fill="#0071EB"/>
<path d="M70.0992 144.027L47.769 143.742C47.6819 143.742 47.6127 143.67 47.6153 143.583C47.6153 143.496 47.6819 143.43 47.7741 143.43L70.1044 143.714C70.1915 143.714 70.2606 143.786 70.2581 143.873C70.2581 143.957 70.1863 144.027 70.1018 144.027H70.0992Z" fill="white"/>
<path d="M13.1152 138.651C16.5146 139.453 19.9114 140.273 23.321 141.039C24.7017 135.341 25.9519 129.614 27.266 123.898C23.8897 123.112 20.5108 122.326 17.1345 121.539C15.805 127.244 14.4627 132.946 13.1178 138.649L13.1152 138.651Z" fill="#FF9EAB"/>
<path d="M33.9261 141.833C28.7925 140.273 26.9199 137.445 25.0831 134.932C25.0601 134.937 23.5589 134.857 22.8801 135.347C21.7837 136.141 22.6828 136.866 20.5028 136.661C19.0376 136.522 15.423 135.68 13.6298 135.216L11.6445 143.27C23.0517 146.375 24.3838 147.087 36.8285 146.016C36.7337 144.438 36.0907 142.145 33.9261 141.833Z" fill="#0071EB"/>
<path d="M30.5942 144.845C22.4096 144.845 15.0986 142.637 12.7649 141.853C12.7213 141.838 12.6957 141.83 12.6829 141.825C12.6163 141.81 12.5651 141.748 12.5625 141.676C12.5625 141.589 12.6291 141.52 12.7162 141.518C12.7469 141.518 12.7444 141.518 12.8648 141.556C14.8296 142.217 25.1429 145.447 35.2898 144.269C35.3769 144.259 35.4537 144.32 35.464 144.407C35.4742 144.492 35.4128 144.571 35.3257 144.581C33.7374 144.766 32.1492 144.845 30.5942 144.845Z" fill="white"/>
<path d="M52.6554 60.7581L24.1208 60.1895C23.1704 65.9789 22.699 70.5515 19.5891 95.3307L11.7734 120.919C36.8652 130.367 61.6469 123.263 61.6469 123.263C61.6469 123.263 58.3987 100.098 57.1409 88.742C55.9088 77.6089 52.7323 60.8376 52.6554 60.7581Z" fill="#FFFFE9"/>
<path d="M79.438 70.5938L73.2362 66.3184L72.127 67.9271L78.3288 72.2025C79.356 72.9096 80.0605 72.866 80.3679 72.4229C80.6753 71.9797 80.4217 71.2727 79.438 70.5964V70.5938Z" fill="#FF9EAB"/>
<path d="M74.0239 69.8301L72.6406 71.2108L76.8469 75.4274C77.7281 76.3112 78.43 76.3957 78.8117 76.014C79.1934 75.6323 79.073 74.8945 78.2302 74.0466L74.0239 69.8301Z" fill="#FF9EAB"/>
<path d="M72.3533 71.6406L70.8496 72.8882L74.0005 76.6871C74.7972 77.6478 75.4888 77.7964 75.9038 77.4505C76.3188 77.1073 76.2676 76.3593 75.5042 75.4396L72.3533 71.6406Z" fill="#FF9EAB"/>
<path d="M69.624 71.541L68.0332 72.6733L71.4249 77.4431C72.1473 78.4601 72.8261 78.6599 73.2667 78.3474C73.7073 78.0349 73.7099 77.2843 73.0182 76.3109L69.6266 71.541H69.624Z" fill="#FF9EAB"/>
<path d="M65.5116 57.0676L58.7539 63.8074L68.7829 73.8595C69.3414 74.4179 70.2482 74.4205 70.8066 73.8595L74.019 70.6548C75.4177 69.2587 75.4202 66.9942 74.0241 65.5955L65.5116 57.0625V57.0676Z" fill="#FF9EAB"/>
<path d="M74.7243 63.8543C73.1693 63.2728 71.6374 62.4581 69.9852 62.5145C69.0271 62.5478 66.5038 63.6698 67.2903 66.334C67.8333 68.1784 69.9698 69.4054 72.6647 67.3484C74.5322 65.9241 79.261 68.9136 79.6837 66.6388C79.8707 65.6218 76.5584 64.5357 74.7268 63.8517L74.7243 63.8543Z" fill="#FF9EAB"/>
<path d="M69.9646 68.5767C69.7084 68.5767 69.483 68.546 69.2858 68.4999C68.4532 68.3052 67.7487 67.7288 67.3466 66.9219C67.3081 66.845 67.3389 66.7502 67.4183 66.7118C67.4951 66.6734 67.5899 66.7041 67.6283 66.7835C67.9921 67.5187 68.6069 68.0208 69.3575 68.1976C70.3284 68.4256 71.4376 68.09 72.5673 67.2293C73.0463 66.8629 73.7175 66.7349 74.6807 66.8194C74.7678 66.8271 74.8292 66.9039 74.8216 66.9885C74.8139 67.0756 74.7396 67.1396 74.6525 67.1293C73.7713 67.0525 73.1693 67.1627 72.7568 67.4777C71.6348 68.3359 70.6844 68.5793 69.9646 68.5793V68.5767Z" fill="#360530"/>
<path d="M69.6441 72.863C69.5827 72.863 69.5263 72.8272 69.5007 72.7683C69.4674 72.6888 69.5033 72.5966 69.5827 72.5633C72.5491 71.2902 74.4089 68.7003 74.4268 68.6747C74.478 68.6055 74.5754 68.5876 74.6446 68.6388C74.7137 68.6875 74.7317 68.7874 74.683 68.8566C74.6651 68.8822 72.7566 71.5412 69.7082 72.8502C69.6877 72.8579 69.6672 72.863 69.6467 72.863H69.6441Z" fill="#360530"/>
<path d="M51.1531 32.5218C50.7996 31.6278 50.4205 30.6339 50.3744 29.7168L33.9258 31.656C34.62 36.4566 37.133 40.9575 39.6793 44.8538C46.3372 54.6523 54.1913 62.883 62.9215 70.755L72.1948 60.8387C67.3814 55.9536 62.755 50.4895 58.6691 44.9614C55.7667 40.9498 52.9924 36.887 51.1506 32.5218H51.1531Z" fill="#FFBE00"/>
<path d="M43.1326 5.60349C38.9699 3.36969 35.9599 3.91277 31.7818 6.91507C29.7273 8.3906 28.6591 9.38454 22.2011 8.7851C16.8651 8.2907 16.8011 12.6994 14.9029 13.7317C9.21847 16.8262 13.1532 23.046 15.3563 23.648C23.1873 25.7845 21.9347 18.5503 28.4875 21.5807C32.4274 23.4021 36.0547 19.7056 36.3493 15.6171C36.6413 11.5594 46.8753 7.60929 43.1326 5.60092V5.60349Z" fill="#FF3F31"/>
<path d="M33.0404 16.5332L31.8926 27.9727L40.7984 28.8663L41.9462 17.4269L33.0404 16.5332Z" fill="#FF9EAB"/>
<path d="M38.5911 6.06897C34.787 5.97419 32.0255 9.26595 31.6003 13.503C31.175 17.74 36.9645 21.0164 40.7506 21.3981C44.5368 21.7772 44.8852 19.1182 45.3104 14.8786C46.0533 7.49327 42.4721 6.16375 38.5886 6.06641L38.5911 6.06897Z" fill="#FF9EAB"/>
<path d="M40.7515 21.5554C40.7515 21.5554 40.7413 21.5554 40.7361 21.5554C39.2657 21.4068 37.5417 20.8382 36.0047 19.9902C35.9278 19.9492 35.9022 19.8545 35.9432 19.7776C35.9842 19.7033 36.079 19.6751 36.1558 19.7161C37.657 20.5436 39.3375 21.102 40.7669 21.2455C40.854 21.2531 40.9155 21.33 40.9078 21.4171C40.9001 21.4965 40.8309 21.558 40.7515 21.558V21.5554Z" fill="#360530"/>
<path d="M34.4148 12.9769C34.4045 12.9614 34.3941 12.9459 34.3812 12.9355C34.3786 12.9511 34.3915 12.964 34.4148 12.9769Z" fill="#FF3F31"/>
<path d="M34.9911 5.51147C32.1758 7.22268 29.0096 10.6169 31.853 17.0621C32.0554 17.5207 32.5754 17.6949 33.0032 17.3285C33.5694 16.8469 34.7349 13.5014 34.4173 12.9762C34.3942 12.9634 34.3814 12.9506 34.384 12.9352C34.3968 12.9455 34.407 12.9609 34.4173 12.9762C34.9424 13.2529 42.315 12.3614 42.958 9.42061C43.1936 11.6518 44.2414 12.9993 45.2788 12.9096C46.7057 12.7892 46.7877 10.102 45.7604 8.18331C43.5036 3.96933 37.3504 4.07693 34.9911 5.51147Z" fill="#FF3F31"/>
<path d="M33.1626 11.7257C32.038 11.8486 31.2644 13.2217 31.4386 14.7894C31.6102 16.3572 32.663 17.5279 33.7876 17.4049C34.9122 17.282 35.6858 15.9089 35.5116 14.3411C35.34 12.7734 34.2872 11.6027 33.1626 11.7257Z" fill="#FF9EAB"/>
<path d="M33.9877 14.9616C33.9365 14.9616 33.8852 14.936 33.8571 14.8898C33.4369 14.2366 32.8862 14.0906 32.8811 14.0906C32.7965 14.0701 32.7478 13.9856 32.7683 13.901C32.7888 13.8165 32.8734 13.7653 32.9553 13.7858C32.9835 13.7934 33.6291 13.9574 34.1184 14.7208C34.1645 14.7925 34.144 14.8898 34.0722 14.936C34.0466 14.9539 34.0159 14.9616 33.9877 14.9616Z" fill="#360530"/>
<path d="M39.0863 13.655C38.761 13.6217 38.4664 13.906 38.428 14.2877C38.3895 14.6694 38.6227 15.0076 38.948 15.0383C39.2733 15.069 39.5679 14.7873 39.6063 14.4056C39.6448 14.0239 39.4117 13.6857 39.0863 13.655Z" fill="#360530"/>
<path d="M43.9223 14.1394C43.5969 14.1061 43.3023 14.3904 43.2639 14.7721C43.2255 15.1538 43.4586 15.4919 43.7839 15.5227C44.1093 15.556 44.4039 15.2716 44.4423 14.8899C44.4807 14.5083 44.2476 14.1701 43.9223 14.1394Z" fill="#360530"/>
<path d="M41.8659 16.3609C41.7865 16.3609 41.7173 16.2995 41.7096 16.2175C41.7019 16.1304 41.766 16.0561 41.8505 16.0484C41.9017 16.0433 42.0554 16.0074 42.122 15.9024C42.1733 15.8255 42.1733 15.7128 42.122 15.5668C42.0478 15.3439 41.8556 14.9725 41.8556 14.9674C41.8172 14.8905 41.8454 14.7957 41.9222 14.7573C41.9991 14.7189 42.0939 14.7471 42.1323 14.8239C42.14 14.8393 42.3347 15.2184 42.4166 15.4643C42.4986 15.7051 42.4858 15.9101 42.3808 16.0715C42.2194 16.3199 41.9094 16.3532 41.8761 16.3558C41.871 16.3558 41.8659 16.3558 41.8633 16.3558L41.8659 16.3609Z" fill="#360530"/>
<path d="M41.4309 18.6012C41.3796 18.6012 41.3258 18.5987 41.2695 18.5935C40.9185 18.5577 40.6572 18.4245 40.4959 18.1965C40.2294 17.8225 40.337 17.3409 40.3422 17.3204C40.3601 17.2435 40.4318 17.1923 40.5087 17.2L42.3121 17.3819C42.3915 17.3895 42.4504 17.4561 42.453 17.5356C42.453 17.5561 42.4581 18.0453 42.12 18.3579C41.9432 18.5218 41.7127 18.6038 41.4283 18.6038L41.4309 18.6012ZM41.3028 18.281C41.5641 18.3066 41.769 18.2554 41.9099 18.1273C42.0534 17.9967 42.1097 17.8045 42.1302 17.6765L40.6316 17.5253C40.6239 17.656 40.6368 17.8558 40.752 18.0146C40.8596 18.1657 41.0466 18.2554 41.3028 18.281Z" fill="#360530"/>
<path d="M43.0611 23.5912L32.7862 22.6895C23.413 22.6895 21.0076 28.3636 20.6822 32.7415L19.9727 62.5211C21.2561 64.2195 26.4409 65.275 34.8791 65.7642C51.1407 66.7044 56.1898 63.5535 56.1898 63.5535L53.6537 37.0349C53.2592 33.8277 50.2134 25.8275 43.0611 23.5886V23.5912Z" fill="#FFBE00"/>
<path d="M23.8518 73.7637L21.7461 74.6628L24.7177 81.6204C25.2095 82.7706 25.9012 83.0857 26.4827 82.8372C27.0642 82.5887 27.2947 81.8253 26.8234 80.7212L23.8518 73.7637Z" fill="#FF9EAB"/>
<path d="M22.553 76.5488L20.4473 77.448L22.7963 82.9479C23.2882 84.0981 23.9798 84.4132 24.5613 84.1647C25.1428 83.9162 25.3734 83.1529 24.902 82.0488L22.553 76.5488Z" fill="#FF9EAB"/>
<path d="M20.6995 78.0352L18.5938 78.9343L20.5406 83.4915C21.0325 84.6417 21.7241 84.9568 22.3056 84.7083C22.8871 84.4599 23.1177 83.6965 22.6463 82.5924L20.6995 78.0352Z" fill="#FF9EAB"/>
<path d="M18.0276 77.6074L15.9219 78.5066L18.23 83.9117C18.7218 85.0619 19.4135 85.377 19.995 85.1285C20.5765 84.8801 20.807 84.1167 20.3357 83.0126L18.0276 77.6074Z" fill="#FF9EAB"/>
<path d="M20.9629 66.1816L12.248 69.9038L17.771 82.8352C18.0836 83.5653 18.9264 83.9034 19.6564 83.5934L23.7449 81.8464C25.5714 81.0676 26.4167 78.9542 25.638 77.1303L20.9603 66.1816H20.9629Z" fill="#FF9EAB"/>
<path d="M22.1529 71.6761C20.9745 71.4532 18.2387 71.4122 18.3283 74.2531C18.3898 76.2205 19.581 76.7149 22.9061 76.4613C25.0015 76.3025 23.526 80.0169 25.6548 79.6019C26.6103 79.4149 27.6452 77.468 26.7845 75.5186C25.7342 73.1362 24.1843 72.0603 22.1529 71.6735V71.6761Z" fill="#FF9EAB"/>
<path d="M24.6752 75.2938C24.6419 75.2144 24.5497 75.176 24.4703 75.2093C24.3909 75.2426 24.355 75.3348 24.3909 75.4168L25.8305 78.7854C25.8638 78.8648 25.9561 78.9032 26.0355 78.8699C26.1149 78.8366 26.1508 78.7444 26.1149 78.6624L24.6752 75.2938Z" fill="#360530"/>
<path d="M28.6978 23.5195C27.2428 23.6988 25.9337 24.119 24.8271 24.6262C19.7268 26.9215 16.371 32.2805 14.3523 36.9325C9.92319 47.4406 8.34519 60.3566 10.8531 71.523C11.4243 73.9412 12.2364 76.4004 13.4737 78.8289L25.7006 72.9268C24.5376 70.1807 24.1277 66.8684 24.1047 63.7355C24.1124 56.9829 25.6545 49.6949 28.6876 43.6211C29.3203 42.3915 30.1042 41.0953 30.9546 40.1603C31.0622 40.045 31.2108 39.8887 31.3594 39.7581C31.134 39.8554 30.8317 39.9348 30.5294 39.9835L28.6978 23.5247V23.5195Z" fill="#FFBE00"/>
<path d="M31.6796 39.5352C31.5848 39.571 31.4721 39.6556 31.3594 39.7555C31.508 39.6889 31.6232 39.6171 31.6796 39.5352Z" fill="#FFBE00"/>
<path d="M24.2231 62.537C24.1386 62.537 24.0669 62.4679 24.0669 62.3833C24.0669 62.2527 23.908 49.3623 25.1838 43.7855C25.2042 43.7009 25.2862 43.6497 25.3708 43.6676C25.4553 43.6881 25.5065 43.7701 25.4886 43.8546C24.2206 49.3956 24.3768 62.2501 24.3794 62.3808C24.3794 62.4679 24.3102 62.537 24.2257 62.5396L24.2231 62.537Z" fill="#EF6D54"/>
<path d="M62.1553 141.649C62.0375 141.649 61.9171 141.603 61.8274 141.513C61.643 141.331 61.6404 141.034 61.8223 140.85L63.7462 138.898C63.928 138.713 64.2252 138.711 64.4096 138.893C64.5941 139.075 64.5966 139.372 64.4148 139.556L62.4909 141.508C62.3987 141.6 62.2783 141.649 62.1579 141.649H62.1553Z" fill="white"/>
<path d="M60.0909 140.34C59.9731 140.34 59.8527 140.294 59.763 140.205C59.5786 140.023 59.576 139.726 59.7579 139.541L61.6817 137.589C61.8636 137.405 62.1607 137.402 62.3452 137.584C62.5296 137.766 62.5322 138.063 62.3503 138.248L60.4265 140.2C60.3342 140.292 60.2139 140.34 60.0935 140.34H60.0909Z" fill="white"/>
<path d="M58.9672 139.702C58.9109 139.702 58.8545 139.687 58.8033 139.656L57.0767 138.593C56.9896 138.539 56.9333 138.447 56.9281 138.345C56.923 138.242 56.9666 138.145 57.0485 138.081L59.5411 136.134C59.6461 136.052 59.7921 136.047 59.9048 136.119C60.0175 136.193 60.0688 136.329 60.038 136.457L59.2721 139.467C59.2465 139.564 59.1799 139.641 59.0876 139.679C59.0492 139.695 59.0108 139.702 58.9698 139.702H58.9672ZM57.7863 138.296L58.7674 138.901L59.2029 137.189L57.7863 138.296Z" fill="white"/>
<path d="M27.7117 141.477C27.6117 141.477 27.5118 141.447 27.4247 141.38C27.2198 141.221 27.1814 140.927 27.3402 140.722L28.7901 138.847C28.9489 138.642 29.2435 138.603 29.4485 138.762C29.6534 138.921 29.6918 139.216 29.533 139.42L28.0831 141.296C27.9909 141.416 27.8525 141.477 27.7117 141.477Z" fill="white"/>
<path d="M25.8968 140.356C25.7764 140.356 25.6586 140.31 25.5664 140.22C25.3819 140.038 25.3819 139.741 25.5638 139.557L27.2673 137.838C27.4492 137.653 27.7464 137.653 27.9308 137.835C28.1153 138.017 28.1153 138.314 27.9334 138.499L26.2299 140.218C26.1376 140.31 26.0172 140.356 25.8968 140.356Z" fill="white"/>
<path d="M24.8853 139.603C24.8059 139.603 24.7265 139.572 24.6676 139.515C24.1834 139.047 23.6864 138.593 23.1767 138.13C23.0998 138.06 23.064 137.958 23.0768 137.855C23.0896 137.753 23.1536 137.666 23.2458 137.617C23.7249 137.376 24.1988 137.166 24.6548 136.961C25.1415 136.744 25.6436 136.521 26.1431 136.265C26.2635 136.203 26.4095 136.226 26.5043 136.321C26.6016 136.416 26.6247 136.559 26.5658 136.682C26.2712 137.282 25.9971 137.814 25.7051 138.378C25.5283 138.721 25.349 139.067 25.162 139.433C25.1159 139.523 25.0339 139.585 24.934 139.6C24.9161 139.603 24.9007 139.605 24.8828 139.605L24.8853 139.603ZM23.9375 137.976C24.227 138.24 24.5139 138.506 24.7982 138.773C24.9186 138.539 25.0365 138.311 25.1517 138.086C25.3029 137.794 25.4489 137.51 25.5975 137.22C25.3669 137.328 25.1364 137.43 24.9109 137.53C24.5933 137.674 24.2654 137.817 23.9375 137.973V137.976Z" fill="white"/>
<path d="M148.125 121.821L149.275 139.435L159.504 139.304L158.513 121.688L148.125 121.821Z" fill="#FFBE00"/>
<path d="M152.171 137.583C150.711 137.358 150.54 136.769 150.145 135.998C149.902 135.521 148.798 134.914 148.798 134.914C146.082 138.239 142.475 139.917 137.803 141.218C135.994 142.253 134.89 144.187 134.918 146.27L159.795 145.955L159.69 137.64C159.69 137.64 153.15 137.734 152.171 137.583Z" fill="#FF3F31"/>
<path d="M136.191 144.443C136.107 144.443 136.035 144.373 136.035 144.289C136.035 144.202 136.104 144.133 136.189 144.13L158.519 143.846C158.606 143.846 158.675 143.915 158.678 143.999C158.678 144.086 158.609 144.156 158.524 144.158L136.194 144.443H136.191Z" fill="white"/>
<path d="M143.36 142.493C143.24 142.493 143.117 142.447 143.027 142.352L141.104 140.4C140.922 140.215 140.924 139.918 141.109 139.736C141.293 139.555 141.59 139.557 141.772 139.742L143.696 141.694C143.878 141.878 143.875 142.175 143.691 142.357C143.599 142.447 143.481 142.493 143.363 142.493H143.36Z" fill="white"/>
<path d="M145.427 141.186C145.306 141.186 145.183 141.14 145.094 141.045L143.17 139.093C142.988 138.909 142.991 138.612 143.175 138.43C143.36 138.248 143.657 138.25 143.839 138.435L145.762 140.387C145.944 140.571 145.942 140.868 145.757 141.05C145.665 141.14 145.547 141.186 145.429 141.186H145.427Z" fill="white"/>
<path d="M146.551 140.547C146.512 140.547 146.471 140.539 146.433 140.523C146.341 140.485 146.271 140.408 146.248 140.311L145.482 137.303C145.449 137.173 145.503 137.037 145.616 136.965C145.728 136.891 145.874 136.899 145.979 136.981L148.472 138.928C148.551 138.992 148.597 139.089 148.592 139.191C148.587 139.294 148.531 139.386 148.444 139.44L146.717 140.503C146.668 140.534 146.61 140.549 146.553 140.549L146.551 140.547ZM146.312 138.034L146.748 139.745L147.729 139.14L146.312 138.034Z" fill="white"/>
<path d="M179.025 124.316C180.34 130.028 181.59 135.756 182.97 141.456C186.38 140.69 189.774 139.87 193.176 139.068C191.831 133.366 190.486 127.664 189.159 121.959C185.783 122.745 182.404 123.532 179.028 124.318L179.025 124.316Z" fill="#FFBE00"/>
<path d="M185.785 137.075C183.605 137.28 184.504 136.555 183.407 135.761C182.729 135.269 181.23 135.351 181.204 135.346C179.368 137.859 177.498 140.687 172.361 142.247C170.199 142.56 169.554 144.852 169.459 146.43C181.904 147.501 183.236 146.789 194.643 143.684L192.658 135.63C190.864 136.091 187.25 136.937 185.785 137.075Z" fill="#FF3F31"/>
<path d="M175.699 145.262C174.144 145.262 172.558 145.183 170.967 144.998C170.883 144.988 170.821 144.911 170.829 144.824C170.839 144.74 170.916 144.676 171.003 144.686C181.15 145.864 191.463 142.631 193.428 141.973C193.546 141.932 193.546 141.932 193.577 141.935C193.664 141.935 193.73 142.006 193.73 142.093C193.73 142.165 193.679 142.227 193.61 142.242C193.597 142.244 193.569 142.255 193.528 142.27C191.197 143.054 183.883 145.262 175.699 145.262Z" fill="white"/>
<path d="M177.492 143.241C177.351 143.241 177.212 143.18 177.12 143.059L175.67 141.184C175.511 140.979 175.55 140.685 175.755 140.526C175.96 140.367 176.254 140.405 176.413 140.61L177.863 142.485C178.022 142.69 177.983 142.985 177.779 143.144C177.694 143.21 177.592 143.241 177.492 143.241Z" fill="white"/>
<path d="M179.303 142.122C179.183 142.122 179.063 142.076 178.97 141.983L177.267 140.264C177.085 140.08 177.085 139.783 177.27 139.601C177.454 139.419 177.751 139.419 177.933 139.603L179.637 141.322C179.818 141.507 179.818 141.804 179.634 141.986C179.542 142.076 179.424 142.122 179.303 142.122Z" fill="white"/>
<path d="M180.319 141.368C180.301 141.368 180.285 141.368 180.267 141.363C180.17 141.348 180.086 141.284 180.039 141.197C179.852 140.83 179.676 140.484 179.496 140.141C179.204 139.578 178.928 139.045 178.633 138.443C178.574 138.322 178.6 138.176 178.695 138.082C178.792 137.987 178.938 137.966 179.056 138.025C179.558 138.281 180.057 138.507 180.544 138.722C181.003 138.927 181.477 139.137 181.956 139.378C182.048 139.424 182.112 139.514 182.125 139.613C182.137 139.716 182.102 139.818 182.025 139.888C181.515 140.351 181.015 140.807 180.534 141.273C180.475 141.33 180.395 141.361 180.316 141.361L180.319 141.368ZM179.606 138.988C179.755 139.278 179.901 139.562 180.052 139.857C180.167 140.082 180.285 140.308 180.406 140.541C180.688 140.272 180.974 140.008 181.266 139.744C180.939 139.588 180.611 139.442 180.293 139.301C180.068 139.201 179.84 139.099 179.606 138.991V138.988Z" fill="white"/>
<path d="M188.253 93.4747L188.151 92.6499L188.243 93.3082L186.468 59.4043L165.285 61.0925L168.918 95.0169L168.974 95.542C168.984 95.6419 169 95.7418 169.02 95.8443L176.439 134.311L193.623 131.444L188.246 93.3108L188.253 93.4799V93.4747Z" fill="#00AB41"/>
<path d="M188.252 93.4753L188.245 93.3087L188.152 92.6504L188.252 93.4753Z" fill="#00AB41"/>
<path d="M149.82 87.3774C148.97 93.6484 146.149 126.52 145.496 133.536L162.8 135.545C163.243 132.625 168.29 96.5226 168.733 94.4707C170.111 86.1785 172.548 71.0723 173.956 62.6238L152.907 59.7266C152.228 65.8054 150.476 81.4907 149.82 87.38V87.3774Z" fill="#00AB41"/>
<path d="M177.775 130.94C177.701 130.94 177.634 130.886 177.622 130.809C177.606 130.725 177.665 130.643 177.75 130.63L191.209 128.35C191.291 128.335 191.375 128.394 191.388 128.478C191.403 128.563 191.345 128.645 191.26 128.657L177.801 130.937C177.801 130.937 177.783 130.937 177.775 130.937V130.94Z" fill="#FFFFE9"/>
<path d="M180.616 129.468C180.542 129.468 180.478 129.414 180.463 129.34C180.414 129.084 175.67 103.541 174.74 95.1414C174.04 88.8166 175.706 67.5546 175.721 67.3394C175.729 67.2523 175.803 67.1883 175.89 67.1959C175.977 67.2036 176.041 67.2779 176.033 67.365C176.016 67.5776 174.353 88.8115 175.05 95.1081C175.977 103.498 180.721 129.027 180.77 129.284C180.785 129.368 180.729 129.45 180.644 129.465C180.634 129.465 180.624 129.468 180.616 129.468Z" fill="#FFFFE9"/>
<path d="M167.811 92.2913C167.739 92.2913 167.675 92.2427 167.657 92.1684C167.639 92.0813 165.746 83.4612 165.246 76.8546C165.241 76.7675 165.305 76.6932 165.39 76.6881C165.477 76.6804 165.551 76.747 165.556 76.8316C166.053 83.4151 167.941 92.0147 167.959 92.1018C167.977 92.1863 167.923 92.2683 167.841 92.2888C167.831 92.2888 167.818 92.2913 167.808 92.2913H167.811Z" fill="#FFFFE9"/>
<path d="M161.009 131.465C161.009 131.465 161.001 131.465 160.996 131.465L147.742 130.415C147.655 130.407 147.591 130.333 147.598 130.246C147.606 130.159 147.678 130.095 147.767 130.102L161.022 131.152C161.109 131.16 161.173 131.234 161.165 131.322C161.157 131.404 161.091 131.465 161.009 131.465Z" fill="#FFFFE9"/>
<path d="M153.529 128.659H153.527C153.44 128.659 153.373 128.585 153.373 128.5C153.378 128.262 153.924 104.51 155.107 96.5383C156.26 88.761 158.076 66.2797 158.094 66.0542C158.102 65.9671 158.174 65.9031 158.263 65.9108C158.35 65.9185 158.414 65.9928 158.407 66.0799C158.389 66.3053 156.573 88.7969 155.417 96.5844C154.236 104.536 153.693 128.267 153.688 128.508C153.688 128.593 153.616 128.662 153.532 128.662L153.529 128.659Z" fill="#FFFFE9"/>
<path d="M128.358 67.3054C127.374 67.9842 127.12 68.6887 127.428 69.1318C127.735 69.575 128.44 69.6211 129.467 68.9115L135.669 64.6361L134.559 63.0273L128.358 67.3028V67.3054Z" fill="#FF9EAB"/>
<path d="M129.564 70.7556C128.721 71.601 128.601 72.3413 128.982 72.723C129.364 73.1047 130.066 73.0176 130.947 72.1364L135.153 67.9198L133.77 66.5391L129.564 70.7556Z" fill="#FF9EAB"/>
<path d="M132.289 72.1525C131.526 73.0721 131.474 73.8202 131.889 74.1634C132.304 74.5067 132.996 74.3581 133.793 73.4L136.944 69.6011L135.44 68.3535L132.289 72.1525Z" fill="#FF9EAB"/>
<path d="M134.78 73.0257C134.089 73.9992 134.091 74.7497 134.532 75.0623C134.973 75.3748 135.651 75.175 136.374 74.158L139.766 69.3881L138.175 68.2559L134.783 73.0257H134.78Z" fill="#FF9EAB"/>
<path d="M133.772 62.313C132.376 63.7117 132.378 65.9762 133.777 67.3723L136.99 70.577C137.548 71.1355 138.455 71.1329 139.013 70.577L149.042 60.525L142.285 53.7852L133.772 62.3181V62.313Z" fill="#FF9EAB"/>
<path d="M137.813 59.2293C136.161 59.173 134.626 59.9876 133.074 60.5691C131.242 61.2531 127.93 62.3392 128.117 63.3562C128.537 65.631 133.269 62.6415 135.136 64.0658C137.833 66.1228 139.967 64.8958 140.51 63.0514C141.294 60.3872 138.774 59.2652 137.816 59.2319L137.813 59.2293Z" fill="#FF9EAB"/>
<path d="M137.83 65.2897C137.11 65.2897 136.16 65.0438 135.038 64.1882C134.626 63.8731 134.024 63.763 133.142 63.8398C133.055 63.8475 132.981 63.7835 132.973 63.6989C132.966 63.6118 133.03 63.5376 133.114 63.5299C134.077 63.4453 134.749 63.576 135.228 63.9397C136.355 64.8005 137.464 65.136 138.437 64.9081C139.188 64.7313 139.803 64.2292 140.166 63.494C140.205 63.4172 140.3 63.3839 140.377 63.4223C140.453 63.4607 140.487 63.5555 140.448 63.6323C140.049 64.4418 139.342 65.0182 138.509 65.2103C138.314 65.2564 138.086 65.2872 137.83 65.2872V65.2897Z" fill="#360530"/>
<path d="M138.151 69.5748C138.13 69.5748 138.11 69.5697 138.089 69.562C135.041 68.253 133.132 65.594 133.114 65.5683C133.066 65.4992 133.081 65.3993 133.15 65.3506C133.219 65.3019 133.317 65.3173 133.368 65.3865C133.386 65.4121 135.246 68.0019 138.212 69.2751C138.291 69.3084 138.327 69.4006 138.294 69.48C138.268 69.539 138.212 69.5748 138.151 69.5748Z" fill="#360530"/>
<path d="M156.848 27.6909C156.277 29.7197 155.403 31.4412 154.32 33.4342C149.358 42.1055 142.572 50.349 135.594 57.5525L144.867 67.4688C150.646 62.3428 155.816 56.9659 160.78 51.074C165.845 44.8516 172.182 36.8003 173.471 28.5388L157.022 26.5996C157.015 26.9121 156.94 27.3041 156.843 27.6909H156.848Z" fill="#FFFFE9"/>
<path d="M174.755 13.2548L165.85 14.1484L166.997 25.5878L175.903 24.6942L174.755 13.2548Z" fill="#FF9EAB"/>
<path d="M169.205 2.78125C165.324 2.87859 161.74 4.20811 162.483 11.5935C162.908 15.8305 163.257 18.4921 167.043 18.113C170.829 17.7338 176.619 14.4549 176.193 10.2178C175.768 5.9808 173.007 2.68647 169.202 2.78381L169.205 2.78125Z" fill="#FF9EAB"/>
<path d="M167.046 18.2675C166.966 18.2675 166.9 18.2086 166.889 18.1266C166.882 18.0395 166.943 17.9652 167.03 17.955C168.46 17.8115 170.14 17.2531 171.641 16.4256C171.718 16.3847 171.813 16.4103 171.854 16.4871C171.895 16.5614 171.869 16.6588 171.792 16.6997C170.255 17.5477 168.531 18.1189 167.061 18.2649C167.056 18.2649 167.051 18.2649 167.046 18.2649V18.2675Z" fill="#360530"/>
<path d="M175.313 2.12334C172.838 -0.0105435 170.379 0.973144 168.276 0.294297C163.198 -1.34262 160.078 4.26235 161.584 5.91208C159.115 7.68989 161.651 10.0057 162.299 9.75973C162.917 9.52406 163.975 3.22487 165.381 5.11283C169.687 10.8818 172.743 3.86017 171.414 8.17405C170.983 9.56761 172.141 11.1251 173.335 11.9295C173.663 11.9167 174.232 15.0752 174.913 15.2674C176.099 15.6029 175.666 14.2324 176.255 13.9814C177.06 13.6356 177.664 10.0748 176.778 8.3508C176.778 8.3508 178.407 4.79262 175.31 2.12334H175.313Z" fill="#0071EB"/>
<path d="M174.631 8.4405C173.506 8.31754 172.453 9.48823 172.282 11.056C172.11 12.6237 172.881 13.9942 174.006 14.1198C175.13 14.2427 176.183 13.072 176.355 11.5043C176.526 9.93653 175.755 8.56603 174.631 8.4405Z" fill="#FF9EAB"/>
<path d="M173.807 11.6725C173.779 11.6725 173.748 11.6648 173.722 11.6469C173.651 11.6008 173.627 11.5034 173.676 11.4317C174.168 10.6683 174.814 10.5044 174.839 10.4967C174.924 10.4762 175.008 10.5274 175.029 10.612C175.049 10.6965 174.998 10.781 174.913 10.8015C174.903 10.8015 174.358 10.9501 173.937 11.6008C173.907 11.6469 173.858 11.6725 173.807 11.6725Z" fill="#360530"/>
<path d="M168.714 10.3659C168.388 10.3992 168.155 10.7348 168.194 11.1165C168.232 11.4982 168.527 11.7825 168.852 11.7492C169.177 11.7159 169.41 11.3804 169.372 10.9987C169.334 10.617 169.039 10.3326 168.714 10.3659Z" fill="#360530"/>
<path d="M163.874 10.8503C163.548 10.8836 163.315 11.2192 163.354 11.6009C163.392 11.9826 163.687 12.2669 164.012 12.2336C164.337 12.2003 164.571 11.8647 164.532 11.483C164.494 11.1014 164.199 10.817 163.874 10.8503Z" fill="#360530"/>
<path d="M165.933 13.0718C165.933 13.0718 165.923 13.0718 165.92 13.0718C165.884 13.0692 165.577 13.0359 165.415 12.7874C165.31 12.6261 165.298 12.4211 165.38 12.1803C165.462 11.9344 165.656 11.5553 165.664 11.5399C165.702 11.463 165.797 11.4323 165.874 11.4733C165.951 11.5117 165.982 11.6065 165.941 11.6834C165.941 11.6859 165.748 12.0574 165.674 12.2828C165.625 12.4288 165.625 12.5415 165.674 12.6184C165.741 12.7208 165.894 12.7593 165.948 12.7644C166.033 12.7721 166.097 12.8489 166.089 12.9335C166.081 13.0154 166.015 13.0743 165.935 13.0743L165.933 13.0718Z" fill="#360530"/>
<path d="M166.366 15.3128C166.085 15.3128 165.852 15.2308 165.675 15.0668C165.337 14.7543 165.342 14.265 165.342 14.2445C165.342 14.1651 165.403 14.1011 165.483 14.0908L167.286 13.909C167.363 13.9013 167.437 13.9525 167.453 14.0294C167.458 14.0499 167.565 14.5315 167.299 14.9055C167.135 15.1335 166.876 15.2667 166.525 15.3025C166.469 15.3076 166.415 15.3102 166.364 15.3102L166.366 15.3128ZM165.67 14.3906C165.69 14.5186 165.747 14.7082 165.89 14.8414C166.031 14.9695 166.236 15.0207 166.497 14.9951C166.753 14.9695 166.938 14.8798 167.048 14.7287C167.163 14.5699 167.176 14.3701 167.168 14.2394L165.67 14.3906Z" fill="#360530"/>
<path d="M175.011 19.4043L164.736 20.306C157.584 22.5449 154.538 30.5451 154.143 33.7523L151.607 60.2709C151.607 60.2709 156.654 63.4218 172.918 62.4816C181.354 61.9924 186.541 60.9395 187.825 59.2385L187.115 29.4589C186.79 25.081 184.384 19.4069 175.011 19.4069V19.4043Z" fill="#FFFFE9"/>
<path d="M180.968 77.4341C180.496 78.5382 180.727 79.3016 181.308 79.5501C181.89 79.7985 182.581 79.486 183.073 78.3333L186.045 71.3757L183.939 70.4766L180.968 77.4341Z" fill="#FF9EAB"/>
<path d="M182.889 78.7617C182.418 79.8658 182.649 80.6291 183.23 80.8776C183.812 81.1261 184.503 80.8136 184.995 79.6608L187.344 74.1609L185.238 73.2617L182.889 78.7617Z" fill="#FF9EAB"/>
<path d="M185.147 79.3053C184.676 80.4094 184.906 81.1728 185.488 81.4212C186.069 81.6697 186.761 81.3572 187.253 80.2044L189.2 75.6472L187.094 74.748L185.147 79.3053Z" fill="#FF9EAB"/>
<path d="M187.458 79.7255C186.986 80.8296 187.217 81.5929 187.798 81.8414C188.38 82.0899 189.072 81.7774 189.563 80.6246L191.872 75.2195L189.766 74.3203L187.458 79.7255Z" fill="#FF9EAB"/>
<path d="M182.153 73.8432C181.374 75.6697 182.22 77.7805 184.046 78.5593L188.134 80.3063C188.865 80.6188 189.71 80.2781 190.02 79.5481L195.543 66.6167L186.828 62.8945L182.15 73.8432H182.153Z" fill="#FF9EAB"/>
<path d="M185.641 68.3886C183.61 68.7729 182.06 69.8514 181.01 72.2337C180.151 74.1832 181.186 76.1301 182.139 76.3171C184.266 76.7321 182.793 73.0176 184.888 73.1764C188.211 73.43 189.402 72.9331 189.466 70.9683C189.555 68.1248 186.82 68.1683 185.641 68.3912V68.3886Z" fill="#FF9EAB"/>
<path d="M183.323 71.9222C183.244 71.8889 183.152 71.9273 183.119 72.0067L181.679 75.3753C181.646 75.4547 181.679 75.5495 181.758 75.5828C181.838 75.6161 181.93 75.5777 181.963 75.4983L183.403 72.1297C183.436 72.0503 183.403 71.9555 183.323 71.9222Z" fill="#360530"/>
<path d="M179.096 20.2317L177.265 36.6905C176.888 36.6367 176.604 36.5368 176.414 36.4497C176.478 36.5035 176.54 36.5599 176.586 36.6034C178.714 38.8936 179.957 41.9317 181.056 44.952C183.241 51.4356 184.335 58.6544 183.285 65.3737C183.023 66.9338 182.624 68.3914 182.091 69.6338L194.318 75.536C198.667 66.6751 198.731 56.6845 197.297 47.1986C195.64 37.3002 190.854 21.8712 179.091 20.2266L179.096 20.2317Z" fill="#FFFFE9"/>
<path d="M176.323 36.4063C176.349 36.4191 176.385 36.437 176.418 36.4524C176.303 36.3525 176.182 36.2577 176.118 36.2475C176.085 36.2346 176.144 36.3141 176.323 36.4088V36.4063Z" fill="#FFFFE9"/>
<path d="M183.572 59.2486C183.485 59.2486 183.416 59.1768 183.418 59.0897C183.418 58.9617 183.577 46.1071 182.309 40.5636C182.289 40.4791 182.342 40.3945 182.427 40.3766C182.509 40.3587 182.596 40.4099 182.614 40.4945C183.89 46.0738 183.733 58.9642 183.731 59.0923C183.731 59.1768 183.659 59.246 183.575 59.246L183.572 59.2486Z" fill="#428FC8"/>
<path d="M133.831 70.5572C132.876 69.5812 131.313 69.5658 130.337 70.5187L123.648 77.0638L128.208 81.721L135.955 74.1384C136.344 73.7567 136.352 73.1317 135.97 72.7397L133.831 70.5546V70.5572Z" fill="#FF9EAB"/>
<path d="M134.099 66.816C133.748 66.5521 133.243 66.6777 132.81 67.3514L130.082 71.5935L131.353 72.5542L134.081 68.312C134.532 67.6101 134.45 67.0824 134.099 66.816Z" fill="#FF9EAB"/>
<path d="M135.02 68.455L133.296 70.1432L132.197 71.2191L133.317 72.3642L136.14 69.6001C136.731 69.0212 136.744 68.5063 136.434 68.1912C136.124 67.8761 135.586 67.9017 135.02 68.455Z" fill="#FF9EAB"/>
<path d="M136.033 70.2893L133.443 72.3053L134.473 73.5273L137.063 71.5112C137.716 71.0014 137.778 70.5019 137.493 70.1638C137.209 69.8256 136.658 69.8026 136.033 70.2893Z" fill="#FF9EAB"/>
<path d="M136.786 71.8759L133.494 73.9893L134.445 75.2676L137.736 73.1542C138.438 72.7033 138.538 72.2166 138.274 71.8631C138.01 71.5096 137.457 71.443 136.783 71.8759H136.786Z" fill="#FF9EAB"/>
<path d="M131.058 66.9769C130.489 66.8719 129.838 68.7342 129.431 69.7666C129.085 70.6401 128.609 71.5034 128.621 72.4333C128.629 72.9713 129.228 74.3879 130.737 73.9447C131.78 73.6373 132.497 72.4359 131.37 70.9219C130.591 69.8742 132.328 67.2126 131.055 66.9795L131.058 66.9769Z" fill="#FF9EAB"/>
<path d="M135.044 75.037C134.993 75.037 134.941 75.0114 134.913 74.9653C134.867 74.8935 134.888 74.7962 134.959 74.7501L137.652 73.0235C137.997 72.8006 138.202 72.5624 138.243 72.3344C138.266 72.2012 138.236 72.0757 138.149 71.9604C137.913 71.6428 137.411 71.6632 136.868 72.0116L135.797 72.6982C135.725 72.7443 135.633 72.7264 135.584 72.6572C135.536 72.588 135.551 72.4958 135.615 72.4446L136.963 71.3943C137.283 71.1432 137.467 70.8871 137.493 70.6488C137.508 70.5105 137.467 70.3824 137.372 70.2697C137.119 69.9674 136.63 70.0263 136.127 70.4183L134.565 71.507C134.498 71.5531 134.409 71.5403 134.357 71.4814C134.306 71.4225 134.306 71.3302 134.362 71.2713L136.025 69.4961C136.281 69.245 136.435 68.9965 136.471 68.7762C136.499 68.5943 136.45 68.4355 136.325 68.3049C136.202 68.1794 136.038 68.1281 135.848 68.1563C135.623 68.1896 135.374 68.3331 135.131 68.5713L133.281 70.1416C133.225 70.1903 133.141 70.1903 133.082 70.1442C133.023 70.0981 133.007 70.0161 133.041 69.9495L133.942 68.2434C134.309 67.6721 134.329 67.1905 134.004 66.9446C133.894 66.8626 133.771 66.8319 133.64 66.855C133.407 66.896 133.158 67.1034 132.943 67.439L131.416 69.2373C131.368 69.2962 131.283 69.3091 131.217 69.2706C131.15 69.2322 131.124 69.1502 131.15 69.0785C131.37 68.5149 131.604 67.5287 131.296 67.2853C131.13 67.1521 131.012 67.1675 130.94 67.1905C130.684 67.27 130.274 67.7003 129.785 69.2963C129.759 69.3782 129.672 69.4243 129.59 69.3987C129.508 69.3731 129.462 69.286 129.488 69.204C129.92 67.8002 130.366 67.042 130.85 66.8934C131.002 66.8473 131.232 66.8345 131.493 67.042C131.839 67.3161 131.785 67.9488 131.668 68.4611L132.692 67.2546C132.946 66.855 133.261 66.6065 133.586 66.5476C133.804 66.5091 134.014 66.5604 134.193 66.6961C134.557 66.9702 134.752 67.562 134.211 68.3997L133.694 69.3808L134.918 68.3407C135.2 68.0641 135.51 67.8899 135.8 67.8463C136.086 67.8028 136.353 67.8873 136.545 68.0846C136.74 68.2844 136.822 68.5457 136.778 68.8249C136.732 69.1169 136.553 69.4167 136.248 69.7138L135.605 70.4003L135.943 70.1647C136.722 69.5575 137.331 69.7317 137.613 70.0673C137.764 70.2441 137.831 70.4567 137.808 70.6796C137.78 70.9383 137.631 71.2021 137.375 71.4532C137.864 71.3456 138.218 71.5275 138.402 71.7734C138.541 71.9604 138.592 72.173 138.553 72.3908C138.494 72.7084 138.243 73.0184 137.823 73.2874L135.131 75.0139C135.105 75.0319 135.075 75.0396 135.046 75.0396L135.044 75.037Z" fill="#5E1F59"/>
<path d="M74.7224 71.473L72.4809 73.5505C72.0813 73.922 72.0556 74.547 72.4271 74.9466L79.7945 82.8981L84.5746 78.469L78.2139 71.6062C77.2866 70.6046 75.724 70.5457 74.7224 71.473Z" fill="#FF9EAB"/>
<path d="M74.6394 67.7247C74.2756 67.9732 74.168 68.4958 74.5856 69.2182L77.1037 73.5884L78.4179 72.6918L75.8997 68.3216C75.5001 67.6299 75.0031 67.4762 74.6394 67.7247Z" fill="#FF9EAB"/>
<path d="M73.6395 69.3168C73.1016 68.7353 72.5636 68.6815 72.2383 68.9837C71.913 69.2835 71.9027 69.7984 72.4637 70.4055L75.1484 73.3028L76.3216 72.214L75.2765 71.0869L73.637 69.3168H73.6395Z" fill="#FF9EAB"/>
<path d="M71.0847 70.9026C70.785 71.2254 70.8208 71.73 71.4485 72.2705L73.9359 74.4121L75.0246 73.2414L72.5372 71.0998C71.9352 70.5824 71.3844 70.5798 71.0847 70.9026Z" fill="#FF9EAB"/>
<path d="M70.2221 72.5624C69.9429 72.9031 70.0197 73.3923 70.6986 73.8765L73.8853 76.1462L74.8972 74.9165L71.7104 72.6469C71.0598 72.1832 70.5013 72.2217 70.2221 72.5624Z" fill="#FF9EAB"/>
<path d="M77.6675 68.0355C76.3841 68.2071 77.9903 70.9507 77.1603 71.96C75.964 73.4176 76.6198 74.6523 77.647 75.0084C79.1302 75.5259 79.8014 74.14 79.8347 73.602C79.8936 72.6747 79.4581 71.7909 79.1558 70.8994C78.7998 69.8491 78.2413 67.9586 77.6675 68.0355Z" fill="#FF9EAB"/>
<path d="M73.3015 75.8895C73.2708 75.8895 73.2375 75.8793 73.2119 75.8614L70.6092 74.0041C70.2019 73.7147 69.9662 73.3919 69.9227 73.0717C69.8945 72.8514 69.956 72.6413 70.1045 72.462C70.2992 72.2238 70.663 72.0624 71.1446 72.1905C70.8987 71.9266 70.7629 71.6576 70.7501 71.3963C70.7373 71.1735 70.8141 70.9634 70.973 70.7943C71.2701 70.4741 71.8875 70.3307 72.6432 70.9788L72.9634 71.2247L72.3486 70.5023C72.0617 70.1949 71.9003 69.8875 71.867 69.5929C71.8362 69.3137 71.931 69.0549 72.136 68.8654C72.3383 68.6784 72.6073 68.6067 72.8917 68.663C73.1811 68.7194 73.4783 68.9089 73.7575 69.2087L74.9231 70.2999L74.4492 69.2829C73.9573 68.4325 74.1828 67.851 74.5568 67.5948C74.7412 67.4693 74.9564 67.4283 75.1716 67.477C75.4943 67.5512 75.7941 67.8151 76.04 68.2429L76.9955 69.4827C76.9033 68.9653 76.8802 68.3274 77.2388 68.0713C77.5078 67.8766 77.7409 67.9022 77.887 67.956C78.3634 68.1302 78.7707 68.9064 79.1345 70.3307C79.155 70.4152 79.1063 70.4997 79.0218 70.5202C78.9372 70.5407 78.8527 70.4921 78.8322 70.4075C78.4198 68.7911 78.033 68.3402 77.7794 68.248C77.7076 68.2224 77.5924 68.2019 77.4182 68.3249C77.0851 68.5631 77.3131 69.639 77.4771 70.1232C77.5001 70.1949 77.4694 70.2743 77.4028 70.3102C77.3362 70.346 77.2517 70.3281 77.2055 70.2666L75.7812 68.4145C75.5712 68.0508 75.333 67.833 75.1024 67.7792C74.9718 67.7485 74.8462 67.7741 74.7335 67.851C74.3979 68.0815 74.3954 68.5605 74.7258 69.1369L75.5481 70.8968C75.5789 70.9634 75.5584 71.0454 75.4995 71.0889C75.438 71.1325 75.356 71.1274 75.3022 71.0761L73.5398 69.4238C73.299 69.1651 73.0582 69.0114 72.8353 68.9653C72.6483 68.9269 72.4818 68.9704 72.3537 69.0908C72.2205 69.2138 72.1641 69.37 72.1846 69.5545C72.2103 69.7773 72.3486 70.031 72.5894 70.2922L74.1674 72.152C74.2186 72.2135 74.2161 72.3032 74.1623 72.3621C74.1085 72.421 74.0162 72.4261 73.9548 72.3775L72.4536 71.2196C71.9643 70.7995 71.4776 70.7175 71.2112 71.0044C71.1113 71.112 71.0626 71.2375 71.0703 71.3758C71.0831 71.6141 71.2547 71.8805 71.5621 72.1443L72.8584 73.2587C72.9224 73.3125 72.9301 73.4073 72.8789 73.4739C72.8276 73.5405 72.7328 73.5533 72.6662 73.5046L71.6313 72.7668C71.1062 72.3928 70.6066 72.3493 70.3556 72.6541C70.2634 72.7668 70.2249 72.8898 70.2429 73.023C70.2736 73.2536 70.4657 73.502 70.8013 73.7403L73.404 75.5975C73.4732 75.6487 73.4911 75.7461 73.4399 75.8152C73.4091 75.8588 73.3605 75.8818 73.3118 75.8818L73.3015 75.8895Z" fill="#5E1F59"/>
<path d="M88.3496 128.568L89.0592 141.779L96.7238 141.769L96.1346 128.561L88.3496 128.568Z" fill="#80DCE8"/>
<path d="M88.68 141.056C88.1651 141.527 84.8477 141.816 83.5105 142.749C82.1477 143.51 82.058 145.019 82.0606 146.579L96.8825 146.75L96.8774 140.881C96.8774 140.881 89.2103 140.571 88.68 141.053V141.056Z" fill="#FFBE00"/>
<path d="M101.326 128.735L107.933 140.196L114.765 136.72L108.266 125.205L101.326 128.735Z" fill="#80DCE8"/>
<path d="M107.272 139.722C107.024 140.375 104.198 142.135 103.43 143.569C102.559 144.863 103.161 146.249 103.868 147.643L117.166 141.092L114.507 135.861C114.507 135.861 107.529 139.053 107.275 139.722H107.272Z" fill="#FFBE00"/>
<path d="M89.2027 104.159L86.2388 123.154L86.1825 123.515C86.1364 123.817 86.1261 124.13 86.1543 124.45L87.5043 139.631L97.4821 139.116L97.2746 124.716L97.1772 125.172L97.2618 123.876L97.2746 124.716L101.186 106.367L89.2027 104.156V104.159Z" fill="#FF3F31"/>
<path d="M97.1758 125.175L97.2731 124.719L97.2603 123.879L97.1758 125.175Z" fill="#FF3F31"/>
<path d="M110.042 125.498L109.519 122.765L110.157 124.3L111.666 108.563L99.5054 107.779L98.9393 124.786L98.9239 125.232C98.9009 126.003 99.0725 126.79 99.4619 127.52L104.998 137.91L114.03 133.642L110.154 124.302L110.039 125.501L110.042 125.498Z" fill="#FF3F31"/>
<path d="M110.04 125.5L110.155 124.301L109.518 122.764L110.04 125.5Z" fill="#FF3F31"/>
<path d="M104.696 81.0371L94.974 81.6263C88.9694 83.1684 88.8644 92.475 88.534 94.6883L87.166 107.082C87.166 107.082 88.2291 109.28 100.892 110.512C107.949 111.198 114.735 110.417 115.798 108.767L114.953 90.938C114.638 89.7853 112.493 82.9353 104.698 81.0371H104.696Z" fill="#FFFF80"/>
<path d="M118.488 79.569C115.301 81.3545 111.594 82.4176 108.041 82.2793L108.054 93.2151C119.095 92.8437 128.739 85.8964 134.67 76.992L127.389 71.7559C124.905 74.8811 121.938 77.6529 118.49 79.5665L118.488 79.569Z" fill="#FFFF80"/>
<path d="M81.1779 72.5254L74.082 78.0074C79.1695 85.6207 84.6336 90.7928 94.0017 92.627L95.6745 81.8192C92.8592 81.5169 90.2924 80.7458 87.9408 79.1755C85.3355 77.449 83.3144 75.0538 81.1753 72.5254H81.1779Z" fill="#FFFF80"/>
<path d="M105.273 70.4167C102.097 69.6866 98.1031 69.9837 97.1681 76.1446C96.6327 79.6797 97.1655 81.9545 100.322 82.4335C103.48 82.9126 108.872 81.455 109.408 77.9198C109.943 74.3847 108.386 71.1314 105.273 70.4167Z" fill="#FF9EAB"/>
<path d="M107.394 70.2826C105.396 69.1657 103.031 69.0709 100.979 69.7318C98.4689 70.5388 97.3034 73.3259 97.8926 73.4898C99.281 73.8767 100.739 73.7767 102.083 74.5017C103.426 75.1934 104.179 75.967 105.027 76.9225C105.621 77.5783 106.351 78.0291 106.595 78.9001C106.817 79.6481 106.802 80.5191 106.928 81.1365C107.245 82.7119 111.518 81.9793 110.711 78.9898C110.445 78.0061 110.66 77.6884 110.729 77.3605C111.201 74.3711 109.733 71.5916 107.391 70.2826H107.394Z" fill="#0071EB"/>
<path d="M108.211 77.6703C107.286 77.3936 106.187 77.9111 105.757 78.8205C105.326 79.7324 105.728 80.6931 106.653 80.9697C107.578 81.2464 108.677 80.7289 109.107 79.8195C109.538 78.9076 109.135 77.9469 108.211 77.6703Z" fill="#FF9EAB"/>
<path d="M98.5131 76.1129C98.2544 76.0181 97.97 76.1488 97.8727 76.405C97.7779 76.6637 97.9086 76.948 98.1647 77.0454C98.4235 77.1402 98.7078 77.0095 98.8051 76.7533C98.8999 76.4946 98.7693 76.2103 98.5131 76.1129Z" fill="#360530"/>
<path d="M99.9426 78.4318C99.9195 78.4318 99.8965 78.4267 99.876 78.4139C99.8504 78.3985 99.6301 78.2577 99.5993 78.0117C99.5788 77.8503 99.6454 77.6915 99.7966 77.5404C99.8478 77.4891 99.9298 77.4891 99.981 77.5404C100.032 77.5916 100.032 77.6736 99.981 77.7248C99.8914 77.817 99.8478 77.9016 99.858 77.9784C99.8709 78.0809 99.9708 78.1654 100.009 78.1885C100.071 78.2269 100.089 78.3063 100.053 78.3678C100.027 78.4088 99.9861 78.4293 99.94 78.4293L99.9426 78.4318Z" fill="#360530"/>
<path d="M99.8835 80.2391C99.7657 80.2391 99.6402 80.2135 99.507 80.1648C99.2252 80.0598 99.0382 79.8933 98.9536 79.6704C98.8153 79.3118 98.9997 78.9429 99.0074 78.9275C99.0382 78.8686 99.1073 78.8404 99.1688 78.8635L100.596 79.3963C100.657 79.4194 100.693 79.4834 100.678 79.55C100.673 79.568 100.578 79.9702 100.237 80.152C100.129 80.211 100.012 80.2391 99.8835 80.2391ZM99.197 79.1581C99.1663 79.2631 99.1355 79.4271 99.197 79.5782C99.2559 79.7268 99.3891 79.8421 99.5966 79.9189C99.8016 79.9958 99.9732 79.9958 100.112 79.9215C100.255 79.8446 100.34 79.6986 100.383 79.5987L99.1996 79.1581H99.197Z" fill="#360530"/>
<path d="M102.726 77.8336C102.47 77.7388 102.183 77.8695 102.086 78.1257C101.991 78.3844 102.121 78.6687 102.378 78.7661C102.636 78.8609 102.921 78.7302 103.018 78.474C103.113 78.2179 102.982 77.931 102.726 77.8336Z" fill="#360530"/>
</g>
<defs>
<clipPath id="clip0_47_13146">
<rect width="208" height="147.333" fill="white"/>
</clipPath>
</defs>
</svg>
