<svg width="208" height="148" viewBox="0 0 208 148" fill="none" xmlns="http://www.w3.org/2000/svg">
<g clip-path="url(#clip0_47_6269)">
<path d="M57.3107 123.628L47.9004 119.14L55.5985 99.2109L68.3907 103.868L57.3107 123.628Z" fill="#FF9EAB"/>
<path d="M112.375 102.425L111.047 112.767C111.047 112.767 94.9122 110.301 90.5669 108.816C89.3576 108.403 87.7513 108.059 86.4043 105.85C89.0612 104.233 97.3679 98.9453 97.3679 98.9453L98.3021 99.7683L112.375 102.423V102.425Z" fill="#FF9EAB"/>
<path d="M47.9036 119.139L40.3281 135.014L49.7381 139.504L57.3136 123.629L47.9036 119.139Z" fill="#FFFFE9"/>
<path d="M55.8391 122.933L48.2637 138.809L48.5455 138.943L56.121 123.068L55.8391 122.933Z" fill="#FFD833"/>
<path d="M54.4876 122.287L46.9121 138.162L47.1939 138.297L54.7694 122.421L54.4876 122.287Z" fill="#FFD833"/>
<path d="M53.138 121.646L45.5625 137.521L45.8443 137.656L53.4198 121.781L53.138 121.646Z" fill="#FFD833"/>
<path d="M51.7903 121.002L44.2148 136.877L44.4967 137.011L52.0721 121.136L51.7903 121.002Z" fill="#FFD833"/>
<path d="M50.4399 120.34L42.8672 136.217L43.149 136.351L50.7217 120.475L50.4399 120.34Z" fill="#FFD833"/>
<path d="M49.0891 119.713L41.5137 135.588L41.7955 135.722L49.371 119.847L49.0891 119.713Z" fill="#FFD833"/>
<path d="M43.9106 130.513C43.9027 129.976 43.601 129.32 43.1802 128.986L43.1432 128.957C39.1182 130.145 34.8047 130.553 30.0625 129.772C27.9825 129.902 26.1354 131.148 25.2383 133.03L47.7081 143.753L51.2912 136.242C51.2912 136.242 45.3793 133.435 44.5669 132.866C43.3575 132.019 43.9265 131.376 43.9133 130.51L43.9106 130.513Z" fill="#C7DA3D"/>
<path d="M48.6388 140.46L28.4686 130.836C28.3919 130.799 28.2966 130.83 28.2595 130.91C28.2225 130.987 28.2543 131.082 28.3336 131.119L48.5038 140.743C48.525 140.754 48.5488 140.759 48.5699 140.759C48.6282 140.759 48.6837 140.728 48.7102 140.669C48.7472 140.593 48.7155 140.497 48.6361 140.46H48.6388Z" fill="white"/>
<path d="M34.2762 130.209C34.1941 129.963 33.9295 129.83 33.6834 129.91C33.4373 129.992 33.305 130.256 33.3843 130.503L34.247 133.106C34.3132 133.302 34.4958 133.429 34.6916 133.429C34.7393 133.429 34.7895 133.421 34.8398 133.406C35.0859 133.323 35.2182 133.059 35.1388 132.813L34.2762 130.209Z" fill="white"/>
<path d="M36.7078 129.947C36.6258 129.701 36.3611 129.569 36.115 129.648C35.8689 129.727 35.7366 129.995 35.816 130.241L36.6787 132.845C36.7448 133.041 36.9274 133.168 37.1233 133.168C37.1709 133.168 37.2212 133.16 37.2715 133.144C37.5176 133.062 37.6499 132.797 37.5705 132.551L36.7078 129.947Z" fill="white"/>
<path d="M39.2728 129.587C39.2146 129.468 39.0876 129.396 38.9526 129.412C38.8203 129.428 38.7118 129.526 38.6854 129.658L38.0423 132.699C38.0211 132.797 38.0476 132.898 38.1138 132.972C38.1746 133.038 38.2593 133.077 38.3466 133.077C38.3572 133.077 38.3652 133.077 38.3757 133.077L40.3949 132.887C40.4981 132.876 40.5881 132.818 40.6383 132.728C40.6886 132.638 40.6913 132.53 40.6463 132.44L39.2702 129.59L39.2728 129.587ZM38.7409 132.411L39.1061 130.683L39.8894 132.302L38.7409 132.411Z" fill="white"/>
<path d="M25.793 131.873L25.2402 133.031L47.7095 143.753L48.2623 142.595L25.793 131.873Z" fill="white"/>
<path d="M48.3277 142.453L25.8579 131.73C25.7812 131.693 25.6859 131.725 25.6489 131.804L25.0958 132.963C25.0773 133 25.0746 133.043 25.0905 133.083C25.1037 133.122 25.1328 133.154 25.1699 133.172L47.6397 143.895C47.6609 143.906 47.6847 143.911 47.7058 143.911C47.7244 143.911 47.7402 143.909 47.7588 143.903C47.7985 143.89 47.8302 143.861 47.8487 143.824L48.4018 142.665C48.4389 142.588 48.4071 142.493 48.3277 142.456V142.453ZM47.6317 143.546L25.4451 132.958L25.8632 132.082L48.0499 142.67L47.6317 143.546Z" fill="#C7DA3D"/>
<path d="M112.369 102.416L111.041 112.758L128.488 114.999L129.816 104.657L112.369 102.416Z" fill="#FFFFE9"/>
<path d="M112.202 103.727L112.162 104.037L129.609 106.278L129.649 105.969L112.202 103.727Z" fill="#FFD833"/>
<path d="M112.01 105.208L111.971 105.518L129.417 107.759L129.457 107.449L112.01 105.208Z" fill="#FFD833"/>
<path d="M111.823 106.692L111.783 107.002L129.23 109.243L129.27 108.933L111.823 106.692Z" fill="#FFD833"/>
<path d="M111.63 108.177L111.59 108.486L129.036 110.727L129.076 110.418L111.63 108.177Z" fill="#FFD833"/>
<path d="M111.438 109.659L111.398 109.969L128.845 112.21L128.885 111.9L111.438 109.659Z" fill="#FFD833"/>
<path d="M111.251 111.143L111.211 111.453L128.658 113.694L128.697 113.385L111.251 111.143Z" fill="#FFD833"/>
<path d="M125.132 111.652C124.703 113.067 123.918 112.726 123.097 113.009C122.589 113.184 122.06 113.676 121.877 114.182L121.861 114.227C124.248 117.68 125.979 121.649 126.72 126.4C127.493 128.337 129.252 129.699 131.322 129.967L134.495 105.274L126.241 104.213C126.241 104.213 125.418 110.707 125.132 111.654V111.652Z" fill="#C7DA3D"/>
<path d="M131.249 105.274C131.164 105.264 131.085 105.324 131.074 105.409L128.224 127.575C128.213 127.659 128.274 127.739 128.359 127.749C128.367 127.749 128.372 127.749 128.38 127.749C128.457 127.749 128.526 127.691 128.536 127.612L131.386 105.446C131.397 105.361 131.336 105.282 131.251 105.271L131.249 105.274Z" fill="white"/>
<path d="M128.019 120.625L125.815 122.258C125.606 122.412 125.564 122.705 125.717 122.914C125.81 123.039 125.95 123.105 126.095 123.105C126.193 123.105 126.291 123.076 126.373 123.012L128.578 121.379C128.787 121.226 128.829 120.932 128.676 120.723C128.522 120.514 128.228 120.472 128.019 120.625Z" fill="white"/>
<path d="M127.013 118.397L124.809 120.03C124.6 120.183 124.558 120.477 124.711 120.686C124.804 120.81 124.944 120.876 125.09 120.876C125.188 120.876 125.285 120.847 125.367 120.784L127.572 119.151C127.781 118.997 127.823 118.704 127.67 118.495C127.516 118.286 127.223 118.243 127.013 118.397Z" fill="white"/>
<path d="M126.448 115.607C126.409 115.514 126.324 115.446 126.224 115.424C126.123 115.403 126.02 115.435 125.946 115.506L123.667 117.703C123.572 117.796 123.545 117.938 123.601 118.06C123.654 118.171 123.765 118.24 123.884 118.24C123.895 118.24 123.908 118.24 123.919 118.24L127.007 117.901C127.105 117.891 127.195 117.833 127.242 117.748C127.293 117.663 127.298 117.557 127.258 117.467L126.446 115.607H126.448ZM124.76 117.518L126.054 116.269L126.515 117.327L124.757 117.52L124.76 117.518Z" fill="white"/>
<path d="M133.227 105.118L130.051 129.811L131.324 129.974L134.5 105.281L133.227 105.118Z" fill="white"/>
<path d="M134.514 105.114L133.241 104.95C133.157 104.94 133.077 105.001 133.067 105.085L129.894 129.778C129.883 129.863 129.944 129.942 130.029 129.953L131.302 130.117C131.302 130.117 131.315 130.117 131.323 130.117C131.357 130.117 131.392 130.106 131.418 130.085C131.45 130.059 131.474 130.022 131.476 129.982L134.649 105.289C134.654 105.247 134.644 105.207 134.617 105.173C134.591 105.138 134.554 105.12 134.514 105.112V105.114ZM131.185 129.786L130.222 129.662L133.355 105.279L134.318 105.403L131.185 129.786Z" fill="#C7DA3D"/>
<path d="M102.137 67.7258C101.992 68.8981 102.431 69.5597 103.064 69.6365C103.696 69.7158 104.276 69.2316 104.426 68.009L105.345 60.6152L103.056 60.332L102.137 67.7258Z" fill="#FF9EAB"/>
<path d="M104.368 68.4641C104.222 69.6364 104.662 70.298 105.294 70.3748C105.926 70.4542 106.506 69.9699 106.657 68.7473L107.382 62.9042L105.093 62.6211L104.368 68.4641Z" fill="#FF9EAB"/>
<path d="M106.706 68.3681C106.56 69.5404 106.999 70.202 107.632 70.2788C108.264 70.3582 108.844 69.8739 108.995 68.6513L109.595 63.8085L107.306 63.5254L106.706 68.3681Z" fill="#FF9EAB"/>
<path d="M109.057 68.1455C108.912 69.3178 109.351 69.9794 109.983 70.0562C110.616 70.1355 111.195 69.6513 111.346 68.4287L112.058 62.6835L109.769 62.4004L109.057 68.1455Z" fill="#FF9EAB"/>
<path d="M102.276 63.9619C102.032 65.9228 103.424 67.7117 105.388 67.9552L109.892 68.5136C110.678 68.6115 111.392 68.0531 111.49 67.2698L113.192 53.5461L103.713 52.3711L102.273 63.9646L102.276 63.9619Z" fill="#FF9EAB"/>
<path d="M104.112 57.8943C102.256 58.8072 101.058 60.2442 100.714 62.7846C100.431 64.8646 101.981 66.4286 102.958 66.3466C105.133 66.164 102.661 63.044 104.733 62.6285C108.02 61.9722 109.031 61.181 108.539 59.3021C107.827 56.5843 105.191 57.3623 104.114 57.8916L104.112 57.8943Z" fill="#FF9EAB"/>
<path d="M102.863 61.8659C102.778 61.8553 102.699 61.9162 102.688 62.0009L102.243 65.5787C102.233 65.6634 102.294 65.7428 102.378 65.7534C102.384 65.7534 102.392 65.7534 102.397 65.7534C102.474 65.7534 102.542 65.6951 102.553 65.6157L102.998 62.0379C103.008 61.9533 102.947 61.8739 102.863 61.8633V61.8659Z" fill="#360530"/>
<path d="M84.7557 106.7C84.7557 106.7 81.8236 100.394 81.0165 98.1605C78.4258 90.9969 77.3514 86.0219 75.147 78.8504C74.3557 76.2385 73.6201 73.5948 72.9717 70.9406L72.8262 70.324L93.9728 66.0449C95.296 73.2191 97.1431 80.5758 99.8053 87.3053C100.951 90.031 102.11 92.6853 104.01 94.8659L84.7531 106.703L84.7557 106.7Z" fill="#FF3F31"/>
<path d="M64.8798 59.6094L65.7504 64.5236C66.1315 66.6724 65.8325 68.8873 64.8798 70.8509C57.1076 86.9007 52.9873 97.1155 52.6406 98.1343L73.9513 105.893C74.8987 103.61 78.7808 94.1119 80.1066 91.6403C84.0999 84.1856 85.992 81.6452 92.3643 76.0826C94.7989 73.9577 95.9474 70.581 95.9474 68.1834C95.9474 64.7617 94.0183 59.6094 94.0183 59.6094H64.8798Z" fill="#FF3F31"/>
<path d="M97.8641 9.53769C95.9641 8.50034 95.9058 4.08895 90.5656 4.57587C84.1033 5.16864 83.0342 4.17098 80.9807 2.6917C76.8022 -0.319801 73.7907 -0.86494 69.6227 1.36325C65.8756 3.3665 76.1088 7.33596 76.3973 11.3954C76.6857 15.4892 80.3112 19.1914 84.2568 17.3734C90.8196 14.3487 89.5574 21.5863 97.3957 19.4587C99.6027 18.8606 103.548 12.6418 97.8641 9.53504V9.53769Z" fill="#0071EB"/>
<path d="M74.1694 1.83773C70.2846 1.93036 66.6988 3.25615 67.4319 10.6473C67.8526 14.8867 68.1966 17.5515 71.9862 17.1757C75.7757 16.8 81.5737 13.5291 81.153 9.28709C80.7322 5.0477 77.9748 1.74776 74.1667 1.83773H74.1694Z" fill="#FF9EAB"/>
<path d="M79.7083 12.316L70.7969 13.1992L71.9317 24.6493L80.8431 23.7661L79.7083 12.316Z" fill="#FF9EAB"/>
<path d="M76.5908 15.496C75.0877 16.3216 73.4046 16.8774 71.973 17.0203C71.8857 17.0282 71.8248 17.1049 71.8327 17.1923C71.8407 17.2743 71.9095 17.3325 71.9889 17.3325C71.9942 17.3325 71.9994 17.3325 72.0047 17.3325C73.4761 17.187 75.2015 16.618 76.7416 15.7712C76.8184 15.7289 76.8448 15.6336 76.8025 15.5595C76.7602 15.4828 76.6649 15.4563 76.5908 15.4986V15.496Z" fill="#360530"/>
<path d="M77.7707 1.28104C75.4129 -0.158553 69.2549 -0.272344 66.9923 3.94058C65.9629 5.85915 66.0397 8.5478 67.4687 8.66953C68.506 8.7595 69.5566 7.41253 69.7948 5.17905C70.4352 8.12174 77.8131 9.02678 78.337 8.74892C78.3476 8.73304 78.3582 8.71981 78.3714 8.70922C78.3741 8.7251 78.3609 8.73833 78.337 8.74892C78.0168 9.27553 79.1786 12.6231 79.7449 13.1074C80.1736 13.4726 80.6923 13.2979 80.896 12.8401C83.7487 6.3937 80.5838 2.99584 77.7707 1.27839V1.28104Z" fill="#0071EB"/>
<path d="M78.3723 8.71289C78.3723 8.71289 78.3485 8.73671 78.3379 8.75259C78.3591 8.742 78.3749 8.72877 78.3723 8.71289Z" fill="#0071EB"/>
<path d="M79.5921 7.50516C78.4674 7.38078 77.4142 8.55045 77.2395 10.1197C77.0649 11.689 77.835 13.0624 78.9623 13.1868C80.087 13.3112 81.1402 12.1415 81.3149 10.5722C81.4895 9.00297 80.7194 7.62954 79.5921 7.50516Z" fill="#FF9EAB"/>
<path d="M79.7992 9.56664C79.7727 9.57193 79.127 9.736 78.6348 10.5008C78.5872 10.5722 78.6083 10.6701 78.6824 10.7178C78.7089 10.7337 78.738 10.7416 78.7671 10.7416C78.8174 10.7416 78.8677 10.7151 78.8994 10.6701C79.3202 10.0165 79.8706 9.87096 79.8759 9.87096C79.9606 9.84979 80.0109 9.76511 79.9897 9.68308C79.9685 9.5984 79.8839 9.54812 79.8018 9.56929L79.7992 9.56664Z" fill="#360530"/>
<path d="M30.1763 19.2263C29.6047 18.4244 28.8929 18.3186 28.3742 18.6891C27.8555 19.0595 27.702 19.7317 28.3001 20.5679L30.5971 23.7805C30.9676 24.2992 31.6874 24.4183 32.206 24.0478C32.7247 23.6773 32.8438 22.9575 32.4733 22.4389L30.1763 19.2263Z" fill="#FF9EAB"/>
<path d="M28.1224 20.3193C27.4925 19.4381 26.7489 19.2872 26.2329 19.6577C25.7142 20.0282 25.5872 20.7401 26.2461 21.661L28.7204 25.1223C29.0909 25.641 29.8107 25.7601 30.3294 25.3896C30.848 25.0191 30.9671 24.2993 30.5966 23.7807L28.1224 20.3193Z" fill="#FF9EAB"/>
<path d="M26.5527 22.0901C25.8646 21.1295 25.0946 20.9389 24.5785 21.3094C24.0599 21.6799 23.9593 22.4288 24.6765 23.4317L26.8438 26.4644C27.2143 26.9831 27.9341 27.1022 28.4527 26.7317C28.9714 26.3612 29.0905 25.6414 28.72 25.1227L26.5527 22.0901Z" fill="#FF9EAB"/>
<path d="M24.78 23.5736C24.2217 22.7929 23.5178 22.695 22.9991 23.0655C22.4804 23.436 22.3216 24.1002 22.9038 24.9152L24.9679 27.8024C25.3384 28.321 26.0582 28.4401 26.5769 28.0696C27.0956 27.6992 27.2147 26.9794 26.8442 26.4607L24.78 23.5736Z" fill="#FF9EAB"/>
<path d="M27.8019 21.5013L24.1103 24.1423C23.4672 24.6027 23.319 25.4972 23.7795 26.1403L31.9328 37.5458L39.7023 31.9912L32.7981 22.3322C31.647 20.7233 29.4135 20.3528 27.8045 21.5013H27.8019Z" fill="#FF9EAB"/>
<path d="M30.6779 21.036C29.2013 22.6423 33.1337 23.2642 31.8899 24.9737C29.9184 27.6835 29.7094 28.9511 31.3448 29.999C33.7106 31.5154 35.1211 29.1575 35.5551 28.0381C36.3013 26.109 36.2087 24.2407 34.7427 22.1395C33.5412 20.4194 31.3422 20.3162 30.6779 21.036Z" fill="#FF9EAB"/>
<path d="M31.319 22.8658C30.9062 22.5006 30.5198 22.1566 30.4987 21.7782C30.4881 21.5771 30.586 21.368 30.7924 21.1404C30.848 21.0796 30.9194 21.024 31.0015 20.9764C31.0756 20.934 31.102 20.8388 31.0597 20.762C31.0173 20.6879 30.9221 20.6615 30.8453 20.7038C30.7342 20.7673 30.6389 20.8414 30.5622 20.9261C30.2949 21.2172 30.1705 21.5003 30.1864 21.7914C30.2129 22.2995 30.668 22.7044 31.11 23.0961C31.8483 23.7497 32.2585 24.1943 31.7636 24.877C30.4352 26.703 29.9588 27.8065 30.1229 28.6824C30.2261 29.2355 30.5886 29.696 31.2582 30.1247C31.2846 30.1405 31.3137 30.1485 31.3428 30.1485C31.3931 30.1485 31.446 30.122 31.4752 30.077C31.5228 30.0056 31.5016 29.9077 31.4275 29.86C30.8347 29.479 30.5172 29.0873 30.4299 28.6216C30.2843 27.8488 30.758 26.7824 32.015 25.057C32.7136 24.0964 31.9383 23.411 31.3164 22.8579L31.319 22.8658Z" fill="#360530"/>
<path d="M30.506 23.6512C30.4346 23.7015 30.4187 23.7994 30.469 23.8682C30.7892 24.3154 30.686 24.94 30.2388 25.2602C30.0218 25.4136 29.7571 25.4772 29.4952 25.4322C29.2332 25.3898 29.0029 25.2443 28.8468 25.0273L26.7403 22.0819C26.6901 22.0105 26.5922 21.9946 26.5233 22.0449C26.4519 22.0952 26.436 22.1931 26.4863 22.2619L28.5928 25.2072C28.7965 25.493 29.0982 25.6809 29.4422 25.7365C29.5137 25.7497 29.5878 25.755 29.6592 25.755C29.9291 25.755 30.1938 25.6703 30.4187 25.5116C31.0062 25.0908 31.1412 24.2731 30.723 23.6856C30.6728 23.6142 30.5748 23.5983 30.506 23.6486V23.6512Z" fill="#360530"/>
<path d="M28.6298 24.9932C28.5583 25.0435 28.5424 25.1414 28.5927 25.2102C28.7462 25.4272 28.8097 25.6919 28.7647 25.9538C28.7197 26.2158 28.5768 26.4461 28.3598 26.6022C27.9126 26.9224 27.2881 26.8192 26.9679 26.372L25.0255 23.6542C24.9752 23.5828 24.8773 23.5669 24.8085 23.6172C24.7371 23.6674 24.7212 23.7654 24.7715 23.8342L26.7138 26.5519C26.9176 26.8377 27.2193 27.0256 27.5633 27.0812C27.6348 27.0944 27.7089 27.0997 27.7803 27.0997C28.0502 27.0997 28.3149 27.015 28.5398 26.8562C28.8256 26.6525 29.0135 26.3508 29.0691 26.0068C29.1273 25.6628 29.0452 25.3161 28.8415 25.0303C28.7912 24.9615 28.6933 24.943 28.6245 24.9932H28.6298Z" fill="#360530"/>
<path d="M26.754 26.3344C26.6825 26.3847 26.6667 26.4826 26.717 26.5514C27.0372 26.9987 26.9339 27.6232 26.4867 27.9408C26.0395 28.261 25.415 28.1578 25.0948 27.7105L23.4435 25.4003C23.3932 25.3289 23.2953 25.313 23.2265 25.3633C23.155 25.4135 23.1391 25.5114 23.1894 25.5803L24.8407 27.8905C25.0445 28.1763 25.3462 28.3642 25.6902 28.4197C25.7616 28.433 25.8357 28.4383 25.9072 28.4383C26.1771 28.4383 26.4417 28.3536 26.6667 28.1948C27.2542 27.774 27.3891 26.9563 26.971 26.3688C26.9207 26.2974 26.8228 26.2815 26.754 26.3318V26.3344Z" fill="#360530"/>
<path d="M32.0041 23.9873C31.5648 24.2229 31.0143 24.0932 30.7232 23.6883L28.8126 21.0155C28.7623 20.9441 28.6644 20.9282 28.5956 20.9785C28.5242 21.0288 28.5083 21.1267 28.5586 21.1955L30.4692 23.8683C30.7232 24.2229 31.1255 24.416 31.5383 24.416C31.7474 24.416 31.9591 24.3658 32.1522 24.2626C32.229 24.2229 32.2581 24.1276 32.2158 24.0508C32.1761 23.9741 32.0808 23.945 32.0041 23.9873Z" fill="#360530"/>
<path d="M83.0702 18.9929L77.6426 35.273C78.9631 35.4873 95.5263 38.3718 98.5061 42.2989C101.568 46.3372 102.023 52.9688 101.785 58.01L101.777 58.1476V58.2058L101.772 58.227C101.75 58.19 115.228 60.0927 115.233 60.0821C116.535 50.5898 115.868 39.5679 109.531 31.7375C103.854 24.9603 91.5119 20.9776 83.0675 18.9902L83.0702 18.9929Z" fill="#F8FFC4"/>
<path d="M46.9272 36.4153C44.7334 34.4121 37.4296 26.2958 37.4296 26.2958L26.1934 35.0022C26.1934 35.0022 33.6903 48.157 42.0209 50.8033C55.0407 54.9395 70.0982 39.3739 72.9245 35.2668L61.9238 23.1309C61.9238 23.1309 51.6694 32.8613 46.9272 36.418V36.4153Z" fill="#F8FFC4"/>
<path d="M79.9325 18.7012C75.6878 18.7012 66.5819 20.3287 62.8479 22.4827C59.114 24.6368 58.4418 29.6648 59.4633 34.2429L64.8141 60.1397C64.8141 60.1397 68.7254 62.5399 79.6308 62.5399C91.825 62.5399 99.6819 60.1397 99.6819 60.1397L90.1393 26.7168C88.4033 21.8688 86.6541 18.6985 79.9351 18.7012H79.9325Z" fill="#F8FFC4"/>
<path d="M60.4392 35.9198C60.4392 35.8325 60.3704 35.7637 60.2831 35.7637C60.1958 35.7637 60.127 35.8325 60.127 35.9198C60.127 39.7675 61.7597 45.1739 61.7756 45.2295C61.7968 45.2957 61.8576 45.3407 61.9264 45.3407C61.9423 45.3407 61.9556 45.3407 61.9714 45.3327C62.0535 45.3089 62.1011 45.2216 62.0746 45.1369C62.0588 45.084 60.4392 39.7225 60.4392 35.9198Z" fill="#360530"/>
<path d="M92.7377 38.9004C92.698 38.8924 88.8265 38.0562 85.7488 36.2805C85.6747 36.2382 85.5794 36.262 85.5345 36.3388C85.4921 36.4129 85.5159 36.5081 85.5927 36.5531C88.7153 38.3552 92.6345 39.1994 92.6742 39.21C92.6848 39.21 92.6954 39.2126 92.7059 39.2126C92.7774 39.2126 92.8435 39.1624 92.8594 39.0883C92.878 39.0036 92.8224 38.9216 92.7377 38.903V38.9004Z" fill="#360530"/>
<path d="M73.1924 9.53711C72.8642 9.53711 72.5996 9.84937 72.5996 10.2331C72.5996 10.6168 72.8642 10.9291 73.1924 10.9291C73.5205 10.9291 73.7852 10.6168 73.7852 10.2331C73.7852 9.84937 73.5205 9.53711 73.1924 9.53711Z" fill="#360530"/>
<path d="M68.3252 9.53711C67.997 9.53711 67.7324 9.84937 67.7324 10.2331C67.7324 10.6168 67.997 10.9291 68.3252 10.9291C68.6533 10.9291 68.918 10.6168 68.918 10.2331C68.918 9.84937 68.6533 9.53711 68.3252 9.53711Z" fill="#360530"/>
<path d="M70.2994 10.5686C70.347 10.4972 70.3258 10.3992 70.2517 10.3516C70.1803 10.304 70.0824 10.3251 70.0347 10.3992C70.0242 10.4151 69.7939 10.7724 69.6854 11.0079C69.5796 11.2408 69.5716 11.4445 69.6616 11.6165C69.7966 11.8785 70.1009 11.9447 70.1353 11.95C70.1459 11.95 70.1538 11.9526 70.1644 11.9526C70.2385 11.9526 70.302 11.8997 70.3179 11.8256C70.3338 11.7409 70.2782 11.6589 70.1962 11.643C70.1432 11.6324 69.9951 11.5795 69.9395 11.471C69.8971 11.389 69.9077 11.2752 69.9712 11.1349C70.0691 10.9206 70.2941 10.5686 70.2967 10.566L70.2994 10.5686Z" fill="#360530"/>
<path d="M71.2424 12.9277H69.4296C69.3503 12.9277 69.2841 12.986 69.2735 13.0653C69.2735 13.0865 69.2179 13.5734 69.5223 13.9175C69.7101 14.1292 69.988 14.2377 70.3479 14.2377C70.7078 14.2377 70.9724 14.1318 71.1577 13.9201C71.4594 13.5761 71.4011 13.0839 71.3985 13.0653C71.3879 12.9886 71.3218 12.9304 71.2424 12.9304V12.9277ZM70.9222 13.7137C70.7978 13.8539 70.6046 13.9254 70.3453 13.9254C70.0859 13.9254 69.8822 13.8539 69.7551 13.711C69.6255 13.5655 69.5884 13.3697 69.5805 13.24H71.0862C71.0809 13.3697 71.0465 13.5681 70.9195 13.7137H70.9222Z" fill="#360530"/>
<path d="M107.242 126.766L97.834 122.275L105.495 102.375L118.287 107.033L107.242 126.766Z" fill="#FF9EAB"/>
<path d="M97.8313 122.271L90.2559 138.146L99.6658 142.637L107.241 126.762L97.8313 122.271Z" fill="#FFFFE9"/>
<path d="M105.769 126.072L98.1934 141.947L98.4752 142.082L106.051 126.207L105.769 126.072Z" fill="#360530"/>
<path d="M104.418 125.415L96.8457 141.291L97.1275 141.425L104.7 125.549L104.418 125.415Z" fill="#360530"/>
<path d="M103.074 124.783L95.498 140.658L95.7799 140.793L103.355 124.918L103.074 124.783Z" fill="#360530"/>
<path d="M101.722 124.14L94.1465 140.016L94.4283 140.15L102.004 124.275L101.722 124.14Z" fill="#360530"/>
<path d="M100.374 123.496L92.7988 139.371L93.0807 139.506L100.656 123.63L100.374 123.496Z" fill="#360530"/>
<path d="M99.0247 122.851L91.4492 138.727L91.731 138.861L99.3065 122.986L99.0247 122.851Z" fill="#360530"/>
<path d="M93.8442 133.649C93.8363 133.112 93.5346 132.456 93.1138 132.125L93.0768 132.096C89.0491 133.284 84.7383 133.691 79.9961 132.913C77.9161 133.043 76.069 134.289 75.1719 136.171L97.6417 146.894L101.225 139.384C101.225 139.384 95.3129 136.576 94.5005 136.007C93.2911 135.16 93.8601 134.517 93.8469 133.652L93.8442 133.649Z" fill="#0071EB"/>
<path d="M98.5723 143.599L78.4022 133.974C78.3255 133.937 78.2302 133.969 78.1931 134.048C78.1561 134.125 78.1878 134.22 78.2672 134.258L98.4374 143.882C98.4586 143.893 98.4824 143.898 98.5035 143.898C98.5618 143.898 98.6173 143.866 98.6438 143.808C98.6808 143.731 98.6491 143.636 98.5697 143.599H98.5723Z" fill="white"/>
<path d="M84.2058 133.345C84.1238 133.099 83.8592 132.967 83.6131 133.046C83.367 133.128 83.2346 133.393 83.314 133.639L84.1767 136.243C84.2429 136.439 84.4255 136.566 84.6213 136.566C84.6689 136.566 84.7192 136.558 84.7695 136.542C85.0156 136.46 85.1479 136.196 85.0685 135.949L84.2058 133.345Z" fill="white"/>
<path d="M86.6375 133.086C86.5554 132.84 86.2908 132.708 86.0447 132.79C85.7986 132.872 85.6663 133.137 85.7457 133.383L86.6084 135.987C86.6745 136.182 86.8571 136.31 87.053 136.31C87.1032 136.31 87.1509 136.302 87.2011 136.286C87.4473 136.204 87.5796 135.939 87.5002 135.693L86.6375 133.089V133.086Z" fill="white"/>
<path d="M89.2025 132.726C89.1443 132.604 89.0146 132.535 88.8823 132.551C88.75 132.567 88.6415 132.665 88.615 132.797L87.972 135.838C87.9508 135.936 87.9773 136.036 88.0434 136.11C88.1043 136.177 88.189 136.216 88.2763 136.216C88.2869 136.216 88.2948 136.216 88.3054 136.216L90.3246 136.026C90.4278 136.015 90.5177 135.957 90.568 135.867C90.6183 135.777 90.6209 135.668 90.576 135.578L89.1999 132.728L89.2025 132.726ZM88.6733 135.549L89.0385 133.821L89.8218 135.441L88.6733 135.549Z" fill="white"/>
<path d="M75.7188 135.01L75.166 136.168L97.6353 146.89L98.1881 145.732L75.7188 135.01Z" fill="white"/>
<path d="M98.2574 145.592L75.7876 134.869C75.7109 134.832 75.6156 134.864 75.5786 134.943L75.0255 136.102C75.007 136.139 75.0043 136.181 75.0202 136.221C75.0334 136.261 75.0625 136.293 75.0996 136.311L97.5694 147.034C97.5905 147.045 97.6144 147.05 97.6355 147.05C97.6937 147.05 97.7493 147.018 97.7758 146.96L98.3289 145.801C98.3474 145.764 98.35 145.721 98.3341 145.682C98.3209 145.642 98.2918 145.61 98.2548 145.592H98.2574ZM97.5641 146.685L75.3774 136.097L75.7956 135.221L97.9822 145.809L97.5641 146.685Z" fill="#0071EB"/>
<path d="M163.268 103.94L161.939 114.281L179.386 116.522L180.715 106.181L163.268 103.94Z" fill="#DCE0B3"/>
<path d="M163.098 105.245L163.059 105.555L180.505 107.796L180.545 107.486L163.098 105.245Z" fill="#360530"/>
<path d="M162.911 106.729L162.871 107.039L180.318 109.28L180.358 108.97L162.911 106.729Z" fill="#360530"/>
<path d="M162.718 108.214L162.678 108.523L180.124 110.765L180.164 110.455L162.718 108.214Z" fill="#360530"/>
<path d="M162.528 109.694L162.488 110.004L179.935 112.245L179.975 111.935L162.528 109.694Z" fill="#360530"/>
<path d="M162.339 111.179L162.299 111.488L179.745 113.729L179.785 113.42L162.339 111.179Z" fill="#360530"/>
<path d="M162.149 112.663L162.109 112.973L179.556 115.214L179.596 114.904L162.149 112.663Z" fill="#360530"/>
<path d="M176.033 113.171C175.604 114.587 174.818 114.246 173.998 114.529C173.489 114.703 172.96 115.196 172.778 115.701L172.762 115.746C175.149 119.199 176.879 123.169 177.62 127.919C178.393 129.856 180.153 131.219 182.222 131.486L185.395 106.794L177.141 105.732C177.141 105.732 176.318 112.226 176.033 113.174V113.171Z" fill="#0071EB"/>
<path d="M182.151 106.794C182.066 106.783 181.987 106.844 181.976 106.929L179.126 129.094C179.116 129.179 179.176 129.258 179.261 129.269C179.269 129.269 179.274 129.269 179.282 129.269C179.359 129.269 179.428 129.211 179.438 129.131L182.289 106.966C182.299 106.881 182.238 106.802 182.154 106.791L182.151 106.794Z" fill="white"/>
<path d="M178.922 122.145L176.717 123.778C176.508 123.931 176.466 124.225 176.619 124.434C176.712 124.558 176.852 124.624 176.998 124.624C177.096 124.624 177.194 124.595 177.276 124.532L179.48 122.899C179.689 122.746 179.731 122.452 179.578 122.243C179.424 122.034 179.131 121.991 178.922 122.145Z" fill="white"/>
<path d="M177.914 119.916L175.71 121.549C175.5 121.703 175.458 121.996 175.612 122.205C175.704 122.33 175.844 122.396 175.99 122.396C176.088 122.396 176.186 122.367 176.268 122.303L178.472 120.67C178.681 120.517 178.724 120.223 178.57 120.014C178.417 119.805 178.123 119.763 177.914 119.916Z" fill="white"/>
<path d="M177.351 117.127C177.311 117.034 177.226 116.965 177.126 116.944C177.025 116.923 176.922 116.955 176.848 117.026L174.57 119.222C174.474 119.315 174.448 119.458 174.503 119.58C174.556 119.691 174.667 119.76 174.787 119.76C174.797 119.76 174.81 119.76 174.821 119.76L177.909 119.421C178.007 119.41 178.097 119.352 178.145 119.267C178.195 119.18 178.2 119.077 178.161 118.987L177.351 117.127ZM175.66 119.037L176.954 117.788L177.414 118.847L175.657 119.04L175.66 119.037Z" fill="white"/>
<path d="M184.123 106.627L180.951 131.32L182.224 131.484L185.396 106.79L184.123 106.627Z" fill="white"/>
<path d="M185.417 106.634L184.144 106.47C184.059 106.459 183.98 106.52 183.969 106.605L180.796 131.298C180.791 131.34 180.802 131.38 180.828 131.414C180.854 131.448 180.892 131.467 180.931 131.475L182.204 131.639C182.204 131.639 182.217 131.639 182.225 131.639C182.302 131.639 182.371 131.581 182.379 131.501L185.552 106.809C185.557 106.766 185.546 106.727 185.52 106.692C185.493 106.66 185.456 106.639 185.417 106.634ZM182.088 131.308L181.124 131.184L184.258 106.801L185.221 106.925L182.088 131.308Z" fill="#0071EB"/>
<path d="M152.84 69.5715C152.695 70.7438 153.134 71.4054 153.767 71.4821C154.399 71.5615 154.979 71.0773 155.13 69.8547L156.048 62.4609L153.759 62.1777L152.84 69.5715Z" fill="#FF9EAB"/>
<path d="M155.071 70.3079C154.925 71.4802 155.365 72.1418 155.997 72.2185C156.63 72.2979 157.209 71.8136 157.36 70.591L158.085 64.748L155.796 64.4648L155.071 70.3079Z" fill="#FF9EAB"/>
<path d="M157.409 70.2138C157.263 71.3861 157.703 72.0477 158.335 72.1245C158.968 72.2039 159.547 71.7196 159.698 70.497L160.299 65.6543L158.01 65.3711L157.409 70.2138Z" fill="#FF9EAB"/>
<path d="M159.76 69.9893C159.615 71.1616 160.054 71.8232 160.687 71.8999C161.319 71.9793 161.899 71.495 162.049 70.2724L162.761 64.5273L160.472 64.2441L159.76 69.9893Z" fill="#FF9EAB"/>
<path d="M152.979 65.8057C152.735 67.7666 154.127 69.5555 156.091 69.799L160.595 70.3573C161.381 70.4552 162.095 69.8969 162.193 69.1136L163.897 55.3898L154.418 54.2148L152.979 65.8083V65.8057Z" fill="#FF9EAB"/>
<path d="M154.815 59.7399C152.96 60.6529 151.761 62.0899 151.417 64.6303C151.134 66.7103 152.684 68.2743 153.661 68.1923C155.836 68.0097 153.364 64.8897 155.437 64.4742C158.723 63.8179 159.734 63.0267 159.242 61.1478C158.53 58.43 155.894 59.208 154.817 59.7373L154.815 59.7399Z" fill="#FF9EAB"/>
<path d="M153.566 63.7116C153.481 63.701 153.402 63.7619 153.391 63.8466L152.947 67.4244C152.936 67.5091 152.997 67.5885 153.081 67.5991C153.087 67.5991 153.095 67.5991 153.1 67.5991C153.177 67.5991 153.246 67.5408 153.256 67.4614L153.701 63.8836C153.711 63.799 153.65 63.7196 153.566 63.709V63.7116Z" fill="#360530"/>
<path d="M154.762 96.8365C152.862 94.656 151.7 92.0017 150.557 89.2761C147.895 82.5465 146.045 75.1898 144.725 68.0156L123.578 72.2947L123.724 72.9113C124.375 75.5655 125.11 78.2118 125.899 80.8211C128.103 87.9926 129.371 92.0044 132.319 99.2579C133.203 101.431 135.743 106.416 137.175 108.176L154.765 96.8365H154.762Z" fill="#0071EB"/>
<path d="M115.63 61.582L116.501 66.4962C116.882 68.645 116.62 70.8785 115.63 72.8235C107.519 88.7834 106.58 89.9028 101.518 102.944C104.704 104.603 121.77 110.536 121.77 110.536C123.651 106.498 124.347 104.606 127.663 97.9529C131.437 90.3844 136.743 83.6178 143.115 78.0553C145.549 75.9303 146.698 72.5536 146.698 70.1561C146.698 66.7344 144.769 61.582 144.769 61.582H115.63Z" fill="#0071EB"/>
<path d="M121.068 4.61898C117.183 4.71161 113.597 6.0374 114.33 13.4285C114.751 17.6679 115.095 20.3328 118.885 19.957C122.674 19.5812 128.472 16.3104 128.051 12.0683C127.631 7.82895 124.873 4.52901 121.065 4.61898H121.068Z" fill="#FF9EAB"/>
<path d="M126.605 15.0953L117.693 15.9785L118.828 27.4286L127.74 26.5454L126.605 15.0953Z" fill="#FF9EAB"/>
<path d="M123.487 18.2772C121.984 19.1029 120.301 19.6586 118.869 19.8015C118.785 19.8094 118.721 19.8862 118.729 19.9735C118.737 20.0529 118.806 20.1138 118.885 20.1138C118.891 20.1138 118.896 20.1138 118.901 20.1138C120.373 19.9682 122.098 19.3993 123.638 18.5525C123.715 18.5101 123.741 18.4148 123.699 18.3407C123.657 18.264 123.561 18.2375 123.487 18.2799V18.2772Z" fill="#360530"/>
<path d="M127.181 3.97166C124.707 1.83344 122.246 2.81522 120.142 2.13248C115.064 0.489119 111.933 6.09135 113.439 7.74529C110.965 9.52096 113.502 11.8418 114.151 11.5957C114.767 11.3601 115.834 5.05929 117.242 6.94875C121.542 12.7283 124.612 5.70499 123.275 10.0211C122.844 11.4157 124 12.9744 125.194 13.7842C125.522 13.7709 126.088 16.9333 126.768 17.1264C127.954 17.4625 127.523 16.0917 128.113 15.8403C128.917 15.4963 129.528 11.9344 128.645 10.2064C128.645 10.2064 130.28 6.64707 127.184 3.97166H127.181Z" fill="#FF3F31"/>
<path d="M126.491 10.2903C125.366 10.1659 124.313 11.3356 124.138 12.9049C123.963 14.4741 124.733 15.8476 125.861 15.9719C126.985 16.0963 128.039 14.9266 128.213 13.3574C128.388 11.7881 127.618 10.4147 126.491 10.2903Z" fill="#FF9EAB"/>
<path d="M126.694 12.3495C126.667 12.3575 126.022 12.5215 125.529 13.2837C125.482 13.3551 125.503 13.453 125.577 13.5007C125.603 13.5166 125.633 13.5245 125.662 13.5245C125.712 13.5245 125.762 13.5007 125.794 13.453C126.215 12.7994 126.765 12.6539 126.77 12.6539C126.855 12.6327 126.905 12.548 126.884 12.466C126.863 12.3813 126.781 12.331 126.696 12.3495H126.694Z" fill="#360530"/>
<path d="M80.8287 20.2809C80.2571 19.4791 79.5452 19.3733 79.0265 19.7437C78.5079 20.1142 78.3544 20.7864 78.9524 21.6226L81.2494 24.8352C81.6199 25.3539 82.3397 25.473 82.8584 25.1025C83.3771 24.732 83.4961 24.0122 83.1257 23.4936L80.8287 20.2809Z" fill="#FF9EAB"/>
<path d="M78.7756 21.3746C78.1458 20.4907 77.4022 20.3425 76.8861 20.713C76.3675 21.0835 76.2431 21.7953 76.8994 22.7162L79.3737 26.1776C79.7442 26.6963 80.464 26.8154 80.9826 26.4449C81.5013 26.0744 81.6204 25.3546 81.2499 24.8359L78.7756 21.3746Z" fill="#FF9EAB"/>
<path d="M77.205 23.1447C76.517 22.1841 75.7469 21.9936 75.2309 22.3641C74.7122 22.7346 74.6116 23.4835 75.3288 24.4864L77.4961 27.5191C77.8666 28.0378 78.5864 28.1569 79.1051 27.7864C79.6238 27.4159 79.7428 26.6961 79.3724 26.1774L77.205 23.1447Z" fill="#FF9EAB"/>
<path d="M75.4324 24.6322C74.874 23.8515 74.1701 23.7536 73.6514 24.1241C73.1328 24.4945 72.974 25.1588 73.5562 25.9738L75.6203 28.861C75.9908 29.3796 76.7106 29.4987 77.2292 29.1282C77.7479 28.7577 77.867 28.038 77.4965 27.5193L75.4324 24.6322Z" fill="#FF9EAB"/>
<path d="M78.4542 22.556L74.7626 25.197C74.1196 25.6574 73.9714 26.5519 74.4318 27.1949L82.5851 38.6005L90.3547 33.0459L83.4504 23.3869C82.3019 21.7779 80.0658 21.4075 78.4569 22.556H78.4542Z" fill="#FF9EAB"/>
<path d="M81.3303 22.0907C79.8536 23.697 83.786 24.3215 82.5423 26.0284C80.5708 28.7382 80.3617 30.0058 81.9971 31.0537C84.3629 32.5701 85.7734 30.2122 86.2074 29.0928C86.9537 27.1636 86.8611 25.2954 85.395 23.1942C84.1936 21.4741 81.9945 21.3709 81.3329 22.0907H81.3303Z" fill="#FF9EAB"/>
<path d="M81.9714 23.9205C81.5585 23.5553 81.1722 23.2113 81.151 22.8329C81.1404 22.6318 81.2383 22.4227 81.4448 22.1951C81.5003 22.1343 81.5718 22.0787 81.6538 22.0311C81.7279 21.9887 81.7544 21.8935 81.712 21.8167C81.6697 21.7426 81.5744 21.7161 81.4977 21.7585C81.3865 21.822 81.2913 21.8961 81.2145 21.9808C80.9472 22.2719 80.8229 22.555 80.8387 22.8461C80.8652 23.3542 81.3204 23.7591 81.7623 24.1507C82.5006 24.8044 82.9108 25.2516 82.4159 25.9317C81.0875 27.7577 80.6112 28.8612 80.7752 29.7371C80.8784 30.2902 81.241 30.7506 81.9105 31.1793C81.937 31.1952 81.9661 31.2032 81.9952 31.2032C82.0455 31.2032 82.0984 31.1767 82.1275 31.1317C82.1751 31.0603 82.154 30.9623 82.0799 30.9147C81.4871 30.5336 81.1695 30.142 81.0822 29.6762C80.9367 28.9035 81.4103 27.8371 82.6673 26.1117C83.366 25.1511 82.5906 24.4657 81.9687 23.9126L81.9714 23.9205Z" fill="#360530"/>
<path d="M81.1591 24.7078C81.0876 24.7581 81.0717 24.856 81.122 24.9248C81.2782 25.1418 81.339 25.4065 81.294 25.6685C81.249 25.9304 81.1061 26.1607 80.8892 26.3168C80.6722 26.4729 80.4075 26.5338 80.1455 26.4888C79.8836 26.4465 79.6533 26.3009 79.4972 26.0839L77.3907 23.1386C77.3405 23.0671 77.2425 23.0513 77.1737 23.1015C77.1023 23.1518 77.0864 23.2497 77.1367 23.3185L79.2431 26.2639C79.4469 26.5497 79.7486 26.7376 80.0926 26.7931C80.1641 26.8064 80.2382 26.8117 80.3096 26.8117C80.5795 26.8117 80.8442 26.727 81.0691 26.5682C81.6566 26.1474 81.7915 25.3297 81.3734 24.7422C81.3231 24.6708 81.2252 24.6549 81.1564 24.7052L81.1591 24.7078Z" fill="#360530"/>
<path d="M79.2795 26.0499C79.208 26.1002 79.1921 26.1981 79.2424 26.2669C79.5626 26.7141 79.4594 27.3386 79.0122 27.6588C78.565 27.979 77.9404 27.8758 77.6202 27.4286L75.6778 24.7108C75.6276 24.6394 75.5297 24.6235 75.4608 24.6738C75.3894 24.7241 75.3735 24.822 75.4238 24.8908L77.3662 27.6086C77.6202 27.9658 78.0251 28.1563 78.4326 28.1563C78.6973 28.1563 78.9619 28.077 79.1921 27.9129C79.7796 27.4921 79.9146 26.6744 79.4965 26.0869C79.4462 26.0155 79.3483 25.9996 79.2795 26.0499Z" fill="#360530"/>
<path d="M77.4031 27.3884C77.3317 27.4387 77.3158 27.5366 77.3661 27.6081C77.5196 27.8251 77.5831 28.0897 77.5381 28.3517C77.4957 28.6137 77.3502 28.8439 77.1332 29C76.9162 29.1535 76.6516 29.217 76.3896 29.1721C76.1276 29.1271 75.8974 28.9842 75.7412 28.7672L74.09 26.4569C74.0397 26.3855 73.9418 26.3696 73.873 26.4199C73.8015 26.4702 73.7856 26.5681 73.8359 26.6369L75.4872 28.9471C75.691 29.2329 75.9926 29.4208 76.3367 29.4764C76.4081 29.4896 76.4822 29.4949 76.5537 29.4949C76.8236 29.4949 77.0882 29.4102 77.3132 29.2514C77.599 29.0477 77.7868 28.746 77.8424 28.402C77.9006 28.058 77.8186 27.7113 77.6148 27.4255C77.5646 27.354 77.4666 27.3382 77.3978 27.3884H77.4031Z" fill="#360530"/>
<path d="M82.6564 25.044C82.2171 25.2795 81.6667 25.1498 81.3756 24.7449L79.465 22.0722C79.4147 22.0007 79.3168 21.9848 79.248 22.0351C79.1765 22.0854 79.1606 22.1833 79.2109 22.2521L81.1215 24.9249C81.3756 25.2795 81.7778 25.4727 82.1906 25.4727C82.3997 25.4727 82.6114 25.4224 82.8046 25.3192C82.8813 25.2795 82.9104 25.1842 82.8681 25.1075C82.8284 25.0307 82.7331 25.0016 82.6564 25.044Z" fill="#360530"/>
<path d="M133.82 20.9636L128.393 37.2437C129.713 37.458 146.276 40.3425 149.256 44.2696C152.318 48.3079 152.773 54.9395 152.535 59.9807L152.527 60.1183V60.1766L152.522 60.1977C152.5 60.1607 165.978 62.0634 165.983 62.0528C167.285 52.5578 166.618 41.5386 160.281 33.7082C154.604 26.931 142.262 22.9483 133.818 20.9609L133.82 20.9636Z" fill="#00AB41"/>
<path d="M97.6772 38.386C95.4834 36.3828 88.1796 28.2665 88.1796 28.2665L76.9434 36.9729C76.9434 36.9729 84.4404 50.1277 92.7709 52.774C105.791 56.9102 120.848 41.3446 123.674 37.2375L112.674 25.1016C112.674 25.1016 102.419 34.832 97.6772 38.3887V38.386Z" fill="#00AB41"/>
<path d="M130.682 20.6719C126.437 20.6719 117.331 22.2994 113.597 24.4534C109.863 26.6075 109.188 31.6355 110.212 36.2136L115.563 62.1104C115.563 62.1104 119.475 64.5106 130.38 64.5106C142.574 64.5106 150.431 62.1104 150.431 62.1104L140.888 28.6875C139.152 23.8395 137.403 20.6692 130.684 20.6719H130.682Z" fill="#00AB41"/>
<path d="M111.189 37.8905C111.189 37.8032 111.12 37.7344 111.033 37.7344C110.946 37.7344 110.877 37.8032 110.877 37.8905C110.877 41.7382 112.51 47.1446 112.526 47.2002C112.547 47.2664 112.608 47.3114 112.676 47.3114C112.692 47.3114 112.706 47.3114 112.721 47.3034C112.803 47.2796 112.851 47.1923 112.825 47.1076C112.809 47.0547 111.189 41.6906 111.189 37.8905Z" fill="#360530"/>
<path d="M143.488 40.8711C143.448 40.8632 139.576 40.0269 136.499 38.2512C136.425 38.2089 136.329 38.2327 136.284 38.3095C136.242 38.3836 136.266 38.4788 136.343 38.5238C139.465 40.326 143.384 41.1701 143.424 41.1807C143.435 41.1807 143.445 41.1834 143.456 41.1834C143.527 41.1834 143.594 41.1331 143.609 41.059C143.628 40.9743 143.572 40.8923 143.488 40.8737V40.8711Z" fill="#360530"/>
<path d="M121.163 14.9055C119.951 15.5301 117.542 15.4665 117.172 14.9452C117.122 14.8738 117.024 14.8579 116.955 14.9082C116.884 14.9585 116.868 15.0564 116.918 15.1252C117.185 15.4983 117.974 15.6703 118.85 15.6703C119.726 15.6703 120.702 15.4983 121.308 15.1834C121.385 15.1437 121.414 15.0484 121.374 14.9717C121.335 14.8949 121.239 14.8658 121.163 14.9055Z" fill="#360530"/>
<path d="M121.319 11.9707C120.991 11.9707 120.727 12.283 120.727 12.6667C120.727 13.0504 120.991 13.3627 121.319 13.3627C121.647 13.3627 121.912 13.0504 121.912 12.6667C121.912 12.283 121.647 11.9707 121.319 11.9707Z" fill="#360530"/>
<path d="M116.452 11.9707C116.124 11.9707 115.859 12.283 115.859 12.6667C115.859 13.0504 116.124 13.3627 116.452 13.3627C116.78 13.3627 117.045 13.0504 117.045 12.6667C117.045 12.283 116.78 11.9707 116.452 11.9707Z" fill="#360530"/>
<path d="M118.426 13.0022C118.474 12.9307 118.453 12.8328 118.379 12.7852C118.307 12.7376 118.209 12.7587 118.162 12.8328C118.151 12.8487 117.921 13.206 117.812 13.4415C117.707 13.6744 117.699 13.8781 117.789 14.0501C117.924 14.3121 118.23 14.3783 118.262 14.3836C118.273 14.3836 118.281 14.3862 118.291 14.3862C118.365 14.3862 118.429 14.3333 118.445 14.2592C118.461 14.1745 118.405 14.0925 118.323 14.0766C118.27 14.066 118.122 14.0131 118.066 13.9046C118.024 13.8226 118.035 13.7088 118.098 13.5685C118.196 13.3542 118.421 13.0022 118.424 12.9996L118.426 13.0022Z" fill="#360530"/>
<path d="M163.278 103.948L161.95 114.29C161.95 114.29 147.02 112.017 142.674 110.532C141.465 110.119 140.512 109.098 139.168 106.888C141.616 105.398 150.171 99.7988 150.171 99.7988L150.97 101.04L163.278 103.948Z" fill="#FF9EAB"/>
</g>
<defs>
<clipPath id="clip0_47_6269">
<rect width="208" height="147.333" fill="white"/>
</clipPath>
</defs>
</svg>
