<svg width="208" height="148" viewBox="0 0 208 148" fill="none" xmlns="http://www.w3.org/2000/svg">
<g clip-path="url(#clip0_47_4974)">
<path d="M125.483 67.9934L125.862 65.3613L136.014 66.8246C137.624 67.0564 138.359 67.7642 138.254 68.4905C138.149 69.2169 137.314 69.6982 135.634 69.4566L125.482 67.9934H125.483Z" fill="#FF9EAB"/>
<path d="M127.001 69.5715L127.38 66.9395L137.532 68.4027C139.141 68.6345 139.877 69.3423 139.772 70.0687C139.667 70.795 138.832 71.2763 137.152 71.0348L127 69.5715H127.001Z" fill="#FF9EAB"/>
<path d="M130.376 69.5509C130.575 67.1383 128.78 65.0219 126.367 64.8236L112.34 64.2656L111.631 70.7832L120.454 72.7947C127 70.3487 130.297 70.5161 130.376 69.5509Z" fill="#FF9EAB"/>
<path d="M117.825 72.9699C119.919 73.7993 122.257 73.4547 124.515 73.4203C127.177 73.3806 131.921 73.504 132.145 72.1131C132.644 69.005 126.38 69.3215 123.471 67.9948C119.128 66.0151 117.147 66.4249 116.163 68.5607C115.422 70.1677 116.61 72.4868 117.826 72.9681L117.825 72.9699Z" fill="#FF9EAB"/>
<path d="M131.463 70.5792C131.421 70.5792 131.378 70.5651 131.343 70.5368C130.439 69.8114 128.691 69.4667 127.001 69.1327C125.968 68.929 124.899 68.7175 124.026 68.4196C123.926 68.3852 123.873 68.2768 123.907 68.1763C123.941 68.0767 124.05 68.0229 124.15 68.0573C124.999 68.3473 126.054 68.5562 127.076 68.7572C128.811 69.1 130.605 69.4535 131.584 70.238C131.666 70.3041 131.68 70.4249 131.614 70.5069C131.576 70.5545 131.52 70.5783 131.464 70.5783L131.463 70.5792Z" fill="#5D0859"/>
<path d="M90.3344 142.602L102.857 140.135L98.6949 119.006L86.1719 121.473L90.3344 142.602Z" fill="#FFBE00"/>
<path d="M88.1234 121.096L87.748 121.17L91.9088 142.299L92.2842 142.225L88.1234 121.096Z" fill="#FFFFE9"/>
<path d="M89.9183 120.741L89.543 120.814L93.7037 141.944L94.0791 141.87L89.9183 120.741Z" fill="#FFFFE9"/>
<path d="M91.7152 120.387L91.3398 120.461L95.5006 141.59L95.8759 141.516L91.7152 120.387Z" fill="#FFFFE9"/>
<path d="M93.5121 120.034L93.1367 120.107L97.2975 141.237L97.6728 141.163L93.5121 120.034Z" fill="#FFFFE9"/>
<path d="M95.307 119.68L94.9316 119.754L99.0924 140.883L99.4677 140.809L95.307 119.68Z" fill="#FFFFE9"/>
<path d="M97.1039 119.326L96.7285 119.4L100.889 140.53L101.265 140.456L97.1039 119.326Z" fill="#FFFFE9"/>
<path d="M98.4801 136.303C100.173 135.665 99.693 134.731 99.9715 133.708C100.144 133.074 100.702 132.388 101.303 132.121L101.355 132.098C105.769 134.73 110.759 136.522 116.621 137.039C119.048 137.825 120.86 139.865 121.353 142.369L91.4477 148.26L89.4785 138.265C89.4785 138.265 97.343 136.732 98.4801 136.303Z" fill="#0071EB"/>
<path d="M91.3769 144.451C91.287 144.451 91.2077 144.387 91.1892 144.297C91.1689 144.193 91.2359 144.092 91.3399 144.072L118.185 138.783C118.289 138.763 118.39 138.83 118.41 138.934C118.43 139.038 118.363 139.138 118.259 139.158L91.4139 144.447C91.4016 144.45 91.3893 144.451 91.3769 144.451Z" fill="#FFFFE9"/>
<path d="M110.161 139.986C110.055 139.986 109.948 139.957 109.852 139.895C109.585 139.724 109.507 139.369 109.679 139.102L111.493 136.276C111.664 136.008 112.019 135.932 112.286 136.103C112.553 136.274 112.631 136.629 112.459 136.896L110.645 139.722C110.536 139.893 110.351 139.987 110.161 139.987V139.986Z" fill="white"/>
<path d="M107.357 138.936C107.25 138.936 107.143 138.907 107.047 138.845C106.78 138.674 106.703 138.319 106.875 138.052L108.689 135.225C108.86 134.958 109.215 134.88 109.482 135.052C109.749 135.223 109.827 135.579 109.655 135.846L107.841 138.673C107.731 138.844 107.546 138.937 107.357 138.937V138.936Z" fill="white"/>
<path d="M106.049 134.266L103.551 137.227L105.889 138.067L106.049 134.266Z" stroke="white" stroke-width="0.765998" stroke-linecap="round" stroke-linejoin="round"/>
<path d="M91.449 148.261L121.355 142.369L121.052 140.827L91.1453 146.719L91.449 148.261Z" fill="white" stroke="#0071EB" stroke-width="0.382558" stroke-linecap="round" stroke-linejoin="round"/>
<path d="M53.5767 122.05L61.877 131.746L78.2367 117.742L69.9365 108.045L53.5767 122.05Z" fill="#FFBE00"/>
<path d="M70.9873 109.267L54.6289 123.273L54.8777 123.564L71.2361 109.558L70.9873 109.267Z" fill="#FFFFE9"/>
<path d="M72.1768 110.658L55.8184 124.664L56.0672 124.955L72.4256 110.949L72.1768 110.658Z" fill="#FFFFE9"/>
<path d="M73.3682 112.049L57.0098 126.055L57.2586 126.345L73.617 112.339L73.3682 112.049Z" fill="#FFFFE9"/>
<path d="M74.5576 113.439L58.1992 127.445L58.448 127.736L74.8064 113.73L74.5576 113.439Z" fill="#FFFFE9"/>
<path d="M75.749 114.828L59.3906 128.834L59.6394 129.125L75.9978 115.119L75.749 114.828Z" fill="#FFFFE9"/>
<path d="M76.9385 116.219L60.5801 130.225L60.8289 130.515L77.1873 116.509L76.9385 116.219Z" fill="#FFFFE9"/>
<path d="M63.0644 126.051C64.4518 127.213 65.0301 126.335 66.0578 126.075C66.6943 125.914 67.5669 126.063 68.094 126.455L68.1399 126.489C68.0156 131.627 68.905 136.854 71.3343 142.215C71.8421 144.716 70.9553 147.296 69.0169 148.955L49.1953 125.8L56.9337 119.176C56.9337 119.176 62.1327 125.272 63.0644 126.052V126.051Z" fill="#0071EB"/>
<path d="M70.4398 144.749C70.386 144.749 70.3322 144.726 70.2943 144.682L52.501 123.896C52.4322 123.815 52.4419 123.695 52.5221 123.626C52.6023 123.557 52.7231 123.567 52.7918 123.647L70.5852 144.433C70.654 144.513 70.6443 144.634 70.5641 144.703C70.5279 144.734 70.4838 144.749 70.4398 144.749Z" fill="#FFFFE9"/>
<path d="M69.4494 138.518C69.4389 138.518 69.4274 138.518 69.4159 138.517L66.0628 138.326C65.7464 138.307 65.504 138.037 65.5225 137.719C65.5401 137.403 65.8107 137.159 66.1289 137.179L69.482 137.37C69.7985 137.389 70.0409 137.659 70.0224 137.977C70.0048 138.283 69.7518 138.518 69.4494 138.518Z" fill="white"/>
<path d="M68.9846 135.561C68.974 135.561 68.9625 135.561 68.9511 135.56L65.598 135.369C65.2815 135.35 65.0391 135.08 65.0576 134.762C65.0753 134.446 65.3468 134.202 65.6641 134.222L69.0172 134.413C69.3336 134.432 69.5761 134.702 69.5575 135.02C69.5399 135.325 69.2869 135.561 68.9846 135.561Z" fill="white"/>
<path d="M68.5562 131.644L64.75 130.922L65.1669 133.371L68.5562 131.644Z" stroke="white" stroke-width="0.765998" stroke-linecap="round" stroke-linejoin="round"/>
<path d="M49.1956 125.799L69.0176 148.955L70.2115 147.933L50.3895 124.777L49.1956 125.799Z" fill="white" stroke="#0071EB" stroke-width="0.382558" stroke-linecap="round" stroke-linejoin="round"/>
<path d="M56.2149 117.284C60.319 112.724 64.9935 108.26 68.9707 103.638C70.9293 101.339 72.9778 98.9267 74.3141 96.3872C74.4781 96.0567 74.5724 95.7931 74.5627 95.7446C74.5601 95.7349 74.5512 95.7384 74.5371 95.7614C74.5204 95.7878 74.5028 95.8266 74.4754 95.898C74.4217 96.0364 74.3538 96.3079 74.3247 96.4833C74.137 97.653 74.1801 98.9541 74.5927 100.054C74.7989 100.64 75.0775 101.143 75.3657 101.544C75.5403 101.783 75.5676 101.813 75.4662 101.768C73.9704 100.976 72.4604 100.464 70.6525 99.9475C64.4302 98.2577 57.6711 97.4952 51.1491 97.1409L50.9146 97.1312L50.8071 97.1276C50.6228 97.2493 52.5956 70.7734 52.5348 70.7734C52.734 70.7884 53.0998 70.8307 53.2946 70.8501C60.0387 71.6346 66.4382 72.7656 73.0792 74.5779C79.1014 76.2888 85.1968 78.4634 90.3005 82.4679C95.0798 86.2018 98.3924 91.8423 98.1226 98.1951C97.815 104.869 93.4271 110.692 89.2894 115.392C84.384 120.904 78.8308 125.731 73.5111 130.655C73.2176 130.921 72.4146 131.694 72.1325 131.971L56.2158 117.285L56.2149 117.284Z" fill="#BA3524"/>
<path d="M87.0944 134.054C85.6532 127.813 83.9864 121.509 82.093 115.421C80.6985 111.007 79.2458 106.731 77.356 102.689C76.8579 101.649 76.2806 100.521 75.6944 99.6585C75.5754 99.4849 75.4678 99.3403 75.3841 99.2398C75.3012 99.1411 75.2404 99.0829 75.2395 99.1014C75.3815 99.3738 75.9421 99.8242 76.2982 100.063C76.3969 100.132 76.508 100.203 76.6138 100.266C76.6287 100.275 76.5997 100.258 76.5952 100.255L76.4701 100.184C75.9262 99.8789 75.5657 99.6479 75.0879 99.372C73.3382 98.3293 71.6599 97.5571 69.7268 97.0185C66.2944 96.0771 62.9369 95.9246 59.1562 96.1864C56.5621 96.3777 53.8515 96.814 51.1014 97.4284L46.2383 71.4647C60.4846 69.1076 75.8742 70.2447 88.0879 78.7712C88.2606 78.8867 88.7587 79.2216 88.8768 79.3124C89.4021 79.6253 89.9619 80.0044 90.4326 80.364C94.7403 83.6731 97.1529 88.5132 99.1203 93.3075C101.226 98.5893 102.704 103.853 104.077 109.282C105.68 115.729 106.991 122.114 108.134 128.625L108.366 129.986L87.0944 134.051V134.054Z" fill="#FF3F31"/>
<path d="M70.8155 84.5087C70.8155 91.3313 67.0569 99.5219 51.2327 99.5219C43.355 99.5219 36.9688 93.9907 36.9688 87.1681C36.9688 80.3455 39.2121 76.207 39.2121 76.207C39.2121 76.207 70.8155 77.6853 70.8155 84.5078V84.5087Z" fill="#FF3F31"/>
<path d="M84.4431 42.036C85.567 43.6544 86.7578 45.2446 87.9487 46.8154C91.0233 50.782 94.2142 54.872 97.8864 58.1564C97.9552 58.2163 98.1932 58.4199 98.2487 58.4834C98.2496 58.4843 98.246 58.4834 98.2443 58.4834L98.2222 58.4781C98.217 58.4781 98.1835 58.4702 98.1852 58.4755C98.187 58.4834 98.1738 58.4913 98.2055 58.5116C98.3351 58.6103 98.4532 58.6579 98.6383 58.7443C99.7375 59.2115 100.925 59.5288 102.195 59.8567C107.47 61.1498 113.111 61.9864 118.548 62.71L120.042 62.8987L119.414 75.9762C118.584 75.9876 116.946 75.9903 116.12 75.9903C109.327 75.9171 102.661 75.8634 95.8731 74.7095C94.6479 74.4821 93.264 74.1577 92.0282 73.7046C90.2899 73.0717 88.5252 72.0475 87.0126 71.0505C83.9318 69.0011 81.1526 66.6546 78.4993 64.309C75.334 61.4866 72.3546 58.6112 69.4087 55.5922L69.1099 55.2828L68.9574 55.1232L68.879 55.0404L68.7891 54.9434L84.444 42.0352L84.4431 42.036Z" fill="#FFBE00"/>
<path d="M77.3368 28.2656C77.3368 28.2656 68.9047 33.7166 65.8125 38.2068L79.2197 42.043C79.2197 42.043 82.5146 36.1803 86.5403 35.4381L77.3368 28.2665V28.2656Z" fill="#FF9EAB"/>
<path d="M90.2147 17.1195C101.51 23.0033 91.1834 37.4092 88.5461 38.2219C85.4204 39.1853 74.32 32.4465 77.6908 23.4546C80.2056 16.7457 83.5508 13.6482 90.2147 17.1195Z" fill="#FF9EAB"/>
<path d="M92.114 30.0587C91.8628 30.5047 91.4176 30.7295 91.1206 30.562C90.8235 30.3945 90.7865 29.8973 91.0377 29.4513C91.2889 29.0053 91.7341 28.7805 92.0311 28.948C92.3282 29.1155 92.3652 29.6126 92.114 30.0587Z" fill="#5D0859"/>
<path d="M93.865 30.4277C93.865 30.4277 94.3146 33.3251 93.9205 33.8972C93.5265 34.4684 91.9258 33.5684 91.9258 33.5684L93.865 30.4286V30.4277Z" fill="#FF9EAB"/>
<path d="M90.7678 34.7914C90.7466 34.7914 90.7246 34.7879 90.7034 34.7799C89.6933 34.4212 89.0974 33.0813 89.0727 33.024C89.0304 32.9271 89.0745 32.8142 89.1714 32.7719C89.2684 32.7296 89.3812 32.7737 89.4235 32.8707C89.4288 32.883 89.9789 34.1162 90.8321 34.4194C90.9317 34.4547 90.9837 34.564 90.9485 34.6636C90.9203 34.742 90.8471 34.7914 90.7678 34.7914Z" fill="#5D0859"/>
<path d="M86.0991 25.2735C88.2666 27.0911 92.6555 26.9465 94.6652 26.1999C95.552 25.8703 97.054 24.9156 96.3815 22.1998C96.1205 21.1447 95.2109 19.2936 94.6317 18.4157C93.6013 16.8537 92.4457 16.9938 90.1786 15.2432C88.2984 13.9537 86.1564 15.5271 84.144 15.4063C82.4313 15.3508 80.024 15.6311 78.9328 17.1199C78.2725 18.0208 78.4347 19.3782 77.6511 20.1566C76.6145 21.187 75.2949 21.522 75.2949 23.5925C75.2949 24.1708 75.7242 25.1325 75.8458 25.679C76.1323 26.9642 75.5144 28.1489 75.6325 29.4226C76.6365 29.6685 77.5559 30.3217 78.2241 31.0939C78.7688 31.7232 86.0991 25.2726 86.0991 25.2726V25.2735Z" fill="#284EAD"/>
<path d="M85.9915 27.1753C86.573 25.3322 85.9725 23.4998 84.6503 23.0827C83.328 22.6655 81.7848 23.8215 81.2033 25.6647C80.6218 27.5078 81.2223 29.3401 82.5445 29.7573C83.8667 30.1744 85.41 29.0184 85.9915 27.1753Z" fill="#FF9EAB"/>
<path d="M83.5889 27.4582C83.5695 27.4582 83.551 27.4556 83.5316 27.4494C83.4311 27.4177 83.3747 27.3101 83.4064 27.2096C83.6911 26.3026 83.3967 25.6706 83.3941 25.6635C83.3482 25.5683 83.3879 25.4538 83.4831 25.4079C83.5774 25.3621 83.692 25.4009 83.7378 25.4952C83.7528 25.526 84.1045 26.2621 83.7713 27.3234C83.7458 27.4053 83.67 27.4573 83.5889 27.4573V27.4582Z" fill="#5D0859"/>
<path d="M36.9688 76.2009C36.9688 76.2009 48.6412 78.0114 63.0982 76.7985C71.4325 76.0995 72.9953 74.1894 73.6353 71.7883C74.7821 67.4814 74.7971 60.2824 85.997 47.7083C85.997 47.7083 86.9869 43.6896 84.2482 40.3788C80.6174 35.9891 73.5806 31.8206 69.9736 33.1349C60.5551 36.5647 40.5237 57.222 36.9696 76.2018L36.9688 76.2009Z" fill="#FFBE00"/>
<path d="M127.775 73.0781H152.487V73.9287C152.487 75.0094 151.609 75.8874 150.529 75.8874H129.734C128.653 75.8874 127.775 75.0094 127.775 73.9287V73.0781Z" fill="#284EAD"/>
<path fill-rule="evenodd" clip-rule="evenodd" d="M155.698 71.8867L160.916 51.7575C161.187 50.7103 160.558 49.6411 159.511 49.3696L158.687 49.1562L152.486 73.0776L153.311 73.2909C154.358 73.5624 155.427 72.933 155.698 71.8859V71.8867Z" fill="#284EAD"/>
<path d="M102.644 75.8887H184.839C186.478 75.8887 187.808 77.2188 187.808 78.8575V85.7083H99.6738V78.8575C99.6738 77.2188 101.004 75.8887 102.643 75.8887H102.644Z" fill="#00AB41"/>
<path d="M113.216 85.709H107.404V149.027H113.216V85.709Z" fill="#00AB41"/>
<path d="M180.079 85.709H174.268V149.027H180.079V85.709Z" fill="#00AB41"/>
<path d="M34.2692 101.476C32.7002 101.908 31.1241 102.239 29.5507 102.469C28.8103 98.3364 28.0698 94.182 27.332 90.0047C28.901 89.8698 30.4771 89.6336 32.0505 89.2969C32.791 93.379 33.5314 97.4381 34.2692 101.476Z" fill="#999999"/>
<path d="M33.8127 92.016C32.3054 92.2875 30.7981 92.559 29.2908 92.8305C28.2242 93.0227 26.9901 91.6026 26.5521 89.6537C23.8504 77.634 21.6573 65.4635 19.9939 53.2569C19.7242 51.2771 20.3853 49.5159 21.4519 49.3238C22.9592 49.0523 24.4665 48.7808 25.9738 48.5093C27.0404 48.3171 28.1079 49.7663 28.3785 51.7461C30.0427 63.9535 32.2358 76.1231 34.9366 88.1437C35.3747 90.0927 34.8802 91.8239 33.8136 92.016H33.8127Z" fill="#00AB41"/>
<path d="M54.8374 108.867H49.8809V135.868H54.8374V108.867Z" fill="#999999"/>
<path d="M55.2477 131.389H49.4688V143.024H55.2477V131.389Z" fill="#00AB41"/>
<path d="M27.7461 144.423L28.5385 141.89L52.4475 137.604V143.17L27.7461 144.423Z" fill="#00AB41"/>
<path d="M44.2559 145.414L44.5141 142.881L52.4474 137.604V143.17L45.6451 145.414H44.2559Z" fill="#00AB41"/>
<path d="M60.6388 145.414L60.3796 142.881L52.4473 137.604V143.17L59.2496 145.414H60.6388Z" fill="#00AB41"/>
<path d="M77.1487 144.423L76.3554 141.89L52.4473 137.604V143.17L77.1487 144.423Z" fill="#00AB41"/>
<path d="M33.7475 98.0605H70.9685C73.8438 98.0605 76.1788 100.396 76.1788 103.271V108.681C76.1788 110.087 75.0364 111.231 73.6287 111.231H31.0872C29.6804 111.231 28.5371 110.088 28.5371 108.681V103.271C28.5371 100.396 30.8721 98.0605 33.7475 98.0605Z" fill="#00AB41"/>
<path d="M30.5015 148.367C31.5855 147.283 31.5855 145.526 30.5015 144.442C29.4175 143.358 27.66 143.358 26.576 144.442C25.492 145.526 25.492 147.283 26.576 148.367C27.66 149.451 29.4175 149.451 30.5015 148.367Z" fill="#666666"/>
<path d="M45.7791 148.822C47.117 148.074 47.5949 146.382 46.8466 145.045C46.0982 143.707 44.407 143.229 43.069 143.977C41.7311 144.725 41.2531 146.417 42.0015 147.755C42.7499 149.093 44.4411 149.57 45.7791 148.822Z" fill="#666666"/>
<path d="M63.0141 146.985C63.3356 145.487 62.3811 144.011 60.8822 143.689C59.3833 143.368 57.9076 144.322 57.5861 145.821C57.2645 147.32 58.219 148.796 59.7179 149.117C61.2168 149.439 62.6926 148.484 63.0141 146.985Z" fill="#666666"/>
<path d="M78.8825 147.041C79.2347 145.549 78.3108 144.054 76.8188 143.702C75.3268 143.349 73.8317 144.273 73.4795 145.765C73.1273 147.257 74.0513 148.752 75.5433 149.105C77.0353 149.457 78.5303 148.533 78.8825 147.041Z" fill="#666666"/>
</g>
<defs>
<clipPath id="clip0_47_4974">
<rect width="208" height="147.333" fill="white"/>
</clipPath>
</defs>
</svg>
