<svg width="208" height="148" viewBox="0 0 208 148" fill="none" xmlns="http://www.w3.org/2000/svg">
<g clip-path="url(#clip0_47_12731)">
<path d="M67.1224 126.555H58.0801V141.81H67.1224V126.555Z" fill="#FFFFE9"/>
<path d="M65.9759 126.555H65.7051V141.81H65.9759V126.555Z" fill="#360530"/>
<path d="M64.679 126.555H64.4082V141.81H64.679V126.555Z" fill="#360530"/>
<path d="M63.3841 126.555H63.1133V141.81H63.3841V126.555Z" fill="#360530"/>
<path d="M62.0872 126.555H61.8164V141.81H62.0872V126.555Z" fill="#360530"/>
<path d="M60.7903 126.555H60.5195V141.81H60.7903V126.555Z" fill="#360530"/>
<path d="M59.4935 126.555H59.2227V141.81H59.4935V126.555Z" fill="#360530"/>
<path d="M60.5957 138.547C59.3312 138.336 59.5377 137.62 59.2049 136.947C58.9984 136.529 58.5164 136.13 58.062 136.027L58.023 136.018C55.3149 138.453 52.0927 140.38 48.0902 141.542C46.5112 142.421 45.5312 144.087 45.5312 145.893H67.1227V138.678C67.1227 138.678 61.4472 138.689 60.598 138.547H60.5957Z" fill="#284EAD"/>
<path d="M66.6223 142.967H47.2409C47.1651 142.967 47.1055 143.026 47.1055 143.102C47.1055 143.178 47.1651 143.238 47.2409 143.238H66.6223C66.698 143.238 66.7577 143.178 66.7577 143.102C66.7577 143.026 66.698 142.967 66.6223 142.967Z" fill="white"/>
<path d="M51.5491 140.309C51.3931 140.146 51.136 140.142 50.9731 140.298C50.8102 140.454 50.8056 140.711 50.9616 140.874L52.6094 142.59C52.6898 142.673 52.7953 142.714 52.9032 142.714C53.0111 142.714 53.1052 142.677 53.1855 142.602C53.3484 142.446 53.353 142.189 53.197 142.026L51.5491 140.309Z" fill="white"/>
<path d="M53.3558 139.196C53.1997 139.033 52.9427 139.028 52.7797 139.184C52.6168 139.34 52.6122 139.597 52.7683 139.76L54.4161 141.477C54.4964 141.56 54.602 141.601 54.7098 141.601C54.8177 141.601 54.9118 141.564 54.9921 141.488C55.1551 141.332 55.1597 141.075 55.0036 140.912L53.3558 139.196Z" fill="white"/>
<path d="M55.2277 137.955C55.1359 137.881 55.0097 137.875 54.9133 137.937C54.8146 137.999 54.7687 138.116 54.7939 138.228L55.4251 140.847C55.4457 140.932 55.5031 141 55.5834 141.033C55.6178 141.046 55.6523 141.053 55.689 141.053C55.7372 141.053 55.7854 141.039 55.829 141.014L57.3391 140.11C57.4148 140.064 57.4653 139.984 57.4699 139.897C57.4768 139.807 57.4378 139.722 57.3689 139.667L55.2277 137.95V137.955ZM55.868 140.365L55.5077 138.875L56.7263 139.851L55.868 140.365Z" fill="white"/>
<path d="M67.1188 144.779H45.5273V145.892H67.1188V144.779Z" fill="white"/>
<path d="M67.1195 144.645H45.528C45.4522 144.645 45.3926 144.704 45.3926 144.78V145.893C45.3926 145.969 45.4522 146.028 45.528 146.028H67.1195C67.1952 146.028 67.2549 145.969 67.2549 145.893V144.78C67.2549 144.704 67.1952 144.645 67.1195 144.645ZM66.9841 145.758H45.6634V144.915H66.9841V145.758Z" fill="#284EAD"/>
<path d="M88.5052 126.555H79.4629V141.81H88.5052V126.555Z" fill="#FFFFE9"/>
<path d="M80.8763 126.555H80.6055V141.81H80.8763V126.555Z" fill="#360530"/>
<path d="M82.1732 126.555H81.9023V141.81H82.1732V126.555Z" fill="#360530"/>
<path d="M83.47 126.555H83.1992V141.81H83.47V126.555Z" fill="#360530"/>
<path d="M84.7669 126.555H84.4961V141.81H84.7669V126.555Z" fill="#360530"/>
<path d="M86.0638 126.555H85.793V141.81H86.0638V126.555Z" fill="#360530"/>
<path d="M87.3607 126.555H87.0898V141.81H87.3607V126.555Z" fill="#360530"/>
<path d="M98.4954 141.542C94.4929 140.38 91.2684 138.45 88.5626 136.018L88.5236 136.027C88.0692 136.13 87.5872 136.532 87.3807 136.947C87.0479 137.62 87.2522 138.336 85.9876 138.547C85.1385 138.689 79.4629 138.678 79.4629 138.678V145.893H101.054C101.054 144.085 100.074 142.421 98.4954 141.542Z" fill="#284EAD"/>
<path d="M99.3449 142.967H79.9635C79.8878 142.967 79.8281 143.026 79.8281 143.102C79.8281 143.178 79.8878 143.238 79.9635 143.238H99.3449C99.4207 143.238 99.4803 143.178 99.4803 143.102C99.4803 143.026 99.4207 142.967 99.3449 142.967Z" fill="white"/>
<path d="M95.0344 140.309L93.3866 142.026C93.2305 142.189 93.2374 142.446 93.398 142.602C93.4761 142.677 93.5793 142.714 93.6803 142.714C93.7882 142.714 93.8938 142.673 93.9741 142.59L95.6219 140.874C95.778 140.711 95.7711 140.454 95.6104 140.298C95.4475 140.142 95.1904 140.146 95.0344 140.309Z" fill="white"/>
<path d="M93.2317 139.196L91.5838 140.912C91.4278 141.075 91.4347 141.332 91.5953 141.488C91.6733 141.564 91.7766 141.601 91.8776 141.601C91.9855 141.601 92.091 141.56 92.1714 141.477L93.8192 139.76C93.9752 139.597 93.9684 139.34 93.8077 139.184C93.6448 139.028 93.3877 139.033 93.2317 139.196Z" fill="white"/>
<path d="M91.6727 137.939C91.574 137.877 91.4478 137.883 91.3582 137.957L89.217 139.674C89.1481 139.729 89.1091 139.816 89.116 139.903C89.1229 139.993 89.1711 140.071 89.2468 140.116L90.757 141.021C90.8006 141.046 90.8488 141.06 90.8969 141.06C90.9337 141.06 90.9681 141.053 91.0025 141.039C91.0828 141.005 91.1402 140.936 91.1609 140.853L91.792 138.235C91.8195 138.122 91.7713 138.005 91.6727 137.943V137.939ZM90.7179 140.364L89.8596 139.85L91.0783 138.875L90.7179 140.364Z" fill="white"/>
<path d="M101.054 144.779H79.4629V145.892H101.054V144.779Z" fill="white"/>
<path d="M101.055 144.645H79.4635C79.3878 144.645 79.3281 144.704 79.3281 144.78V145.893C79.3281 145.969 79.3878 146.028 79.4635 146.028H101.055C101.131 146.028 101.19 145.969 101.19 145.893V144.78C101.19 144.704 101.131 144.645 101.055 144.645ZM100.92 145.758H79.5989V144.915H100.92V145.758Z" fill="#284EAD"/>
<path d="M59.0159 66.8281L58.4238 74.443C58.4238 79.0858 62.2198 82.8496 66.9016 82.8496H79.5632C84.245 82.8496 88.041 79.0858 88.041 74.443L87.4489 66.8281H59.0159Z" fill="#00AB41"/>
<path d="M55.0566 135.741L68.2966 136.712L73.8528 74.2372L58.5519 73.1172L55.0566 135.741Z" fill="#00AB41"/>
<path d="M72.6387 74.2372L78.8008 136.666L90.6752 135.799L87.9372 73.1172L72.6387 74.2372Z" fill="#00AB41"/>
<path d="M90.5392 132.764L78.4995 133.581C78.4238 133.586 78.3687 133.65 78.3733 133.726C78.3779 133.797 78.4376 133.852 78.5087 133.852C78.511 133.852 78.5156 133.852 78.5179 133.852L90.5575 133.035C90.6333 133.03 90.6884 132.966 90.6838 132.89C90.6792 132.814 90.6172 132.759 90.5392 132.764Z" fill="#360530"/>
<path d="M85.318 66.6934C85.2423 66.698 85.1872 66.7623 85.1895 66.8357L89.2494 136.024C89.254 136.095 89.3137 136.152 89.3848 136.152C89.3871 136.152 89.3894 136.152 89.394 136.152C89.4697 136.147 89.5248 136.083 89.5225 136.01L85.4626 66.8219C85.458 66.7462 85.3938 66.6911 85.3203 66.6934H85.318Z" fill="#360530"/>
<path d="M71.9517 77.8912C71.8759 77.8843 71.8117 77.9394 71.8048 78.0151L66.485 136.577C66.4781 136.65 66.5332 136.717 66.6089 136.724C66.6135 136.724 66.6181 136.724 66.6204 136.724C66.6892 136.724 66.7489 136.671 66.7558 136.6L72.0756 78.0381C72.0825 77.9646 72.0274 77.8981 71.9517 77.8912Z" fill="#360530"/>
<path d="M68.5689 133.581L55.2601 132.764C55.1843 132.759 55.1201 132.817 55.1155 132.89C55.1109 132.966 55.1683 133.03 55.2417 133.035L68.5505 133.852C68.5505 133.852 68.5551 133.852 68.5597 133.852C68.6308 133.852 68.6905 133.797 68.6951 133.726C68.6997 133.65 68.6423 133.586 68.5689 133.581Z" fill="#360530"/>
<path d="M88.0385 75.555C86.7051 75.6835 85.5185 75.3301 84.5156 74.5016C81.7042 72.1813 81.1764 66.8684 81.1695 66.8156C81.1626 66.7421 81.0983 66.6871 81.0226 66.6939C80.9492 66.7008 80.8941 66.7674 80.901 66.8408C80.901 66.8546 81.0341 68.2201 81.5206 69.8611C81.9705 71.3804 82.8265 73.4573 84.3435 74.7104C85.2638 75.4701 86.3264 75.8533 87.5106 75.8533C87.6919 75.8533 87.8778 75.8442 88.066 75.8258C88.1417 75.8189 88.1945 75.7524 88.1876 75.6789C88.1808 75.6055 88.1142 75.5504 88.0408 75.5573L88.0385 75.555Z" fill="#360530"/>
<path d="M65.4407 66.6937C65.3672 66.6868 65.3007 66.7419 65.2938 66.8153C65.2892 66.8681 64.759 72.1811 61.9477 74.5013C60.9447 75.3298 59.7605 75.6856 58.4248 75.5548C58.3514 75.5479 58.2848 75.6029 58.2779 75.6764C58.271 75.7498 58.3261 75.8164 58.3996 75.8233C58.5878 75.8416 58.7714 75.8508 58.955 75.8508C60.1392 75.8508 61.2018 75.4675 62.1221 74.7079C63.6391 73.4548 64.4951 71.3778 64.9449 69.8585C65.4315 68.2176 65.5623 66.8521 65.5646 66.8383C65.5715 66.7626 65.5164 66.6983 65.443 66.6914L65.4407 66.6937Z" fill="#360530"/>
<path d="M45.4699 1.10194C45.0063 1.03768 44.5656 1.46685 44.4187 2.53862L43.5352 9.01744L45.2151 9.24695L46.0987 2.76812C46.2387 1.73995 45.9334 1.1662 45.4699 1.10194Z" fill="#FF9EAB"/>
<path d="M42.2567 0.000603593C41.7885 0.0235537 41.4328 0.523867 41.4833 1.60482L41.7266 6.76631L43.4203 6.68598L43.177 1.52449C43.1288 0.489442 42.7249 -0.0200515 42.2567 0.000603593Z" fill="#FF9EAB"/>
<path d="M39.6353 1.02342C39.1718 1.08768 38.8619 1.62012 39.0134 2.69189L39.6055 6.93308L41.2832 6.69899L40.6911 2.4578C40.5465 1.42964 40.0989 0.959157 39.6353 1.02571V1.02342Z" fill="#FF9EAB"/>
<path d="M37.5139 2.19303C37.0572 2.29171 36.7887 2.84481 37.0159 3.90281L38.0922 8.86693L39.7492 8.50891L38.6729 3.54479C38.4525 2.53039 37.9706 2.09664 37.5139 2.19532V2.19303Z" fill="#FF9EAB"/>
<path d="M42.8862 6.20679L38.9548 6.39269C38.2709 6.42482 37.7407 7.00775 37.7729 7.69166L38.3558 19.9998L46.6293 19.6074L46.1359 9.16047C46.0556 7.44839 44.6005 6.12417 42.8885 6.20679H42.8862Z" fill="#FF9EAB"/>
<path d="M48.7733 4.9265C47.0681 3.8662 46.2213 8.64902 44.2154 9.01163C41.3191 9.53719 40.8578 11.6256 41.7231 13.0509C42.9738 15.1118 45.1679 14.1525 45.7485 13.5558C46.7514 12.5299 47.1255 11.0703 47.6626 9.73226C48.296 8.15788 49.5353 5.39698 48.7733 4.92421V4.9265Z" fill="#FF9EAB"/>
<path d="M45.5233 7.86624C45.0597 8.47672 44.6351 8.79802 44.1922 8.87835C42.5559 9.1744 41.8283 9.92717 41.5047 10.5032C41.1421 11.1504 41.0985 11.9399 41.3831 12.6697C41.4038 12.7225 41.4542 12.7569 41.5093 12.7569C41.5254 12.7569 41.5415 12.7546 41.5575 12.7477C41.6264 12.7202 41.6608 12.6422 41.6356 12.5733C41.3762 11.9101 41.4129 11.2216 41.7411 10.6363C42.1634 9.88127 43.0263 9.36489 44.2404 9.14457C44.7545 9.05047 45.2295 8.69704 45.739 8.02919C45.7849 7.96952 45.7735 7.88461 45.7138 7.8387C45.6541 7.7928 45.5692 7.80428 45.5233 7.86395V7.86624Z" fill="#360530"/>
<path d="M44.4317 6.83464C44.4041 6.83005 41.5835 6.49957 38.9603 7.68838C38.8915 7.71822 38.8617 7.79854 38.8938 7.86739C38.9167 7.91788 38.9649 7.94772 39.0177 7.94772C39.0361 7.94772 39.0544 7.94313 39.0728 7.93624C41.6226 6.77956 44.372 7.10086 44.3995 7.10315C44.4753 7.11233 44.5418 7.05955 44.551 6.98611C44.5602 6.91267 44.5074 6.84382 44.434 6.83464H44.4317Z" fill="#360530"/>
<path d="M59.4102 31.8442C55.5982 30.4764 52.6193 27.284 50.9141 23.5914C49.4269 20.4954 48.6305 17.2594 48.1279 13.6562L36.4004 14.8038C36.9856 24.5186 40.4236 34.8553 48.4607 41.0771C53.2573 44.8547 59.284 46.9431 65.3704 47.0992C65.7903 47.0992 66.2884 47.1084 66.7129 47.0785L66.9539 47.0602L65.5494 32.7554C63.9452 32.9619 61.2325 32.5557 59.4102 31.8442Z" fill="#284EAD"/>
<path d="M78.1439 32.8613L66.8685 32.9761C62.3175 33.022 58.5858 36.0055 58.3563 39.7808L56.6855 67.3416C56.6855 67.3416 60.0018 70.3779 72.8287 70.2494C85.6555 70.1209 89.0177 67.0157 89.0177 67.0157L86.7916 39.4939C86.4863 35.7255 82.6949 32.8177 78.1439 32.8636V32.8613Z" fill="#284EAD"/>
<path d="M80.0409 47.3775L62.5977 48.2031L63.7343 72.2165L81.1775 71.3909L80.0409 47.3775Z" fill="#FFFFE9"/>
<path d="M79.2596 47.9849L61.8164 48.8105L62.953 72.8239L80.3963 71.9983L79.2596 47.9849Z" fill="#FF3F31"/>
<path d="M60.9167 60.2404C60.896 60.7935 61.3573 61.2571 62.4268 61.2961L68.8827 61.5325L68.9561 59.5335L62.5002 59.2971C61.4767 59.2604 60.9373 59.6873 60.919 60.2404H60.9167Z" fill="#FF9EAB"/>
<path d="M60.4479 62.2248C60.4273 62.7779 60.8886 63.2414 61.958 63.2805L67.0622 63.4664L67.1356 61.4674L62.0315 61.2815C61.0079 61.2448 60.4686 61.6717 60.4502 62.2248H60.4479Z" fill="#FF9EAB"/>
<path d="M60.7057 64.2365C60.6851 64.7896 61.1464 65.2531 62.2159 65.2922L66.4456 65.4459L66.519 63.447L62.2893 63.2932C61.2657 63.2565 60.7264 63.6857 60.708 64.2365H60.7057Z" fill="#FF9EAB"/>
<path d="M61.0768 66.2501C61.0562 66.8032 61.5175 67.2668 62.587 67.3058L67.6039 67.4895L67.6773 65.4905L62.6604 65.3069C61.6368 65.2702 61.0975 65.697 61.0791 66.2501H61.0768Z" fill="#FF9EAB"/>
<path d="M62.5455 62.1253L62.4032 66.0589C62.378 66.7451 62.9127 67.3212 63.5989 67.3441L75.5858 67.7825L75.8887 59.5044L65.7654 59.1349C64.051 59.0729 62.612 60.4109 62.5501 62.1253H62.5455Z" fill="#FF9EAB"/>
<path d="M66.6579 57.6951C64.8402 57.6079 63.6032 59.0653 63.7478 59.9007C64.0691 61.7642 66.5798 59.3958 67.0939 61.1537C67.9087 63.9422 68.6683 64.7569 70.2565 64.19C72.5515 63.3707 71.6794 61.1514 71.1423 60.261C70.2129 58.7256 68.8817 57.8007 66.6602 57.6929L66.6579 57.6951Z" fill="#FF9EAB"/>
<path d="M67.4846 59.3433L64.3588 59.2285C64.2854 59.2285 64.2211 59.2836 64.2188 59.3593C64.2165 59.4351 64.2739 59.497 64.3496 59.4993L67.4754 59.6141C67.4754 59.6141 67.4777 59.6141 67.48 59.6141C67.5535 59.6141 67.6131 59.5567 67.6154 59.4833C67.6177 59.4075 67.5604 59.3456 67.4846 59.3433Z" fill="#360530"/>
<path d="M83.7232 34.5234L81.1138 48.3509C81.1138 48.3509 83.4271 51.5915 85.3251 55.034C81.4833 57.4024 76.3057 57.4552 71.8281 57.9257L72.1861 69.7037C102.166 71.0073 108.3 50.4026 83.7209 34.5234H83.7232Z" fill="#284EAD"/>
<path d="M84.3701 53.1047C84.331 53.0404 84.2484 53.0198 84.1842 53.0588C84.1199 53.0978 84.0992 53.1804 84.1383 53.2447C84.4986 53.846 84.8382 54.4312 85.1458 54.9866C83.9822 55.6866 82.6258 56.2213 81.0033 56.6207C80.9298 56.639 80.8862 56.7125 80.9046 56.7836C80.9206 56.8456 80.9757 56.8869 81.0354 56.8869C81.0469 56.8869 81.0561 56.8869 81.0675 56.8823C82.7681 56.4623 84.1842 55.8954 85.3982 55.1473C85.4602 55.1105 85.4808 55.0302 85.4464 54.966C85.1205 54.3738 84.7579 53.745 84.3701 53.1024V53.1047Z" fill="#360530"/>
<path d="M73.1229 17.6367C70.1325 17.6367 67.709 20.6317 67.709 24.329C67.709 28.0263 70.1325 31.0212 73.1229 31.0212C76.1133 31.0212 78.5369 28.0263 78.5369 24.329C78.5369 20.6317 76.1133 17.6367 73.1229 17.6367Z" fill="#FF9EAB"/>
<path d="M77.0066 28.3027H69.2402V36.7576H77.0066V28.3027Z" fill="#FF9EAB"/>
<path d="M76.3784 29.4888C75.442 30.4022 74.3152 30.8864 73.1218 30.8864C71.9284 30.8864 70.6845 30.3448 69.7366 29.3603C69.6839 29.3052 69.5989 29.3052 69.5439 29.3557C69.4888 29.4085 69.4888 29.4934 69.5393 29.5462C70.5376 30.5835 71.809 31.155 73.1195 31.155C74.4299 31.155 75.5775 30.6455 76.5666 29.6816C76.6194 29.6288 76.6217 29.5439 76.5689 29.4888C76.5161 29.436 76.4312 29.4337 76.3761 29.4865L76.3784 29.4888Z" fill="#360530"/>
<path d="M79.1308 21.1236C79.3373 19.9004 79.358 18.9135 77.8249 18.1263C77.6895 18.0575 77.5816 17.9404 77.5036 17.8096C75.7984 14.9133 73.0306 15.868 72.131 16.6231C71.9795 16.7516 71.7683 16.7929 71.5847 16.7218C70.1595 16.171 67.8049 17.3644 67.6419 19.1407C67.6075 19.5171 67.4744 19.8751 67.2472 20.1758C66.2626 21.4771 65.877 23.414 67.7268 24.853C68.872 25.7458 69.292 20.4351 69.6409 20.6876C70.6622 21.4289 71.4815 19.4597 72.0024 19.9601C72.808 20.7335 73.928 20.1666 74.504 19.8774C74.6371 19.8109 74.7955 19.8545 74.8827 19.9761C75.3738 20.6692 76.6154 21.4266 77.2006 21.3026C77.281 21.2866 77.3475 21.36 77.3315 21.438C76.4548 25.6953 80.5491 24.4491 79.2593 21.8947C79.1376 21.6561 79.0872 21.3876 79.1308 21.1213V21.1236Z" fill="#0071EB"/>
<path d="M79.3836 23.3682C78.4219 23.164 77.4144 24.0843 77.1299 25.4223C76.8453 26.7603 77.3938 28.0133 78.3531 28.2176C79.3147 28.4218 80.3222 27.5015 80.6068 26.1635C80.8914 24.8256 80.3429 23.5725 79.3836 23.3682Z" fill="#FF9EAB"/>
<path d="M79.5054 25.127C79.4824 25.1292 78.9087 25.2165 78.4198 25.8338C78.3739 25.8935 78.3831 25.9784 78.4405 26.0243C78.4657 26.045 78.4956 26.0541 78.5254 26.0541C78.5644 26.0541 78.6057 26.0358 78.631 26.0036C79.0487 25.4781 79.5352 25.3978 79.5421 25.3978C79.6155 25.3863 79.6683 25.3197 79.6568 25.244C79.6477 25.1706 79.5788 25.1178 79.5031 25.1292L79.5054 25.127Z" fill="#360530"/>
<path d="M66.8044 23.3682C65.8428 23.5725 65.2966 24.8233 65.5812 26.1635C65.8658 27.5015 66.8756 28.4218 67.8349 28.2176C68.7965 28.0133 69.3427 26.7625 69.0582 25.4223C68.7736 24.0843 67.7638 23.164 66.8044 23.3682Z" fill="#FF9EAB"/>
<path d="M66.6827 25.1253C66.6069 25.1139 66.5404 25.1667 66.5289 25.2401C66.5174 25.3135 66.5702 25.3824 66.6437 25.3939C66.6483 25.3939 67.1371 25.4742 67.5548 25.9997C67.5823 26.0342 67.6213 26.0502 67.6604 26.0502C67.6902 26.0502 67.72 26.0411 67.7453 26.0204C67.8049 25.9745 67.8141 25.8896 67.7659 25.8299C67.2748 25.2126 66.7033 25.1276 66.6804 25.123L66.6827 25.1253Z" fill="#360530"/>
<path d="M75.2035 24.3418C74.919 24.3418 74.6895 24.6126 74.6895 24.9454C74.6895 25.2782 74.919 25.549 75.2035 25.549C75.4881 25.549 75.7176 25.2782 75.7176 24.9454C75.7176 24.6126 75.4881 24.3418 75.2035 24.3418Z" fill="#360530"/>
<path d="M74.9042 26.9799C74.0321 27.3517 72.5265 27.4022 71.6866 27.0924C71.6154 27.0671 71.5374 27.1015 71.5121 27.1727C71.4869 27.2438 71.5213 27.3219 71.5925 27.3471C71.9872 27.494 72.5174 27.5628 73.0682 27.5628C73.7659 27.5628 74.4934 27.4481 75.012 27.2278C75.0809 27.1979 75.113 27.1199 75.0832 27.0511C75.0534 26.9822 74.9753 26.9501 74.9065 26.9799H74.9042Z" fill="#360530"/>
<path d="M73.315 25.0891C73.2737 25.0272 73.1911 25.0088 73.1268 25.0478C73.0648 25.0891 73.0465 25.1717 73.0855 25.236C73.0855 25.2383 73.2829 25.5435 73.3678 25.7294C73.4229 25.8511 73.4321 25.9498 73.3953 26.0209C73.3471 26.115 73.2186 26.1609 73.1727 26.1701C73.0993 26.1839 73.0511 26.255 73.0648 26.3284C73.0763 26.3927 73.1337 26.4386 73.198 26.4386C73.2071 26.4386 73.214 26.4386 73.2232 26.4363C73.253 26.4317 73.517 26.3743 73.634 26.1471C73.712 25.998 73.7052 25.8212 73.6134 25.6193C73.5216 25.415 73.3196 25.1029 73.3104 25.0914L73.315 25.0891Z" fill="#360530"/>
<path d="M70.9828 24.3418C70.6983 24.3418 70.4688 24.6126 70.4688 24.9454C70.4688 25.2782 70.6983 25.549 70.9828 25.549C71.2674 25.549 71.4969 25.2782 71.4969 24.9454C71.4969 24.6126 71.2674 24.3418 70.9828 24.3418Z" fill="#360530"/>
<path d="M70.8247 23.2168C69.8309 23.2168 69.0254 24.0246 69.0254 25.0161C69.0254 26.0075 69.8332 26.8177 70.8247 26.8177C71.8161 26.8177 72.624 26.0098 72.624 25.0161C72.624 24.0223 71.8161 23.2168 70.8247 23.2168ZM70.8247 26.5469C69.9824 26.5469 69.2962 25.8607 69.2962 25.0184C69.2962 24.1761 69.9824 23.4899 70.8247 23.4899C71.667 23.4899 72.3532 24.1761 72.3532 25.0184C72.3532 25.8607 71.667 26.5469 70.8247 26.5469Z" fill="#80DCE8"/>
<path d="M75.3598 23.2168C74.3661 23.2168 73.5605 24.0246 73.5605 25.0161C73.5605 26.0075 74.3684 26.8177 75.3598 26.8177C76.3513 26.8177 77.1591 26.0098 77.1591 25.0161C77.1591 24.0223 76.3513 23.2168 75.3598 23.2168ZM75.3598 26.5469C74.5176 26.5469 73.8314 25.8607 73.8314 25.0184C73.8314 24.1761 74.5176 23.4899 75.3598 23.4899C76.2021 23.4899 76.8883 24.1761 76.8883 25.0184C76.8883 25.8607 76.2021 26.5469 75.3598 26.5469Z" fill="#80DCE8"/>
<path d="M72.3535 24.6085L72.5715 24.7715C72.5715 24.7715 72.7437 24.5488 73.0076 24.5259C73.1981 24.5098 73.3977 24.5993 73.602 24.7898L73.7879 24.5925C73.524 24.3446 73.2509 24.2321 72.9801 24.2574C72.5945 24.2918 72.3627 24.5993 72.3535 24.6108V24.6085Z" fill="#80DCE8"/>
<path d="M82.5948 33.645C80.8919 29.4566 76.3616 32.7866 73.2266 32.9221C70.2431 32.4355 66.0845 29.0572 64.1911 33.0207C63.5669 34.5492 64.6754 36.438 66.734 36.9498C70.289 37.7576 83.646 39.8048 82.5948 33.6473V33.645Z" fill="#284EAD"/>
<path d="M82.6547 34.1738C82.579 34.1738 82.5193 34.2335 82.5193 34.3092C82.5193 35.8194 81.4544 36.8544 79.3568 37.3846C79.2833 37.4029 79.2397 37.4764 79.2581 37.5498C79.2742 37.6118 79.3292 37.6531 79.3889 37.6531C79.4004 37.6531 79.4119 37.6531 79.4233 37.6485C81.6564 37.0839 82.7901 35.9616 82.7901 34.3115C82.7901 34.2358 82.7305 34.1761 82.6547 34.1761V34.1738Z" fill="#360530"/>
<path d="M65.9182 36.5027C64.711 35.8854 64.011 34.7126 64.1786 33.5812C64.19 33.5077 64.1373 33.4389 64.0638 33.4274C63.9904 33.4159 63.9215 33.4664 63.9101 33.5422C63.7265 34.7883 64.4838 36.0736 65.7943 36.7437C65.8149 36.7529 65.8356 36.7598 65.8562 36.7598C65.9044 36.7598 65.9526 36.7322 65.9779 36.6863C66.0123 36.6198 65.9847 36.5372 65.9182 36.505V36.5027Z" fill="#360530"/>
<path d="M75.5826 36.095C75.5138 36.0629 75.4334 36.0927 75.4013 36.1593C75.3256 36.3199 73.5584 40.1273 74.6325 43.4322C74.6508 43.4895 74.7036 43.5263 74.761 43.5263C74.7748 43.5263 74.7885 43.5263 74.8023 43.5194C74.8735 43.4964 74.9125 43.4207 74.8895 43.3472C73.8476 40.1457 75.6262 36.313 75.6446 36.274C75.6767 36.2075 75.6469 36.1248 75.5803 36.0927L75.5826 36.095Z" fill="#360530"/>
<path d="M70.7639 36.0108C70.6951 36.0406 70.663 36.121 70.6928 36.1898C70.7089 36.2288 72.3567 40.1189 71.2069 43.286C71.1816 43.3572 71.2184 43.4352 71.2872 43.4604C71.3033 43.465 71.317 43.4696 71.3331 43.4696C71.3882 43.4696 71.441 43.4352 71.4616 43.3801C72.6481 40.112 71.0118 36.2472 70.9407 36.0843C70.9108 36.0154 70.8328 35.9833 70.7616 36.0131L70.7639 36.0108Z" fill="#360530"/>
<path d="M121.082 68.8066L120.49 76.4215C120.49 81.0643 124.286 84.8281 128.968 84.8281H141.63C146.311 84.8281 150.107 81.0643 150.107 76.4215L149.515 68.8066H121.082Z" fill="#FF3F31"/>
<path d="M149.46 130.854H138.125L138.914 140.071C141.467 139.983 145.524 141.516 149.364 142.524C150.068 142.524 151.402 140.702 151.402 140.702L150.162 140.181L149.46 130.852V130.854Z" fill="#00AB41"/>
<path d="M158.211 143.297C156.49 142.528 151.881 140.29 151.691 140.455C150.853 140.687 150.07 142.486 148.827 142.381C145.148 141.376 141.347 139.987 138.914 140.072C138.27 142.408 138.368 144.607 138.93 146.721L160.524 146.668C160.52 144.57 159.443 143.909 158.213 143.301L158.211 143.297Z" fill="#00AB41"/>
<path d="M149.46 130.854H138.125L138.914 140.071C141.467 139.983 145.524 141.516 149.364 142.524C150.068 142.524 151.402 140.702 151.402 140.702L150.162 140.181L149.46 130.852V130.854Z" fill="#FF9EAB"/>
<path d="M158.211 143.297C156.49 142.528 151.881 140.29 151.691 140.455C150.853 140.687 150.07 142.486 148.827 142.381C145.148 141.376 141.347 139.987 138.914 140.072C138.27 142.408 138.368 144.607 138.93 146.721L160.524 146.668C160.52 144.57 159.443 143.909 158.213 143.301L158.211 143.297Z" fill="#0071EB"/>
<path d="M157.82 143.885C157.781 143.89 153.855 144.346 150.458 142.751C150.389 142.719 150.309 142.749 150.277 142.816C150.245 142.884 150.274 142.965 150.341 142.997C152.54 144.03 154.952 144.22 156.434 144.22C157.29 144.22 157.836 144.156 157.852 144.154C157.926 144.144 157.979 144.078 157.97 144.002C157.96 143.929 157.894 143.876 157.818 143.885H157.82Z" fill="white"/>
<path d="M153.799 141.591L152.845 142.541C152.693 142.692 152.523 142.74 152.39 142.667C152.273 142.603 152.179 142.433 152.225 142.213L152.636 141.127C152.663 141.058 152.627 140.978 152.558 140.953C152.489 140.925 152.409 140.962 152.383 141.031L151.966 142.134C151.895 142.46 152.014 142.768 152.262 142.903C152.344 142.947 152.432 142.97 152.523 142.97C152.698 142.97 152.881 142.887 153.037 142.731L153.992 141.783C154.045 141.731 154.045 141.646 153.992 141.591C153.939 141.538 153.854 141.538 153.802 141.591H153.799Z" fill="white"/>
<path d="M120.466 140.183L119.227 140.704C119.227 140.704 120.558 142.524 121.265 142.526C125.106 141.516 129.162 139.983 131.714 140.073L132.503 130.854H121.168L120.466 140.183Z" fill="#00AB41"/>
<path d="M131.713 140.071C129.278 139.988 125.477 141.377 121.801 142.38C120.557 142.485 119.772 140.686 118.937 140.454C118.746 140.289 114.14 142.527 112.417 143.295C111.186 143.906 110.11 144.567 110.105 146.662L131.699 146.715C132.264 144.601 132.363 142.403 131.715 140.066L131.713 140.071Z" fill="#00AB41"/>
<path d="M120.466 140.183L119.227 140.704C119.227 140.704 120.558 142.524 121.265 142.526C125.106 141.516 129.162 139.983 131.714 140.073L132.503 130.854H121.168L120.466 140.183Z" fill="#FF9EAB"/>
<path d="M131.713 140.071C129.278 139.988 125.477 141.377 121.801 142.38C120.557 142.485 119.772 140.686 118.937 140.454C118.746 140.289 114.14 142.527 112.417 143.295C111.186 143.906 110.11 144.567 110.105 146.662L131.699 146.715C132.264 144.601 132.363 142.403 131.715 140.066L131.713 140.071Z" fill="#0071EB"/>
<path d="M120.169 142.752C116.773 144.347 112.846 143.89 112.807 143.885C112.733 143.876 112.665 143.929 112.655 144.002C112.646 144.076 112.699 144.145 112.772 144.154C112.786 144.154 113.332 144.22 114.191 144.22C115.673 144.22 118.085 144.03 120.284 142.997C120.351 142.965 120.38 142.885 120.348 142.816C120.316 142.747 120.236 142.72 120.167 142.752H120.169Z" fill="white"/>
<path d="M118.242 141.029C118.215 140.958 118.137 140.923 118.068 140.951C117.999 140.978 117.962 141.056 117.99 141.125L118.396 142.192C118.449 142.431 118.352 142.601 118.235 142.665C118.102 142.739 117.932 142.691 117.781 142.539L116.826 141.591C116.773 141.538 116.686 141.538 116.633 141.591C116.581 141.644 116.581 141.731 116.633 141.784L117.588 142.732C117.744 142.89 117.928 142.973 118.104 142.973C118.194 142.973 118.283 142.95 118.366 142.906C118.614 142.771 118.731 142.463 118.655 142.119L118.244 141.034L118.242 141.029Z" fill="white"/>
<path d="M134.705 76.2137L137.599 138.881L152.501 137.791L150.004 75.0938L134.705 76.2137Z" fill="#FF3F31"/>
<path d="M117.121 137.72L133.023 138.881L135.917 76.2137L120.619 75.0938L117.121 137.72Z" fill="#FF3F31"/>
<path d="M123.127 68.6702C123.054 68.6656 122.99 68.723 122.985 68.7987L119.102 137.867C119.097 137.943 119.155 138.005 119.23 138.009C119.233 138.009 119.235 138.009 119.237 138.009C119.308 138.009 119.368 137.954 119.373 137.881L123.256 68.8125C123.26 68.7367 123.203 68.6748 123.127 68.6702Z" fill="#360530"/>
<path d="M127.184 68.6699C127.11 68.6699 127.046 68.725 127.044 68.8007L124.455 138.259C124.453 138.335 124.51 138.397 124.586 138.399H124.591C124.664 138.399 124.724 138.342 124.726 138.269L127.315 68.8099C127.317 68.7342 127.26 68.6722 127.184 68.6699Z" fill="#360530"/>
<path d="M131.243 68.6699C131.165 68.6699 131.105 68.7273 131.105 68.803L129.811 138.654C129.811 138.73 129.868 138.792 129.944 138.792H129.946C130.019 138.792 130.079 138.732 130.081 138.659L131.376 68.8076C131.376 68.7319 131.318 68.6699 131.243 68.6699Z" fill="#360530"/>
<path d="M135.298 68.6699C135.222 68.6699 135.162 68.7296 135.162 68.8053V87.8838C135.162 87.9595 135.222 88.0192 135.298 88.0192C135.373 88.0192 135.433 87.9595 135.433 87.8838V68.8053C135.433 68.7296 135.373 68.6699 135.298 68.6699Z" fill="#360530"/>
<path d="M139.356 68.6699C139.28 68.6699 139.22 68.7342 139.223 68.8076L140.517 138.661C140.517 138.734 140.579 138.794 140.653 138.794H140.655C140.731 138.794 140.79 138.73 140.788 138.656L139.494 68.803C139.494 68.7273 139.432 68.6699 139.356 68.6699Z" fill="#360530"/>
<path d="M143.412 68.6699C143.336 68.6722 143.279 68.7365 143.281 68.8099L145.87 138.271C145.872 138.344 145.932 138.402 146.005 138.402H146.01C146.086 138.399 146.143 138.335 146.141 138.262L143.552 68.8007C143.55 68.725 143.486 68.6699 143.412 68.6699Z" fill="#360530"/>
<path d="M147.469 68.67C147.393 68.6746 147.336 68.7388 147.34 68.8123L151.223 137.881C151.228 137.952 151.288 138.009 151.359 138.009C151.361 138.009 151.363 138.009 151.366 138.009C151.441 138.005 151.496 137.94 151.494 137.867L147.611 68.7985C147.606 68.7228 147.542 68.6677 147.469 68.67Z" fill="#360530"/>
<path d="M131.144 25.9297C130.29 25.9297 126.618 26.8752 128.215 30.382C128.502 31.0131 126.005 32.2869 128.569 33.68C130.969 34.9835 133.964 33.3495 133.34 30.9627C132.716 28.5758 131.998 25.9297 131.144 25.9297Z" fill="#D043A8"/>
<path d="M141.839 30.382C143.437 26.8775 139.765 25.9297 138.911 25.9297C138.057 25.9297 137.339 28.5758 136.715 30.9627C136.09 33.3495 139.085 34.9835 141.486 33.68C144.049 32.2869 141.552 31.0131 141.839 30.382Z" fill="#D043A8"/>
<path d="M135.117 19.291C132.126 19.291 129.613 21.7811 129.613 25.4761C129.613 29.1711 132.037 32.1683 135.027 32.1683C138.018 32.1683 140.441 29.1733 140.441 25.4761C140.441 21.7788 138.105 19.291 135.114 19.291H135.117Z" fill="#FF9EAB"/>
<path d="M138.911 29.4512H131.145V37.906H138.911V29.4512Z" fill="#FF9EAB"/>
<path d="M138.284 30.6344C137.348 31.5478 136.221 32.0321 135.028 32.0321C133.834 32.0321 132.59 31.4905 131.643 30.5059C131.59 30.4531 131.505 30.4508 131.452 30.5013C131.397 30.5541 131.397 30.639 131.447 30.6918C132.446 31.7292 133.717 32.3006 135.028 32.3006C136.338 32.3006 137.486 31.7911 138.475 30.8272C138.528 30.7744 138.53 30.6895 138.477 30.6367C138.424 30.5839 138.339 30.5816 138.284 30.6344Z" fill="#360530"/>
<path d="M138.379 19.3847C136.174 15.63 128.214 18.7857 128.409 23.4652C128.554 26.9766 127.714 25.3127 129.137 26.7379C130.165 27.7661 131.049 23.2196 131.544 23.2196C135.129 23.2196 136.828 20.7341 137.055 21.7921C137.505 23.8852 138.611 24.0803 138.909 24.5599C139.458 25.4412 140.213 29.2762 141.287 24.5186C141.695 22.7079 140.922 19.387 138.377 19.387L138.379 19.3847Z" fill="#D043A8"/>
<path d="M141.288 24.5167C140.326 24.3124 139.319 25.2327 139.034 26.5707C138.75 27.9087 139.298 29.1618 140.257 29.366C141.219 29.5703 142.227 28.65 142.511 27.312C142.796 25.974 142.247 24.7209 141.288 24.5167Z" fill="#FF9EAB"/>
<path d="M141.41 26.2734C141.387 26.278 140.815 26.3629 140.324 26.9803C140.278 27.04 140.287 27.1249 140.345 27.1708C140.37 27.1914 140.4 27.2006 140.43 27.2006C140.469 27.2006 140.51 27.1823 140.535 27.1501C140.953 26.6246 141.442 26.5442 141.446 26.5442C141.52 26.5328 141.57 26.4662 141.561 26.3905C141.552 26.317 141.481 26.2643 141.407 26.2757L141.41 26.2734Z" fill="#360530"/>
<path d="M128.709 24.5167C127.747 24.7209 127.201 25.9717 127.486 27.312C127.77 28.65 128.78 29.5703 129.739 29.366C130.701 29.1618 131.247 27.911 130.962 26.5707C130.678 25.2327 129.668 24.3124 128.709 24.5167Z" fill="#FF9EAB"/>
<path d="M128.587 26.2738C128.513 26.2646 128.444 26.3151 128.435 26.3885C128.424 26.462 128.476 26.5308 128.55 26.5423C128.555 26.5423 129.043 26.6226 129.461 27.1482C129.489 27.1826 129.528 27.1987 129.567 27.1987C129.596 27.1987 129.626 27.1895 129.652 27.1688C129.711 27.1229 129.72 27.038 129.674 26.9783C129.183 26.361 128.612 26.2761 128.589 26.2715L128.587 26.2738Z" fill="#360530"/>
<path d="M132.725 25.5684C132.44 25.5684 132.211 25.8392 132.211 26.1719C132.211 26.5047 132.44 26.7755 132.725 26.7755C133.01 26.7755 133.239 26.5047 133.239 26.1719C133.239 25.8392 133.01 25.5684 132.725 25.5684Z" fill="#360530"/>
<path d="M136.944 25.5684C136.659 25.5684 136.43 25.8392 136.43 26.1719C136.43 26.5047 136.659 26.7755 136.944 26.7755C137.228 26.7755 137.458 26.5047 137.458 26.1719C137.458 25.8392 137.228 25.5684 136.944 25.5684Z" fill="#360530"/>
<path d="M136.644 28.2084C135.772 28.5802 134.267 28.6307 133.427 28.3209C133.356 28.2956 133.278 28.3301 133.252 28.4012C133.227 28.4723 133.262 28.5504 133.333 28.5756C133.727 28.7225 134.258 28.7914 134.808 28.7914C135.506 28.7914 136.234 28.6766 136.75 28.4563C136.819 28.4264 136.851 28.3484 136.821 28.2796C136.791 28.2107 136.711 28.1786 136.644 28.2084Z" fill="#360530"/>
<path d="M135.057 26.3157C135.016 26.2537 134.933 26.2354 134.869 26.2744C134.807 26.3157 134.789 26.3983 134.828 26.4626C134.828 26.4649 135.025 26.7701 135.11 26.956C135.165 27.0776 135.174 27.174 135.138 27.2475C135.089 27.3416 134.961 27.3875 134.915 27.3966C134.841 27.4104 134.793 27.4816 134.807 27.555C134.819 27.6193 134.876 27.6652 134.94 27.6652C134.949 27.6652 134.956 27.6652 134.965 27.6629C134.995 27.6583 135.259 27.6009 135.376 27.3737C135.454 27.2245 135.445 27.0478 135.356 26.8458C135.264 26.6416 135.062 26.3295 135.053 26.318L135.057 26.3157Z" fill="#360530"/>
<path d="M140.48 34.0156H129.205C124.654 34.0156 120.892 36.9601 120.626 40.7331L118.678 68.2756C118.678 68.2756 122.07 71.3463 134.897 71.3463C147.723 71.3463 151.01 68.2756 151.01 68.2756L149.061 40.7331C148.795 36.9601 145.034 34.0156 140.483 34.0156H140.48Z" fill="#FFBE00"/>
<path d="M165.08 15.6605C164.621 15.5756 164.15 16.0254 163.962 17.0467L162.775 23.4773L164.442 23.7848L165.628 17.3542C165.825 16.2893 165.539 15.7454 165.077 15.6605H165.08Z" fill="#FF9EAB"/>
<path d="M167.263 14.8363C166.802 14.7514 166.334 15.2012 166.145 16.2225L165.209 21.3036L166.875 21.6112L167.812 16.53C168.009 15.4651 167.722 14.9212 167.261 14.8363H167.263Z" fill="#FF9EAB"/>
<path d="M169.067 16.0687C168.606 15.9838 168.138 16.4336 167.95 17.4549L167.174 21.6662L168.84 21.9738L169.616 17.7624C169.811 16.6975 169.526 16.1536 169.065 16.0687H169.067Z" fill="#FF9EAB"/>
<path d="M170.89 17.2171C170.428 17.1322 169.96 17.582 169.772 18.6033L168.852 23.5996L170.518 23.9071L171.438 18.9108C171.635 17.846 171.349 17.302 170.89 17.2171Z" fill="#FF9EAB"/>
<path d="M169.678 21.6132L165.806 20.8994C164.119 20.5896 162.501 21.7027 162.189 23.3895L160.736 31.2752L168.881 32.7761L170.674 23.059C170.798 22.3843 170.352 21.7371 169.678 21.6132Z" fill="#FF9EAB"/>
<path d="M164.11 23.5005C162.171 22.8694 161.976 18.0177 160.144 18.8371C159.325 19.2043 160.183 22.1052 160.599 23.7507C160.95 25.146 161.124 26.6424 161.98 27.7968C162.476 28.4646 164.521 29.7131 166.038 27.8381C167.087 26.5414 166.912 24.4093 164.112 23.5005H164.11Z" fill="#FF9EAB"/>
<path d="M164.151 23.371C163.722 23.231 163.348 22.857 162.969 22.1891C162.933 22.1248 162.85 22.1019 162.783 22.1386C162.717 22.1753 162.696 22.258 162.733 22.3245C163.146 23.0543 163.571 23.4697 164.066 23.6304C165.239 24.0114 166.024 24.6379 166.341 25.4434C166.586 26.0654 166.531 26.7516 166.185 27.3758C166.148 27.4424 166.171 27.5227 166.237 27.5594C166.258 27.5709 166.281 27.5755 166.304 27.5755C166.352 27.5755 166.398 27.5503 166.423 27.5067C166.804 26.8227 166.866 26.0333 166.595 25.3425C166.354 24.7274 165.732 23.8851 164.151 23.371Z" fill="#360530"/>
<path d="M169.495 22.9019C167.057 21.3711 164.216 21.3184 164.189 21.3184C164.108 21.3184 164.053 21.378 164.051 21.4515C164.049 21.5249 164.111 21.5869 164.184 21.5892C164.211 21.5892 166.977 21.642 169.35 23.1314C169.373 23.1452 169.398 23.1521 169.421 23.1521C169.467 23.1521 169.511 23.1291 169.536 23.0878C169.575 23.0236 169.557 22.9409 169.492 22.9019H169.495Z" fill="#360530"/>
<path d="M158.357 35.2557C156.134 41.2182 157.83 38.4137 143.605 34.5099L140.199 47.9931C143.798 49.1498 147.816 50.6369 151.569 51.4448C157.049 52.6565 162.429 51.8762 166.181 47.3298C169.316 43.4604 170.358 38.8337 171.336 34.3263C171.657 32.7633 171.914 31.2372 172.162 29.7133L160.595 27.4688C159.971 30.0874 159.273 32.8138 158.362 35.2603L158.357 35.2557Z" fill="#FFBE00"/>
<path d="M128.227 48.9376L126.273 72.8984L143.678 74.3172L145.632 50.3564L128.227 48.9376Z" fill="#FFFFE9"/>
<path d="M128.986 49.5704L127.033 73.5312L144.438 74.95L146.391 50.9892L128.986 49.5704Z" fill="#284EAD"/>
<path d="M145.632 60.582L139.172 60.5981L139.176 62.5994L145.637 62.5833C146.706 62.581 147.181 62.1312 147.181 61.5804C147.181 61.0273 146.656 60.582 145.632 60.5843V60.582Z" fill="#FF9EAB"/>
<path d="M146.034 62.5801L140.928 62.5938L140.932 64.5951L146.039 64.5813C147.108 64.579 147.583 64.1292 147.583 63.5784C147.583 63.0253 147.06 62.5801 146.034 62.5824V62.5801Z" fill="#FF9EAB"/>
<path d="M145.709 64.582L141.477 64.5935L141.481 66.5948L145.713 66.5833C146.783 66.581 147.258 66.1312 147.258 65.5804C147.258 65.0273 146.734 64.582 145.709 64.5843V64.582Z" fill="#FF9EAB"/>
<path d="M145.269 66.584L140.25 66.5955L140.255 68.5967L145.274 68.5852C146.343 68.5829 146.818 68.1331 146.818 67.5823C146.818 67.0292 146.295 66.584 145.269 66.5863V66.584Z" fill="#FF9EAB"/>
<path d="M142.378 60.3086L132.248 60.3338L132.269 68.6165L144.262 68.5867C144.949 68.5867 145.502 68.0267 145.502 67.3428L145.493 63.4069C145.488 61.6925 144.095 60.3063 142.381 60.3109L142.378 60.3086Z" fill="#FF9EAB"/>
<path d="M141.529 58.8402C139.306 58.87 137.942 59.7513 136.962 61.2545C136.393 62.1266 135.448 64.3138 137.713 65.2111C139.28 65.8331 140.065 65.0436 140.976 62.2827C141.55 60.5431 143.978 62.9964 144.361 61.1444C144.534 60.3136 143.349 58.8149 141.529 58.8402Z" fill="#FF9EAB"/>
<path d="M143.775 60.4512L140.647 60.4581C140.571 60.4581 140.512 60.52 140.512 60.5935C140.512 60.6692 140.571 60.7289 140.647 60.7289L143.775 60.722C143.851 60.722 143.911 60.66 143.911 60.5866C143.911 60.5108 143.849 60.4512 143.775 60.4512Z" fill="#360530"/>
<path d="M123.341 57.3225C123.355 57.2789 123.369 57.2284 123.387 57.1687C125.299 52.542 123.922 54.9563 127.295 51.1374L122.664 36.5273C104.494 55.7206 105.741 72.8207 135.523 70.6772L135.133 58.8991C131.734 59.1401 125.097 58.1487 123.341 57.3225Z" fill="#FFBE00"/>
<path d="M126.994 58.1186C125.417 57.8409 124.159 57.5264 123.503 57.2464L123.512 57.2189C123.946 56.1655 124.517 55.119 125.256 54.0197C125.298 53.9577 125.281 53.8728 125.219 53.8315C125.158 53.7902 125.073 53.8062 125.031 53.8682C124.283 54.9836 123.702 56.0462 123.257 57.1271L123.211 57.2832C123.191 57.3474 123.223 57.4163 123.282 57.4461C123.932 57.7514 125.233 58.0864 126.948 58.3871C126.955 58.3871 126.964 58.3871 126.971 58.3871C127.035 58.3871 127.092 58.3412 127.104 58.2746C127.117 58.2012 127.067 58.13 126.994 58.1186Z" fill="#360530"/>
<path d="M149.814 50.6849L148.1 50.1548C148.029 50.1318 147.953 50.1732 147.93 50.2443C147.907 50.3154 147.949 50.3912 148.02 50.4141L149.732 50.9443C149.746 50.9489 149.759 50.9512 149.773 50.9512C149.83 50.9512 149.886 50.9144 149.902 50.8548C149.925 50.7836 149.883 50.7079 149.812 50.6849H149.814Z" fill="#360530"/>
<path d="M129.354 34.214L130.88 37.209C131.19 37.8172 132.025 37.8975 132.445 37.3604L135.064 34.0166L131.013 32.5547L129.354 34.214Z" fill="#FFFFE9"/>
<path d="M135.066 34.0166L137.685 37.3604C138.105 37.8975 138.94 37.8172 139.25 37.209L140.776 34.214L139.117 32.5547L135.066 34.0166Z" fill="#FFFFE9"/>
<path d="M133.846 35.5759C134.66 35.8123 135.473 35.8123 136.288 35.5759L135.067 34.0176L133.846 35.5759Z" fill="#0071EB"/>
</g>
<defs>
<clipPath id="clip0_47_12731">
<rect width="208" height="147.333" fill="white"/>
</clipPath>
</defs>
</svg>
