<svg width="208" height="148" viewBox="0 0 208 148" fill="none" xmlns="http://www.w3.org/2000/svg">
<g clip-path="url(#clip0_47_6057)">
<path d="M93.2734 6.1125L100.587 11.1249L96.0214 3.45703L93.2734 6.1125Z" fill="#FFBE00"/>
<path d="M103.709 10.7563L106.017 0H101.898L103.709 10.7563Z" fill="#FFBE00"/>
<path d="M107.328 11.1328L114.443 4.62768L111.413 2.36328L107.328 11.1328Z" fill="#FFBE00"/>
<path d="M179.604 21.9651C179.187 22.1693 179.082 22.8066 179.536 23.7284L182.399 29.5456L183.908 28.8036L181.044 22.9864C180.571 22.0244 180.021 21.7608 179.606 21.9651H179.604Z" fill="#FF9EAB"/>
<path d="M182.279 19.9244C181.832 20.0501 181.612 20.6559 181.892 21.6458L183.28 26.5779L184.898 26.1223L183.51 21.1902C183.22 20.1584 182.728 19.7987 182.281 19.9244H182.279Z" fill="#FF9EAB"/>
<path d="M185.067 20.0619C184.611 20.1457 184.335 20.7288 184.522 21.7397L185.294 25.9158L186.947 25.6103L186.175 21.4342C185.98 20.3797 185.524 19.9764 185.067 20.0619Z" fill="#FF9EAB"/>
<path d="M187.428 20.4978C186.967 20.5485 186.649 21.1089 186.761 22.132L187.305 27.1391L188.976 26.9576L188.432 21.9504C188.316 20.8837 187.89 20.4489 187.428 20.4978Z" fill="#FF9EAB"/>
<path d="M187.392 24.8978L183.635 25.9558C181.999 26.4167 181.046 28.1172 181.507 29.7531L184.316 39.736L192.221 37.5117L188.911 25.7515C188.726 25.0968 188.047 24.7162 187.392 24.8995V24.8978Z" fill="#FF9EAB"/>
<path d="M183.262 29.0112C181.261 29.2975 178.965 25.0655 177.694 26.5966C177.125 27.281 179.157 29.4878 180.247 30.771C181.17 31.8587 181.979 33.1157 183.244 33.7669C183.979 34.144 186.343 34.3605 186.874 32.0298C187.241 30.4166 186.153 28.5974 183.264 29.0112H183.262Z" fill="#FF9EAB"/>
<path d="M181.598 28.4551C182.156 28.8357 182.72 29.0888 183.261 29.012C185.872 28.6384 187.012 30.0875 186.937 31.5592" stroke="#5D0859" stroke-width="0.268864" stroke-linecap="round" stroke-linejoin="round"/>
<path d="M182.434 27.153C182.434 27.153 184.941 25.9589 187.776 26.2539" stroke="#5D0859" stroke-width="0.268864" stroke-linecap="round" stroke-linejoin="round"/>
<path d="M169.133 72.2747C170.899 72.3637 171.515 70.7889 171.515 70.7889L169.889 69.7641C169.032 68.9575 167.368 72.1839 169.133 72.2747Z" fill="#5D0859"/>
<path d="M192.531 81.957L178.33 87.1621L181.415 95.5795L195.616 90.3744L192.531 81.957Z" fill="#0071EB"/>
<path d="M178.766 88.3568L192.967 83.1523" stroke="white" stroke-width="0.268864" stroke-miterlimit="10"/>
<path d="M179.207 89.5656L193.408 84.3594" stroke="white" stroke-width="0.268864" stroke-miterlimit="10"/>
<path d="M179.65 90.7708L193.85 85.5664" stroke="white" stroke-width="0.268864" stroke-miterlimit="10"/>
<path d="M180.092 91.9779L194.293 86.7734" stroke="white" stroke-width="0.268864" stroke-miterlimit="10"/>
<path d="M180.535 93.1867L194.734 87.9805" stroke="white" stroke-width="0.268864" stroke-miterlimit="10"/>
<path d="M180.979 94.392L195.179 89.1875" stroke="white" stroke-width="0.268864" stroke-miterlimit="10"/>
<path d="M189.615 83.0302C189.615 83.0302 191.562 88.3098 191.719 89.1495C191.953 90.3978 191.218 90.4502 190.704 90.9914C190.387 91.3266 190.179 91.9115 190.237 92.3689L190.242 92.4091C193.431 94.0991 196.326 96.4403 198.774 99.7714C200.13 100.943 202.016 101.285 203.699 100.669L196.331 80.5703L189.613 83.032L189.615 83.0302Z" fill="#FF8736"/>
<path d="M202.025 99.8055L195.412 81.7637" stroke="white" stroke-width="0.268864" stroke-linecap="round" stroke-linejoin="round"/>
<path d="M196.809 97.1468L197.844 95.0273" stroke="white" stroke-width="0.806593" stroke-linecap="round" stroke-linejoin="round"/>
<path d="M195.156 95.8461L196.192 93.7266" stroke="white" stroke-width="0.806593" stroke-linecap="round" stroke-linejoin="round"/>
<path d="M159.728 119.886L152.045 124.502L159.835 137.466L167.518 132.85L159.728 119.886Z" fill="#0071EB"/>
<path d="M158.643 120.523L166.433 133.487" stroke="white" stroke-width="0.268864" stroke-miterlimit="10"/>
<path d="M157.541 121.188L165.331 134.151" stroke="white" stroke-width="0.268864" stroke-miterlimit="10"/>
<path d="M156.439 121.85L164.23 134.813" stroke="white" stroke-width="0.268864" stroke-miterlimit="10"/>
<path d="M155.338 122.512L163.128 135.475" stroke="white" stroke-width="0.268864" stroke-miterlimit="10"/>
<path d="M154.236 123.172L162.026 136.135" stroke="white" stroke-width="0.268864" stroke-miterlimit="10"/>
<path d="M153.135 123.836L160.925 136.799" stroke="white" stroke-width="0.268864" stroke-miterlimit="10"/>
<path d="M160.311 133.395C159.129 133.861 158.938 133.147 158.312 132.747C157.924 132.5 157.309 132.404 156.871 132.548L156.833 132.561C155.775 136.012 154.022 139.296 151.213 142.329C150.319 143.883 150.336 145.798 151.26 147.334L169.609 136.307L165.924 130.176C165.924 130.176 161.105 133.083 160.312 133.397L160.311 133.395Z" fill="#FF8736"/>
<path d="M151.846 145.467L168.316 135.568" stroke="white" stroke-width="0.268864" stroke-linecap="round" stroke-linejoin="round"/>
<path d="M153.416 139.902L155.693 140.519" stroke="white" stroke-width="0.806593" stroke-linecap="round" stroke-linejoin="round"/>
<path d="M154.381 138.033L156.657 138.65" stroke="white" stroke-width="0.806593" stroke-linecap="round" stroke-linejoin="round"/>
<path d="M159.002 33.8711H151.301V43.7632H159.002V33.8711Z" fill="#FF9EAB"/>
<path d="M155.151 24.4326C151.82 24.183 148.639 25.0123 148.639 31.3987C148.639 35.0633 148.709 37.3713 151.984 37.3713C155.259 37.3713 160.497 35.0633 160.497 31.3987C160.497 27.7341 158.416 24.6788 155.151 24.4326Z" fill="#FF9EAB"/>
<path d="M156.117 36.4473C154.717 37.0461 153.212 37.3708 151.984 37.3708" stroke="#5D0859" stroke-width="0.268864" stroke-linecap="round" stroke-linejoin="round"/>
<path d="M160.762 30.5576C160.689 30.3865 160.607 30.2085 160.626 30.0251C160.645 29.8506 160.752 29.6987 160.837 29.545C161.356 28.6023 160.963 27.2736 160.017 26.7621C159.621 26.5474 159.118 26.4356 158.9 26.0411C158.828 25.9136 158.797 25.7687 158.756 25.6273C158.458 24.5815 157.623 23.7051 156.593 23.3559C155.563 23.0067 154.369 23.1901 153.494 23.836C153.353 23.939 153.192 24.0612 153.023 24.0211C152.913 23.9949 152.831 23.9041 152.74 23.8378C152.288 23.5078 151.656 23.7627 151.176 24.0473C150.308 24.5641 149.477 25.1821 148.892 26.0061C148.307 26.8302 147.995 27.8882 148.232 28.8711C148.257 28.9724 148.292 29.0771 148.374 29.14C148.447 29.1941 148.543 29.2028 148.634 29.2046C149.393 29.2133 150.139 28.7629 150.486 28.089C150.748 28.4783 151.27 28.6721 151.722 28.5481C152.251 28.4032 152.602 27.9022 153.084 27.6403C153.192 27.5809 153.313 27.5338 153.435 27.553C153.608 27.5792 153.73 27.7276 153.849 27.855C154.68 28.7611 156.239 29.0457 157.155 28.2269L157.258 28.274C157.019 29.5311 156.794 30.9016 157.386 32.0364C157.442 32.1446 157.508 32.2511 157.611 32.3175C157.948 32.534 158.411 32.1778 158.786 32.321C158.695 32.6178 158.652 32.9355 158.68 33.2428C158.325 33.365 158.124 33.7753 157.88 34.3863C157.574 35.1475 157.65 36.1322 158.463 36.4133C159.116 36.6402 159.839 35.9594 160.026 35.0794C160.061 34.9188 160.075 34.7582 160.071 34.6046C160.071 34.6046 160.073 34.6046 160.075 34.6046C160.579 34.5574 160.996 34.1437 161.173 33.6688C161.349 33.1922 161.321 32.6666 161.237 32.1656C161.145 31.6139 160.986 31.0727 160.764 30.5594L160.762 30.5576Z" fill="#0071EB"/>
<path d="M159.311 29.743C158.36 29.5404 157.358 30.4535 157.077 31.7804C156.794 33.1073 157.339 34.3486 158.29 34.5511C159.242 34.7536 160.244 33.8405 160.525 32.5137C160.808 31.1868 160.263 29.9455 159.311 29.743Z" fill="#FF9EAB"/>
<path d="M159.33 31.6562C159.33 31.6562 158.797 31.7313 158.34 32.3075" stroke="#5D0859" stroke-width="0.268864" stroke-linecap="round" stroke-linejoin="round"/>
<path d="M171.696 86.8257L169.341 70.6816L151.338 73.8661L156.708 99.6491C157.441 104.918 163.205 108.159 168.067 105.926L190.833 95.7576L185.19 81.8709L171.696 86.8257Z" fill="#111111"/>
<path d="M158.689 74.3173L140.577 71.8242L137.136 102.658C136.888 104.308 137.101 105.994 137.953 107.557L151.581 132.668L164.962 125.913L154.052 102.6L158.689 74.3191V74.3173Z" fill="#111111"/>
<path d="M183.916 84.6211L188.012 95.2569" stroke="#E2CFCF" stroke-width="0.268864" stroke-linecap="round" stroke-linejoin="round"/>
<path d="M184.905 91.627C184.905 91.627 171.829 100.985 166.516 97.9208C163.768 96.3356 162.293 77.9219 162.293 77.9219" stroke="#E2CFCF" stroke-width="0.268864" stroke-linecap="round" stroke-linejoin="round"/>
<path d="M155.487 93.0095C155.487 93.0095 155.054 88.5139 154.621 82.7734" stroke="#E2CFCF" stroke-width="0.268864" stroke-linecap="round" stroke-linejoin="round"/>
<path d="M162.294 123.084L151.838 128.882" stroke="#E2CFCF" stroke-width="0.268864" stroke-linecap="round" stroke-linejoin="round"/>
<path d="M155.649 124.095C155.649 124.095 144.374 108.112 145.402 101.182C146.408 94.4082 147.548 77.2812 147.548 77.2812" stroke="#E2CFCF" stroke-width="0.268864" stroke-linecap="round" stroke-linejoin="round"/>
<path d="M180.942 34.6891C181.265 36.1836 181.481 37.6623 181.553 39.0835C181.705 41.7529 181.244 46.0407 178.726 47.1372C178.506 47.2437 178.246 47.2698 178.01 47.3344C177.89 47.3379 177.757 47.3432 177.638 47.3659C176.282 47.3711 175.222 47.0865 173.715 46.4074C171.289 45.2918 168.829 43.3259 166.849 41.4282L157.301 52.0064L158.526 53.012C161.613 55.4912 164.773 57.5146 168.572 59.0056C174.389 61.2997 181.382 61.4114 186.659 57.3837C194.54 51.4337 194.799 40.2794 192.241 31.7246L180.94 34.6891H180.942Z" fill="#FF3F31"/>
<path d="M111.938 19.2029L108.237 20.4425C107.593 20.659 107.245 21.3556 107.46 22.0016L111.584 34.3099L119.37 31.7016L115.833 21.1443C115.294 19.5329 113.55 18.6634 111.936 19.2029H111.938Z" fill="#FF9EAB"/>
<path d="M103.938 14.446L109.626 26.496L112.035 25.6877L114.444 24.8811L111.726 11.8359L103.938 14.446Z" fill="white" stroke="#A3D7E9" stroke-width="0.754216" stroke-linecap="round" stroke-linejoin="round"/>
<path d="M106.307 16.7231L109.978 25.002L111.621 24.452L113.262 23.9021L111.314 14.5547L106.307 16.7231Z" fill="#FFD550"/>
<path d="M108.366 17.0755C108.036 17.1855 107.858 17.5434 107.968 17.8733C108.078 18.2033 108.436 18.3814 108.766 18.2714C109.096 18.1614 109.274 17.8035 109.164 17.4735C109.054 17.1436 108.696 16.9655 108.366 17.0755Z" stroke="white" stroke-width="0.268864" stroke-miterlimit="10"/>
<path d="M110.499 18.5612C110.24 18.6485 110.101 18.9278 110.188 19.1862C110.275 19.4446 110.555 19.5842 110.813 19.497C111.072 19.4097 111.211 19.1303 111.124 18.8719C111.037 18.6135 110.757 18.4739 110.499 18.5612Z" stroke="white" stroke-width="0.268864" stroke-miterlimit="10"/>
<path d="M109.786 20.8854C109.58 20.9535 109.47 21.1769 109.538 21.3812C109.606 21.5855 109.829 21.6972 110.034 21.6291C110.24 21.561 110.35 21.3376 110.281 21.1333C110.213 20.9273 109.99 20.8173 109.786 20.8854Z" stroke="white" stroke-width="0.268864" stroke-miterlimit="10"/>
<path d="M115.704 17.8371C114.592 16.0232 113.721 13.647 112.624 15.0682C111.593 16.4055 113.832 18.7345 113.38 21.4336C112.904 24.2759 114.098 25.8315 115.751 25.5923C117.41 25.3531 117.593 24.0594 117.453 23.0363C117.211 21.2747 117.038 20.0107 115.704 17.8354V17.8371Z" fill="#FF9EAB"/>
<path d="M106.348 18.4903L105.799 18.6684C104.994 18.9286 104.72 19.4837 104.89 20.0058C105.059 20.526 105.571 20.8281 106.41 20.5557L106.959 20.3776C107.479 20.2083 107.765 19.6496 107.596 19.1293C107.426 18.6091 106.868 18.3227 106.348 18.4921V18.4903Z" fill="#FF9EAB"/>
<path d="M106.959 20.379L106.161 20.6374C105.275 20.9255 104.959 21.4929 105.128 22.0149C105.297 22.5352 105.847 22.825 106.772 22.5247L107.57 22.2663C108.091 22.097 108.377 21.5383 108.208 21.018C108.038 20.4977 107.48 20.2114 106.959 20.3808V20.379Z" fill="#FF9EAB"/>
<path d="M107.57 22.2638L107.202 22.3825C106.235 22.695 105.88 23.2764 106.048 23.7984C106.217 24.3187 106.804 24.5963 107.811 24.2698L108.18 24.1511C108.7 23.9817 108.986 23.423 108.817 22.9028C108.647 22.3825 108.089 22.0962 107.568 22.2655L107.57 22.2638Z" fill="#FF9EAB"/>
<path d="M108.181 24.1505L107.96 24.2221C107.174 24.477 106.912 25.0287 107.08 25.5489C107.249 26.0692 107.75 26.3747 108.571 26.1094L108.792 26.0378C109.313 25.8684 109.599 25.3098 109.43 24.7895C109.26 24.2692 108.702 23.9829 108.181 24.1522V24.1505Z" fill="#FF9EAB"/>
<path d="M106.348 18.4901C106.868 18.3208 107.428 18.6071 107.596 19.1274C107.765 19.6477 107.479 20.2081 106.959 20.3757C107.479 20.2063 108.039 20.4927 108.207 21.0129C108.376 21.5332 108.09 22.0936 107.57 22.2612C108.09 22.0919 108.65 22.3782 108.818 22.8985C108.987 23.4187 108.701 23.9792 108.181 24.1468C108.701 23.9774 109.262 24.2637 109.429 24.784C109.598 25.3043 109.312 25.8647 108.792 26.0323" stroke="#5D0859" stroke-width="0.268864" stroke-linecap="round" stroke-linejoin="round"/>
<path d="M112.369 16.2305C112.369 16.2305 112.633 17.6918 113.118 18.7498" stroke="#5D0859" stroke-width="0.268864" stroke-linecap="round" stroke-linejoin="round"/>
<path d="M115.156 25.5994C115.347 25.6238 115.546 25.6221 115.753 25.5924C117.412 25.3532 117.595 24.0595 117.456 23.0365C117.44 22.9177 117.422 22.8008 117.407 22.6855" stroke="#5D0859" stroke-width="0.268864" stroke-linecap="round" stroke-linejoin="round"/>
<path d="M136.676 40.7305C132.676 40.6764 129.046 39.669 126.166 36.8686C122.945 33.761 120.89 29.4155 119.245 25.1992L108.197 28.9965C108.805 30.8768 109.458 32.7606 110.256 34.6444C112.819 40.7567 116.733 46.6577 122.602 50.228C130.202 54.9873 139.548 54.8668 148.043 54.0183L146.268 39.8803C142.872 40.411 139.599 40.8003 136.676 40.734V40.7305Z" fill="#FF3F31"/>
<path d="M159.344 38.9219H149.897C143.616 39.5591 141.657 41.6611 141.392 45.1703L139.211 74.0837C139.211 74.0837 147.156 78.8639 159.522 74.0837C171.384 69.4973 171.517 70.7893 171.517 70.7893L169.746 47.3143C169.481 43.8051 167.414 38.9236 159.348 38.9236L159.344 38.9219Z" fill="#FF3F31"/>
<path d="M154.182 31.1055C153.901 31.1055 153.672 31.3743 153.672 31.7043C153.672 32.0343 153.901 32.3031 154.182 32.3031C154.463 32.3031 154.691 32.0343 154.691 31.7043C154.691 31.3743 154.463 31.1055 154.182 31.1055Z" fill="#5D0859"/>
<path d="M149.996 31.1055C149.715 31.1055 149.486 31.3743 149.486 31.7043C149.486 32.0343 149.715 32.3031 149.996 32.3031C150.277 32.3031 150.506 32.0343 150.506 31.7043C150.506 31.3743 150.277 31.1055 149.996 31.1055Z" fill="#5D0859"/>
<path d="M151.582 31.9219C151.582 31.9219 151.381 32.2326 151.292 32.4282C151.054 32.9519 151.582 33.0515 151.582 33.0515" stroke="#5D0859" stroke-width="0.268864" stroke-linecap="round" stroke-linejoin="round"/>
<path d="M151.095 34.1562C151.095 34.1562 150.992 35.0135 151.885 35.0135C152.777 35.0135 152.654 34.1562 152.654 34.1562H151.095Z" stroke="#5D0859" stroke-width="0.268864" stroke-linecap="round" stroke-linejoin="round"/>
<path d="M27.29 22.3877C26.8658 22.1974 26.3281 22.4803 25.8881 23.4597L23.2344 29.3747L24.7673 30.0626L27.421 24.1476C27.8417 23.21 27.7125 22.578 27.29 22.3877Z" fill="#FF9EAB"/>
<path d="M24.5438 20.4403C24.0933 20.3303 23.6132 20.7074 23.3601 21.7497L22.1484 26.7289L23.7808 27.1269L24.9925 22.1477C25.2351 21.1491 24.9925 20.552 24.542 20.442L24.5438 20.4403Z" fill="#FF9EAB"/>
<path d="M21.7633 20.679C21.3041 20.6109 20.8624 21.0299 20.7053 22.0914L20.082 26.2919L21.7441 26.5381L22.3674 22.3375C22.5175 21.3197 22.2225 20.7471 21.7633 20.679Z" fill="#FF9EAB"/>
<path d="M19.4182 21.199C18.9555 21.1658 18.5452 21.6162 18.4684 22.6864L18.1035 27.7093L19.7796 27.8315L20.1444 22.8087C20.2195 21.7838 19.8826 21.2339 19.4182 21.2007V21.199Z" fill="#FF9EAB"/>
<path d="M23.4055 26.5173L19.6134 25.5937C18.9535 25.4331 18.2866 25.8382 18.126 26.4981L15.2383 38.3683L23.2187 40.3097L25.6699 30.2343C26.0714 28.5827 25.0588 26.9171 23.4072 26.5156L23.4055 26.5173Z" fill="#FF9EAB"/>
<path d="M23.8854 29.5582C20.9838 29.2491 19.9607 31.105 20.3849 32.7042C20.9977 35.0158 23.3529 34.7137 24.0739 34.3104C25.3153 33.6138 26.0782 32.3306 26.9634 31.2098C28.0057 29.8881 29.9575 27.6115 29.3657 26.9463C28.0406 25.4624 25.8966 29.7729 23.8871 29.5582H23.8854Z" fill="#FF9EAB"/>
<path d="M25.5283 28.9414C24.9836 29.3412 24.4302 29.6153 23.8855 29.5577C21.2632 29.2784 20.1755 30.7658 20.3029 32.2341" stroke="#5D0859" stroke-width="0.268864" stroke-linecap="round" stroke-linejoin="round"/>
<path d="M24.6457 27.6739C24.6457 27.6739 22.0967 26.5705 19.2754 26.9668" stroke="#5D0859" stroke-width="0.268864" stroke-linecap="round" stroke-linejoin="round"/>
<path d="M10.8812 92.959L9.42188 101.803L24.3446 104.265L25.8039 95.4214L10.8812 92.959Z" fill="#79C5E4"/>
<path d="M25.5958 96.6611L10.6738 94.2012" stroke="white" stroke-width="0.268864" stroke-miterlimit="10"/>
<path d="M25.3868 97.9304L10.4648 95.4688" stroke="white" stroke-width="0.268864" stroke-miterlimit="10"/>
<path d="M25.1776 99.1982L10.2539 96.7383" stroke="white" stroke-width="0.268864" stroke-miterlimit="10"/>
<path d="M24.9688 100.468L10.0469 98.0059" stroke="white" stroke-width="0.268864" stroke-miterlimit="10"/>
<path d="M24.7599 101.735L9.83789 99.2754" stroke="white" stroke-width="0.268864" stroke-miterlimit="10"/>
<path d="M24.5489 103.005L9.62695 100.543" stroke="white" stroke-width="0.268864" stroke-miterlimit="10"/>
<path d="M14.3592 101.478C13.7552 101.043 13.0219 101.128 13.0184 99.8574C13.0167 99.0037 13.942 93.4536 13.942 93.4536L6.8834 92.2891L3.40039 113.411C5.16896 113.702 6.95673 113.013 8.0706 111.609C9.85313 107.88 12.2607 105.039 15.0785 102.784V102.743C15.0488 102.282 14.7346 101.746 14.3592 101.478Z" fill="#0071EB"/>
<path d="M6.40625 112.189L9.53311 93.2285" stroke="white" stroke-width="0.268864" stroke-linecap="round" stroke-linejoin="round"/>
<path d="M9.51202 108.665L8.09961 106.777" stroke="white" stroke-width="0.806593" stroke-linecap="round" stroke-linejoin="round"/>
<path d="M10.8946 107.08L9.48047 105.191" stroke="white" stroke-width="0.806593" stroke-linecap="round" stroke-linejoin="round"/>
<path d="M10.0371 104.297L12.497 105.337L11.1632 102.965L10.0371 104.297Z" stroke="white" stroke-width="0.537728" stroke-linecap="round" stroke-linejoin="round"/>
<path d="M6.88356 92.2974L3.39844 113.418L4.48711 113.598L7.97223 92.4771L6.88356 92.2974Z" fill="white" stroke="#0071EB" stroke-width="0.268864" stroke-linecap="round" stroke-linejoin="round"/>
<path d="M69.7927 126.662L60.875 127.564L62.3982 142.612L71.3159 141.709L69.7927 126.662Z" fill="#79C5E4"/>
<path d="M62.1465 127.432L63.6689 142.478" stroke="white" stroke-width="0.268864" stroke-miterlimit="10"/>
<path d="M63.4238 127.303L64.948 142.349" stroke="white" stroke-width="0.268864" stroke-miterlimit="10"/>
<path d="M64.7031 127.17L66.2273 142.218" stroke="white" stroke-width="0.268864" stroke-miterlimit="10"/>
<path d="M65.9824 127.041L67.5066 142.089" stroke="white" stroke-width="0.268864" stroke-miterlimit="10"/>
<path d="M67.2617 126.912L68.7859 141.96" stroke="white" stroke-width="0.268864" stroke-miterlimit="10"/>
<path d="M68.5391 126.783L70.0632 141.829" stroke="white" stroke-width="0.268864" stroke-miterlimit="10"/>
<path d="M81.1532 140.442C77.0871 139.694 73.7158 138.114 70.8019 135.984L70.7635 135.997C70.3271 136.143 69.8906 136.587 69.7282 137.02C69.4664 137.716 69.7405 138.402 68.5149 138.736C67.6925 138.961 62.0918 139.518 62.0918 139.518L62.8128 146.636L84.1107 144.478C83.9309 142.695 82.7978 141.15 81.1515 140.442H81.1532Z" fill="#0071EB"/>
<path d="M82.1466 141.896L63.0293 143.833" stroke="white" stroke-width="0.268864" stroke-linecap="round" stroke-linejoin="round"/>
<path d="M77.9348 139.818L76.4805 141.676" stroke="white" stroke-width="0.806593" stroke-linecap="round" stroke-linejoin="round"/>
<path d="M76.0422 138.9L74.5879 140.758" stroke="white" stroke-width="0.806593" stroke-linecap="round" stroke-linejoin="round"/>
<path d="M73.582 140.455L73.9434 137.809L72.002 139.715L73.582 140.455Z" stroke="white" stroke-width="0.537728" stroke-linecap="round" stroke-linejoin="round"/>
<path d="M83.9887 143.387L62.6914 145.543L62.8025 146.641L84.0998 144.485L83.9887 143.387Z" fill="white" stroke="#0071EB" stroke-width="0.268864" stroke-linecap="round" stroke-linejoin="round"/>
<path d="M57.7158 36.8266C54.0233 35.4002 50.8667 41.1336 57.3771 40.4562C60.1391 40.1681 58.7668 36.8266 57.7158 36.8266Z" fill="#FF3F31"/>
<path d="M56.0077 34.8867H48.3066V44.7788H56.0077V34.8867Z" fill="#FF9EAB"/>
<path d="M52.1564 25.4502C48.8916 25.6964 46.8105 28.7517 46.8105 32.4162C46.8105 36.0808 52.0482 38.3889 55.3234 38.3889C58.5987 38.3889 58.6668 36.0808 58.6685 32.4162C58.6685 26.0298 55.4893 25.2006 52.1564 25.4502Z" fill="#FF9EAB"/>
<path d="M51.1914 37.4648C52.5916 38.0637 54.0965 38.3884 55.3239 38.3884" stroke="#5D0859" stroke-width="0.268864" stroke-linecap="round" stroke-linejoin="round"/>
<path d="M49.6574 25.6034C48.3707 25.4009 44.3534 27.7997 46.3053 33.9836C45.1862 35.2302 46.0871 36.351 45.8619 36.7386C45.4533 37.4387 44.0863 39.8131 46.5078 40.2914C52.1575 41.4071 50.7451 37.0214 49.598 34.9543C49.3815 34.4672 49.1459 33.8282 49.5369 33.4686C50.1724 32.7283 50.8725 33.0705 51.2723 32.2081C51.4696 31.9654 51.2479 30.9371 51.5499 30.8602C52.8401 30.546 53.4791 29.4304 53.9068 28.3514C54.5388 28.1664 55.4607 29.6312 56.4087 30.106C59.4098 31.6127 60.1693 29.0376 58.6574 26.9635C56.8399 24.4686 51.7053 22.9218 49.6556 25.6034H49.6574Z" fill="#FF3F31"/>
<path d="M47.9991 30.7605C47.0476 30.9631 46.5029 32.2026 46.7857 33.5312C47.0685 34.8581 48.0689 35.7712 49.0204 35.5687C49.9719 35.3662 50.5166 34.1266 50.2338 32.798C49.9509 31.4711 48.9506 30.558 47.9991 30.7605Z" fill="#FF9EAB"/>
<path d="M47.9805 32.6738C47.9805 32.6738 48.513 32.7489 48.9704 33.325" stroke="#5D0859" stroke-width="0.268864" stroke-linecap="round" stroke-linejoin="round"/>
<path d="M38.7347 66.4219L37.5877 73.9082C37.2455 78.4981 40.7198 82.4996 45.3499 82.8453L57.8678 83.7793C62.4978 84.125 66.5273 80.6822 66.8695 76.0923L66.838 66.4219H38.733H38.7347Z" fill="#FF8736"/>
<path d="M35.1493 91.0255L15.8923 91.4061L15.709 106.394L42.2812 107.569C46.3386 107.774 49.9804 104.795 50.6002 100.678L55.9705 74.8954L37.9671 71.7109L35.1493 91.0255Z" fill="#FF8736"/>
<path d="M48.6211 75.3488C51.1159 90.6932 56.2226 121.565 58.7925 136.903L73.6394 134.843L66.7328 72.8574L48.6211 75.3505V75.3488Z" fill="#FF8736"/>
<path d="M18.623 93.4883L19.1905 104.58" stroke="#CA6BB7" stroke-width="0.268864" stroke-linecap="round" stroke-linejoin="round"/>
<path d="M19.8965 98.9012C19.8965 98.9012 35.4801 102.014 40.7928 98.9501C43.5408 97.3649 45.0161 78.9512 45.0161 78.9512" stroke="#CA6BB7" stroke-width="0.268864" stroke-linecap="round" stroke-linejoin="round"/>
<path d="M51.8223 94.0376C51.8223 94.0376 52.2552 91.3908 52.6882 85.6504" stroke="#CA6BB7" stroke-width="0.268864" stroke-linecap="round" stroke-linejoin="round"/>
<path d="M60.1074 133.706L72.566 132.188" stroke="#CA6BB7" stroke-width="0.268864" stroke-linecap="round" stroke-linejoin="round"/>
<path d="M66.3365 130.676C66.3365 130.676 64.4649 114.525 63.4139 106.304C62.5444 99.5107 59.7598 78.3105 59.7598 78.3105" stroke="#CA6BB7" stroke-width="0.268864" stroke-linecap="round" stroke-linejoin="round"/>
<path d="M39.198 43.6235C38.779 43.9692 38.3303 44.3603 37.9131 44.6989C35.6871 46.4309 32.8972 48.1942 30.2382 48.3862L30.1597 48.3967C30.1143 48.3932 29.9973 48.3897 29.9502 48.3897C29.7302 48.4072 29.5189 48.367 29.3007 48.3618C28.9271 48.2728 28.6215 48.2343 28.2235 47.9847C26.0202 46.5827 25.6239 42.7575 25.7601 40.1108C25.8299 38.6914 26.0481 37.2109 26.3711 35.7164L15.0701 32.752C14.4957 34.7859 14.0435 36.8949 13.7991 39.1017C12.6573 48.1261 16.1735 58.2068 25.8072 60.9722C34.7269 63.4496 43.4981 58.5682 50.0102 53.0337L40.462 42.4555C40.1618 42.7314 39.4983 43.3442 39.1998 43.6235H39.198Z" fill="#00AB41"/>
<path d="M98.9022 21.0736L95.1817 19.8916C93.5616 19.3766 91.8314 20.2722 91.3164 21.8924L87.9434 32.502L95.7701 34.9899L99.7018 22.6187C99.9078 21.9709 99.5499 21.2778 98.9022 21.0718V21.0736Z" fill="#FF9EAB"/>
<path d="M92.7656 25.6068L95.1871 26.3767L97.6087 27.1466L103.108 15.0094L95.2814 12.5215L92.7656 25.6068Z" fill="white" stroke="#A3D7E9" stroke-width="0.754216" stroke-linecap="round" stroke-linejoin="round"/>
<path d="M93.9316 24.6078L95.5815 25.1333L97.2331 25.657L100.775 17.3222L95.7351 15.2324L93.9316 24.6078Z" fill="#FFD550"/>
<path d="M98.7227 17.7092C98.391 17.6044 98.0366 17.7877 97.9318 18.1194C97.8271 18.4512 98.0104 18.8056 98.3421 18.9103C98.6738 19.0151 99.0282 18.8318 99.133 18.5C99.2377 18.1683 99.0544 17.8139 98.7227 17.7092Z" stroke="white" stroke-width="0.268864" stroke-miterlimit="10"/>
<path d="M96.6136 19.2262C96.3535 19.1442 96.0759 19.2874 95.9938 19.5475C95.9118 19.8076 96.0549 20.0852 96.3151 20.1673C96.5752 20.2493 96.8528 20.1062 96.9349 19.846C97.0169 19.5859 96.8737 19.3083 96.6136 19.2262Z" stroke="white" stroke-width="0.268864" stroke-miterlimit="10"/>
<path d="M97.3607 21.5403C97.1547 21.4739 96.9347 21.5891 96.8684 21.7952C96.802 22.0012 96.9173 22.2211 97.1233 22.2875C97.3293 22.3538 97.5493 22.2386 97.6156 22.0326C97.682 21.8266 97.5667 21.6066 97.3607 21.5403Z" stroke="white" stroke-width="0.268864" stroke-miterlimit="10"/>
<path d="M94.4329 15.7693C93.3138 14.3639 92.481 16.754 91.3951 18.5854C90.0944 20.7817 89.9425 22.0475 89.7278 23.8125C89.6021 24.8374 89.8063 26.1276 91.4684 26.3406C93.1252 26.5535 94.2949 24.9788 93.7747 22.1452C93.2806 19.4531 95.4839 17.0892 94.4329 15.7693Z" fill="#FF9EAB"/>
<path d="M101.314 19.26L100.762 19.0907C100.238 18.9301 99.6829 19.2251 99.5223 19.7471C99.3617 20.2709 99.6568 20.8261 100.179 20.9867L100.73 21.156C101.575 21.4144 102.082 21.1054 102.242 20.5834C102.403 20.0596 102.122 19.5097 101.312 19.26H101.314Z" fill="#FF9EAB"/>
<path d="M100.981 21.2333L100.178 20.9872C99.6542 20.8265 99.099 21.1216 98.9383 21.6436C98.7777 22.1674 99.0728 22.7226 99.5948 22.8832L100.398 23.1294C101.328 23.4157 101.875 23.1171 102.036 22.5934C102.196 22.0696 101.871 21.5057 100.981 21.2333Z" fill="#FF9EAB"/>
<path d="M99.968 22.9971L99.5978 22.8837C99.0741 22.723 98.5189 23.0181 98.3583 23.5401C98.1976 24.0639 98.4927 24.619 99.0147 24.7797L99.3848 24.8931C100.399 25.2039 100.981 24.9176 101.141 24.3956C101.302 23.8718 100.937 23.2957 99.9662 22.9971H99.968Z" fill="#FF9EAB"/>
<path d="M99.2393 24.8482L99.0158 24.7801C98.492 24.6195 97.9368 24.9146 97.7762 25.4366C97.6156 25.9603 97.9107 26.5155 98.4327 26.6762L98.6561 26.7442C99.4802 26.9974 99.9778 26.6849 100.138 26.1611C100.299 25.6374 100.027 25.0892 99.2375 24.8482H99.2393Z" fill="#FF9EAB"/>
<path d="M100.761 19.0907C100.237 18.9301 99.6823 19.2251 99.5217 19.7471C99.3611 20.2709 99.6561 20.8261 100.178 20.9867C99.6544 20.8261 99.0992 21.1211 98.9386 21.6431C98.7779 22.1669 99.073 22.7221 99.595 22.8827C99.0713 22.7221 98.5161 23.0171 98.3554 23.5392C98.1948 24.0629 98.4899 24.6181 99.0119 24.7787C98.4881 24.6181 97.9329 24.9132 97.7723 25.4352C97.6117 25.9589 97.9068 26.5141 98.4288 26.6747" stroke="#5D0859" stroke-width="0.268864" stroke-linecap="round" stroke-linejoin="round"/>
<path d="M94.7069 16.9238C94.7069 16.9238 94.4659 18.3886 93.998 19.4553" stroke="#5D0859" stroke-width="0.268864" stroke-linecap="round" stroke-linejoin="round"/>
<path d="M92.0655 26.3364C91.8752 26.3643 91.6761 26.3661 91.4684 26.3399C89.8063 26.1269 89.6021 24.8349 89.7278 23.8119C89.7417 23.6931 89.7574 23.5762 89.7714 23.4609" stroke="#5D0859" stroke-width="0.268864" stroke-linecap="round" stroke-linejoin="round"/>
<path d="M78.0091 39.2899C73.0001 41.7848 66.7848 41.9349 61.1876 40.924L59.1152 55.0219C63.2669 55.5143 67.4692 55.5283 71.7292 54.905C85.8533 52.9304 95.892 43.5236 99.2144 29.6841L87.957 26.5625C86.3194 31.863 83.0668 36.8806 78.0091 39.2882V39.2899Z" fill="#00AB41"/>
<path d="M53.1367 32.3262C52.8557 32.3262 52.627 32.595 52.627 32.925C52.627 33.255 52.8557 33.5238 53.1367 33.5238C53.4178 33.5238 53.6465 33.255 53.6465 32.925C53.6465 32.595 53.4178 32.3262 53.1367 32.3262Z" fill="#5D0859"/>
<path d="M57.3223 32.3262C57.0412 32.3262 56.8125 32.595 56.8125 32.925C56.8125 33.255 57.0412 33.5238 57.3223 33.5238C57.6034 33.5238 57.8321 33.255 57.8321 32.925C57.8321 32.595 57.6034 32.3262 57.3223 32.3262Z" fill="#5D0859"/>
<path d="M55.7363 33.1406C55.7363 33.1406 55.9371 33.4514 56.0261 33.6469C56.2636 34.1707 55.7363 34.2702 55.7363 34.2702" stroke="#5D0859" stroke-width="0.268864" stroke-linecap="round" stroke-linejoin="round"/>
<path d="M56.5348 35.0299L54.0626 35.2063C53.8322 35.222 53.7379 35.5083 53.9125 35.6602C54.2756 35.9727 55.0333 36.3498 55.6496 36.2433C56.3358 36.1246 56.568 35.8069 56.781 35.4105C56.877 35.2307 56.7391 35.016 56.5348 35.0299Z" stroke="#5D0859" stroke-width="0.268864" stroke-linecap="round" stroke-linejoin="round"/>
<path d="M57.4106 39.6014H47.9636C39.8977 39.6014 37.8289 44.4846 37.5652 47.992L35.7949 71.467C35.7949 71.467 35.8071 76.2961 48.5241 76.2961C61.241 76.2961 67.8509 71.467 67.8509 71.467L65.9182 45.8481C65.6528 42.3389 63.694 40.2369 57.4123 39.5996L57.4106 39.6014Z" fill="#00AB41"/>
</g>
<defs>
<clipPath id="clip0_47_6057">
<rect width="208" height="147.333" fill="white"/>
</clipPath>
</defs>
</svg>
