<svg width="208" height="148" viewBox="0 0 208 148" fill="none" xmlns="http://www.w3.org/2000/svg">
<path d="M87.7388 142.541H96.8281V127.208H87.7388V142.541Z" fill="#FFFEE9"/>
<path d="M89.0254 127.209V142.542" stroke="#5D0859" stroke-width="0.517409" stroke-miterlimit="10"/>
<path d="M90.3301 127.209V142.542" stroke="#5D0859" stroke-width="0.517409" stroke-miterlimit="10"/>
<path d="M91.6328 127.209V142.542" stroke="#5D0859" stroke-width="0.517409" stroke-miterlimit="10"/>
<path d="M92.9355 127.209V142.542" stroke="#5D0859" stroke-width="0.517409" stroke-miterlimit="10"/>
<path d="M94.2383 127.209V142.542" stroke="#5D0859" stroke-width="0.517409" stroke-miterlimit="10"/>
<path d="M95.5449 127.209V142.542" stroke="#5D0859" stroke-width="0.517409" stroke-miterlimit="10"/>
<path d="M94.2999 139.262C95.5703 139.049 95.3647 138.331 95.6997 137.654C95.9076 137.236 96.3926 136.832 96.8477 136.728L96.8869 136.719C99.608 139.165 102.849 141.105 106.872 142.272C108.462 143.154 109.446 144.829 109.446 146.647H87.7422V139.394C87.7422 139.394 93.4476 139.405 94.2999 139.262Z" fill="#0071EB"/>
<path d="M107.726 143.842H88.2441" stroke="white" stroke-width="0.517409" stroke-linecap="round" stroke-linejoin="round"/>
<path d="M103.689 141.314L102.033 143.04" stroke="white" stroke-width="1.54992" stroke-linecap="round" stroke-linejoin="round"/>
<path d="M101.873 140.197L100.217 141.923" stroke="white" stroke-width="1.54992" stroke-linecap="round" stroke-linejoin="round"/>
<path d="M99.8657 138.881L97.7129 140.606L99.2305 141.514L99.8657 138.881Z" stroke="white" stroke-width="1.03251" stroke-linecap="round" stroke-linejoin="round"/>
<path d="M87.7399 146.648H109.443V145.528H87.7399V146.648Z" fill="white" stroke="#0071EB" stroke-width="0.517409" stroke-linecap="round" stroke-linejoin="round"/>
<path d="M75.3315 127.209H66.2422V142.542H75.3315V127.209Z" fill="#FFFEE9"/>
<path d="M74.0449 127.209V142.542" stroke="#5D0859" stroke-width="0.517409" stroke-miterlimit="10"/>
<path d="M72.7422 127.209V142.542" stroke="#5D0859" stroke-width="0.517409" stroke-miterlimit="10"/>
<path d="M71.4395 127.209V142.542" stroke="#5D0859" stroke-width="0.517409" stroke-miterlimit="10"/>
<path d="M70.1367 127.209V142.542" stroke="#5D0859" stroke-width="0.517409" stroke-miterlimit="10"/>
<path d="M68.832 127.209V142.542" stroke="#5D0859" stroke-width="0.517409" stroke-miterlimit="10"/>
<path d="M67.5293 127.209V142.542" stroke="#5D0859" stroke-width="0.517409" stroke-miterlimit="10"/>
<path d="M68.7747 139.262C67.5043 139.049 67.7098 138.331 67.3749 137.654C67.167 137.236 66.682 136.832 66.2269 136.728L66.1876 136.719C63.4666 139.165 60.2259 141.105 56.2021 142.272C54.6129 143.154 53.6289 144.829 53.6289 146.647H75.3324V139.394C75.3324 139.394 69.627 139.405 68.7747 139.262Z" fill="#0071EB"/>
<path d="M55.3477 143.842H74.8314" stroke="white" stroke-width="0.517409" stroke-linecap="round" stroke-linejoin="round"/>
<path d="M59.3848 141.314L61.0386 143.04" stroke="white" stroke-width="1.54992" stroke-linecap="round" stroke-linejoin="round"/>
<path d="M61.1992 140.197L62.8554 141.923" stroke="white" stroke-width="1.54992" stroke-linecap="round" stroke-linejoin="round"/>
<path d="M63.2051 138.881L65.3579 140.606L63.8403 141.514L63.2051 138.881Z" stroke="white" stroke-width="1.03251" stroke-linecap="round" stroke-linejoin="round"/>
<path d="M75.3324 145.527H53.6289V146.648H75.3324V145.527Z" fill="white" stroke="#0071EB" stroke-width="0.517409" stroke-linecap="round" stroke-linejoin="round"/>
<path d="M75.2324 83.2786H87.9597C92.6672 83.2786 96.4808 79.495 96.4808 74.8268L95.8849 67.1719H67.3049L66.709 74.8268C66.709 79.495 70.5249 83.2786 75.2301 83.2786H75.2324Z" fill="#00AB41"/>
<path d="M96.354 73.4941L99.865 136.445L86.5579 137.42L80.9727 74.619L96.354 73.4941Z" fill="#00AB41"/>
<path d="M66.8136 73.4941L82.1949 74.619L75.9999 137.373L64.0625 136.5L66.8136 73.4941Z" fill="#00AB41"/>
<path d="M76.2931 134.41L64.1895 133.588" stroke="#5D0859" stroke-width="0.517409" stroke-linecap="round" stroke-linejoin="round"/>
<path d="M69.4409 67.1738L65.3594 136.719" stroke="#5D0859" stroke-width="0.517409" stroke-linecap="round" stroke-linejoin="round"/>
<path d="M82.8945 78.4297L88.2419 137.294" stroke="#5D0859" stroke-width="0.517409" stroke-linecap="round" stroke-linejoin="round"/>
<path d="M86.291 134.41L99.6697 133.588" stroke="#5D0859" stroke-width="0.517409" stroke-linecap="round" stroke-linejoin="round"/>
<path d="M73.7532 67.1738C73.7532 67.1738 72.8616 76.6789 66.7012 76.083" stroke="#5D0859" stroke-width="0.517409" stroke-linecap="round" stroke-linejoin="round"/>
<path d="M89.4414 67.1738C89.4414 67.1738 90.333 76.6789 96.4934 76.083" stroke="#5D0859" stroke-width="0.517409" stroke-linecap="round" stroke-linejoin="round"/>
<path d="M111.448 9.06304L109.76 9.29402L108.871 2.78252C108.73 1.75001 109.035 1.17254 109.501 1.10787C109.968 1.04319 110.411 1.47282 110.559 2.55153L111.448 9.06304Z" fill="#FF9EB2"/>
<path d="M113.261 6.80099L111.559 6.72014L111.803 1.53219C111.852 0.490438 112.258 -0.0223518 112.73 0.000746793C113.199 0.0238454 113.557 0.525086 113.506 1.61303L113.261 6.80099Z" fill="#FF9EB2"/>
<path d="M115.399 6.96832L113.711 6.73271L114.307 2.4687C114.45 1.4362 114.903 0.962673 115.369 1.02966C115.836 1.09434 116.146 1.62791 115.995 2.70662L115.399 6.97063V6.96832Z" fill="#FF9EB2"/>
<path d="M116.915 8.91332L115.25 8.55298L116.331 3.56137C116.553 2.54272 117.038 2.10384 117.497 2.20317C117.957 2.30249 118.227 2.85917 117.996 3.92171L116.915 8.91332Z" fill="#FF9EB2"/>
<path d="M114.887 6.36736L114.938 6.36977C116.241 6.43147 117.25 7.54064 117.188 8.84426L116.656 20.1015L108.338 19.7078L108.703 11.9922C108.857 8.73434 111.629 6.21316 114.887 6.36736Z" fill="#FF9EB2"/>
<path d="M109.222 13.624C108.213 12.5915 107.838 11.1248 107.298 9.78273C106.663 8.19817 105.415 5.42633 106.18 4.9505C107.894 3.88565 108.746 8.69248 110.763 9.05744C113.673 9.5864 114.137 11.6838 113.269 13.1182C112.012 15.1901 109.806 14.2246 109.222 13.6263V13.624Z" fill="#FF9EB2"/>
<path d="M109.342 7.98633C109.758 8.53146 110.217 8.95647 110.765 9.05579C113.396 9.53394 114.026 11.2917 113.483 12.6846" stroke="#5D0859" stroke-width="0.517409" stroke-linecap="round" stroke-linejoin="round"/>
<path d="M110.562 7.00511C110.562 7.00511 113.357 6.66094 115.988 7.85283" stroke="#5D0859" stroke-width="0.517409" stroke-linecap="round" stroke-linejoin="round"/>
<path d="M89.3195 32.9235C90.9318 33.1314 93.6598 32.7225 95.4892 32.0088C99.3212 30.6344 102.315 27.426 104.031 23.7141C105.526 20.6004 106.325 17.3481 106.831 13.7285L118.62 14.8811C118.031 24.6472 114.576 35.037 106.498 41.2898C101.677 45.0849 95.6185 47.1869 89.4997 47.344C89.077 47.344 88.5781 47.3532 88.1507 47.3232L87.9082 47.3047L89.3195 32.9258V32.9235Z" fill="#0071EB"/>
<path d="M87.9929 33.143L76.6607 33.0298C72.0872 32.9836 68.2759 35.9056 67.9687 39.6961L65.7305 67.3613C65.7305 67.3613 69.1098 70.482 82.0035 70.6113C94.8971 70.7407 98.2303 67.6893 98.2303 67.6893L96.5487 39.9848C96.3177 36.1897 92.5665 33.1915 87.9929 33.1453V33.143Z" fill="#0071EB"/>
<path d="M92.2873 48.4531L74.752 47.623L73.6094 71.7618L91.1447 72.5918L92.2873 48.4531Z" fill="#FFFEE9"/>
<path d="M93.0724 49.0624L75.5371 48.2324L74.3945 72.3712L91.9299 73.2012L93.0724 49.0624Z" fill="#FF3F31"/>
<path d="M85.9684 61.849L85.8945 59.8394L92.3853 59.6038C93.4155 59.5668 93.956 59.9965 93.9744 60.5508C93.9952 61.1052 93.5309 61.5741 92.4569 61.6111L85.9661 61.8467L85.9684 61.849Z" fill="#FF9EB2"/>
<path d="M87.8005 63.7946L87.7266 61.785L92.8568 61.5979C93.887 61.561 94.4275 61.9906 94.446 62.545C94.4668 63.0993 94.0025 63.5682 92.9284 63.6052L87.7982 63.7923L87.8005 63.7946Z" fill="#FF9EB2"/>
<path d="M88.4216 65.7837L88.3477 63.7742L92.6001 63.6194C93.6303 63.5824 94.1708 64.0121 94.1893 64.5665C94.2101 65.1208 93.7458 65.5897 92.6717 65.6267L88.4193 65.7814L88.4216 65.7837Z" fill="#FF9EB2"/>
<path d="M87.2575 67.8392L87.1836 65.8296L92.226 65.6448C93.2562 65.6078 93.7967 66.0375 93.8152 66.5918C93.836 67.1462 93.3717 67.6151 92.2976 67.6521L87.2552 67.8369L87.2575 67.8392Z" fill="#FF9EB2"/>
<path d="M92.442 65.2332L92.4438 65.284C92.4914 66.5882 91.4705 67.6863 90.1663 67.7339L79.2341 68.1326L78.9306 59.8111L86.3195 59.5416C89.5789 59.4227 92.3231 61.9738 92.442 65.2332Z" fill="#FF9EB2"/>
<path d="M83.698 60.5741C84.6311 59.0311 85.9709 58.1003 88.2022 57.994C90.0293 57.9062 91.272 59.3707 91.1265 60.2115C90.8031 62.0871 88.2807 59.7033 87.7633 61.4704C86.9433 64.2745 86.1811 65.0945 84.585 64.524C82.2797 63.6994 83.1528 61.4704 83.6956 60.5741H83.698Z" fill="#FF9EB2"/>
<path d="M90.5223 59.6719L87.3809 59.7874" stroke="#5D0859" stroke-width="0.517409" stroke-linecap="round" stroke-linejoin="round"/>
<path d="M69.4398 55.319C71.3477 51.8588 73.6738 48.6019 73.6738 48.6019L71.0521 34.7012C46.3458 50.6623 52.5108 71.3726 82.6476 70.0629L83.0079 58.2225C78.5083 57.7513 73.3042 57.6959 69.4421 55.3167L69.4398 55.319Z" fill="#0071EB"/>
<path d="M73.7523 57.046C72.214 56.6672 70.7472 56.1267 69.4375 55.3183C69.7886 54.6807 70.1536 54.0524 70.5162 53.4473" stroke="#5D0859" stroke-width="0.517409" stroke-linecap="round" stroke-linejoin="round"/>
<path d="M81.7077 31.1792C84.7132 31.1792 87.1497 28.1677 87.1497 24.4529C87.1497 20.738 84.7132 17.7266 81.7077 17.7266C78.7021 17.7266 76.2656 20.738 76.2656 24.4529C76.2656 28.1677 78.7021 31.1792 81.7077 31.1792Z" fill="#FF9EB2"/>
<path d="M85.612 28.4492H77.8047V36.9495H85.612V28.4492Z" fill="#FF9EB2"/>
<path d="M78.3379 29.7371C79.2641 30.6403 80.4352 31.1808 81.708 31.1808C82.9807 31.1808 84.2627 30.5895 85.2097 29.6055" stroke="#5D0859" stroke-width="0.517409" stroke-linecap="round" stroke-linejoin="round"/>
<path d="M75.6691 21.2338C75.4613 20.0027 75.4405 19.0117 76.9811 18.2194C77.1174 18.1478 77.226 18.0323 77.3045 17.9007C79.0184 14.9879 81.7995 15.9488 82.705 16.7065C82.8574 16.8335 83.0676 16.8774 83.2547 16.8058C84.6892 16.2537 87.0545 17.4503 87.2185 19.2381C87.2531 19.6169 87.3848 19.9749 87.6158 20.2775C88.6067 21.5849 88.9924 23.5321 87.133 24.9804C85.9804 25.8766 85.56 20.5385 85.2089 20.7926C84.181 21.5364 83.3587 19.5592 82.8343 20.0604C82.0236 20.8365 80.8987 20.2683 80.3189 19.9772C80.1849 19.9103 80.0255 19.9541 79.9378 20.0766C79.4435 20.7741 78.1961 21.5341 77.6094 21.4094C77.5286 21.3932 77.4616 21.4648 77.4778 21.5456C78.3601 25.8258 74.244 24.5716 75.5398 22.0053C75.6622 21.7651 75.713 21.4948 75.6691 21.2292V21.2338Z" fill="#179BE1"/>
<path d="M76.4492 28.3634C77.415 28.1581 77.966 26.9002 77.6798 25.5538C77.3936 24.2074 76.3786 23.2824 75.4128 23.4877C74.447 23.693 73.8961 24.9509 74.1822 26.2973C74.4684 27.6437 75.4834 28.5687 76.4492 28.3634Z" fill="#FF9EB2"/>
<path d="M75.2734 25.3906C75.2734 25.3906 75.812 25.4669 76.2766 26.0517" stroke="#5D0859" stroke-width="0.517409" stroke-linecap="round" stroke-linejoin="round"/>
<path d="M89.2911 26.2977C89.5773 24.9513 89.0263 23.6934 88.0605 23.4881C87.0947 23.2828 86.0798 24.2079 85.7936 25.5543C85.5074 26.9007 86.0583 28.1586 87.0242 28.3639C87.99 28.5692 89.0049 27.6441 89.2911 26.2977Z" fill="#FF9EB2"/>
<path d="M88.2004 25.3906C88.2004 25.3906 87.6619 25.4669 87.1973 26.0517" stroke="#5D0859" stroke-width="0.517409" stroke-linecap="round" stroke-linejoin="round"/>
<path d="M79.0977 25.0727C79.0977 25.4079 79.3288 25.6806 79.6154 25.6806C79.902 25.6806 80.1332 25.4079 80.1332 25.0727C80.1332 24.7376 79.902 24.4648 79.6154 24.4648C79.3288 24.4648 79.0977 24.7376 79.0977 25.0727Z" fill="#5D0859"/>
<path d="M83.1987 27.3596C82.3302 27.6807 80.7711 27.6299 79.8633 27.2441" stroke="#5D0859" stroke-width="0.517409" stroke-linecap="round" stroke-linejoin="round"/>
<path d="M81.6272 25.293C81.6272 25.293 81.4238 25.6073 81.3337 25.8061C81.0933 26.3377 81.6272 26.4394 81.6272 26.4394" stroke="#5D0859" stroke-width="0.517409" stroke-linecap="round" stroke-linejoin="round"/>
<path d="M83.3418 25.0727C83.3418 25.4079 83.5729 25.6806 83.8595 25.6806C84.1462 25.6806 84.3773 25.4079 84.3773 25.0727C84.3773 24.7376 84.1462 24.4648 83.8595 24.4648C83.5729 24.4648 83.3418 24.7376 83.3418 25.0727Z" fill="#5D0859"/>
<path d="M84.0161 26.8193C84.9397 26.8193 85.6884 26.0706 85.6884 25.147C85.6884 24.2233 84.9397 23.4746 84.0161 23.4746C83.0925 23.4746 82.3438 24.2233 82.3438 25.147C82.3438 26.0706 83.0925 26.8193 84.0161 26.8193Z" stroke="#6CDCE0" stroke-width="0.517409" stroke-miterlimit="10"/>
<path d="M79.4594 26.8193C80.3831 26.8193 81.1318 26.0706 81.1318 25.147C81.1318 24.2233 80.3831 23.4746 79.4594 23.4746C78.5358 23.4746 77.7871 24.2233 77.7871 25.147C77.7871 26.0706 78.5358 26.8193 79.4594 26.8193Z" stroke="#6CDCE0" stroke-width="0.517409" stroke-miterlimit="10"/>
<path d="M82.3698 24.8149C82.3698 24.8149 81.8636 24.1284 81.1309 24.8149" stroke="#6CDCE0" stroke-width="0.517409" stroke-miterlimit="10"/>
<path d="M88.1266 37.1381C84.5533 37.9489 71.1283 40.0093 72.184 33.8189C73.8956 29.608 78.4506 32.9573 81.6013 33.0913C84.5995 32.6039 88.7803 29.2061 90.6836 33.1906C91.3096 34.7267 90.1963 36.6277 88.1266 37.1381Z" fill="#0071EB"/>
<path d="M75.4093 37.7086C73.4759 37.2189 72.1293 36.2441 72.127 34.4863" stroke="#5D0859" stroke-width="0.517409" stroke-linecap="round" stroke-linejoin="round"/>
<path d="M90.8323 33.7344C91.0055 34.9009 90.294 36.1551 89.0098 36.8111" stroke="#5D0859" stroke-width="0.517409" stroke-linecap="round" stroke-linejoin="round"/>
<path d="M79.291 36.4023C79.291 36.4023 81.132 40.3037 80.0556 43.6137" stroke="#5D0859" stroke-width="0.517409" stroke-linecap="round" stroke-linejoin="round"/>
<path d="M84.0218 36.3242C84.0218 36.3242 82.3148 40.2856 83.502 43.5564" stroke="#5D0859" stroke-width="0.517409" stroke-linecap="round" stroke-linejoin="round"/>
<path d="M162.97 26.6523H170.943V36.8966H162.97V26.6523Z" fill="#FF9EAB"/>
<path d="M166.956 16.8813C170.337 17.1354 172.49 20.2999 172.49 24.095C172.49 27.8901 167.067 30.2785 163.676 30.2785C160.285 30.2785 160.213 27.8878 160.213 24.095C160.213 17.4819 163.505 16.6226 166.956 16.8813Z" fill="#FF9EAB"/>
<path d="M163.677 30.4171C164.994 30.4171 166.574 30.0636 168.011 29.4492C168.082 29.4192 168.115 29.3384 168.085 29.2667C168.054 29.1951 167.971 29.1628 167.902 29.1928C166.498 29.7934 164.959 30.1376 163.677 30.1376C163.601 30.1376 163.539 30.1999 163.539 30.2762C163.539 30.3524 163.601 30.4147 163.677 30.4147V30.4171Z" fill="#360530"/>
<path d="M170.018 23.4273C170.029 23.3902 170.048 23.36 170.074 23.3438C170.078 23.3762 170.057 23.4064 170.018 23.4273Z" fill="#316DD4"/>
<path d="M170.481 16.7058C172.83 18.4359 173.904 22.8454 172.918 25.7281C172.37 27.3312 170.772 28.001 170.908 27.3589C171.042 26.7329 169.836 23.9957 170.019 23.4252C170.058 23.4021 170.079 23.3744 170.074 23.342C170.049 23.3605 170.03 23.3882 170.019 23.4252C169.635 23.64 167.397 23.282 166.397 21.1754C165.988 23.1318 161.331 22.5174 160.419 22.3465C159.165 22.1132 159.331 19.7225 160.412 18.1148C162.786 14.5807 168.062 14.9249 170.478 16.7035L170.481 16.7058Z" fill="#316DD4"/>
<path d="M171.264 22.3789C172.251 22.5891 172.812 23.8734 172.521 25.2477C172.23 26.6221 171.193 27.5668 170.206 27.3566C169.22 27.1464 168.659 25.8621 168.95 24.4878C169.243 23.1134 170.278 22.1687 171.264 22.3789Z" fill="#FF9EAB"/>
<path d="M170.26 25.1739C170.302 25.1739 170.341 25.1555 170.369 25.1208C170.799 24.5803 171.3 24.4995 171.304 24.4972C171.381 24.4856 171.434 24.4163 171.422 24.3401C171.411 24.2639 171.341 24.2107 171.265 24.2223C171.24 24.2246 170.653 24.3147 170.15 24.9476C170.101 25.0076 170.113 25.0954 170.173 25.1439C170.198 25.1647 170.228 25.1739 170.258 25.1739H170.26Z" fill="#360530"/>
<path d="M165.846 23.5586C166.137 23.5586 166.375 23.836 166.375 24.178C166.375 24.5201 166.139 24.7975 165.846 24.7975C165.552 24.7975 165.316 24.5201 165.316 24.178C165.316 23.836 165.552 23.5586 165.846 23.5586Z" fill="#360530"/>
<path d="M161.512 23.5586C161.803 23.5586 162.041 23.836 162.041 24.178C162.041 24.5201 161.805 24.7975 161.512 24.7975C161.218 24.7975 160.982 24.5201 160.982 24.178C160.982 23.836 161.218 23.5586 161.512 23.5586Z" fill="#360530"/>
<path d="M163.154 25.7107C163.219 25.7107 163.279 25.6645 163.291 25.5975C163.304 25.5213 163.256 25.4497 163.18 25.4358C163.134 25.4266 163.002 25.3804 162.951 25.2834C162.914 25.2095 162.923 25.1101 162.979 24.9854C163.067 24.7937 163.268 24.4819 163.27 24.4795C163.311 24.4149 163.293 24.3294 163.228 24.2878C163.164 24.2462 163.078 24.2647 163.037 24.3294C163.027 24.3433 162.822 24.662 162.727 24.8722C162.632 25.0801 162.625 25.2626 162.706 25.415C162.826 25.6483 163.099 25.7061 163.129 25.713C163.138 25.713 163.147 25.7153 163.154 25.7153V25.7107Z" fill="#360530"/>
<path d="M163.469 27.7442C163.783 27.7442 164.026 27.6495 164.19 27.4624C164.46 27.1552 164.407 26.7187 164.404 26.7002C164.395 26.6309 164.337 26.5801 164.266 26.5801H162.651C162.58 26.5801 162.522 26.6332 162.513 26.7025C162.513 26.721 162.462 27.1552 162.734 27.4601C162.903 27.6495 163.15 27.7466 163.469 27.7466V27.7442ZM164.132 26.855C164.127 26.9704 164.097 27.146 163.982 27.2777C163.873 27.4024 163.7 27.4648 163.471 27.4648C163.243 27.4648 163.06 27.4001 162.947 27.273C162.831 27.1437 162.799 26.9704 162.792 26.855H164.134H164.132Z" fill="#360530"/>
<path d="M157.641 136.694L148.531 136.809L147.505 121.116L156.761 120.998L157.641 136.694Z" fill="#284EAD"/>
<path d="M138.306 138.397C142.466 137.237 145.682 135.742 148.1 132.781C148.1 132.781 149.084 133.322 149.301 133.747C149.652 134.433 149.805 134.959 151.105 135.158C151.978 135.292 157.804 135.209 157.804 135.209L157.898 142.617L135.735 142.898C135.712 141.044 136.696 139.32 138.306 138.397Z" fill="#C7DA3D"/>
<path d="M136.869 141.27L156.764 141.018C156.84 141.018 156.903 140.953 156.9 140.877C156.9 140.801 156.838 140.738 156.762 140.738L136.867 140.99C136.791 140.99 136.728 141.055 136.731 141.131C136.731 141.207 136.793 141.27 136.869 141.27Z" fill="white"/>
<path d="M143.258 139.534C143.364 139.534 143.47 139.495 143.551 139.414C143.715 139.252 143.718 138.989 143.556 138.823L141.842 137.083C141.68 136.919 141.415 136.917 141.251 137.079C141.087 137.241 141.084 137.506 141.246 137.67L142.96 139.409C143.041 139.493 143.149 139.534 143.258 139.534Z" fill="white"/>
<path d="M145.098 138.368C145.204 138.368 145.31 138.329 145.391 138.248C145.555 138.086 145.557 137.823 145.396 137.657L143.682 135.917C143.52 135.753 143.255 135.751 143.091 135.913C142.927 136.074 142.924 136.338 143.086 136.504L144.8 138.243C144.881 138.327 144.989 138.368 145.098 138.368Z" fill="white"/>
<path d="M146.1 137.8C146.151 137.8 146.202 137.786 146.246 137.759L147.784 136.812C147.863 136.763 147.911 136.68 147.916 136.59C147.92 136.5 147.881 136.412 147.809 136.354L145.587 134.62C145.493 134.546 145.363 134.541 145.264 134.606C145.165 134.67 145.116 134.793 145.146 134.908L145.83 137.588C145.851 137.673 145.913 137.745 145.996 137.777C146.031 137.791 146.065 137.798 146.1 137.798V137.8ZM147.151 136.548L146.276 137.087L145.888 135.562L147.151 136.548Z" fill="white"/>
<path d="M187.638 136.481C184.608 137.195 181.584 137.925 178.547 138.609C177.318 133.532 176.202 128.429 175.033 123.338C178.043 122.638 181.051 121.939 184.06 121.236C185.243 126.32 186.439 131.4 187.641 136.481H187.638Z" fill="#284EAD"/>
<path d="M169.097 139.315C173.67 137.926 175.338 135.406 176.973 133.166C176.994 133.17 178.329 133.099 178.934 133.535C179.911 134.242 179.11 134.889 181.053 134.707C182.358 134.584 185.578 133.831 187.176 133.42L188.945 140.594C178.784 143.362 177.597 143.995 166.51 143.043C166.595 141.636 167.168 139.594 169.094 139.315H169.097Z" fill="#C7DA3D"/>
<path d="M172.068 142.001C179.36 142.001 185.874 140.033 187.953 139.335C187.99 139.321 188.015 139.314 188.027 139.31C188.087 139.296 188.133 139.243 188.133 139.178C188.133 139.102 188.073 139.037 187.997 139.037C187.98 139.037 187.936 139.049 187.865 139.072C186.114 139.658 176.928 142.537 167.887 141.49C167.811 141.481 167.741 141.536 167.732 141.613C167.723 141.689 167.778 141.758 167.855 141.767C169.27 141.931 170.684 142.003 172.07 142.003L172.068 142.001Z" fill="white"/>
<path d="M173.665 140.203C173.755 140.203 173.843 140.175 173.919 140.115C174.102 139.974 174.136 139.711 173.995 139.528L172.704 137.858C172.563 137.676 172.3 137.641 172.117 137.782C171.935 137.923 171.9 138.186 172.041 138.369L173.332 140.039C173.416 140.145 173.538 140.2 173.663 140.2L173.665 140.203Z" fill="white"/>
<path d="M175.283 139.202C175.389 139.202 175.495 139.163 175.576 139.082C175.74 138.92 175.74 138.655 175.578 138.491L174.061 136.959C173.899 136.795 173.633 136.795 173.469 136.957C173.305 137.119 173.305 137.384 173.467 137.548L174.985 139.08C175.065 139.163 175.174 139.202 175.28 139.202H175.283Z" fill="white"/>
<path d="M176.184 138.533C176.255 138.533 176.325 138.506 176.378 138.455C176.808 138.039 177.251 137.633 177.706 137.219C177.773 137.157 177.808 137.067 177.794 136.974C177.782 136.884 177.725 136.803 177.644 136.764C177.216 136.549 176.794 136.362 176.387 136.18C175.955 135.986 175.507 135.787 175.061 135.558C174.955 135.503 174.826 135.524 174.74 135.607C174.655 135.69 174.632 135.819 174.685 135.928C174.946 136.461 175.191 136.935 175.452 137.436C175.609 137.741 175.77 138.051 175.937 138.379C175.976 138.457 176.052 138.513 176.14 138.526C176.156 138.529 176.17 138.531 176.186 138.531L176.184 138.533ZM177.029 137.085C176.771 137.321 176.514 137.556 176.262 137.797C176.156 137.589 176.05 137.385 175.946 137.184C175.812 136.923 175.68 136.672 175.549 136.415C175.754 136.51 175.96 136.602 176.161 136.69C176.445 136.817 176.736 136.947 177.029 137.085Z" fill="white"/>
<path d="M183.164 95.127L183.245 95.7141L183.254 95.862L183.164 95.127Z" fill="#111111"/>
<path d="M183.245 95.7143L183.161 95.1276L183.251 95.8644L183.245 95.7143L188.035 129.688L172.725 132.242L166.115 97.971C166.08 97.7885 166.043 97.4259 166.024 97.2341L162.788 67.0096L181.66 65.5059L183.242 95.7119L183.245 95.7143Z" fill="#111111"/>
<path d="M151.764 65.7949L170.518 68.3773L167.859 84.588C167.42 87.2582 166.288 94.1647 165.863 96.7494C165.454 98.692 160.994 130.589 160.578 133.345L145.16 131.557C145.416 128.923 148.255 96.3937 148.555 94.5366C149.375 87.0503 150.935 73.4244 151.764 65.7949Z" fill="#111111"/>
<path d="M173.919 129.243C173.919 129.243 173.936 129.243 173.943 129.243L185.935 127.21C186.012 127.197 186.062 127.125 186.049 127.051C186.035 126.975 185.963 126.924 185.889 126.938L173.896 128.971C173.82 128.984 173.769 129.056 173.783 129.13C173.795 129.197 173.855 129.245 173.919 129.245V129.243Z" fill="#5371BD"/>
<path d="M176.449 127.93C176.449 127.93 176.465 127.93 176.475 127.927C176.551 127.914 176.599 127.84 176.586 127.766C176.544 127.537 172.317 104.792 171.49 97.3171C170.869 91.7088 172.352 72.791 172.365 72.6016C172.372 72.5254 172.315 72.4584 172.238 72.4514C172.162 72.4468 172.095 72.5023 172.088 72.5785C172.072 72.7702 170.589 91.7111 171.213 97.3471C172.042 104.831 176.269 127.586 176.311 127.817C176.322 127.884 176.382 127.93 176.447 127.93H176.449Z" fill="#5371BD"/>
<path d="M165.04 94.8096C165.04 94.8096 165.061 94.8096 165.07 94.8073C165.146 94.7911 165.193 94.7172 165.176 94.641C165.16 94.5647 163.476 86.9029 163.035 81.0359C163.031 80.9596 162.964 80.9019 162.885 80.9065C162.809 80.9111 162.751 80.9781 162.756 81.0567C163.199 86.9422 164.885 94.6225 164.904 94.701C164.918 94.7657 164.976 94.8096 165.04 94.8096Z" fill="#5371BD"/>
<path d="M158.982 129.709C159.054 129.709 159.116 129.654 159.121 129.582C159.127 129.506 159.07 129.439 158.993 129.432L147.185 128.496C147.109 128.492 147.042 128.547 147.035 128.623C147.028 128.7 147.086 128.767 147.162 128.774L158.97 129.709C158.97 129.709 158.977 129.709 158.982 129.709Z" fill="#5371BD"/>
<path d="M152.315 127.209C152.391 127.209 152.451 127.149 152.454 127.073C152.458 126.86 152.943 105.716 153.994 98.6313C155.025 91.6925 156.641 71.6544 156.658 71.4534C156.665 71.3772 156.607 71.3102 156.531 71.3033C156.454 71.2964 156.387 71.3541 156.38 71.4303C156.364 71.6313 154.747 91.6601 153.719 98.5897C152.666 105.693 152.179 126.853 152.174 127.066C152.174 127.142 152.234 127.207 152.31 127.209H152.313H152.315Z" fill="#5371BD"/>
<path d="M130.17 40.6351L135.053 45.241L133.859 46.5068L128.975 41.9009C128.167 41.1387 128.075 40.515 128.403 40.1662C128.733 39.8174 129.394 39.9052 130.167 40.6351H130.17Z" fill="#FF9EAB"/>
<path d="M126.094 40.8107C126.425 40.4619 127.085 40.5497 127.859 41.2796L131.719 44.92L130.525 46.1858L126.665 42.5454C125.856 41.7832 125.764 41.1595 126.092 40.8107H126.094Z" fill="#FF9EAB"/>
<path d="M127.113 43.3949L130.312 46.4116L129.118 47.6774L125.919 44.6607C125.111 43.8984 125.018 43.2748 125.346 42.926C125.677 42.5772 126.337 42.665 127.111 43.3949H127.113Z" fill="#FF9EAB"/>
<path d="M126.301 45.4515L130.096 49.0295L128.902 50.2953L125.106 46.7173C124.298 45.9551 124.206 45.3314 124.534 44.9826C124.864 44.6338 125.524 44.7216 126.298 45.4515H126.301Z" fill="#FF9EAB"/>
<path d="M130.981 44.9474C132.189 43.6677 134.205 43.6077 135.487 44.8157L141.477 50.4633L135.642 56.6491L128.262 49.6895C127.749 49.2068 127.726 48.4006 128.209 47.8878L130.981 44.9474Z" fill="#FF9EAB"/>
<path d="M134.418 39.8061C135.319 39.612 136.37 42.5363 137.024 44.1509C137.581 45.5207 138.345 46.865 138.336 48.3387C138.331 49.1934 137.393 51.4686 135 50.8357C133.344 50.3991 132.196 48.5281 133.963 46.075C135.185 44.3773 132.404 40.238 134.418 39.8084V39.8061Z" fill="#FF9EAB"/>
<path d="M134.536 50.8083C134.589 50.8083 134.64 50.7782 134.663 50.7274C134.696 50.6581 134.663 50.575 134.594 50.5426C133.929 50.2377 133.467 49.7018 133.291 49.0366C133.065 48.1773 133.335 47.1818 134.074 46.1539C134.388 45.7196 134.488 45.1168 134.386 44.2621C134.377 44.1859 134.305 44.1304 134.231 44.1397C134.155 44.1489 134.1 44.2182 134.109 44.2944C134.201 45.0775 134.118 45.6157 133.848 45.9899C132.852 47.3758 132.848 48.4499 133.021 49.1059C133.215 49.8427 133.746 50.4572 134.476 50.7921C134.495 50.8013 134.515 50.8059 134.534 50.8059L134.536 50.8083Z" fill="#360530"/>
<path d="M129.269 49.0347C129.325 49.0347 129.378 49.0024 129.399 48.9469C130.461 46.2721 132.718 44.5536 132.741 44.5351C132.803 44.4889 132.815 44.4011 132.769 44.3411C132.722 44.2787 132.635 44.2671 132.575 44.3133C132.552 44.3318 130.232 46.0966 129.142 48.843C129.114 48.9146 129.149 48.9954 129.221 49.0231C129.237 49.0301 129.255 49.0324 129.272 49.0324L129.269 49.0347Z" fill="#360530"/>
<path d="M148.767 49.6583C150.465 49.2218 152.213 44.3341 153.015 42.4885C153.468 41.3936 153.983 40.2133 154.523 39.1484L167.449 46.2651L167.26 46.5816L167.163 46.741C166.821 47.3369 166.507 47.9467 166.186 48.5681C164.4 52.0444 162.788 55.4006 159.709 58.4173C156.981 61.1314 153.193 62.8361 149.324 62.8938C144.933 62.9793 140.888 61.3208 137.31 59.2027C135.709 58.2695 133.864 56.9552 132.376 55.8303L139.414 45.9903C142.045 47.6626 146.046 50.0094 148.767 49.656V49.6583Z" fill="#0071EB"/>
<path d="M162.044 32.5281L171.198 31.7266C179.55 31.7266 181.691 36.7829 181.982 40.6819L182.615 67.213C181.472 68.7283 176.852 69.6661 169.336 70.1026C154.848 70.9411 150.351 68.1323 150.351 68.1323L152.61 44.507C152.961 41.6474 155.675 34.5215 162.046 32.5281H162.044Z" fill="#0071EB"/>
<path d="M173.451 105.993H186.43V85.0661C186.43 83.6594 185.284 82.5137 183.877 82.5137H176.003C174.596 82.5137 173.451 83.6594 173.451 85.0661V105.993ZM185.039 104.601H174.843V85.0661C174.843 84.4262 175.363 83.9065 176.003 83.9065H183.877C184.517 83.9065 185.037 84.4262 185.037 85.0661V104.601H185.039Z" fill="#DBC3C3"/>
<path d="M165.228 141.699H166.673C166.94 141.699 167.156 141.915 167.156 142.182V145.755C167.156 146.022 166.94 146.238 166.673 146.238H165.228C164.961 146.238 164.745 146.022 164.745 145.755V142.182C164.745 141.915 164.961 141.699 165.228 141.699Z" fill="#7F7F7F"/>
<path d="M193.208 141.699H194.654C194.921 141.699 195.137 141.915 195.137 142.182V145.755C195.137 146.022 194.921 146.238 194.654 146.238H193.208C192.941 146.238 192.725 146.022 192.725 145.755V142.182C192.725 141.915 192.941 141.699 193.208 141.699Z" fill="#7F7F7F"/>
<path d="M164.583 94.4375H195.298C197.048 94.4375 198.467 95.8564 198.467 97.6066V140.184C198.467 141.935 197.048 143.353 195.298 143.353H164.583C162.833 143.353 161.414 141.935 161.414 140.184V97.6066C161.414 95.8564 162.833 94.4375 164.583 94.4375Z" fill="#80DCE8"/>
<path d="M163.343 141.133H193.372C195.273 141.133 196.82 139.585 196.82 137.684V96.9338C196.82 96.779 196.696 96.6543 196.541 96.6543C196.386 96.6543 196.261 96.779 196.261 96.9338V137.684C196.261 139.278 194.965 140.576 193.369 140.576H163.341C163.186 140.576 163.062 140.701 163.062 140.856C163.062 141.011 163.186 141.135 163.341 141.135L163.343 141.133Z" fill="#DBC3C3"/>
<path d="M164.844 97.3613V138.412" stroke="#FFFFE9" stroke-width="0.556677" stroke-miterlimit="10" stroke-linecap="round"/>
<path d="M169.506 97.3613V138.412" stroke="#FFFFE9" stroke-width="0.556677" stroke-miterlimit="10" stroke-linecap="round"/>
<path d="M174.17 97.3613V138.412" stroke="#FFFFE9" stroke-width="0.556677" stroke-miterlimit="10" stroke-linecap="round"/>
<path d="M178.832 97.3613V138.412" stroke="#FFFFE9" stroke-width="0.556677" stroke-miterlimit="10" stroke-linecap="round"/>
<path d="M183.494 97.3613V138.412" stroke="#FFFFE9" stroke-width="0.556677" stroke-miterlimit="10" stroke-linecap="round"/>
<path d="M188.158 97.3613V138.412" stroke="#FFFFE9" stroke-width="0.556677" stroke-miterlimit="10" stroke-linecap="round"/>
<path d="M192.822 97.3613V138.412" stroke="#FFFFE9" stroke-width="0.556677" stroke-miterlimit="10" stroke-linecap="round"/>
<path d="M175.959 82.0098H183.975C184.226 82.0098 184.43 82.2135 184.43 82.4648V83.9524C184.43 84.2037 184.226 84.4074 183.975 84.4074H175.959C175.708 84.4074 175.504 84.2037 175.504 83.9524V82.4648C175.504 82.2135 175.708 82.0098 175.959 82.0098Z" fill="#80DCE8"/>
<path d="M179.154 77.2285L181.029 78.03L178.382 84.2297C177.943 85.2553 177.329 85.5348 176.811 85.313C176.294 85.0913 176.088 84.4122 176.507 83.4282L179.154 77.2285Z" fill="#FF9EAB"/>
<path d="M180.31 79.709L182.186 80.5105L180.093 85.4097C179.654 86.4353 179.04 86.7148 178.522 86.4931C178.005 86.2713 177.799 85.5922 178.217 84.6082L180.31 79.709Z" fill="#FF9EAB"/>
<path d="M181.962 81.0332L183.838 81.8347L182.103 85.8955C181.664 86.921 181.05 87.2005 180.532 86.9788C180.015 86.757 179.809 86.0779 180.228 85.0939L181.962 81.0332Z" fill="#FF9EAB"/>
<path d="M184.343 80.6523L186.219 81.4539L184.161 86.2699C183.722 87.2955 183.107 87.575 182.59 87.3533C182.073 87.1315 181.867 86.4524 182.285 85.4684L184.343 80.6523Z" fill="#FF9EAB"/>
<path d="M181.726 70.4727L189.492 73.7896L184.57 85.3112C184.293 85.9626 183.54 86.2629 182.888 85.9857L179.246 84.4289C177.619 83.7336 176.864 81.8534 177.559 80.2272L181.726 70.4727Z" fill="#FF9EAB"/>
<path d="M180.669 75.3673C181.72 75.1686 184.157 75.1317 184.076 77.6633C184.021 79.4142 182.96 79.8577 179.999 79.6313C178.133 79.4904 179.445 82.7981 177.551 82.4285C176.701 82.2622 175.779 80.5275 176.544 78.7905C177.479 76.6677 178.86 75.7091 180.669 75.365V75.3673Z" fill="#FF9EAB"/>
<path d="M178.42 78.591C178.45 78.5194 178.533 78.4847 178.603 78.5147C178.672 78.5448 178.704 78.6279 178.674 78.6995L177.392 81.7C177.362 81.7716 177.279 81.8063 177.21 81.7763C177.141 81.7462 177.108 81.6631 177.138 81.5915L178.42 78.591Z" fill="#360530"/>
<path d="M172.182 46.7305C172.265 46.7628 172.367 46.8368 172.469 46.9269C172.335 46.8692 172.233 46.8021 172.182 46.7305Z" fill="#284EAD"/>
<path d="M174.837 32.4632C176.133 32.6226 177.299 32.9968 178.286 33.4496C182.829 35.4938 185.818 40.2683 187.618 44.4122C191.567 53.774 192.972 65.2795 190.738 75.2304C190.23 77.3855 189.507 79.5752 188.403 81.7373L177.51 76.4777C178.547 74.0292 178.912 71.0795 178.93 68.2869C178.923 62.2697 177.551 55.779 174.846 50.367C174.283 49.2721 173.583 48.1149 172.828 47.2833C172.731 47.1794 172.599 47.0408 172.467 46.9253C172.668 47.0131 172.936 47.0824 173.206 47.1263L174.837 32.4609V32.4632Z" fill="#0071EB"/>
<path d="M178.825 67.2253C178.901 67.2253 178.963 67.1652 178.963 67.089C178.963 66.9735 179.104 55.4889 177.968 50.518C177.951 50.4441 177.875 50.3956 177.801 50.4141C177.727 50.4303 177.679 50.5065 177.697 50.5804C178.827 55.5189 178.688 66.9689 178.686 67.0844C178.686 67.1606 178.746 67.2253 178.822 67.2253H178.825Z" fill="#FFFFED"/>
<path d="M169.508 15.1142C174.583 16.9136 173.282 22.418 173.282 22.418L167.485 20.6879L160.081 18.4797C162.511 13.5458 167.602 14.4374 169.508 15.1119V15.1142Z" fill="#FF3F31"/>
<path d="M160.082 18.4828L168.125 20.8804C168.125 20.8804 162.66 22.1624 155.455 20.2822C152.439 19.4945 160.082 18.4805 160.082 18.4805V18.4828Z" fill="#FF3F31"/>
<path d="M12.6557 27.8632C14.2611 26.7683 13.9238 22.8161 18.7422 22.7792C24.5746 22.7353 25.4408 21.749 27.1455 20.2453C30.6149 17.1824 33.2597 16.4271 37.1842 18.0509C40.7136 19.5107 31.9107 23.9665 32.0147 27.623C32.1186 31.3095 29.2059 34.9406 25.517 33.6656C19.3797 31.5428 21.1491 37.9042 13.9515 36.6961C11.9258 36.3566 7.84658 31.1432 12.6534 27.8632H12.6557Z" fill="#00AB41"/>
<path d="M29.138 28.7402H37.1855V39.0792H29.138V28.7402Z" fill="#FF9EAB"/>
<path d="M33.1619 18.8778C36.6452 18.6167 39.9691 19.4829 39.9668 26.1584C39.9668 29.9882 39.8929 32.3997 36.472 32.3997C33.0511 32.3997 27.5744 29.9859 27.5744 26.1584C27.5744 22.331 29.7503 19.1342 33.1619 18.8778Z" fill="#FF9EAB"/>
<path d="M36.4724 32.5399C36.5509 32.5399 36.6133 32.4776 36.6133 32.399C36.6133 32.3205 36.5509 32.2581 36.4724 32.2581C35.1812 32.2581 33.6266 31.9093 32.2084 31.3042C32.1368 31.2741 32.0536 31.3065 32.0236 31.3781C31.9936 31.4497 32.0259 31.5328 32.0975 31.5629C33.5481 32.1842 35.1419 32.5399 36.4724 32.5399Z" fill="#360530"/>
<path d="M29.8918 18.7006C31.8737 17.2038 37.3712 16.557 39.7665 20.1234C40.8591 21.7473 41.0254 24.1588 39.7596 24.3967C38.8379 24.5676 37.7823 23.4566 37.3689 21.4816C37.057 24.1703 30.5386 25.6325 30.0466 25.4315C30.0374 25.4177 30.0258 25.4061 30.0143 25.3992C30.0143 25.413 30.0258 25.4246 30.0466 25.4315C30.3792 25.8727 29.6378 28.9702 29.1735 29.453C28.8224 29.8179 28.3419 29.7094 28.1202 29.3167C24.9972 23.8031 27.5265 20.4838 29.8918 18.6983V18.7006Z" fill="#00AB41"/>
<path d="M30.0144 25.3984C30.026 25.4077 30.0376 25.4193 30.0469 25.4309C30.026 25.4216 30.0121 25.4124 30.0144 25.3984Z" fill="#D043A8"/>
<path d="M28.815 24.4261C29.8106 24.2136 30.8569 25.1676 31.1503 26.5558C31.4459 27.944 30.8777 29.2399 29.8822 29.4524C28.8866 29.6649 27.8402 28.7109 27.5469 27.3227C27.2512 25.9344 27.8195 24.6386 28.815 24.4261Z" fill="#FF9EAB"/>
<path d="M29.8296 27.2492C29.8597 27.2492 29.892 27.24 29.9174 27.2192C29.9775 27.1707 29.989 27.0829 29.9405 27.0229C29.4323 26.383 28.841 26.2953 28.8156 26.2906C28.7417 26.2791 28.6678 26.3322 28.6562 26.4108C28.6447 26.487 28.6978 26.5586 28.7763 26.5701C28.7763 26.5701 29.2868 26.6533 29.7211 27.1984C29.7488 27.2331 29.7904 27.2515 29.8319 27.2515L29.8296 27.2492Z" fill="#360530"/>
<path d="M34.2844 25.6191C34.578 25.6191 34.8184 25.8988 34.8184 26.2455C34.8184 26.5922 34.5803 26.8719 34.2844 26.8719C33.9886 26.8719 33.7505 26.5922 33.7505 26.2455C33.7505 25.8988 33.9886 25.6191 34.2844 25.6191Z" fill="#360530"/>
<path d="M38.6575 25.6191C38.951 25.6191 39.1914 25.8988 39.1914 26.2455C39.1914 26.5922 38.9533 26.8719 38.6575 26.8719C38.3616 26.8719 38.1235 26.5922 38.1235 26.2455C38.1235 25.8988 38.3616 25.6191 38.6575 25.6191Z" fill="#360530"/>
<path d="M37.0034 27.7913C37.0034 27.7913 37.0218 27.7913 37.0288 27.789C37.0588 27.7821 37.3337 27.7243 37.4561 27.4887C37.5369 27.334 37.53 27.1492 37.433 26.9413C37.336 26.7288 37.1281 26.4077 37.1212 26.3939C37.0796 26.3292 36.9918 26.3107 36.9271 26.3523C36.8625 26.3939 36.844 26.4816 36.8856 26.5463C36.8856 26.5486 37.0911 26.8651 37.1789 27.0568C37.2367 27.1838 37.2459 27.2832 37.2089 27.3571C37.1581 27.4564 37.0242 27.5026 36.978 27.5118C36.9017 27.528 36.8532 27.6019 36.8671 27.6758C36.8809 27.7428 36.9387 27.789 37.0034 27.789V27.7913Z" fill="#360530"/>
<path d="M36.686 29.8421C37.0071 29.8421 37.2566 29.7451 37.4275 29.5534C37.7024 29.2438 37.6539 28.8073 37.6515 28.7888C37.6423 28.7172 37.5823 28.6641 37.513 28.6641H35.8822C35.8106 28.6641 35.7528 28.7172 35.7436 28.7865C35.7436 28.805 35.6882 29.2461 35.9607 29.5557C36.127 29.7451 36.3719 29.8421 36.6883 29.8421H36.686ZM37.3721 28.9459C37.3651 29.0614 37.3328 29.2369 37.215 29.3686C37.1018 29.4956 36.9239 29.5603 36.686 29.5603C36.4481 29.5603 36.2795 29.4979 36.1686 29.3709C36.0531 29.2392 36.0231 29.0614 36.0162 28.9436H37.3697L37.3721 28.9459Z" fill="#360530"/>
<path d="M49.2363 124.097L48.2015 139.938L39.0059 139.82L39.8952 123.977L49.2363 124.097Z" fill="#FFFF80"/>
<path d="M45.6014 138.269C46.9134 138.066 47.0681 137.537 47.4238 136.844C47.6433 136.414 48.6365 135.869 48.6365 135.869C51.078 138.858 54.3234 140.369 58.5227 141.538C60.1489 142.468 61.1421 144.208 61.1167 146.081L38.7434 145.797L38.8381 138.32C38.8381 138.32 44.719 138.405 45.6014 138.269Z" fill="#1373BA"/>
<path d="M59.6911 144.441C59.7674 144.441 59.8297 144.378 59.832 144.302C59.832 144.224 59.772 144.161 59.6934 144.159L39.6115 143.905C39.5399 143.898 39.4706 143.965 39.4683 144.043C39.4683 144.122 39.5283 144.184 39.6069 144.187L59.6888 144.441H59.6911Z" fill="white"/>
<path d="M53.7055 142.738C53.814 142.738 53.9226 142.697 54.0058 142.614L55.7359 140.858C55.8999 140.692 55.8975 140.426 55.7312 140.262C55.5649 140.098 55.2993 140.101 55.1353 140.267L53.4052 142.022C53.2412 142.189 53.2435 142.454 53.4098 142.618C53.493 142.699 53.5992 142.738 53.7055 142.738Z" fill="white"/>
<path d="M51.852 141.565C51.9605 141.565 52.0691 141.523 52.1522 141.44L53.8823 139.684C54.0463 139.518 54.044 139.252 53.8777 139.088C53.7114 138.924 53.4458 138.927 53.2818 139.093L51.5517 140.848C51.3877 141.015 51.39 141.28 51.5563 141.444C51.6395 141.525 51.7457 141.565 51.852 141.565Z" fill="white"/>
<path d="M50.8389 140.988C50.8735 140.988 50.9105 140.981 50.9451 140.967C51.0283 140.933 51.0907 140.864 51.1114 140.776L51.7998 138.071C51.8298 137.955 51.7813 137.833 51.682 137.766C51.5827 137.701 51.451 137.706 51.3563 137.78L49.1134 139.531C49.0418 139.588 49.0002 139.676 49.0048 139.769C49.0095 139.861 49.0603 139.944 49.1388 139.993L50.691 140.949C50.7349 140.977 50.7881 140.991 50.8389 140.991V140.988ZM51.0514 138.729L50.6587 140.268L49.7763 139.725L51.0514 138.729Z" fill="white"/>
<path d="M25.0137 126.34C23.831 131.477 22.7061 136.63 21.4657 141.753C18.4005 141.065 15.3469 140.326 12.2886 139.605C13.499 134.477 14.7071 129.349 15.9013 124.217C18.9387 124.924 21.9762 125.63 25.0137 126.337V126.34Z" fill="#FFFF80"/>
<path d="M18.9337 137.814C20.8948 137.999 20.0864 137.345 21.0727 136.634C21.6825 136.193 23.0314 136.264 23.0522 136.26C24.7038 138.521 26.3877 141.064 31.0051 142.466C32.95 142.748 33.5298 144.808 33.6152 146.229C22.4239 147.192 21.2251 146.55 10.967 143.76L12.7525 136.518C14.3671 136.934 17.6171 137.694 18.9337 137.816V137.814Z" fill="#1373BA"/>
<path d="M28.0066 145.178C29.404 145.178 30.8315 145.107 32.2613 144.94C32.3376 144.931 32.393 144.862 32.3838 144.786C32.3745 144.71 32.3075 144.654 32.229 144.663C23.105 145.721 13.8286 142.815 12.0639 142.224C11.9576 142.189 11.9576 142.189 11.9299 142.189C11.8514 142.189 11.7913 142.254 11.7913 142.333C11.7913 142.397 11.8375 142.453 11.8976 142.467C11.9091 142.469 11.9345 142.478 11.9715 142.492C14.0688 143.197 20.645 145.183 28.0043 145.183L28.0066 145.178Z" fill="white"/>
<path d="M26.3911 143.36C26.5182 143.36 26.6429 143.305 26.726 143.196L28.0288 141.51C28.172 141.325 28.1374 141.062 27.9526 140.918C27.7678 140.775 27.5045 140.81 27.3613 140.995L26.0585 142.681C25.9153 142.866 25.9499 143.129 26.1347 143.272C26.2109 143.332 26.301 143.36 26.3911 143.36Z" fill="white"/>
<path d="M24.7604 142.352C24.869 142.352 24.9775 142.31 25.0607 142.227L26.5921 140.682C26.7561 140.515 26.7561 140.25 26.5898 140.086C26.4235 139.922 26.1579 139.922 25.9939 140.088L24.4624 141.633C24.2984 141.8 24.2984 142.065 24.4647 142.229C24.5479 142.31 24.6542 142.352 24.7627 142.352H24.7604Z" fill="white"/>
<path d="M23.8512 141.678C23.8674 141.678 23.8813 141.678 23.8974 141.673C23.9852 141.659 24.0614 141.601 24.1007 141.523C24.267 141.192 24.4287 140.883 24.5881 140.576C24.8514 140.068 25.0986 139.589 25.3642 139.047C25.4173 138.938 25.3942 138.806 25.3088 138.723C25.2233 138.638 25.0916 138.619 24.9831 138.672C24.5326 138.903 24.0799 139.104 23.6433 139.301C23.2322 139.485 22.8072 139.675 22.3752 139.892C22.2921 139.934 22.2343 140.014 22.2228 140.104C22.2112 140.197 22.2436 140.289 22.3129 140.352C22.7725 140.767 23.2206 141.176 23.6549 141.599C23.708 141.65 23.7773 141.678 23.8512 141.678ZM24.4911 139.536C24.3571 139.797 24.2254 140.054 24.0891 140.319C23.9852 140.52 23.8789 140.724 23.7727 140.931C23.5186 140.691 23.2599 140.453 22.9989 140.213C23.2946 140.072 23.5879 139.943 23.8743 139.813C24.0776 139.723 24.2832 139.631 24.4911 139.534V139.536Z" fill="white"/>
<path d="M16.7142 98.6056L16.7234 98.4554L16.8066 97.8613L16.7142 98.6056Z" fill="#1373BA"/>
<path d="M16.714 98.6052L16.8064 97.8637L16.7232 98.455L18.3216 67.9648L37.3711 69.4824L34.1049 99.9911L34.0541 100.462C34.0449 100.552 34.031 100.642 34.0126 100.733L27.3394 135.327L11.8864 132.75L16.7232 98.455L16.7163 98.6052H16.714Z" fill="#111111"/>
<path d="M50.9652 101.137C51.2516 103.837 51.1546 106.57 51.1869 109.291C51.2077 114.557 51.2608 128.317 51.2793 133.778L35.6207 134.3C35.2858 129.031 34.4196 115.419 34.0962 110.314C34.0015 104.745 30.181 76.6086 29.525 70.4921L48.5421 68.6211L50.9628 101.135L50.9652 101.137Z" fill="#111111"/>
<path d="M26.1346 132.297C26.2016 132.297 26.2616 132.249 26.2732 132.179C26.287 132.103 26.2339 132.029 26.1577 132.018L14.0517 129.966C13.9778 129.955 13.9016 130.006 13.89 130.082C13.8762 130.158 13.9293 130.232 14.0055 130.244L26.1115 132.295C26.1115 132.295 26.1277 132.295 26.1346 132.295V132.297Z" fill="#FFFFED"/>
<path d="M23.5837 130.974C23.6507 130.974 23.7084 130.927 23.7223 130.858C23.7662 130.627 28.0325 107.658 28.8687 100.102C29.4993 94.4131 28.0001 75.292 27.9863 75.1003C27.9794 75.0218 27.9124 74.9664 27.8362 74.971C27.7599 74.9779 27.7022 75.0449 27.7068 75.1211C27.723 75.3128 29.2174 94.4085 28.5915 100.07C27.7576 107.614 23.4913 130.574 23.4474 130.805C23.4336 130.881 23.4844 130.955 23.5606 130.969C23.5698 130.969 23.5791 130.971 23.586 130.971L23.5837 130.974Z" fill="#FFFFED"/>
<path d="M35.1008 97.5405C35.1655 97.5405 35.2232 97.4966 35.2371 97.4296C35.2533 97.3511 36.9556 89.5992 37.4038 83.6582C37.4107 83.582 37.3506 83.5127 37.2744 83.5081C37.1959 83.5035 37.1289 83.5612 37.1243 83.6374C36.6785 89.5599 34.9807 97.2933 34.9622 97.3696C34.9461 97.4458 34.9923 97.5197 35.0685 97.5382C35.0777 97.5382 35.0893 97.5405 35.0985 97.5405H35.1008Z" fill="#FFFFED"/>
<path d="M36.9294 131.27H36.9341L49.4166 130.799C49.4928 130.797 49.5552 130.73 49.5505 130.654C49.5482 130.575 49.4812 130.517 49.405 130.52L36.9225 130.991C36.844 130.993 36.7839 131.06 36.7885 131.136C36.7909 131.213 36.8532 131.273 36.9294 131.273V131.27Z" fill="#FFFFED"/>
<path d="M44.1208 130.245C44.1994 130.245 44.2617 130.183 44.2617 130.104V101.794C44.2617 94.7124 42.6194 74.1477 42.6032 73.9421C42.5963 73.8636 42.5316 73.8081 42.4508 73.8128C42.3722 73.8197 42.3168 73.8867 42.3214 73.9652C42.3376 74.1731 43.9799 94.7263 43.9799 101.797V130.106C43.9799 130.185 44.0423 130.247 44.1208 130.247V130.245Z" fill="#FFFFED"/>
<path d="M66.653 43.55C68.2053 41.9562 69.6397 39.7341 70.432 41.4365C71.1757 43.0372 68.3554 44.8966 68.196 47.7516C68.0274 50.7591 66.4521 52.0688 64.8213 51.4451C63.1836 50.8191 63.2968 49.4586 63.6756 48.4469C64.3293 46.7076 64.7959 45.4579 66.6553 43.5477L66.653 43.55Z" fill="#FF9EAB"/>
<path d="M70.8124 46.0977L73.4225 49.2321C73.8776 49.7773 73.8037 50.5903 73.2562 51.0454L62.8295 59.7259L57.339 53.1289L66.2828 45.6842C67.6479 44.5477 69.6759 44.7325 70.8147 46.0977H70.8124Z" fill="#FF9EAB"/>
<path d="M65.4272 51.7319C65.4989 51.7319 65.5612 51.6764 65.5658 51.6048C65.5728 51.5286 65.515 51.4593 65.4388 51.4524C65.2517 51.4362 65.06 51.39 64.8706 51.3184C63.3368 50.7317 63.4454 49.4636 63.8057 48.5027L63.9351 48.1562C63.9628 48.0846 63.9258 48.0014 63.8542 47.976C63.7826 47.9483 63.6995 47.9853 63.6741 48.0569L63.5447 48.4034C62.9719 49.9302 63.4084 51.0597 64.7736 51.5817C64.9884 51.6626 65.2055 51.7157 65.418 51.7342C65.4226 51.7342 65.4272 51.7342 65.4319 51.7342L65.4272 51.7319Z" fill="#360530"/>
<path d="M71.8803 42.0352L76.3903 44.7098C76.6569 44.8679 76.7449 45.2122 76.5867 45.4789L71.0726 54.7769C70.9144 55.0435 70.5701 55.1315 70.3035 54.9734L65.7935 52.2988C65.5269 52.1406 65.4389 51.7963 65.597 51.5297L71.1112 42.2316C71.2694 41.965 71.6137 41.877 71.8803 42.0352Z" fill="#FFFFE9"/>
<path d="M70.5889 55.4743C70.6697 55.4743 70.7529 55.465 70.8337 55.4442C71.0878 55.3795 71.3026 55.2179 71.4366 54.9938L76.9502 45.6943C77.2274 45.2277 77.0727 44.6225 76.6061 44.3476L72.0972 41.6728C71.6306 41.3956 71.0254 41.5504 70.7506 42.017L65.2369 51.3142C65.1029 51.5406 65.0637 51.8039 65.1307 52.0603C65.1953 52.3144 65.357 52.5292 65.5811 52.6632L70.0899 55.338C70.2447 55.4304 70.4156 55.4766 70.5889 55.4766V55.4743ZM71.5937 42.3796C71.6191 42.3796 71.6422 42.3866 71.6653 42.3981L76.1741 45.0729C76.2411 45.1122 76.2619 45.2 76.2226 45.2647L70.709 54.5619C70.6836 54.6057 70.6443 54.6219 70.6235 54.6265C70.6027 54.6312 70.5611 54.6381 70.5173 54.6104L66.0084 51.9355C65.9645 51.9101 65.9483 51.8709 65.9437 51.8501C65.9391 51.8293 65.9322 51.7877 65.9599 51.7438L71.4735 42.4466C71.4989 42.4027 71.5475 42.3773 71.5937 42.3773V42.3796Z" fill="#360530"/>
<path d="M76.0424 46.3693L76.5598 46.6765C77.3198 47.1269 77.4722 47.7575 77.1789 48.2495C76.8878 48.7415 76.2965 48.9309 75.5019 48.4597L74.9845 48.1525C74.4925 47.8615 74.3308 47.2239 74.6219 46.7319C74.9129 46.2399 75.5504 46.0782 76.0424 46.3693Z" fill="#FF9EAB"/>
<path d="M74.9854 48.1525L75.7407 48.6006C76.5792 49.0972 76.7686 49.7509 76.4776 50.2429C76.1865 50.7349 75.5583 50.9035 74.6828 50.3838L73.9275 49.9357C73.4355 49.6447 73.2738 49.0071 73.5648 48.5151C73.8559 48.0231 74.4934 47.8615 74.9854 48.1525Z" fill="#FF9EAB"/>
<path d="M73.9288 49.9376L74.2753 50.1432C75.1876 50.6837 75.4163 51.3605 75.1253 51.8525C74.8342 52.3445 74.1713 52.4924 73.2173 51.9264L72.8709 51.7209C72.3789 51.4298 72.2172 50.7923 72.5082 50.3003C72.7993 49.8083 73.4368 49.6466 73.9288 49.9376Z" fill="#FF9EAB"/>
<path d="M72.8717 51.7193L73.0819 51.844C73.8234 52.2829 73.9643 52.9065 73.6733 53.3985C73.3822 53.8905 72.8001 54.0846 72.024 53.6249L71.8138 53.5002C71.3218 53.2091 71.1601 52.5716 71.4512 52.0796C71.7422 51.5876 72.3797 51.4259 72.8717 51.7169V51.7193Z" fill="#FF9EAB"/>
<path d="M71.8128 53.642C71.8613 53.642 71.9075 53.6166 71.9329 53.5727C71.9721 53.5057 71.9513 53.4203 71.8844 53.381C71.6788 53.2586 71.5333 53.0645 71.4732 52.8312C71.4131 52.6003 71.4478 52.3577 71.5702 52.1521C71.822 51.7271 72.3741 51.5862 72.7968 51.838C72.8637 51.8773 72.9492 51.8565 72.9885 51.7895C73.0023 51.7664 73.0093 51.7433 73.0093 51.7179C73.0093 51.6694 72.9839 51.6232 72.94 51.5978C72.7344 51.4753 72.5889 51.2813 72.5288 51.048C72.4688 50.817 72.5034 50.5745 72.6258 50.3689C72.7482 50.1633 72.9423 50.0178 73.1756 49.9578C73.4066 49.8977 73.6491 49.9324 73.8547 50.0548C73.9217 50.094 74.0071 50.0733 74.0464 50.0063C74.0603 49.9832 74.0649 49.9601 74.0649 49.9347C74.0649 49.8862 74.0395 49.84 73.9956 49.8146C73.79 49.6921 73.6445 49.4981 73.5844 49.2648C73.5244 49.0338 73.559 48.7913 73.6814 48.5857C73.8039 48.3801 73.9979 48.2346 74.2312 48.1746C74.4622 48.1145 74.7047 48.1491 74.9103 48.2716C74.9773 48.3108 75.0627 48.29 75.102 48.2231C75.1159 48.2 75.1228 48.1769 75.1228 48.1515C75.1228 48.1029 75.0974 48.0567 75.0535 48.0313C74.6285 47.7796 74.4876 47.2298 74.7394 46.8048C74.8618 46.5992 75.0558 46.4537 75.2891 46.3936C75.5201 46.3336 75.7626 46.3682 75.9682 46.4907C76.0352 46.5299 76.1206 46.5091 76.1599 46.4422C76.1992 46.3752 76.1784 46.2897 76.1114 46.2504C75.8412 46.0911 75.5247 46.0449 75.2198 46.1234C74.9149 46.2019 74.6585 46.3936 74.4991 46.6639C74.2704 47.0496 74.2889 47.5116 74.5037 47.8697C74.3906 47.865 74.2751 47.8766 74.1642 47.9066C73.8593 47.9851 73.6029 48.1769 73.4435 48.4471C73.2841 48.7174 73.2379 49.0338 73.3165 49.3387C73.3442 49.4519 73.3904 49.5559 73.4481 49.6529C73.3373 49.6482 73.2218 49.6598 73.1086 49.6898C72.8037 49.7684 72.5473 49.9601 72.3879 50.2303C72.2285 50.5006 72.1823 50.817 72.2609 51.1219C72.2886 51.2351 72.3348 51.3414 72.3925 51.4384C71.9744 51.4222 71.561 51.6301 71.3323 52.0135C71.1729 52.2838 71.1267 52.6002 71.2053 52.9052C71.2838 53.2101 71.4755 53.4665 71.7458 53.6258C71.7689 53.6397 71.792 53.6466 71.8174 53.6466L71.8128 53.642Z" fill="#360530"/>
<path d="M69.0799 45.2181C69.1215 45.2181 69.1631 45.1997 69.1908 45.1627C69.9323 44.1926 70.5282 42.7951 70.5513 42.735C70.5813 42.6634 70.549 42.5803 70.4774 42.5503C70.4058 42.5202 70.3226 42.5526 70.2926 42.6242C70.2857 42.638 69.6851 44.0494 68.9667 44.9895C68.9205 45.0518 68.9321 45.1396 68.9922 45.1858C69.0176 45.2043 69.0476 45.2135 69.0776 45.2135L69.0799 45.2181Z" fill="#360530"/>
<path d="M46.2982 42.5658C46.7579 43.5591 47.2222 44.6955 47.638 45.7003C48.5527 47.8369 49.3634 50.0036 50.7309 51.4657C52.327 53.4384 58.9448 49.6271 60.9636 48.2643L68.0664 58.1967C67.4127 58.6794 65.8443 59.8575 65.1652 60.2802C64.3845 60.8253 63.3658 61.4351 62.5458 61.9225C57.9122 64.5858 52.1815 66.3921 46.7741 64.6366C40.1517 62.5947 36.7031 56.4781 33.9382 50.8652C33.5293 50.0706 33.1297 49.2922 32.6631 48.5391L45.7092 41.3555C45.8825 41.7089 46.1342 42.2032 46.2936 42.5658H46.2982Z" fill="#FFFF80"/>
<path d="M28.8845 33.8613L38.124 34.6721C44.5569 36.684 47.2964 43.8792 47.6499 46.7642L49.9297 70.6136C49.9297 70.6136 45.3908 73.4478 30.7647 72.6024C23.1768 72.1635 18.5132 71.2141 17.3606 69.6873L17.9981 42.9044C18.2915 38.9661 20.4535 33.8636 28.8845 33.8636V33.8613Z" fill="#FFFF80"/>
<path d="M58.3464 37.6338C58.7044 38.075 58.3603 38.9459 57.4871 39.655L51.8765 44.2008L50.5806 42.6024L56.1913 38.0566C57.0298 37.3775 57.9884 37.1927 58.3464 37.6338Z" fill="#FF9EAB"/>
<path d="M56.5095 41.7678C56.8675 42.209 56.7659 42.8835 55.8928 43.5926L51.7142 46.9789L50.4184 45.3805L54.5969 41.9942C55.4354 41.3151 56.1515 41.3267 56.5095 41.7678Z" fill="#FF9EAB"/>
<path d="M57.5349 43.5862C57.8929 44.0274 57.7913 44.7019 56.9181 45.411L53.4557 48.2175L52.1598 46.6191L55.6223 43.8126C56.4608 43.1335 57.1768 43.145 57.5349 43.5862Z" fill="#FF9EAB"/>
<path d="M58.4685 45.4807C58.8265 45.9219 58.7249 46.5964 57.8517 47.3055L53.7448 50.634L52.449 49.0356L56.5559 45.7071C57.3944 45.028 58.1104 45.0396 58.4685 45.4807Z" fill="#FF9EAB"/>
<path d="M54.705 43.0423L57.2228 46.1491C57.6732 46.7035 57.5877 47.5188 57.0311 47.967L47.064 56.0422L41.6982 49.4199L50.1592 42.5642C51.5451 41.4416 53.5824 41.6541 54.705 43.04V43.0423Z" fill="#FF9EAB"/>
<path d="M48.4873 41.974C49.9633 40.7521 51.9012 41.1679 52.2985 41.9463C53.1809 43.6856 49.6052 43.3253 50.2589 45.097C51.296 47.9104 51.1598 49.0607 49.4736 49.5989C47.0367 50.3773 46.3991 47.9982 46.3021 46.9241C46.1358 45.0716 46.6856 43.4662 48.4873 41.9717V41.974Z" fill="#FF9EAB"/>
<path d="M51.3701 41.7801C51.4324 41.7316 51.5202 41.7385 51.5687 41.7986C51.6172 41.8586 51.608 41.9464 51.5456 41.9972L48.9863 44.0715C48.9239 44.12 48.8361 44.113 48.7876 44.053C48.7391 43.9929 48.7484 43.9051 48.8107 43.8543L51.3701 41.7801Z" fill="#360530"/>
<path d="M35.0876 50.6536C34.554 50.9723 34.0343 51.2541 33.4915 51.492C33.4407 51.5151 33.3737 51.5406 33.3067 51.5637C32.9394 51.5983 32.8794 51.6838 32.9972 51.656C33.0503 51.6491 33.182 51.6098 33.3067 51.5637C33.4014 51.5544 33.51 51.5475 33.6463 51.5498C34.2006 51.5267 35.1754 51.8847 35.5634 52.2035C35.8499 52.4137 35.8499 52.4576 35.7113 52.1642C35.4895 51.6722 35.2839 51.1664 35.0876 50.6536C35.6697 50.3048 36.2679 49.9098 36.9332 49.464C39.0952 47.988 41.3589 46.2718 43.6202 44.5532L51.3906 53.9728C47.7087 57.172 43.9159 60.8424 39.5018 63.337C34.4894 66.1574 28.9133 65.6423 25.1044 61.0988C23.3928 59.0592 22.3349 56.7839 21.3601 54.5041C20.1497 51.6052 19.205 48.8611 18.1863 45.9899L32.4197 41.6035C33.2582 44.5994 33.9881 47.7732 35.0853 50.6559L35.0876 50.6536Z" fill="#FFFF80"/>
<path d="M35.5665 52.2042C35.1784 51.8855 34.2036 51.5297 33.6493 51.5505C33.513 51.5505 33.4044 51.5551 33.3097 51.5644C33.3767 51.539 33.4437 51.5136 33.4945 51.4928C34.035 51.2525 34.5547 50.9731 35.0906 50.6543C35.287 51.1671 35.4926 51.6729 35.7143 52.1649C35.8529 52.4583 35.8529 52.4144 35.5665 52.2042Z" fill="#FFFF80"/>
<path d="M32.6676 64.8663C35.8437 64.8663 39.8629 63.1224 44.6304 59.6761C48.4209 56.9343 51.2921 54.0793 51.3221 54.0492C51.3729 53.9984 51.3775 53.9176 51.3313 53.8621L43.6533 44.431C43.6048 44.3732 43.5217 44.3617 43.4616 44.4056L35.1715 50.4643L32.9032 46.3204C32.8663 46.2535 32.7808 46.2281 32.7115 46.265C32.6445 46.302 32.6191 46.3874 32.6561 46.4567L35.0006 50.7392C35.0191 50.7739 35.0537 50.7993 35.093 50.8085C35.1323 50.8177 35.1738 50.8085 35.2062 50.7854L43.5171 44.7105L51.0311 53.9384C49.9408 55.0009 39.3247 65.1458 32.0255 64.5568C24.396 63.9401 18.8962 48.2099 18.8431 48.0528C18.8177 47.9789 18.7369 47.9397 18.6652 47.9651C18.5913 47.9905 18.5521 48.0713 18.5775 48.1429C18.5913 48.1822 19.9819 52.1944 22.3125 56.2298C25.4562 61.6741 28.7155 64.5707 32.0047 64.8363C32.2218 64.8548 32.4413 64.8617 32.6676 64.8617V64.8663Z" fill="#C7DA3D"/>
<path d="M89.2054 77.2229C88.2606 77.7102 87.958 78.3039 88.1775 78.7312C88.3969 79.1585 89.016 79.2763 90.0023 78.7682L95.964 75.6937L95.1671 74.1484L89.2077 77.2229H89.2054Z" fill="#FF9EAB"/>
<path d="M89.8798 80.4059C89.039 81.0573 88.8496 81.6971 89.143 82.0759C89.4363 82.4547 90.0669 82.4593 90.9447 81.7802L95.1348 78.5326L94.0699 77.1582L89.8798 80.4059Z" fill="#FF9EAB"/>
<path d="M92.1271 81.9455C91.3487 82.6708 91.2194 83.3245 91.5474 83.6756C91.8754 84.0267 92.5036 83.9735 93.3144 83.2159L96.5274 80.2177L95.3402 78.9473L92.1271 81.9455Z" fill="#FF9EAB"/>
<path d="M94.2294 82.9997C93.5087 83.7804 93.4256 84.4433 93.779 84.769C94.1324 85.0947 94.7538 84.9954 95.5068 84.18L99.0409 80.3503L97.7635 79.1699L94.2294 82.9997Z" fill="#FF9EAB"/>
<path d="M94.5507 73.427C93.1602 74.5034 92.9061 76.5038 93.9848 77.8943L96.4587 81.0865C96.8906 81.6432 97.6899 81.7448 98.2465 81.3129L108.237 73.5725L103.033 66.8555L94.5507 73.427Z" fill="#FF9EAB"/>
<path d="M98.4651 71.1597C97.0122 70.9218 95.5662 71.4692 94.1295 71.8065C92.434 72.2038 89.3873 72.7882 89.4381 73.7075C89.5513 75.7633 94.0671 73.6567 95.5546 75.128C97.7028 77.2508 99.7263 76.4077 100.415 74.8393C101.408 72.5756 99.3105 71.2983 98.4674 71.162L98.4651 71.1597Z" fill="#FF9EAB"/>
<path d="M98.1413 76.5333C97.4692 76.5333 96.5221 76.2746 95.455 75.2213C95.127 74.8956 94.6073 74.7316 93.8196 74.6993C93.7434 74.697 93.6833 74.6323 93.6856 74.5561C93.6879 74.4799 93.7503 74.4175 93.8288 74.4221C94.6881 74.4568 95.2656 74.6462 95.6467 75.0227C96.5452 75.9097 97.4876 76.3324 98.37 76.2423C99.0537 76.173 99.652 75.7988 100.056 75.189C100.098 75.1243 100.186 75.1081 100.248 75.1497C100.313 75.1913 100.329 75.2791 100.287 75.3414C99.8414 76.0113 99.1531 76.4386 98.3977 76.5172C98.3169 76.5264 98.2291 76.531 98.1367 76.531L98.1413 76.5333Z" fill="#360530"/>
<path d="M97.6123 80.3343C97.5892 80.3343 97.5638 80.3274 97.5431 80.3158C94.9999 78.8144 93.6163 76.2528 93.6024 76.2251C93.5655 76.1581 93.5932 76.0726 93.6602 76.038C93.7295 76.001 93.8126 76.0287 93.8473 76.0957C93.8611 76.1211 95.2101 78.6158 97.684 80.0756C97.7509 80.1149 97.7717 80.2003 97.7325 80.265C97.707 80.3089 97.6609 80.3343 97.6123 80.3343Z" fill="#360530"/>
<path d="M68.0195 141.872L74.8429 141.96L75.6097 130.209L68.6801 130.119L68.0195 141.872Z" fill="#FFFF80"/>
<path d="M79.7666 142.883C78.5862 142.04 75.6388 141.744 75.1838 141.321C74.7172 140.887 67.8893 141.083 67.8893 141.083L67.8223 146.306H81.0185C81.037 144.915 80.9723 143.573 79.7666 142.883Z" fill="#D043A8"/>
<path d="M54.123 140.581L60.9025 141.357L62.8543 129.745L55.9709 128.955L54.123 140.581Z" fill="#FFFF80"/>
<path d="M65.7128 142.774C64.6248 141.816 61.7213 141.225 61.3102 140.758C60.8898 140.28 54.078 139.783 54.078 139.783L53.4844 144.973L66.6113 146.309C66.7684 144.927 66.8423 143.585 65.7128 142.774Z" fill="#D043A8"/>
<path d="M66.457 121.873L66.4732 122.432L66.5241 122.684L66.457 121.873Z" fill="#C7DA3D"/>
<path d="M76.2926 121.06L74.3754 106.658L63.6738 108.439L66.4734 122.435L66.4572 121.876L66.5242 122.689L66.4734 122.437L66.9608 138.948H75.8537L76.3573 121.878C76.3619 121.719 76.3527 121.538 76.3319 121.374L76.2903 121.065L76.2926 121.06Z" fill="#FF3F31"/>
<path d="M55.8344 123.545L55.7559 124.338L55.8229 124.788L55.8344 123.545Z" fill="#C7DA3D"/>
<path d="M65.6579 123.633L64.4822 109.58L53.709 110.846L55.7555 124.338L55.8341 123.546L55.8225 124.791L55.7532 124.338L54.3789 138.012L63.191 139.209L65.6441 124.878C65.6926 124.59 65.7087 124.273 65.6833 123.968L65.6556 123.633H65.6579Z" fill="#FF3F31"/>
<path d="M69.6031 88.7997L60.948 88.2754C54.0092 89.9639 52.0989 96.0642 51.8194 97.0875L51.0664 112.959C52.0135 114.428 58.0537 115.123 64.3343 114.511C75.6064 113.416 76.5511 111.457 76.5511 111.457L75.3338 100.425C75.0405 98.455 74.9458 90.1718 69.6008 88.7974L69.6031 88.7997Z" fill="#FFBE00"/>
<path d="M38.4253 113.806C37.9264 114.314 37.9171 114.778 38.2151 115.03C38.5154 115.282 38.9889 115.249 39.5086 114.718L42.6477 111.51L41.5621 110.6L38.423 113.808L38.4253 113.806Z" fill="#FF9EAB"/>
<path d="M39.8213 115.506C39.4517 116.107 39.5372 116.58 39.8721 116.786C40.2071 116.991 40.6505 116.878 41.0363 116.25L42.8749 113.252L41.66 112.508L39.8213 115.506Z" fill="#FF9EAB"/>
<path d="M41.6162 116.022C41.3159 116.662 41.4476 117.135 41.7964 117.316C42.1452 117.496 42.5679 117.343 42.8797 116.673L44.1155 114.026L42.8497 113.375L41.6139 116.022H41.6162Z" fill="#FF9EAB"/>
<path d="M43.1401 116.359C42.8999 117.029 43.0662 117.495 43.4242 117.655C43.7823 117.812 44.1842 117.629 44.436 116.932L45.6163 113.656L44.3182 113.086L43.1378 116.361L43.1401 116.359Z" fill="#FF9EAB"/>
<path d="M40.6821 111.033C40.0469 112.067 40.3726 113.423 41.4074 114.058L43.7288 115.481C44.1423 115.735 44.6851 115.606 44.9392 115.19L49.9816 106.963L45.0362 103.93L40.6821 111.03V111.033Z" fill="#FF9EAB"/>
<path d="M42.0034 109.165C41.1949 109.338 40.5413 109.923 39.8506 110.396C39.0375 110.953 37.55 111.886 37.7533 112.36C38.2083 113.418 40.174 111.383 41.2388 111.851C42.7749 112.528 43.6757 111.669 43.7358 110.701C43.8213 109.304 42.4746 109.063 42.0057 109.165H42.0034Z" fill="#FF9EAB"/>
<path d="M43.9746 104.355C42.718 105.958 41.4661 107.612 40.4336 109.413L47.2846 113.509C47.6866 112.943 48.2063 112.273 48.6821 111.723C52.7891 107.007 57.388 102.816 61.9477 98.4439L54.9626 91.6621C51.2715 95.7852 47.4625 99.9591 43.9723 104.355H43.9746Z" fill="#FFBE00"/>
<path d="M91.1438 79.9837L87.3926 82.4507L88.0786 83.6911L91.8298 81.2241C92.4512 80.8153 92.5736 80.3556 92.3842 80.0138C92.1948 79.6719 91.7374 79.5934 91.1438 79.9837Z" fill="#FF9EAB"/>
<path d="M92.5442 81.678L89.248 82.9068L89.747 84.2419L93.0432 83.0131C93.7338 82.7567 93.9301 82.3409 93.7916 81.9736C93.653 81.6041 93.2048 81.4308 92.5442 81.678Z" fill="#FF9EAB"/>
<path d="M92.7053 83.5374L89.8711 84.2442L90.2684 85.6093L93.1026 84.9025C93.8186 84.7246 94.0496 84.3389 93.9411 83.9624C93.8325 83.5859 93.3936 83.3664 92.7076 83.5374H92.7053Z" fill="#FF9EAB"/>
<path d="M92.7444 85.0993L89.3027 85.6282L89.6146 87.0119L93.0563 86.4829C93.7885 86.3697 94.0472 86.0094 93.9594 85.6282C93.8716 85.2471 93.4466 84.9907 92.7421 85.0993H92.7444Z" fill="#FF9EAB"/>
<path d="M90.8182 82.9613C90.3932 81.8225 89.1274 81.245 87.9886 81.6677L80.1836 84.5782L82.2117 90.0133L91.2525 86.6409C91.7075 86.4699 91.9385 85.9641 91.7699 85.509L90.8182 82.959V82.9613Z" fill="#FF9EAB"/>
<path d="M89.853 79.0481C89.428 78.7571 88.2269 80.0391 87.5224 80.7297C86.9264 81.3164 86.2266 81.8454 85.9009 82.6053C85.7115 83.0465 85.6907 84.4163 87.0766 84.5987C88.0352 84.7258 89.0515 84.0074 88.6842 82.3697C88.4279 81.2356 90.8024 79.6972 89.8507 79.0481H89.853Z" fill="#FF9EAB"/>
<path d="M81.3656 82.6316C75.8589 84.3501 70.5231 85.9508 65.416 88.926L70.7333 97.0821C73.2187 95.3058 76.3832 93.846 79.3052 92.5663C82.5621 91.1504 85.7844 89.9562 89.1522 88.6187L86.4473 81.1094C84.8327 81.606 83.0934 82.1072 81.3679 82.6316H81.3656Z" fill="#FFBE00"/>
<path d="M60.433 78.8219C57.6612 79.4594 56.273 82.3537 56.7511 85.502C57.2293 88.6481 62.0292 89.9462 64.8403 89.5189C67.6514 89.0916 68.1249 87.0658 67.649 83.9198C66.8175 78.4362 63.2626 78.1705 60.433 78.8219Z" fill="#FF9EAB"/>
<path d="M53.4705 79.948C53.0709 80.4631 52.9854 81.1099 52.9138 81.6688C52.7914 82.6251 52.2855 83.392 51.3824 83.6784C51.2669 83.7154 51.253 83.8724 51.3593 83.9279C52.5581 84.5492 54.0503 84.3021 55.2791 83.9371C56.1684 83.6738 57.2818 83.1448 57.9054 82.0338C59.3607 79.4467 55.517 77.2963 53.4705 79.948Z" fill="#1373BA"/>
<path d="M64.2599 78.2136C62.4328 77.6268 60.2616 77.5991 58.55 78.7056C56.5542 79.9991 55.2561 82.2674 55.4802 84.6442L55.4848 84.7043C55.5818 86.268 56.4387 88.1991 57.5059 88.7858C58.0418 89.1461 58.8572 89.1392 58.9634 88.3654C59.0835 87.818 59.0604 87.0419 59.2591 86.3766C59.4762 85.6005 60.1253 85.2009 60.6566 84.6165C61.4119 83.7665 62.0817 83.0781 63.2783 82.4614C64.4771 81.8146 65.7752 81.9047 67.011 81.5605C67.5353 81.415 66.4982 78.9342 64.2623 78.2159L64.2599 78.2136Z" fill="#1373BA"/>
<path d="M57.8199 85.2797C56.9976 85.5246 56.6396 86.3816 57.023 87.1923C57.4065 88.0031 58.3835 88.4627 59.2082 88.2156C60.0305 87.9707 60.3885 87.1138 60.0051 86.303C59.6216 85.4923 58.6446 85.0326 57.8199 85.2797Z" fill="#FF9EAB"/>
<path d="M66.4512 83.8931C66.2224 83.9787 66.1045 84.2329 66.19 84.464C66.2755 84.6929 66.5298 84.8108 66.7609 84.7252C66.9921 84.6397 67.1076 84.3855 67.0221 84.1543C66.9366 83.9255 66.6823 83.8076 66.4512 83.8931Z" fill="#360530"/>
<path d="M65.1804 85.9583C65.1411 85.9583 65.1018 85.9375 65.081 85.9029C65.0486 85.8474 65.0648 85.7757 65.1203 85.7434C65.1526 85.7226 65.2451 85.6486 65.2543 85.5562C65.2613 85.4868 65.2243 85.4105 65.1434 85.3296C65.0972 85.2834 65.0972 85.2094 65.1434 85.1655C65.1896 85.1193 65.2636 85.1193 65.3075 85.1655C65.4416 85.2996 65.5017 85.4429 65.4832 85.5862C65.4554 85.8058 65.2613 85.9306 65.2382 85.9445C65.2197 85.956 65.1989 85.9607 65.1781 85.9607L65.1804 85.9583Z" fill="#360530"/>
<path d="M65.2311 87.5654C65.118 87.5654 65.014 87.54 64.917 87.4892C64.6144 87.3275 64.5289 86.9672 64.5266 86.9533C64.5128 86.8956 64.5451 86.8378 64.6006 86.817L65.871 86.3435C65.9287 86.3227 65.9888 86.3458 66.0165 86.399C66.0234 86.4128 66.1874 86.7385 66.065 87.0596C65.9888 87.2582 65.8225 87.4061 65.5707 87.4985C65.4529 87.5423 65.3397 87.5654 65.2335 87.5654H65.2311ZM64.7877 86.9972C64.8269 87.0873 64.9008 87.2167 65.0302 87.2859C65.1526 87.3506 65.3074 87.3506 65.4875 87.2836C65.6723 87.2143 65.7924 87.1127 65.8433 86.981C65.8964 86.8448 65.871 86.6992 65.8433 86.6068L64.7877 86.9995V86.9972Z" fill="#360530"/>
<path d="M62.6992 85.4244C62.4704 85.5099 62.3525 85.7642 62.4381 85.9953C62.5236 86.2241 62.7778 86.342 63.009 86.2565C63.2378 86.171 63.3557 85.9167 63.2702 85.6856C63.1846 85.4567 62.9304 85.3389 62.6992 85.4244Z" fill="#360530"/>
<path d="M108.66 140.006L117.766 139.888L119.396 124.146L110.15 124.267L108.66 140.006Z" fill="#FF9EAB"/>
<path d="M111.236 138.355C109.937 138.154 109.783 137.63 109.432 136.944C109.215 136.519 108.233 135.979 108.233 135.979C105.817 138.937 102.604 140.432 98.4459 141.589C96.836 142.511 95.8543 144.232 95.8774 146.086L118.022 145.805L117.927 138.404C117.927 138.404 112.106 138.489 111.233 138.353L111.236 138.355Z" fill="#1373BA"/>
<path d="M97.0116 144.463C96.9354 144.463 96.873 144.402 96.873 144.326C96.873 144.25 96.9331 144.185 97.0093 144.185L116.888 143.934C116.964 143.934 117.027 143.994 117.027 144.07C117.027 144.146 116.967 144.211 116.89 144.211L97.0116 144.463Z" fill="white"/>
<path d="M135.141 126.547C136.309 131.633 137.423 136.731 138.652 141.804C141.687 141.122 144.708 140.392 147.736 139.679C146.537 134.604 145.343 129.527 144.161 124.447C141.156 125.147 138.148 125.847 135.141 126.547Z" fill="#FF9EAB"/>
<path d="M141.16 137.905C139.218 138.088 140.019 137.441 139.044 136.737C138.439 136.3 137.104 136.372 137.083 136.367C135.448 138.605 133.783 141.123 129.211 142.511C127.287 142.791 126.712 144.83 126.629 146.235C137.707 147.189 138.892 146.554 149.046 143.789L147.277 136.621C145.681 137.032 142.463 137.783 141.158 137.908L141.16 137.905Z" fill="#1373BA"/>
<path d="M132.18 145.192C130.796 145.192 129.385 145.12 127.969 144.956C127.893 144.947 127.837 144.878 127.847 144.802C127.856 144.725 127.928 144.67 128.001 144.679C137.033 145.728 146.215 142.852 147.963 142.263C148.07 142.229 148.067 142.229 148.095 142.229C148.171 142.229 148.234 142.293 148.231 142.369C148.231 142.434 148.185 142.487 148.125 142.501C148.113 142.503 148.09 142.513 148.051 142.526C145.975 143.224 139.465 145.19 132.18 145.19V145.192Z" fill="white"/>
<path d="M137.942 69.8359L112.542 70.3418C112.475 70.4134 109.648 85.342 108.551 95.2514C107.431 105.362 104.541 125.982 104.541 125.982C104.541 125.982 126.6 132.304 148.937 123.896L141.979 101.118C139.212 79.0592 138.792 74.9916 137.944 69.8359H137.942Z" fill="#FFBE00"/>
<path d="M115.821 42.3008C115.294 44.151 114.502 45.7332 113.529 47.5534C109.115 55.3792 103.107 62.9117 96.8359 69.3747L105.066 78.2261C110.314 73.5763 114.904 68.6794 119.346 63.309C123.808 57.7145 129.463 50.3945 130.629 43.0561L115.994 41.2891C115.987 41.5801 115.913 41.9451 115.823 42.3031L115.821 42.3008Z" fill="#F8FFC4"/>
<path d="M131.508 16.2438C127.891 15.7241 126.336 21.9284 130.155 22.2425C134.696 22.6167 135.8 16.8628 131.508 16.2438Z" fill="#D043A8"/>
<path d="M131.205 29.5455L123.287 30.4238L124.416 40.5964L132.334 39.7181L131.205 29.5455Z" fill="#FF9EAB"/>
<path d="M126.171 20.2731C122.718 20.3955 119.542 21.6128 120.271 28.1798C120.69 31.9472 121.025 34.3125 124.392 33.9383C127.76 33.5641 132.881 30.5936 132.463 26.8262C132.045 23.0588 129.557 20.153 126.171 20.2731Z" fill="#FF9EAB"/>
<path d="M124.39 34.0761C124.32 34.0761 124.26 34.023 124.251 33.9514C124.242 33.8751 124.297 33.8058 124.373 33.7989C125.644 33.658 127.136 33.1452 128.464 32.3945C128.531 32.3576 128.617 32.3807 128.654 32.4476C128.691 32.5146 128.667 32.6001 128.6 32.6371C127.24 33.4062 125.711 33.9306 124.403 34.0761C124.399 34.0761 124.394 34.0761 124.387 34.0761H124.39Z" fill="#360530"/>
<path d="M129.533 19.5728C127.42 18.3162 122.317 18.7181 120.003 22.3146C118.566 24.5482 119.481 26.9713 120.615 26.3869C121.59 25.8856 122.363 23.0145 123.036 23.1323C123.599 24.1925 124.248 25.8972 127.757 25.5068C128.078 25.4722 127.967 26.634 128.198 26.8604C128.709 27.7012 129.388 27.2715 130.127 27.9599C130.27 28.0638 130.344 28.207 130.381 28.3687C130.815 28.7961 130.787 31.032 131.372 31.002C131.702 30.9858 132.263 30.2305 132.439 29.8216C134.908 24.0585 132.058 21.0672 129.538 19.5705L129.533 19.5728Z" fill="#D043A8"/>
<path d="M131.053 25.2565C130.051 25.1572 129.127 26.2082 128.988 27.6056C128.85 29.0031 129.55 30.2158 130.552 30.3151C131.554 30.4144 132.478 29.3634 132.617 27.966C132.756 26.5685 132.056 25.3558 131.053 25.2565Z" fill="#FF9EAB"/>
<path d="M130.346 28.1445C130.321 28.1445 130.296 28.1376 130.272 28.1237C130.208 28.0821 130.187 27.9966 130.229 27.9319C130.658 27.2477 131.232 27.0951 131.257 27.0882C131.333 27.0697 131.407 27.1136 131.426 27.1876C131.444 27.2616 131.4 27.3378 131.326 27.3563C131.32 27.3563 130.832 27.4927 130.464 28.0775C130.439 28.1191 130.393 28.1422 130.346 28.1422V28.1445Z" fill="#360530"/>
<path d="M125.8 27.0263C125.511 27.0586 125.305 27.3614 125.345 27.7012C125.382 28.041 125.647 28.2906 125.939 28.2582C126.228 28.2259 126.433 27.9231 126.394 27.5833C126.357 27.2435 126.091 26.9939 125.8 27.0263Z" fill="#360530"/>
<path d="M121.499 27.5048C121.21 27.5371 121.005 27.8399 121.044 28.1797C121.081 28.5195 121.347 28.7691 121.638 28.7368C121.927 28.7044 122.133 28.4016 122.093 28.0618C122.056 27.722 121.79 27.4724 121.499 27.5048Z" fill="#360530"/>
<path d="M123.349 29.4616C123.349 29.4616 123.342 29.4616 123.338 29.4616C123.308 29.4593 123.031 29.4316 122.885 29.2121C122.79 29.0689 122.776 28.8864 122.848 28.6716C122.92 28.4522 123.088 28.1126 123.095 28.0988C123.13 28.0295 123.213 28.0018 123.282 28.0364C123.352 28.071 123.379 28.1542 123.345 28.2235C123.345 28.2258 123.178 28.5584 123.111 28.7594C123.07 28.8887 123.07 28.9904 123.116 29.0597C123.176 29.1521 123.312 29.1821 123.361 29.1867C123.437 29.1936 123.495 29.2606 123.488 29.3369C123.481 29.4085 123.421 29.4639 123.349 29.4639V29.4616Z" fill="#360530"/>
<path d="M123.743 31.4522C123.499 31.4522 123.295 31.3806 123.14 31.2397C122.838 30.9649 122.838 30.5306 122.838 30.5121C122.838 30.4428 122.891 30.3828 122.963 30.3758L124.566 30.198C124.635 30.1911 124.7 30.2349 124.716 30.3042C124.72 30.3227 124.822 30.75 124.586 31.085C124.443 31.2905 124.212 31.4107 123.9 31.4453C123.847 31.4522 123.794 31.4545 123.743 31.4545V31.4522ZM123.129 30.6369C123.15 30.75 123.201 30.9187 123.33 31.0365C123.457 31.1496 123.639 31.1935 123.873 31.1681C124.101 31.1427 124.265 31.0619 124.36 30.9256C124.459 30.7824 124.471 30.6045 124.462 30.489L123.129 30.6369Z" fill="#360530"/>
<path d="M131.309 35.0082L122.164 35.8097C115.798 37.8031 113.086 44.9221 112.735 47.7794L110.479 71.3839C110.479 71.3839 114.971 74.1904 129.447 73.3519C136.956 72.9176 141.574 71.9775 142.715 70.4646L142.082 43.9543C141.791 40.0575 139.652 35.0059 131.307 35.0059L131.309 35.0082Z" fill="#F8FFC4"/>
<path d="M139.777 98.4194C139.744 98.4194 139.714 98.4194 139.682 98.4194C138.037 98.3916 136.513 97.6109 135.393 96.2273C134.312 94.8922 133.737 93.1436 133.769 91.305C133.801 89.464 134.439 87.7386 135.566 86.4427C136.735 85.0984 138.285 84.3754 139.929 84.4031C141.574 84.4308 143.098 85.2093 144.219 86.5952C145.3 87.9303 145.875 89.6788 145.843 91.5175C145.81 93.3584 145.173 95.0839 144.045 96.3798C142.9 97.6987 141.387 98.4217 139.775 98.4217L139.777 98.4194ZM139.835 86.3619C138.8 86.3619 137.811 86.8446 137.044 87.727C136.22 88.674 135.753 89.9583 135.73 91.3373C135.707 92.7163 136.127 94.0145 136.917 94.9915C137.668 95.9178 138.661 96.4375 139.717 96.456C139.735 96.456 139.756 96.456 139.775 96.456C140.809 96.456 141.798 95.9732 142.565 95.0908C143.389 94.1438 143.856 92.8595 143.879 91.4805C143.902 90.1015 143.482 88.8034 142.692 87.8263C141.941 86.9001 140.948 86.3804 139.892 86.3619C139.874 86.3619 139.853 86.3619 139.835 86.3619Z" fill="#FF3F31"/>
<path d="M126.982 110.044C127.118 111.806 128.594 113.162 130.359 113.148L149.051 113.005C150.799 112.991 152.245 111.64 152.377 109.896L153.802 91.082L125.529 91.2183L126.98 110.044H126.982Z" fill="#FF3F31"/>
<path d="M136.616 86.6677C136.196 87.6494 136.401 88.3285 136.919 88.5502C137.436 88.772 138.051 88.4925 138.489 87.4669L141.134 81.2742L139.261 80.4727L136.616 86.6654V86.6677Z" fill="#FF9EAB"/>
<path d="M138.327 87.8461C137.907 88.8278 138.112 89.5069 138.63 89.7287C139.147 89.9504 139.761 89.6709 140.2 88.6453L142.291 83.7507L140.417 82.9492L138.327 87.8438V87.8461Z" fill="#FF9EAB"/>
<path d="M140.337 88.3319C139.916 89.3136 140.122 89.9927 140.639 90.2144C141.157 90.4362 141.771 90.1567 142.21 89.1311L143.942 85.075L142.069 84.2734L140.337 88.3296V88.3319Z" fill="#FF9EAB"/>
<path d="M142.39 88.7063C141.969 89.688 142.175 90.3671 142.692 90.5889C143.21 90.8106 143.824 90.5311 144.263 89.5055L146.319 84.6941L144.445 83.8926L142.39 88.704V88.7063Z" fill="#FF9EAB"/>
<path d="M137.67 83.4699C136.977 85.0938 137.73 86.974 139.356 87.6693L142.996 89.2238C143.645 89.501 144.398 89.2007 144.675 88.5493L149.593 77.0393L141.834 73.7246L137.672 83.4699H137.67Z" fill="#FF9EAB"/>
<path d="M140.776 78.615C138.967 78.9569 137.588 79.9155 136.653 82.0359C135.888 83.7729 136.81 85.5053 137.66 85.6716C139.554 86.0389 138.242 82.7335 140.106 82.8767C143.065 83.1008 144.125 82.6619 144.18 80.911C144.261 78.3817 141.824 78.4187 140.776 78.6173V78.615Z" fill="#FF9EAB"/>
<path d="M138.714 81.7589C138.645 81.7288 138.561 81.7635 138.531 81.8351L137.252 84.8333C137.222 84.9049 137.252 84.9881 137.323 85.0181C137.393 85.0481 137.476 85.0135 137.506 84.9419L138.786 81.9437C138.816 81.8721 138.786 81.7889 138.714 81.7589Z" fill="#360530"/>
<path d="M134.95 35.7484L133.322 50.3999C132.987 50.3537 132.733 50.2636 132.566 50.1851C132.622 50.2336 132.677 50.2844 132.721 50.3236C134.618 52.3633 135.722 55.0658 136.699 57.7545C138.644 63.5245 139.618 69.9529 138.683 75.9331C138.45 77.3236 138.094 78.6195 137.62 79.7236L148.504 84.9785C152.378 77.0903 152.434 68.1974 151.156 59.7548C149.68 50.945 145.421 37.2105 134.95 35.7461V35.7484Z" fill="#F8FFC4"/>
<path d="M132.478 50.1465C132.501 50.158 132.534 50.1719 132.561 50.1858C132.46 50.098 132.351 50.0124 132.293 50.0032C132.263 49.9916 132.316 50.0633 132.476 50.1465H132.478Z" fill="#4D9496"/>
<path d="M138.932 70.4802C138.856 70.4802 138.794 70.4156 138.796 70.3393C138.796 70.2238 138.937 58.7831 137.81 53.8492C137.794 53.7753 137.84 53.6991 137.914 53.6829C137.988 53.6667 138.064 53.7129 138.08 53.7869C139.214 58.7531 139.076 70.2285 139.076 70.344C139.076 70.4202 139.013 70.4802 138.937 70.4802H138.932Z" fill="#FFFFED"/>
<path d="M131.309 35.0092C123.092 49.9541 138.938 72.1865 138.938 72.1865C139.673 63.4252 137.94 53.3981 137.94 53.3981C136.582 37.9613 143.144 40.1764 143.144 40.1764C138.869 34.7783 131.309 35.0092 131.309 35.0092Z" fill="#F8FFC4"/>
</svg>
