<svg preserveAspectRatio="none" width="100%" height="100%" overflow="visible" style="display: block;" viewBox="0 0 113.861 115.615" fill="none" xmlns="http://www.w3.org/2000/svg">
<g id="Group">
<path id="Vector" fill-rule="evenodd" clip-rule="evenodd" d="M113.822 3.3329C113.738 3.32348 113.653 3.31407 113.568 3.29524C113.587 3.12577 113.596 2.96571 113.615 2.79625C113.53 2.78683 113.446 2.77742 113.361 2.75859C113.314 2.33491 113.267 1.90182 113.22 1.47815C112.429 1.17687 112.099 0.546068 111.506 0.235374C110.461 0.178884 109.426 0.13181 108.38 0.0753197C108.38 0.160054 108.362 0.244789 108.352 0.329524C108.183 0.310694 108.004 0.282449 107.834 0.263619C107.834 0.348354 107.816 0.433088 107.806 0.517823C107.015 0.583728 106.224 0.649633 105.434 0.706123C105.434 0.790857 105.415 0.875592 105.405 0.960327C105.236 0.941497 105.057 0.913252 104.888 0.894422C104.69 1.12038 104.492 1.34634 104.294 1.5723C104.04 1.53464 103.777 1.50639 103.522 1.46873C103.419 1.61937 103.315 1.77943 103.212 1.93007C103.127 1.92065 103.042 1.91124 102.957 1.89241C102.939 2.06188 102.929 2.22193 102.91 2.3914C102.75 2.28784 102.581 2.17486 102.421 2.07129C101.253 2.41965 100.086 2.77742 98.9184 3.12577C98.8996 3.29524 98.8902 3.45529 98.8714 3.62476C98.7866 3.61535 98.7019 3.60593 98.6171 3.5871C98.5795 3.07869 98.5418 2.56087 98.5042 2.05246C98.3441 1.9489 98.1746 1.83592 98.0146 1.73235C97.9487 1.46873 97.8922 1.20512 97.8263 0.950912C97.4874 0.819102 97.1578 0.696708 96.8189 0.564898C96.8189 0.480163 96.8377 0.395429 96.8471 0.310694C96.4988 0.348354 96.141 0.386014 95.7927 0.423674C95.7927 0.338939 95.8115 0.254204 95.8209 0.169469C95.3878 0.11298 94.9641 0.0564898 94.5311 0C94.4275 0.150639 94.3239 0.310694 94.2204 0.461333C94.0509 0.442503 93.872 0.414259 93.7025 0.395429C93.5048 0.621388 93.3071 0.847347 93.1094 1.07331C93.0247 1.06389 92.9399 1.05448 92.8552 1.03565C92.8364 1.20512 92.8269 1.36517 92.8081 1.53464C92.6292 1.59113 92.4503 1.65703 92.2715 1.71352C92.2526 1.88299 92.2432 2.04305 92.2244 2.21252C92.1397 2.2031 92.0549 2.19369 91.9702 2.17486C91.9514 2.34433 91.9419 2.50438 91.9231 2.67385C91.8384 2.66444 91.7536 2.65502 91.6689 2.63619C91.6501 2.80566 91.6407 2.96571 91.6218 3.13518C91.5371 3.12577 91.4524 3.11635 91.3676 3.09752C91.3394 3.42705 91.3017 3.76599 91.2735 4.09551C91.1887 4.0861 91.104 4.07668 91.0193 4.05785C90.991 4.31205 90.9722 4.55684 90.944 4.81105C90.8592 4.80163 90.7745 4.79222 90.6898 4.77339C90.5674 5.0935 90.4544 5.41361 90.332 5.74313C90.2472 5.73371 90.1625 5.7243 90.0778 5.70547C89.993 6.53399 89.9177 7.37192 89.833 8.20044C89.7483 8.19102 89.6635 8.18161 89.5788 8.16278C89.6259 8.58645 89.6729 9.01954 89.72 9.44321C89.6353 9.4338 89.5505 9.42438 89.4658 9.40555C89.4187 10.7519 89.3811 12.0982 89.334 13.4352C89.2022 14.7721 89.0798 16.0996 88.948 17.4365C89.108 17.5401 89.2775 17.6531 89.4376 17.7566C89.5223 18.1615 89.1363 18.2085 89.1269 18.218C89.1739 18.6416 89.221 19.0747 89.2681 19.4984C89.4376 19.5172 89.6164 19.5455 89.7859 19.5643C89.8424 21.3155 90.7745 20.7318 91.3959 21.8051C93.213 22.0687 94.2957 22.6336 95.482 22.8501C95.482 22.7654 95.5008 22.6807 95.5102 22.5959C95.6797 22.6148 95.8586 22.643 96.028 22.6618C96.2257 22.4359 96.4235 22.2099 96.6212 21.9839C97.139 22.0499 97.6568 22.1252 98.1746 22.1911C98.1746 22.1063 98.1935 22.0216 98.2029 21.9369C98.7395 21.6638 98.8431 21.4473 99.5681 21.3626C99.7846 20.8824 100.011 20.4116 100.227 19.9315C100.5 19.7997 100.773 19.6679 101.046 19.5361C101.074 19.2065 101.112 18.8676 101.14 18.5381C101.319 18.4816 101.498 18.4157 101.677 18.3592C101.828 17.7001 101.978 17.0505 102.129 16.3915C102.393 16.3444 102.666 16.2973 102.929 16.2408C103.259 16.0243 103.419 15.5065 103.569 15.0639C104.351 15.0922 104.436 15.0169 104.906 14.7344C104.906 14.6497 104.925 14.565 104.935 14.4802C105.104 14.499 105.283 14.5273 105.452 14.5461C105.452 14.4614 105.471 14.3767 105.481 14.2919C105.886 14.0001 105.848 14.2166 106.074 13.614C107.42 13.454 106.818 12.9927 107.514 12.2865C107.778 12.2395 108.051 12.1924 108.315 12.1359C108.898 11.5333 109.473 10.9402 110.056 10.3376C110.141 10.347 110.226 10.3565 110.311 10.3753C110.245 10.1117 110.188 9.84806 110.122 9.59385C110.292 9.61268 110.471 9.64093 110.64 9.65976C110.64 9.57502 110.659 9.49029 110.668 9.40555C110.847 9.34906 111.026 9.28316 111.205 9.22667C111.224 9.0572 111.233 8.89714 111.252 8.72767C111.525 8.59587 111.798 8.46406 112.071 8.33225C112.099 8.00272 112.137 7.66378 112.165 7.33426C112.344 7.27777 112.523 7.21186 112.702 7.15537C112.721 6.98591 112.73 6.82585 112.749 6.65638C112.834 6.6658 112.918 6.67521 113.003 6.69404C113.041 6.27978 113.088 5.86552 113.126 5.44185C113.21 5.45127 113.295 5.46068 113.38 5.47951C113.399 5.31004 113.408 5.14999 113.427 4.98052C113.512 4.98993 113.596 4.99935 113.681 5.01818C113.672 4.66041 113.333 4.34971 113.54 3.73774C113.559 3.67184 113.926 3.71891 113.851 3.27641L113.822 3.3329Z" fill="var(--fill-0, #F2997F)"/>
<path id="Vector_2" fill-rule="evenodd" clip-rule="evenodd" d="M102.835 21.0614C102.628 20.7507 102.43 20.4494 102.223 20.1387H100.688C100.585 19.9316 100.481 19.7339 100.378 19.5267H99.1537V19.216H97.6191V18.9054H96.0844V18.5947H93.3259C93.2223 18.3875 93.1187 18.1898 93.0152 17.9827H92.0925V17.672H91.7818C91.3581 17.7756 91.8854 18.1051 91.4711 17.9827V17.672H89.9365V17.3613C89.1174 17.2577 88.2983 17.1542 87.4886 17.0506V17.3613C86.5659 17.4178 86.227 17.2671 85.9539 17.9733V18.8959C85.6432 19.1031 85.342 19.3008 85.0313 19.5079C85.1348 19.8186 85.2384 20.1199 85.342 20.4306C85.1348 20.5341 84.9371 20.6377 84.73 20.7413V21.3532H84.4193V22.8879C84.2122 22.9914 84.0144 23.095 83.8073 23.1986C83.7038 23.9141 83.6002 24.6297 83.4966 25.3452H83.1859V25.9572H82.8752V27.7931C82.5645 28.0002 82.2633 28.1979 81.9526 28.4051V29.9397C81.7454 30.0433 81.5477 30.1468 81.3406 30.2504V31.4743H81.0299V32.0863H80.7192C80.5215 32.6324 81.1241 33.1784 81.0299 33.3103C80.7192 33.4138 80.4179 33.5174 80.1072 33.6209V34.8449H79.7965V35.4569H79.4858V36.6808C79.2787 36.7844 79.081 36.8879 78.8739 36.9915V38.2154C78.6667 38.319 78.469 38.4226 78.2619 38.5261C78.1583 39.0346 78.0548 39.543 77.9512 40.0608H77.6405V40.6728H77.3298C77.4334 40.9834 77.5369 41.2847 77.6405 41.5954C77.4334 41.699 77.2357 41.8026 77.0285 41.9061V42.8288H76.7179C76.5107 43.4408 76.313 44.0527 76.1059 44.6647H75.7952C75.6916 45.3802 75.5881 46.0958 75.4845 46.8113C75.155 47.5551 74.4583 47.9976 74.2605 48.9579C72.8295 48.8544 71.3984 48.7508 69.9673 48.6472V48.3365L68.7434 48.0258V48.3365H68.1314V48.6472C67.6512 48.7226 67.7454 48.1482 67.5194 48.0353C66.6532 47.5928 66.6533 48.1106 66.2955 48.0353V47.7246H65.3728V47.4139C64.9021 47.3009 64.7608 47.7151 64.7608 47.7246C64.083 47.8093 64.1489 47.4139 64.1489 47.4139H62.6142C62.5107 47.2067 62.4071 47.009 62.3035 46.8019H61.3809V46.4912C61.0702 46.5948 60.7689 46.6983 60.4582 46.8019V46.4912H59.8462V46.1805C59.1307 46.0769 58.4152 45.9734 57.6996 45.8698V45.5591H57.0876C56.8805 45.2484 56.6828 44.9471 56.4757 44.6365H55.553V44.3258H54.941V44.0151H53.4064C53.3028 43.8079 53.1993 43.6102 53.0957 43.4031C52.8886 43.5067 52.6909 43.6102 52.4837 43.7138V43.4031C50.8455 43.2995 49.2167 43.196 47.5785 43.0924V43.4031H46.3546V43.7138H46.0439V43.4031H42.984V43.7138H42.6733V43.4031C41.8542 43.5067 41.0351 43.6102 40.2254 43.7138V44.0245L39.6135 43.7138V44.0245H37.4669C37.3633 44.2316 37.2597 44.4293 37.1562 44.6365C36.6478 44.5329 36.1394 44.4293 35.6215 44.3258V44.6365H33.7856V44.9472C33.5596 44.9848 32.9853 44.4293 32.251 44.6365V44.9472H30.415V45.2578C30.1044 45.1543 29.8031 45.0507 29.4924 44.9472C29.3888 45.1543 29.2853 45.352 29.1817 45.5591C28.5697 45.6627 27.9577 45.7663 27.3458 45.8698V46.1805H26.7338V46.4912C25.717 46.6983 24.6907 46.896 23.6739 47.1032V47.4139C23.2691 47.5174 22.8548 47.621 22.45 47.7246V48.0353C21.9039 48.4683 21.725 48.7508 20.9153 48.9579V49.5699C20.0774 49.8053 20.2186 49.6452 19.9927 50.4926C19.1265 50.7185 19.1171 51.0386 18.458 51.4152V52.3379H17.5354C17.027 54.1832 14.9651 54.4657 14.4755 56.3204C13.2516 56.6688 14.0895 56.424 13.5528 57.2431H13.2422V57.8551C12.9315 57.9586 12.6302 58.0622 12.3195 58.1658C11.8111 58.8813 11.3027 59.5968 10.7848 60.3124H10.1729C9.79627 61.6587 8.68531 61.9506 8.33695 63.3722C6.82114 63.7583 7.48961 64.2102 6.80231 65.2082C6.59518 65.3117 6.39747 65.4153 6.19034 65.5189C5.63486 66.1402 5.14528 66.997 4.96639 67.9667H4.35442C3.98724 68.1833 3.97782 69.1342 3.74245 69.5014L3.13048 69.8121V70.424L2.5185 70.7347V71.6574H2.20781V72.8814C1.89712 73.0885 1.59584 73.2862 1.28514 73.4933V74.1053H0.974449V75.6399H0.663755V76.2519H0.353061L0.0423673 78.3985H0.353061C0.305986 78.8222 -0.136517 78.8975 0.0423673 79.6225H0.353061V79.9332H0.221252V82.0798H0.531946C0.428381 82.5882 0.324816 83.0966 0.221252 83.6144C0.428381 83.718 0.626095 83.8215 0.833224 83.9251L0.522531 84.2358C0.626095 84.9513 0.72966 85.6669 0.833224 86.3824H1.14392V87.6064C2.16073 88.529 3.18697 89.4423 4.20378 90.3649C5.12645 90.5721 6.0397 90.7698 6.96237 90.9769V91.2876H7.57434V91.5983H8.49701V91.909H10.0316V92.2197C11.6699 92.4268 13.2986 92.6245 14.9368 92.8317V92.521H15.2475C15.4547 94.6676 15.6524 96.8142 15.8595 98.9514V101.399C16.4338 103.358 16.4432 105.25 17.0835 107.528V109.063H16.7728L17.0835 111.822C17.3941 112.029 17.6954 112.226 18.0061 112.434V113.968H18.3168C18.4204 114.279 18.5239 114.58 18.6275 114.891C19.1359 114.994 19.6443 115.098 20.1621 115.202V115.512C21.3484 115.889 23.1655 115.098 23.834 115.202V115.512H27.2045V115.202H28.7392V114.891C29.1064 114.863 29.5206 115.409 30.2738 115.202V114.891H31.4978V114.58H36.0923V114.27H38.5402V113.959H39.1521V113.648H40.3761V113.959C41.9107 113.855 43.4359 113.752 44.9706 113.648V113.337C46.5052 113.234 48.0305 113.13 49.5651 113.027C49.7722 113.13 49.9699 113.234 50.1771 113.337V113.027H51.7117V112.716L53.8583 113.027V112.716H60.9007C61.5127 112.613 62.1246 112.509 62.7366 112.405C63.857 112.509 64.9868 112.613 66.1072 112.716V112.405H67.6418C67.8301 112.321 67.6607 112.001 68.5645 111.793C68.7716 110.739 69.7037 108.47 69.4872 107.199H69.1765C69.28 106.992 69.3836 106.794 69.4872 106.587C69.4589 106.144 69.0352 106.097 69.1765 105.363C69.1765 105.363 69.619 105.175 69.4872 104.44C69.4872 104.44 69.0917 104.384 69.1765 103.828C69.1765 103.828 69.5813 103.593 69.4872 102.906H69.1765V102.595H69.4872C69.3836 101.578 69.28 100.552 69.1765 99.5351H69.4872V93.7167H69.7978C69.892 93.1141 69.1482 90.9393 69.4872 89.7341H69.7978V85.1396H70.1085V84.829C70.0803 84.5277 69.5531 84.9325 69.4966 84.217C69.7037 84.1134 69.9014 84.0098 70.1085 83.9063C70.3816 83.1531 69.7884 81.948 69.7978 81.7597H70.1085V79.3118H70.4192C70.8053 77.9654 70.1933 75.913 70.1085 75.0186H70.4192V74.4066H70.7299C71.05 73.4274 70.2968 72.9473 70.4192 72.26H70.7299V70.7253H71.0406C71.1536 70.2263 70.7488 70.1698 70.7299 70.1134V69.8027H71.0406C70.9371 69.3978 70.8335 68.9836 70.7299 68.5787C72.4905 67.9479 75.9552 68.4751 77.7723 67.9667H80.2202C81.9526 67.3548 83.6943 66.7428 85.4267 66.1308C85.6338 65.8201 85.8315 65.5188 86.0387 65.2082H86.6506C86.7542 65.001 86.8578 64.8033 86.9613 64.5962H87.5733C87.6769 64.2855 87.7804 63.9842 87.884 63.6735C88.1947 63.4664 88.496 63.2687 88.8067 63.0615C89.8047 62.0447 90.9062 60.7078 91.2546 59.079H91.8665C91.9701 58.5706 92.0737 58.0622 92.1772 57.5444C92.4879 57.3372 92.7892 57.1395 93.0999 56.9324V56.0097C93.307 55.9062 93.5047 55.8026 93.7119 55.699V54.4751C94.0226 54.268 94.3238 54.0703 94.6345 53.8631C94.7381 53.3547 94.8417 52.8463 94.9452 52.3285C95.1524 52.2249 95.3501 52.1214 95.5572 52.0178V50.7938C95.7643 50.6903 95.962 50.5867 96.1692 50.4831C96.3763 49.5605 96.574 48.6472 96.7811 47.7246C96.9883 47.621 97.186 47.5174 97.3931 47.4139V46.8019H97.7038V46.1899H98.0145V44.966C98.2216 44.8624 98.4193 44.7589 98.6265 44.6553C98.73 43.9397 98.8336 43.2242 98.9372 42.5087C99.1443 42.4051 99.342 42.3015 99.5491 42.198V40.974H99.8598V40.3621H100.171C100.274 39.7501 100.378 39.1381 100.481 38.5261H100.792V36.9915H101.103V36.0688H101.413V34.8449H101.724V34.2329H102.035C101.931 33.7245 101.828 33.2161 101.724 32.6983C101.931 32.5947 102.129 32.4912 102.336 32.3876V31.7756H102.647C102.75 30.8529 102.854 29.9397 102.957 29.017H103.268V27.4824H103.579V26.5597H103.889V25.0251H104.2C104.097 23.8011 103.993 22.5772 103.889 21.3532C103.579 21.2497 103.277 21.1461 102.967 21.0426L102.835 21.0614Z" fill="var(--fill-0, black)"/>
<path id="Vector_3" fill-rule="evenodd" clip-rule="evenodd" d="M43.21 45.9826C43.3607 45.9073 43.5113 45.832 43.6714 45.7567V44.8434C43.822 44.7681 43.9727 44.6928 44.1327 44.6175V44.1561H44.3587V40.4843C44.5846 40.409 44.82 40.3337 45.046 40.2583C45.1213 39.7217 45.1966 39.185 45.2719 38.6484H45.046V38.4224H45.2719C45.6109 37.1891 46.317 37.5374 46.8819 36.8125C46.9572 36.5865 47.0325 36.3511 47.1078 36.1252H47.7951C48.0211 35.7392 48.2565 35.3626 48.4824 34.9765C48.7084 34.9012 48.9438 34.8259 49.1697 34.7506V33.602C49.3957 33.4513 49.6311 33.3007 49.857 33.1406V32.4533H50.083V31.992H50.3089V30.382H50.5349V30.1561C50.4596 30.0431 50.1112 29.9678 50.3089 29.4688C50.4596 29.3935 50.6102 29.3182 50.7703 29.2428V27.8682H50.5443C50.469 27.3693 51.1092 26.5501 50.7703 25.8064C50.5443 25.6557 50.3089 25.5051 50.083 25.345C50.1583 24.959 50.2336 24.5824 50.3089 24.1964C50.0076 23.9704 49.697 23.7351 49.3957 23.5091C49.3204 22.8971 49.245 22.2852 49.1697 21.6732H48.9438C48.8684 21.3719 48.7931 21.0612 48.7178 20.7599C48.5672 20.6846 48.4165 20.6093 48.2565 20.534C48.0305 20.2233 47.7951 19.922 47.5692 19.6113C47.4185 19.536 47.2679 19.4607 47.1078 19.3854V18.6981C46.9666 18.4062 47.0043 18.764 46.8819 18.4721C46.4959 18.3968 46.1193 18.3215 45.7333 18.2462V17.7848C45.3472 17.5589 44.9706 17.3235 44.5846 17.0975V17.3235H44.3587C44.2833 17.1728 44.208 17.0128 44.1327 16.8621H43.2195V16.6362H42.7581V16.4102H40.9222V16.1843C40.4609 16.1843 40.2349 16.8904 39.5476 16.6456C39.4723 16.495 39.397 16.3349 39.3217 16.1843C38.173 16.3349 37.0244 16.4856 35.8758 16.6456C35.8005 16.7962 35.7251 16.9469 35.6498 17.1069H34.7366V17.3329C34.0493 17.5589 33.362 17.7942 32.6747 18.0202C32.5994 18.2462 32.5241 18.4815 32.4487 18.7075H31.7614C30.9988 19.3195 30.2362 19.9314 29.4642 20.5434V21.2307C29.2382 21.306 29.0029 21.3813 28.7769 21.4567C28.6263 21.6826 28.4756 21.918 28.3156 22.1439H27.8542C27.6848 22.7559 27.4871 22.8595 27.1669 23.2926H26.941C26.8657 23.6786 26.7903 24.0552 26.715 24.4412C26.4137 24.6672 26.103 24.9025 25.8018 25.1285V26.5031C25.6511 26.5784 25.4911 26.6537 25.3404 26.729V27.4163H25.1145V28.1036H24.8885C24.9638 28.8662 25.0392 29.6288 25.1145 30.4009C25.0674 31.1258 24.8038 31.5683 25.1145 32.4627H25.3404V33.15H25.5664V33.8373H25.7924V34.2987H26.0183V34.986C26.169 35.0613 26.3196 35.1366 26.4796 35.2119C26.555 35.5226 26.6303 35.8239 26.7056 36.1346C27.0069 36.3605 27.3176 36.5959 27.6189 36.8219V37.2832C27.7695 37.3585 27.9201 37.4339 28.0802 37.5092V37.9705H28.3062V38.4318C28.5321 38.5072 28.7675 38.5825 28.9934 38.6578C29.0688 38.8838 29.1441 39.1191 29.2194 39.3451C29.4454 39.4204 29.6807 39.4957 29.9067 39.571V39.797H30.1327C30.208 40.023 30.2833 40.2583 30.3586 40.4843H30.5846V41.1716H30.8105C31.0647 41.5294 31.1306 41.567 31.2719 42.0943H31.7332C31.8838 43.1676 32.0345 44.2315 32.1945 45.3048C32.3452 45.3801 32.4958 45.4554 32.6559 45.5307V46.218H32.8818V47.3666H33.1078C33.4656 47.9974 34.1434 48.5623 34.9437 48.7412C35.2073 48.986 37.2033 49.4473 37.9282 49.2026V48.9766H38.3896V48.7506H39.7642V48.5247H40.6774V48.2987H41.1387C41.2141 48.1481 41.2894 47.9974 41.3647 47.8374C41.5907 47.7621 41.826 47.6867 42.052 47.6114V47.3855C42.3909 47.1124 42.4568 47.0654 42.9653 46.9241C43.0406 46.6229 43.1159 46.3122 43.1912 46.0109L43.21 45.9826Z" fill="var(--fill-0, #F2997F)"/>
<path id="Vector_4" fill-rule="evenodd" clip-rule="evenodd" d="M46.2228 17.8695V17.2576C45.5544 17.1164 45.3566 17.0599 44.9989 16.6456H44.6882C44.5846 16.0336 44.4811 15.4217 44.3775 14.8097C43.0971 14.6402 43.2383 14.3201 41.9296 13.887V13.5763C41.6189 13.6799 41.3176 13.7835 41.0069 13.887C40.9034 13.6799 40.7998 13.4822 40.6962 13.275C39.9995 13.0114 39.8583 13.6234 39.4723 13.5857V13.275H38.8603V12.9644C38.1165 12.7196 37.2598 13.2939 37.0244 13.275V12.9644H36.4124V12.6537C36.1017 12.7572 35.8004 12.8608 35.4898 12.9644C33.7574 13.0679 32.0156 13.1715 30.2833 13.275V13.5857C29.596 13.8776 29.1064 13.8494 28.1367 13.8964V14.5084H27.826V14.1977C27.1575 14.273 26.7527 14.5084 26.2913 14.8097V15.1204H25.3687V15.4311C25.058 15.5346 24.7567 15.6382 24.446 15.7418C24.3424 15.9489 24.2389 16.1466 24.1353 16.3537H22.9114C22.8078 16.5609 22.7042 16.7586 22.6007 16.9657H21.9887V17.2764C21.678 17.4835 21.3767 17.6813 21.066 17.8884V18.811C19.8515 19.0841 19.5785 19.5642 18.9194 20.3457H18.6087V20.9577C18.298 21.1648 17.9967 21.3625 17.6861 21.5696V22.1816H17.3754C16.8387 23.029 17.6672 22.7277 16.4527 23.1043C16.3491 23.5091 16.2456 23.9234 16.142 24.3282H15.8313V25.2509C15.6242 25.3544 15.4265 25.458 15.2193 25.5616V26.1736H14.9086V26.7855H14.5979V27.7082H14.2873V28.6309H13.9766V30.1655H13.6659V30.7775H13.3552V32.0014H13.0445C13.148 32.3121 13.2516 32.6134 13.3552 32.9241H13.0445C12.4702 35.6356 13.7412 38.3377 13.9671 39.6652H14.5791C14.6827 40.2772 14.7862 40.8891 14.8898 41.5011H15.5018V42.4238C15.8125 42.5273 16.1138 42.6309 16.4244 42.7345C16.6316 43.0452 16.8293 43.3464 17.0364 43.6571L19.4843 43.9678C19.6914 44.2785 19.8892 44.5798 20.0963 44.8905C20.9625 45.2953 22.45 44.5233 22.8549 44.5798V44.8905H24.6908V44.5798C24.8979 44.6834 25.0956 44.7869 25.3028 44.8905V44.5798H27.4494V44.2691H28.984V43.9584H30.5187V43.6477H31.7426V43.337H33.2772V43.0263H33.8892V42.7156C34.3976 42.6121 34.906 42.5085 35.4238 42.405C35.8287 41.793 36.243 41.181 36.6478 40.569H36.9585C36.8455 40.3337 36.7796 39.5428 36.6478 39.3451H36.3371C36.1017 38.5072 36.2618 38.6484 35.4144 38.4224C35.2638 37.2456 35.0378 37.5657 34.8025 36.5865H34.1905C34.0869 36.0781 33.9834 35.5697 33.8798 35.0519H33.2678C33.2113 34.261 33.2396 33.988 32.9571 33.5172H32.6464V32.2933H32.3357V31.0693H32.025V28.3107H31.7144C31.8179 28.0001 31.9215 27.6988 32.025 27.3881H32.3357V26.4654H32.6464V24.0175H32.9571V23.0949H33.2678V22.1722C33.475 22.0686 33.6727 21.9651 33.8798 21.8615V21.2495C34.5953 20.6375 35.3109 20.0256 36.0264 19.4136V19.1029C36.6384 18.9993 37.2504 18.8958 37.8623 18.7922C37.9659 18.5851 38.0695 18.3874 38.173 18.1802H39.0957C39.1993 17.9731 39.3028 17.7754 39.4064 17.5683C39.6135 17.6718 39.8112 17.7754 40.0184 17.879C40.1219 17.6718 40.2255 17.4741 40.329 17.267C41.167 17.0316 41.0069 17.7754 41.2517 17.879H42.1744V18.1897C43.5019 18.0861 44.8294 17.9825 46.1569 17.879L46.2228 17.8695Z" fill="var(--fill-0, #979C9F)"/>
<path id="Vector_5" fill-rule="evenodd" clip-rule="evenodd" d="M26.9596 85.328C27.8258 85.3845 28.3813 85.0173 28.9462 84.5465L29.1156 84.0287C29.8218 83.5485 30.0854 84.3676 30.848 83.1625C31.5259 83.332 31.7612 83.4638 32.232 83.332C32.2602 83.2473 32.2885 83.1625 32.3167 83.0684C32.4862 83.1249 32.6651 83.1814 32.8345 83.2378C32.9758 83.0966 33.1264 82.946 33.2676 82.8048C33.7007 82.946 34.1338 83.0872 34.5669 83.2378C34.7081 83.0966 34.8588 82.946 35 82.8048C35.3766 82.833 35.7532 82.8612 36.1298 82.8895C36.544 82.2775 36.8171 82.1834 37.3443 81.8444C37.4291 81.8727 37.5138 81.9009 37.6079 81.9292C37.6644 81.7597 37.7209 81.5808 37.7774 81.4113C37.9751 81.3831 38.1822 81.3548 38.38 81.3266C38.8319 80.8276 38.4176 80.1874 38.5494 79.9426C38.6342 79.9708 38.7189 79.9991 38.8131 80.0273C38.8695 79.8579 38.926 79.679 38.9825 79.5095C39.1802 79.4813 39.3874 79.453 39.5851 79.4248C39.8393 78.6433 40.1029 77.8619 40.3571 77.0805C40.2724 77.0522 40.1876 77.024 40.0935 76.9957C40.3477 76.5061 40.6113 76.0166 40.8655 75.5176C40.7808 75.4893 40.696 75.4611 40.6019 75.4328C40.7149 74.7926 40.8279 74.1618 40.9408 73.5216C40.8561 73.4933 40.7714 73.4651 40.6772 73.4369C40.7337 73.2674 40.7902 73.0885 40.8467 72.919C40.7619 72.8908 40.6772 72.8625 40.5831 72.8343C40.5831 72.5424 40.5831 72.26 40.5831 71.9681C40.3477 71.7987 40.1217 71.6198 39.8864 71.4503C39.9711 71.1867 40.0558 70.9325 40.1406 70.6689C40.0558 70.6406 39.9711 70.6124 39.8769 70.5841C39.7734 70.1981 39.0202 69.0307 38.7471 68.767C38.4835 68.6823 38.2293 68.5976 37.9657 68.5128C37.9375 68.3151 37.9092 68.108 37.881 67.9103C37.3067 67.6184 36.7229 67.336 36.1486 67.0441C36.1769 66.9594 36.2051 66.8746 36.2333 66.7805L35.885 66.9499C35.2165 66.6298 34.5575 66.3191 33.889 65.999C33.8608 66.0838 33.8325 66.1685 33.8043 66.2627C33.5407 66.1779 33.2865 66.0932 33.0228 66.0084C32.9946 66.0932 32.9664 66.1779 32.9381 66.2721C32.5898 66.1779 32.6557 65.6601 31.9872 65.6695C31.959 65.7543 31.9307 65.839 31.9025 65.9331C31.733 65.8766 31.5541 65.8202 31.3846 65.7637C31.2434 65.9049 31.0928 66.0555 30.9516 66.1968C30.4902 66.1403 30.0289 66.0838 29.5676 66.0273C28.9462 66.1968 28.4566 66.9499 27.7505 67.1571C27.4963 67.6467 27.2326 68.1362 26.9784 68.6352C26.8937 68.607 26.809 68.5787 26.7148 68.5505C26.4889 69.5296 26.2535 70.5182 26.0275 71.4974C26.1123 71.5256 26.197 71.5539 26.2911 71.5821C26.1217 71.8175 25.9428 72.0434 25.7733 72.2788C24.7942 72.2129 23.6644 72.9473 22.8264 73.3239C22.6852 73.4651 22.5346 73.6157 22.3933 73.757C22.1297 73.6722 21.8755 73.5875 21.6119 73.5028C21.5837 73.5875 21.5554 73.6722 21.5272 73.7664C20.6233 73.9264 20.3597 73.7664 19.7948 74.6326C19.6253 74.5761 19.4465 74.5196 19.277 74.4631C19.2205 74.6326 19.164 74.8114 19.1075 74.9809C18.9098 75.0092 18.7027 75.0374 18.505 75.0656C18.4202 75.6117 18.3355 76.1672 18.2508 76.7133C18.166 76.685 18.0813 76.6568 17.9871 76.6285C17.9307 76.798 17.8742 76.9769 17.8177 77.1464C17.7329 77.1181 17.6482 77.0899 17.5541 77.0616C17.4976 77.523 17.4411 77.9843 17.3846 78.4456C18.0531 78.8787 17.9777 79.1612 18.4296 79.6601C18.3732 79.8296 18.3167 80.0085 18.2602 80.178C18.665 80.4039 19.0699 80.6393 19.4747 80.8653C19.4182 81.3266 19.3617 81.7879 19.3052 82.2493C19.4747 82.3058 19.6536 82.3622 19.8231 82.4187C19.7666 82.5882 19.7101 82.7671 19.6536 82.9366C19.9737 83.1343 20.2938 83.3414 20.6045 83.5391C20.5386 84.1417 20.5292 84.33 20.7834 84.7537C20.7551 84.8384 20.7269 84.9231 20.6987 85.0173C21.1317 85.1585 21.5648 85.2997 21.9979 85.4504C22.0262 85.6481 22.0544 85.8552 22.0827 86.0529C23.2125 87.0415 26.4983 86.0247 26.9314 85.3468L26.9596 85.328Z" fill="var(--fill-0, #F2997F)"/>
<path id="Vector_6" fill-rule="evenodd" clip-rule="evenodd" d="M26.216 35.824C26.6397 36.5301 26.5643 36.9914 27.487 37.208C27.487 37.4151 27.487 37.6222 27.4964 37.8294C27.7036 37.8294 27.9107 37.8105 28.1178 37.8011C28.1931 37.9329 28.259 38.0647 28.3344 38.206C28.6074 38.1212 28.8898 38.0459 29.1629 37.9612C29.0876 37.4151 29.0028 36.869 28.9275 36.323C28.8616 36.323 28.7863 36.323 28.7204 36.323C28.7204 35.984 28.711 35.6357 28.7015 35.2967C28.5603 35.2308 28.4191 35.1743 28.2779 35.1084C28.2779 34.8354 28.2685 34.5624 28.259 34.2893C28.1178 34.2234 27.9766 34.1669 27.8354 34.101C27.8354 33.7621 27.8259 33.4137 27.8165 33.0748C27.7506 33.0748 27.6753 33.0748 27.6094 33.0748C27.6094 32.9336 27.6094 32.8018 27.6094 32.6605C27.4682 32.5946 27.327 32.5381 27.1857 32.4722C27.1857 32.331 27.1857 32.1992 27.1857 32.058C27.1198 32.058 27.0445 32.058 26.9786 32.058C27.0633 31.3142 27.2046 30.8529 26.9409 29.9961C26.875 29.9961 26.7997 29.9961 26.7338 29.9961C26.8562 29.1205 26.8939 28.8286 26.4796 27.7459C26.0653 27.6424 26.3007 27.7836 26.0559 27.5576C24.992 27.6329 24.8696 27.906 24.2012 28.2543C24.2012 28.6686 24.0035 29.6477 24.0223 29.7042C24.1635 29.7701 24.3048 29.8266 24.446 29.8925C24.446 29.9584 24.446 30.0338 24.446 30.0997H24.2388C24.3236 30.9282 24.4083 31.7473 24.493 32.5664C24.559 32.5664 24.6343 32.5664 24.7002 32.5664C24.7002 32.7076 24.7002 32.8394 24.7002 32.9806C24.7661 32.9806 24.8414 32.9806 24.9073 32.9806C24.9073 33.1878 24.9073 33.3949 24.9167 33.602C25.0579 33.6679 25.1992 33.7244 25.3404 33.7903C25.2745 33.9975 25.2086 34.2046 25.1427 34.4211C25.2839 34.487 25.4251 34.5435 25.5664 34.6094C25.5664 34.7507 25.5664 34.8825 25.5664 35.0237C25.6323 35.0237 25.7076 35.0237 25.7735 35.0237C25.7735 35.1649 25.7735 35.2967 25.7735 35.4379C25.8394 35.4379 25.9147 35.4379 25.9806 35.4379C25.9806 35.5792 25.9806 35.711 25.9806 35.8522C26.0465 35.8522 26.1218 35.8522 26.1877 35.8522L26.216 35.824Z" fill="var(--fill-0, #B4B5B7)"/>
<path id="Vector_7" fill-rule="evenodd" clip-rule="evenodd" d="M20.2657 36.5395C20.5575 37.3116 20.3975 37.7635 21.2637 38.1307C21.226 38.3378 21.1978 38.5355 21.1601 38.7426C21.3672 38.7709 21.5744 38.7991 21.7721 38.8274C21.8191 38.9686 21.8662 39.1192 21.9133 39.2605C22.1957 39.2322 22.4782 39.1946 22.7701 39.1663C22.7889 38.6108 22.8171 38.0553 22.836 37.5093C22.7701 37.5093 22.7042 37.4904 22.6288 37.481C22.6853 37.1421 22.7418 36.8031 22.7983 36.4548C22.6759 36.3701 22.5441 36.2853 22.4217 36.2006C22.4688 35.9276 22.5159 35.6545 22.5535 35.3815C22.4311 35.2968 22.2993 35.212 22.1769 35.1273C22.2334 34.7883 22.2899 34.4494 22.3464 34.1011C22.2805 34.1011 22.2052 34.0822 22.1393 34.0728C22.1581 33.941 22.1863 33.7998 22.2052 33.668C22.0828 33.5832 21.951 33.4985 21.8286 33.4138C21.8474 33.282 21.8756 33.1407 21.8945 33.0089C21.8286 33.0089 21.7532 32.9901 21.6873 32.9807C21.9039 32.2557 22.1204 31.832 22.0263 30.9376C21.9604 30.9376 21.8851 30.9188 21.8191 30.9094C22.0922 30.062 22.1863 29.7796 21.9792 28.631C21.5932 28.4521 21.8003 28.631 21.6026 28.3768C20.5481 28.2638 20.3787 28.518 19.6537 28.7439C19.5784 29.1488 19.2112 30.0903 19.2112 30.1468C19.3336 30.2315 19.4654 30.3162 19.5878 30.401C19.5784 30.4669 19.569 30.5328 19.5501 30.6081L19.343 30.5799C19.2771 31.4084 19.2112 32.2369 19.1453 33.056C19.2112 33.056 19.2865 33.0748 19.3524 33.0842C19.3336 33.216 19.3054 33.3573 19.2865 33.4891C19.3524 33.4891 19.4277 33.5079 19.4937 33.5173C19.456 33.7245 19.4277 33.9222 19.3901 34.1293C19.5125 34.214 19.6443 34.2988 19.7667 34.3835C19.6631 34.5812 19.5596 34.7789 19.4654 34.9672C19.5878 35.052 19.7196 35.1367 19.842 35.2214C19.8232 35.3532 19.7949 35.4945 19.7761 35.6263C19.842 35.6263 19.9173 35.6451 19.9832 35.6545C19.9644 35.7863 19.9362 35.9276 19.9173 36.0594C19.9832 36.0594 20.0586 36.0782 20.1245 36.0876C20.1056 36.2194 20.0774 36.3606 20.0586 36.4925C20.1245 36.4925 20.1998 36.5113 20.2657 36.5207V36.5395Z" fill="var(--fill-0, #B4B5B7)"/>
<path id="Vector_8" fill-rule="evenodd" clip-rule="evenodd" d="M39.6229 26.7573C39.6229 26.7573 39.604 26.7573 39.5852 26.7479C39.2557 26.9645 39.1804 26.9174 38.8132 26.9645C38.7849 26.9362 38.7473 26.908 38.719 26.8797C38.7002 26.8609 38.6814 26.8515 38.672 26.8326C38.5213 26.8326 38.5872 26.8326 38.5307 26.7667C38.5307 26.7667 38.5307 26.7667 38.5213 26.7667C38.5119 26.7479 38.5025 26.7385 38.4931 26.7197C38.4742 26.7197 38.4554 26.7291 38.4366 26.7385C38.4272 26.7008 38.4178 26.6632 38.4083 26.6349C38.3895 26.6349 38.3707 26.6443 38.3518 26.6538C38.2859 26.5879 38.2012 26.4749 38.1353 26.3525C38.1353 26.3431 38.1165 26.3242 38.1071 26.3148C38.0882 26.3242 38.0788 26.3337 38.06 26.3431C37.7022 25.8441 37.787 25.8158 37.7587 25.411C37.8246 25.3451 37.8999 25.2792 37.9658 25.2227C37.9658 25.1944 37.9847 25.1756 37.9941 25.1568C37.9941 25.1568 37.9941 25.1474 37.9847 25.138C37.9847 25.138 38.0035 25.138 38.0035 25.1285C38.1353 24.7896 38.2295 24.7802 38.4931 24.5354C38.5966 24.5448 38.7002 24.5636 38.8038 24.5731C38.8226 24.5731 38.832 24.5731 38.8508 24.5636C38.8508 24.5542 38.8508 24.5448 38.8603 24.526C38.8697 24.526 38.8791 24.526 38.8885 24.5354C38.9167 24.5166 38.9544 24.4883 38.9827 24.4695C38.9921 24.4883 39.0015 24.4977 39.0203 24.5166C39.1615 24.4601 39.1521 24.4695 39.171 24.4977C39.4063 24.4695 39.4911 24.526 39.7829 24.5919C39.83 24.6954 39.8865 24.7896 39.9336 24.8932C39.9524 24.8932 39.9712 24.8837 39.9901 24.8743C39.9995 24.9214 40.0089 24.9591 40.0089 25.0061C40.103 25.1097 40.1878 25.2227 40.2819 25.3262C40.2631 25.3639 40.2348 25.4016 40.216 25.4298C40.2725 25.5051 40.3196 25.5805 40.3761 25.6558C40.3572 25.6652 40.3478 25.6746 40.329 25.684C40.4043 25.9006 40.3572 25.7499 40.2819 25.9194C40.2913 25.9382 40.3007 25.9476 40.3102 25.9665C40.2819 25.9853 40.2443 26.0041 40.216 26.0324C40.2254 26.0512 40.2348 26.0606 40.2443 26.0794C40.2254 26.1077 40.2066 26.1454 40.1784 26.1736C40.1689 26.2301 40.1501 26.296 40.1407 26.3525C40.103 26.3525 40.0654 26.3619 40.0277 26.3713C40.0277 26.3807 40.0277 26.3901 40.0277 26.3996C40.0089 26.409 39.9995 26.4184 39.9806 26.4278C39.9618 26.4937 39.9336 26.569 39.9147 26.6349C39.8959 26.6349 39.8771 26.6255 39.8582 26.6161C39.7359 26.795 39.8112 26.6914 39.6605 26.7291C39.6605 26.7291 39.6511 26.7291 39.6417 26.7385C39.6417 26.7573 39.6417 26.7667 39.6323 26.7856L39.6229 26.7573Z" fill="var(--fill-0, black)"/>
<path id="Vector_9" fill-rule="evenodd" clip-rule="evenodd" d="M46.2322 25.1757C46.2322 25.1757 46.2134 25.1757 46.1945 25.1663C45.865 25.3828 45.7897 25.3357 45.4225 25.3828L45.3284 25.2981C45.3095 25.2792 45.2907 25.2698 45.2813 25.251C45.1306 25.251 45.1965 25.251 45.1401 25.1851C45.1401 25.1851 45.1401 25.1851 45.1306 25.1851C45.1212 25.1663 45.1118 25.1568 45.1024 25.138C45.0836 25.138 45.0647 25.1474 45.0459 25.1568C45.0365 25.1192 45.0271 25.0815 45.0177 25.0533C44.9988 25.0533 44.98 25.0627 44.9612 25.0721C44.8953 25.0062 44.8105 24.8932 44.7446 24.7708C44.7446 24.7614 44.7258 24.7426 44.7164 24.7332C44.6976 24.7426 44.6881 24.752 44.6693 24.7614C44.3115 24.2624 44.3963 24.2342 44.368 23.8293C44.4339 23.7634 44.5093 23.6975 44.5752 23.641C44.5752 23.6222 44.594 23.594 44.6034 23.5751C44.6034 23.5751 44.6034 23.5657 44.594 23.5563C44.594 23.5563 44.6128 23.5563 44.6128 23.5469C44.7446 23.2079 44.8388 23.1985 45.1024 22.9537C45.206 22.9632 45.3095 22.982 45.4131 22.9914C45.4319 22.9914 45.4413 22.9914 45.4602 22.982C45.4602 22.9726 45.4602 22.9537 45.4696 22.9443C45.479 22.9443 45.4884 22.9443 45.4978 22.9537C45.5261 22.9349 45.5637 22.9067 45.592 22.8878C45.6014 22.9067 45.6108 22.9161 45.6296 22.9349C45.7709 22.8784 45.7614 22.8878 45.7803 22.9161C46.0156 22.8878 46.1004 22.9443 46.3922 23.0102C46.4393 23.1138 46.4958 23.2079 46.5429 23.3115C46.5617 23.3115 46.5806 23.3021 46.5994 23.2927C46.6088 23.3398 46.6182 23.3774 46.6182 23.4245C46.7124 23.5281 46.7971 23.641 46.8912 23.7446C46.8724 23.7823 46.8442 23.8199 46.8253 23.8482C46.8818 23.9235 46.9289 23.9988 46.9854 24.0741C46.9666 24.0835 46.9571 24.093 46.9383 24.1024C47.0136 24.3189 46.9666 24.1683 46.8912 24.3377C46.9007 24.3566 46.9101 24.366 46.9195 24.3848C46.8912 24.4036 46.8536 24.4225 46.8253 24.4507C46.8348 24.4696 46.8442 24.479 46.8536 24.4978C46.8348 24.526 46.8159 24.5637 46.7877 24.5919L46.75 24.7708C46.75 24.7708 46.6747 24.7802 46.637 24.7897C46.637 24.7991 46.637 24.8085 46.637 24.8179C46.6182 24.8273 46.6088 24.8367 46.59 24.8462C46.5711 24.9121 46.5429 24.9874 46.5241 25.0533C46.5052 25.0533 46.4864 25.0439 46.4676 25.0344C46.3452 25.2133 46.4205 25.1098 46.2699 25.1474C46.2699 25.1474 46.2604 25.1474 46.251 25.1568C46.251 25.1757 46.251 25.1851 46.2416 25.2039L46.2322 25.1757Z" fill="var(--fill-0, black)"/>
<path id="Vector_10" fill-rule="evenodd" clip-rule="evenodd" d="M37.7115 35.4097C37.0148 34.9766 37.2878 34.9295 36.7417 34.5058C36.8547 33.9409 36.7229 33.7809 36.6288 33.3101C36.5629 33.2819 36.497 33.2536 36.431 33.2254C36.5252 33.0371 36.6193 32.8488 36.7135 32.6605C36.6476 32.6323 36.5817 32.604 36.5158 32.5758C36.77 32.0768 37.0148 31.5778 37.269 31.0788C37.3537 30.7963 37.0336 31.0694 37.1654 30.8058C37.3255 30.8058 37.4855 30.8058 37.6456 30.8058C37.8056 30.4951 37.9563 30.1844 38.1163 29.8737C38.5306 29.9866 38.9543 30.0996 39.3685 30.222C39.3779 30.6645 39.3403 31.3047 39.5756 31.7002C39.2273 32.2274 38.8884 32.7641 38.54 33.2913C38.6718 33.3478 38.7942 33.4137 38.926 33.4702C38.7095 34.0633 38.4929 34.6471 38.2764 35.2402C37.9469 35.2779 37.9845 35.259 37.7021 35.4379L37.7115 35.4097Z" fill="var(--fill-0, #BD7965)"/>
<path id="Vector_11" fill-rule="evenodd" clip-rule="evenodd" d="M50.9584 50.0876C50.8831 49.8899 50.8077 49.6828 50.7324 49.4851C50.7983 49.4568 50.8642 49.438 50.9301 49.4097C50.7889 49.2309 50.6477 49.0614 50.497 48.8825C49.6591 48.9767 49.7062 48.6754 49.113 48.2611C48.9624 48.1576 48.8024 48.2329 48.5576 48.0163C47.8514 48.3647 47.1359 48.713 46.4298 49.0614C46.411 49.2214 46.4015 49.3815 46.3827 49.5416C46.185 49.6169 45.9779 49.6922 45.7801 49.7675C45.7613 49.9276 45.7519 50.0876 45.7331 50.2477C45.4035 50.3795 45.0646 50.5019 44.7351 50.6337C44.6409 50.9726 44.5374 51.321 44.4432 51.6599C44.1796 51.7635 43.9066 51.867 43.6429 51.9612L43.7183 52.1589C43.4735 52.3284 43.2381 52.4979 42.9933 52.6673C43.0216 52.7332 43.0404 52.7991 43.0686 52.865C43.0027 52.8933 42.9368 52.9121 42.8709 52.9404C42.6544 53.5429 43.2287 53.2228 42.5037 53.7689C42.0047 53.4958 41.9765 53.7689 41.5528 53.6747C41.5246 53.6088 41.5058 53.5429 41.4775 53.477C41.0162 53.3264 40.8185 53.1851 40.2441 53.2605C40.1688 53.0628 40.0935 52.8556 40.0182 52.6579C39.5851 52.5167 39.1426 52.3755 38.7095 52.2436C38.6813 52.1777 38.6624 52.1118 38.6342 52.0459C38.4082 52.0553 38.1823 52.0648 37.9563 52.0742C37.8151 51.8953 37.6739 51.7258 37.5232 51.5469C37.2314 51.5846 36.9395 51.6128 36.6476 51.6505C36.224 51.5469 35.8568 51.1139 35.2636 51.0291C35.2354 50.9632 35.2166 50.8973 35.1883 50.8314C35.1224 50.8596 35.0565 50.8785 34.9906 50.9067C34.9247 50.935 34.8588 50.9538 34.7929 50.982C34.8211 51.0479 34.84 51.1139 34.8682 51.1798C34.8117 51.2174 34.1809 51.1044 33.7949 51.3586C33.7478 51.3869 33.8326 51.6505 33.4748 51.7164C33.4465 51.6505 33.4277 51.5846 33.3995 51.5187C33.2018 51.594 32.9946 51.6693 32.7969 51.7447C32.8157 52.1966 32.8346 52.6485 32.8534 53.1004C32.6745 53.2416 32.505 53.3829 32.3262 53.5335C32.3638 53.8254 32.3921 54.1172 32.4297 54.4091C32.3638 54.4373 32.2979 54.4562 32.232 54.4844C32.2508 55.1152 33.0511 55.7648 33.0417 56.0096C32.8252 56.245 32.6086 56.4804 32.3921 56.7158C32.5239 57.0453 32.6463 57.3842 32.7781 57.7137C32.7122 57.742 32.6463 57.7608 32.5804 57.7891C32.6274 57.9209 32.6839 58.0527 32.731 58.1939C32.6651 58.2222 32.5992 58.241 32.5333 58.2692C32.5804 58.401 32.6369 58.5328 32.6839 58.6741C32.618 58.7023 32.5521 58.7211 32.4862 58.7494C32.5615 59.0413 32.5992 58.6176 32.7592 58.8718C32.8346 59.0695 32.9099 59.2766 32.9852 59.4743C33.0511 59.4461 33.117 59.4273 33.1829 59.399C33.6348 60.1051 33.0888 60.1711 33.0888 60.3499C33.0888 61.1596 33.8985 61.4421 34.2562 62.1953C34.4822 62.1859 34.7081 62.1764 34.9341 62.167C35.0565 62.2706 35.1695 62.3836 35.2919 62.4871C35.4237 62.4401 35.5555 62.3836 35.6967 62.3365C35.725 62.4024 35.7438 62.4683 35.772 62.5342C36.4687 62.3459 37.156 62.1576 37.8527 61.9693C37.8245 61.9034 37.8057 61.8375 37.7774 61.7716C37.9092 61.7245 38.041 61.668 38.1823 61.621C38.154 61.5551 38.1352 61.4891 38.107 61.4232C38.6248 61.3762 39.1426 61.3291 39.6604 61.2914C39.6322 61.2255 39.6133 61.1596 39.5851 61.0937C40.3854 60.783 41.1856 60.4817 41.9859 60.1805C41.9577 60.1146 41.9388 60.0487 41.9106 59.9827C42.3531 59.738 42.7956 59.4932 43.2381 59.2484C43.2664 59.3143 43.2852 59.3802 43.3134 59.4461C43.3793 59.4179 43.4452 59.399 43.5111 59.3708C43.577 59.3425 43.643 59.3237 43.7089 59.2955C44.3114 59.6721 44.914 60.0581 45.5259 60.4347C45.7237 60.3593 45.9308 60.284 46.1285 60.2087C46.298 60.4535 46.4674 60.6889 46.6369 60.9337C47.5407 60.896 48.4446 60.8583 49.3484 60.8207C49.725 60.6136 50.0545 59.9922 50.5159 59.6815C50.4406 59.0507 50.4782 58.9377 51.0149 58.5705C50.9678 58.4387 50.9113 58.3069 50.8642 58.1657C51.0431 58.0244 51.2126 57.8832 51.3915 57.7326C51.3444 57.2148 51.2973 56.6969 51.2597 56.1791C51.3632 56.0567 51.4762 55.9437 51.5798 55.8213C51.5421 55.5295 51.5139 55.2376 51.4762 54.9457C51.5798 54.8328 51.6927 54.7104 51.7963 54.588C51.6174 54.1172 51.4385 53.6559 51.2597 53.1851C51.4103 52.978 51.5609 52.7615 51.7116 52.5543C51.6363 52.3566 51.5609 52.1495 51.4856 51.9518C51.5515 51.9235 51.6174 51.9047 51.6833 51.8765C51.6363 51.7447 51.5798 51.6128 51.5327 51.4716C51.5986 51.4434 51.6645 51.4245 51.7304 51.3963C51.5139 51.0197 51.2879 50.6431 51.0714 50.2759C51.0055 50.3042 50.9395 50.323 50.8736 50.3512C50.8454 50.2853 50.8266 50.2194 50.7983 50.1535C50.8642 50.1253 50.9301 50.1064 50.996 50.0782L50.9584 50.0876Z" fill="var(--fill-0, #00AB41)"/>
</g>
</svg>
