<svg preserveAspectRatio="none" width="100%" height="100%" overflow="visible" style="display: block;" viewBox="0 0 85.0738 104.34" fill="none" xmlns="http://www.w3.org/2000/svg">
<g id="Group">
<path id="Vector" fill-rule="evenodd" clip-rule="evenodd" d="M84.8288 78.2856C84.697 80.9029 84.5652 83.5203 84.4334 86.1471H84.038C83.9156 86.7967 83.7838 87.4558 83.6425 88.1148H83.2471C82.7952 88.708 82.6916 88.8021 82.4657 89.6871C81.43 89.9601 81.2135 90.3085 80.498 90.864V91.2594H79.7071V91.6548H77.7394V92.0503H76.9579V92.4457C75.3856 92.5775 73.8133 92.7093 72.241 92.8411C72.1092 96.1175 71.9868 99.3939 71.8456 102.67H71.4502V103.038C71.1395 102.915 70.9229 102.633 70.584 102.68V102.849C70.3109 102.849 70.0379 102.84 69.7649 102.83V103C69.4918 102.943 69.2188 102.877 68.9552 102.821C68.9552 102.877 68.9552 102.925 68.9552 102.99C68.6916 102.99 68.4186 102.981 68.1455 102.972V103.141C67.4959 103.132 66.8463 103.113 66.1966 103.103C66.1401 103.207 66.0837 103.32 66.0272 103.433C65.7541 103.508 65.7447 103.273 65.707 103.263C65.3304 103.263 64.9539 103.254 64.5679 103.245C64.5679 103.301 64.5679 103.358 64.5679 103.414C64.0406 103.546 63.5416 103.179 63.2686 103.226C63.2686 103.282 63.2686 103.329 63.2686 103.386C62.9391 103.386 62.6283 103.376 62.2988 103.367C62.2988 103.424 62.2988 103.48 62.2988 103.537C61.9034 103.64 61.6774 103.348 61.4891 103.358V103.518C61.0466 103.518 60.623 103.508 60.1899 103.499C60.1899 103.555 60.1899 103.602 60.1899 103.659C58.9471 103.64 57.7043 103.612 56.4615 103.593V103.424H56.3015C56.3015 103.48 56.3015 103.527 56.3015 103.584C56.1414 103.584 55.972 103.584 55.8213 103.584C55.8213 103.64 55.8213 103.687 55.8213 103.744C55.6048 103.687 55.3882 103.631 55.1811 103.574V103.414C54.8045 103.292 54.7386 103.584 54.5315 103.565V103.405C54.2679 103.405 53.9948 103.395 53.7218 103.395C53.7218 103.452 53.7218 103.499 53.7218 103.555L52.2625 103.687C51.8953 103.612 51.4246 103.179 50.8032 103.339V103.508C50.6902 103.537 49.3344 103.64 49.3344 103.64C49.0802 103.584 48.3082 103.16 47.8845 103.292C47.8845 103.348 47.8845 103.405 47.8845 103.461C47.7809 103.461 47.668 103.461 47.555 103.461V103.621C47.0748 103.508 46.5852 103.386 46.1051 103.273C46.1051 103.329 46.1051 103.386 46.1051 103.442C46.0015 103.442 45.8885 103.442 45.7756 103.442V103.602C45.6626 103.602 45.559 103.602 45.4461 103.602C45.4461 103.659 45.4461 103.715 45.4461 103.772C45.3896 103.772 45.3425 103.772 45.286 103.772V103.612C45.0223 103.612 44.7493 103.602 44.4763 103.602V103.433C43.8926 103.254 43.403 103.602 43.017 103.574C42.9605 103.574 42.904 103.574 42.8475 103.574C42.8475 103.518 42.8475 103.471 42.8475 103.414C42.4333 103.32 42.3579 103.565 42.3579 103.565C41.6518 103.555 40.9551 103.537 40.249 103.527C40.249 103.584 40.249 103.631 40.249 103.687C39.6182 103.857 38.6955 103.565 38.3001 103.489C37.4339 103.48 36.5677 103.452 35.7015 103.442V103.602C35.485 103.602 35.2684 103.602 35.0519 103.602V103.433C34.5247 103.282 33.715 103.489 33.4231 103.565C32.6699 103.555 31.9073 103.537 31.1541 103.527C31.1541 103.527 31.0129 103.263 30.674 103.358C30.674 103.414 30.674 103.461 30.674 103.518C30.5704 103.518 30.4574 103.518 30.3444 103.518V103.687C29.6948 103.565 29.0451 103.452 28.3955 103.329C28.3955 103.386 28.3955 103.433 28.3955 103.489C28.2919 103.489 28.179 103.489 28.0754 103.489C28.0754 103.546 28.0754 103.593 28.0754 103.659C27.7459 103.602 27.4258 103.537 27.1057 103.471C26.7197 103.518 26.3431 103.574 25.9665 103.621V103.452C25.75 103.452 25.5334 103.452 25.3169 103.442V103.612C24.9308 103.668 24.4506 103.292 23.8575 103.424V103.593C23.528 103.537 23.2079 103.471 22.8784 103.414V103.574H22.7089C22.7089 103.518 22.7089 103.461 22.7089 103.405C22.4359 103.405 22.1628 103.405 21.8898 103.395V103.555C21.7203 103.612 21.5603 103.659 21.4002 103.706C21.4002 103.65 21.4002 103.602 21.4002 103.546C21.2872 103.546 21.1837 103.546 21.0707 103.546V103.386C20.6941 103.433 20.3175 103.48 19.9315 103.527C19.8938 103.527 19.8844 103.311 19.6114 103.358C19.6114 103.414 19.6114 103.471 19.6114 103.527C18.9618 103.518 18.3121 103.499 17.6625 103.489C17.6625 103.546 17.6625 103.602 17.6625 103.659C17.606 103.659 17.5589 103.659 17.5024 103.659V103.499C17.1258 103.499 16.7492 103.489 16.3632 103.48C16.3632 103.537 16.3632 103.584 16.3632 103.64C16.2032 103.64 16.0337 103.64 15.883 103.64V103.8C15.6665 103.857 15.4405 103.904 15.224 103.951V104.12C15.0074 104.12 14.7815 104.111 14.5744 104.111C14.5744 104.167 14.5744 104.214 14.5744 104.271C13.4916 104.572 13.4916 103.81 13.1245 103.593C12.955 103.593 12.7949 103.593 12.6443 103.593V103.424C12.2018 103.273 11.7122 103.546 11.5051 103.574C11.1285 103.508 10.7519 103.452 10.3659 103.386C10.3282 103.386 10.3094 103.593 10.0363 103.537V103.376C9.81978 103.376 9.60324 103.376 9.38669 103.367V103.537C9.18898 103.612 8.2946 103.913 8.07806 103.838C8.02157 103.734 7.97446 103.621 7.92739 103.508C7.75792 103.508 7.5979 103.508 7.43785 103.499C7.43785 103.442 7.43785 103.395 7.43785 103.339C7.06125 103.339 6.68463 103.329 6.29862 103.32V103.48C5.59249 103.414 4.88638 103.348 4.18967 103.282V103.442C3.85073 103.48 3.86011 103.273 3.86011 103.273L1.75117 103.395C1.75117 103.452 1.75117 103.508 1.75117 103.565C1.53463 103.612 1.31808 103.668 1.10154 103.715C1.10154 103.772 1.10154 103.828 1.10154 103.885C1.04505 103.885 0.997986 103.885 0.941497 103.885V103.725C0.762612 103.725 0.574297 103.725 0.395413 103.715C0.395413 103.706 0.395413 103.697 0.395413 103.678H0V99.7517H0.395413V97.784H0.790825C0.988539 96.9366 0.395413 96.5977 0.395413 96.5977V93.8485H0.790825C1.0262 92.9259 0.338923 92.7752 0.395413 92.2762H0.790825V91.0899H1.18629V87.9453H1.58171V84.0193H1.97712C2.10893 82.833 2.23137 81.6561 2.37259 80.4793H2.768V78.907H3.16342V76.9392H3.55883V75.3669H3.9543V73.7946C4.2085 73.6628 4.48149 73.531 4.7357 73.3992C4.68862 72.9096 4.02018 72.373 4.34029 71.4315H4.7357V70.6406H5.13117V69.0778H5.52658V67.8915H5.92199V66.7052H6.31746V65.5283C6.58108 65.3965 6.84467 65.2647 7.10829 65.1329V63.1652H7.5037V62.3837C7.76732 62.2519 8.03096 62.1201 8.28516 61.9883V60.416C8.54878 60.2842 8.81242 60.1524 9.07604 60.0206C9.19844 59.4933 9.33964 58.9755 9.47145 58.4483C9.72566 58.3164 9.99871 58.1846 10.2529 58.0528C10.3847 57.3938 10.5165 56.7347 10.6483 56.0851C11.0438 55.8215 11.4392 55.5579 11.8346 55.2942C11.9664 54.6446 12.0982 53.9856 12.23 53.3265C12.4937 53.2041 12.7573 53.0723 13.0209 52.9311C13.1433 52.5357 13.2751 52.1496 13.4163 51.7448H13.8117C13.9435 51.3494 14.0753 50.9634 14.2072 50.5679H14.998C15.1298 50.0407 15.2522 49.5229 15.3934 48.9956C15.9207 48.8638 16.4386 48.7414 16.9658 48.6002C17.2294 46.3783 17.9449 47.3292 18.5381 46.2465V45.4556C20.9012 44.9284 20.0915 43.6668 22.4641 43.1019C22.6901 42.311 22.417 42.7629 22.8595 42.311V41.9156H24.0458C24.1682 41.652 24.3 41.3883 24.4413 41.1341H25.2227V40.7387H26.409V40.3433H27.9813V39.9478H28.7627V39.5524H30.335V39.157H31.5213V38.7616H32.6982V38.3661H35.4567V37.9707C36.3888 37.7353 36.483 38.3661 37.0197 38.3661V37.9707H37.8105C38.366 38.0178 37.6411 38.385 38.206 38.3661V37.9707H41.3505V37.5753H44.8906C45.0129 37.3117 45.1542 37.048 45.286 36.7938H47.2537V37.1893C47.5173 37.0574 47.781 36.9256 48.0352 36.7938L48.4306 37.1893V36.7938C50.7937 36.9162 53.1475 37.048 55.5107 37.1893C55.6425 37.4529 55.7743 37.7165 55.9061 37.9707H58.6647V38.3661H59.851V38.7616H60.6324V39.157H61.8186C61.941 39.4206 62.0729 39.6842 62.2141 39.9384C62.9956 40.202 63.7864 40.4657 64.5679 40.7293V41.5107H64.9633V41.9062H66.5356C66.931 42.4334 67.317 42.9512 67.7218 43.4785H68.5033V43.8739C69.1624 44.4011 69.812 44.9189 70.471 45.4462V46.237C71.4596 46.4724 71.1112 46.4536 71.6573 47.0185H72.0527V47.7999C72.8342 48.8732 73.4085 48.1765 73.6251 50.1631C74.0205 50.2855 74.4065 50.4267 74.8019 50.5585C74.8113 51.8672 75.0185 52.3379 75.1973 53.3077H76.3742V53.7031H76.7696V55.2754C77.165 55.539 77.5605 55.8026 77.9559 56.0663V57.2431C78.2195 57.3749 78.4832 57.5068 78.7468 57.6386V58.42H79.1422C79.2646 59.6063 79.3964 60.7737 79.5376 61.96C80.4791 62.1954 80.272 62.0824 80.7239 62.7415H81.1193C81.2511 63.5323 81.3736 64.3138 81.5148 65.1046H81.9102V66.6675H82.3056C82.4374 67.1948 82.5692 67.7126 82.701 68.2398H83.0965V69.8121H83.4919V71.3844H83.8873V73.3521H84.2828V74.9244H84.6782V77.2782H84.2828V77.6736H84.6782V78.4645H85.0736L84.8288 78.2856Z" fill="var(--fill-0, #0071EB)"/>
<path id="Vector_2" fill-rule="evenodd" clip-rule="evenodd" d="M62.1104 26.0041V24.3847C61.8938 24.2718 61.6773 24.1682 61.4607 24.0552C61.4419 23.9799 62.0445 21.9086 61.7903 21.1366H61.4607V20.1668C61.2442 20.0539 61.0276 19.9503 60.8111 19.8467V18.5475H60.4816C60.0203 17.8696 59.9073 17.7849 59.832 16.5986C59.5024 16.4856 59.1824 16.382 58.8623 16.2785C58.7022 15.0263 58.4668 15.3746 58.2126 14.3296C56.5462 13.8588 57.4123 13.3127 56.5932 12.7008H55.9436V12.3807C55.6235 12.2771 55.294 12.1641 54.9739 12.0606V11.4109C54.2207 11.1944 53.458 10.9778 52.7048 10.7613C52.3847 10.3282 52.0552 9.89511 51.7351 9.46202H51.0855C50.9819 9.24548 50.8689 9.02893 50.7654 8.81239C50.1157 8.92537 49.4661 9.02893 48.8164 9.1325V8.81239H47.8467C47.7432 8.59585 47.6302 8.3793 47.5172 8.16276H46.5475V8.49228C46.2274 8.49228 45.4365 7.90855 44.5986 8.16276V8.49228H43.2993V8.81239C42.2166 8.70882 41.1338 8.59585 40.0511 8.49228C39.8346 8.81239 39.618 9.14191 39.4015 9.46202C39.0814 9.34904 38.7519 9.24548 38.4318 9.1325C38.3188 9.34904 38.2152 9.56559 38.1022 9.78213H37.1325C37.0289 9.99868 36.9159 10.2152 36.8124 10.4318H35.8427C35.7297 10.6483 35.6261 10.8649 35.5225 11.0814H34.8729C34.7599 11.2979 34.6564 11.5145 34.5528 11.731C33.7055 12.3336 33.9596 11.3827 33.5736 12.7008C32.4626 13.0021 32.7357 13.3881 31.6247 13.6705C31.3893 14.612 31.2764 14.7438 30.3255 14.9698C30.2125 15.6194 30.1089 16.269 29.9959 16.9187C28.9509 17.0411 29.0451 17.2105 28.3766 17.5683V18.8676H27.727C27.614 19.4042 27.5104 19.9503 27.4068 20.4869C27.0867 20.7035 26.7572 20.92 26.4371 21.1366V23.4056C26.2206 23.5186 26.004 23.6221 25.7875 23.7257V25.3545H25.4673V26.0041H25.1473V27.3034H24.8177C24.9307 28.0566 25.0343 28.8192 25.1473 29.5724C25.1473 29.5724 24.6388 29.8831 24.8177 30.5515H25.1473V31.2012H25.4673C25.3638 32.0674 25.2508 32.9335 25.1473 33.7997H25.4673V34.7789H25.7875V35.4285H26.117V36.3982C26.4371 36.6148 26.7666 36.8313 27.0867 37.0479C27.3033 37.6975 27.5198 38.3471 27.7364 38.9968C28.1695 39.1003 28.6025 39.2133 29.0356 39.3169C29.6852 40.0701 30.3349 40.8327 30.9845 41.5953C31.9542 41.8118 32.9334 42.0284 33.9126 42.2449C34.1103 42.8946 33.8655 42.5274 34.2327 42.8946V43.2241H35.5319C37.2455 43.8926 36.9065 44.3256 39.1002 43.8737C39.458 45.8038 39.7875 47.1878 40.3995 48.7507C41.0491 48.8542 41.6987 48.9672 42.3484 49.0802C42.5461 49.8711 42.6873 49.7957 42.998 50.3795H45.267V50.0499C46.152 49.8052 46.0108 49.9746 46.2462 49.0802H47.2253V48.7507C48.5057 47.9504 49.5226 45.0694 49.4944 42.904C50.031 42.8004 50.577 42.6874 51.1137 42.5839C51.2173 42.3673 51.3303 42.1508 51.4433 41.9342H52.0929L52.7425 41.2846C52.8461 40.9551 52.959 40.635 53.0626 40.3055C53.4957 40.2019 53.9288 40.0889 54.3619 39.9853C54.4749 39.7688 54.5784 39.5523 54.682 39.3357H55.6517V39.0156C56.0848 38.6955 56.5179 38.366 56.951 38.0459V36.7466C58.6174 36.3041 58.7116 34.9201 59.8696 34.1481V32.1992C60.7829 31.9544 60.8017 31.6154 61.489 31.2294C61.5267 29.7701 61.8562 29.2617 62.1386 28.3108V26.3619C62.0539 25.91 61.7714 26.4937 61.8185 26.0324H62.1386L62.1104 26.0041Z" fill="var(--fill-0, #F2997F)"/>
<path id="Vector_3" fill-rule="evenodd" clip-rule="evenodd" d="M51.8576 3.3518C52.5261 3.3518 52.7615 3.49302 53.3075 3.62483C53.4864 4.0485 53.6559 4.47218 53.8348 4.89585H55.2282C55.3694 5.15005 55.5106 5.39484 55.6519 5.64905C55.746 5.63022 55.8308 5.61139 55.9249 5.60197C55.9626 5.78086 55.9908 5.95974 56.0285 6.12921C56.1226 6.11038 56.2073 6.09155 56.3015 6.08214C56.3391 6.26102 56.3674 6.43991 56.405 6.60937C56.7063 6.73177 57.0076 6.86358 57.3183 6.98597C57.3842 7.34374 57.4501 7.6921 57.5254 8.04986C57.8267 8.17226 58.128 8.30407 58.4387 8.42646C58.9 8.91604 58.6176 9.91403 59.1166 10.4978C59.6155 10.6766 60.1146 10.8555 60.6136 11.0344C61.0184 11.4863 60.8772 12.1077 60.8678 12.3619C60.9619 12.3431 61.0466 12.3243 61.1408 12.3148C61.282 12.5596 61.4233 12.8138 61.5645 13.0586C61.7622 13.1151 61.9599 13.1622 62.1576 13.2187C62.28 13.8401 62.393 14.4615 62.5154 15.0734C62.8167 15.1958 63.1179 15.3276 63.4286 15.45C64.05 16.3162 63.2497 17.1447 63.2968 17.6814C63.3909 17.6625 63.4757 17.6437 63.5699 17.6343C63.7299 17.9732 63.89 18.3122 64.0406 18.6417C64.1348 18.6229 64.2195 18.604 64.3136 18.5852C64.5019 19.555 64.6902 20.5341 64.8785 21.5039C64.7844 21.5227 64.6996 21.5415 64.6055 21.5509C64.6432 21.7298 64.6714 21.9087 64.709 22.0782C64.6149 22.097 64.5302 22.1158 64.436 22.1347C64.6243 22.6525 64.822 23.1609 65.0103 23.6787C64.9162 23.6975 64.8315 23.7164 64.7373 23.7258C64.7467 24.2719 64.7655 24.8179 64.775 25.3734C64.6808 25.3922 64.5961 25.4111 64.5019 25.4205C64.6902 25.9383 64.8879 26.4467 65.0762 26.9645C65.0762 26.9645 64.6996 27.2941 64.9633 27.8119C65.0574 27.793 65.1421 27.7742 65.2363 27.7648L65.387 28.5651C65.6694 28.6027 65.9612 28.6404 66.2437 28.6781C66.4696 28.9134 66.705 29.1394 66.931 29.3748C67.0251 29.3559 67.1099 29.3371 67.204 29.3183C67.2699 29.676 67.3358 30.0244 67.4111 30.3822C67.317 30.401 67.2323 30.4198 67.1381 30.4387C67.2793 30.6834 67.4206 30.9376 67.5618 31.1824C67.656 31.1636 67.7407 31.1448 67.8348 31.1354C67.9384 31.6626 68.042 32.1993 68.1455 32.7265C68.3432 32.783 68.541 32.8301 68.7387 32.8865C68.8705 33.5927 69.0117 34.2988 69.1435 35.0143C69.0494 35.0332 68.9646 35.052 68.8705 35.0614C68.814 35.8899 68.4374 36.2289 68.0985 36.8597C68.0043 36.8785 67.9195 36.8973 67.8254 36.9067C67.7501 37.4716 67.6748 38.0365 67.59 38.6014C67.4959 38.6203 67.4112 38.6391 67.317 38.6579C66.9216 39.3829 66.4132 39.8442 66.3284 40.7763C66.6956 41.0211 66.432 40.7575 66.6956 41.2564C67.5429 41.1529 68.0231 41.2941 68.6822 41.4259C68.9176 41.8025 68.9741 41.8213 69.1529 42.4333C69.4354 42.471 69.7272 42.5086 70.0097 42.5463C70.4898 43.0924 70.9606 43.6479 71.4408 44.1939C71.5067 44.5517 71.5725 44.9 71.6479 45.2578C71.742 45.239 71.8268 45.2202 71.9209 45.2107C71.9586 45.3896 71.9868 45.5685 72.0245 45.738C72.1186 45.7191 72.2034 45.7003 72.2975 45.6909C72.3069 46.237 72.3258 46.783 72.3352 47.3385C72.4764 47.5833 72.6176 47.8375 72.7588 48.0823C72.6647 48.1011 72.58 48.12 72.4858 48.1294C72.5235 48.3083 72.5517 48.4871 72.5894 48.6566C72.4293 48.779 72.2693 48.9014 72.0998 49.0238C72.1846 49.4663 72.2693 49.9088 72.354 50.3513C72.354 50.3701 72.1845 50.3513 72.1845 50.935C71.8738 51.274 71.5726 51.6035 71.2619 51.9424C71.2807 52.0272 71.2995 52.1213 71.3089 52.2061C70.97 52.3661 70.6217 52.5168 70.2827 52.6768C70.2263 52.8745 70.1697 53.0628 70.1132 53.2605C68.9458 53.4865 67.7784 53.7125 66.6203 53.929C66.2155 54.6257 65.1704 54.9646 64.2477 54.6634C64.1253 54.5033 64.0029 54.3433 63.8805 54.1832C63.165 54.3244 62.4495 54.4562 61.7245 54.5975C61.0937 54.5127 60.4724 54.1926 59.6909 54.1644C59.3426 53.7313 59.239 53.816 58.9471 53.204C58.7682 53.2417 58.5893 53.2699 58.4104 53.3076C57.3183 51.2175 55.6048 54.0231 54.6727 51.274C54.3149 51.3399 53.9572 51.4152 53.5994 51.4811C53.0533 51.0386 52.4978 50.5961 51.9518 50.1442C51.8576 50.163 51.7729 50.1818 51.6788 50.1913C51.6411 50.0124 51.6128 49.8335 51.5752 49.664C51.2739 49.5416 50.9726 49.4098 50.6619 49.2874C50.483 48.8637 50.3136 48.4401 50.1347 48.0164C49.937 47.9599 49.7393 47.9128 49.5415 47.8563C49.5039 47.6775 49.4757 47.4986 49.438 47.3291C49.3438 47.3479 49.2591 47.3668 49.1649 47.3762C48.8072 46.7924 49.212 46.3311 49.1743 46.0016L48.9013 46.0487C48.8637 45.8698 48.8354 45.6909 48.7978 45.5214C48.7036 45.5403 48.6189 45.5591 48.5247 45.5685C48.2517 45.0413 48.6377 44.7212 48.6377 44.7212C48.4965 44.4764 48.3553 44.2222 48.2141 43.9774C48.3082 43.9585 48.3929 43.9397 48.4871 43.9303C48.4494 43.7514 48.4212 43.5725 48.3835 43.4031C48.4777 43.3842 48.5624 43.3654 48.6565 43.356C48.5718 42.9135 48.4871 42.471 48.4023 42.0285C48.4965 42.0096 48.5812 41.9908 48.6754 41.9814C48.6377 41.8025 48.6094 41.6236 48.5718 41.4542C48.6659 41.4353 48.7507 41.4165 48.8448 41.4071C49.2309 40.1831 48.8825 39.0157 50.2194 38.3943C49.9652 37.1045 49.824 36.5301 49.1743 35.8428C48.9766 35.7864 48.7789 35.7393 48.5812 35.6828L48.4306 34.8825C48.2329 34.826 48.0352 34.779 47.8374 34.7225L47.6868 33.9222C47.4891 33.8657 47.2914 33.8186 47.0937 33.7621C47.0654 33.1219 47.0372 32.4911 47.0089 31.8509C46.9148 31.8697 46.8301 31.8886 46.7359 31.898L46.0109 29.5631C46.1051 29.5442 46.1898 29.5254 46.2839 29.516C46.2463 29.3371 46.2181 29.1582 46.1804 28.9888C46.2745 28.9699 46.3593 28.9511 46.4534 28.9417C46.6794 28.4709 46.7453 28.4144 46.783 27.7742C47.056 27.7271 47.3196 27.6707 47.5926 27.6236C47.555 27.4447 47.5268 27.2658 47.4891 27.0963C47.7527 26.4091 48.4494 26.9363 48.5812 25.5146C48.7601 25.477 48.939 25.4487 49.1179 25.4111C49.2308 25.0251 49.3439 24.639 49.4474 24.2436L50.2006 23.8199C50.4266 23.1421 49.8522 22.483 50.1158 21.9087C50.3701 21.7675 50.6242 21.6262 50.869 21.485C50.9444 20.9201 51.0197 20.3552 51.1044 19.7903C51.2833 19.7527 51.4622 19.7244 51.6411 19.6868C51.3398 17.832 50.3983 15.6477 50.3983 14.6968C50.3795 14.6121 50.3606 14.5179 50.3512 14.4332C50.1723 14.4709 49.9934 14.4991 49.8146 14.5368C49.7675 14.2732 49.711 14.0095 49.6639 13.7365C49.4662 13.68 49.2685 13.6329 49.0708 13.5764C48.9296 13.3317 48.7883 13.0775 48.6471 12.8327C48.553 12.8515 48.4683 12.8703 48.3741 12.8797C47.9787 12.5502 47.9127 12.4749 47.6303 11.9194C46.1804 11.8441 45.6814 10.7425 44.3163 10.6296C44.2786 10.4507 44.2504 10.2718 44.2127 10.1023H42.8192C42.8004 10.0082 42.7816 9.91403 42.7722 9.82929C41.9625 9.97993 41.1622 10.14 40.3525 10.2906C40.3337 10.2059 40.3149 10.1117 40.3055 10.027C39.4675 10.0929 39.8253 10.5731 39.5993 10.7143C38.5919 10.8179 37.5939 10.9214 36.5865 11.0156C36.1346 12.183 34.7412 12.4843 34.6282 13.8683C34.4493 13.906 34.2705 13.9342 34.0916 13.9719C33.8186 14.4803 33.5455 14.9981 33.2725 15.5065C33.1783 15.5253 33.0936 15.5442 32.9994 15.563C32.9994 16.0243 32.9994 16.4857 32.99 16.9376C32.83 17.06 32.67 17.1824 32.5005 17.3048C32.5476 18.0297 32.5946 18.7547 32.6417 19.4796C32.5475 19.4985 32.4628 19.5173 32.3687 19.5267C32.4063 19.7056 32.4345 19.8845 32.4722 20.0539C32.3781 20.0728 32.2933 20.0916 32.1992 20.1104C32.5475 20.9578 32.8959 21.8145 33.2442 22.6619C33.5455 22.7843 33.8468 22.9161 34.1575 23.0385C34.6659 23.754 34.0351 24.4037 34.2422 24.9497C34.3364 24.9309 34.4211 24.9121 34.5152 24.9027C34.5811 25.2604 34.6471 25.6088 34.7224 25.9665C34.8165 25.9477 34.9013 25.9289 34.9954 25.9101C35.0331 26.0889 35.0613 26.2678 35.099 26.4373C35.1931 26.4185 35.2779 26.3996 35.372 26.3902C35.6921 26.9645 35.3155 27.0775 35.2591 27.2376C35.2779 27.3223 35.2967 27.4164 35.3061 27.5012C35.4003 27.4824 35.485 27.4635 35.5791 27.4447L35.9369 29.2994C35.8428 29.3183 35.758 29.3371 35.6639 29.3465C35.711 29.6101 35.7674 29.8738 35.8145 30.1468C35.7204 30.1656 35.6356 30.1844 35.5415 30.1939C35.5697 30.8341 35.598 31.4649 35.6262 32.1051C35.5321 32.1239 35.4473 32.1428 35.3532 32.1522C35.5415 32.67 35.7392 33.1784 35.9275 33.6962C35.7674 33.8186 35.6074 33.941 35.4379 34.0634C35.4568 34.1482 35.4756 34.2423 35.485 34.327C35.5792 34.3082 35.6639 34.2894 35.758 34.28C35.8804 34.9013 35.9934 35.5227 36.1158 36.1347C36.2099 36.1159 36.2947 36.0971 36.3889 36.0876L36.2758 36.935C35.8427 37.2833 35.9275 37.3869 35.3061 37.6694C35.5509 38.4508 35.7957 39.2228 36.0311 40.0043C36.1252 39.9854 36.21 39.9666 36.3041 39.9478C36.4642 40.2867 36.6148 40.6256 36.7749 40.9552C36.869 40.9363 36.9537 40.9175 37.0479 40.9081C37.1985 41.7084 37.3586 42.4992 37.5092 43.2995C37.7069 43.356 37.9046 43.4031 38.1023 43.4596C38.14 43.6384 38.1683 43.8173 38.2059 43.9868C38.3001 43.968 38.3848 43.9491 38.479 43.9303C39.1757 45.0789 39.1663 48.6284 38.9591 49.3439C38.7991 49.4663 38.639 49.5887 38.4695 49.7111C38.5919 50.3325 38.7049 50.9539 38.8273 51.5658C38.7332 51.5847 38.6484 51.6035 38.5543 51.6129C38.3942 52.3096 38.5919 53.1758 38.1023 53.6277C37.8293 53.6748 37.5657 53.7313 37.2927 53.7784C37.2362 53.9761 37.1797 54.1644 37.1232 54.3621C36.3418 55.3977 35.6356 56.4428 35.5886 57.9586C34.8354 58.2599 34.6 58.5988 34.1293 59.0696C34.1481 59.1543 34.1669 59.2485 34.1763 59.3332C33.6397 59.4368 33.103 59.5403 32.5663 59.6439C32.5852 59.7286 32.604 59.8228 32.6135 59.9075C32.3687 60.2653 32.5099 59.9263 32.444 60.4912C31.7473 60.7737 29.4688 61.9882 28.5085 61.7999C28.3861 61.6399 28.2637 61.4798 28.1413 61.3197C27.0869 61.6116 26.023 61.9129 24.9685 62.2047C24.9497 62.12 24.9308 62.0259 24.9214 61.9411L23.7916 61.8846C23.5657 61.6493 23.3303 61.4233 23.1043 61.1879C22.7465 61.2538 22.3888 61.3292 22.031 61.3951C22.0122 61.3103 21.9933 61.2162 21.9839 61.1314C21.805 61.1691 21.6261 61.1973 21.4473 61.235C21.4284 61.1503 21.4096 61.0561 21.4002 60.9714C21.0424 61.0373 20.6846 61.1126 20.3269 61.1785C20.0821 60.8584 19.8279 60.5383 19.5831 60.2182C19.1218 60.2182 18.6511 60.2182 18.1897 60.2182C18.0485 59.9734 17.9073 59.7192 17.766 59.4744C17.4836 59.4367 17.1917 59.3991 16.9093 59.3614C16.6833 59.1261 16.4479 58.9001 16.222 58.6647C16.1278 58.6836 16.0431 58.7024 15.949 58.7212L15.5912 56.8665C15.497 56.8853 15.4123 56.9041 15.3182 56.923C15.2993 56.8382 15.2805 56.7441 15.271 56.6593C14.3578 56.2262 14.2072 57.3655 13.454 55.9061C13.3598 55.925 13.2751 55.9438 13.181 55.9532C13.115 55.5954 13.0491 55.2471 12.9738 54.8893C12.8796 54.9082 12.7949 54.927 12.7008 54.9364C12.6631 54.7575 12.6349 54.5786 12.5972 54.4092C12.5031 54.428 12.4183 54.4468 12.3242 54.4562C11.8534 53.7689 11.1379 51.9048 11.345 50.7938C11.4392 50.775 11.5239 50.7562 11.618 50.7467C11.5804 50.5679 11.5521 50.389 11.5145 50.2195C11.6745 50.0971 11.8346 49.9747 12.0041 49.8523C11.7781 49.165 11.5521 48.4683 11.3262 47.781C11.5615 47.5551 11.7969 47.3197 12.0323 47.0937C12.0135 47.009 11.9946 46.9148 11.9852 46.8301C12.2583 46.5571 13.0962 46.397 13.228 46.0393C13.2186 45.4932 13.1998 44.9471 13.1904 44.3916C13.3504 44.2692 13.5104 44.1468 13.6799 44.0245C14.0189 43.4219 14.1884 42.8758 14.1319 42.0097C12.7102 41.4918 13.7459 41.3694 12.9644 40.3055C12.7667 40.2491 12.569 40.202 12.3713 40.1455C11.6934 39.4299 11.3262 38.9592 11.0532 37.6505C12.6537 36.1818 10.7142 36.5301 11.0814 34.8919L11.571 34.5248C11.5333 34.3459 11.5051 34.167 11.4674 33.9975C11.7028 33.7716 11.9382 33.5362 12.1735 33.3102C12.1265 32.5853 12.0794 31.8603 12.0323 31.1354L12.3054 31.0883C12.7761 30.1374 13.1056 30.175 13.6611 29.4501C13.8588 29.0452 14.066 28.6404 14.2637 28.2356C14.5367 28.1885 14.8003 28.132 15.0734 28.0849C15.2052 27.7836 15.3275 27.4824 15.4594 27.1811C15.7418 27.2187 16.0337 27.2564 16.3162 27.2941C16.3726 27.0963 16.4291 26.908 16.4856 26.7103C16.7586 26.6633 17.0223 26.6068 17.2953 26.5597C17.3518 26.362 17.4083 26.1737 17.4648 25.976C17.6436 25.9383 17.8225 25.9101 18.0014 25.8724C17.9826 25.7877 17.9638 25.6935 17.9543 25.6088C18.8205 25.2604 19.6773 24.9121 20.5435 24.5637C20.6 24.366 20.6564 24.1777 20.7129 23.98C20.986 23.9235 21.2496 23.8764 21.5226 23.8293C21.5038 23.7446 21.485 23.6505 21.4755 23.5657C21.6544 23.5281 21.8333 23.4998 22.0122 23.4622C21.9934 23.3774 21.9745 23.2833 21.9651 23.1985C22.2382 23.1421 22.5018 23.095 22.7748 23.0479C22.756 22.9632 22.7372 22.869 22.7277 22.7843C23.1608 22.6054 23.5939 22.4359 24.0176 22.257C23.9988 22.1723 23.9799 22.0782 23.9705 21.9934C24.3377 21.6168 24.3565 21.5415 24.9402 21.2591C24.9591 20.8919 24.9873 20.5153 25.0061 20.1481C25.185 20.1104 25.3639 20.0822 25.5428 20.0445C25.1003 17.7379 25.7687 16.1279 25.8158 14.2167L26.569 13.793C26.569 13.0398 26.7573 12.5785 27.068 12.0418L27.5576 11.6746C27.4729 11.2321 27.3881 10.7896 27.3034 10.3471C27.6235 10.1023 27.953 9.85754 28.2731 9.61275C28.3108 9.3303 28.3485 9.04785 28.3861 8.7654C28.565 8.72774 28.7439 8.6995 28.9227 8.66184C28.9416 8.29465 28.9698 7.91805 28.9887 7.55087C30.3444 6.99539 31.06 5.84676 32.444 5.23479C32.3969 4.97117 32.3404 4.70755 32.2933 4.43452C32.3875 4.41569 32.4722 4.39686 32.5663 4.38744C32.9053 3.77547 33.8185 3.01286 34.4588 2.64567C34.9107 2.56094 35.3532 2.4762 35.8051 2.39147C35.8616 2.19376 35.9181 2.00546 35.9746 1.80774C36.7372 1.32758 37.3398 1.92072 37.9047 1.71359C37.8858 1.62886 37.867 1.53471 37.8576 1.44997C38.2154 1.38407 38.5731 1.30875 38.9309 1.24284C38.912 1.15811 38.8932 1.06396 38.8838 0.979225C39.1568 0.93215 39.4204 0.875661 39.6935 0.828586C39.6746 0.743851 39.6558 0.649701 39.6464 0.564967C40.1831 0.320177 40.5032 0.677946 40.5032 0.677946C41.1999 0.451987 41.906 0.226028 42.6027 6.86857e-05C42.6216 0.0848034 42.6404 0.178953 42.6498 0.263687C42.8287 0.226028 43.0076 0.197783 43.1864 0.160123C43.2053 0.244858 43.2241 0.339007 43.2335 0.423742C43.5913 0.357837 43.9491 0.282518 44.3068 0.216613C44.3257 0.301348 44.3445 0.395497 44.3539 0.480232C44.5328 0.442572 44.7117 0.414327 44.8906 0.376667C44.9094 0.461402 44.9282 0.555552 44.9376 0.640286C45.2954 0.574381 45.6532 0.499062 46.0109 0.433157C46.2369 0.668531 46.4722 0.89449 46.6982 1.12986C47.1595 1.12986 47.6303 1.12986 48.0917 1.12986C48.1105 1.2146 48.1293 1.30875 48.1387 1.39348C48.2329 1.37465 48.3176 1.35582 48.4117 1.34641C48.4306 1.43114 48.4494 1.52529 48.4588 1.61003C48.553 1.5912 48.6377 1.57237 48.7319 1.55354C48.7695 1.73242 48.7978 1.91131 48.8354 2.08078C48.9296 2.06195 49.0143 2.04312 49.1084 2.0337C49.1743 2.39147 49.2403 2.73982 49.3156 3.09759C49.4097 3.07876 49.4945 3.05993 49.5886 3.05052C49.5698 2.96578 49.551 2.87163 49.5415 2.7869C49.9464 2.44796 51.1609 2.68333 51.4716 2.69275C51.6128 2.93754 51.7541 3.19174 51.8953 3.43653L51.8576 3.3518Z" fill="var(--fill-0, #D04A23)"/>
<path id="Vector_4" fill-rule="evenodd" clip-rule="evenodd" d="M39.9288 16.6928C39.9288 16.6928 39.9288 16.6645 39.9288 16.6551C40.3054 16.4574 40.296 16.3727 40.5031 16.0526C40.4843 16.0149 40.4749 15.9678 40.456 15.9302C40.456 15.9113 40.4372 15.8831 40.4278 15.8643C40.4937 15.7324 40.4655 15.7889 40.4184 15.7042C40.4184 15.7042 40.4278 15.7042 40.4372 15.7042C40.4278 15.6854 40.409 15.676 40.3995 15.6571C40.409 15.6383 40.4278 15.6289 40.4372 15.6101C40.409 15.5818 40.3713 15.5536 40.3431 15.5253C40.3525 15.5065 40.3713 15.4971 40.3807 15.4782C40.3431 15.3841 40.2677 15.2523 40.1642 15.1299C40.1547 15.1111 40.1454 15.1016 40.1359 15.0828C40.1548 15.0734 40.1736 15.064 40.1924 15.0546C39.8347 14.4897 39.7782 14.5462 39.3639 14.3296C39.2698 14.3673 39.1662 14.3955 39.0721 14.4332C39.0438 14.4332 39.0155 14.4332 38.9873 14.4238C38.9873 14.4238 38.9873 14.4144 38.9779 14.4049C38.9779 14.4049 38.9685 14.4144 38.9591 14.4238C38.5448 14.3767 38.4977 14.452 38.1306 14.5838C38.0929 14.6874 38.0647 14.7815 38.027 14.8851C38.0176 14.8945 38.0081 14.9133 37.9893 14.9228C37.9799 14.9228 37.9611 14.9228 37.9517 14.9228C37.9517 14.9322 37.9517 14.9416 37.9517 14.951C37.914 14.9698 37.8764 14.9887 37.8387 15.0075C37.8481 15.0263 37.8575 15.0452 37.8669 15.064C37.7445 15.1676 37.754 15.1581 37.7728 15.1864C37.6316 15.3841 37.6504 15.4877 37.5845 15.7889C37.6692 15.8831 37.7445 15.9772 37.8293 16.0714C37.8199 16.0902 37.801 16.0996 37.7916 16.1185C37.8387 16.1561 37.8764 16.175 37.914 16.2032C37.9799 16.335 38.0552 16.4668 38.1211 16.608C38.1682 16.608 38.2153 16.608 38.2624 16.608C38.3189 16.6928 38.3753 16.7775 38.4224 16.8622C38.4412 16.8528 38.4601 16.8434 38.4789 16.834C38.6672 17.0035 38.5354 16.8905 38.7426 16.8999C38.752 16.9187 38.7614 16.9376 38.7708 16.947C38.8084 16.9282 38.8461 16.9093 38.8743 16.8905C38.8837 16.9093 38.8932 16.9282 38.9026 16.9376C38.9403 16.9376 38.9873 16.9376 39.0344 16.9282C39.1003 16.947 39.1756 16.9658 39.2415 16.9752C39.2603 16.947 39.2886 16.9187 39.3074 16.8811C39.3168 16.8811 39.3262 16.8905 39.3356 16.8999C39.3545 16.8999 39.3733 16.8811 39.3828 16.8717C39.4675 16.8811 39.5428 16.8999 39.6275 16.9093C39.6275 16.8905 39.6275 16.8717 39.6275 16.8528C39.8723 16.8246 39.7217 16.8528 39.8347 16.721C39.8347 16.721 39.8535 16.721 39.8535 16.7116C39.8723 16.7116 39.8912 16.7116 39.9006 16.7116L39.9288 16.6928Z" fill="var(--fill-0, #102A4E)"/>
<path id="Vector_5" fill-rule="evenodd" clip-rule="evenodd" d="M46.5758 17.6531C46.5758 17.6531 46.5758 17.6249 46.5758 17.6155C46.9524 17.4177 46.943 17.333 47.1502 17.0129C47.1313 16.9752 47.1219 16.9282 47.103 16.8905C47.103 16.8717 47.0842 16.8434 47.0748 16.8246C47.1407 16.6928 47.1125 16.7493 47.0654 16.6645C47.0654 16.6645 47.0748 16.6645 47.0843 16.6645C47.0748 16.6457 47.056 16.6363 47.0466 16.6175C47.056 16.5986 47.0748 16.5892 47.0843 16.5704C47.056 16.5422 47.0183 16.5139 46.9901 16.4857C46.9995 16.4668 47.0184 16.4574 47.0278 16.4386C46.9901 16.3444 46.9147 16.2126 46.8112 16.0902C46.8018 16.0714 46.7924 16.062 46.783 16.0432C46.8018 16.0337 46.8206 16.0243 46.8395 16.0149C46.4817 15.45 46.4252 15.5065 46.0109 15.29C45.9168 15.3276 45.8132 15.3559 45.7191 15.3935C45.6908 15.3935 45.6626 15.3935 45.6343 15.3841C45.6343 15.3841 45.6344 15.3747 45.6249 15.3653C45.6249 15.3653 45.6155 15.3747 45.6061 15.3841C45.1918 15.337 45.1448 15.4124 44.7776 15.5442C44.7399 15.6477 44.7117 15.7419 44.674 15.8454C44.6646 15.8549 44.6552 15.8737 44.6363 15.8831C44.6269 15.8831 44.6081 15.8831 44.5987 15.8831C44.5987 15.8925 44.5987 15.9019 44.5987 15.9114C44.561 15.9302 44.5234 15.949 44.4857 15.9678C44.4951 15.9867 44.5045 16.0055 44.5139 16.0243C44.3915 16.1279 44.401 16.1185 44.4198 16.1467C44.2786 16.3444 44.2974 16.448 44.2315 16.7493C44.3162 16.8434 44.3916 16.9376 44.4763 17.0317C44.4669 17.0506 44.4481 17.06 44.4387 17.0788C44.4857 17.1165 44.5234 17.1353 44.561 17.1635C44.627 17.2954 44.7022 17.4272 44.7682 17.5684C44.8152 17.5684 44.8623 17.5684 44.9094 17.5684C44.9659 17.6531 45.0224 17.7379 45.0694 17.8226C45.0883 17.8132 45.1071 17.8038 45.1259 17.7943C45.3142 17.9638 45.1824 17.8508 45.3896 17.8603C45.399 17.8791 45.4084 17.8979 45.4178 17.9073C45.4554 17.8885 45.4931 17.8697 45.5213 17.8508C45.5308 17.8697 45.5402 17.8885 45.5496 17.8979C45.5873 17.8979 45.6344 17.8979 45.6814 17.8885C45.7473 17.9073 45.8226 17.9262 45.8885 17.9356C45.9074 17.9073 45.9356 17.8791 45.9544 17.8414C45.9639 17.8414 45.9732 17.8508 45.9827 17.8603C46.0015 17.8603 46.0204 17.8414 46.0298 17.832C46.1145 17.8414 46.1898 17.8603 46.2746 17.8697C46.2746 17.8508 46.2746 17.832 46.2746 17.8132C46.5194 17.7849 46.3687 17.8132 46.4817 17.6814C46.4817 17.6814 46.5005 17.6814 46.5005 17.672C46.5194 17.672 46.5382 17.672 46.5476 17.672L46.5758 17.6531Z" fill="var(--fill-0, #102A4E)"/>
<path id="Vector_6" fill-rule="evenodd" clip-rule="evenodd" d="M13.9716 101.832H14.2447V102.105C14.9979 102.585 14.9413 101.691 15.6192 102.651C17.0409 102.67 17.3328 102.454 17.5399 101.277C18.086 101.107 17.7753 101.314 18.086 101.004C18.4908 100.552 18.8956 96.9271 18.632 95.7879C18.6132 95.7126 18.2554 95.7126 18.359 95.2418H18.632V94.6957H18.9051C18.8109 94.4227 18.7262 94.1497 18.632 93.8766H18.9051C18.8109 93.5095 18.7262 93.1423 18.632 92.7751H18.9051V91.1275C18.8863 91.0522 18.519 91.0427 18.632 90.5814H18.9051V90.0353H19.1781C19.084 89.2162 18.9992 88.3877 18.9051 87.5686C19.084 87.4745 19.2722 87.3897 19.4511 87.2956V84.8289H19.7242V83.7273H19.9972C20.1761 83.0777 19.6959 82.9929 19.7242 82.6258H19.9972V81.5242H20.2702C20.3644 80.7051 20.4491 79.8766 20.5433 79.0575H20.2702C20.3644 78.3231 20.4491 77.5982 20.5433 76.8638H20.2702C20.1572 76.0353 20.7222 76.2895 20.8163 76.0447C20.7222 74.8584 20.6374 73.6627 20.5433 72.4764H20.2702V71.3749H20.5433V71.1018H20.2702V70.5558H19.9972C19.8183 70.8288 19.63 71.1018 19.4511 71.3749H19.1781C18.9992 71.9209 18.8109 72.4764 18.632 73.0225C18.4531 73.1166 18.2649 73.2014 18.086 73.2955V74.3971C17.813 74.576 17.5399 74.7643 17.2668 74.9431C17.1727 75.5834 17.088 76.2236 16.9938 76.8638H16.7208V77.4099H16.4477C16.3536 77.9559 16.2689 78.5114 16.1747 79.0575H15.9017C15.8076 79.9707 15.7228 80.884 15.6286 81.7972H15.3556C15.1768 82.6163 14.9884 83.4449 14.8096 84.264L15.0826 84.537H14.8096V85.0831H14.5365V87.8228H14.2635V89.1974H13.9905V92.2102C13.8681 92.6527 13.5197 93.8201 13.7174 94.6769H13.9905C14.094 95.5054 13.5103 95.2795 13.4444 95.496C13.5385 95.8632 13.6233 96.2304 13.7174 96.5976H13.4444V99.8928C13.6233 99.987 13.8116 100.072 13.9905 100.166V101.813L13.9716 101.832Z" fill="var(--fill-0, #0379EF)"/>
<path id="Vector_7" fill-rule="evenodd" clip-rule="evenodd" d="M54.3431 25.9949V24.6203C54.3525 24.5544 54.7197 24.5356 54.6162 24.0742H54.3431V23.5282H54.0701V22.1536C53.7971 22.0594 53.524 21.9747 53.251 21.8806V21.6075H52.4319C52.3377 21.4286 52.253 21.2403 52.1589 21.0615C50.8973 21.1274 50.7372 21.4569 49.9652 21.8806C49.8993 24.0366 49.9275 26.1173 51.6128 26.541V27.087C53.4016 27.087 53.3545 26.588 54.3525 25.9855L54.3431 25.9949Z" fill="var(--fill-0, white)"/>
<path id="Vector_8" fill-rule="evenodd" clip-rule="evenodd" d="M29.6103 22.0687C29.5161 22.803 29.4313 23.528 29.3372 24.2623C30.0998 24.4412 30.6553 24.8931 31.2579 25.0814C32.0487 25.3262 32.623 24.912 33.1785 24.8084C33.4986 23.0478 33.2444 23.2926 32.9055 21.7956C32.4442 21.8898 31.9922 21.9745 31.5309 22.0687V21.7956C30.6835 21.7956 30.1187 21.8804 29.6103 22.0687Z" fill="var(--fill-0, white)"/>
<path id="Vector_9" fill-rule="evenodd" clip-rule="evenodd" d="M46.8489 73.8136H47.2819V74.0301C47.5832 74.1337 48.5718 73.8136 48.5718 73.8136C48.713 74.0301 48.8636 74.2467 49.0049 74.4632H50.7278C50.8031 74.322 50.869 74.1713 50.9444 74.0301C51.2456 74.0584 50.8596 74.209 51.1609 74.2467C52.0271 74.1713 52.8838 74.1054 53.75 74.0301V73.8136H54.1831C54.3243 73.5217 54.475 73.2393 54.6162 72.9474H55.2658L55.4824 72.5143H55.6989C55.7742 72.1565 55.8402 71.7988 55.9155 71.4316C56.132 71.2904 56.3486 71.1397 56.5651 70.9985V70.5654C56.7063 70.4901 56.8569 70.4242 56.9982 70.3489C57.1394 69.9158 57.2901 69.4827 57.4313 69.059H57.6478C57.5725 68.7671 57.5066 68.4847 57.4313 68.1928C57.4972 67.8633 57.6478 67.9292 57.8644 67.7597C57.8079 66.1027 57.4972 66.8371 56.7816 66.0368H56.5651C56.4898 65.1706 56.4239 64.3139 56.3485 63.4477H56.132C56.0567 62.9487 55.9908 62.4403 55.9155 61.9413H55.6989V61.5082H55.4824C55.4071 61.0092 55.3412 60.5008 55.2658 60.0018C55.0493 59.9265 54.8328 59.8606 54.6162 59.7853V59.5687C54.861 59.4369 54.9645 58.7026 54.8327 58.2789H54.6162V57.4127H54.3996V56.9796C54.1831 56.8384 53.9665 56.6877 53.75 56.5465V56.1134C53.6088 56.0381 53.4582 55.9722 53.3169 55.8969V55.6803C52.8556 55.3979 52.7238 55.7933 52.2342 55.2473C51.8011 55.3226 51.368 55.3885 50.9444 55.4638V55.6803H50.0782V55.8969C49.6639 56.1417 49.5698 56.1982 49.4286 56.7631C48.8919 56.8949 49.0708 56.876 48.7789 57.1962H48.5624V57.6292H48.3458C48.2705 57.8458 48.2046 58.0623 48.1293 58.2789H47.6962V58.712C47.6962 58.5707 46.2934 57.9305 45.9733 57.8458C45.898 57.6292 45.832 57.4127 45.7567 57.1962C45.4648 57.1208 45.1824 57.0549 44.8905 56.9796V56.7631H44.2409C44.1656 56.6218 44.0997 56.4712 44.0244 56.33C43.4501 56.2547 42.8757 56.1888 42.3014 56.1134C42.2261 55.9722 42.1602 55.8216 42.0849 55.6803H41.6518V55.4638C41.3505 55.3979 41.7365 55.6144 41.4353 55.6803C40.8515 55.8027 40.4561 55.5768 40.1454 55.4638C39.6841 56.1228 39.8441 55.558 39.2792 55.8969C39.0627 56.1888 38.8461 56.4712 38.6296 56.7631H37.9799C37.7728 56.8855 36.982 58.3636 36.8972 58.7025C36.5771 59.0321 36.2288 60.868 36.4641 61.7248H36.6807V63.0146H36.8972V63.6642C37.0385 63.7396 37.1891 63.8055 37.3303 63.8808V64.3139H37.5469V64.9635H37.7634V65.18H38.413C38.413 66.1215 38.479 66.564 38.8461 67.1195C38.9874 67.1949 39.138 67.2608 39.2792 67.3361C39.3545 67.5526 39.4205 67.7692 39.4958 67.9857H39.9288L40.3619 68.4188C40.8892 69.1626 40.4749 69.6239 41.6518 69.9252C41.8118 70.5089 41.6989 70.4148 42.3014 70.5748C42.4332 71.1209 42.4144 70.9326 42.7345 71.2245V71.441H43.1676V71.6575C43.3841 71.7329 43.6007 71.7988 43.8172 71.8741V72.3072H44.6834C44.7588 72.5237 44.8246 72.7403 44.9 72.9568C45.5496 73.1734 46.1898 73.3899 46.8394 73.6064V73.823L46.8489 73.8136Z" fill="var(--fill-0, #F2997F)"/>
<path id="Vector_10" fill-rule="evenodd" clip-rule="evenodd" d="M72.2506 71.5725H71.7045C71.3373 71.1111 70.9702 70.6592 70.603 70.1979H70.0569C69.878 69.9248 69.6898 69.6518 69.5109 69.3788H68.9648C68.7859 69.1057 68.5976 68.8327 68.4187 68.5597C67.5431 68.023 67.7503 69.0398 67.3172 67.7406C66.1591 67.4675 66.1026 66.9403 64.5774 66.9215V66.1024C64.3985 66.0082 64.2103 65.9235 64.0314 65.8293V65.5563H63.4853C63.2122 65.1891 62.9392 64.8219 62.6662 64.4547H61.5647C61.4705 64.2759 61.3857 64.0876 61.2916 63.9087H60.7456V63.6356C60.3784 63.5415 60.0111 63.4568 59.644 63.3626V63.6356H58.5424C58.4483 63.8145 58.3636 64.0028 58.2694 64.1817C57.9964 64.2759 57.7233 64.3606 57.4503 64.4547C57.2526 64.6148 56.65 65.7917 56.3487 66.1024C56.0757 66.2812 55.8027 66.4695 55.5296 66.6484V67.4675H55.2566C54.9836 67.8347 54.7105 68.2019 54.4375 68.5691H53.8914C53.7314 69.7177 53.1382 70.0943 52.5168 70.7628C52.3379 70.8569 52.1497 70.9417 51.9708 71.0358V71.8549H51.6977C51.5188 72.1279 51.3306 72.401 51.1517 72.674H50.6056C50.5115 73.0412 50.4268 73.4084 50.3326 73.7756C49.7865 73.945 50.0972 73.7379 49.7865 74.0486C49.0616 74.7547 49.6547 75.3479 49.2404 76.2423C49.0616 76.3364 48.8732 76.4212 48.6944 76.5153V77.0614H48.4213C48.5155 77.4286 48.6002 77.7958 48.6944 78.1629C50.1254 78.5678 49.6829 79.4528 51.7072 79.5375C51.886 80.2248 51.8484 79.9894 52.2532 80.3566V80.6297H52.7993C52.9782 80.9027 53.1665 81.1757 53.3453 81.4488H54.1644V81.7218H54.7105V81.9948H55.5296C55.8027 82.362 56.0757 82.7292 56.3487 83.0964H57.1678V83.3694C57.4409 83.4636 57.7139 83.5483 57.9869 83.6424C58.0811 83.8213 58.1658 84.0096 58.26 84.1885H59.0791C59.258 84.4615 59.4463 84.7346 59.6252 85.0076C60.1712 85.1865 60.7267 85.3748 61.2728 85.5537C61.3669 85.7326 61.4517 85.9209 61.5458 86.0998C62.0919 86.1939 62.6474 86.2786 63.1934 86.3728C63.4665 86.74 63.7395 87.1072 64.0125 87.4743H64.5586C64.6528 87.6532 64.7375 87.8415 64.8316 88.0204H65.6507V88.2934C66.2909 88.4723 66.9312 88.6606 67.5714 88.8395V88.5665C68.2869 88.5382 68.5034 88.4629 68.946 88.2934C69.0401 88.0204 69.1249 87.7474 69.219 87.4743C68.5129 86.8812 68.3905 86.0527 67.8444 85.2806C67.4772 85.0076 67.1101 84.7346 66.7429 84.4615C66.6487 84.2827 66.564 84.0944 66.4698 83.9155H65.9238C65.8296 83.7366 65.7449 83.5483 65.6507 83.3694C64.7563 82.5221 63.7583 81.477 62.3555 81.1757C62.1201 80.366 61.4705 79.9894 60.7079 79.8011H59.6063C59.3333 79.3398 59.0603 78.8879 58.7872 78.4266C58.2412 78.3324 57.6857 78.2477 57.1396 78.1535C56.7724 77.6922 56.4053 77.2403 56.0381 76.7789H55.219C55.1248 76.7224 54.9742 76.3835 54.6729 76.2329V75.6868H55.219V75.4138C55.7933 74.9242 55.3884 74.8583 56.3205 74.5947C56.6312 73.4837 57.0737 73.8885 57.1396 72.401C58.0246 72.1656 58.1093 71.6949 58.7872 71.2994V70.4803C59.5781 70.2826 59.7005 70.1885 59.8888 69.3788C60.689 69.8213 61.6306 70.5274 62.6285 70.7534C62.8451 71.6289 62.9863 71.7608 64.0031 71.8549C64.3044 72.9753 64.1255 72.1938 64.8222 72.674V72.947C65.0952 73.0412 65.3683 73.1259 65.6413 73.2201V73.4931H66.4604C66.7617 74.6135 66.5734 73.8226 67.2795 74.3122C67.3737 74.4911 67.4584 74.6794 67.5526 74.8583H68.6541C68.9083 74.9807 68.6164 75.2349 69.4732 75.4044V75.9504H71.1208V75.6774C71.6669 75.5832 72.2224 75.4985 72.7684 75.4044V75.6774H73.0415C72.9473 75.3102 72.8626 74.943 72.7684 74.5758H73.0415V72.3821H72.7684C72.5895 72.1091 72.4013 71.8361 72.2224 71.563L72.2506 71.5725Z" fill="var(--fill-0, #0379EF)"/>
<path id="Vector_11" fill-rule="evenodd" clip-rule="evenodd" d="M28.5368 47.4139C28.5744 47.461 28.6121 47.5081 28.6497 47.5551C28.8474 47.3292 29.0546 47.0938 29.2523 46.8679C29.2146 46.8208 29.177 46.7737 29.1393 46.7266C29.8643 46.1523 29.7231 45.9923 29.9584 45.4274C29.6289 44.966 29.45 44.7401 29.3464 44.3164C29.3935 44.2787 29.4406 44.2411 29.4877 44.2034C29.0169 43.582 28.5462 42.9701 28.0754 42.3487C28.1225 42.311 28.1696 42.2734 28.2166 42.2357C28.0942 41.9815 27.8683 42.0662 27.8589 42.0568C27.6988 41.8968 27.9153 41.6331 27.567 41.3789C27.5199 41.4166 27.4729 41.4542 27.4258 41.4919C27.2375 41.3413 27.0398 41.1812 26.8515 41.0306C26.9551 40.8705 27.068 40.7199 27.1716 40.5598C27.1339 40.5128 27.0963 40.4657 27.0586 40.4186C27.407 40.0797 27.7459 39.7407 28.0942 39.4112C28.0566 39.3641 28.0189 39.3171 27.9813 39.27C28.0754 39.1947 28.1696 39.1288 28.2637 39.0534C28.2261 39.0064 28.1884 38.9593 28.1508 38.9122C28.292 38.7992 28.4332 38.6957 28.5744 38.5827C28.5462 38.4509 28.5274 38.3191 28.4991 38.1873C28.6403 38.0743 28.7815 37.9707 28.9227 37.8577C28.8851 37.8107 28.8474 37.7636 28.8098 37.7165C28.8568 37.6788 28.9039 37.6412 28.951 37.6035C28.6309 36.9727 28.5367 36.8786 28.2261 36.3513C28.3202 36.276 28.4143 36.2101 28.5085 36.1348C28.2166 35.7582 27.9342 35.3722 27.6423 34.9956C27.5105 35.0238 27.3787 35.0427 27.2469 35.0709C27.1433 34.9297 27.0303 34.7885 26.9174 34.6472C26.8703 34.6849 26.8232 34.7225 26.7762 34.7602C26.3148 34.0823 26.5125 33.9976 26.4466 33.4327C26.5408 33.3574 26.635 33.2915 26.7291 33.2162C26.6538 33.122 26.5878 33.0279 26.5125 32.9337C26.8044 32.6418 26.8515 32.6324 26.9739 32.3594C26.9362 32.3123 26.8985 32.2652 26.8609 32.2182C27.2845 31.8886 27.7177 31.5685 28.1413 31.239C27.9813 31.1354 27.8307 31.0225 27.6706 30.9189C27.2752 31.079 27.2281 31.0507 26.8797 31.0695C26.8421 31.0225 26.8044 30.9754 26.7667 30.9283C26.6255 31.0413 26.4843 31.1449 26.3431 31.2578C26.3054 31.2108 26.2677 31.1637 26.2301 31.1166C24.686 31.6439 24.2906 33.8187 23.8199 34.7508C23.9422 35.1086 24.0647 35.4663 24.1871 35.8241C24.14 35.8618 24.0929 35.8994 24.0458 35.9371C24.187 36.1254 24.3377 36.3137 24.4789 36.5114C24.526 36.4737 24.5731 36.4361 24.6202 36.3984C24.8649 36.8127 25.1003 37.2363 25.3451 37.6506C24.9214 37.999 24.6484 38.1778 24.4506 38.5544C24.4883 38.6015 24.526 38.6486 24.5636 38.6957C24.4224 38.8086 24.2812 38.9122 24.14 39.0252C24.1776 39.0723 24.2153 39.1193 24.253 39.1664C24.14 39.4394 24.0835 39.4583 23.7916 39.7407C23.8481 39.9196 23.914 40.0985 23.9705 40.2774C23.914 40.3998 23.8481 40.5128 23.7916 40.6351C23.8858 40.8611 23.9894 41.0871 24.0835 41.313C24.0176 41.5202 23.9422 41.7179 23.8763 41.925C24.14 42.1698 24.4036 42.424 24.6672 42.6688C24.6201 42.7064 24.5731 42.7441 24.526 42.7818C24.6013 42.8759 24.6672 42.9701 24.7425 43.0642C24.6954 43.1019 24.6484 43.1395 24.6013 43.1772C24.8555 43.5067 25.1097 43.8457 25.3639 44.1752C25.4675 44.4011 25.1851 44.2128 25.3263 44.4294C25.5522 44.5424 26.296 45.1073 26.4466 45.6063C26.3995 45.6439 26.3525 45.6816 26.3054 45.7192C26.3807 45.8134 26.4466 45.9075 26.5219 46.0017C26.4749 46.0393 26.4278 46.077 26.3808 46.1147C26.5031 46.1711 26.6161 46.2371 26.7385 46.2935C26.6915 46.3312 26.6444 46.3689 26.5973 46.4065C27.3034 47.4328 27.52 47.9317 28.4991 47.4328L28.5368 47.4139Z" fill="var(--fill-0, #AB3D1D)"/>
<path id="Vector_12" fill-rule="evenodd" clip-rule="evenodd" d="M25.2131 57.4971C25.2131 57.4971 25.2979 57.5724 25.345 57.6195C25.4956 57.3559 25.6556 57.0922 25.8063 56.8286C25.7592 56.791 25.7216 56.7533 25.6745 56.7062C26.2771 56.0095 26.1076 55.8777 26.23 55.2752C25.8251 54.8797 25.5992 54.7008 25.4109 54.3054C25.4485 54.2583 25.4862 54.2207 25.5333 54.1736C24.9495 53.6558 24.3753 53.138 23.7915 52.6201C23.8292 52.5731 23.8668 52.5354 23.9139 52.4883C23.7445 52.2529 23.5373 52.3848 23.5279 52.3848C23.3396 52.2529 23.509 51.9611 23.1136 51.7728C23.076 51.8199 23.0383 51.8575 22.9912 51.9046C22.7747 51.7916 22.5581 51.6786 22.3416 51.5657C22.4169 51.3962 22.4922 51.2173 22.5675 51.0478C22.5205 51.0102 22.4828 50.9725 22.4358 50.9254C22.7088 50.53 22.9818 50.1346 23.2549 49.7392C23.2078 49.7015 23.1701 49.6638 23.123 49.6168L23.3584 49.3531C23.3584 49.3531 23.2737 49.2778 23.2266 49.2307C23.349 49.0989 23.462 48.9671 23.5844 48.8259C23.5373 48.7035 23.4808 48.5811 23.4337 48.4493C23.5561 48.3175 23.6691 48.1857 23.7915 48.0445C23.7444 48.0068 23.7068 47.9691 23.6597 47.9221C23.6974 47.875 23.735 47.8373 23.7821 47.7903C23.349 47.2348 23.236 47.1595 22.8312 46.6981C22.9065 46.6134 22.9912 46.5192 23.0666 46.4345C22.7088 46.1144 22.351 45.7943 21.9932 45.4836C21.8708 45.5307 21.7485 45.5777 21.6167 45.6342C21.4849 45.5118 21.353 45.3989 21.2118 45.2765C21.1741 45.3235 21.1365 45.3612 21.0894 45.4083C20.5151 44.834 20.6845 44.7116 20.5151 44.1749C20.5904 44.0902 20.6751 43.996 20.7504 43.9113C20.6657 43.836 20.5716 43.7512 20.4869 43.6759C20.7222 43.3276 20.7693 43.3181 20.8258 43.0263C20.7787 42.9886 20.741 42.951 20.694 42.9039C21.0517 42.499 21.4095 42.1036 21.7673 41.6988C21.5978 41.6235 21.4189 41.5481 21.2495 41.4728C20.8917 41.7082 20.8446 41.6894 20.5057 41.7647C20.4586 41.727 20.421 41.6894 20.3739 41.6423C20.2515 41.7741 20.1385 41.9059 20.0161 42.0471C19.969 42.0095 19.9314 41.9718 19.8843 41.9247C18.472 42.7438 18.5003 44.9564 18.2084 45.9543C18.3967 46.2839 18.585 46.6134 18.7733 46.9335C18.7357 46.9806 18.698 47.0182 18.6509 47.0653C18.8298 47.2254 19.0087 47.3854 19.1876 47.5455C19.2253 47.4984 19.2629 47.4607 19.31 47.4137C19.6301 47.7808 19.9408 48.1386 20.2609 48.5058C19.9126 48.9295 19.6771 49.1554 19.5642 49.5603C19.6112 49.5979 19.6489 49.6356 19.696 49.6827C19.5736 49.8145 19.4606 49.9463 19.3382 50.0875C19.3853 50.1252 19.423 50.1628 19.47 50.2099C19.4135 50.5018 19.3665 50.53 19.1311 50.8595C19.2253 51.0196 19.3194 51.1891 19.4135 51.3491C19.3759 51.4809 19.3476 51.6033 19.31 51.7351C19.4512 51.9423 19.583 52.14 19.7243 52.3471C19.696 52.5636 19.6677 52.7708 19.6301 52.9873C19.9408 53.185 20.2421 53.3733 20.5528 53.571C20.5151 53.6181 20.4774 53.6558 20.4304 53.7029C20.5151 53.7782 20.6092 53.8629 20.694 53.9382C20.6563 53.9853 20.6186 54.023 20.5716 54.07C20.8823 54.3525 21.1929 54.6255 21.5036 54.908C21.6543 55.1151 21.3436 54.9833 21.5225 55.1622C21.7673 55.2281 22.6052 55.6423 22.85 56.1037C22.8124 56.1507 22.7747 56.1884 22.7276 56.2355C22.8124 56.3108 22.9065 56.3955 22.9912 56.4709C22.9536 56.5179 22.9159 56.5556 22.8688 56.6027C23.0006 56.6403 23.1231 56.6686 23.2549 56.7062C23.2172 56.7533 23.1795 56.791 23.1325 56.838C24.0269 57.7136 24.3376 58.1561 25.2038 57.4783L25.2131 57.4971Z" fill="var(--fill-0, #AB3D1D)"/>
<path id="Vector_13" fill-rule="evenodd" clip-rule="evenodd" d="M61.7337 49.7582C61.7337 49.7582 61.8185 49.843 61.8655 49.8806C62.0256 49.617 62.1762 49.3534 62.3363 49.0992C62.2892 49.0615 62.2515 49.0144 62.2045 48.9768C62.807 48.2801 62.6469 48.1483 62.7693 47.5551C62.3645 47.1597 62.148 46.9714 61.9597 46.576C61.9973 46.5289 62.0444 46.4912 62.0821 46.4442C61.5077 45.9263 60.9334 45.3991 60.3591 44.8813C60.3968 44.8342 60.4438 44.7965 60.4815 44.7495C60.3214 44.5141 60.1049 44.6459 60.0955 44.6459C59.9072 44.5141 60.0767 44.2222 59.6813 44.0339C59.6436 44.081 59.5965 44.1187 59.5589 44.1657C59.3423 44.0528 59.1258 43.9304 58.9092 43.8174C58.9845 43.6479 59.0599 43.469 59.1352 43.2996C59.0881 43.2619 59.0504 43.2148 59.0033 43.1772C59.2764 42.7817 59.5588 42.3863 59.8319 41.9909C59.7848 41.9532 59.7471 41.9061 59.7 41.8685C59.7848 41.7837 59.8601 41.6896 59.9448 41.6049C59.8978 41.5672 59.8601 41.5201 59.813 41.4825C59.9354 41.3507 60.0578 41.2188 60.1708 41.087C60.1237 40.9646 60.0767 40.8422 60.0296 40.7104C60.152 40.5786 60.2744 40.4468 60.3874 40.315C60.3403 40.2773 60.3026 40.2303 60.2556 40.1926C60.2932 40.1455 60.3403 40.1079 60.378 40.0608C59.9449 39.5053 59.8413 39.4206 59.4365 38.9687C59.5212 38.8839 59.5965 38.7898 59.6813 38.7051C59.3235 38.3849 58.9751 38.0648 58.6174 37.7447C58.495 37.7918 58.3725 37.8389 58.2407 37.8859C58.1089 37.7636 57.9771 37.6412 57.8453 37.5282C57.8077 37.5753 57.7606 37.6129 57.7229 37.66C57.1486 37.0763 57.3275 36.9539 57.1581 36.4172C57.2428 36.3325 57.3181 36.2383 57.4028 36.1536C57.3181 36.0689 57.2239 35.9935 57.1392 35.9088C57.3746 35.5699 57.4216 35.551 57.4876 35.2592C57.4405 35.2215 57.4028 35.1744 57.3557 35.1368C57.7135 34.7413 58.0807 34.3365 58.4385 33.9411C58.269 33.8658 58.0901 33.7904 57.9207 33.7151C57.5629 33.9411 57.5158 33.9317 57.1768 34.007C57.1298 33.9693 57.0921 33.9222 57.045 33.8846C56.9226 34.0164 56.8003 34.1482 56.6873 34.28C56.6402 34.2424 56.6026 34.1953 56.5555 34.1576C55.1338 34.9579 55.1432 37.1704 54.8514 38.1684C55.0397 38.4979 55.2185 38.8274 55.4068 39.157C55.3692 39.204 55.3221 39.2417 55.2844 39.2888C55.4633 39.4488 55.6422 39.6089 55.8117 39.7689C55.8493 39.7219 55.8964 39.6842 55.9341 39.6371C56.2448 40.0043 56.5649 40.3715 56.8756 40.7293C56.5178 41.1529 56.2918 41.3695 56.1694 41.7743C56.2165 41.812 56.2542 41.8591 56.3013 41.8967C56.1789 42.0285 56.0565 42.1603 55.9435 42.2922C55.9906 42.3298 56.0282 42.3769 56.0753 42.4145C56.0188 42.7064 55.9623 42.7347 55.727 43.0642C55.8211 43.2242 55.9152 43.3937 56 43.5538C55.9623 43.6856 55.9247 43.808 55.8964 43.9398C56.0376 44.1469 56.1695 44.354 56.3107 44.5517C56.2824 44.7683 56.2448 44.9754 56.2166 45.192C56.5178 45.3897 56.8285 45.5874 57.1298 45.7851C57.0921 45.8322 57.045 45.8698 57.0074 45.9169C57.0921 46.0016 57.1863 46.077 57.271 46.1617C57.2334 46.2088 57.1863 46.2464 57.1486 46.2935C57.4593 46.576 57.77 46.8584 58.0807 47.1409C58.2313 47.348 57.9112 47.2162 58.0901 47.3951C58.3349 47.461 59.1728 47.8846 59.4082 48.346C59.3705 48.3931 59.3234 48.4307 59.2858 48.4778C59.3705 48.5625 59.4647 48.6378 59.5494 48.7226C59.5118 48.7696 59.4647 48.8073 59.427 48.8544C59.5588 48.892 59.6812 48.9297 59.813 48.9579C59.7754 49.005 59.7283 49.0427 59.6907 49.0898C60.5757 49.9748 60.8769 50.4173 61.7525 49.7488L61.7337 49.7582Z" fill="var(--fill-0, #AB3D1D)"/>
</g>
</svg>
