<svg preserveAspectRatio="none" width="100%" height="100%" overflow="visible" style="display: block;" viewBox="0 0 56.4898 55.2022" fill="none" xmlns="http://www.w3.org/2000/svg">
<g id="Group">
<path id="Vector" fill-rule="evenodd" clip-rule="evenodd" d="M55.5013 31.2673C55.9155 30.8625 55.7084 30.2976 55.9061 29.9869C55.9532 30.0057 56.0097 30.034 56.0567 30.0528C56.1697 29.6762 56.2827 29.2996 56.3957 28.923C56.3204 28.8289 56.245 28.7253 56.1603 28.6312C56.2545 28.3016 56.3392 27.9815 56.4333 27.652C56.3863 27.6332 56.3298 27.6049 56.2827 27.5861C56.3486 27.4355 56.4239 27.2848 56.4898 27.1342C56.3392 26.9365 56.1791 26.7482 56.0285 26.5504C56.1226 26.3527 56.2168 26.1456 56.3109 25.9479C56.2639 25.9291 56.2074 25.9008 56.1603 25.882C56.1038 25.609 56.0473 25.3359 55.9814 25.0629C55.8308 24.997 55.6801 24.9217 55.5295 24.8558C55.5954 24.7051 55.6707 24.5545 55.7366 24.4038C55.6896 24.385 55.6331 24.3568 55.586 24.3379C55.4918 23.6224 54.9081 23.387 54.3526 23.0293C54.3997 22.9257 54.4468 22.8315 54.4939 22.728C54.1455 22.5114 54.0137 22.3137 53.43 22.2384C53.4111 22.2855 53.3829 22.342 53.3641 22.389C53.1663 22.2949 52.9592 22.2007 52.7615 22.1066C52.7427 22.1537 52.7144 22.2102 52.6956 22.2572C52.545 22.1913 52.3943 22.116 52.2437 22.0501C52.1495 22.1254 52.046 22.2007 51.9518 22.2855C51.7541 22.1913 51.547 22.0972 51.3493 22.003C51.3304 22.0501 51.3022 22.1066 51.2834 22.1537C50.8314 22.1913 50.4266 22.3043 50.1065 22.7091C49.9558 22.6432 49.8052 22.5679 49.6546 22.502C49.551 22.5962 49.3062 22.9728 49.2215 23.0387C49.0991 23.0387 48.9767 23.0387 48.8449 23.0481C48.7978 23.1516 48.7507 23.2458 48.7037 23.3494C48.6566 23.3305 48.6001 23.3023 48.553 23.2835C48.44 23.5377 48.3176 23.7919 48.2047 24.0367C48.1576 24.0178 48.1011 23.9896 48.054 23.9707C47.894 24.3285 47.7245 24.6769 47.5644 25.0346C47.5174 25.0158 47.4609 24.9876 47.4138 24.9687C47.395 25.0158 47.3667 25.0723 47.3479 25.1194L47.4985 25.1853C47.4797 25.2324 47.4515 25.2888 47.4326 25.3359C47.4044 25.3736 47.2161 25.2983 47.1408 25.5713C47.1408 25.5901 47.3479 25.7408 47.1502 25.9479C47.0278 25.9479 46.9054 25.9479 46.7736 25.9573C46.6794 26.155 46.5853 26.3622 46.4911 26.5599C46.3687 26.5599 46.2463 26.5599 46.1145 26.5693C45.7379 26.9082 45.785 27.5484 45.7097 27.8497C45.2389 27.6332 44.9094 27.539 44.5799 27.5108C44.4387 27.6897 44.288 27.8685 44.1468 28.0474C44.1468 28.0474 44.3257 28.3487 44.0903 28.5747C43.9679 28.5747 43.8455 28.5747 43.7137 28.5841C43.6007 28.8383 43.4783 29.0925 43.3654 29.3373C43.4407 29.4314 43.516 29.535 43.6007 29.6291C43.4783 29.7609 43.356 29.8833 43.243 30.0152C43.29 30.034 43.3465 30.0622 43.3936 30.0811C43.2995 30.2788 43.2053 30.4859 43.1112 30.6836C43.243 30.9284 43.3748 31.1732 43.5066 31.418C43.4595 31.5215 43.4124 31.6157 43.3654 31.7193C43.4407 31.8134 43.516 31.917 43.6007 32.0111C43.5819 32.0582 43.5537 32.1147 43.5348 32.1618C43.6384 32.2088 43.7326 32.2559 43.8361 32.303C43.789 32.4066 43.742 32.5007 43.6949 32.6043C43.8738 32.7455 44.0527 32.8961 44.2315 33.0374C44.2315 33.0374 44.4104 32.8396 44.6081 33.0279C44.6081 33.1503 44.6081 33.2727 44.6176 33.4045C45.2013 33.7341 45.785 34.0636 46.3593 34.3931C46.3782 34.346 46.4064 34.2895 46.4252 34.2425C47.1408 34.3084 47.5927 34.4308 48.3835 34.7791C48.5059 34.6473 48.6283 34.5249 48.7413 34.3931C49.3627 34.6944 49.824 34.9298 50.2477 34.7226C50.3701 34.5908 50.4925 34.4684 50.6055 34.3366C50.7561 34.4025 50.9068 34.4778 51.0574 34.5438C51.0762 34.4967 51.1045 34.4402 51.1233 34.3931C51.7164 34.3555 52.0366 34.4214 52.4508 33.9035C52.5544 33.9506 52.6485 33.9977 52.7521 34.0448C53.0063 33.7435 53.0534 33.7341 53.3358 33.5834L53.4865 33.6493C53.5335 33.5458 53.5806 33.4516 53.6277 33.3481C53.6748 33.3669 53.7312 33.3951 53.7783 33.414C53.9666 33.1315 54.1549 32.8585 54.3526 32.576C54.475 32.576 54.5974 32.576 54.7292 32.5666C55.1152 32.2277 54.9646 31.4745 55.1341 31.2862C55.2565 31.2862 55.3789 31.2862 55.5107 31.2768L55.5013 31.2673Z" fill="var(--fill-0, #F2997F)"/>
<path id="Vector_2" fill-rule="evenodd" clip-rule="evenodd" d="M0 46.4631C0 46.4631 0.188299 46.4631 0.235374 46.9338V48.3461C0.470748 48.5061 0.706122 48.6568 0.941497 48.8168C0.866177 49.3629 0.781442 49.9184 0.706122 50.4644H0.941497V51.1706H1.17687C1.24278 51.4342 0.941497 51.6413 0.941497 51.6413C1.01682 51.8767 1.10155 52.1121 1.17687 52.3474C1.80767 52.5169 1.91124 52.724 2.35374 53.0536V53.2889C2.5138 53.2136 2.66444 53.1289 2.82449 53.0536C2.89981 53.2136 2.98454 53.3642 3.05986 53.5243H3.53061V53.7597C4.23673 53.835 4.94286 53.9197 5.64898 53.9951V54.2304H6.11973V54.4658C8.5582 54.6259 10.9873 54.7765 13.4257 54.9365V55.1719C14.1319 55.0966 14.838 55.0119 15.5441 54.9365V55.1719C16.109 55.3037 16.1561 54.9648 16.4856 54.9365C16.721 55.0119 16.9563 55.0966 17.1917 55.1719V54.9365H19.0747C19.1406 54.9554 24.9497 55.1719 25.6746 54.9365V54.7012H26.1454V54.4658C26.5125 54.5129 26.5879 54.9271 26.6161 54.9365H27.3222V54.7012C27.5576 54.7765 27.793 54.8612 28.0284 54.9365V54.7012H30.1467C31.2012 54.3528 32.3027 53.562 33.2066 53.0536C33.2537 51.5189 33.442 50.9823 33.442 49.0428V46.9244H33.2066V46.689L33.6773 46.4537C33.7244 46.2559 33.1595 45.5592 33.442 45.0414H33.6773V42.923H33.9127V43.3938C34.2234 43.4691 34.5435 43.5538 34.8542 43.6292V43.8645H35.7957C35.871 44.0246 35.9558 44.1752 36.0311 44.3353H36.7372V44.5707C37.4433 44.4106 38.1494 44.26 38.8556 44.0999C38.9309 43.9399 39.0156 43.7892 39.0909 43.6292C39.3263 43.7045 39.5617 43.7892 39.7971 43.8645V43.6292H40.2678C40.3431 43.4691 40.4279 43.3185 40.5032 43.1584C40.8986 43.0831 41.2846 42.9984 41.6801 42.923C41.7554 42.763 41.8401 42.6124 41.9154 42.4523H42.3862C42.4615 42.2922 42.5462 42.1416 42.6215 41.9816L43.3277 41.7462V41.5108C43.563 41.4355 43.7984 41.3507 44.0338 41.2754V40.8047C44.3445 40.7294 44.6646 40.6446 44.9753 40.5693V40.0986C45.6814 39.7031 46.3875 39.3171 47.0937 38.9217V38.4509C47.329 38.3756 47.5644 38.2909 47.7998 38.2156V37.9802H48.2705V37.7448C48.6189 37.4247 48.6001 37.6318 48.7413 37.0387H49.212C49.3532 36.5679 49.1838 36.8316 49.4474 36.5679C49.3909 35.2028 49.0896 34.346 48.5059 33.5081C48.2705 33.348 48.0352 33.1974 47.7998 33.0373V32.5666H47.5644V32.0958H47.329V31.3897C47.0937 31.2297 46.8583 31.079 46.6229 30.919C46.5476 30.5235 46.4629 30.1375 46.3875 29.7421C46.2275 29.6668 46.0768 29.582 45.9168 29.5067C45.8415 29.196 45.7567 28.8759 45.6814 28.5652C45.4366 28.1133 44.9847 27.6237 44.7399 27.153H43.563V26.9176H43.3277V27.153H42.6215C42.5462 27.313 42.4615 27.4637 42.3862 27.6237H41.9154C41.8401 27.7838 41.7554 27.9344 41.6801 28.0945C41.3694 28.1698 41.0492 28.2545 40.7386 28.3298V28.5652H40.2678C40.1925 28.7253 40.1078 28.8759 40.0324 29.036H39.5617C39.4864 29.196 39.4016 29.3467 39.3263 29.5067H38.8556C38.6955 29.7421 38.5449 29.9775 38.3848 30.2128C38.1494 30.2882 37.9141 30.3729 37.6787 30.4482V30.919C36.8031 31.0319 36.6713 31.3238 36.0311 31.6251C35.485 30.8436 34.9295 30.0528 34.3835 29.2713H33.9127C33.7338 28.6311 33.8562 28.7347 33.2066 28.5652C32.8959 27.4166 31.8697 27.3319 31.3236 26.4469H30.3821C30.0337 25.2041 29.4124 25.5901 28.4991 25.0346C28.4238 24.8746 28.339 24.7239 28.2637 24.5639H27.5576V24.3285H27.0869V24.0931H26.3807V23.8577H25.6746V23.6224H25.2039V23.387H24.027V23.1516C23.6975 23.0857 23.5562 23.387 23.5562 23.387C23.0572 23.4247 23.0855 23.1516 23.0855 23.1516C22.3041 23.2269 21.5132 23.3117 20.7318 23.387V23.6224H20.261V23.8577C19.7338 24.0366 18.9429 23.6035 18.8488 23.6224V23.8577H18.378V24.0931H17.4365V24.3285H16.7304V24.5639H15.7889V24.7992H15.3181V25.0346C14.6873 25.1099 14.0565 25.1947 13.4352 25.27C13.3598 25.43 13.2751 25.5807 13.1998 25.7407H12.0229C11.8629 25.9761 11.7122 26.2115 11.5522 26.4469H10.846V26.6822H10.3753V26.9176H9.90454C9.82922 27.0777 9.74449 27.2283 9.66917 27.3884H9.19842C9.1231 27.5484 9.03836 27.699 8.96304 27.8591H8.4923V28.0945C8.25692 28.1698 8.02155 28.2545 7.78617 28.3298V28.8006C7.14596 28.9607 7.24952 29.1207 6.6093 29.2713C6.25153 30.7872 5.31945 30.2976 4.96168 31.6251H4.49094C4.41562 31.9358 4.33088 32.2559 4.25556 32.5666H4.02019C4.07668 32.8773 4.3403 33.0656 4.02019 33.5081C3.62476 33.7435 3.23875 33.9788 2.84332 34.2142V35.1557C2.60794 35.3158 2.37257 35.4664 2.13719 35.6264V36.3326H1.90182V36.8033H1.66645C1.59113 37.4341 1.50639 38.0649 1.43107 38.6863H1.1957V39.1571H0.960323V39.8632H0.724949V41.7462C0.564895 41.8215 0.414255 41.9062 0.254201 41.9816C-0.207132 43.0172 0.376595 43.4785 0.724949 44.0999H0.254201C0.178881 44.8814 0.0941465 45.6722 0.0188268 46.4537L0 46.4631Z" fill="var(--fill-0, #FFBE00)"/>
<path id="Vector_3" fill-rule="evenodd" clip-rule="evenodd" d="M4.34962 18.5852C4.50026 18.6605 4.6509 18.7359 4.80154 18.8112C5.24405 19.3478 5.23463 19.828 5.25346 20.8542C6.00666 21.2026 6.67512 21.7392 7.07055 22.4454H7.74843C7.81433 23.6128 8.22859 23.5469 8.65226 24.2624C9.10418 24.3378 9.5561 24.4131 10.008 24.4884C10.0833 24.7144 10.1587 24.9403 10.234 25.1663L10.4599 25.3922H11.5897C11.6651 25.5429 11.7404 25.6935 11.8157 25.8442H12.9455C13.0208 25.9948 13.0961 26.1454 13.1714 26.2961H13.6234V26.522C13.8493 26.4467 14.0753 26.3714 14.3012 26.2961V26.522C15.1674 27.1152 14.3671 27.0681 14.7532 27.8778C14.9038 27.9531 15.0544 28.0284 15.2051 28.1038V28.7816C15.3557 28.857 15.5064 28.9323 15.657 29.0076V30.1374C15.883 30.2127 16.1089 30.288 16.3349 30.3633C16.4102 30.6646 16.4855 30.9659 16.5608 31.2672H17.0128V31.4931C17.9448 31.7003 18.0202 30.8153 18.8298 31.7191C19.2818 31.6438 19.7337 31.5685 20.1856 31.4931C20.2609 31.3425 20.3362 31.1919 20.4116 31.0412H21.0894V30.8153H21.7673V30.5893H22.4452C22.5205 30.4387 22.5958 30.288 22.6712 30.1374H23.1231C23.2737 29.8361 23.4243 29.5348 23.575 29.2335C23.9045 29.0076 24.2434 29.2995 24.4788 29.0076C24.8648 28.5463 24.9119 27.8401 25.3827 27.4165C25.3356 26.8327 25.3544 26.635 25.1567 26.2867H24.9307V25.3828H24.7048C24.7801 25.1569 24.8554 24.9309 24.9307 24.7049C25.8346 24.5543 26.7478 24.4037 27.6517 24.253C27.727 24.1024 27.8023 23.9518 27.8776 23.8011H28.3295V23.5752H29.2334V23.3492C29.6006 23.095 29.61 23.0291 30.1372 22.8973C30.2125 22.4454 30.2879 21.9934 30.3632 21.5415C31.0975 21.4568 31.0222 21.3344 31.493 21.0896V20.1858H31.9449C32.0202 19.7338 32.0955 19.2819 32.1708 18.83H32.3968C32.5757 18.2369 32.1897 17.7755 32.1708 17.4743C32.3215 17.3989 32.4721 17.3236 32.6228 17.2483V14.7533H32.3968C32.4721 14.3767 32.5474 14.0001 32.6228 13.6235H32.3968V13.1716H32.1708C32.0955 12.8421 32.3968 12.7197 32.3968 12.7197C32.3215 12.4184 32.2462 12.1171 32.1708 11.8159H31.9449V10.912C31.7943 10.8367 31.6436 10.7614 31.493 10.6861V9.55626C31.0411 9.25499 30.5891 8.95371 30.1372 8.65243V7.74859H29.9113C29.4028 6.76002 29.3746 6.81652 28.3295 6.39284V5.94092C27.8211 5.7997 27.7646 5.75262 27.4257 5.489V5.26304H26.9738V5.03709C26.5972 4.96177 26.2206 4.88645 25.844 4.81113C25.7687 4.66049 25.6934 4.50985 25.618 4.35921H24.9402C24.8648 4.20857 24.7895 4.05792 24.7142 3.90729C24.4882 3.9826 24.2623 4.05793 24.0363 4.13325C23.961 3.98261 23.8857 3.83197 23.8104 3.68133C23.2831 3.4742 22.9536 3.87904 22.6806 3.90729C22.5299 3.68133 22.3793 3.45537 22.2286 3.22941C21.7767 3.30473 21.3248 3.38005 20.8729 3.45537C20.7976 3.30473 20.7223 3.15409 20.6469 3.00345C20.2703 3.07877 19.8937 3.15409 19.5171 3.22941V3.45537C18.8393 3.55894 19.037 3.07877 18.8393 3.00345H17.9354V3.22941C17.6153 3.27649 18.0296 3.02228 17.7095 3.00345L16.1277 3.22941V3.45537C15.1674 3.4742 14.9509 3.56835 14.772 4.35921C14.4707 4.28389 14.1694 4.20857 13.8682 4.13325C13.7081 4.02027 13.8682 3.81314 13.4162 3.90729C13.3409 4.05792 13.2656 4.20857 13.1903 4.35921C12.5501 4.63224 12.0417 4.31213 11.5991 4.81113C11.5238 5.03709 11.4485 5.26304 11.3732 5.489H10.4694V5.71496C9.7444 6.08215 9.34897 5.95975 9.11359 6.84476C8.81232 6.92008 8.51104 6.99539 8.20976 7.07071V7.52264C7.9838 7.59796 7.75784 7.67327 7.53188 7.74859C7.42832 8.31349 7.31534 8.57711 7.30592 9.33031C6.854 9.48095 6.40209 9.63159 5.95017 9.78223C5.72421 10.4601 5.49825 11.138 5.27229 11.8253C5.12165 11.9006 4.97101 11.9759 4.82037 12.0512V12.9551H4.59441V13.8589H4.36845V15.2147H4.14249C4.21781 15.5913 4.29313 15.9679 4.36845 16.3445H4.14249C4.21781 17.0977 4.29313 17.8509 4.36845 18.6135L4.34962 18.5852Z" fill="var(--fill-0, #F2997F)"/>
<path id="Vector_4" fill-rule="evenodd" clip-rule="evenodd" d="M2.72071 24.0554C3.37975 24.1966 3.4739 24.2719 3.64337 24.931C4.69785 25.1287 5.76174 25.3264 6.81622 25.5147C6.81622 25.59 6.81622 25.6653 6.81622 25.7406C7.54117 25.976 8.11548 25.6936 8.6333 26.1361C9.3865 26.1172 10.1397 26.089 10.8835 26.0702C10.8835 25.9949 10.8835 25.9195 10.8835 25.8442C11.2601 25.5429 11.3636 25.204 11.7591 24.9215C11.712 22.8973 11.6461 20.6754 12.0415 19.056C11.9474 18.3781 11.8532 17.7097 11.7591 17.0318C11.8344 17.0318 11.9097 17.0318 11.985 17.0318C11.985 16.8812 11.985 16.7305 11.9756 16.5799C12.0509 16.5799 12.1263 16.5799 12.2016 16.5799C12.1168 16.128 12.0227 15.6855 11.938 15.2335C11.938 15.1582 11.938 15.0829 11.938 15.0076C12.0133 15.0076 12.0886 15.0076 12.1639 15.0076C12.1545 14.631 12.1451 14.2544 12.1357 13.8778C12.0604 13.8778 11.985 13.8778 11.9097 13.8778C11.9756 13.6518 12.0509 13.4259 12.1168 13.1999C12.5688 13.1152 13.0113 13.021 13.4632 12.9363C13.4632 12.861 13.4632 12.7857 13.4632 12.7103H13.9151C13.9151 12.6256 13.9151 12.5503 13.9151 12.475C14.367 12.4655 14.8189 12.4467 15.2709 12.4373C15.2709 12.362 15.2709 12.2867 15.2709 12.2113C15.5721 12.1266 15.864 12.0419 16.1653 11.9571C16.1653 11.8818 16.1653 11.8065 16.1653 11.7312H16.6172C16.6925 11.5617 16.7584 11.4111 16.8337 11.2604C17.5022 11.091 18.1801 10.9215 18.8485 10.752C18.9239 10.6014 18.9898 10.4507 19.0651 10.2907C19.3664 10.206 19.6582 10.1212 19.9595 10.0365C20.1007 9.81052 20.2514 9.57515 20.3926 9.3492C20.5432 9.3492 20.6939 9.34919 20.8445 9.33978C20.9198 9.18914 20.9857 9.0385 21.0611 8.87845C21.3623 8.87845 21.6636 8.85961 21.9649 8.8502C21.9649 8.77488 21.9649 8.69956 21.9649 8.62424C22.4074 8.29472 22.6522 8.05934 23.3018 7.9087C23.4713 7.18375 23.8573 7.09901 24.168 6.53412C24.3186 6.53412 24.4693 6.53412 24.6199 6.52471C24.7047 6.9013 24.7894 7.26848 24.8741 7.64508C24.9494 7.64508 25.0248 7.64508 25.1001 7.64508C25.1095 8.097 25.1283 8.54892 25.1377 9.00084C25.2131 9.00084 25.2884 9.00084 25.3637 9.00084C25.3637 9.2268 25.3731 9.45276 25.3825 9.67872C25.4579 9.67872 25.5332 9.67872 25.6085 9.67872C25.6179 10.0553 25.6273 10.4319 25.6367 10.8085C25.7121 10.8085 25.7874 10.8085 25.8627 10.8085C25.8627 10.9592 25.8627 11.1098 25.8721 11.2604C25.9474 11.2604 26.0228 11.2604 26.0981 11.2604C26.0981 11.5617 26.1169 11.863 26.1263 12.1643C26.2016 12.1643 26.277 12.1643 26.3523 12.1643C26.3523 12.3902 26.3617 12.6162 26.3711 12.8421C26.4464 12.8421 26.5217 12.8421 26.5971 12.8421C26.5312 13.0681 26.4558 13.2941 26.3899 13.52C26.4653 13.52 26.5406 13.52 26.6159 13.52C26.6159 13.746 26.6253 13.9719 26.6347 14.1979C26.71 14.1979 26.7854 14.1979 26.8607 14.1979C26.8983 15.5537 26.936 16.9 26.9737 18.2558C26.8983 18.2558 26.823 18.2558 26.7477 18.2558C26.7477 18.557 26.7665 18.8583 26.7759 19.1596C26.8513 19.1596 26.9266 19.1596 27.0019 19.1596C27.0019 19.2349 27.0019 19.3102 27.0019 19.3855C26.9266 19.3855 26.8513 19.3855 26.7759 19.3855C26.7854 19.8375 26.8042 20.2894 26.8136 20.7413C26.8889 20.7413 26.9642 20.7413 27.0396 20.7413C26.9737 21.1932 26.9172 21.6451 26.8513 22.0971C26.9266 22.0971 27.0019 22.0971 27.0772 22.0971C27.1525 23.0668 27.2373 22.8597 27.5668 23.434C28.2447 23.4905 28.9226 23.547 29.6004 23.6035C29.6004 23.5281 29.6004 23.4528 29.6004 23.3775C30.0524 23.3681 30.5043 23.3493 30.9562 23.3398C31.6906 22.7184 32.4249 22.0971 33.1593 21.4757C33.1593 21.2497 33.1499 21.0237 33.1405 20.7978C33.2911 20.7225 33.4323 20.6377 33.583 20.5624C33.5736 20.1858 33.5641 19.8092 33.5547 19.4326C33.63 19.4326 33.7054 19.4326 33.7807 19.4326V18.9807C33.8466 18.9807 33.9219 18.9807 33.9972 18.9807C33.9972 18.7547 33.9878 18.5288 33.9784 18.3028C34.0537 18.3028 34.129 18.3028 34.2044 18.3028C34.1196 17.8509 34.0255 17.4084 33.9407 16.9565C34.0161 16.9565 34.0914 16.9565 34.1667 16.9565C34.1479 16.4292 34.1384 15.902 34.1196 15.3842C34.1196 15.3842 33.7995 15.2995 33.8748 14.7157C33.8748 14.6875 34.1761 14.6122 34.0914 14.2544C34.0161 14.2544 33.9407 14.2544 33.8654 14.2544C33.8654 14.0284 33.856 13.8025 33.8466 13.5765C33.7713 13.5765 33.6959 13.5765 33.6206 13.5765C33.6018 13.0493 33.5924 12.522 33.5735 12.0042C33.4982 12.0042 33.4229 12.0042 33.3476 12.0042C33.3476 11.7029 33.3288 11.4017 33.3193 11.1004C33.244 11.1004 33.1687 11.1004 33.0934 11.1004C33.0934 10.8744 33.084 10.6485 33.0746 10.4225C32.9992 10.4225 32.9239 10.4225 32.8486 10.4225C32.8486 10.1965 32.8392 9.97058 32.8298 9.74462C32.7544 9.74462 32.6791 9.74462 32.6038 9.74462C32.6038 9.44334 32.585 9.14207 32.5756 8.84079C32.5002 8.84079 32.4249 8.84079 32.3496 8.84079C32.3496 8.69015 32.3496 8.5395 32.3402 8.38886C32.1896 8.31355 32.0389 8.24764 31.8789 8.17232C31.7941 7.72041 31.7 7.2779 31.6152 6.82598C31.4646 6.75066 31.314 6.68476 31.1539 6.60944C31.1539 6.4588 31.1539 6.30816 31.1445 6.15752C30.9939 6.0822 30.8432 6.01629 30.6832 5.94097C30.6832 5.79034 30.6832 5.63969 30.6737 5.48905C30.5231 5.41373 30.3725 5.34783 30.2124 5.27251C30.2124 5.12187 30.2124 4.97123 30.203 4.82059C30.0524 4.74527 29.9017 4.67937 29.7417 4.60405C29.3556 4.16155 28.9696 3.72846 28.5742 3.28595C28.4236 3.28595 28.2729 3.28596 28.1223 3.29537C27.8869 3.00351 27.6515 2.71164 27.4256 2.41036C27.2749 2.41036 27.1243 2.41036 26.9737 2.41978C26.8136 2.20323 26.663 1.97728 26.5029 1.76073C26.3523 1.76073 26.2016 1.76073 26.051 1.77014C26.051 1.69482 26.051 1.6195 26.051 1.54418C25.7497 1.54418 25.4484 1.56302 25.1472 1.57243C25.0718 1.42179 24.9871 1.28057 24.9118 1.12993C24.6105 1.12993 24.3092 1.14876 24.0079 1.15817C23.9326 1.00753 23.8479 0.866309 23.7726 0.71567C23.396 0.725084 23.0194 0.734498 22.6428 0.743913C22.5675 0.593274 22.4827 0.452048 22.4074 0.301409C21.7295 0.320239 21.0516 0.33907 20.3832 0.3579C20.3832 0.28258 20.3832 0.207259 20.3832 0.131939C19.2534 0.160184 18.133 0.197846 17.0032 0.226091C17.0032 0.150771 17.0032 0.0754498 17.0032 0.00013007C16.9279 0.00013007 16.8526 0.00013007 16.7773 0.00013007C16.7773 0.0754498 16.7773 0.150771 16.7773 0.226091C16.1747 0.244921 15.5721 0.26375 14.979 0.273165C14.9037 0.423804 14.8378 0.574445 14.7624 0.7345C14.4423 0.856894 14.3011 0.517952 14.3011 0.517952C13.9245 0.602687 13.5573 0.687422 13.1807 0.772157C13.1054 0.922796 13.0395 1.07344 12.9642 1.23349C12.6629 1.23349 12.3616 1.25232 12.0604 1.26174C12.0604 1.33706 12.0604 1.41238 12.0604 1.4877C11.8344 1.4877 11.6084 1.49711 11.3825 1.50653C11.3072 1.65717 11.2412 1.8078 11.1659 1.96786C10.8647 1.96786 10.5634 1.98669 10.2621 1.99611C10.1868 2.14674 10.1209 2.29738 10.0455 2.45744C9.81959 2.45744 9.59363 2.46685 9.36767 2.47627C9.29235 2.62691 9.22645 2.77754 9.15113 2.9376C8.92517 2.9376 8.69921 2.94702 8.47325 2.95643C8.39793 3.10707 8.33202 3.25771 8.2567 3.41776C8.03075 3.5025 7.8142 3.57782 7.58824 3.66255C7.58824 3.73787 7.58824 3.81319 7.58824 3.88851C7.36228 3.97325 7.14574 4.04857 6.91978 4.1333C6.91978 4.28394 6.91978 4.43458 6.92919 4.58522C6.27015 5.13129 5.6111 5.67736 4.94264 6.22343C4.87673 6.44939 4.80141 6.67534 4.73551 6.9013C4.51896 7.06135 4.293 7.21199 4.07646 7.37205C4.01056 7.67333 3.94465 7.97461 3.87875 8.27589C3.80343 8.27589 3.72811 8.27589 3.65279 8.27589C3.65279 8.50185 3.6622 8.7278 3.67162 8.95376C3.37975 9.18914 3.08789 9.42451 2.78661 9.65047C2.78661 9.95175 2.80544 10.253 2.81485 10.5543C2.66422 10.6296 2.52299 10.7144 2.37235 10.7897C2.30645 11.1663 2.24054 11.5429 2.17464 11.9195C2.09932 11.9195 2.024 11.9195 1.94868 11.9195C1.8357 13.2752 1.72272 14.631 1.60974 15.9867C1.43086 16.6552 1.19548 19.2914 1.50618 20.2706C1.89219 21.4851 2.56065 22.7749 2.73954 24.0648L2.72071 24.0554Z" fill="var(--fill-0, #EC685E)"/>
<path id="Vector_5" fill-rule="evenodd" clip-rule="evenodd" d="M9.22652 9.97999C10.2433 9.61281 11.6744 8.29471 12.1734 7.37205H12.5218C12.6347 6.91071 13.0396 6.2046 13.3879 5.98805V5.12187H13.2185V4.9524C13.1055 4.91474 12.0322 5.55496 11.6556 5.64911V5.99746C11.2884 5.53613 11.0342 6.3364 10.7894 6.51529C10.6199 6.57178 10.4411 6.62827 10.2716 6.68476V7.03311C10.0362 7.0896 9.81025 7.14609 9.57488 7.20258V7.55093C9.17003 7.7204 8.76519 7.89929 8.36034 8.06876V8.41711H7.84252C7.65422 8.89727 7.55066 9.52807 7.14581 9.80111V10.1495C7.88959 9.89526 8.37918 10.2813 9.22652 9.97999Z" fill="var(--fill-0, #C95B52)"/>
<path id="Vector_6" fill-rule="evenodd" clip-rule="evenodd" d="M12.7009 9.4621C12.5314 9.51858 12.3525 9.57507 12.1831 9.63156V9.80103H11.6652V9.9705C11.3451 10.1965 11.3357 10.253 10.7991 10.3189V10.8367H10.4507C10.7426 11.2039 10.8085 10.9308 10.9685 11.5334C12.249 11.4863 12.9645 11.0438 13.7459 10.4883C13.8024 10.3754 13.8589 10.253 13.9154 10.14C14.0849 10.0835 14.2638 10.027 14.4332 9.9705V9.80103C14.6027 9.74454 14.7816 9.68805 14.9511 9.63156C15.0735 9.17965 15.2241 9.06667 15.4689 8.76539H15.6384V8.41703C15.7513 8.36054 15.8737 8.30405 15.9867 8.24756C16.0997 7.67325 16.2221 7.08953 16.3351 6.51521H15.9867C15.8455 7.06128 15.5913 7.14602 15.4689 7.72974C15.0735 7.84272 15.0452 7.88038 14.7722 8.07809V8.24756H14.2544C14.1414 8.41703 14.019 8.59592 13.906 8.76539C13.5576 8.87837 13.2093 9.00077 12.8609 9.11375C12.8044 9.22673 12.748 9.34912 12.6915 9.4621H12.7009Z" fill="var(--fill-0, #C95B52)"/>
<path id="Vector_7" fill-rule="evenodd" clip-rule="evenodd" d="M18.4909 34.9392V35.1087C18.3779 35.0522 18.2555 34.9957 18.1425 34.9392C18.0861 35.0522 18.0296 35.1746 17.9731 35.2875H17.8036V35.1181C17.4552 35.2311 17.1069 35.3535 16.7585 35.4664V35.6359C16.1183 35.796 15.3369 36.7186 15.1957 37.3683H14.8473C14.9038 37.5377 14.9603 37.7166 15.0168 37.8861C14.9038 37.9426 14.7814 37.9991 14.6684 38.0555V38.4039H14.499C14.5554 38.5734 14.6119 38.7523 14.6684 38.9217C14.3483 40.3246 14.7532 40.8424 15.0168 42.0475H15.3651C15.4028 42.4523 15.3934 42.49 15.5346 42.7442H15.7041V44.1282H15.8735V44.2977H15.7041V44.4671H15.8735V44.985H16.043V45.3333C16.156 45.3898 16.2784 45.4463 16.3914 45.5028V45.8511C16.6832 46.256 18.0201 46.9527 18.651 47.0657C18.9522 47.3105 20.967 47.141 21.5978 46.7173C21.8897 46.369 22.1722 46.0206 22.464 45.6723C22.803 45.4745 24.3564 45.6911 25.072 45.3239C25.1284 45.2109 25.1849 45.0885 25.2414 44.9755H25.7593V44.8061C26.0511 44.5707 26.3336 44.3447 26.6254 44.1094C26.6819 43.9399 26.7384 43.761 26.7949 43.5915H26.9644C27.0209 43.1302 27.0773 42.6689 27.1338 42.2075H27.3033C27.1903 41.4543 27.0679 40.7012 26.955 39.948C26.6066 39.8444 26.8043 39.9762 26.6066 39.7785C26.2677 39.4301 26.2488 39.0347 26.4371 38.564H26.6066V37.5189H26.7761V37.3494H26.6066V36.3044H26.4371C26.3806 35.956 26.3242 35.6077 26.2677 35.2593H26.0982C26.0417 35.0898 25.9852 34.9109 25.9287 34.7415H25.5804C25.4768 34.3178 25.4015 34.3555 25.232 34.0448C24.6389 33.9224 23.8574 33.414 22.9724 33.6964C22.4828 33.8471 22.1251 34.2519 21.5884 34.3931C21.4284 34.9863 21.2212 34.8356 21.0706 35.4382C20.421 35.2875 19.423 34.6473 18.4627 34.9204L18.4909 34.9392ZM20.2232 37.7166V37.5471H20.3927V38.2438H20.7411V37.8955H20.9105C20.8541 38.065 20.7976 38.2438 20.7411 38.4133H19.8749C19.9596 38.0367 19.9879 37.9237 20.2232 37.7166ZM19.0087 36.3232H19.1782C19.084 36.4927 18.8581 36.6245 18.8298 36.6715V37.1894C18.7169 37.2459 18.5945 37.3024 18.4815 37.3588V37.7072H18.312C18.3873 38.1309 18.4532 38.2627 18.4815 39.0912C18.9805 39.2324 18.9899 39.3642 19.1782 39.7879L20.9105 39.6184C21.0235 39.449 21.1459 39.2701 21.2589 39.1006H21.6073C21.6637 38.9876 21.7202 38.8652 21.7767 38.7523H21.9462V38.2344H22.1157V37.0199C22.0027 36.9634 21.8803 36.9069 21.7673 36.8504C21.6637 36.6433 21.6826 36.342 21.5978 36.1537C21.7673 36.0972 21.9462 36.0407 22.1157 35.9843V35.6359C22.5205 35.5229 22.5299 35.4758 22.8124 35.2875V35.1181C23.4432 34.798 24.1681 35.1746 24.7236 35.2875V35.6359H25.072C25.1661 36.1066 25.2508 36.2855 25.5898 36.5021C25.6086 37.067 25.6933 37.9426 25.4203 38.2344V38.4039C25.1379 38.4416 25.2038 38.112 25.072 38.0555H24.5541V37.8861C23.9139 37.9426 23.2831 37.9991 22.6429 38.0555C22.5393 38.4698 22.2286 38.8746 21.9462 39.1006C21.9933 40.0327 22.3134 40.0986 22.6429 40.6635C24.0928 40.9459 24.1775 40.833 25.2508 40.3151C25.4203 40.6258 25.4956 40.5882 25.5992 41.0118H25.7687V41.878H25.9381V42.2264C25.9287 42.2829 25.7122 42.2734 25.7687 42.5747H25.9381V42.7442H25.7687V43.0926H25.5992C25.5427 43.262 25.4862 43.4409 25.4297 43.6104C25.2603 43.6669 25.0814 43.7234 24.9119 43.7798V43.9493H24.5635V44.1188H24.0457V44.2883H23.1795C23.462 43.5351 23.2455 43.375 23.1795 42.7254H23.349V42.5559C23.0572 42.3676 22.9724 42.1887 22.8312 41.8592C21.7956 41.4261 21.7673 41.6238 20.7505 41.8592C20.6658 42.2358 20.6375 42.3488 20.4021 42.5559C20.3833 43.6575 20.5716 44.5989 21.4472 44.8155C21.2307 45.0885 20.8164 45.418 20.4021 45.5122V45.6817C19.9314 45.9829 18.4532 45.4745 18.3214 45.3333C17.3893 45.0885 17.6718 44.4671 17.1069 43.9493C17.8036 43.1961 17.6812 43.9587 18.152 43.7798C18.2084 43.6669 18.2649 43.5445 18.3214 43.4315C18.6604 43.2244 18.7074 43.4315 19.0181 43.0831H19.1876V42.5653C19.3006 42.5088 19.423 42.4523 19.536 42.3958V41.6991H19.7054V41.5297C19.2253 41.106 19.4606 40.7012 18.6604 40.4846C18.3214 40.2022 16.8715 40.5976 16.4008 41.1813H16.2313C16.1183 40.4281 15.9959 39.6749 15.8829 38.9217C16.2784 38.564 16.0053 38.5263 16.2313 38.0555H16.4008V37.7072C16.5138 37.6507 16.6362 37.5942 16.7491 37.5377C16.8056 37.3683 16.8621 37.1894 16.9186 37.0199H17.267C17.3234 36.9069 17.3799 36.7845 17.4364 36.6715C17.7283 36.6151 18.0107 36.5586 18.3026 36.5021V36.3326C18.698 36.2008 18.7639 36.5021 18.9993 36.5021V36.3326L19.0087 36.3232ZM23.5185 39.6278C23.2737 39.3548 23.8386 39.4866 23.8668 39.4584V39.2889C24.2811 39.6467 24.187 39.5619 23.6974 39.8067V39.6373H23.5279L23.5185 39.6278ZM17.4458 42.4053C17.5494 42.0569 17.4176 42.2546 17.6153 42.0569V41.8874H18.1331V41.718H18.3026C18.2649 42.1228 18.2273 42.1511 18.1331 42.4147H17.4364L17.4458 42.4053Z" fill="var(--fill-0, white)"/>
<path id="Vector_8" fill-rule="evenodd" clip-rule="evenodd" d="M7.41892 49.4193C7.55073 49.4852 7.68254 49.5605 7.81435 49.6264C7.74844 49.8335 7.68254 50.0501 7.61663 50.2572H7.81435C8.05914 50.6715 8.11563 50.6526 8.20978 51.3117C8.85941 51.2929 9.09478 51.1987 9.58436 51.1046C9.69734 50.5397 9.78208 50.3137 10.1775 50.0501C10.1116 49.6264 10.0457 49.2121 9.97979 48.7885C9.84798 48.7226 9.71617 48.6472 9.58436 48.5813V46.4818H9.38665V43.5349H9.18893V42.0662C9.18893 42.0662 9.05713 42.0662 8.99122 41.6425H8.59579C8.13446 43.1112 7.68254 44.5894 7.22121 46.0581C7.28711 46.3406 7.35301 46.623 7.41892 46.8961H7.22121V47.9505C7.35302 48.0164 7.48482 48.0918 7.61663 48.1577C7.55073 48.5813 7.48482 48.9956 7.41892 49.4193Z" fill="var(--fill-0, #0071EB)"/>
<path id="Vector_9" fill-rule="evenodd" clip-rule="evenodd" d="M18.0955 17.0223C18.0955 17.0223 18.0955 17.0035 18.0955 16.9847C18.3874 16.7022 18.3592 16.6269 18.4721 16.288C18.4439 16.2503 18.4251 16.2221 18.3968 16.1844C18.3874 16.1656 18.3686 16.1467 18.3592 16.1279C18.3874 15.9867 18.378 16.0526 18.3121 15.9867C18.3121 15.9867 18.3121 15.9867 18.3215 15.9773C18.3027 15.9584 18.2932 15.9584 18.2744 15.9396C18.2744 15.9208 18.2932 15.902 18.3027 15.8925C18.265 15.8737 18.2273 15.8549 18.1991 15.8455C18.1991 15.8266 18.2179 15.8078 18.2273 15.7984C18.1709 15.7231 18.0673 15.6195 17.9449 15.5348C17.9355 15.5254 17.9167 15.5159 17.9072 15.4971C17.9167 15.4877 17.9355 15.4689 17.9543 15.4595C17.4836 15.0358 17.4459 15.1017 17.0034 15.0075C16.9187 15.064 16.8433 15.1205 16.7586 15.177C16.7304 15.177 16.7021 15.177 16.6739 15.1864C16.6739 15.1864 16.6645 15.1864 16.655 15.177C16.655 15.177 16.655 15.1864 16.6362 15.1958C16.2502 15.2617 16.2125 15.3465 15.9113 15.5536C15.9113 15.6572 15.9018 15.7513 15.8924 15.8549C15.8924 15.8737 15.8736 15.8831 15.8736 15.8925C15.8642 15.8925 15.8454 15.8925 15.8359 15.8925C15.8359 15.902 15.8359 15.9114 15.8359 15.9208C15.8077 15.949 15.7795 15.9679 15.7512 15.9961C15.7606 16.0055 15.7795 16.0244 15.7889 16.0338C15.7041 16.1656 15.7136 16.1467 15.7324 16.175C15.6571 16.3915 15.6947 16.4857 15.7135 16.7775C15.8171 16.8435 15.9113 16.9094 16.0148 16.9753C16.0148 16.9941 15.996 17.0129 15.9866 17.0223C16.0337 17.0412 16.0807 17.0506 16.1184 17.06C16.2125 17.1636 16.3161 17.2671 16.4103 17.3707C16.4573 17.3613 16.495 17.3424 16.5421 17.333C16.6174 17.3989 16.6833 17.4648 16.7586 17.5307C16.768 17.5213 16.7869 17.5025 16.8057 17.4931C17.0222 17.5966 16.8716 17.5307 17.0599 17.4931C17.0787 17.5025 17.0881 17.5213 17.107 17.5307C17.1352 17.5025 17.1635 17.4743 17.1917 17.446C17.2105 17.4554 17.2199 17.4743 17.2388 17.4837C17.2764 17.4743 17.3141 17.4554 17.3518 17.4366C17.4177 17.4366 17.4836 17.4366 17.5589 17.4366C17.5683 17.3989 17.5871 17.3707 17.5965 17.333C17.606 17.333 17.6154 17.333 17.6248 17.3424C17.6342 17.333 17.653 17.3142 17.6624 17.3048C17.7378 17.3048 17.8225 17.286 17.8978 17.2765C17.8978 17.2577 17.8978 17.2389 17.8978 17.2201C18.1144 17.1353 17.9826 17.1918 18.0485 17.0506C18.0485 17.0506 18.0579 17.0412 18.0673 17.0318C18.0861 17.0318 18.0955 17.0318 18.1144 17.0318L18.0955 17.0223Z" fill="var(--fill-0, #102A4E)"/>
<path id="Vector_10" fill-rule="evenodd" clip-rule="evenodd" d="M24.4506 16.1843C24.4506 16.1843 24.4506 16.1654 24.4506 16.1466C24.7425 15.8642 24.7143 15.7888 24.8272 15.4499L24.7519 15.3463C24.7425 15.3275 24.7237 15.3087 24.7143 15.2899C24.7425 15.1486 24.7331 15.2145 24.6672 15.1486C24.6672 15.1486 24.6672 15.1486 24.6766 15.1392C24.6578 15.1204 24.6484 15.1204 24.6295 15.1016C24.6295 15.0827 24.6483 15.0639 24.6578 15.0545C24.6201 15.0356 24.5825 15.0168 24.5542 15.0074C24.5542 14.9886 24.573 14.9697 24.5824 14.9603C24.526 14.885 24.4224 14.7814 24.3 14.6967C24.2906 14.6873 24.2718 14.6779 24.2623 14.6591C24.2718 14.6496 24.2906 14.6308 24.3094 14.6214C23.8387 14.1977 23.801 14.2636 23.3585 14.1695C23.2738 14.226 23.1984 14.2825 23.1137 14.3389C23.0855 14.3389 23.0572 14.3389 23.029 14.3484C23.029 14.3484 23.0196 14.3484 23.0101 14.3389C23.0101 14.3389 23.0101 14.3484 22.9913 14.3578C22.6053 14.4237 22.5676 14.5084 22.2664 14.7155C22.2664 14.8191 22.257 14.9133 22.2475 15.0168C22.2475 15.0356 22.2287 15.0451 22.2287 15.0545C22.2193 15.0545 22.2005 15.0545 22.191 15.0545C22.191 15.0639 22.191 15.0733 22.191 15.0827C22.1628 15.111 22.1346 15.1298 22.1063 15.158C22.1157 15.1675 22.1346 15.1863 22.144 15.1957C22.0592 15.3275 22.0687 15.3087 22.0875 15.3369C22.0122 15.5535 22.0498 15.6476 22.0686 15.9395C22.1722 16.0054 22.2664 16.0713 22.3699 16.1372C22.3699 16.156 22.3511 16.1749 22.3417 16.1843C22.3888 16.2031 22.4358 16.2125 22.4735 16.2219C22.5676 16.3255 22.6712 16.4291 22.7654 16.5326C22.8124 16.5232 22.8501 16.5044 22.8972 16.495C22.9725 16.5609 23.0384 16.6268 23.1137 16.6927C23.1231 16.6833 23.142 16.6644 23.1608 16.655C23.3773 16.7586 23.2267 16.6927 23.415 16.655C23.4338 16.6644 23.4432 16.6833 23.4621 16.6927C23.4903 16.6644 23.5186 16.6362 23.5468 16.608C23.5468 16.608 23.575 16.6362 23.5939 16.6456C23.6315 16.6362 23.6692 16.6174 23.7069 16.5985C23.7728 16.5985 23.8387 16.5985 23.914 16.5985C23.9234 16.5609 23.9422 16.5326 23.9516 16.495C23.9611 16.495 23.9705 16.495 23.9799 16.5044C23.9893 16.495 24.0081 16.4761 24.0175 16.4667C24.0929 16.4667 24.1776 16.4479 24.2529 16.4385C24.2529 16.4197 24.2529 16.4008 24.2529 16.382C24.4695 16.2973 24.3377 16.3537 24.4036 16.2125C24.4036 16.2125 24.413 16.2031 24.4224 16.1937C24.4412 16.1937 24.4506 16.1937 24.4695 16.1937L24.4506 16.1843Z" fill="var(--fill-0, #102A4E)"/>
</g>
</svg>
