<svg preserveAspectRatio="none" width="100%" height="100%" overflow="visible" style="display: block;" viewBox="0 0 82.7244 101.211" fill="none" xmlns="http://www.w3.org/2000/svg">
<g id="Group">
<path id="Vector" fill-rule="evenodd" clip-rule="evenodd" d="M82.0514 75.367L82.3998 74.6703C82.3998 74.6703 81.7972 74.3973 81.7031 73.9736C81.8537 73.7853 82.2774 73.9171 82.0514 73.2769H81.7031V72.5802C81.4677 72.4672 81.2417 72.3448 81.0064 72.2318C80.8934 71.5351 80.771 70.8478 80.658 70.1511H80.3097V69.4544H79.9613C79.6506 68.9742 79.7071 68.8518 79.613 68.0704H78.9163V66.6864L78.2196 66.338V65.293H77.8712C77.5793 64.8034 77.617 64.6904 77.5229 63.909C75.9506 63.4194 77.071 63.7019 76.4778 62.525H76.1295V61.8283H75.7811V61.1316C75.3198 60.7832 74.8584 60.4349 74.397 60.0865V59.3898C74.1617 59.2768 73.9357 59.1544 73.7003 59.0414C73.0695 58.1753 74.0675 58.4389 72.6553 57.9964C72.4199 56.8289 71.8927 56.3205 71.2619 55.5673H70.9135V54.8706H70.5652C70.085 54.3622 70.3957 54.3905 69.5201 54.1739V53.1288C68.9458 52.6675 68.3621 52.2062 67.7878 51.7449V51.3965H67.0911C66.9781 51.0481 66.8556 50.6998 66.7427 50.3514C66.3943 50.2385 66.046 50.1161 65.6976 50.0031C65.5846 49.7677 65.4622 49.5417 65.3493 49.3064C64.4172 48.4214 62.5813 46.8114 61.1879 46.529V45.4839C58.8059 44.3447 57.7044 40.9176 55.2847 40.2774V39.5807C54.9364 39.4677 54.588 39.3453 54.2397 39.2324V38.884H53.543C53.43 38.6486 53.3076 38.4227 53.1946 38.1873C52.7333 38.0743 52.2719 37.9519 51.8011 37.8389L51.4528 37.1422C50.7561 36.8786 50.436 37.3588 50.0688 37.4906C49.9558 37.1422 49.8334 36.7939 49.7204 36.4455C49.0237 36.3325 48.3365 36.2102 47.6398 36.0972V36.4455H45.9074V36.0972H44.8623V35.7488H44.1656V35.4005C43.1676 35.0521 41.52 35.617 41.0399 35.7488C40.1831 35.9748 39.7312 35.3722 39.3075 35.4005V35.7488H38.2624V36.0972C37.7069 36.2102 37.6222 35.7582 37.5657 35.7488C36.643 35.8618 35.711 35.9842 34.7883 36.0972V36.4455H34.0916C33.9786 36.6809 33.8562 36.9069 33.7433 37.1422H33.0466V37.4906H32.3499V37.8389H30.9658V38.1873H30.2691V38.5356H29.5724C29.4594 38.771 29.337 38.997 29.224 39.2324C28.179 39.5807 27.1434 39.9291 26.0983 40.2774C25.9853 40.5128 25.863 40.7388 25.75 40.9741C25.1757 41.0871 24.592 41.2095 24.0176 41.3225V42.0192C22.3041 42.2263 22.2852 43.0454 20.8918 43.4032C20.6282 44.3447 20.8071 44.194 19.8468 44.4483V45.145H18.8017V45.4933C18.5663 45.6063 18.3404 45.7287 18.105 45.8417V46.5384C17.8696 46.6514 17.6436 46.7737 17.4083 46.8867C17.0599 47.3481 16.7116 47.8094 16.3632 48.2707H15.6665C15.5535 48.6191 15.4312 48.9674 15.3182 49.3158C14.9698 49.5512 14.6215 49.7771 14.2731 50.0125V50.7092C12.9456 51.0387 13.1904 51.4906 12.5407 52.4416H12.1924C11.8158 52.9594 11.6369 53.4301 11.4957 54.1739C10.0835 54.5788 11.1003 54.3151 10.4506 55.219C10.2153 55.332 9.98927 55.4543 9.75389 55.5673V56.264H9.40554V57.3091C8.94421 57.6574 8.4829 58.0058 8.01215 58.3542V59.0509C7.77677 59.1638 7.55082 59.2862 7.31545 59.3992V60.0959C7.08008 60.2089 6.85413 60.3313 6.61875 60.4443C6.50577 60.9056 6.38338 61.3669 6.2704 61.8283C6.03503 61.9413 5.80902 62.0637 5.57365 62.1766V62.8733C5.33827 62.9863 5.11232 63.1087 4.87695 63.2217C4.52859 64.2668 4.18025 65.3024 3.8319 66.3475C3.48355 66.5828 3.13521 66.8088 2.78685 67.0442C2.67387 67.5055 2.55148 67.9668 2.4385 68.4282H2.09015C1.97718 69.1249 1.85479 69.8122 1.74181 70.5089C1.50643 70.6219 1.28042 70.7442 1.04505 70.8572C0.93207 72.0153 0.80968 73.1733 0.696701 74.3313H0.348352C0.235372 74.9057 0.112982 75.4894 2.39027e-06 76.0637H0.348352V76.4121H2.39027e-06C0.112982 77.5701 0.235372 78.7281 0.348352 79.8862V82.6636H0.696701C1.27101 83.5392 1.25223 83.3226 1.39346 84.7443C1.85479 84.8573 2.3161 84.9797 2.77743 85.0927V86.1377C3.12578 86.2507 3.47412 86.3731 3.82248 86.4861V87.1828C4.39679 87.2958 4.98054 87.4181 5.55486 87.5311C5.66784 87.7665 5.79023 87.9925 5.9032 88.2278L9.37733 88.5762V88.9245C10.9967 88.6892 12.6161 88.4632 14.2354 88.2278V91.3536H13.8871C14.0001 92.1633 14.1224 92.973 14.2354 93.7827H13.8871L14.2354 95.8634H13.8871V96.5601H13.5387V96.9084H13.8871V98.2924H13.5387V98.9891H13.8871C14.1036 99.5823 14.1413 100.1 14.1978 100.543C14.452 100.552 14.6968 100.571 14.9415 100.59C14.9415 100.505 14.951 100.42 14.9604 100.335C15.2052 100.43 15.4499 100.533 15.6947 100.637C15.6947 100.552 15.7042 100.467 15.7136 100.383L19.2253 100.637C19.2253 100.552 19.2348 100.467 19.2348 100.383C20.5717 100.477 21.9086 100.571 23.2456 100.665C23.2456 100.665 23.2456 100.759 23.3021 100.834C23.3303 100.806 23.3208 100.778 23.3303 100.778C23.4715 100.787 23.6034 100.797 23.7446 100.806C23.7446 100.769 23.7446 100.731 23.7446 100.703C24.1023 100.656 24.479 100.703 24.8367 100.778C24.8367 100.731 24.8461 100.684 24.8461 100.637C25.0155 100.646 25.185 100.665 25.3451 100.665L25.3639 100.411C25.7217 100.411 25.2509 100.627 25.5993 100.684C26.6914 100.684 27.7836 100.674 28.8757 100.665C28.8757 100.58 28.8851 100.496 28.8945 100.411C29.2335 100.411 29.2712 100.834 29.8737 100.74C29.8737 100.74 30.0055 100.392 30.6457 100.543C30.6457 100.627 30.6363 100.712 30.6269 100.797C30.7116 100.797 30.7963 100.806 30.8811 100.816C30.8811 100.731 30.8905 100.646 30.8999 100.561C31.2389 100.58 31.5683 100.609 31.9073 100.637C31.9073 100.552 31.9073 100.467 31.9167 100.383C32.8394 100.448 33.7527 100.514 34.6753 100.58L34.6942 100.326C34.939 100.42 35.1838 100.524 35.4286 100.627L35.4473 100.373C36.2852 100.43 37.1138 100.496 37.9517 100.552C38.0647 100.571 38.1682 100.59 38.2718 100.618C38.366 100.618 38.4696 100.609 38.5732 100.599C38.705 100.599 38.8367 100.59 38.9685 100.571C39.7876 100.533 40.5974 100.514 41.3035 100.533C41.8402 100.543 42.3203 100.58 42.6875 100.637C42.8005 100.656 42.9134 100.674 42.9981 100.693C43.0076 100.693 43.0264 100.693 43.0358 100.703C43.0358 100.722 43.1111 100.75 43.2524 100.778C43.2524 100.778 43.2712 100.778 43.2806 100.778C43.3465 100.778 43.4124 100.778 43.4877 100.787C43.4877 100.75 43.4877 100.712 43.4877 100.684C43.789 100.637 44.0997 100.665 44.4104 100.721C44.4669 100.731 44.5234 100.74 44.5799 100.75C44.5799 100.721 44.5799 100.703 44.5799 100.674H45.4084C46.0204 100.656 46.6323 100.656 47.2443 100.646C47.6209 100.74 47.9881 100.778 48.3176 100.646H48.6095C48.6095 100.59 48.6094 100.524 48.6188 100.467C48.6377 100.467 48.6471 100.439 48.666 100.43C48.6848 100.43 48.7037 100.42 48.7225 100.42C48.9767 100.496 49.0708 100.816 49.6075 100.731C49.6075 100.731 49.7488 100.383 50.3796 100.533L50.3607 100.787C50.4454 100.787 50.5302 100.797 50.6149 100.806L50.6337 100.552C50.9726 100.571 51.3022 100.599 51.6411 100.627C51.6411 100.543 51.6506 100.458 51.66 100.373C52.5826 100.439 53.4958 100.505 54.4185 100.571C54.4185 100.486 54.4185 100.401 54.4279 100.317C54.6727 100.411 54.9175 100.514 55.1717 100.618C55.1717 100.533 55.1718 100.448 55.1812 100.364C56.3486 100.448 57.5255 100.533 58.6929 100.618L58.7118 100.364C60.0487 100.458 61.3856 100.552 62.7226 100.646C62.7226 100.646 62.6943 100.976 63.2027 100.938C63.2027 100.853 63.2121 100.769 63.2215 100.684C64.2195 100.533 65.3964 101.173 65.9613 101.136L65.9801 100.882C66.4414 100.853 66.4603 101.164 66.4603 101.164C67.0817 101.324 67.2323 100.976 67.2323 100.976C67.6465 100.9 67.9666 101.079 68.1926 101.211C68.2585 101.07 68.315 100.9 68.3621 100.703H69.0588C69.6143 98.7255 71.6573 98.3207 72.1845 96.1929C72.6459 96.0799 73.1072 95.9575 73.5685 95.8445C73.8227 94.9501 74.1053 94.7242 74.6137 94.1122H74.962V93.4155C75.1974 93.3025 75.4233 93.1801 75.6587 93.0671V92.7188C75.8941 92.6058 76.12 92.4834 76.3554 92.3704V91.6737H76.7038C77.1086 91.1653 77.2028 91.0617 77.4005 90.2897H77.7488V88.9057H78.4455C78.7185 87.9642 78.5302 88.1149 79.4906 87.8607C79.6412 86.4767 80.0084 85.7705 80.5356 84.7349H80.884V83.6898H81.2323V82.6448H81.5807V81.5997H81.929V80.5546H82.2774V79.1612H82.6258C83.0118 77.9184 82.155 76.0825 81.929 75.3388L82.0514 75.367ZM59.1354 82.6542V83.0025H58.7871L59.1354 82.6542V82.3058H58.7871V78.4834C59.8415 79.133 59.6061 79.9333 60.5194 80.5641C60.3122 81.3832 59.7003 82.2023 59.1354 82.6448V82.6542Z" fill="var(--fill-0, black)"/>
<path id="Vector_2" fill-rule="evenodd" clip-rule="evenodd" d="M47.9314 38.2531C47.856 37.8012 48.1479 37.8577 48.1856 37.7541C48.1008 37.5847 48.0161 37.4152 47.9314 37.2457H48.1856C48.1291 36.6902 48.1667 36.5678 47.9314 36.2383H47.6771V36.0688H47.5642C47.5642 36.0688 47.4324 36.549 46.5945 36.389V36.0688C45.9166 36.1818 45.2105 36.3795 44.0054 36.0688V35.8805C43.9395 35.8711 43.8735 35.8523 43.817 35.8335L43.3557 36.0688V35.7487C42.6119 35.5793 42.4519 36.1442 42.0658 36.0688V35.7487H39.4767V36.0688C38.9589 35.9935 39.119 35.5699 38.8272 35.4192L38.507 35.7487C37.782 35.7676 38.1116 35.5322 37.8574 35.4192C37.4055 35.4663 37.9892 35.6546 37.5373 35.7487H36.238V36.0688C35.5131 36.1442 34.7881 36.2195 34.0631 36.2854C33.9972 36.935 33.9314 37.5941 33.8749 38.2437H33.6206C33.5453 38.6015 33.8749 38.7427 33.8749 38.7427C33.9219 39.2699 33.6206 39.2417 33.6206 39.2417V41.5013C33.5359 41.7555 33.4512 42.0003 33.3664 42.2545H33.6206V43.0171H33.3664C33.3099 43.3749 33.6206 43.5161 33.6206 43.5161C33.6677 43.9962 33.3664 44.0151 33.3664 44.0151C33.2534 44.5894 33.6677 44.7118 33.6206 45.0225H33.3664V46.7831H33.6206V47.0373H33.3664C33.4606 47.2915 33.5359 47.5363 33.6206 47.7905H33.3664C33.3476 48.2518 33.6206 48.2989 33.6206 48.2989C33.5359 48.7131 33.4512 49.1368 33.3664 49.5511H33.6206V49.8053H33.3664C33.2817 50.4643 33.6206 50.5585 33.6206 50.5585V53.5807H33.8749V56.0851H34.1291V57.5915H33.8749C33.7996 58.1093 34.1291 58.0904 34.1291 58.0904V59.3521H34.3832C34.3832 59.5874 33.969 60.1523 34.1291 60.8585H34.3832C34.2985 61.0279 34.2138 61.188 34.1291 61.3574H34.3832V63.617H34.6374V65.3776L35.1364 65.6318L34.8822 65.886C34.967 66.385 35.0517 66.8934 35.1364 67.3924H35.6355C35.7202 67.6466 35.805 67.8914 35.8897 68.1456H37.1513V68.3998H37.4055V68.1456H37.9045C37.9892 67.8914 38.0739 67.6466 38.1586 67.3924C38.4128 67.223 38.6577 67.0535 38.9213 66.8934V66.1308H39.1755V65.3776C39.345 65.2929 39.5049 65.2082 39.6744 65.1234V64.116L40.1734 63.8618V63.1086H40.4277C40.5124 62.7697 40.5971 62.4402 40.6819 62.1012H40.9361V61.3386C41.3315 60.3783 41.7175 60.1241 41.6986 58.5706C42.1976 58.42 41.9152 58.6083 42.1977 58.3164H42.4519V57.309C42.6214 57.2243 42.7909 57.1395 42.9509 57.0548V56.3016H43.205C43.1203 56.1321 43.0356 55.9627 42.9509 55.7932C43.1204 55.7085 43.2803 55.6237 43.4498 55.539V54.5316L43.9488 54.2774V53.5242H44.2031V52.2626C44.4573 52.0931 44.7021 51.9236 44.9563 51.7636C45.041 51.1799 45.1257 50.5867 45.2104 50.003L45.7094 49.7488V48.9956C45.8412 48.6567 45.8789 49.0897 45.9637 48.7414H45.7094V48.4872C45.8789 48.4024 46.0484 48.3177 46.2085 48.233C46.2932 47.5551 46.3779 46.8866 46.4627 46.2182H46.7169V45.7192H46.971V43.7044C47.1405 43.6196 47.31 43.5349 47.47 43.4502V42.1886C47.4983 42.085 47.7902 42.1415 47.7242 41.6896C47.7242 41.6613 47.357 41.5954 47.47 41.1906H47.7242V40.6916H47.9785C47.8937 40.4374 47.809 40.1926 47.7242 39.929H47.9785V38.9216H48.2327C48.3645 38.432 47.9785 38.1684 47.9785 38.1684L47.9314 38.2531Z" fill="var(--fill-0, white)"/>
<path id="Vector_3" fill-rule="evenodd" clip-rule="evenodd" d="M53.5992 83.8497V83.3507C53.4109 83.04 52.6389 83.0494 52.3471 82.8423C52.1776 82.5881 52.0081 82.3433 51.8386 82.0891H51.3396L51.0855 81.5901C50.2664 81.11 50.464 82.0326 50.078 80.8369C48.4869 80.6016 48.8071 79.5094 47.0653 79.3305C46.877 78.6056 46.7922 78.4926 46.0578 78.3231V77.8147C45.8036 77.73 45.5589 77.6453 45.3047 77.5605V77.3063C45.0505 77.2216 44.8057 77.1368 44.5515 77.0521C44.4667 76.8826 44.382 76.7132 44.2972 76.5531C43.7041 76.4684 43.1204 76.3836 42.5366 76.2989V76.0447H41.0303V76.2989H40.776V77.0521C39.392 77.4099 38.9966 78.7939 38.2622 79.8201C38.008 79.9896 37.7633 80.159 37.5091 80.3191V80.8275C37.2549 80.9122 37.01 80.997 36.7558 81.0817C36.3227 81.4018 35.6449 82.4751 35.4943 83.0871C34.694 83.2848 34.5716 83.426 34.4869 84.3487C33.4607 84.6406 33.5078 85.5821 32.7263 86.1093V87.1167H32.2273C32.0484 87.7663 31.8318 87.9358 31.4741 88.3689H31.2198V88.8773C31.0504 88.962 30.881 89.0468 30.7115 89.1315V89.3857C30.542 89.4704 30.3725 89.5552 30.2125 89.6399V90.1389H29.9583C29.7888 90.3931 29.6287 90.6379 29.4592 90.8921C29.1203 91.1463 28.7908 91.4005 28.4519 91.6547C28.047 92.3797 28.4142 93.4059 28.4519 94.4227C28.9509 94.5922 29.4593 94.7617 29.9583 94.9217C30.1277 95.1759 30.2878 95.4207 30.4573 95.6749H30.9656C31.0503 95.8444 31.1351 96.0044 31.2198 96.1739H31.7189C31.8883 96.4281 32.0578 96.6823 32.2179 96.9365H32.7169C32.8016 97.106 32.8863 97.2755 32.971 97.4355H33.7337L33.9879 97.9345C34.2421 98.104 34.4868 98.2734 34.741 98.4335V98.6877H35.24C35.579 99.102 35.9086 99.5256 36.2475 99.9493C36.6618 100.034 37.0854 100.119 37.4997 100.204V100.458C37.688 100.495 37.8762 100.533 38.074 100.571C38.1869 100.59 38.2905 100.608 38.394 100.637C38.4882 100.637 38.5918 100.627 38.6954 100.618C38.8272 100.618 38.9496 100.637 39.0814 100.646C39.0814 100.627 39.0814 100.618 39.0814 100.599C39.9005 100.561 40.7102 100.542 41.4163 100.561C41.8776 100.599 42.339 100.637 42.8003 100.665C42.9133 100.684 43.0262 100.703 43.1109 100.721C43.1109 100.75 43.1204 100.806 43.1581 100.853C43.1863 100.825 43.1863 100.797 43.1863 100.797C43.2428 100.797 43.2992 100.806 43.3557 100.806C43.3557 100.806 43.3746 100.806 43.384 100.806C43.4499 100.806 43.5158 100.806 43.5911 100.815C43.5911 100.778 43.5911 100.74 43.5911 100.712C43.8924 100.665 44.2031 100.693 44.5138 100.75V100.703H45.5212V100.448C46.1238 100.288 46.7451 100.542 47.3571 100.674C47.7337 100.768 48.1009 100.806 48.4304 100.674C48.5434 100.637 48.6469 100.58 48.7411 100.495C48.7599 100.495 48.7694 100.467 48.7882 100.458C48.807 100.458 48.8259 100.448 48.8447 100.448C49.4002 100.298 49.2213 100.335 49.5414 99.9587H49.7955V99.1961H50.0498L50.304 98.4429C50.4735 98.3582 50.643 98.2734 50.803 98.1887C50.8877 97.7745 50.9725 97.3508 51.0572 96.9365H51.3115V96.4281C51.4809 96.3434 51.6503 96.2586 51.8104 96.1739V95.4207C51.961 95.1006 51.9422 95.5054 52.0646 95.1665H52.573C52.9685 93.34 54.3995 92.5586 54.5784 90.6379H55.0869C55.1998 89.6493 55.4728 89.3857 55.84 88.6325H56.0942V87.3709H56.3484V87.1167C55.068 86.2505 55.4728 84.3581 53.5804 83.8497H53.5992Z" fill="var(--fill-0, #00AB41)"/>
<path id="Vector_4" fill-rule="evenodd" clip-rule="evenodd" d="M43.1205 100.656C43.1205 100.656 43.1205 100.665 43.1205 100.693C43.0263 100.674 42.9228 100.656 42.8098 100.637C42.9134 100.637 43.0169 100.646 43.1205 100.656Z" fill="var(--fill-0, #0071EB)"/>
<path id="Vector_5" fill-rule="evenodd" clip-rule="evenodd" d="M48.8729 100.42C48.8729 100.42 48.8353 100.42 48.8165 100.429C48.7976 100.439 48.7882 100.458 48.7693 100.467C48.7693 100.439 48.7693 100.42 48.7693 100.392C48.807 100.392 48.8447 100.392 48.8729 100.411V100.42Z" fill="var(--fill-0, #0071EB)"/>
<path id="Vector_6" fill-rule="evenodd" clip-rule="evenodd" d="M25.0816 23.1325C25.2511 23.2172 25.4206 23.3114 25.5901 23.3961C25.4959 23.8198 25.4019 24.2434 25.3077 24.6671C25.3924 24.6671 25.4771 24.6671 25.5618 24.6671C25.5618 24.9213 25.5525 25.1755 25.5431 25.4297C25.7126 25.5145 25.8819 25.6086 26.0514 25.6934C26.3339 26.2112 26.2679 26.9455 26.2679 27.7364C26.5221 27.8306 26.7764 27.9153 27.0306 28.0094C27.0306 29.2145 27.2659 29.8265 28.2639 30.0807C28.3392 30.5044 28.4147 30.9375 28.49 31.3612C29.2243 31.5589 29.3278 31.653 29.4879 32.4062C29.9963 32.5004 30.5047 32.5945 31.0131 32.6981C31.1732 33.0464 31.3427 33.3854 31.5027 33.7337C32.1524 34.421 32.3501 33.922 33.0185 34.2798C33.1033 34.4493 33.1786 34.6187 33.2633 34.7976C33.7152 35.0707 34.3366 35.0612 35.0428 35.0895C35.0428 35.4284 35.0239 35.7674 35.0239 36.1063C35.1086 36.1063 35.1934 36.1063 35.2781 36.1063C35.2499 39.2415 36.9916 38.5165 37.4718 41.0021C37.6412 41.0021 37.8108 41.0021 37.9802 41.0115C37.9802 41.3504 37.9614 41.6894 37.9614 42.0283C38.2156 42.1225 38.4698 42.2072 38.724 42.3014C38.8841 42.6497 39.0535 42.9886 39.2135 43.337C39.383 43.337 39.5525 43.337 39.722 43.3464C39.722 43.4311 39.722 43.5159 39.722 43.6006C40.0609 43.5253 40.4092 43.4406 40.7482 43.3652C40.7482 43.45 40.7482 43.5347 40.7482 43.6194C41.0871 43.7136 41.4261 43.8077 41.7651 43.8925C41.9628 43.6383 42.0851 43.6477 42.2828 43.3935H42.537C42.537 43.1393 42.5465 42.8851 42.5559 42.6309C42.8101 42.5556 43.0737 42.4708 43.3279 42.3955C43.5067 41.8024 43.6951 41.2092 43.874 40.6161C44.0435 40.5313 44.2223 40.456 44.3918 40.3713C44.3164 39.9476 44.2411 39.5145 44.1658 39.0908C44.42 38.9308 44.6837 38.7613 44.9379 38.6013C45.032 38.1776 45.1261 37.7539 45.2203 37.3303C45.1355 37.3303 45.0509 37.3303 44.9662 37.3303V37.076C44.9662 36.9913 44.9661 36.9066 44.9755 36.8218C45.0602 36.8218 45.145 36.8218 45.2297 36.8218C45.4557 35.9933 45.1167 35.3531 45.0132 34.7788C46.1241 34.374 47.2446 33.9785 48.3555 33.5737C48.4497 33.3195 48.5343 33.0653 48.6285 32.8111C49.2687 32.651 49.0428 32.6887 49.4006 32.3215C49.4853 32.3215 49.5701 32.3215 49.6548 32.3215C49.6548 32.152 49.6548 31.9825 49.6642 31.8131C50.0126 31.5683 50.3515 31.3141 50.6998 31.0693C50.794 30.8151 50.8787 30.5609 50.9728 30.3067C51.0575 30.3067 51.1423 30.3067 51.227 30.3067C51.2364 29.7983 51.2459 29.2899 51.2553 28.772C51.7637 28.6308 51.4719 28.8097 51.7732 28.5273C51.8579 28.5273 51.9427 28.5273 52.0274 28.5273C52.0274 28.2731 52.0367 28.0188 52.0461 27.7646C52.1309 27.7646 52.2156 27.7646 52.3003 27.7646C52.3003 27.5104 52.3098 27.2562 52.3192 27.002C52.4039 27.002 52.4887 27.002 52.5734 27.002C52.5922 26.1547 52.611 25.2979 52.6298 24.4506C52.8652 23.735 53.4866 22.351 53.2136 21.1459C53.1288 20.7976 52.9689 21.2495 52.9595 20.8823C53.0536 20.6281 53.1383 20.3739 53.2324 20.1197C53.1477 20.1197 53.0629 20.1197 52.9782 20.1197C52.9782 19.9502 52.9782 19.7808 52.9876 19.6113C52.9029 19.6113 52.8182 19.6113 52.7335 19.6113C52.6582 19.2629 52.7993 19.6489 52.997 19.3571C53.0159 18.7828 52.7522 18.8393 52.7522 18.8393C52.7522 18.4156 52.7711 17.9919 52.7805 17.5588C52.6958 17.5588 52.611 17.5588 52.5263 17.5588C52.5263 17.3894 52.5263 17.2199 52.5357 17.0504C52.451 17.0504 52.3662 17.0504 52.2815 17.0504C52.2156 16.1936 52.1497 15.3463 52.0838 14.4895C51.9991 14.4895 51.9143 14.4895 51.8296 14.4895C51.8296 14.3201 51.8296 14.1506 51.839 13.9811C51.6696 13.8964 51.5 13.8022 51.3306 13.7175C51.2553 13.2938 51.1799 12.8608 51.1046 12.4371C50.9352 12.4371 50.7658 12.4371 50.5963 12.4277C50.5681 11.3355 50.4456 11.3732 49.8619 10.8836V10.6294C49.4947 10.3846 49.071 10.7141 48.8544 10.3564C48.8544 10.0174 48.8733 9.67849 48.8733 9.33955C48.7038 9.25482 48.5344 9.16067 48.365 9.07593C47.64 8.26625 47.1786 7.77667 45.5875 7.73901C45.4462 7.11762 45.3333 7.17411 45.0979 6.70336C44.5047 6.69395 43.9117 6.67512 43.3091 6.6657C43.3091 6.58097 43.3091 6.49623 43.3091 6.4115C43.1397 6.4115 42.9701 6.4115 42.8007 6.40208C42.8007 6.31735 42.8007 6.23261 42.8007 6.14788C41.9533 6.12905 41.0966 6.11022 40.2493 6.09139C40.2493 6.09139 40.1645 5.72421 39.4866 5.81836C39.1288 5.86543 39.5901 6.05373 39.2229 6.07256C39.0817 5.99724 39.2042 5.67713 38.7146 5.80894C38.7146 5.89368 38.7146 5.97841 38.7146 6.06315C38.5451 6.06315 38.3756 6.06315 38.2062 6.05373C38.2062 6.13847 38.2062 6.2232 38.2062 6.30793C37.7825 6.21378 37.3588 6.11964 36.9352 6.02549C36.8504 6.19496 36.7563 6.36442 36.6715 6.53389C36.1631 6.60921 35.6453 6.68453 35.1369 6.75985C34.958 7.01406 34.7886 7.25885 34.6097 7.51305C34.2708 7.58837 33.9223 7.6731 33.5834 7.74842C33.4987 7.91789 33.4045 8.08736 33.3197 8.25683C32.8961 8.33215 32.463 8.40747 32.0393 8.48279C31.9546 8.65226 31.8605 8.82173 31.7758 8.9912C31.1732 9.49019 30.5612 9.98919 29.9587 10.4882C29.8645 10.7424 29.7797 10.9966 29.6856 11.2508C29.5161 11.2508 29.3467 11.2508 29.1773 11.2414L28.6594 11.7404C28.5652 12.0793 28.471 12.4182 28.3863 12.7572C28.2168 12.8419 28.038 12.9172 27.8686 13.002C27.8686 13.1714 27.8685 13.3409 27.8591 13.5104C27.5108 13.7552 27.1719 14.0094 26.8235 14.2542C26.8235 14.4236 26.8235 14.5931 26.8141 14.7626C26.7294 14.7626 26.6446 14.7626 26.5599 14.7626C26.5599 15.0168 26.5504 15.271 26.541 15.5252C26.4563 15.5252 26.3715 15.5252 26.2868 15.5252C26.2868 15.6947 26.2868 15.8641 26.2774 16.0336C26.1926 16.0336 26.1079 16.0336 26.0231 16.0336C26.0043 16.7115 25.995 17.3988 25.9761 18.0766C25.8067 18.1614 25.6277 18.2367 25.4583 18.3214C25.4583 18.7451 25.4395 19.1688 25.4301 19.6019C25.3454 19.6019 25.2606 19.6019 25.1759 19.6019C25.1759 19.6866 25.1759 19.7713 25.1759 19.8561C25.2606 19.8561 25.3454 19.8561 25.4301 19.8561C25.336 20.3645 25.2418 20.8729 25.1382 21.3813C25.2229 21.3813 25.3077 21.3813 25.3924 21.3813C25.3924 21.7202 25.3736 22.0592 25.3736 22.3981C25.3736 22.3981 24.931 22.6523 25.1005 23.1607L25.0816 23.1325Z" fill="var(--fill-0, #F2997F)"/>
<path id="Vector_7" fill-rule="evenodd" clip-rule="evenodd" d="M23.707 9.2455C23.6222 9.2455 23.5375 9.2455 23.4527 9.2455C23.4527 9.66917 23.434 10.0928 23.4246 10.5165C23.3398 10.5165 23.2551 10.5165 23.1704 10.5165C22.9915 11.0249 22.8125 11.5239 22.6336 12.0323C22.4642 12.0323 22.2948 12.0323 22.1253 12.0229C21.8146 13.0209 22.0499 12.343 21.3438 12.7667C21.3438 12.8514 21.3438 12.9362 21.3438 13.0209C21.1743 13.0209 21.0049 13.0209 20.8355 13.0115C20.7507 13.181 20.6565 13.3504 20.5718 13.5105C20.4023 13.5105 20.2328 13.5105 20.0634 13.5011C20.0634 13.5858 20.0634 13.6705 20.0634 13.7553C19.8939 13.84 19.7244 13.9153 19.5549 14.0001C19.5549 14.2543 19.5456 14.5085 19.5362 14.7627C19.4515 14.7627 19.3667 14.7627 19.282 14.7627C19.2443 16.4574 19.9127 17.5495 20.986 18.0956C21.2402 18.0956 21.4945 18.105 21.7487 18.1144C21.8334 18.2839 21.9087 18.4533 21.9935 18.6228C22.163 18.6228 22.3323 18.6228 22.5018 18.6322C22.5018 18.717 22.5018 18.8017 22.5018 18.8864C22.756 18.8111 23.0103 18.7264 23.2645 18.651C23.3492 18.8205 23.4245 18.99 23.5093 19.1595C23.9894 19.4419 25.7124 19.7149 26.5503 19.4796C27.5765 19.1877 28.358 18.651 29.6196 18.5287C29.6196 18.3592 29.6196 18.1897 29.629 18.0202C30.3257 17.8414 30.2033 17.9732 30.4104 17.2765C31.6344 16.9846 31.5873 16.1561 32.2275 15.2805C32.4818 15.1204 32.7453 14.951 32.9995 14.7909C33.0937 14.452 33.1784 14.1224 33.2726 13.7835C33.3573 13.7835 33.4421 13.7835 33.5268 13.7835C33.5268 13.5293 33.5363 13.2751 33.5457 13.0209C33.7999 12.8608 34.0634 12.6914 34.3176 12.5313C34.3176 12.2771 34.3271 12.0229 34.3365 11.7687C34.506 11.684 34.6755 11.6087 34.8449 11.5239C34.9391 11.185 35.0237 10.8555 35.1179 10.5165C35.2874 10.4318 35.4569 10.3565 35.6263 10.2717C35.89 9.85747 36.1535 9.4338 36.4172 9.01954C37.1045 8.90656 37.82 8.72767 38.206 8.29459C38.7992 8.304 39.3923 8.32283 39.9855 8.33225C39.9855 8.41698 39.9855 8.50171 39.9855 8.58645C40.0702 8.58645 40.155 8.58645 40.2397 8.58645C40.315 9.01012 40.3903 9.4338 40.4656 9.85747C40.5504 9.85747 40.6351 9.85747 40.7199 9.85747C40.7199 10.1964 40.701 10.5353 40.701 10.8743C40.7858 10.8743 40.8705 10.8743 40.9552 10.8743C40.9552 11.2132 40.9364 11.5522 40.9364 11.8911C41.0211 11.8911 41.1059 11.8911 41.1906 11.8911C41.1906 12.1453 41.1812 12.3995 41.1718 12.6537C41.2565 12.6537 41.3413 12.6537 41.426 12.6537C41.3318 12.9079 41.2471 13.1621 41.1529 13.4069H41.4071C41.4071 13.7459 41.3883 14.0848 41.3883 14.4237C41.473 14.4237 41.5578 14.4237 41.6425 14.4237C41.6425 14.8474 41.6237 15.2711 41.6142 15.6948C41.699 15.6948 41.7837 15.6948 41.8685 15.6948C41.8685 15.8642 41.8685 16.0337 41.859 16.2032C42.1132 16.382 42.3581 16.5515 42.6123 16.7304C42.6876 17.1541 42.7629 17.5777 42.8382 18.0014C42.923 18.0014 43.0076 18.0014 43.0923 18.0014C43.4219 18.4345 43.7514 18.8582 44.081 19.2913C44.3352 19.2913 44.5894 19.3007 44.8436 19.3101C44.9284 19.4796 45.0036 19.649 45.0883 19.8185C45.2578 19.8185 45.4273 19.8185 45.5968 19.8279C45.6815 19.9974 45.7568 20.1669 45.8416 20.3363C46.011 20.3363 46.1805 20.3363 46.35 20.3457V20.5999C46.9714 20.8542 47.5551 20.3834 47.8752 20.374C47.96 20.5435 48.0353 20.7129 48.12 20.8918C48.6473 21.1084 49.8523 20.7977 50.1536 20.6847V20.4305C50.7467 20.4399 51.3399 20.4587 51.933 20.4681C51.933 20.3834 51.933 20.2987 51.933 20.2139C52.1872 20.2139 52.4415 20.2233 52.6957 20.2328C52.6957 20.148 52.6957 20.0633 52.6957 19.9786C52.8651 19.9786 53.0346 19.9786 53.2041 19.988C53.2041 19.9032 53.2041 19.8185 53.2041 19.7338C53.5431 19.7338 53.882 19.7526 54.2209 19.7526C54.2209 19.6679 54.2209 19.5831 54.2209 19.4984C54.4751 19.4231 54.7292 19.3383 54.9834 19.263C55.0023 18.5004 55.0117 17.7378 55.0306 16.9752C54.2209 16.7398 54.1456 16.3067 53.5336 15.9301C53.3924 14.8286 53.2417 13.727 53.1005 12.6161C53.1852 12.6161 53.2699 12.6161 53.3547 12.6161C53.3547 12.3619 53.3641 12.1076 53.3735 11.8534C53.4583 11.8534 53.543 11.8534 53.6277 11.8534C53.7407 10.5824 53.8537 9.32082 53.9667 8.0498H53.7124C53.7124 7.78618 53.7219 7.54139 53.7313 7.28718C53.5618 7.20245 53.3923 7.1083 53.2323 7.02356C53.2323 6.68463 53.2511 6.34569 53.2511 6.00675C53.1664 6.00675 53.0816 6.00675 52.9969 6.00675C52.6015 5.43244 52.2061 5.24414 52.0178 4.46269C51.4529 4.30264 51.3775 4.23674 51.0104 3.93546V3.68125C50.7656 3.5871 50.5114 3.50237 50.2572 3.40822C50.1725 3.23875 50.0972 3.06928 50.0124 2.89981C49.6735 2.80566 49.3345 2.72093 49.005 2.62678C48.9202 2.45731 48.8449 2.28784 48.7602 2.11837C48.5907 2.11837 48.4213 2.11837 48.2518 2.10895C48.2518 2.02422 48.2518 1.93948 48.2518 1.85475C48.0824 1.93948 47.9129 2.0148 47.7434 2.09954C47.6587 1.93007 47.5833 1.7606 47.4986 1.59113C47.2444 1.59113 46.9901 1.58171 46.7359 1.5723V1.3181L46.4818 1.56288C45.9734 1.46874 45.4744 1.37459 44.966 1.28044C44.966 1.1957 44.966 1.11097 44.966 1.02623C44.1563 0.772027 43.7703 1.27102 43.1866 1.24278C43.0171 1.15804 42.8476 1.06389 42.6876 0.979156C42.2262 1.05448 40.1549 1.91124 39.6277 1.67586C39.543 1.50639 39.4676 1.33693 39.3829 1.15804C38.7898 1.06389 38.206 0.960327 37.6129 0.866177C37.5281 0.696708 37.4528 0.527238 37.3681 0.348354C36.3513 0.244789 35.3439 0.13181 34.3271 0.0282451C34.3271 0.11298 34.3271 0.197714 34.3271 0.282449C33.8187 0.1883 33.3197 0.0941497 32.8113 0C32.0487 0.235374 31.2766 0.470749 30.514 0.715538C30.4292 0.885007 30.3352 1.05448 30.2504 1.21453C29.9115 1.28985 29.5725 1.36517 29.2335 1.4499C28.8852 1.86416 28.5368 2.27842 28.1885 2.69268C28.019 2.69268 27.8495 2.69268 27.68 2.68327C27.4164 3.01279 27.1623 3.35173 26.8986 3.68125C26.6444 3.75657 26.3903 3.84131 26.1361 3.91663C26.1361 4.0861 26.1361 4.25556 26.1267 4.42503C25.7783 4.66982 25.4393 4.91461 25.0909 5.16882C25.0909 5.42302 25.0816 5.67722 25.0722 5.93143C24.9027 6.01616 24.7332 6.09148 24.5638 6.17622C24.5638 6.43042 24.5543 6.68463 24.5449 6.93883H24.2907C24.2907 7.09888 24.2907 7.26835 24.2813 7.43782C24.1965 7.43782 24.1118 7.43782 24.027 7.43782C24.027 7.60729 24.0271 7.77676 24.0177 7.94623C23.933 7.94623 23.8482 7.94623 23.7635 7.94623C23.8388 8.20044 23.9236 8.45464 23.9989 8.70884C23.9141 8.70884 23.8294 8.70884 23.7447 8.70884C23.7447 8.87831 23.7446 9.04778 23.7352 9.21725L23.707 9.2455Z" fill="var(--fill-0, black)"/>
<path id="Vector_8" fill-rule="evenodd" clip-rule="evenodd" d="M45.5778 43.2896C45.4366 43.6191 44.9565 43.685 44.8341 44.0051C44.74 44.2499 44.8999 44.5512 44.7493 44.7677C44.561 45.0596 43.949 44.9654 43.9114 45.3138C43.8831 45.5115 44.0809 45.7092 43.9867 45.8881C43.9208 46.0199 43.7231 46.0387 43.629 46.1517C43.4783 46.3683 43.7608 46.679 43.6195 46.8955C43.4877 47.1026 43.1393 46.9991 42.9793 47.1779C42.8192 47.3568 42.9699 47.6864 42.8099 47.8558C42.6875 47.9782 42.4709 47.95 42.3391 48.063C42.0567 48.2889 42.3485 48.8726 42.0378 49.0421C41.8777 49.1363 41.633 49.0609 41.5483 49.221C41.4542 49.3905 41.6989 49.5976 41.6236 49.7859C41.5671 49.9365 41.3505 49.9459 41.2375 50.0683C41.0869 50.2378 41.2281 50.5014 41.3599 50.6803C41.181 50.7556 40.9645 50.9157 41.021 51.0946C41.0681 51.217 41.2093 51.2735 41.2564 51.3864C41.3035 51.5088 41.2281 51.6406 41.1434 51.7442C40.5879 52.3844 41.3129 52.1208 41.4729 52.4503C41.5482 52.5916 41.3412 53.0905 41.3129 53.2506L41.1246 53.2129C40.9551 53.6366 41.2 53.872 41.2 53.872C41.0305 54.4086 40.8516 54.9547 40.6821 55.4819L40.8703 55.5196L40.7856 55.9339L40.9739 55.9621L40.7668 56.9978L40.9552 57.0354L40.7479 58.0616L40.9457 58.0993L40.7385 59.135L40.9269 59.1726C40.9269 59.4645 40.9457 59.7469 40.9552 60.0388L41.1434 60.0765C41.0022 60.4813 40.8516 60.8767 40.7104 61.2816L40.8986 61.3192V61.3569L40.8139 61.7335H40.8892V62.1101H40.635C40.5502 62.449 40.4655 62.7785 40.3807 63.1175H40.1266V63.8707L39.6276 64.1249V65.1323C39.4581 65.217 39.2886 65.3018 39.1286 65.3865V66.1397H38.8744V66.9023C38.6202 67.0718 38.366 67.2412 38.1118 67.4013C38.0271 67.6555 37.9423 67.9003 37.8576 68.1545H37.3586V68.4087H37.1043V68.1545H35.8428C35.758 67.9003 35.6733 67.6555 35.5886 67.4013H35.0895C35.0048 66.9023 34.9202 66.3939 34.8354 65.8949L35.0895 65.6407L34.5906 65.3865V63.6259H34.5247C34.6282 63.3152 34.7319 63.0045 34.8354 62.7032L34.6471 62.6656L34.9296 61.2251L34.7412 61.1874C34.7318 60.7355 35.052 60.6131 35.052 60.6131C35.2214 60.1894 34.9766 59.9541 34.9766 59.9541C35.1084 59.6245 35.2402 59.295 35.372 58.9561L35.1838 58.9184L35.2308 58.7113L35.4191 58.7489L35.871 56.4705L36.0593 56.5082C36.0781 56.0845 36.097 55.6608 36.1158 55.2372L36.3041 55.2748C36.3041 54.9171 36.3135 54.5593 36.3229 54.2015L36.5112 54.2392L36.596 53.8249L36.7843 53.8626C36.8784 53.1 36.9538 52.3279 37.0385 51.5559L36.8501 51.5182L37.0102 50.6991L37.1986 50.7368C37.321 50.4638 37.3774 50.1625 37.3397 49.8612C37.3115 49.6541 37.1609 49.4281 37.2362 49.221C37.2927 49.0515 37.4433 48.9385 37.5845 48.8256C37.4339 48.7502 37.2738 48.6655 37.1138 48.5902C37.2268 48.4396 37.3303 48.2889 37.4433 48.1383C37.368 47.9688 37.0102 48.0441 37.0008 47.8652C37.0008 47.7428 37.1609 47.6864 37.1892 47.5734C37.2362 47.4227 37.0385 47.3192 36.8784 47.3003C36.7278 47.2815 36.5206 47.2344 36.5112 47.0744C36.5112 46.952 36.6242 46.8578 36.6242 46.7354C36.6242 46.6036 36.5019 46.5001 36.3701 46.4624C36.2383 46.4153 36.097 46.3965 35.9934 46.3118C35.7769 46.1235 35.8993 45.7751 36.0217 45.5209C35.824 45.5209 35.6356 45.3609 35.5886 45.1631C35.5415 44.9654 35.6168 44.7489 35.7581 44.6077C35.5698 44.6359 35.3438 44.5323 35.2685 44.3535C35.1837 44.1652 35.2402 43.9392 35.4003 43.8168C35.1273 43.8168 34.9672 43.4214 35.1367 43.2237C35.212 43.1483 35.325 43.073 35.3062 42.9695C35.2779 42.8376 35.0801 42.8471 34.9671 42.7717C34.4681 42.4234 35.4003 41.9997 35.7204 42.0939C35.7204 42.028 35.7675 41.9526 35.7675 41.8867C35.8334 41.8962 36.5301 42.0374 36.5301 42.0374L36.5772 41.8208L36.9632 41.8961L37.0008 41.689L38.5354 41.9903L38.5826 41.7832L40.3055 42.1221L40.3432 41.9244C40.5126 42.028 40.7009 42.1315 40.8798 42.2351L40.9175 42.0374L41.1057 42.0656L41.0681 42.2727L41.8307 42.4234C41.9248 42.3104 42.0096 42.1786 42.1038 42.0562C42.3391 42.1692 42.5839 42.2916 42.8193 42.414C42.9134 42.2822 42.9981 42.1598 43.0923 42.0374C43.7701 42.1692 44.9094 42.1692 45.3896 42.7341C45.5308 42.8847 45.6061 43.1201 45.5214 43.3084L45.5778 43.2896Z" fill="var(--fill-0, #094B95)"/>
<path id="Vector_9" fill-rule="evenodd" clip-rule="evenodd" d="M39.7124 21.8051C39.7124 21.8051 39.7124 21.7768 39.7124 21.7674C39.4111 21.4379 39.4487 21.3437 39.3452 20.9483C39.3734 20.9106 39.4018 20.873 39.43 20.8353C39.4488 20.8165 39.4582 20.7882 39.477 20.7694C39.4488 20.6094 39.4677 20.6753 39.543 20.6094C39.543 20.6094 39.543 20.6094 39.5336 20.5999C39.5524 20.5811 39.5712 20.5717 39.59 20.5623C39.59 20.5434 39.5711 20.5246 39.5617 20.5058C39.5994 20.487 39.6464 20.4681 39.6841 20.4493C39.6841 20.4305 39.6654 20.4116 39.656 20.3928C39.7219 20.3081 39.8442 20.1951 39.9855 20.1009C40.0043 20.0915 40.0136 20.0727 40.0325 20.0633C40.0136 20.0445 40.0043 20.035 39.9855 20.0162C40.5221 19.5455 40.5598 19.6302 41.0493 19.5266C41.1341 19.5925 41.2188 19.6584 41.3036 19.7243C41.3318 19.7243 41.36 19.7338 41.3883 19.7432C41.3883 19.7432 41.3977 19.7338 41.4071 19.7243C41.4071 19.7243 41.4071 19.7432 41.426 19.7432C41.8496 19.8373 41.8778 19.9315 42.1979 20.1857C42.1979 20.2987 42.1979 20.4116 42.1979 20.534C42.1979 20.5529 42.2168 20.5623 42.2168 20.5811C42.2356 20.5811 42.245 20.5811 42.2638 20.5811C42.2638 20.5905 42.2639 20.5999 42.2545 20.6094C42.2827 20.6376 42.3204 20.6753 42.3486 20.7035C42.3298 20.7223 42.3203 20.7317 42.3015 20.7506C42.3862 20.9012 42.3769 20.8824 42.3486 20.9106C42.4239 21.1648 42.3674 21.2684 42.3298 21.6073C42.2168 21.6827 42.1038 21.7486 41.9908 21.8239C41.9908 21.8427 42.0097 21.8615 42.0191 21.8804C41.9626 21.8992 41.9155 21.9086 41.8684 21.9274C41.7555 22.0404 41.6425 22.1628 41.5295 22.2758C41.4824 22.257 41.4353 22.2381 41.3883 22.2193C41.3035 22.2946 41.2188 22.3605 41.1435 22.4359C41.1246 22.417 41.1152 22.4076 41.0964 22.3888C40.8516 22.5018 41.0211 22.4359 40.814 22.3699C40.7951 22.3888 40.7763 22.3982 40.7669 22.417C40.7386 22.3888 40.7104 22.3511 40.6822 22.3229C40.6633 22.3323 40.6539 22.3511 40.635 22.3699C40.5974 22.3605 40.5597 22.3323 40.5126 22.3135C40.4373 22.3135 40.362 22.304 40.2867 22.2946C40.2773 22.257 40.2585 22.2193 40.2491 22.1722C40.2397 22.1722 40.2208 22.1722 40.2114 22.1817C40.1926 22.1628 40.1831 22.1534 40.1643 22.1346C40.0795 22.1252 39.9948 22.1063 39.9101 22.0969C39.9101 22.0781 39.9101 22.0593 39.9195 22.031C39.6841 21.9274 39.8254 21.9934 39.7595 21.8239C39.7595 21.8239 39.7501 21.8145 39.7407 21.8051C39.7218 21.8051 39.7029 21.8051 39.6841 21.8051H39.7124Z" fill="var(--fill-0, #102A4E)"/>
<path id="Vector_10" fill-rule="evenodd" clip-rule="evenodd" d="M31.4365 21.212C31.4365 21.212 31.4365 21.1838 31.4365 21.1744C31.1352 20.8448 31.173 20.7507 31.0694 20.3553C31.0976 20.3176 31.1258 20.2799 31.1541 20.2423C31.1729 20.2235 31.1823 20.1952 31.2011 20.1764C31.1729 20.0163 31.1917 20.0822 31.2671 20.0163C31.2671 20.0163 31.2671 20.0163 31.2576 20.0069C31.2765 19.9881 31.2954 19.9787 31.3142 19.9692C31.3142 19.9504 31.2953 19.9316 31.2859 19.9128C31.3236 19.8939 31.3707 19.8751 31.4083 19.8563L31.38 19.7998C31.4459 19.715 31.5683 19.6021 31.7095 19.5079C31.7284 19.4985 31.7378 19.4797 31.7567 19.4703C31.7378 19.4514 31.7284 19.442 31.7095 19.4232C32.2462 18.9524 32.2839 19.0372 32.7734 18.9336C32.8582 18.9995 32.9429 19.0654 33.0277 19.1313C33.0559 19.1313 33.0841 19.1407 33.1124 19.1501C33.1124 19.1501 33.1218 19.1407 33.1312 19.1313C33.1312 19.1313 33.1312 19.1501 33.1501 19.1501C33.5737 19.2443 33.6019 19.3384 33.922 19.5926C33.922 19.7056 33.922 19.8186 33.922 19.941C33.922 19.9598 33.9409 19.9692 33.9409 19.9881C33.9597 19.9881 33.9692 19.9881 33.988 19.9881C33.988 19.9975 33.988 20.0069 33.9786 20.0163C34.0068 20.0446 34.0445 20.0822 34.0727 20.1105C34.0539 20.1293 34.0444 20.1387 34.0256 20.1575C34.1103 20.3082 34.101 20.2894 34.0727 20.3176C34.148 20.5718 34.0915 20.6754 34.0539 21.0143C33.9409 21.0896 33.8279 21.1555 33.7149 21.2309C33.7149 21.2497 33.7338 21.2685 33.7432 21.2873C33.6867 21.3062 33.6396 21.3156 33.5925 21.3344C33.4796 21.4474 33.3666 21.5698 33.2536 21.6828C33.2065 21.6639 33.1594 21.6451 33.1124 21.6263C33.0276 21.7016 32.9429 21.7675 32.8676 21.8428C32.8487 21.824 32.8394 21.8146 32.8206 21.7957C32.5758 21.9087 32.7452 21.8428 32.5381 21.7769C32.5192 21.7957 32.5005 21.8052 32.4911 21.824C32.4628 21.7957 32.4345 21.7581 32.4062 21.7298C32.3874 21.7393 32.3781 21.7581 32.3592 21.7769C32.3216 21.7675 32.2839 21.7393 32.2368 21.7204C32.1615 21.7204 32.0862 21.711 32.0109 21.7016C32.0015 21.6639 31.9826 21.6263 31.9732 21.5792C31.9638 21.5792 31.9449 21.5792 31.9355 21.5886C31.9167 21.5698 31.9073 21.5604 31.8885 21.5415C31.8038 21.5321 31.719 21.5133 31.6343 21.5039C31.6343 21.4851 31.6343 21.4662 31.6437 21.438C31.4083 21.3344 31.5495 21.4003 31.4836 21.2309C31.4836 21.2309 31.4742 21.2214 31.4647 21.212C31.4459 21.212 31.4271 21.212 31.4083 21.212H31.4365Z" fill="var(--fill-0, #102A4E)"/>
<path id="Vector_11" fill-rule="evenodd" clip-rule="evenodd" d="M33.5174 52.159C33.4138 52.2343 33.3102 52.3096 33.216 52.3849C32.8112 52.3379 32.8866 51.9801 32.6889 51.9236C32.6606 51.9707 32.6417 52.0272 32.6135 52.0742C32.5099 52.0272 32.4158 51.9707 32.3122 51.9236C32.284 51.9707 32.2652 52.0272 32.237 52.0742C32.0863 51.9989 31.9357 51.9236 31.7851 51.8389C31.5026 52.0177 31.2296 52.1872 30.9471 52.3661C30.8059 52.2531 30.787 51.9142 30.4198 51.9048C30.3916 51.9518 30.3728 52.0083 30.3445 52.0554C29.9868 52.1307 29.6384 52.1966 29.2806 52.2719C29.2053 52.4226 29.13 52.5732 29.0453 52.7239C28.8381 52.7427 28.6404 52.7709 28.4333 52.7898C28.3862 52.8933 28.3297 52.9875 28.2826 53.091C28.2355 53.0628 28.1791 53.044 28.132 53.0157C28.0756 53.2417 28.0284 53.4677 27.9719 53.6936C27.9249 53.6654 27.8683 53.6465 27.8213 53.6183C27.7742 53.7219 27.7177 53.816 27.6706 53.9196C27.6235 53.8913 27.5671 53.8725 27.52 53.8442C27.4165 54.1738 27.3128 54.5033 27.2093 54.8234C27.0869 54.8234 26.9552 54.8234 26.8328 54.8234C26.5221 55.426 26.2113 56.0285 25.91 56.6405C25.8629 56.6122 25.8065 56.5934 25.7595 56.5652C25.5523 56.97 25.3452 57.3749 25.138 57.7703C25.1851 57.7985 25.2416 57.8174 25.2887 57.8456C25.2605 57.8927 25.2416 57.9492 25.2133 57.9962C25.1662 57.968 25.1098 57.9492 25.0628 57.9209C24.9121 58.0998 24.7521 58.2693 24.6014 58.4482C24.6485 58.4764 24.7049 58.4952 24.752 58.5235C24.6013 58.8248 24.4413 59.126 24.2907 59.4273C24.2436 59.3991 24.1871 59.3803 24.14 59.352C24.0835 59.578 24.0365 59.8039 23.98 60.0299C23.9329 60.0016 23.8764 59.9828 23.8293 59.9546C23.7258 60.1523 23.6222 60.3594 23.5187 60.5571C23.5658 60.5854 23.6222 60.6042 23.6692 60.6324C23.3585 61.9223 22.3136 61.9599 21.7581 62.5154C21.5227 63.0992 21.2968 63.6735 21.0614 64.2572C21.1367 64.3608 21.212 64.4643 21.2873 64.5585C21.2403 64.662 21.1837 64.7562 21.1367 64.8598C21.6262 65.3211 21.3627 65.4811 21.2779 66.0743C21.5792 66.2249 21.8804 66.385 22.1817 66.5356C21.9558 67.5713 22.8031 67.9949 22.9161 68.8235C23.3398 69.1059 23.7729 69.3884 24.1965 69.6708C24.3189 69.6708 24.4508 69.6708 24.5732 69.6708C24.5449 69.7179 24.526 69.7744 24.4978 69.8214C24.9779 70.0003 25.4581 70.1886 25.9383 70.3675C25.9665 70.3204 25.9854 70.2639 26.0137 70.2169C26.1643 70.2922 26.3149 70.3675 26.4656 70.4522C26.4938 70.4052 26.5126 70.3487 26.5409 70.3016C26.6444 70.3487 26.7386 70.4052 26.8422 70.4522C26.8704 70.4052 26.8892 70.3487 26.9175 70.3016C27.0681 70.3769 27.2187 70.4523 27.3694 70.537C27.3976 70.4899 27.4164 70.4334 27.4447 70.3863C27.906 70.3675 28.3203 70.2734 28.6592 69.8685C28.8569 69.9721 29.0641 70.0757 29.2618 70.1792C29.6384 69.7744 29.8079 69.8403 30.2504 69.7367C30.2787 69.6896 30.2974 69.6331 30.3257 69.5861C30.5046 69.6143 30.6834 69.6426 30.8529 69.6708C30.9282 69.5202 31.0035 69.3695 31.0882 69.2189C31.2671 69.2471 31.4461 69.2754 31.6155 69.3036C31.8697 69.0494 32.1239 68.8046 32.3781 68.5504C32.5005 68.5504 32.6323 68.5504 32.7547 68.5504C32.9336 68.2021 33.1125 67.8443 33.2914 67.4959C33.3385 67.5242 33.3949 67.543 33.442 67.5713C33.8562 67.0158 34.2611 66.4697 34.6754 65.9142C34.7225 65.9425 34.779 65.9613 34.8261 65.9896C34.8261 65.8672 34.8261 65.7353 34.8261 65.613C35.1085 65.0575 35.3909 64.502 35.6733 63.9465C35.6262 63.9183 35.5698 63.8994 35.5228 63.8712C35.5981 63.7205 35.6734 63.5699 35.7581 63.4193C35.7111 63.391 35.6545 63.3722 35.6075 63.344C35.7393 63.0897 35.8617 62.845 35.9935 62.5908C35.9464 62.5625 35.8899 62.5437 35.8428 62.5154C35.9935 62.2142 36.1535 61.9129 36.3042 61.6116C36.2571 61.5833 36.2006 61.5645 36.1535 61.5363C36.1817 61.4892 36.2006 61.4327 36.2289 61.3856C36.436 61.3668 36.6338 61.3386 36.8409 61.3197C36.9162 61.1691 36.9915 61.0184 37.0763 60.8678C37.2834 60.849 37.481 60.8207 37.6881 60.8019C37.7635 60.6513 37.8388 60.5006 37.9235 60.35C38.0459 60.35 38.1777 60.35 38.3001 60.35C38.3472 60.2464 38.4037 60.1523 38.4508 60.0487C38.4979 60.077 38.5544 60.0958 38.6015 60.124C38.6768 59.8416 38.7615 59.5685 38.8369 59.2955C38.7898 59.2673 38.7333 59.2484 38.6862 59.2202C38.7709 58.9942 38.7709 59.3332 38.9121 59.1449C39.0157 58.9472 39.1192 58.74 39.2228 58.5423C39.2699 58.5706 39.3264 58.5894 39.3735 58.6176C39.4299 58.2599 39.4771 57.9115 39.5336 57.5537C39.1099 57.1395 39.3264 57.2242 39.1569 56.7911C39.1852 56.7441 39.204 56.6876 39.2322 56.6405C39.0816 56.5652 38.9309 56.4899 38.7803 56.4051C38.7615 56.198 38.7333 56.0003 38.7145 55.7931C38.5167 55.6896 38.3096 55.586 38.1119 55.4825C38.1119 55.3601 38.1119 55.2282 38.1119 55.1059C38.0083 55.0588 37.9141 55.0023 37.8105 54.9552C37.8388 54.9081 37.8577 54.8517 37.8859 54.8046C37.6976 54.7387 37.4528 54.9458 37.208 54.6445C37.208 54.5221 37.208 54.3903 37.208 54.2679C37.1044 54.2208 37.0103 54.1644 36.9067 54.1173C36.935 54.0702 36.9538 54.0137 36.982 53.9666C36.8031 53.9384 36.6243 53.9102 36.4548 53.8819C36.4548 53.8819 36.4454 53.5995 36.0782 53.4959C36.05 53.543 36.0312 53.5995 36.0029 53.6465C35.9559 53.6183 35.8993 53.5995 35.8523 53.5712C35.8805 53.5241 35.8993 53.4676 35.9275 53.4206C35.1179 53.0063 34.3176 52.5921 33.508 52.1872L33.5174 52.159Z" fill="var(--fill-0, #F2997F)"/>
<path id="Vector_12" fill-rule="evenodd" clip-rule="evenodd" d="M53.5241 69.4073H53.8253V69.3508H54.3809V69.2943H54.4844C54.5221 69.2378 54.5503 69.1813 54.588 69.1248C54.6915 69.0872 54.795 69.0495 54.8892 69.0119C54.9739 68.9365 54.9457 68.7577 54.9927 68.6823C55.0304 68.6164 55.1811 68.6164 55.247 68.5694C55.3317 68.4376 55.4164 68.3152 55.5012 68.1834C55.4918 67.9856 55.473 67.8821 55.3976 67.7408C55.36 67.722 55.3317 67.7032 55.2941 67.6844C55.2752 67.4302 55.2564 67.1665 55.247 66.9123H55.2941V66.8558H55.247V66.6393H55.2V66.5828H55.247V66.3098H55.2941V66.1968C55.2941 66.1968 55.36 66.1591 55.3976 66.1403V65.9708H55.4446C55.5011 65.7825 55.4447 65.0952 55.3976 64.9823H55.3505V64.8693H55.3035C55.2847 64.8128 55.2658 64.7563 55.2564 64.6998C55.3035 64.6621 55.36 64.6245 55.4071 64.5868V64.4739H55.4541C55.5576 64.1726 55.2846 64.0878 55.3505 63.8148H55.3976V63.6453H55.4446C55.4258 63.5135 55.407 63.3911 55.3976 63.2593H55.3505C55.3505 63.2593 55.3882 63.184 55.3976 63.1463V62.8733H55.3505C55.3411 62.7792 55.3976 62.7792 55.3976 62.7603V62.3743H55.3505C55.3317 62.2519 55.4635 62.1578 55.3976 61.9883H55.3505V61.8753C55.3034 61.8377 55.247 61.8 55.2 61.7623L55.247 61.5929H55.2941V61.4799H55.3411C55.407 61.2633 55.2281 61.2163 55.2375 61.0374C55.2375 60.9715 55.3223 60.8585 55.2847 60.7079H55.2375V60.2089C55.1905 60.0206 55.1152 59.7475 55.087 59.5498C54.9458 59.5122 54.974 59.4745 54.8328 59.4368C54.7763 59.2203 54.8139 59.3709 54.6821 59.2674V59.2109H54.5785C54.5597 59.1544 54.5408 59.0979 54.5314 59.0414H54.4844C54.3808 58.919 54.3902 58.8437 54.1831 58.8249V58.7684C54.0607 58.7213 53.8818 59.0226 53.5711 58.9379V58.8814H53.2133V58.8249H53.0627V58.8814C52.9592 58.8908 52.9592 58.8249 52.9592 58.8249H52.6014V58.7684C52.4131 58.7119 52.253 58.8908 52.1965 58.8814C52.1777 58.8437 52.1588 58.806 52.1494 58.7684H51.8953V58.7119H51.8482V58.7684C51.8011 58.7872 51.7446 58.806 51.6975 58.8249V58.8814C51.5563 58.919 51.4904 58.6554 51.2456 58.7119V58.7684H50.9914V58.7119H50.6901V58.7684C50.6148 58.7684 50.7089 58.7307 50.643 58.7119H50.3888V58.6554C50.2758 58.6272 50.2476 58.7213 50.1817 58.7119V58.6554H50.031V58.5989C49.9369 58.5707 49.9557 58.6366 49.9275 58.6554C49.8616 58.646 49.8428 58.5613 49.7204 58.5989V58.6554H49.6734V58.5989H49.1649C49.1649 58.5989 49.1272 58.6742 49.1178 58.7119C49.0707 58.6931 49.0143 58.6742 48.9673 58.6554V58.7119H48.8636V58.7684C48.7788 58.759 48.7319 58.6177 48.713 58.5989C48.5718 58.533 48.3929 58.6742 48.3081 58.6554V58.5989H48.2046V58.5424C48.101 58.5613 47.9975 58.5801 47.9034 58.5989V58.6554H47.8562V58.5989H47.7056V58.5424H47.6586V58.5989C47.5267 58.5801 47.3855 58.5613 47.2537 58.5424V58.5989H46.9524C46.9524 58.5989 46.8865 58.5613 46.8489 58.5424V58.5989H46.3969V58.6554C46.3498 58.6366 46.2934 58.6177 46.2463 58.5989V58.6554H46.0956V58.7119C45.9921 58.6931 45.8884 58.6742 45.7943 58.6554V58.7119H45.6907C45.6907 58.7119 45.6532 58.7872 45.6437 58.8249H45.5402V58.8814H45.333V58.9379C45.2671 58.9943 45.2012 59.0508 45.1259 59.1073V59.2768C45.0506 59.4651 45.0788 59.5404 44.8716 59.6063C44.8528 59.6816 44.8341 59.757 44.8246 59.8229H44.7775V60.1524H44.7305V60.4254H44.6834C44.6363 60.5949 44.7493 60.7832 44.7305 60.8679H44.6834V60.9809H44.6363V61.2539H44.5893V61.6964H44.5421V62.026H44.4951C44.514 62.1578 44.5327 62.2802 44.5421 62.412H44.4951V62.525H44.448C44.4198 62.6379 44.4951 62.6944 44.4951 62.6944C44.4763 62.8733 44.4574 63.0616 44.448 63.2405C44.4669 63.3723 44.4857 63.4947 44.4951 63.6265H44.448V63.8431C44.448 63.8431 44.3821 63.8807 44.3445 63.8995V64.069H44.2973C44.3444 64.2667 44.4009 64.4739 44.448 64.6716C44.4104 64.6904 44.3821 64.7092 44.3445 64.7281C44.3256 64.8222 44.3068 64.9069 44.2973 65.0011H44.2503C44.288 65.1329 44.3162 65.2553 44.3539 65.3871H44.3068V65.6037H44.2598V66.1026H44.2126C44.2597 66.2721 44.3162 66.4322 44.3633 66.6016H44.3162C44.2974 66.677 44.2785 66.7523 44.2691 66.8182H44.2221C44.2409 66.95 44.2597 67.0724 44.2691 67.2042C44.3067 67.223 44.3351 67.2419 44.3727 67.2607C44.3539 67.3737 44.335 67.4772 44.3256 67.5902H44.2785L44.3256 67.9762H44.3727C44.4292 68.2022 44.2691 68.2398 44.2221 68.3622V68.5317C44.2032 68.607 44.1749 68.5129 44.1749 68.5882H44.2221C44.2409 68.72 44.2597 68.8424 44.2691 68.9742H44.3162C44.4009 69.1437 44.4762 69.2661 44.5233 69.4732C44.7304 69.5203 44.8246 69.5862 45.1353 69.5862L45.1824 69.7556C45.286 69.7745 45.3895 69.7933 45.4836 69.8121V69.8686H45.5872V69.9251H46.1992V69.8686H46.3499V69.8121C46.4628 69.7839 46.5004 69.8686 46.5004 69.8686H46.9053V69.8121C47.056 69.7651 47.3761 69.8686 47.4138 69.8686V69.8121H47.9692V69.7556H48.327V69.8121H48.3741C48.4777 69.7933 48.6942 69.605 48.826 69.6427V69.6992C48.8919 69.718 48.9578 69.7368 49.0331 69.7556V69.8121H49.2873V69.7556C49.4568 69.7745 49.6262 69.7933 49.7957 69.8121V69.7556C49.8616 69.7368 49.9276 69.718 50.0029 69.6992V69.6427C50.1064 69.6615 50.21 69.6803 50.3041 69.6992V69.7556H50.3512V69.6992H51.4151V69.6427H51.5187C51.5187 69.6427 51.5563 69.5674 51.5657 69.5297H51.6693V69.4732C51.9047 69.492 52.1401 69.5109 52.3755 69.5297V69.4732H52.479V69.4167H52.8368V69.3602H52.9873V69.3037H53.0345V69.3602H53.2416V69.4167H53.2887V69.3602H53.5429V69.3037C53.6182 69.3037 53.524 69.3508 53.5899 69.3602L53.5241 69.4073Z" fill="var(--fill-0, #094B95)"/>
<path id="Vector_13" fill-rule="evenodd" clip-rule="evenodd" d="M43.5631 80.6958C43.4972 80.6675 43.4407 80.6393 43.3748 80.6111C43.3748 80.6205 43.356 80.6299 43.3465 80.6487C43.2336 80.6487 43.1489 80.6675 43.0453 80.6393C42.9229 80.7711 42.857 80.8088 42.7064 81.0159C42.6781 81.0159 42.6405 81.0065 42.6123 80.9971C42.5558 81.063 42.4992 81.1195 42.4427 81.1854L42.4239 81.1665C42.4239 81.1665 42.3957 81.2136 42.3769 81.2324C42.3769 81.2324 42.358 81.223 42.358 81.2136C42.2639 81.3548 42.1603 81.4866 42.0661 81.6279C42.0661 81.6279 42.085 81.6373 42.085 81.6467C42.0567 81.6844 42.0379 81.7126 42.0097 81.7503C42.0097 81.7503 42.0284 81.7597 42.0284 81.7691C41.9908 81.8538 41.9343 81.8538 41.9343 81.8538C41.8684 81.948 41.8025 82.0327 41.7366 82.1269L41.7555 82.1457C41.699 82.2587 41.5012 82.447 41.4918 82.4752C41.4918 82.4752 41.5107 82.4846 41.5107 82.494C41.4259 82.6164 41.3318 82.7482 41.247 82.8706C41.247 82.8706 41.2659 82.8801 41.2659 82.8895C41.2094 82.9648 41.1528 83.0495 41.0964 83.1249C41.0964 83.1249 41.0776 83.1154 41.0776 83.106C41.0776 83.1154 41.0588 83.1248 41.0493 83.1437C41.0023 83.219 40.9834 83.4261 40.8987 83.5014C40.8987 83.5014 40.8798 83.492 40.8798 83.4826C40.8422 83.5203 40.7951 83.5674 40.7574 83.605C40.7574 83.605 40.7386 83.5956 40.7386 83.5862C40.7009 83.6427 40.6538 83.6992 40.6162 83.7557C40.6162 83.7557 40.635 83.7651 40.635 83.7745C40.5503 83.8875 40.4562 83.991 40.3715 84.104C40.3715 84.104 40.3902 84.1134 40.3902 84.1228C40.362 84.1699 40.3432 84.2264 40.315 84.2735L40.3338 84.2923C40.2773 84.3582 40.2208 84.4147 40.1643 84.4806C40.1643 84.4806 40.1454 84.4712 40.1454 84.4618L40.1173 84.4994C40.1173 84.4994 40.1361 84.5088 40.1361 84.5183C39.9667 84.7536 39.7971 84.9984 39.6277 85.2338C39.6277 85.2338 39.6465 85.2432 39.6465 85.2526C39.6277 85.2715 39.6182 85.2997 39.5994 85.3185C39.5994 85.3374 39.6183 85.3656 39.6183 85.3844C39.5994 85.4033 39.59 85.4315 39.5711 85.4503C39.5711 85.4503 39.59 85.4598 39.59 85.4692C39.4676 85.6198 39.3452 85.7799 39.2228 85.9305C39.2228 85.9305 39.2416 85.9399 39.2416 85.9493C39.2228 85.9682 39.2135 85.9964 39.1946 86.0152L39.2134 86.0341C39.1569 86.1094 39.1004 86.1941 39.044 86.2694L39.0628 86.2883C39.0628 86.2883 39.0157 86.3542 38.9874 86.3918C38.978 86.3918 38.9687 86.3918 38.9593 86.3918C38.9593 86.4013 38.9404 86.4107 38.931 86.4295C38.8274 86.4577 38.7992 86.4295 38.6956 86.5707C38.6956 86.5707 38.6768 86.5613 38.6768 86.5519C38.592 86.6178 38.6391 86.8343 38.4508 87.0132C38.4508 87.0132 38.432 87.0038 38.432 86.9944C38.3755 87.0697 38.3189 87.1545 38.2624 87.2298C38.2624 87.2298 38.2437 87.2204 38.2437 87.2109C38.2155 87.2486 38.1966 87.2768 38.1683 87.3145C38.1683 87.3145 38.1872 87.3239 38.1872 87.3333C38.1401 87.4087 38.1119 87.3898 38.1119 87.3898C38.0554 87.4652 37.9989 87.5499 37.9424 87.6252C37.9424 87.6252 37.9235 87.6158 37.9235 87.6064C37.8105 87.7194 37.8106 87.8794 37.773 87.9171C37.7541 87.9171 37.7258 87.9171 37.707 87.9171C37.6693 87.9736 37.6222 88.03 37.5846 88.0865C37.5846 88.0865 37.5657 88.0771 37.5657 88.0677C37.5657 88.0771 37.547 88.0865 37.5376 88.1054L37.5563 88.1242C37.5563 88.1242 37.5187 88.1995 37.5093 88.2466C37.5093 88.2466 37.5282 88.256 37.5282 88.2654C37.4811 88.369 37.3304 88.3407 37.2362 88.5196C37.2362 88.5196 37.2551 88.529 37.2551 88.5385C37.2174 88.5949 37.1703 88.6514 37.1327 88.7079L37.1138 88.6891C37.0668 88.755 37.0197 88.8303 36.9726 88.8962C36.9726 88.8962 36.9914 88.9056 36.9914 88.9151C36.9538 88.9621 36.9915 88.8868 36.9444 88.9339C36.9068 88.9904 36.8597 89.0469 36.822 89.1034L36.8032 89.0845C36.7373 89.1504 36.7656 89.1975 36.7279 89.2352C36.7279 89.2352 36.7091 89.2257 36.7091 89.2163C36.6808 89.254 36.6619 89.2822 36.6337 89.3199L36.6148 89.3011C36.5583 89.3576 36.5961 89.3576 36.5867 89.3858C36.549 89.4329 36.5113 89.414 36.4643 89.5082C36.4643 89.5082 36.4831 89.5176 36.4831 89.527C36.4831 89.5364 36.4643 89.5459 36.4548 89.5647C36.4548 89.5647 36.436 89.5553 36.436 89.5459C36.3513 89.6588 36.2759 89.7718 36.1912 89.8848C36.1912 89.9036 36.21 89.9319 36.21 89.9507C36.1818 89.9789 36.1442 90.0072 36.1159 90.0354C36.1159 90.0354 36.1348 90.0448 36.1348 90.0543C36.1159 90.0731 36.1065 90.1013 36.0876 90.1202L36.1065 90.139C36.0594 90.1955 35.9747 90.1861 35.9652 90.1955C35.8711 90.2708 35.8428 90.4403 35.7957 90.4874C35.7957 90.4874 35.777 90.4779 35.777 90.4685C35.7582 90.4874 35.7487 90.5156 35.7299 90.5344L35.711 90.5156C35.6734 90.5909 35.6263 90.6662 35.5886 90.7416C35.5886 90.7416 35.6075 90.751 35.6075 90.7604L35.5792 90.798C35.5792 90.798 35.5603 90.7886 35.5603 90.7792C35.5321 90.8169 35.5133 90.8451 35.4851 90.8828L35.4662 90.8639C35.4662 90.8639 35.4474 90.8828 35.4379 90.9016L35.4568 90.9204C35.3815 91.0052 35.3156 91.0899 35.2403 91.1746C35.2403 91.1746 35.2591 91.1841 35.2591 91.1935C35.212 91.2594 35.1649 91.3347 35.1179 91.4006C35.0896 91.4194 35.0708 91.4383 35.0426 91.4571C35.0426 91.4571 35.0614 91.4665 35.0614 91.4759C34.9861 91.5795 34.9202 91.6831 34.8449 91.7866C34.8449 91.7866 34.8636 91.796 34.8636 91.8054C34.8354 91.8337 34.7978 91.8619 34.7695 91.8902C34.7695 91.8902 34.7884 91.8996 34.7884 91.909C34.7601 91.9467 34.7413 91.9749 34.7131 92.0126C34.7131 92.0126 34.7318 92.022 34.7318 92.0314C34.6753 92.0973 34.6189 92.1538 34.5624 92.2197C34.5624 92.2197 34.5813 92.2291 34.5813 92.2385C34.5624 92.2574 34.553 92.2856 34.5341 92.3044C34.5341 92.3233 34.553 92.3515 34.553 92.3703C34.5342 92.3892 34.5247 92.4174 34.5059 92.4363L34.5247 92.4551C34.5247 92.4551 34.4588 92.5492 34.4306 92.5963L34.4494 92.6151C34.4494 92.681 34.4306 92.7375 34.4212 92.8034C34.44 92.8223 34.4683 92.8317 34.4871 92.8505C34.5342 92.9541 34.5718 92.9635 34.5059 93.1235C34.5247 93.1612 34.553 93.1894 34.5718 93.2271L34.5436 93.2648C34.5436 93.2648 34.6377 93.3307 34.6848 93.3589C34.6848 93.3683 34.666 93.3777 34.6565 93.3966C34.6942 93.4248 34.7319 93.4531 34.7695 93.4813C34.7695 93.4907 34.7507 93.5001 34.7412 93.519C34.7883 93.6037 34.9296 93.5849 34.9485 93.6131C34.9485 93.6225 34.9296 93.6319 34.9202 93.6508C34.939 93.6602 34.9484 93.6696 34.9672 93.679C34.9672 93.6884 34.9485 93.6979 34.939 93.7167C34.9767 93.7449 35.0144 93.7732 35.052 93.8014C35.052 93.8108 35.0332 93.8203 35.0237 93.8391C35.0896 93.8862 35.1461 93.9238 35.212 93.9709L35.1838 94.0086C35.1838 94.0086 35.2779 94.0745 35.325 94.1027C35.325 94.1121 35.3062 94.1215 35.2968 94.1404C35.3627 94.1686 35.4192 94.1968 35.4851 94.2251C35.4851 94.2345 35.4662 94.2439 35.4568 94.2628C35.4756 94.2722 35.4851 94.2816 35.5039 94.291C35.5039 94.3004 35.4851 94.3098 35.4756 94.3287C35.5133 94.3851 35.5698 94.3475 35.5698 94.3475C35.6357 94.4134 35.7111 94.4793 35.777 94.5452C35.8429 94.5734 35.8993 94.6017 35.9652 94.6299C35.9652 94.6394 35.9464 94.6488 35.937 94.6676L36.0311 94.7335C36.0311 94.7335 36.0124 94.79 36.0029 94.8182L36.0688 94.8653C36.0688 94.8653 36.0499 94.8841 36.0405 94.903C36.1535 94.9312 36.2572 94.9595 36.3701 94.9783C36.3701 95.0065 36.3513 95.0348 36.3419 95.063C36.3701 95.1007 36.3983 95.1383 36.436 95.176C36.436 95.1854 36.4171 95.1948 36.4077 95.2137C36.4736 95.2325 36.5489 95.2419 36.6148 95.2607C36.6148 95.2702 36.5961 95.2796 36.5867 95.2984C36.6149 95.3172 36.6525 95.3455 36.6808 95.3643C36.6808 95.3737 36.6619 95.3831 36.6525 95.402C36.7184 95.449 36.7937 95.4961 36.8596 95.5526C36.8596 95.562 36.8409 95.5714 36.8315 95.5903C36.9256 95.6091 37.0197 95.6185 37.1138 95.6373C37.1138 95.6468 37.095 95.6562 37.0856 95.675C37.1044 95.7127 37.1327 95.7409 37.1515 95.7786C37.1515 95.788 37.1327 95.7974 37.1233 95.8162C37.1892 95.8445 37.2457 95.8727 37.3116 95.901C37.3399 95.8821 37.3587 95.8633 37.3869 95.8445C37.4246 95.8915 37.4622 95.9292 37.4999 95.9763C37.4999 95.9857 37.481 95.9951 37.4716 96.0139C37.5375 96.0422 37.5941 96.0704 37.66 96.0987C37.66 96.0893 37.6787 96.0798 37.6881 96.061C37.8105 96.0987 37.7447 96.2116 37.773 96.2776L37.8388 96.3246C37.8388 96.3246 37.8106 96.3529 37.8388 96.3717C37.8388 96.3623 37.8577 96.3529 37.8671 96.334C37.933 96.3623 37.9894 96.3905 38.0553 96.4188C38.0553 96.4094 38.0742 96.3999 38.0836 96.3811C38.1966 96.3811 38.2813 96.3623 38.3848 96.3905C38.5072 96.2587 38.5732 96.2211 38.7239 96.0139C38.7521 96.0139 38.7898 96.0234 38.818 96.0328C38.8745 95.9669 38.9309 95.9104 38.9874 95.8445C38.9874 95.8445 39.0063 95.8539 39.0063 95.8633C39.0251 95.8445 39.0345 95.8162 39.0534 95.7974C39.0534 95.7974 39.0722 95.8068 39.0722 95.8162C39.1664 95.675 39.2699 95.5432 39.364 95.402L39.3452 95.3831C39.3452 95.3831 39.3923 95.3172 39.4206 95.2796C39.4206 95.2796 39.4017 95.2702 39.4017 95.2607C39.4394 95.176 39.4959 95.176 39.4959 95.176L39.6935 94.903L39.6747 94.8841C39.7312 94.7712 39.9289 94.5829 39.9383 94.5546L39.9195 94.5358C40.0042 94.4134 40.0984 94.2816 40.1831 94.1592C40.1831 94.1592 40.1643 94.1498 40.1643 94.1404C40.2208 94.065 40.2773 93.9803 40.3338 93.905C40.3338 93.905 40.3526 93.9144 40.3526 93.9238C40.3526 93.9144 40.3714 93.905 40.3808 93.8862C40.4279 93.8108 40.4467 93.6037 40.5315 93.5284C40.5315 93.5284 40.5503 93.5378 40.5503 93.5472C40.588 93.5096 40.6351 93.4625 40.6727 93.4248C40.6727 93.4248 40.6916 93.4342 40.6916 93.4437C40.7292 93.3872 40.7763 93.3307 40.814 93.2742C40.814 93.2742 40.7951 93.2648 40.7951 93.2554C40.8799 93.1424 40.974 93.0388 41.0588 92.9258C41.0588 92.9258 41.0399 92.9164 41.0399 92.907C41.0682 92.8599 41.087 92.8034 41.1152 92.7564C41.1152 92.7564 41.0964 92.7469 41.0964 92.7375C41.1528 92.6716 41.2094 92.6151 41.2659 92.5492L41.2847 92.5681L41.313 92.5304C41.313 92.5304 41.2941 92.521 41.2941 92.5116L41.8025 91.796L41.7837 91.7772C41.7837 91.7772 41.8119 91.7301 41.8307 91.7113C41.8307 91.6925 41.8119 91.6642 41.8119 91.6454C41.8307 91.6266 41.8402 91.5983 41.859 91.5795C41.859 91.5795 41.8402 91.5701 41.8402 91.5607C41.9626 91.41 42.085 91.25 42.2074 91.0993C42.2074 91.0993 42.1885 91.0899 42.1885 91.0805C42.2074 91.0617 42.2168 91.0334 42.2356 91.0146L42.2168 90.9958C42.2733 90.9204 42.3297 90.8357 42.3862 90.7604C42.3862 90.7604 42.3675 90.751 42.3675 90.7416C42.3957 90.7039 42.4145 90.6757 42.4427 90.638C42.4522 90.638 42.4616 90.638 42.471 90.638C42.471 90.6286 42.4898 90.6192 42.4992 90.6003C42.6027 90.5721 42.631 90.6003 42.7345 90.4591C42.7345 90.4591 42.7534 90.4685 42.7534 90.4779C42.8381 90.412 42.791 90.1955 42.9793 90.0166C42.9793 90.0166 42.9982 90.026 42.9982 90.0354C43.0547 89.9601 43.1112 89.8754 43.1677 89.8001C43.1677 89.8001 43.1866 89.8095 43.1866 89.8189C43.2148 89.7812 43.2336 89.753 43.2618 89.7153C43.2618 89.7153 43.243 89.7059 43.243 89.6965C43.2901 89.6212 43.3184 89.64 43.3184 89.64C43.3749 89.5647 43.4313 89.48 43.4878 89.4046C43.4878 89.4046 43.5066 89.414 43.5066 89.4235C43.6196 89.3105 43.6197 89.1504 43.6573 89.1128C43.6761 89.1128 43.7043 89.1128 43.7232 89.1128C43.7608 89.0563 43.8079 88.9998 43.8456 88.9433C43.8456 88.9433 43.8644 88.9527 43.8644 88.9621C43.8644 88.9527 43.8833 88.9433 43.8927 88.9245C43.8927 88.9245 43.8738 88.9151 43.8738 88.9056C43.8927 88.868 43.9114 88.8303 43.9208 88.7832C43.9208 88.7832 43.9021 88.7738 43.9021 88.7644C43.9492 88.6609 44.0998 88.6891 44.1939 88.5008C44.1939 88.5008 44.1751 88.4914 44.1751 88.482C44.2127 88.4255 44.2598 88.369 44.2975 88.3125L44.3163 88.3313C44.3634 88.2654 44.4105 88.1901 44.4576 88.1242C44.4576 88.1242 44.4387 88.1148 44.4387 88.1054C44.4764 88.0583 44.4388 88.1336 44.4858 88.0865C44.5235 88.03 44.5706 87.9736 44.6082 87.9171C44.6082 87.9171 44.627 87.9265 44.627 87.9359C44.6929 87.87 44.6647 87.8229 44.7024 87.7853L44.7212 87.8041C44.7212 87.8041 44.7682 87.7382 44.7965 87.7005C44.7965 87.7005 44.8153 87.7099 44.8153 87.7194C44.8718 87.6629 44.8342 87.6629 44.8436 87.6346C44.8813 87.5875 44.9189 87.6064 44.966 87.5122C44.966 87.5122 44.9472 87.5028 44.9472 87.4934C44.9472 87.484 44.9659 87.4746 44.9753 87.4557L44.9942 87.4746C45.0789 87.3616 45.1542 87.2486 45.239 87.1356C45.239 87.1168 45.2201 87.0885 45.2201 87.0697C45.2484 87.0415 45.2861 87.0132 45.3144 86.985C45.3144 86.985 45.2955 86.9756 45.2955 86.9662C45.3143 86.9473 45.3237 86.9191 45.3425 86.9002L45.3237 86.8814C45.3707 86.8249 45.4555 86.8343 45.4649 86.8249C45.5591 86.7496 45.5874 86.5801 45.6344 86.5331C45.6344 86.5331 45.6533 86.5425 45.6533 86.5519C45.6721 86.5331 45.6815 86.5048 45.7003 86.486L45.7191 86.5048C45.7568 86.4295 45.8039 86.3542 45.8415 86.2789C45.8415 86.2789 45.8227 86.2694 45.8227 86.26C45.8227 86.2506 45.8415 86.2412 45.851 86.2224C45.851 86.2224 45.8698 86.2318 45.8698 86.2412C45.898 86.2035 45.9168 86.1753 45.9451 86.1376C45.9451 86.1376 45.9639 86.1471 45.9639 86.1565C45.9639 86.1471 45.9828 86.1376 45.9922 86.1188C45.9922 86.1188 45.9734 86.1094 45.9734 86.1C46.0487 86.0152 46.1146 85.9305 46.1899 85.8458C46.1899 85.8458 46.171 85.8364 46.171 85.8269C46.2181 85.761 46.2652 85.6857 46.3123 85.6198C46.3405 85.601 46.3593 85.5822 46.3876 85.5633C46.3876 85.5633 46.3688 85.5539 46.3688 85.5445C46.4441 85.4409 46.51 85.3374 46.5854 85.2338L46.5665 85.215C46.5665 85.215 46.6324 85.1585 46.6606 85.1302C46.6606 85.1302 46.6418 85.1208 46.6418 85.1114C46.67 85.0737 46.6889 85.0455 46.7172 85.0078C46.7172 85.0078 46.6983 84.9984 46.6983 84.989C46.7548 84.9231 46.8112 84.8666 46.8677 84.8007C46.8677 84.8007 46.849 84.7913 46.849 84.7819C46.8678 84.7631 46.8772 84.7348 46.896 84.716C46.896 84.6971 46.8772 84.6689 46.8772 84.6501C46.896 84.6312 46.9054 84.603 46.9243 84.5842L46.9054 84.5653C46.9054 84.5653 46.9713 84.4712 46.9996 84.4241L46.9807 84.4053C46.9807 84.3394 46.9996 84.2829 47.009 84.217C46.9901 84.1982 46.962 84.1887 46.9431 84.1699C46.896 84.0663 46.8584 84.0569 46.9243 83.8969C46.9054 83.8592 46.8771 83.831 46.8583 83.7933C46.8583 83.7839 46.8772 83.7745 46.8866 83.7557C46.8395 83.7274 46.7924 83.6897 46.7453 83.6615C46.7453 83.6521 46.7642 83.6427 46.7736 83.6238C46.7359 83.5956 46.6983 83.5674 46.6606 83.5391C46.6606 83.5297 46.6795 83.5203 46.6889 83.5014C46.6418 83.4167 46.5006 83.4355 46.4818 83.4073C46.4818 83.3979 46.5005 83.3885 46.51 83.3696C46.4911 83.3602 46.4818 83.3508 46.463 83.3414C46.463 83.332 46.4818 83.3226 46.4912 83.3037C46.4536 83.2755 46.4159 83.2472 46.3782 83.219C46.3782 83.2096 46.397 83.2002 46.4064 83.1813C46.3405 83.1343 46.2841 83.0966 46.2182 83.0495C46.2182 83.0401 46.237 83.0307 46.2464 83.0119C46.1994 82.9836 46.1523 82.946 46.1052 82.9177C46.1052 82.9083 46.124 82.8989 46.1335 82.8801C46.0675 82.8518 46.011 82.8236 45.9451 82.7953C45.9451 82.7859 45.9639 82.7765 45.9734 82.7577C45.9545 82.7482 45.9451 82.7388 45.9262 82.7294L45.9545 82.6918C45.9168 82.6353 45.8604 82.6729 45.8604 82.6729C45.7945 82.607 45.7192 82.5411 45.6533 82.4752C45.5874 82.447 45.5308 82.4187 45.4649 82.3905C45.4649 82.3811 45.4838 82.3716 45.4932 82.3528L45.3991 82.2869C45.3991 82.2869 45.4179 82.2304 45.4273 82.2022C45.4085 82.1834 45.3802 82.1739 45.3614 82.1551C45.3614 82.1457 45.3802 82.1363 45.3896 82.1174C45.2767 82.0892 45.1731 82.0704 45.0601 82.0421C45.0601 82.0139 45.0789 81.9856 45.0883 81.9574C45.06 81.9197 45.0318 81.8821 44.9942 81.8444C44.9942 81.835 45.013 81.8256 45.0224 81.8068C44.9565 81.7879 44.8812 81.7785 44.8153 81.7597C44.8153 81.7503 44.8342 81.7408 44.8436 81.722C44.8154 81.7032 44.7776 81.6749 44.7494 81.6561C44.7494 81.6467 44.7682 81.6373 44.7776 81.6185C44.7117 81.5714 44.6364 81.5243 44.5705 81.4678C44.5705 81.4584 44.5894 81.449 44.5988 81.4302C44.5047 81.4113 44.4105 81.4019 44.3163 81.3831C44.3163 81.3737 44.3352 81.3642 44.3446 81.3454C44.3258 81.3078 44.2974 81.2795 44.2786 81.2419C44.2786 81.2324 44.2975 81.223 44.3069 81.2042C44.241 81.176 44.1845 81.1477 44.1186 81.1195C44.0904 81.1383 44.0715 81.1571 44.0432 81.1759C44.0056 81.1289 43.9679 81.0912 43.9303 81.0441C43.9303 81.0347 43.9491 81.0253 43.9585 81.0065C43.8926 80.9782 43.8362 80.95 43.7703 80.9217C43.7703 80.9312 43.7514 80.9406 43.742 80.9594C43.6196 80.9217 43.6856 80.8088 43.6573 80.7429C43.6385 80.724 43.6102 80.7146 43.5913 80.6958C43.5725 80.6581 43.6196 80.6675 43.5913 80.6487L43.5631 80.6864V80.6958Z" fill="var(--fill-0, white)"/>
</g>
</svg>
