<svg preserveAspectRatio="none" width="100%" height="100%" overflow="visible" style="display: block;" viewBox="0 0 136.494 114.312" fill="none" xmlns="http://www.w3.org/2000/svg">
<g id="Group">
<path id="Vector" fill-rule="evenodd" clip-rule="evenodd" d="M113.879 97.0308C114.058 97.9723 114.623 98.4619 115.282 98.9326C115.48 98.9421 115.687 98.9609 115.885 98.9703C116.6 99.5917 115.791 100.1 117.306 100.571C117.316 101.343 117.25 101.635 117.523 102.096C117.627 102.096 117.721 102.105 117.824 102.115C117.815 102.313 117.796 102.52 117.787 102.717C117.984 102.83 118.182 102.943 118.37 103.056C118.342 103.565 118.314 104.064 118.286 104.572C118.483 104.685 118.681 104.798 118.869 104.911C118.945 105.316 119.02 105.73 119.095 106.135C119.867 106.399 120.046 106.662 120.555 107.133C120.555 107.237 120.545 107.331 120.536 107.434C120.733 107.444 120.941 107.463 121.138 107.472C121.223 107.679 121.317 107.886 121.402 108.093C122.061 108.442 122.635 107.802 122.927 107.877C122.927 107.98 122.918 108.075 122.908 108.178C123.106 108.188 123.313 108.206 123.511 108.216C123.596 108.423 123.69 108.63 123.774 108.837C124.678 108.894 125.592 108.941 126.495 108.997C126.495 108.894 126.505 108.8 126.514 108.696C127.117 108.828 127.71 108.969 128.312 109.101C128.312 108.997 128.322 108.903 128.331 108.8C129.047 108.743 129.753 108.677 130.469 108.621C130.469 108.517 130.478 108.423 130.487 108.319C130.685 108.329 130.892 108.348 131.09 108.357C131.09 108.253 131.099 108.159 131.109 108.056C131.419 107.971 131.73 107.886 132.031 107.811C132.154 107.519 132.267 107.218 132.389 106.926C132.69 106.945 132.992 106.964 133.293 106.982C133.293 106.879 133.302 106.785 133.312 106.681C133.698 106.465 134.733 105.325 134.931 104.958C134.95 104.657 134.969 104.356 134.988 104.054C135.195 103.97 135.402 103.876 135.609 103.791C135.75 103.094 135.892 102.388 136.033 101.691C136.136 101.691 136.23 101.701 136.334 101.71L136.052 101.39C136.202 100.59 136.343 99.7894 136.494 98.9891C136.391 98.9891 136.296 98.9797 136.193 98.9703C136.212 98.669 136.23 98.3677 136.249 98.0665C136.146 98.0665 136.052 98.0571 135.948 98.0476C135.948 97.6522 136.513 97.5675 136.325 96.8519C136.221 96.8519 136.127 96.8425 136.023 96.8331C136.033 96.6354 136.052 96.4283 136.061 96.2306C135.863 96.1176 135.666 96.0046 135.477 95.8916C135.402 95.3832 135.336 94.8748 135.261 94.3664C134.903 93.745 133.952 93.4437 133.538 92.747C132.935 92.6152 132.342 92.474 131.74 92.3422C131.74 92.2386 131.749 92.1445 131.758 92.0409C130.647 92.0785 129.527 92.1162 128.416 92.1445C128.416 92.248 128.407 92.3422 128.397 92.4457C128.105 92.3233 127.804 92.2104 127.512 92.088C127.296 91.0241 126.194 90.0261 125.554 89.2446C125.356 89.1317 125.158 89.0187 124.97 88.9057C124.989 88.6044 125.008 88.3031 125.027 88.0019C124.923 88.0019 124.829 87.9925 124.725 87.983C124.292 87.0604 124.386 86.7309 123.304 86.3825C123.313 86.1848 123.332 85.9777 123.341 85.7799C123.144 85.7705 122.937 85.7517 122.739 85.7423C122.654 85.5352 122.56 85.328 122.475 85.1209C121.863 85.1868 121.251 85.2527 120.639 85.3186C120.639 85.215 120.649 85.1209 120.658 85.0173C120.46 85.0079 120.253 84.9891 120.056 84.9797C120.056 84.8761 120.065 84.7819 120.074 84.6784C119.566 84.7537 119.058 84.8196 118.54 84.8949C118.267 85.7329 117.947 85.7329 117.542 86.3542C117.344 86.3448 117.137 86.326 116.939 86.3166C116.807 86.8156 116.676 87.3146 116.544 87.8136C116.035 87.8889 115.527 87.9548 115.019 88.0301C115.009 88.2278 114.99 88.435 114.981 88.6327C114.783 88.6233 114.576 88.6044 114.378 88.595C114.256 88.9904 114.134 89.3859 114.002 89.7907C113.333 89.8943 113.136 89.9319 112.759 90.3274C112.655 90.3274 112.561 90.318 112.458 90.3085C112.429 90.8169 112.401 91.3159 112.373 91.8243C112.166 91.9091 111.959 92.0032 111.752 92.088C111.008 93.5755 113.041 96.7955 113.889 97.0685L113.879 97.0308Z" fill="var(--fill-0, #F2997F)"/>
<path id="Vector_2" fill-rule="evenodd" clip-rule="evenodd" d="M125.253 81.8914C124.914 81.656 124.001 81.656 123.784 81.3077V80.1308H123.492C123.398 79.839 123.294 79.5471 123.2 79.2552C122.711 79.1611 122.221 79.0575 121.732 78.9634C121.515 77.8712 121.044 77.1651 119.971 76.9109C119.801 76.2613 119.726 76.1671 119.387 75.734H119.095V75.1503C118.22 74.3689 117.335 73.5874 116.459 72.806V72.2222C116.167 72.0245 115.875 71.8268 115.574 71.6385V70.7629C114.774 70.5558 114.915 70.3675 114.105 70.1792C114.039 68.9176 113.927 69.1812 113.522 68.4186H112.345C112.147 67.4112 111.874 66.8934 110.876 66.658V66.0743C110.584 65.9801 110.292 65.8766 110 65.7824C109.511 65.1987 109.021 64.6055 108.532 64.0218H107.647C107.298 62.8261 107.44 63.7111 106.762 63.1462V62.8543H106.47V62.2706H106.178C105.886 61.8752 105.594 61.4892 105.293 61.0938H104.408C104.229 59.6533 103.118 59.0507 102.356 58.1563H102.064C101.969 57.8644 101.866 57.5726 101.772 57.2713H100.887V56.9794H100.595C100.501 56.4898 100.397 56.0003 100.303 55.5107C99.9076 55.4165 99.5216 55.313 99.1262 55.2188C98.9473 54.5221 98.4295 53.8348 97.9493 53.4582V53.1663H97.0737V52.2813C96.3958 51.9518 95.8309 51.594 95.3131 51.1045C95.219 50.9068 95.1154 50.709 95.0213 50.5207C94.7294 50.4266 94.4375 50.323 94.1457 50.2289V49.6451L93.5619 49.0614H92.9782C92.5828 48.5718 92.1968 48.0823 91.8013 47.5927H91.2176C91.1235 47.3008 91.0199 47.009 90.9258 46.7171C90.728 46.6229 90.5303 46.5194 90.342 46.4252V46.1334H89.7583V45.8415H89.1746C89.0804 45.6438 88.9768 45.4461 88.8827 45.2578H88.299V44.9659C88.0071 44.8718 87.7152 44.7682 87.414 44.674C87.1974 42.744 86.2465 43.4124 85.0696 42.6216C84.8719 42.3297 84.6742 42.0379 84.4859 41.746H83.9022C83.808 41.5483 83.7045 41.3506 83.6103 41.1623C83.2149 41.0681 82.8289 40.9645 82.4334 40.8704V40.5785C81.8121 40.089 81.4449 39.7877 80.381 39.6935C79.9479 37.9706 78.1685 37.8953 76.8598 37.0573V36.7655C76.5679 36.6713 76.2761 36.5678 75.9842 36.4736C75.89 36.2759 75.7865 36.0782 75.6923 35.8899C75.1086 35.7957 74.5155 35.6922 73.9317 35.598C73.8376 35.4003 73.734 35.2026 73.6399 35.0143H73.0561V34.7224C72.6607 34.6283 72.2747 34.5247 71.8793 34.4306V34.1387H70.7024V33.8468H69.5255V33.555H68.9418V33.2631C68.5464 33.1219 66.2962 33.555 66.2962 33.555C66.0985 33.2631 65.9008 32.9712 65.7125 32.67H65.1287V32.3781C64.6392 32.4722 64.1496 32.5758 63.66 32.67C63.5659 32.4723 63.4623 32.2745 63.3681 32.0862H62.1913V31.7944H61.6075V31.5025C61.4098 31.5967 61.2121 31.7002 61.0238 31.7944V31.5025H59.5551V31.2106H58.6701V30.9188C58.2746 30.8246 57.8886 30.7211 57.4932 30.6269V30.9188C57.0978 30.7211 56.7118 30.5234 56.3163 30.3351V30.6269C55.6384 30.8435 55.6573 30.9188 55.1395 31.2106C54.8476 30.8152 54.5557 30.4292 54.2544 30.0338C53.7649 30.1279 53.2753 30.2315 52.7857 30.3256V30.6175C52.202 30.4198 51.6088 30.2221 51.0251 30.0338V29.7419C50.4414 29.8361 49.8483 29.9396 49.2645 30.0338V29.45C48.7749 29.3559 48.2854 29.2523 47.7958 29.1582V29.45H46.6189C46.553 29.4312 46.5248 29.0546 46.0352 29.1582V29.45H45.1596V29.7419C44.7548 29.8172 45.2161 29.6666 44.8677 29.45C44.4723 29.5442 44.0863 29.6478 43.6909 29.7419V30.3256C43.1071 30.1468 43.4367 30.3633 43.1071 30.0338C42.3257 30.1279 41.5442 30.2315 40.7628 30.3256C40.5651 30.6175 40.3674 30.9094 40.1791 31.2012H39.5953C39.5012 31.3989 39.3976 31.5967 39.3035 31.785H38.7197C38.6256 31.9827 38.522 32.1804 38.4279 32.3687C37.9383 32.2745 37.4487 32.171 36.9592 32.0768V32.3687C36.4696 32.2745 35.98 32.171 35.4904 32.0768V32.3687H34.3136V32.6606C34.0217 32.5664 33.7298 32.4628 33.438 32.3687V32.6606H32.8542V32.9524H32.2705V33.2443C31.5832 33.3384 30.9053 33.442 30.218 33.5361V33.828C30.0203 33.9222 29.8226 34.0257 29.6343 34.1199V34.7036C29.4366 34.6094 29.2389 34.5059 29.0506 34.4117C28.7587 34.5059 28.4669 34.6094 28.1656 34.7036C27.9679 34.9955 27.7701 35.2873 27.5818 35.5792C26.8004 35.7769 26.019 35.9746 25.2375 36.1629C25.1434 36.5583 25.0398 36.9444 24.9457 37.3398C23.7876 37.3586 23.4957 37.4434 22.8932 37.9235V38.2154C22.6013 38.3095 22.3095 38.4131 22.0082 38.5072C21.914 38.7991 21.8105 39.091 21.7163 39.3828C21.2832 39.6747 20.8596 39.3075 20.5394 39.6747V40.2584C20.3417 40.3526 20.144 40.4561 19.9557 40.5503V40.8422C19.1649 41.5671 18.5717 40.9834 18.1951 42.3109H17.3101C17.216 42.6028 17.1124 42.8946 17.0183 43.1865C15.6154 43.6196 16.7076 43.4501 16.1332 44.3634C15.7378 44.6552 15.3518 44.9471 14.9564 45.2389V45.5308H14.3727C14.2785 45.7285 14.1749 45.9262 14.0808 46.1145C13.6854 46.4064 13.2993 46.6983 12.9039 46.9901V47.5739C12.612 47.7716 12.3202 47.9693 12.0283 48.1576V48.7413C11.7365 48.8355 11.4446 48.939 11.1433 49.0332C11.0492 49.325 10.9456 49.6169 10.8515 49.9182C10.1642 50.5019 9.48628 51.0951 8.79899 51.6788V52.2625C8.40356 52.5544 8.01755 52.8462 7.62212 53.1475C7.34909 53.59 7.74451 54.0514 7.33025 54.3244H6.74653C6.52999 55.087 6.2852 55.2753 5.87094 55.7931H5.57907V56.3769C5.38135 56.471 5.18364 56.5746 4.99535 56.6687V57.5443C4.70348 57.742 4.41161 57.9397 4.11034 58.128V58.7118C3.81847 58.9095 3.52661 59.1072 3.23474 59.2955V59.8792C3.03703 59.9734 2.83931 60.0769 2.65101 60.1711C2.55686 60.5665 2.4533 60.9525 2.35915 61.348H2.06729V62.8167H1.77542C1.68127 63.2121 1.57771 63.5981 1.48356 63.9936C1.28584 64.0877 1.08813 64.1913 0.899829 64.2854V64.8691H0.607967V66.6298C0.269028 67.769 -0.0981509 69.0682 0.0242436 70.7347C0.118393 71.1301 0.221956 71.5161 0.316105 71.9115H0.0242436V74.849C0.372597 76.0636 0.843339 76.7791 0.899829 78.3702C1.4459 78.615 1.66245 78.8221 2.36857 78.9539V80.4227C2.9523 80.9217 2.62277 81.1288 2.95229 81.5995C3.15001 81.6937 3.34772 81.7973 3.53602 81.8914V82.1833H4.11975L5.88035 84.2357H7.05722C7.15137 84.5276 7.25494 84.8195 7.34909 85.1113C7.74452 85.2055 8.13053 85.309 8.52596 85.4032V85.6951H9.99469C10.1924 85.9869 10.3901 86.2788 10.5784 86.5801H11.4634V86.8719C12.0848 87.0696 12.8192 86.5518 12.9322 86.5801V86.8719H13.5159V87.1638H14.9846C15.0788 87.3615 15.1823 87.5592 15.2765 87.7475H16.7452C16.6511 88.7267 16.5475 89.7058 16.4534 90.685H16.1615C16.2556 91.2687 16.3592 91.8619 16.4534 92.4456H16.1615V93.0293H15.8696C15.5683 94.1403 16.8582 94.3003 16.4534 95.3736C16.2556 95.4678 16.0579 95.5714 15.8696 95.6655V96.2492H15.5778V98.3017H15.2859C15.3801 99.0831 15.4836 99.8646 15.5778 100.646H15.2859C15.1918 101.719 15.0882 102.802 14.994 103.875H15.2859C15.3801 104.167 15.4836 104.459 15.5778 104.751H15.2859C15.1918 105.043 15.0882 105.335 14.994 105.627H14.7022C14.7492 105.627 14.9658 108.009 14.9846 108.225C14.2126 108.329 14.5139 109.176 14.6363 109.779C14.9564 111.266 15.4365 110.475 16.4063 111.417C16.0768 111.483 15.7566 111.652 15.5778 111.935C15.3989 112.217 15.3895 112.622 15.606 112.876C15.7849 113.093 16.0862 113.177 16.3686 113.243C17.3195 113.479 18.4682 113.827 19.4379 113.827C19.7298 113.968 20.0405 114.166 20.3512 114.081C20.6995 113.987 20.869 113.582 21.1608 113.375C21.5751 113.083 22.14 113.224 22.6202 113.375C23.4581 113.629 24.296 113.883 25.1245 114.138C25.5388 114.26 25.9813 114.392 26.3956 114.251C27.1676 113.987 27.7513 112.838 28.4669 113.234C28.6552 113.337 28.7775 113.526 28.947 113.658C30.0015 114.439 31.2725 112.283 32.5247 112.678C32.7789 112.763 32.9955 112.942 33.2497 113.008C34.0123 113.206 34.596 112.349 34.9161 111.624C35.5093 112.641 36.9121 113.083 37.9854 112.594C38.5315 112.349 39.0681 111.887 39.6424 112.057C40.0849 112.189 40.3391 112.669 40.7628 112.867C41.8926 113.384 43.0695 111.596 44.2558 112C44.783 112.179 45.0749 112.735 45.555 113.008C46.1199 113.337 46.826 113.215 47.4663 113.083C48.3136 112.914 49.1609 112.735 50.0177 112.565C50.4226 112.481 50.8274 112.405 51.2417 112.462C51.5429 112.509 51.8348 112.622 52.1267 112.697C53.6236 113.055 55.3654 112.179 56.6741 112.998C56.8247 113.093 56.9754 113.206 57.1543 113.177C57.3614 113.149 57.4744 112.923 57.6156 112.763C58.1617 112.142 59.1502 112.405 59.9411 112.65C60.7319 112.895 61.8241 112.942 62.1348 112.179C62.6997 113.046 64.3285 112.669 64.4603 111.643C64.6109 112.292 65.3641 112.669 66.0326 112.584C66.6916 112.499 67.2659 112.066 67.7178 111.577C67.6708 112.283 68.2545 112.98 68.97 113.046C69.6762 113.111 70.3917 112.547 70.4764 111.84C71.2579 112.076 71.1167 113.761 71.9169 113.573C72.2465 113.497 72.3877 113.083 72.7078 112.97C73.2068 112.791 73.621 113.441 74.1483 113.526C74.7038 113.61 75.1274 113.064 75.4193 112.575C75.1274 113.196 76.0689 113.799 76.6903 113.507C78.0837 112.867 77.3964 111.483 77.5377 110.362C77.6224 110.306 77.7071 110.296 77.8107 110.334C78.0461 109.496 77.5847 108.696 77.5188 108.282V105.344H77.8107C77.9613 104.779 77.5188 103.885 77.5188 103.875C77.7165 103.781 77.9143 103.678 78.1026 103.583V98.5936C78.1026 98.5936 77.6412 98.3582 77.8107 97.7086H78.1026V95.3642C78.3003 95.2701 78.498 95.1665 78.6863 95.0724V92.728H78.3944C78.2532 92.0878 78.6863 91.8524 78.6863 91.8524C78.5921 90.8733 78.4886 89.8941 78.3944 88.915C78.5921 88.8208 78.7899 88.7173 78.9782 88.6231V85.3938C78.884 85.1772 78.0084 85.0737 78.3944 83.925H78.6863V83.3413H78.9782C79.0723 82.5599 79.1759 81.7784 79.27 80.997C79.9385 81.1853 79.9856 81.2512 80.4469 81.5807V81.8726H81.3225C81.4166 82.0703 81.5202 82.268 81.6143 82.4563C81.9062 82.5505 82.1981 82.654 82.4899 82.7482V83.04C83.0548 83.4825 83.2055 83.5767 84.2505 83.6238C84.7495 85.4597 84.8719 84.1039 86.0111 84.8006C86.2089 85.1961 86.4066 85.5821 86.5949 85.9775H87.7717V86.2694H88.3555V86.5612C88.6473 86.7589 88.9392 86.9567 89.2311 87.145V87.7287C89.8995 87.917 89.9372 87.9923 90.4079 88.3124V88.6043H91.5848C91.6789 88.802 91.7825 88.9997 91.8767 89.188H92.1685V89.7717L92.7522 90.3555H93.336C93.4301 90.5532 93.5337 90.7509 93.6278 90.9392C94.0233 91.0333 94.4093 91.1369 94.8047 91.2311C95.0966 91.6265 95.3884 92.0125 95.6897 92.4079C96.1793 92.5021 96.6689 92.6056 97.1585 92.6998C97.4503 93.1894 97.7422 93.679 98.034 94.1685H99.2109C99.3051 94.3662 99.4086 94.564 99.5028 94.7523H99.7946C99.8888 94.95 99.9924 95.1477 100.087 95.336H100.67C100.962 95.7314 101.254 96.1174 101.546 96.5129C102.13 96.607 102.723 96.7106 103.306 96.8047C103.504 97.2943 103.702 97.7839 103.89 98.2735H104.474C104.568 98.4712 104.672 98.6689 104.766 98.8572H105.349V99.149H106.234C106.526 99.5445 106.818 99.9305 107.11 100.326H107.694C107.892 100.618 108.089 100.91 108.278 101.202C108.673 101.296 109.059 101.399 109.454 101.493C109.549 101.691 109.652 101.889 109.746 102.077H110.631C110.725 102.275 110.829 102.473 110.923 102.661H112.684C113.183 102.708 114.03 103.339 114.736 102.953V102.661C115.536 102.435 115.405 102.595 115.612 101.785C116.196 101.588 116.789 101.39 117.372 101.202V100.618C117.57 100.524 117.768 100.42 117.956 100.326C118.05 100.128 118.154 99.9305 118.248 99.7422H118.832C118.926 99.5445 119.029 99.3468 119.124 99.1585C119.415 99.0643 119.707 98.9607 120.009 98.8666V97.9816H120.3C120.696 97.492 121.082 97.0024 121.477 96.5129C121.769 96.4187 122.061 96.3151 122.353 96.221V95.6373C123.04 95.0535 123.718 94.4604 124.405 93.8767V93.2929C124.697 93.0952 124.989 92.8975 125.29 92.7092V91.8336C125.582 91.6359 125.874 91.4382 126.175 91.2499V90.6662H126.467V90.0824H126.759C126.957 89.5175 126.467 89.2068 126.467 89.2068V88.915H126.759C126.853 88.5195 126.957 88.1335 127.051 87.7381H127.343V84.2169H127.051C126.467 83.4355 125.874 82.654 125.29 81.8726L125.253 81.8914Z" fill="var(--fill-0, #FF3F31)"/>
<path id="Vector_3" fill-rule="evenodd" clip-rule="evenodd" d="M64.8746 12.5312C64.6957 11.6085 64.5263 10.6953 64.3474 9.77262C64.1308 9.68789 63.9237 9.59374 63.7072 9.509C63.5471 8.79346 63.3871 8.07793 63.227 7.3718C63.0105 7.28707 62.8033 7.20233 62.5868 7.10819C62.568 6.90106 62.5585 6.69393 62.5397 6.4868C62.3232 6.40206 62.1161 6.30791 61.8995 6.22318C61.8807 6.01605 61.8713 5.80892 61.8524 5.60179C61.7489 5.60179 61.6453 5.62062 61.5417 5.63003C61.0522 5.12163 60.7791 4.94274 60.4967 4.15189C59.4139 3.94476 59.6493 3.55874 58.5666 3.37044C58.5478 3.16331 58.5384 2.95618 58.5195 2.74906C58.1994 2.67374 57.8887 2.589 57.5686 2.51368C57.5686 2.41012 57.5498 2.30655 57.5404 2.20299C57.3332 2.22182 57.1261 2.23123 56.919 2.25006C56.919 2.1465 56.9002 2.04293 56.8907 1.93937C56.3635 1.87346 55.8457 1.81697 55.3184 1.75107C55.3184 1.6475 55.2996 1.54394 55.2902 1.44038C54.8759 1.46862 54.4711 1.50628 54.0568 1.53452C54.0568 1.43096 54.038 1.3274 54.0286 1.22383C52.8329 1.05436 53.0777 1.82639 52.8423 1.93937C52.1362 2.27831 51.6466 1.74165 51.27 1.75107C51.27 1.85463 51.2888 1.9582 51.2982 2.06176C51.0911 2.08059 50.884 2.09001 50.6769 2.10884C50.5921 2.32538 50.498 2.53251 50.4132 2.74906C49.7636 3.07858 49.5282 2.53251 49.1516 2.53251C49.1516 2.63608 49.1705 2.73964 49.1799 2.84321C48.3419 3.22922 47.777 3.48342 46.7508 3.65289C46.7696 3.86002 46.7791 4.06715 46.7979 4.27428C44.3312 4.94274 40.1133 8.27564 39.8308 10.7235C39.5201 10.7518 39.2094 10.7706 38.9082 10.7989C38.7293 11.7968 38.1173 12.277 37.8349 13.0584C37.7784 13.6892 37.7219 14.3106 37.6654 14.9414C37.5618 14.9414 37.4582 14.9603 37.3547 14.9697C37.3735 15.1768 37.3829 15.3839 37.4018 15.5911C37.2982 15.5911 37.1946 15.6099 37.0911 15.6193C37.0722 16.655 37.044 17.7 37.0252 18.7357C37.1381 19.1593 37.3453 18.585 37.3547 19.0181C37.2511 19.0181 37.1475 19.0369 37.044 19.0464C37.1193 19.969 37.1852 20.9011 37.2605 21.8238C37.3641 21.8238 37.4677 21.8049 37.5712 21.7955C37.5995 22.2098 37.6371 22.624 37.6654 23.0289C37.8819 23.1136 38.0891 23.1984 38.3056 23.2925C38.4562 23.9045 38.6069 24.5165 38.7575 25.119C38.9741 25.2037 39.1812 25.2979 39.3977 25.3826C39.4166 25.5898 39.426 25.7969 39.4448 26.004C39.5484 26.004 39.6519 25.9852 39.7555 25.9758C39.6802 26.2959 39.5954 26.6066 39.5201 26.9267C39.6237 26.9267 39.7273 26.9079 39.8308 26.8984C39.8497 27.1056 39.8591 27.3127 39.8779 27.5198C40.0944 27.6046 40.3016 27.6893 40.5181 27.7835C41.1489 28.7438 40.2357 28.5931 41.5632 29.2616C41.5067 29.8924 41.4502 30.5138 41.3937 31.1446C41.2901 31.1446 41.1866 31.1634 41.083 31.1728C41.1113 31.5871 41.1489 32.0014 41.1772 32.4062C40.8853 32.6322 40.5934 32.8675 40.3016 33.0935C40.3298 33.4042 40.3486 33.7149 40.3769 34.0256C40.1792 34.148 39.9815 34.2609 39.7837 34.3833C39.7555 35.3154 39.7178 36.2569 39.6896 37.189C39.7932 37.189 39.8967 37.1702 40.0003 37.1608L39.7178 37.4903C39.7178 37.5938 39.7367 37.6974 39.7461 37.801C39.8497 37.801 39.9532 37.7821 40.0568 37.7727C40.085 38.0834 40.1038 38.3941 40.1321 38.6954C40.2357 38.6954 40.3392 38.6766 40.4428 38.6672C40.923 40.0982 42.1469 40.3995 43.4179 40.9267C43.4179 41.0303 43.4368 41.1339 43.4462 41.2374C43.8604 41.2092 44.2747 41.1715 44.6795 41.1433C44.8019 41.341 44.9149 41.5387 45.0373 41.7364C45.2444 41.7176 45.4516 41.7082 45.6587 41.6894C45.6587 41.7929 45.6775 41.8965 45.6869 42C46.2048 41.9624 46.7132 41.9247 47.231 41.8777C47.231 41.9812 47.2498 42.0848 47.2592 42.1883C48.7091 42.1883 50.159 42.1695 51.6089 42.1601C51.6089 42.0565 51.5901 41.953 51.5807 41.8494C52.4092 41.8871 53.2472 41.9247 54.0757 41.9718C54.0757 41.8682 54.0568 41.7647 54.0474 41.6611C56.1375 40.9079 58.1241 41.0303 58.4913 38.8272C58.7926 38.7048 59.0938 38.573 59.3951 38.4506C59.3292 37.6221 59.2633 36.803 59.2068 35.9745C58.9903 35.8897 58.7831 35.805 58.5666 35.7109C58.5289 35.193 58.4913 34.6846 58.4442 34.1668C58.3407 34.1668 58.2371 34.1856 58.1335 34.195C58.1147 33.9879 58.1053 33.7808 58.0864 33.5737C57.9829 33.5737 57.8793 33.5925 57.7757 33.6019C57.7475 33.2912 57.7287 32.9805 57.7004 32.6792C57.5969 32.6792 57.4933 32.6981 57.3897 32.7075C57.2579 32.3026 57.1167 31.8978 56.9849 31.4929C56.8813 31.4929 56.7778 31.5118 56.6742 31.5212C56.646 31.1069 56.6083 30.6927 56.58 30.2878C56.4765 30.2878 56.3729 30.3067 56.2693 30.3161C55.9775 29.8924 55.9963 29.8077 55.8645 29.1015C57.032 28.6779 56.7683 28.1036 57.9358 27.6987C57.917 27.4916 57.9076 27.2845 57.8887 27.0773C59.5081 26.5407 60.4496 25.1567 61.3817 24.008C61.5794 23.8857 61.7771 23.7727 61.9748 23.6503C61.956 23.4432 61.9466 23.236 61.9277 23.0289C62.1255 22.9065 62.3232 22.7935 62.5209 22.6711C62.5021 22.464 62.4926 22.2569 62.4738 22.0497C62.7657 21.8238 63.0575 21.5884 63.3494 21.3624C63.4247 21.0423 63.5095 20.7316 63.5848 20.4115C63.7825 20.2891 63.9802 20.1762 64.1779 20.0538C64.1591 19.8466 64.1497 19.6395 64.1308 19.4324C64.2344 19.4324 64.338 19.4135 64.4415 19.4041C64.4227 19.197 64.4133 18.9899 64.3945 18.7827C64.498 18.7827 64.6016 18.7639 64.7052 18.7545C64.6769 18.4438 64.6581 18.1331 64.6298 17.8318C64.7334 17.8318 64.837 17.813 64.9405 17.8036C64.9217 17.5965 64.9123 17.3893 64.8935 17.1822C64.997 17.1822 65.1006 17.1634 65.2042 17.154C65.0723 16.7491 64.9311 16.3443 64.7993 15.9394C64.997 15.817 65.1947 15.704 65.3925 15.5817C65.3454 14.9603 65.2983 14.3483 65.2512 13.7269C65.1477 13.7269 65.0441 13.7457 64.9405 13.7552C64.7052 13.049 65.2324 12.889 65.1571 12.4935C65.0535 12.4935 64.9499 12.5124 64.8464 12.5218L64.8746 12.5312Z" fill="var(--fill-0, #F2997F)"/>
<path id="Vector_4" fill-rule="evenodd" clip-rule="evenodd" d="M42.3823 56.7156V55.8306H42.6742C42.4765 55.3411 42.2787 54.8515 42.0904 54.3619H42.3823C42.2787 52.7049 41.5255 52.4789 40.9136 51.4244H40.0286V51.7163C38.6257 52.14 39.6896 51.9517 39.1436 52.8932C38.9458 52.9873 38.7481 53.0909 38.5598 53.185V53.7688H38.268V56.1131C38.0702 56.2072 37.8725 56.3108 37.6842 56.4049C37.7784 56.9887 37.882 57.5818 37.9761 58.1655H37.6842C37.5901 58.947 37.4865 59.7284 37.3924 60.5099H37.1005C37.1005 60.9147 37.5807 60.99 37.3924 61.6867H37.1005V63.4473H36.8086V63.7392H37.1005C37.1476 64.4547 36.8557 64.4736 36.8086 64.9161V65.7917H37.1005C37.0064 66.7708 36.9028 67.75 36.8086 68.7291H37.1005V70.1979H37.3924V70.7816C38.268 70.8758 39.153 70.9793 40.038 71.0735C40.1321 70.8757 40.2357 70.678 40.3298 70.4897C40.6688 70.3203 41.2054 70.3203 41.5067 70.1979C41.7044 69.6141 41.9021 69.021 42.0904 68.4373C42.0904 68.4373 41.695 68.2961 41.7986 67.8535H42.0904V66.6767H42.3823C42.5612 65.9988 42.0339 65.867 42.0904 65.4998H42.3823V61.3949C42.3635 61.3101 41.9963 61.3101 42.0904 60.8111H42.3823V59.6343H42.6742C42.7589 59.1447 42.4011 59.1165 42.3823 59.0505V56.9981H42.0904V56.7062H42.3823V56.7156Z" fill="var(--fill-0, white)"/>
<path id="Vector_5" fill-rule="evenodd" clip-rule="evenodd" d="M64.9782 55.5388H63.8013V55.247H63.5094V55.5388H62.6244C62.2384 56.3579 61.8524 56.7345 61.4475 57.5913H61.1557C60.9674 58.1279 61.3911 58.0432 61.4475 58.175C61.344 58.561 60.8638 58.7587 60.8638 58.7587C60.619 59.399 61.2593 59.6343 61.1557 59.9356C60.958 60.0298 60.7603 60.1333 60.572 60.2275C60.0447 61.4797 61.0145 61.941 60.572 63.1649H60.2801V63.7487H59.9882C59.7152 64.5207 60.0071 65.6034 59.6964 66.3849V66.6767H59.9882V66.9686H59.6964C59.7905 67.9477 59.8941 68.9269 59.9882 69.9061C59.7905 70.0002 59.5928 70.1038 59.4045 70.1979V71.9585C59.4045 71.9585 59.1974 72.0056 59.1126 72.5423H59.4045V73.126C59.7999 73.3237 60.1859 73.5214 60.5814 73.7097V74.2934C61.2781 74.4441 61.4946 74.6418 62.0501 74.8772C62.615 74.1899 63.5377 73.8039 64.1026 73.1166H64.3944V71.6478C64.6016 71.0735 65.2606 70.4051 64.9782 69.3035H64.6863V68.1266H64.9782V66.9498H65.27V64.8973H65.5619C65.4677 64.3136 65.3642 63.7204 65.27 63.1367C65.3548 62.7036 65.995 61.4608 65.8538 60.7924H65.5619C65.656 60.3028 65.7596 59.8132 65.8538 59.3236H66.1456C66.0515 59.1259 65.9479 58.9282 65.8538 58.7399H66.1456V58.448H65.8538C65.8349 56.7816 65.4583 56.5368 64.9782 55.5106V55.5388Z" fill="var(--fill-0, white)"/>
<path id="Vector_6" fill-rule="evenodd" clip-rule="evenodd" d="M52.3618 56.4238H52.07V57.8925C51.6745 58.1844 51.2885 58.4762 50.8931 58.7681C50.4788 59.6343 51.3544 60.218 51.185 60.8205H50.8931V61.4043C50.6954 61.4984 50.4977 61.602 50.3094 61.6961C50.2152 62.5811 50.1116 63.4567 50.0175 64.3323C50.0269 64.3888 50.4318 64.4265 50.3094 64.9161H50.0175V65.4998H49.7256C49.8198 66.0835 49.9233 66.6767 50.0175 67.2604H49.7256V68.4373H50.0175V70.1979H49.7256C49.5467 70.9134 50.6389 73.2671 50.9025 73.4272H51.4862V73.719C51.8817 73.6249 52.2677 73.5213 52.6631 73.4272V73.1353H53.2468C53.341 72.9376 53.4445 72.7399 53.5387 72.5516C53.7364 72.6457 53.9341 72.7493 54.1224 72.8435V72.5516C55.5347 72.1091 54.6026 72.3068 54.998 71.0829C55.0451 70.9416 55.4029 71.0358 55.2899 70.4991H54.998C55.0545 70.0849 55.1675 70.6027 55.2899 70.2073V69.3223H55.5817C55.4876 68.5408 55.384 67.7594 55.2899 66.9779H55.5817C55.8736 65.914 55.6571 63.4662 55.2899 62.873C55.3275 62.4588 55.497 62.986 55.5817 62.5811V60.2368H55.8736C56.1184 59.3801 55.4499 56.3202 55.2899 55.5388C53.7647 55.5105 53.0021 55.6141 52.3524 56.4143L52.3618 56.4238Z" fill="var(--fill-0, white)"/>
<path id="Vector_7" fill-rule="evenodd" clip-rule="evenodd" d="M35.7822 17.9919C35.961 19.0746 36.1493 20.1573 36.3282 21.2401C36.8931 21.965 37.458 22.6806 38.0323 23.4055C39.2186 23.3679 40.5932 23.7162 41.1016 23.1513C43.1635 22.9065 42.8904 21.9744 43.3706 20.3268C43.4742 20.3268 43.5777 20.308 43.6813 20.2986C43.6436 19.7525 43.606 19.2064 43.5589 18.6604C43.6625 18.6604 43.766 18.6415 43.8696 18.6321C43.8508 18.4156 43.8414 18.199 43.8225 17.9731C43.9261 17.9731 44.0297 17.9542 44.1332 17.9448C44.105 17.5117 44.0673 17.0692 44.0391 16.6361C44.1426 16.6361 44.2462 16.6173 44.3498 16.6079C44.3121 16.0618 44.2745 15.5158 44.2274 14.9697C44.4251 14.8473 44.6228 14.7155 44.8205 14.5931C45.0465 13.9623 44.9053 11.7404 44.5851 11.3167C44.4816 11.3167 44.378 11.3355 44.2745 11.3449C43.8884 10.8271 44.0579 10.9024 43.3047 10.7706C43.2765 10.4411 43.2576 10.1116 43.2294 9.79147C43.1258 9.79147 43.0223 9.8103 42.9187 9.81971C42.3067 8.13443 42.4009 9.34897 41.0075 8.9912C40.4143 8.84056 37.6369 8.12502 36.6672 8.68992C36.4883 9.03827 36.3094 9.37721 36.1211 9.72556C35.7162 9.76322 35.302 9.79147 34.8971 9.82913L34.6147 10.1775C34.078 12.0134 34.2663 14.047 35.0384 16.0713C35.0666 16.5043 35.1043 16.9468 35.1325 17.3799C35.2361 17.3799 35.3396 17.3611 35.4432 17.3517C35.462 17.5682 35.4715 17.7848 35.4903 18.0107C35.5939 18.0107 35.6974 17.9919 35.801 17.9825L35.7822 17.9919Z" fill="var(--fill-0, #979C9F)"/>
<path id="Vector_8" fill-rule="evenodd" clip-rule="evenodd" d="M63.1608 3.87897C62.4829 3.20109 61.8144 2.53263 61.1366 1.85475C60.9294 1.87358 60.7223 1.88299 60.5152 1.90182C60.2892 1.60996 60.0538 1.3181 59.8279 1.02623C59.1029 0.979157 58.3686 0.932082 57.6436 0.885007C57.5212 0.687293 57.4082 0.489578 57.2858 0.291864C56.5985 0.0659047 55.61 0.753197 55.4593 0.743782C55.4593 0.640218 55.4405 0.536653 55.4311 0.433089C55.224 0.451918 55.0168 0.461333 54.8097 0.480163C54.8097 0.376599 54.7909 0.273034 54.7815 0.169469C54.1601 0.216544 53.5481 0.263619 52.9267 0.310694C52.9267 0.207129 52.9079 0.103565 52.8985 0C52.7949 0 52.6913 0.0188299 52.5878 0.0282449C52.5878 0.13181 52.6066 0.235374 52.616 0.338939C51.5804 0.320109 50.5353 0.291864 49.4997 0.273034C49.4149 0.489578 49.3302 0.696708 49.236 0.913252C48.9065 1.03565 48.6429 0.433088 47.9744 0.696708C47.9744 0.800272 47.9933 0.903837 48.0027 1.0074C47.692 1.03565 47.3813 1.05448 47.08 1.08272C47.08 1.18629 47.0988 1.28985 47.1083 1.39342C46.4869 1.44049 45.8749 1.48756 45.2535 1.53464C45.1688 1.75118 45.0746 1.95831 44.9899 2.17486C44.6792 2.2031 44.3685 2.22193 44.0578 2.25018C43.9731 2.46672 43.8883 2.67385 43.7942 2.89039C42.8809 3.17284 41.9677 3.44588 41.0639 3.72833C40.6402 2.52321 39.6704 2.3255 39.0208 1.40283C38.4936 1.33693 37.9758 1.28044 37.4485 1.21453C37.4485 1.11097 37.4297 1.0074 37.4203 0.903837C36.9495 0.847347 36.8271 1.26161 36.8271 1.26161C35.9045 1.44991 35.5373 0.988572 34.9253 0.790857C34.3416 1.77943 34.6052 0.979157 33.739 1.50639C33.739 1.60996 33.7578 1.71352 33.7673 1.81709C33.5601 1.83592 33.353 1.84533 33.1459 1.86416C33.0705 2.18427 32.9858 2.49497 32.9105 2.81508C32.8069 2.81508 32.7034 2.83391 32.5998 2.84332C32.1855 3.43646 31.9313 3.8978 31.8184 4.77339C31.7148 4.77339 31.6112 4.79222 31.5077 4.80163C31.6301 4.99935 31.743 5.19706 31.8654 5.39478C31.4888 7.09888 32.2609 9.32082 34.0591 9.57502C34.0874 9.88572 34.1062 10.1964 34.1344 10.5071C34.3322 10.573 35.2737 10.6672 35.396 10.7236C35.622 11.0155 35.8574 11.3074 36.0833 11.5992C36.3846 11.4674 36.6859 11.345 36.9872 11.2226C37.3261 11.6087 37.665 11.9947 38.0134 12.3901C39.2468 12.2959 40.4895 12.2018 41.7229 12.1076C41.8453 12.4089 41.9771 12.7102 42.0995 13.0115C43.1352 13.0303 44.1802 13.0586 45.2159 13.0774C45.2159 12.9738 45.197 12.8703 45.1876 12.7667C45.6866 12.8232 45.7337 13.2939 45.8561 13.341C46.1668 13.3128 46.4775 13.2939 46.7882 13.2657C46.7882 13.3693 46.807 13.4728 46.8164 13.5764C46.92 13.5764 47.0235 13.5576 47.1271 13.5481C47.1271 13.4446 47.1083 13.341 47.0989 13.2374C47.2024 13.2374 47.306 13.2186 47.4095 13.2092C47.4095 13.3128 47.4284 13.4163 47.4378 13.5199C48.8783 13.4069 50.3188 13.2939 51.7687 13.181C51.7687 13.2845 51.7875 13.3881 51.7969 13.4916C51.9005 13.4916 52.004 13.4728 52.1076 13.4634C53.6517 13.341 55.1957 13.228 56.7398 13.1056C56.7398 13.2092 56.7586 13.3128 56.768 13.4163C58.1991 13.1998 59.6396 12.9832 61.0707 12.7761C61.0707 12.6725 61.0518 12.569 61.0424 12.4654C61.2495 12.4466 61.4567 12.4372 61.6638 12.4183C61.6638 12.3148 61.645 12.2112 61.6356 12.1076C61.9463 12.0794 62.2569 12.0606 62.5676 12.0323C62.643 11.7122 62.7277 11.4015 62.803 11.0814C63.1984 10.846 63.5939 10.6013 63.9893 10.3659C63.9611 10.0552 63.9422 9.74449 63.914 9.44321C64.0175 9.44321 64.1211 9.42438 64.2247 9.41497C64.2812 8.78416 64.3377 8.16278 64.3941 7.53197C64.4977 7.53197 64.6013 7.51314 64.7048 7.50373C64.6295 6.22329 64.7048 5.9126 63.6315 5.7243C63.5845 5.10291 63.5374 4.49094 63.4903 3.86955C63.3867 3.86955 63.2832 3.88838 63.1796 3.8978L63.1608 3.87897Z" fill="var(--fill-0, black)"/>
<path id="Vector_9" fill-rule="evenodd" clip-rule="evenodd" d="M53.0683 18.8394C53.0683 18.8394 53.0494 18.83 53.04 18.8206C52.6634 18.9712 52.6069 18.9053 52.2303 18.8676C52.2021 18.83 52.1832 18.7923 52.155 18.7546C52.1456 18.7358 52.1268 18.717 52.1173 18.6982C51.9667 18.6699 52.0326 18.6793 51.9949 18.5946C51.9949 18.5946 51.995 18.5946 51.9855 18.5946C51.9855 18.5758 51.9761 18.5569 51.9667 18.5381C51.9479 18.5381 51.929 18.5381 51.9102 18.5381C51.9102 18.5004 51.9102 18.4628 51.9102 18.4251C51.8914 18.4251 51.8726 18.4251 51.8537 18.4251C51.8067 18.3404 51.7407 18.2086 51.7125 18.0674C51.7125 18.0485 51.7031 18.0391 51.6937 18.0203C51.6748 18.0203 51.656 18.0297 51.6372 18.0391C51.4018 17.446 51.4865 17.4366 51.5524 17.0129C51.6372 16.9658 51.7219 16.9093 51.8066 16.8622C51.8161 16.8434 51.8349 16.8152 51.8443 16.7963C51.8443 16.7963 51.8443 16.7869 51.8443 16.7775C51.8443 16.7775 51.8631 16.7775 51.8725 16.7775C52.0797 16.4574 52.1738 16.4668 52.4845 16.2785C52.5787 16.3162 52.6822 16.3538 52.7764 16.3821C52.7952 16.3821 52.8046 16.3821 52.8235 16.3821C52.8235 16.3727 52.8329 16.3632 52.8423 16.3444C52.8517 16.3444 52.8517 16.3538 52.8611 16.3632C52.8988 16.3444 52.9364 16.335 52.9647 16.3162C52.9647 16.335 52.9835 16.3538 52.9929 16.3727C53.1436 16.3538 53.1342 16.3538 53.1436 16.3821C53.3789 16.4009 53.4543 16.4762 53.7273 16.608C53.7555 16.721 53.7838 16.834 53.812 16.9564C53.8309 16.9564 53.8497 16.9564 53.8685 16.9564C53.8685 17.0129 53.8685 17.0505 53.8685 17.0882C53.9344 17.22 54.0003 17.3518 54.0662 17.4742C54.038 17.5025 54.0097 17.5401 53.9815 17.5684C54.0192 17.6625 54.0474 17.7472 54.0851 17.8414C54.0662 17.8414 54.0474 17.8508 54.0286 17.8602C54.0474 18.0956 54.038 17.9355 53.925 18.0862C53.925 18.105 53.9344 18.1238 53.9438 18.1427C53.9062 18.1521 53.8685 18.1709 53.8403 18.1803C53.8403 18.1992 53.8497 18.218 53.8591 18.2368C53.8403 18.2651 53.8026 18.2933 53.7744 18.3216C53.7461 18.3781 53.7179 18.444 53.6896 18.5004C53.652 18.5004 53.6143 18.5004 53.5767 18.5004C53.5767 18.5099 53.5767 18.5193 53.5767 18.5381C53.5578 18.5381 53.5484 18.5569 53.5296 18.5569C53.4919 18.6228 53.4543 18.6887 53.4166 18.7546C53.3978 18.7452 53.379 18.7358 53.3695 18.7264C53.2095 18.8865 53.3036 18.7923 53.1436 18.7923H53.1247C53.1247 18.8017 53.1059 18.8206 53.1059 18.83L53.0683 18.8394Z" fill="var(--fill-0, black)"/>
<path id="Vector_10" fill-rule="evenodd" clip-rule="evenodd" d="M59.6302 18.5663C59.6302 18.5663 59.6114 18.5569 59.602 18.5475C59.2254 18.6981 59.1689 18.6322 58.7923 18.5946C58.7641 18.5569 58.7452 18.5192 58.717 18.4816C58.7076 18.4627 58.6887 18.4439 58.6793 18.4251C58.5287 18.3968 58.5946 18.4063 58.5569 18.3215C58.5569 18.3215 58.5569 18.3215 58.5475 18.3215C58.5475 18.3027 58.5381 18.2839 58.5287 18.265C58.5098 18.265 58.491 18.265 58.4722 18.265C58.4722 18.2274 58.4722 18.1897 58.4722 18.1521C58.4534 18.1521 58.4345 18.1521 58.4157 18.1521C58.3686 18.0673 58.3027 17.9355 58.2745 17.7943C58.2745 17.7755 58.2651 17.766 58.2556 17.7472C58.2368 17.7472 58.218 17.7566 58.1991 17.766C57.9638 17.1729 58.0485 17.1635 58.1144 16.7398C58.1992 16.6927 58.2839 16.6362 58.3686 16.5892C58.378 16.5703 58.3969 16.5421 58.4063 16.5233C58.4063 16.5233 58.4063 16.5139 58.4063 16.5044C58.4157 16.5044 58.4251 16.5044 58.4345 16.5044C58.6417 16.1843 58.7358 16.1937 59.0465 16.0054C59.1407 16.0431 59.2442 16.0808 59.3384 16.109C59.3572 16.109 59.3666 16.109 59.3854 16.109C59.3854 16.0996 59.3948 16.0902 59.4043 16.0713C59.4137 16.0713 59.4137 16.0808 59.4231 16.0902C59.4608 16.0713 59.4984 16.0619 59.5267 16.0431C59.5267 16.0619 59.5455 16.0808 59.5549 16.0996C59.7055 16.0808 59.6961 16.0808 59.7055 16.109C59.9409 16.1278 60.0162 16.2032 60.2893 16.335C60.3175 16.4479 60.3458 16.5609 60.374 16.6833C60.3928 16.6833 60.4117 16.6833 60.4305 16.6833C60.4305 16.7398 60.4305 16.7775 60.4305 16.8151C60.4964 16.9469 60.5623 17.0787 60.6282 17.2011C60.6 17.2294 60.5717 17.267 60.5435 17.2953C60.5811 17.3894 60.6094 17.4742 60.647 17.5683C60.6282 17.5683 60.6094 17.5777 60.5906 17.5872C60.6094 17.8225 60.6 17.6625 60.487 17.8131C60.487 17.8319 60.4964 17.8508 60.5058 17.8696C60.4682 17.879 60.4305 17.8979 60.4022 17.9073C60.4022 17.9261 60.4117 17.9449 60.4211 17.9638C60.4023 17.992 60.3646 18.0202 60.3364 18.0485C60.3081 18.105 60.2799 18.1709 60.2516 18.2274C60.214 18.2274 60.1763 18.2274 60.1386 18.2274C60.1386 18.2368 60.1386 18.2462 60.1386 18.265C60.1198 18.265 60.1104 18.2839 60.0916 18.2839C60.0539 18.3498 60.0162 18.4157 59.9786 18.4816C59.9597 18.4722 59.9409 18.4627 59.9315 18.4533C59.7714 18.6134 59.8656 18.5192 59.7055 18.5192H59.6867C59.6867 18.5287 59.6679 18.5475 59.6679 18.5569L59.6302 18.5663Z" fill="var(--fill-0, black)"/>
<path id="Vector_11" fill-rule="evenodd" clip-rule="evenodd" d="M33.4944 70.1698C34.4077 69.9062 34.8502 69.3037 35.2644 68.5975C35.2644 68.3998 35.255 68.1927 35.2456 67.995C35.7917 67.2229 36.3754 67.9761 36.7049 66.4321C37.4675 66.3473 37.7688 66.3944 38.2113 66.0743C38.2113 65.9708 38.2113 65.8766 38.2019 65.773C38.3996 65.773 38.6067 65.7636 38.8045 65.7542C38.8986 65.5471 38.9927 65.3399 39.0869 65.1422C39.5953 65.1234 40.0943 65.1046 40.6027 65.0952C40.6968 64.888 40.791 64.6809 40.8852 64.4832C41.29 64.3702 41.6854 64.2572 42.0903 64.1442C42.2786 63.3534 42.5328 63.1463 42.947 62.6002C43.0506 62.6002 43.1448 62.6002 43.2483 62.5908C43.2483 62.3931 43.2389 62.1859 43.2295 61.9882C43.4272 61.8847 43.6249 61.7717 43.8226 61.6681C44.1051 60.9808 43.4178 60.4724 43.4649 60.1617C43.5684 60.1617 43.6626 60.1617 43.7661 60.1523C43.7661 59.9546 43.7567 59.7475 43.7473 59.5497C43.945 59.4462 44.1427 59.3332 44.3404 59.2296C44.3122 58.3258 44.2745 57.4125 44.2463 56.5087C44.1427 56.5087 44.0486 56.5087 43.945 56.5181C44.0297 55.9062 44.1051 55.3036 44.1898 54.6916C44.0862 54.6916 43.9921 54.6916 43.8885 54.701C43.7661 53.9949 43.6343 53.2982 43.5119 52.5921C43.4084 52.5921 43.3142 52.5921 43.2106 52.6015C43.2106 52.4038 43.2012 52.1967 43.1918 51.9989H42.8905C42.7776 51.7071 42.6646 51.4058 42.561 51.1139C42.2503 51.0198 41.949 50.935 41.6384 50.8409C41.6289 50.5396 41.6195 50.2383 41.6101 49.9371C41.5065 49.9371 41.4124 49.9371 41.3088 49.9465C41.0546 49.5793 39.8213 48.666 39.4447 48.4966C39.1434 48.506 38.8421 48.5154 38.5408 48.5248C38.4373 48.3271 38.3243 48.1294 38.2207 47.9317C37.5146 47.8564 36.7991 47.781 36.0929 47.6963C36.0929 47.5927 36.0929 47.4986 36.0835 47.395L35.7917 47.7057C34.982 47.6304 34.1723 47.5551 33.3626 47.4892C33.3626 47.5927 33.3626 47.6869 33.372 47.7905C33.0707 47.7999 32.7695 47.8093 32.4682 47.8187C32.4682 47.9223 32.4682 48.0164 32.4776 48.12C32.0822 48.1576 31.9504 47.6022 31.2536 47.8564C31.2536 47.9599 31.2536 48.0541 31.2631 48.1576C31.0653 48.1576 30.8582 48.1671 30.6605 48.1765C30.5663 48.3836 30.4722 48.5907 30.3781 48.7884C29.8791 48.9108 29.3801 49.0238 28.8717 49.1462C28.2879 49.5605 28.0714 50.5302 27.4218 51.0104C27.337 51.6223 27.2617 52.2249 27.177 52.8369C27.0734 52.8369 26.9792 52.8369 26.8757 52.8463C27.0169 53.9573 27.1487 55.0588 27.2899 56.1698C27.3935 56.1698 27.4877 56.1698 27.5912 56.1604C27.4971 56.4616 27.4123 56.7723 27.3182 57.083C26.2731 57.3937 25.3881 58.5894 24.6632 59.2955C24.569 59.5027 24.4749 59.7098 24.3807 59.9075C24.0794 59.9169 23.7782 59.9263 23.4769 59.9358C23.4769 60.0393 23.4769 60.1335 23.4863 60.237C22.6107 60.7549 22.2718 60.689 22.027 61.7999C21.8293 61.7999 21.6221 61.8093 21.4244 61.8187C21.4244 62.0165 21.4338 62.2236 21.4432 62.4213C21.2455 62.5249 21.0478 62.6379 20.8501 62.7414C20.9725 63.344 21.0949 63.9465 21.2173 64.5491C21.1137 64.5491 21.0196 64.5491 20.916 64.5585C20.916 64.7562 20.9254 64.9634 20.9348 65.1611C20.8313 65.1611 20.7371 65.1611 20.6336 65.1705C20.756 65.6695 20.8689 66.1685 20.9913 66.6769C21.8575 66.8746 21.8763 67.1853 22.5354 67.5336C22.5354 67.7313 22.5448 67.9385 22.5542 68.1362C23.0626 68.2209 23.571 68.3057 24.0794 68.3904C24.2018 68.8894 24.3148 69.3884 24.4372 69.8968C24.6349 69.8968 24.8421 69.8874 25.0398 69.878C25.0398 70.0757 25.0492 70.2828 25.0586 70.4805C25.4634 70.5653 25.8683 70.6594 26.2825 70.7441C26.452 71.3938 26.5085 71.5915 26.9322 71.9304C26.9322 72.034 26.9322 72.1281 26.9416 72.2317C27.45 72.2129 27.949 72.194 28.4574 72.1846C28.561 72.3823 28.6739 72.5801 28.7775 72.7778C30.331 73.3803 33.3532 71.0548 33.5415 70.1887L33.4944 70.1698Z" fill="var(--fill-0, #F2997F)"/>
</g>
</svg>
