<svg preserveAspectRatio="none" width="100%" height="100%" overflow="visible" style="display: block;" viewBox="0 0 14 14.0017" fill="none" xmlns="http://www.w3.org/2000/svg">
<path id="Union" d="M6.29297 0.292882C6.68352 -0.0975905 7.31654 -0.097664 7.70703 0.292882L13.707 6.29386C13.7532 6.34002 13.7946 6.39079 13.8311 6.44523C13.8585 6.48627 13.8816 6.52933 13.9023 6.57316C13.923 6.61665 13.9418 6.66124 13.9561 6.70792C13.9612 6.72464 13.9645 6.74178 13.9688 6.7587C13.9881 6.83632 14 6.91728 14 7.00089C14 7.08389 13.9878 7.16401 13.9688 7.24112C13.9646 7.25806 13.9611 7.27517 13.9561 7.29191C13.9421 7.33779 13.9244 7.38189 13.9043 7.42472C13.8833 7.46943 13.859 7.51276 13.8311 7.5546C13.8185 7.57345 13.8048 7.59138 13.791 7.60929C13.765 7.64307 13.738 7.67694 13.707 7.70792L7.70703 13.7089C7.31659 14.0993 6.68351 14.0992 6.29297 13.7089C5.90249 13.3184 5.90256 12.6854 6.29297 12.2948L10.5869 8.00089H1C0.44781 8.00085 9.79025e-05 7.55307 0 7.00089C0 6.44863 0.447749 6.00093 1 6.00089H10.5869L6.29297 1.70694C5.9025 1.31641 5.90249 0.683383 6.29297 0.292882Z" fill="var(--fill-0, black)"/>
</svg>
