<svg preserveAspectRatio="none" width="100%" height="100%" overflow="visible" style="display: block;" viewBox="0 0 560.001 166.702" fill="none" xmlns="http://www.w3.org/2000/svg">
<g id="Group">
<path id="Vector" d="M206.943 80.3684C206.943 96.2082 207.005 108.992 206.943 121.808C206.881 131.723 204.979 141.077 198.992 149.434C192.662 158.289 183.651 163.153 173.642 165.211C163.103 167.394 152.314 167.082 141.588 164.12C125.125 159.599 113.837 146.253 112.341 128.792C110.501 107.153 111.811 85.5132 111.343 63.8738C111.125 54.0207 111.499 44.23 112.933 34.4392C115.49 16.978 126.216 6.59484 142.274 2.44781C156.773 -1.29388 171.865 -1.23152 185.709 6.06477C197.339 12.1762 204.293 21.9357 205.976 35.1875C208.034 51.2144 206.226 67.3037 206.912 80.306V80.3684H206.943ZM165.566 82.9252V45.0095C165.566 41.2366 165.66 37.4637 165.473 33.6909C165.317 30.4793 163.789 27.8601 160.39 27.33C156.773 26.7688 154.746 28.9202 153.562 32.163C152.813 34.2209 152.782 36.3412 152.782 38.4615V128.543C152.782 131.006 152.907 133.438 153.811 135.808C154.653 138.022 156.025 139.206 158.582 139.144C161.014 139.082 162.978 138.832 164.288 136.338C165.504 133.999 165.535 131.598 165.535 129.166V82.894L165.566 82.9252Z" fill="var(--fill-0, #E94337)"/>
<path id="Vector_2" d="M66.8787 152.302C62.8252 156.481 59.8319 161.033 54.8742 163.434C44.3663 168.485 33.9519 167.269 23.7246 162.592C8.53965 155.639 1.46163 143.385 0.806836 127.015C-0.37803 96.9879 -0.190946 66.9609 0.931559 36.9339C1.46163 23.5262 12.219 8.24762 25.159 4.22531C44.0545 -1.66784 62.6382 -1.82375 80.0058 9.77547C89.36 16.0116 93.8188 25.0852 95.3155 35.6866C96.3445 43.1388 96.2198 50.7469 96.7187 58.2615C96.9057 61.1613 95.9703 62.3461 92.8522 62.3149C81.5025 62.159 70.1839 62.159 58.8341 62.3149C55.6849 62.3461 54.9677 61.1613 55.0301 58.2926C55.186 52.0565 55.1236 45.8204 54.9989 39.5842C54.9365 37.308 54.5935 35.0007 54.1258 32.7868C53.4399 29.5129 52.0055 26.9872 47.952 27.2055C43.8362 27.4237 42.8696 30.3547 42.4019 33.504C41.8718 37.0586 41.4353 40.6755 41.4353 44.2613C41.3417 70.3596 41.4353 96.489 41.3729 122.587C41.3729 126.547 41.9965 130.414 42.6825 134.311C43.3373 137.959 45.2705 139.581 49.1369 139.269C52.8786 138.957 54.5624 137.055 55.186 133.532C56.7762 124.583 56.4332 115.54 56.5891 106.529C56.6515 103.006 55.2483 101.696 51.9744 102.102C48.9186 102.476 47.952 101.228 48.0456 98.2039C48.2327 92.4667 48.1703 86.6983 48.0768 80.961C48.0456 78.6536 48.8563 77.7494 51.1948 77.7806C65.3197 77.8429 79.4445 77.8741 93.5694 77.7806C96.438 77.7806 96.6875 79.2772 96.6875 81.4911C96.6563 107.433 96.6251 133.376 96.6875 159.318C96.6875 162.467 95.7521 163.746 92.4781 163.652C86.3978 163.465 80.3176 163.465 74.2374 163.652C70.9322 163.777 69.5291 162.218 68.8743 159.256C68.4066 157.073 67.6271 154.953 66.8787 152.396V152.302Z" fill="var(--fill-0, #4385F4)"/>
<path id="Vector_3" d="M416.975 3.91395C425.519 3.91395 434.062 4.00749 442.606 3.85159C445.381 3.78922 446.815 4.50638 447.22 7.40619C449.216 21.6558 451.336 35.8742 453.457 50.0926C455.514 63.8433 457.635 77.5628 459.661 91.3135C462.218 108.619 464.713 125.893 467.238 143.198C468.049 148.686 468.797 154.205 469.858 159.662C470.388 162.405 469.92 163.559 466.864 163.528C455.047 163.434 443.198 163.434 431.381 163.528C428.543 163.528 427.701 162.468 427.732 159.755C427.826 152.365 426.579 145.038 425.924 137.71C425.706 135.434 424.989 134.405 422.681 134.592C421.715 134.686 420.717 134.592 419.719 134.592C410.209 134.592 410.053 134.592 410.084 144.445C410.084 149.559 409.086 154.579 408.868 159.63C408.743 162.343 407.652 163.59 404.596 163.559C392.935 163.372 381.273 163.403 369.612 163.559C366.369 163.559 366.057 162.561 366.338 159.506C367.928 142.076 371.233 124.833 373.073 107.465C375.162 87.9459 378.436 68.5827 380.556 49.0636C382.084 35.0946 384.391 21.2192 386.169 7.28146C386.543 4.44402 387.79 3.85159 390.316 3.88277C399.171 3.97631 408.057 3.88277 416.913 3.88277H416.975V3.91395ZM418.815 44.3865L417.973 44.1682C417.661 45.5714 417.162 46.9433 417.006 48.3464C415.385 64.311 412.672 80.1196 411.581 96.1465C410.77 108.182 409.585 105.594 420.53 106.031C423.585 106.155 424.334 105.314 424.022 102.102C422.12 82.8635 420.499 63.625 418.815 44.3865Z" fill="var(--fill-0, #00AB41)"/>
<path id="Vector_4" d="M491.779 117.223C496.55 117.223 501.32 117.379 506.06 117.161C508.835 117.036 509.77 117.909 509.677 120.747C509.552 125.486 509.458 130.288 510.051 134.996C510.893 141.575 515.32 144.351 519.935 141.7C521.026 141.077 522.086 140.079 522.741 139.019C526.265 133.001 522.617 119.78 516.661 116.101C507.432 110.395 497.797 105.343 488.692 99.388C478.745 92.8712 474.068 84.0159 473.351 72.6661C472.821 64.1226 473.133 55.5479 476.563 47.5657C479.4 41.0177 484.826 36.4341 491.311 34.1891C507.556 28.6078 524.176 28.1401 540.109 34.9687C550.056 39.2092 557.196 46.5679 557.134 58.6972C557.134 63.5614 559.659 69.6728 556.791 72.9779C554.047 76.1272 547.811 73.7886 543.133 73.9445C537.396 74.1316 531.628 73.8822 525.891 74.0381C523.24 74.1004 522.087 73.4456 522.149 70.5147C522.211 66.9289 521.65 63.3119 521.525 59.7261C521.432 56.2027 521.213 53.0535 516.38 53.2405C512.545 53.3964 509.77 56.1715 509.583 60.5368C508.991 72.5414 511.828 76.5013 523.396 82.3633C532.47 86.9469 541.855 90.9692 549.775 97.6419C556.323 103.13 559.971 109.74 559.909 118.439C559.846 126.141 560.532 133.843 558.911 141.451C556.759 151.46 550.554 157.977 541.231 161.687C527.824 167.05 514.104 166.52 500.291 163.62C486.759 160.783 477.716 151.023 475.066 136.275C474.131 131.068 474.131 125.829 474.037 120.591C474.037 117.94 474.972 117.192 477.467 117.286C482.238 117.442 486.977 117.286 491.748 117.286V117.192L491.779 117.223Z" fill="var(--fill-0, #E94337)"/>
<path id="Vector_5" d="M299.61 99.3261C299.61 80.2747 299.641 61.2545 299.61 42.2031C299.61 34.3767 300.577 35.6551 292.719 35.5616C288.136 35.4992 283.521 35.4057 278.937 35.5928C276.069 35.7175 274.822 35.0004 274.915 31.8199C275.133 23.7753 275.071 15.7307 274.915 7.68606C274.884 5.12924 275.321 3.81965 278.345 3.85083C306.252 3.94437 334.19 3.94437 362.096 3.85083C364.965 3.85083 365.713 4.87979 365.682 7.56133C365.557 15.7619 365.557 23.9624 365.682 32.1629C365.713 34.7821 364.778 35.624 362.252 35.5616C356.827 35.4369 351.401 35.8111 346.007 35.4369C341.735 35.1563 340.862 36.8088 340.862 40.7376C340.987 78.9651 340.956 117.224 340.925 155.451C340.925 164.587 342.359 163.371 332.787 163.465C323.276 163.527 313.735 163.309 304.225 163.558C300.546 163.652 299.486 162.561 299.517 158.85C299.704 138.988 299.61 119.126 299.61 99.2638V99.3261Z" fill="var(--fill-0, #4385F4)"/>
<path id="Vector_6" d="M243.892 111.268C236.346 111.268 228.8 111.175 221.286 111.331C218.791 111.331 217.794 110.738 217.887 108.057C218.043 101.166 218.043 94.3061 217.887 87.4152C217.825 84.6713 219.01 84.1412 221.379 84.1724C236.471 84.2348 251.531 84.2348 266.623 84.1724C269.117 84.1724 270.084 84.8896 270.021 87.5087C269.865 94.3997 269.834 101.259 270.021 108.15C270.084 110.957 268.868 111.331 266.498 111.3C258.952 111.206 251.406 111.3 243.892 111.3V111.268Z" fill="var(--fill-0, #FFBE00)"/>
</g>
</svg>
