<svg width="40" height="40" viewBox="0 0 40 40" fill="none" xmlns="http://www.w3.org/2000/svg">
<circle cx="20" cy="20" r="20" fill="white"/>
<path d="M21.9609 20.5801C22.362 20.179 22.5625 19.6921 22.5625 19.1191C22.5625 18.5462 22.362 18.0592 21.9609 17.6582C21.5599 17.2572 21.0729 17.0566 20.5 17.0566C19.9271 17.0566 19.4401 17.2572 19.0391 17.6582C18.638 18.0592 18.4375 18.5462 18.4375 19.1191C18.4375 19.6921 18.638 20.179 19.0391 20.5801C19.4401 20.9811 19.9271 21.1816 20.5 21.1816C21.0729 21.1816 21.5599 20.9811 21.9609 20.5801ZM20.5 29.4603C22.7726 27.4169 24.4865 25.5358 25.6419 23.8171C26.7973 22.0983 27.375 20.561 27.375 19.2051C27.375 17.1999 26.7209 15.5384 25.4128 14.2207C24.1046 12.903 22.467 12.2441 20.5 12.2441C18.533 12.2441 16.8954 12.903 15.5872 14.2207C14.2791 15.5384 13.625 17.1999 13.625 19.2051C13.625 20.561 14.2027 22.0983 15.3581 23.8171C16.5135 25.5358 18.2274 27.4169 20.5 29.4603ZM20.5 32.1816C17.5017 29.6799 15.2626 27.3548 13.7826 25.2064C12.3025 23.0579 11.5625 21.0575 11.5625 19.2051C11.5625 16.6461 12.4123 14.5024 14.112 12.7741C15.8116 11.0458 17.941 10.1816 20.5 10.1816C23.0399 10.1816 25.1645 11.0458 26.8737 12.7741C28.5829 14.5024 29.4375 16.6461 29.4375 19.2051C29.4375 21.0575 28.7023 23.0532 27.2318 25.1921C25.7613 27.3309 23.5174 29.6608 20.5 32.1816Z" fill="#FF3F31"/>
</svg>
