<svg width="40" height="40" viewBox="0 0 40 40" fill="none" xmlns="http://www.w3.org/2000/svg">
<circle cx="20" cy="20" r="20" fill="white"/>
<g clip-path="url(#clip0)">
<path d="M20.0011 10.7627C22.8494 10.7627 23.1864 10.7737 24.3114 10.8249C25.3513 10.8724 25.9162 11.046 26.2922 11.192C26.7901 11.3855 27.1454 11.6167 27.5188 11.9898C27.8923 12.3628 28.1234 12.7185 28.3165 13.2164C28.4626 13.5924 28.6362 14.1572 28.6836 15.1971C28.7349 16.3217 28.7459 16.6592 28.7459 19.5075C28.7459 22.3558 28.7349 22.6928 28.6836 23.8179C28.6362 24.8578 28.4626 25.4226 28.3165 25.7986C28.123 26.2965 27.8918 26.6518 27.5188 27.0252C27.1454 27.3987 26.7901 27.6299 26.2922 27.8229C25.9162 27.969 25.3513 28.1426 24.3114 28.19C23.1868 28.2413 22.8494 28.2523 20.0011 28.2523C17.1528 28.2523 16.8153 28.2413 15.6907 28.19C14.6508 28.1426 14.086 27.969 13.71 27.8229C13.212 27.6294 12.8568 27.3982 12.4833 27.0252C12.1099 26.6522 11.8787 26.2965 11.6856 25.7986C11.5396 25.4226 11.366 24.8578 11.3185 23.8179C11.2673 22.6933 11.2563 22.3558 11.2563 19.5075C11.2563 16.6592 11.2673 16.3221 11.3185 15.1971C11.366 14.1572 11.5396 13.5924 11.6856 13.2164C11.8791 12.7185 12.1103 12.3632 12.4833 11.9898C12.8568 11.6163 13.212 11.3851 13.71 11.192C14.086 11.046 14.6508 10.8724 15.6907 10.8249C16.8153 10.7737 17.1528 10.7627 20.0011 10.7627ZM20.0011 8.84082C17.1041 8.84082 16.7408 8.8531 15.6031 8.90518C14.4679 8.95684 13.6922 9.13721 13.0139 9.401C12.3123 9.67368 11.7174 10.0382 11.1246 10.6314C10.5314 11.2246 10.1668 11.8191 9.89416 12.5207C9.63037 13.199 9.45 13.9747 9.39834 15.1099C9.34626 16.2476 9.33398 16.6109 9.33398 19.5079C9.33398 22.4049 9.34626 22.7682 9.39834 23.9059C9.45 25.0411 9.63037 25.8168 9.89416 26.4951C10.1668 27.1967 10.5314 27.7916 11.1246 28.3844C11.7178 28.9776 12.3123 29.3421 13.0139 29.6148C13.6922 29.8786 14.4679 30.059 15.6031 30.1106C16.7408 30.1627 17.1041 30.175 20.0011 30.175C22.8981 30.175 23.2614 30.1627 24.3991 30.1106C25.5343 30.059 26.31 29.8786 26.9883 29.6148C27.6899 29.3421 28.2848 28.9776 28.8775 28.3844C29.4708 27.7912 29.8353 27.1967 30.108 26.4951C30.3718 25.8168 30.5522 25.0411 30.6038 23.9059C30.6559 22.7682 30.6682 22.4049 30.6682 19.5079C30.6682 16.6109 30.6559 16.2476 30.6038 15.1099C30.5522 13.9747 30.3718 13.199 30.108 12.5207C29.8353 11.8191 29.4708 11.2242 28.8775 10.6314C28.2843 10.0382 27.6899 9.67368 26.9883 9.401C26.31 9.13721 25.5343 8.95684 24.3991 8.90518C23.2614 8.8531 22.8981 8.84082 20.0011 8.84082Z" fill="#FF3F31"/>
<path d="M20.0007 14.0303C16.9754 14.0303 14.5234 16.4827 14.5234 19.5076C14.5234 22.5324 16.9759 24.9849 20.0007 24.9849C23.0256 24.9849 25.478 22.5324 25.478 19.5076C25.478 16.4827 23.0256 14.0303 20.0007 14.0303ZM20.0007 23.063C18.0369 23.063 16.4453 21.4709 16.4453 19.5076C16.4453 17.5442 18.0374 15.9522 20.0007 15.9522C21.9641 15.9522 23.5561 17.5442 23.5561 19.5076C23.5561 21.4709 21.9641 23.063 20.0007 23.063Z" fill="#FF3F31"/>
<path d="M26.6 14.7186C27.0999 14.2187 27.0999 13.4083 26.6 12.9084C26.1002 12.4085 25.2897 12.4085 24.7898 12.9084C24.29 13.4083 24.29 14.2187 24.7899 14.7186C25.2897 15.2184 26.1002 15.2184 26.6 14.7186Z" fill="#FF3F31"/>
</g>
<defs>
<clipPath id="clip0">
<rect width="21.3333" height="21.3333" fill="white" transform="translate(9.33398 8.84082)"/>
</clipPath>
</defs>
</svg>
