<svg preserveAspectRatio="none" width="100%" height="100%" overflow="visible" style="display: block;" viewBox="0 0 7.5 7.50143" fill="none" xmlns="http://www.w3.org/2000/svg">
<path id="Union" d="M3.48438 0.109553C3.63068 -0.0366342 3.86821 -0.0364008 4.01465 0.109553L7.39062 3.48553L7.43848 3.54412C7.45042 3.5622 7.46027 3.5813 7.46875 3.60076C7.47187 3.60791 7.4729 3.61585 7.47559 3.62322C7.48111 3.63846 7.48675 3.65342 7.49023 3.66912C7.49173 3.67585 7.49203 3.68277 7.49316 3.68963C7.49584 3.70589 7.49752 3.72203 7.49805 3.73846C7.49818 3.74259 7.5 3.74699 7.5 3.75115C7.5 3.75641 7.49827 3.76157 7.49805 3.76678C7.49741 3.78158 7.49554 3.79607 7.49316 3.81072C7.49194 3.8183 7.49093 3.82577 7.48926 3.83319C7.48536 3.8505 7.48001 3.86724 7.47363 3.88397C7.47168 3.88907 7.47092 3.89459 7.46875 3.89959C7.45055 3.94169 7.42494 3.9814 7.39062 4.0158L4.01465 7.39178C3.86818 7.53787 3.63071 7.53809 3.48438 7.39178C3.33811 7.24544 3.33829 7.00796 3.48438 6.86151L6.21875 4.12615H0.375C0.168017 4.12613 0.000169179 3.9581 0 3.75115C0 3.54406 0.167912 3.37618 0.375 3.37615H6.2207L3.48438 0.640803C3.33795 0.494344 3.33792 0.255985 3.48438 0.109553Z" fill="var(--fill-0, white)"/>
</svg>
