<svg width="14" height="20" viewBox="0 0 14 20" fill="none" xmlns="http://www.w3.org/2000/svg">
<path d="M8.54136 10.2012H5.20706C2.79471 10.2012 0.76614 12.0047 0.474696 14.4011L0.0072309 18.2837C-0.0533664 18.7872 0.272705 19.2634 0.767583 19.3701C2.69371 19.7799 4.74392 19.9992 6.87493 19.9992C9.00594 19.9992 11.0561 19.7799 12.9808 19.3701C13.4757 19.2634 13.8032 18.7872 13.7412 18.2837L13.2737 14.4011C12.9895 12.0047 10.9537 10.2012 8.54136 10.2012Z" fill="#00AB41"/>
<path d="M2.38672 4.48853C2.38672 6.96725 4.39653 8.9785 6.87381 8.9785C9.35108 8.9785 11.3638 6.96869 11.3638 4.48853C11.3638 2.00837 9.35253 0 6.87381 0C4.39509 0 2.38672 2.01125 2.38672 4.48853Z" fill="#00AB41"/>
</svg>
