<svg width="2040" height="2064" viewBox="0 0 1440 2064" fill="none" xmlns="http://www.w3.org/2000/svg">
<path fill-rule="evenodd" clip-rule="evenodd" d="M1325.83 1121.71C1358.33 1071.51 1284.05 1121.51 1272.67 1103.21C1265.92 1092.37 1288.88 1053.94 1313.99 1028.6C1339.6 1002.71 1367.91 986.946 1395.47 968.538C1476.41 914.562 1546.62 893.673 1581.89 895.859C1619.46 898.194 1610.64 927.642 1585.28 976.582C1583.98 979.09 1582.82 981.478 1581.6 983.902C1517.33 1059.52 1426.92 1067.89 1440.21 1104.09C1479.84 1093.49 1431.33 1205.61 1341.71 1252.07C1286.53 1279.22 1240.83 1292.92 1224.55 1281.81C1213.62 1274.37 1228.91 1241.51 1206.19 1244.97C1191.05 1247.25 1173.08 1251.93 1153.54 1259C1147.64 1261.1 1096.62 1279.5 1134.74 1244.15C1156.97 1223.54 1179.9 1225.11 1199.26 1220.08C1231.46 1211.68 1295.01 1164.88 1319.75 1130.66C1322.14 1127.36 1324.17 1124.43 1325.88 1121.72L1325.83 1121.71Z" fill="white"/>
<path fill-rule="evenodd" clip-rule="evenodd" d="M312.192 360.912C305.392 362.953 299.022 364.591 292.91 367.494C290.7 368.528 287.774 370.339 285.421 371.115C284.215 371.402 282.982 371.661 281.748 371.948C281.03 372.495 280.313 373.041 279.596 373.587C278.821 373.702 278.046 373.817 277.271 373.903C271.332 376.978 264.703 380.714 258.477 383.1C253.799 384.882 249.897 386.549 245.162 388.187C243.728 389.107 242.293 390.055 240.83 390.975C236.841 392.613 233.57 394.424 230.012 395.919C224.072 398.39 218.907 401.351 213.541 403.966C210.844 405.259 208.147 405.834 205.564 407.415C198.046 412.042 190.586 417.273 182.264 421.067C178.362 419.4 177.501 415.664 172.623 414.485C171.016 414.543 169.409 414.6 167.803 414.658C158.19 414.658 149.783 416.411 142.006 418.94C117.128 426.959 96.0667 437.421 75.9807 450.325C69.8401 454.263 64.2447 458.315 58.5058 462.483C54.3739 465.472 49.5819 467.656 46.6838 471.852C46.5116 471.91 46.3395 471.967 46.196 472.025C43.7857 468.202 35.5504 465.587 29.0655 466.449C27.9464 466.765 26.856 467.11 25.7369 467.426C20.0267 466.305 15.7226 470.501 11.5906 473.002C3.03972 478.204 -5.19554 482.918 -13.5169 488.292C-16.8168 490.419 -20.0018 493.178 -23.6747 495.017C-24.9947 496.34 -26.3433 497.633 -27.6632 498.955C-29.2127 500.277 -31.1352 500.881 -32.8282 502.088C-33.8325 503.18 -34.8368 504.272 -35.8124 505.364C-42.1252 510.48 -47.6345 516.228 -53.6029 521.632C-68.8109 535.312 -84.2484 549.999 -95.0088 567.962C-100.403 576.958 -103.445 586.558 -107.663 596.732C-110.705 604.09 -114.205 612.511 -115.812 621.047C-116.042 622.283 -117.304 623.202 -117.649 624.18C-119.456 629.209 -119.915 633.865 -121.981 638.809C-125.052 646.109 -129.241 652.748 -129.643 662.463C-131.537 663.009 -133.402 663.555 -135.296 664.101C-138.509 665.969 -141.723 667.837 -144.937 669.677C-149.098 672.493 -152.971 676.316 -156.07 680.196C-158.079 682.696 -161.264 684.507 -163.215 687.094C-169.126 694.94 -173.459 702.758 -177.849 712.242C-179.428 715.634 -181.867 719.111 -183.33 722.589C-184.593 725.578 -185.999 729.17 -186.659 732.131C-186.945 734.171 -187.204 736.183 -187.491 738.224C-187.95 739.805 -189.327 741.96 -189.815 743.484C-190.991 747.047 -189.872 750.87 -190.819 755.152C-191.537 758.371 -192.053 761.533 -191.996 765.844C-190.303 769.695 -189.987 773.891 -188.179 777.829C-186.257 782.025 -176.013 790.101 -171.709 792.458C-170.274 792.688 -168.839 792.889 -167.376 793.119C-166.601 793.55 -165.826 793.981 -165.052 794.441C-162.785 795.189 -159.915 795.102 -158.079 795.763H-148.265C-141.953 796.856 -134.205 793.924 -128.639 792.487C-124.736 791.481 -121.35 791.107 -117.505 790.504C-116.243 789.958 -114.951 789.412 -113.689 788.866C-107.319 786.882 -101.207 785.647 -95.554 782.772C-92.0533 780.991 -88.8969 777.657 -85.7405 775.53C-84.1337 774.438 -82.7563 774.294 -81.4077 773.058C-78.9113 773.518 -77.0175 775.587 -74.0907 776.191C-70.5039 776.909 -65.5971 776.076 -62.4407 775.53C-58.194 774.811 -53.689 775.242 -49.4709 774.208C-45.1955 773.173 -40.7478 770.558 -37.161 768.632C-35.8985 768.258 -34.6072 767.856 -33.3447 767.482C-31.3074 766.275 -29.2414 765.068 -27.2041 763.861C-26.085 763.487 -24.9946 763.085 -23.8756 762.711C-20.6331 760.901 -17.5628 758.026 -14.5499 755.986C-10.0736 753.255 -5.56859 750.496 -1.06357 747.766C3.09711 743.771 7.2578 739.776 11.4185 735.781C15.78 732.303 20.0268 728.423 23.5562 724.112C26.5978 720.404 30.8158 717.617 34.0296 714.081C37.186 709.971 40.3423 705.862 43.4987 701.752C45.1056 698.418 46.7125 695.055 48.3193 691.721C48.8071 689.537 49.3237 687.352 49.8115 685.139C51.5331 682.495 55.1199 679.736 57.6163 677.753C62.7239 673.729 66.7124 668.498 71.9348 664.446C74.6895 662.29 77.0711 659.474 79.2519 656.714C82.5804 652.49 87.2289 649.184 90.5574 644.873C92.1643 643.436 93.7712 642.028 95.3781 640.591C100.256 634.641 106.511 629.554 110.844 623.174C114.919 617.167 120.113 609.608 121.662 601.647C123.212 593.685 114.23 590.035 119.338 583.396C124.245 577.073 131.762 571.555 138.305 566.813C144.732 561.381 151.16 555.977 157.587 550.545C159.912 548.188 162.236 545.832 164.56 543.475C173.771 536.405 181.863 528.443 191.188 521.459C193.57 519.16 195.952 516.861 198.333 514.561C202.896 511.429 206.597 507.491 210.987 504.215C230.672 489.557 248.979 473.49 268.204 458.373C290.643 440.726 310.184 420.233 333.082 403.161C338.218 399.339 342.522 393.935 347.716 390.17C357.329 383.244 372.307 368.729 374 354.503C371.159 351.025 366.97 351.858 361.518 350.738C347.63 347.806 330.04 354.33 318.591 358.124C316.439 359.044 314.258 359.992 312.106 360.912H312.192Z" fill="#00AB41"/>
<path fill-rule="evenodd" clip-rule="evenodd" d="M1414.95 114.403C1395.67 143.113 1441.71 117.365 1449.58 129.429C1454.22 136.569 1440.69 158.671 1425.39 172.54C1409.76 186.738 1392.09 194.51 1374.98 203.966C1324.78 231.68 1280.39 239.743 1257.69 235.963C1233.54 231.931 1238.26 214.419 1253.07 186.003C1253.83 184.559 1254.52 183.132 1255.21 181.739C1294.1 139.556 1351.81 140.606 1342.19 117.368C1317.09 121.21 1344.78 55.4564 1400.83 32.9769C1435.35 20.0174 1464.22 14.7334 1475.03 22.6789C1482.27 27.9937 1473.44 47.1712 1487.94 46.6199C1497.57 46.2347 1508.92 44.5888 1521.26 41.5905C1524.97 40.7059 1557.11 32.8631 1533.76 52.0165C1520.14 63.2177 1505.39 60.6318 1493.14 62.4134C1472.74 65.4004 1433.43 89.8289 1418.63 109.244C1417.21 111.094 1416 112.785 1414.97 114.326L1414.95 114.403Z" fill="#0071EB"/>
</svg>
