<svg width="2000" height="2058" viewBox="0 0 1440 2558" fill="none" xmlns="http://www.w3.org/2000/svg">
<path fill-rule="evenodd" clip-rule="evenodd" d="M1219.68 1221.29C1215.28 1221.67 1210.88 1221.99 1206.42 1222.38C1195.14 1225.69 1181.36 1228.85 1169.74 1227.33C1157.15 1225.67 1139.02 1214.39 1124.61 1222.4C1122.32 1224.68 1119.95 1226.91 1117.66 1229.2C1109.03 1235.29 1103.71 1241.77 1096.74 1248.81C1092.93 1251.81 1089.11 1254.75 1085.3 1257.75C1077.81 1265.41 1070.5 1274.19 1063.39 1282.28C1050.9 1296.5 1036.83 1306.69 1021.71 1318.72C996.038 1339.14 969.607 1359.73 935.485 1373.02C888.196 1391.49 849.973 1362.36 813.423 1351.03C811.27 1351.13 809.127 1351.28 806.974 1351.37C781.51 1348.27 751.53 1366.16 736.95 1377.75C734.032 1381.45 731.164 1385.09 728.246 1388.79C698.848 1418.22 679.972 1452.99 662.925 1493.75C660.33 1499.94 655.148 1505.74 652.717 1512.2C647.935 1524.86 646.065 1541.17 642.912 1554.24C640.057 1566.13 643.874 1574.45 642.715 1587.57C641.924 1596.85 639.377 1604.89 642.024 1615.38C643.578 1621.52 644.405 1630.37 648.325 1633.13C663.335 1643.76 695.454 1635.41 712.354 1627.92C720.808 1624.2 727.695 1622.41 736.701 1618.37C739.829 1616.02 743.015 1613.65 746.143 1611.3C752.219 1607.77 756.351 1605.69 762.264 1602.67C765.391 1600.31 768.578 1597.95 771.706 1595.6C773.243 1595.43 774.781 1595.25 776.319 1595.07C777.417 1594 778.515 1592.92 779.622 1591.91C784.487 1589.89 805.729 1587.5 810.684 1588.79C813.589 1590.44 816.504 1592.16 819.409 1593.82C825.703 1595.97 831.361 1595.58 836.783 1598.71C854.022 1608.57 849.232 1649.18 854.372 1672.65C854.506 1675.46 854.64 1678.27 854.765 1681.02C858.441 1693.1 864.811 1703.91 868.369 1715.23C868.856 1717.98 869.342 1720.74 869.829 1723.49C870.902 1724.59 871.975 1725.69 873.039 1726.73C877.393 1733.46 879.78 1741.1 884.621 1747.1C886.781 1749.77 890.579 1752.14 892.531 1755.02C897.061 1761.73 900.484 1769.45 906.536 1773.93C910.483 1776.88 927.227 1781.21 933.025 1779.77C938.311 1778.53 943.588 1777.23 948.874 1775.99C958.591 1776.53 965.203 1771.41 972.278 1767.73C985.799 1760.58 996.727 1755.33 1012.03 1749.17C1017.35 1747.02 1024.53 1742.42 1031.59 1742.53C1035.92 1743.66 1040.18 1744.75 1044.51 1745.89C1046.89 1749.61 1048.55 1755.26 1049.2 1761.42C1049.47 1764.33 1049.74 1767.24 1050.01 1770.15C1054.95 1783.41 1072.01 1783.12 1087.13 1781.62C1094.68 1776.36 1107.51 1778.35 1116.46 1775.09C1123.64 1772.48 1134.6 1770.96 1142.18 1768.58C1147.18 1767.87 1152.14 1767.22 1157.15 1766.5C1165.41 1763.48 1174.62 1760 1183.21 1755.97C1194.54 1750.6 1206.18 1742.59 1217.51 1737.22C1248.14 1722.79 1276.62 1709.16 1304.97 1692.43C1324.16 1681.09 1343.74 1666.79 1362.8 1654.99C1378.73 1645.12 1393.65 1637.63 1409.32 1628.04C1433.7 1613.24 1457.33 1593.99 1480.36 1577.47C1495.96 1566.26 1512.38 1557.64 1526.43 1545.35C1532.84 1539.72 1540.46 1534.5 1546.96 1529.76C1548.36 1529.49 1549.82 1529.2 1551.21 1528.86C1551.7 1527.76 1552.19 1526.61 1552.68 1525.51C1561.17 1518.53 1570.08 1513.84 1578.34 1506.54C1587.13 1497.65 1595.93 1488.76 1604.73 1479.87C1607.68 1477.12 1615.45 1472.91 1617.53 1470.42C1621.62 1464.19 1625.78 1458 1629.88 1451.77C1634.14 1445.45 1638.3 1443.18 1641.7 1435.18C1647.8 1420.93 1652.23 1383.45 1640.96 1368.21C1635.17 1360.38 1626.35 1353.55 1622.43 1343.38C1622.38 1341.52 1622.33 1339.66 1622.28 1337.8C1620.89 1333.44 1617.41 1325.37 1618.34 1318.54C1622.53 1288.44 1636.26 1268.25 1648.77 1246.02C1653.77 1237.12 1663.61 1231.86 1666.64 1221.09C1673.34 1197.47 1682.49 1179.98 1663.31 1157.6C1658.13 1159.12 1656.91 1155.94 1652.64 1155.15C1647.32 1154.23 1635.76 1153.85 1627.9 1156.75C1614.52 1161.66 1598.17 1166.9 1584.99 1172.01C1579.08 1173.11 1573.16 1174.14 1567.25 1175.24C1562.93 1177.23 1551.08 1182.74 1543.59 1180.29C1537.61 1177.78 1538.25 1168.35 1539.84 1163.04C1544.14 1148.47 1553.69 1136.27 1558.82 1122.35C1560.44 1118 1559.4 1113.22 1560.77 1108.5C1562.07 1104.02 1565.48 1098.85 1566.26 1093.79C1569.01 1076.15 1564.74 1050.13 1558.76 1036C1557.62 1033.29 1553.22 1029.81 1551.43 1026.78C1547.28 1019.77 1545.06 1012.47 1538.32 1009.36C1531.58 1006.31 1519.45 1002.22 1509.24 1006.63C1505.35 1008.32 1503.55 1009.14 1499.01 1009C1497.62 1013.25 1487.04 1020.31 1483.27 1022.04C1481 1022.15 1478.73 1022.26 1476.47 1022.43C1474.72 1024.38 1472.97 1026.28 1471.23 1028.24C1457.54 1039.39 1444.85 1049.54 1430.95 1060.49C1398.54 1085.98 1369.47 1116.38 1334.42 1139.63C1328.47 1143.56 1322.8 1151.3 1317.57 1156.39C1307.83 1165.79 1297.1 1172.33 1286.67 1181.17C1271.92 1193.63 1254.56 1208.24 1235.45 1216.26C1229.8 1218.64 1224.19 1219.69 1219.32 1221.28L1219.68 1221.29Z" fill="#00A43E"/>
<path fill-rule="evenodd" clip-rule="evenodd" d="M1636.56 -30.5723C1628.17 -28.0608 1620.32 -26.0445 1612.78 -22.4717C1610.06 -21.1983 1606.45 -18.9698 1603.55 -18.0147C1602.07 -17.6609 1600.55 -17.3425 1599.02 -16.9888C1598.14 -16.3167 1597.26 -15.6446 1596.37 -14.9725C1595.42 -14.831 1594.46 -14.6895 1593.51 -14.5834C1586.18 -10.7984 1578.01 -6.19988 1570.34 -3.26387C1564.57 -1.0707 1559.76 0.981041 1553.92 2.99734C1552.15 4.1293 1550.39 5.29663 1548.58 6.42859C1543.66 8.44489 1539.63 10.6734 1535.25 12.5129C1527.92 15.555 1521.56 19.1984 1514.94 22.4174C1511.62 24.0093 1508.29 24.7168 1505.11 26.6623C1495.84 32.3575 1486.64 38.7955 1476.38 43.4648C1471.57 41.4131 1470.51 36.8145 1464.5 35.3642C1462.52 35.435 1460.54 35.5057 1458.56 35.5765C1446.71 35.5765 1436.34 37.7342 1426.75 40.8471C1396.09 50.7163 1370.12 63.5924 1345.36 79.4752C1337.79 84.3214 1330.89 89.309 1323.82 94.4382C1318.72 98.117 1312.82 100.805 1309.24 105.97C1309.03 106.041 1308.82 106.112 1308.64 106.182C1305.67 101.478 1295.52 98.2585 1287.52 99.3198C1286.14 99.7089 1284.8 100.133 1283.42 100.522C1276.38 99.1429 1271.08 104.307 1265.98 107.385C1255.44 113.788 1245.29 119.589 1235.03 126.204C1230.96 128.821 1227.04 132.217 1222.51 134.481C1220.88 136.108 1219.22 137.7 1217.59 139.327C1215.68 140.955 1213.31 141.697 1211.22 143.183C1209.99 144.527 1208.75 145.872 1207.54 147.216C1199.76 153.512 1192.97 160.587 1185.61 167.237C1166.86 184.075 1147.83 202.151 1134.57 224.26C1127.92 235.332 1124.17 247.146 1118.97 259.669C1115.22 268.724 1110.9 279.089 1108.92 289.595C1108.64 291.116 1107.08 292.248 1106.66 293.45C1104.43 299.641 1103.86 305.371 1101.32 311.456C1097.53 320.441 1092.37 328.612 1091.87 340.568C1089.54 341.24 1087.24 341.912 1084.9 342.585C1080.94 344.884 1076.98 347.183 1073.02 349.447C1067.89 352.914 1063.11 357.618 1059.29 362.394C1056.82 365.471 1052.89 367.7 1050.49 370.883C1043.2 380.54 1037.86 390.162 1032.44 401.835C1030.5 406.009 1027.49 410.29 1025.69 414.57C1024.13 418.249 1022.4 422.67 1021.58 426.314C1021.23 428.825 1020.91 431.302 1020.56 433.813C1019.99 435.759 1018.3 438.412 1017.69 440.287C1016.24 444.673 1017.62 449.378 1016.46 454.648C1015.57 458.61 1014.93 462.501 1015.01 467.807C1017.09 472.547 1017.48 477.712 1019.71 482.558C1022.08 487.723 1034.71 497.663 1040.01 500.563C1041.78 500.846 1043.55 501.094 1045.36 501.377C1046.31 501.907 1047.27 502.438 1048.22 503.004C1051.02 503.924 1054.55 503.818 1056.82 504.631H1068.91C1076.7 505.975 1086.25 502.367 1093.11 500.599C1097.92 499.361 1102.1 498.901 1106.84 498.158C1108.39 497.486 1109.98 496.814 1111.54 496.141C1119.39 493.701 1126.93 492.18 1133.9 488.642C1138.21 486.449 1142.1 482.346 1145.99 479.728C1147.97 478.384 1149.67 478.207 1151.34 476.686C1154.41 477.252 1156.75 479.799 1160.36 480.542C1164.78 481.426 1170.83 480.4 1174.72 479.728C1179.95 478.844 1185.51 479.374 1190.71 478.101C1195.98 476.828 1201.46 473.609 1205.88 471.239C1207.44 470.779 1209.03 470.283 1210.59 469.824C1213.1 468.338 1215.64 466.852 1218.16 465.366C1219.54 464.907 1220.88 464.411 1222.26 463.952C1226.26 461.723 1230.04 458.186 1233.76 455.674C1239.27 452.314 1244.83 448.918 1250.38 445.557C1255.51 440.64 1260.64 435.723 1265.77 430.806C1271.15 426.526 1276.38 421.751 1280.73 416.445C1284.48 411.881 1289.68 408.45 1293.64 404.099C1297.53 399.041 1301.43 393.982 1305.32 388.924C1307.3 384.821 1309.28 380.682 1311.26 376.579C1311.86 373.89 1312.5 371.202 1313.1 368.478C1315.22 365.224 1319.64 361.828 1322.72 359.387C1329.02 354.435 1333.93 347.997 1340.37 343.009C1343.77 340.356 1346.7 336.889 1349.39 333.493C1353.5 328.294 1359.23 324.226 1363.33 318.92C1365.31 317.151 1367.29 315.417 1369.27 313.649C1375.29 306.326 1383 300.065 1388.34 292.212C1393.36 284.819 1399.76 275.516 1401.67 265.718C1403.59 255.919 1392.51 251.427 1398.81 243.255C1404.86 235.473 1414.13 228.681 1422.19 222.845C1430.12 216.159 1438.04 209.509 1445.96 202.823C1448.83 199.923 1451.69 197.022 1454.56 194.121C1465.91 185.419 1475.89 175.621 1487.39 167.025C1490.32 164.195 1493.26 161.365 1496.19 158.535C1501.82 154.68 1506.38 149.833 1511.79 145.801C1536.06 127.76 1558.63 107.986 1582.33 89.3798C1609.99 67.6603 1634.08 42.4389 1662.31 21.427C1668.64 16.7223 1673.95 10.0721 1680.35 5.43813C1692.2 -3.08692 1710.66 -20.9507 1712.75 -38.4607C1709.25 -42.7409 1704.08 -41.715 1697.36 -43.0946C1680.24 -46.7027 1658.56 -38.6729 1644.44 -34.0035C1641.79 -32.8716 1639.1 -31.7042 1636.45 -30.5723H1636.56Z" fill="#00A43E"/>
<path fill-rule="evenodd" clip-rule="evenodd" d="M151.88 372.191C114.434 427.953 203.861 377.944 219.146 401.375C228.16 415.243 201.877 458.169 172.157 485.107C141.806 512.682 107.48 527.775 74.2522 546.142C-23.254 599.968 -109.458 615.627 -153.557 608.287C-200.445 600.455 -191.295 566.444 -162.527 511.253C-161.052 508.45 -159.712 505.678 -158.357 502.972C-82.8384 421.044 29.2516 423.084 10.5639 377.95C-38.1891 385.413 15.6047 257.705 124.452 214.045C191.502 188.875 247.579 178.613 268.578 194.045C282.632 204.367 265.482 241.614 293.637 240.543C312.353 239.795 334.385 236.598 358.354 230.775C365.573 229.057 427.986 213.824 382.637 251.024C356.173 272.779 327.544 267.757 303.74 271.217C264.121 277.019 187.779 324.464 159.036 362.172C156.263 365.765 153.912 369.05 151.917 372.042L151.88 372.191Z" fill="#00A43E"/>
</svg>
