<svg width="2440" height="2254" viewBox="-200 0 1440 1954" fill="none" xmlns="http://www.w3.org/2000/svg">
<path fill-rule="evenodd" clip-rule="evenodd" d="M326.556 -7.57229C318.172 -5.06076 310.32 -3.04448 302.785 0.528259C300.061 1.80171 296.453 4.03023 293.552 4.98532C292.067 5.33906 290.546 5.65745 289.025 6.01119C288.14 6.68329 287.256 7.35536 286.372 8.02746C285.416 8.16895 284.461 8.3105 283.506 8.41662C276.184 12.2016 268.013 16.8001 260.336 19.7361C254.571 21.9293 249.76 23.981 243.923 25.9973C242.154 27.1293 240.386 28.2966 238.582 29.4286C233.665 31.4449 229.632 33.6734 225.246 35.5129C217.924 38.555 211.556 42.1984 204.941 45.4174C201.616 47.0093 198.291 47.7168 195.107 49.6623C185.84 55.3575 176.642 61.7955 166.384 66.4648C161.573 64.4131 160.512 59.8145 154.499 58.3642C152.518 58.435 150.537 58.5057 148.556 58.5765C136.706 58.5765 126.341 60.7342 116.755 63.8471C86.0858 73.7163 60.1216 86.5924 35.36 102.475C27.7901 107.321 20.8922 112.309 13.8174 117.438C8.72363 121.117 2.81625 123.805 -0.7565 128.97C-0.968719 129.041 -1.18097 129.112 -1.35785 129.182C-4.32922 124.478 -14.4815 121.259 -22.4759 122.32C-23.8555 122.709 -25.1997 123.133 -26.5793 123.522C-33.6186 122.143 -38.9247 127.307 -44.0185 130.385C-54.5598 136.788 -64.7121 142.589 -74.9704 149.204C-79.0384 151.821 -82.9649 155.217 -87.4927 157.481C-89.1199 159.108 -90.7825 160.7 -92.4097 162.327C-94.3198 163.955 -96.6899 164.697 -98.7769 166.183C-100.015 167.527 -101.253 168.872 -102.456 170.216C-110.238 176.512 -117.03 183.587 -124.387 190.237C-143.135 207.075 -162.167 225.151 -175.432 247.26C-182.082 258.332 -185.832 270.146 -191.031 282.669C-194.781 291.724 -199.097 302.089 -201.078 312.595C-201.361 314.116 -202.917 315.248 -203.341 316.45C-205.57 322.641 -206.136 328.371 -208.683 334.456C-212.468 343.441 -217.632 351.612 -218.128 363.568C-220.462 364.24 -222.762 364.912 -225.096 365.585C-229.058 367.884 -233.02 370.183 -236.982 372.447C-242.111 375.914 -246.886 380.618 -250.707 385.394C-253.183 388.471 -257.109 390.7 -259.515 393.883C-266.802 403.54 -272.143 413.162 -277.555 424.835C-279.501 429.009 -282.508 433.29 -284.312 437.57C-285.868 441.249 -287.602 445.67 -288.415 449.314C-288.769 451.825 -289.087 454.302 -289.441 456.813C-290.007 458.759 -291.705 461.412 -292.306 463.287C-293.757 467.673 -292.377 472.378 -293.544 477.648C-294.429 481.61 -295.065 485.501 -294.995 490.807C-292.908 495.547 -292.518 500.712 -290.29 505.558C-287.92 510.723 -275.292 520.663 -269.985 523.563C-268.217 523.846 -266.448 524.094 -264.644 524.377C-263.689 524.907 -262.734 525.438 -261.779 526.004C-258.984 526.924 -255.447 526.818 -253.183 527.631H-241.085C-233.303 528.975 -223.752 525.367 -216.89 523.599C-212.079 522.361 -207.905 521.901 -203.165 521.158C-201.608 520.486 -200.016 519.814 -198.46 519.141C-190.607 516.701 -183.072 515.18 -176.104 511.642C-171.788 509.449 -167.897 505.346 -164.006 502.728C-162.025 501.384 -160.327 501.207 -158.665 499.686C-155.587 500.252 -153.252 502.799 -149.644 503.542C-145.223 504.426 -139.174 503.4 -135.283 502.728C-130.047 501.844 -124.494 502.374 -119.294 501.101C-114.023 499.828 -108.54 496.609 -104.118 494.239C-102.562 493.779 -100.97 493.283 -99.4136 492.824C-96.9021 491.338 -94.3552 489.852 -91.8437 488.366C-90.4641 487.907 -89.1199 487.411 -87.7403 486.952C-83.7431 484.723 -79.9581 481.186 -76.2439 478.674C-70.7256 475.314 -65.1719 471.918 -59.6183 468.557C-54.4891 463.64 -49.3599 458.723 -44.2307 453.806C-38.8539 449.526 -33.6186 444.751 -29.2677 439.445C-25.518 434.881 -20.3181 431.45 -16.3563 427.099C-12.4652 422.041 -8.57407 416.982 -4.68298 411.924C-2.70206 407.821 -0.721161 403.682 1.25977 399.579C1.86115 396.89 2.49786 394.202 3.09921 391.478C5.22165 388.224 9.64337 384.828 12.7209 382.387C19.0174 377.435 23.9343 370.997 30.3723 366.009C33.7682 363.356 36.7043 359.889 39.3926 356.493C43.496 351.294 49.2265 347.226 53.3298 341.92C55.3107 340.151 57.2917 338.417 59.2726 336.649C65.2861 329.326 72.9976 323.065 78.339 315.212C83.3621 307.819 89.7647 298.516 91.6749 288.718C93.5851 278.919 82.5131 274.427 88.8096 266.255C94.8585 258.473 104.126 251.681 112.192 245.845C120.115 239.159 128.039 232.509 135.963 225.823C138.828 222.923 141.693 220.022 144.559 217.121C155.913 208.419 165.889 198.621 177.385 190.025C180.321 187.195 183.257 184.365 186.193 181.535C191.818 177.68 196.381 172.833 201.793 168.801C226.059 150.76 248.628 130.986 272.328 112.38C299.99 90.6603 324.08 65.4389 352.308 44.427C358.64 39.7223 363.946 33.0721 370.349 28.4381C382.199 19.9131 400.664 2.04931 402.751 -15.4607C399.249 -19.7409 394.084 -18.715 387.363 -20.0946C370.242 -23.7027 348.558 -15.6729 334.444 -11.0035C331.791 -9.87158 329.103 -8.70424 326.45 -7.57229H326.556Z" fill="#0269D9"/>
<path fill-rule="evenodd" clip-rule="evenodd" d="M168.321 1145.52C178.409 1135.75 186.651 1125.74 196.8 1116.46C207.133 1107.06 220.05 1099.38 230.322 1089.86C249.574 1071.98 270.61 1057.48 290.416 1040.89C333.472 1004.88 376.774 969.986 420.199 934.289C428.072 928.268 436.006 922.247 443.879 916.226C456.981 905.044 470.513 894.23 484.598 884.461C486.259 883.294 488.965 883.048 490.565 881.819C492.533 880.345 501.205 872.234 502.312 870.576C502.743 869.531 503.235 868.487 503.666 867.442C506.495 864.431 510.801 861.175 513.692 858.287C514.307 856.567 514.922 854.847 515.537 853.126C518.612 848.334 528.146 837.705 522.795 830.516C520.089 826.891 512.339 823.881 505.942 824.004C491.364 824.249 478.632 827.26 464.669 829.472C449.477 831.868 434.961 837.275 420.691 841.146C380.649 851.959 342.267 864.431 305.055 879.362C277.807 890.298 251.727 903.753 224.54 914.444C214.084 918.561 204.304 925.503 193.909 930.234C189.849 932.876 185.79 935.58 181.669 938.221C170.474 944.181 159.28 950.141 148.024 956.101C144.764 958.313 141.565 960.586 138.305 962.798C121.759 970.846 105.706 980.615 90.636 991.06C81.2252 997.573 70.7687 1002.3 61.604 1009.37C58.098 1011.34 54.5921 1013.3 51.1476 1015.27C34.0483 1028.85 14.0578 1038.55 -3.22606 1051.89C-9.06937 1055.39 -14.9127 1058.89 -20.6945 1062.39C-33.8573 1073.45 -48.4963 1082.85 -61.8437 1093.42C-83.9252 1110.93 -104.592 1129.24 -125.812 1148.04C-131.348 1152.89 -138.545 1157.01 -143.834 1162.11C-157.243 1175.14 -170.037 1187.92 -183.815 1199.96C-184.246 1201.31 -184.676 1202.66 -185.107 1204.01C-194.333 1213.9 -205.281 1222.45 -213.339 1234.73C-215.184 1237.5 -213.401 1239.65 -214.815 1242.17C-217.829 1246.1 -220.843 1250.09 -223.918 1254.03C-228.655 1260.72 -230.315 1266.99 -234.744 1274.55C-238.004 1280.08 -243.109 1285.91 -244.954 1293.65C-245.324 1295.56 -245.631 1297.46 -246 1299.31C-246 1304.04 -244.524 1313.75 -241.817 1317.12C-231.915 1329.54 -220.228 1329.29 -205.835 1326.03C-200.238 1324.74 -194.517 1325.11 -189.535 1323.08C-176.003 1317.55 -162.964 1304.1 -151.769 1294.33C-148.817 1292.55 -145.926 1290.71 -142.973 1288.92C-135.285 1281.86 -126.305 1276.7 -118.924 1269.39C-114.987 1266.81 -111.05 1264.22 -107.052 1261.58C-99.3637 1254.27 -90.814 1248.74 -83.0024 1242.04C-71.2543 1231.91 -60.1828 1222.01 -48.6192 1211.88C-42.8374 1206.84 -34.8413 1203.46 -29.1825 1198.42C-26.1071 1195.72 -24.1389 1192.28 -20.879 1189.82C-0.581161 1174.09 21.4389 1159.59 41.1831 1143.19C53.6078 1132.86 65.7251 1123.46 77.5962 1112.28C85.1618 1105.16 95.3723 1100.42 103.245 1093.79C109.519 1088.5 119.976 1078.06 127.726 1076.22C127.849 1076.22 127.91 1076.22 128.033 1076.28C126.25 1079.9 123.297 1081.07 120.96 1083.65C116.285 1088.75 112.595 1093.91 107.797 1098.27C104.783 1102.21 101.769 1106.2 98.6936 1110.13C91.2511 1117.57 83.378 1125.37 75.874 1132.43C74.0902 1135.02 72.3679 1137.6 70.5842 1140.24C64.6794 1146.26 58.0979 1153.63 52.1316 1159.84C50.6554 1162.11 49.1794 1164.32 47.7032 1166.6C27.1593 1187.92 4.52414 1209.3 -12.5137 1235.53C-21.8015 1249.79 -48.2503 1290.89 -33.1807 1307.66C-11.2221 1332.12 22.3615 1300.6 39.8299 1292.3C87.1299 1269.88 129.509 1238.42 178.163 1218.02C183.268 1214.89 188.435 1211.75 193.54 1208.56C198.768 1204.63 207.687 1201.19 214.022 1198.79C220.111 1196.52 226.816 1189.39 233.828 1189.14C233.828 1189.45 233.828 1189.76 233.889 1190.13C212.669 1218.33 188.742 1243.4 167.153 1270.61C163.647 1275.04 152.206 1293.04 152.76 1300.84C153.067 1305.14 156.573 1309.44 158.295 1313.07C158.91 1313.19 159.464 1313.38 160.079 1313.5C167.091 1309.08 175.395 1306.19 182.96 1302.75C192.248 1298.45 200.798 1292.79 210.393 1288.68C214.76 1285.97 219.189 1283.27 223.556 1280.57C229.399 1277.5 235.242 1274.42 241.086 1271.35C246.868 1267.73 252.588 1264.1 258.37 1260.48C259.969 1259.92 261.568 1259.37 263.168 1258.82C268.703 1255.25 274.239 1250.71 280.144 1247.88C315.265 1230.99 350.756 1214.4 385.938 1197.32C396.026 1192.4 405.99 1186.75 416.201 1181.77C417.369 1180.79 418.538 1179.81 419.707 1178.88C428.441 1175.07 437.052 1171.88 445.54 1167.58C451.568 1164.51 456.673 1160.64 463.132 1158.06C472.727 1154.25 480.723 1145.83 490.749 1143.13C491.118 1143.25 491.548 1143.31 491.917 1143.43C489.457 1146.2 485.275 1147.92 482.015 1149.52C476.171 1152.34 469.898 1157.5 463.993 1160.82C456.735 1166.29 449.538 1171.7 442.28 1177.16C436.929 1181.4 429.917 1184.29 424.566 1188.53C402.607 1206.1 378.68 1220.54 356.599 1237.81C350.878 1242.29 343.867 1245.67 338.331 1250.28C321.047 1264.78 303.886 1281.37 288.14 1296.97C274.239 1310.67 260.092 1327.57 250.435 1347.54C247.913 1352.7 241.762 1367.2 245.514 1371.93C253.326 1381.76 273.87 1374.82 282.419 1371.68C287.894 1369.72 293.307 1369.04 299.088 1367.26C300.934 1366.15 302.717 1364.99 304.563 1363.88C306.346 1363.76 308.13 1363.7 309.914 1363.57C313.666 1361.79 317.418 1359.95 321.231 1358.17C327.69 1355.96 333.779 1353.99 340.238 1351.78C352.416 1347.6 363.672 1339.61 377.02 1337.77C378.619 1340.72 373.944 1344.77 372.345 1346.92C366.809 1354.36 357.091 1364.93 364.472 1373.4C370.192 1374.02 374.621 1368.12 378.311 1365.17C387.907 1357.49 399.655 1351.65 408.327 1342.68C414.663 1339.18 420.998 1335.74 427.395 1332.24C430.286 1329.78 433.115 1327.39 436.006 1324.93C439.328 1323.33 442.588 1321.73 445.909 1320.14C451.322 1316.57 456.796 1312.95 462.209 1309.38C463.931 1308.65 465.654 1307.91 467.437 1307.17C471.066 1304.59 474.695 1302.07 478.324 1299.49C489.519 1294.64 501.021 1286.96 510.801 1279.77C514.676 1276.94 517.751 1273.44 521.688 1270.8C532.39 1263.67 542.293 1255.56 552.503 1247.57C555.394 1245.36 562.714 1241.12 562.468 1235.9C561.853 1233.75 558.162 1230.68 555.21 1231.05C544.077 1232.34 533.251 1234.06 521.749 1235.22L517.628 1236.76C516.46 1236.45 515.291 1236.21 514.061 1235.9C491.548 1240.02 468.114 1246.71 447.509 1254.33C440.681 1256.05 433.792 1257.71 426.903 1259.43C418.599 1262.5 409.988 1265.45 401.316 1268.59C396.395 1270.37 392.212 1273.56 386.738 1274.79C386.8 1274.49 386.861 1274.18 386.923 1273.93C388.768 1271.78 390.121 1272.46 392.274 1271.17C402.976 1264.59 411.895 1256.3 423.582 1251.2C429.363 1248.68 436.129 1241.12 441.727 1238.05C450.707 1233.07 459.749 1228.4 468.483 1222.88C473.649 1219.62 478.755 1216.36 483.921 1213.17C489.211 1210.77 493.271 1207.33 498.191 1204.38C500.221 1203.4 502.189 1202.42 504.219 1201.43C511.785 1196.46 519.289 1191.54 526.854 1186.56C528.269 1186.2 529.745 1185.83 531.16 1185.4C544.569 1175.63 558.777 1167.95 572.924 1159.47C581.105 1154.61 588.424 1148.72 597.097 1144.66C604.847 1139.56 612.659 1134.46 620.409 1129.3C642.06 1118.98 661.989 1104.79 682.348 1092.31C690.59 1087.28 699.57 1083.96 708.428 1079.84C719.745 1074.62 730.263 1068.6 741.95 1063.81C747.732 1060.43 753.575 1056.99 759.357 1053.61C768.583 1049.37 777.809 1045.13 787.097 1040.89C811.393 1030.57 835.504 1020.92 860.169 1010.91C870.749 1006.6 881.267 1000.34 892.277 996.713C900.334 994.071 923.092 983.872 919.648 969.863C918.725 966.115 906.424 956.654 900.703 956.285C898.181 956.838 895.659 957.391 893.138 957.882C887.725 958.62 882.558 957.821 877.391 958.497C838.026 963.596 799.645 969.679 762.37 978.465C701.846 992.719 642.367 1009.74 584.426 1029.28C536.019 1045.62 489.519 1067.12 442.465 1086.17C427.887 1092.07 413.863 1100.55 399.655 1107.12C383.724 1114.56 367.547 1122.36 352.601 1131.45C342.329 1137.72 332.119 1143.99 321.17 1149.21C317.972 1150.74 315.757 1154.68 311.698 1154.74C314.773 1147.12 322.954 1140.67 328.12 1135.57C338.515 1125.43 347.372 1115.48 357.767 1105.52C359.551 1104.48 361.396 1103.5 363.18 1102.45C374.129 1093.42 387.722 1079.41 391.905 1060.67C386.677 1054.16 379.418 1055.51 372.222 1058.15C357.767 1063.44 344.113 1069.34 329.043 1074.07C325.968 1076.03 322.892 1078 319.817 1079.96C315.511 1081.32 311.267 1082.73 306.962 1084.08C296.69 1088.87 286.172 1094.77 275.838 1099.44C268.826 1102.57 261.199 1104.05 254.064 1107.06C249.205 1109.09 244.469 1113.76 239.548 1115.48C233.028 1117.69 227.861 1121.25 221.895 1124.08C205.103 1131.88 190.095 1140.48 174.042 1149.15C167.46 1152.71 159.833 1154.86 153.621 1158.92C153.498 1158.92 153.436 1158.92 153.313 1158.85C156.758 1152.77 163.77 1149.82 168.444 1145.28L168.321 1145.52Z" fill="#0269D9"/>
<path fill-rule="evenodd" clip-rule="evenodd" d="M1335.88 353.191C1298.43 408.953 1387.86 358.944 1403.15 382.375C1412.16 396.243 1385.88 439.169 1356.16 466.107C1325.81 493.682 1291.48 508.775 1258.25 527.142C1160.75 580.968 1074.54 596.627 1030.44 589.287C983.555 581.455 992.705 547.444 1021.47 492.253C1022.95 489.45 1024.29 486.678 1025.64 483.972C1101.16 402.044 1213.25 404.084 1194.56 358.95C1145.81 366.413 1199.6 238.705 1308.45 195.045C1375.5 169.875 1431.58 159.613 1452.58 175.045C1466.63 185.367 1449.48 222.614 1477.64 221.543C1496.35 220.795 1518.38 217.598 1542.35 211.775C1549.57 210.057 1611.99 194.824 1566.64 232.024C1540.17 253.779 1511.54 248.757 1487.74 252.217C1448.12 258.019 1371.78 305.464 1343.04 343.172C1340.26 346.765 1337.91 350.05 1335.92 353.042L1335.88 353.191Z" fill="#0269D9"/>
</svg>
