<svg width="2150" height="2004" viewBox="0 0 1340 2004" fill="none" xmlns="http://www.w3.org/2000/svg">
<path fill-rule="evenodd" clip-rule="evenodd" d="M1282.83 217.705C1315.33 167.51 1241.05 217.513 1229.67 199.204C1222.92 188.365 1245.88 149.939 1270.99 124.595C1296.6 98.7128 1324.91 82.9438 1352.47 64.5359C1433.41 10.5596 1503.62 -10.3288 1538.89 -8.14255C1576.46 -5.8082 1567.64 23.6396 1542.28 72.5805C1540.98 75.0879 1539.82 77.4761 1538.6 79.8996C1474.33 155.521 1383.92 163.885 1397.21 200.089C1436.84 189.484 1388.33 301.605 1298.71 348.067C1243.53 375.215 1197.83 388.916 1181.55 377.808C1170.62 370.365 1185.91 337.511 1163.19 340.972C1148.05 343.246 1130.08 347.929 1110.54 354.994C1104.64 357.095 1053.62 375.498 1091.74 340.147C1113.97 319.533 1136.9 321.111 1156.26 316.074C1188.46 307.678 1252.01 260.876 1276.75 226.661C1279.14 223.358 1281.17 220.425 1282.88 217.718L1282.83 217.705Z" fill="#FF1100"/>
<path fill-rule="evenodd" clip-rule="evenodd" d="M28.4056 1170.76C46.4261 1159.51 63.337 1147.07 81.1791 1135.84C89.0034 1130.92 95.6453 1123.42 102.708 1118.14C132.173 1096.13 151.915 1066.65 175.082 1040.21C176.324 1038.04 177.567 1035.84 178.773 1033.67C184.899 1026.57 190.633 1018.11 195.082 1009.83C196.449 1007.27 199.948 998.877 202.205 997.644C206.79 995.18 214.891 995.371 219.328 995.166C223.253 994.583 227.18 993.963 231.07 993.377C236.526 993.33 241.776 991.041 245.531 989.599C251.777 987.218 257.053 986.524 262.988 983.986C267.493 981.696 272.001 979.37 276.507 977.079C286.438 972.509 295.101 969.965 304.267 965.108C309.178 962.519 314.365 958.633 319.565 955.917C322.634 954.724 325.74 953.532 328.808 952.374C331.242 951.15 333.354 949.271 335.535 948.14C337.236 947.41 338.937 946.68 340.638 945.95C349.211 939.506 358.778 933.713 368.243 927.844C373.104 924.828 377.026 920.029 381.472 916.815C385.182 914.13 388.657 912.639 392.334 909.917C397.775 905.903 402.533 900.685 407.564 896.366C414.782 890.102 422.343 884.776 429.786 878.984C435.035 873.862 440.32 868.706 445.569 863.584C447.278 861.26 448.99 858.902 450.734 856.58C462.496 845.123 472.284 830.629 479.497 815.935C480.519 814.605 481.508 813.237 482.53 811.907C486.453 804.239 490.354 797.031 494.21 789.289C495.552 787.231 496.859 785.171 498.201 783.113C500.668 775.514 503.116 767.597 505.863 760.083C505.753 757.315 505.641 754.582 505.531 751.814C509.547 748.685 518.072 749.605 522.265 747.193C536.194 739.173 548.881 726.912 555.346 713.704C556.937 710.206 558.526 706.744 560.117 703.246C560.796 700.269 561.439 697.326 562.118 694.349C563.762 690.499 565.961 685.438 566.639 681.08C567.252 677.285 567.691 666.328 569.941 664.527C570.264 663.02 569.058 663.066 569.177 661.372C569.543 660.434 569.873 659.494 570.238 658.556C569.904 657.442 569.57 656.327 569.236 655.213C569.465 652.745 569.728 650.314 569.957 647.846C568.949 643.192 567.94 638.538 566.897 633.881C559.298 615.759 556.143 598.743 544.373 586.86C536.279 578.701 514.663 573.234 498.599 579.341C491.703 581.973 486.572 586.145 480.491 588.782C473.104 592.027 467.526 594.512 461.765 598.546C460.282 599.181 458.764 599.778 457.245 600.411C450.567 604.364 443.002 608.344 438.033 613.551C431.156 620.788 426.608 631.046 418.136 636.893C413.826 637.387 410.276 634.696 406.482 634.082C400.546 633.078 395.441 634.595 389.027 634.666C385.484 634.702 379.898 633.787 375.781 635.388C360.174 641.553 342.464 647.968 327.388 654.868C322.712 657.009 317.726 661.117 313.316 663.625C302.745 669.651 293.37 674.426 283.538 680.56C281.832 682.105 280.125 683.649 278.421 685.158C267.154 691.646 258.049 700.259 248.107 707.875C246.154 710.116 244.201 712.356 242.248 714.596C233.613 722.986 225.47 730.762 217.59 739.65C216.091 742.019 214.592 744.388 213.128 746.759C207.438 752.922 201.958 759.131 196.344 765.191C194.801 767.735 193.259 770.244 191.716 772.788C189.187 775.921 186.367 778.507 184.283 781.946C181.193 787.104 178.497 792.177 175.541 797.484C174.766 798.118 174.026 798.754 173.249 799.424C171.119 801.655 169.975 804.715 168.492 807.475C167.515 808.595 166.539 809.715 165.562 810.836C165.183 812.056 164.802 813.312 164.457 814.535C162.37 818.044 160.248 821.551 158.161 825.059C157.013 828.19 155.868 831.285 154.72 834.415C153.422 836.299 152.158 838.219 150.86 840.103C149.36 845.341 147.824 850.577 146.326 855.78C145.616 857.232 144.908 858.649 144.198 860.101C143.45 863.039 143.755 866.879 141.505 868.679C140.207 869.146 139.205 867.928 137.677 868.029C130.89 868.47 122.403 870.35 116.392 872.991C100.967 879.767 87.8479 888.606 76.4247 898.238C75.5239 898.548 74.6248 898.822 73.724 899.131C72.9364 900.013 72.1152 900.857 71.3275 901.739C69.5083 902.711 67.7244 903.685 65.9052 904.657C63.8671 906.468 61.8644 908.281 59.8263 910.092C56.4193 912.366 53.1182 913.937 49.9497 916.401C47.6398 918.694 45.3298 920.988 43.0198 923.281C39.9556 925.785 36.6615 927.215 33.8358 929.908C31.7907 931.86 29.7405 934.627 27.524 936.465C24.8272 938.704 21.7556 939.932 19.3025 942.254C10.935 950.267 3.79372 959.97 -4.06323 968.398C-8.29105 972.934 -12.8688 976.673 -17.2362 981.166C-21.2698 985.357 -24.5101 989.977 -29.0631 993.93C-30.8025 996.145 -32.5402 998.326 -34.2796 1000.54C-35.2263 1001.06 -36.1377 1001.58 -37.0844 1002.1C-39.1947 1004.65 -41.3403 1007.2 -43.4506 1009.75C-53.7782 1020.86 -66.2019 1034.94 -73.2716 1048.19C-79.326 1059.54 -83.0201 1071.86 -88.9739 1083.32C-91.1297 1087.5 -93.9636 1092.49 -95.3633 1097.13C-97.1442 1103.03 -98.0737 1108.9 -100.51 1114.44C-103.942 1122.21 -107.805 1131.51 -109.721 1140.12C-111.27 1147.06 -110.93 1153.02 -112.347 1159.44C-115.969 1176.01 -106.012 1195.84 -93.4877 1201.81C-77.1583 1209.6 -48.8426 1205.7 -28.3289 1197.01C-8.43167 1188.62 11.3317 1181.49 28.3649 1170.86L28.4056 1170.76Z" fill="#FF1100"/>
<path fill-rule="evenodd" clip-rule="evenodd" d="M962.32 1771.74C972.408 1761.97 980.65 1751.96 990.799 1742.68C1001.13 1733.28 1014.05 1725.6 1024.32 1716.08C1043.57 1698.2 1064.61 1683.7 1084.41 1667.11C1127.47 1631.11 1170.77 1596.21 1214.2 1560.51C1222.07 1554.49 1230.01 1548.47 1237.88 1542.45C1250.98 1531.26 1264.51 1520.45 1278.6 1510.68C1280.26 1509.51 1282.96 1509.27 1284.56 1508.04C1286.53 1506.57 1295.2 1498.46 1296.31 1496.8C1296.74 1495.75 1297.23 1494.71 1297.66 1493.66C1300.49 1490.65 1304.8 1487.4 1307.69 1484.51C1308.31 1482.79 1308.92 1481.07 1309.54 1479.35C1312.61 1474.55 1322.15 1463.93 1316.79 1456.74C1314.09 1453.11 1306.34 1450.1 1299.94 1450.22C1285.36 1450.47 1272.63 1453.48 1258.67 1455.69C1243.48 1458.09 1228.96 1463.5 1214.69 1467.37C1174.65 1478.18 1136.27 1490.65 1099.05 1505.58C1071.81 1516.52 1045.73 1529.97 1018.54 1540.66C1008.08 1544.78 998.303 1551.72 987.908 1556.45C983.848 1559.1 979.789 1561.8 975.668 1564.44C964.473 1570.4 953.279 1576.36 942.023 1582.32C938.763 1584.53 935.564 1586.81 932.304 1589.02C915.758 1597.07 899.705 1606.84 884.635 1617.28C875.224 1623.79 864.768 1628.52 855.603 1635.59C852.097 1637.56 848.591 1639.52 845.147 1641.49C828.047 1655.07 808.057 1664.77 790.773 1678.11C784.93 1681.61 779.086 1685.11 773.305 1688.61C760.142 1699.67 745.503 1709.07 732.155 1719.64C710.074 1737.15 689.407 1755.46 668.187 1774.26C662.651 1779.12 655.454 1783.23 650.165 1788.33C636.756 1801.36 623.962 1814.14 610.184 1826.18C609.753 1827.53 609.323 1828.88 608.892 1830.23C599.666 1840.13 588.718 1848.67 580.66 1860.95C578.815 1863.72 580.598 1865.87 579.184 1868.39C576.17 1872.32 573.156 1876.31 570.081 1880.25C565.344 1886.94 563.684 1893.21 559.255 1900.77C555.995 1906.3 550.89 1912.13 549.045 1919.88C548.676 1921.78 548.368 1923.68 547.999 1925.53C547.999 1930.26 549.475 1939.97 552.182 1943.35C562.084 1955.76 573.771 1955.51 588.164 1952.25C593.761 1950.96 599.482 1951.33 604.464 1949.31C617.996 1943.78 631.035 1930.32 642.23 1920.55C645.182 1918.77 648.073 1916.93 651.026 1915.14C658.714 1908.08 667.694 1902.92 675.075 1895.61C679.012 1893.03 682.949 1890.45 686.947 1887.8C694.635 1880.49 703.185 1874.96 710.997 1868.27C722.745 1858.13 733.816 1848.24 745.38 1838.1C751.162 1833.06 759.158 1829.68 764.817 1824.64C767.892 1821.94 769.86 1818.5 773.12 1816.04C793.418 1800.31 815.438 1785.81 835.182 1769.41C847.607 1759.09 859.724 1749.69 871.595 1738.5C879.161 1731.38 889.371 1726.64 897.244 1720.01C903.518 1714.73 913.975 1704.28 921.725 1702.44C921.848 1702.44 921.909 1702.44 922.032 1702.5C920.249 1706.12 917.296 1707.29 914.959 1709.87C910.284 1714.97 906.594 1720.13 901.796 1724.49C898.782 1728.43 895.768 1732.42 892.693 1736.35C885.25 1743.79 877.377 1751.59 869.873 1758.66C868.089 1761.24 866.367 1763.82 864.583 1766.46C858.678 1772.48 852.097 1779.85 846.131 1786.06C844.654 1788.33 843.178 1790.54 841.702 1792.82C821.158 1814.14 798.523 1835.52 781.485 1861.75C772.198 1876.01 745.749 1917.11 760.818 1933.88C782.777 1958.34 816.361 1926.82 833.829 1918.52C881.129 1896.1 923.508 1864.64 972.162 1844.24C977.267 1841.11 982.434 1837.98 987.539 1834.78C992.767 1830.85 1001.69 1827.41 1008.02 1825.01C1014.11 1822.74 1020.81 1815.61 1027.83 1815.37C1027.83 1815.67 1027.83 1815.98 1027.89 1816.35C1006.67 1844.55 982.741 1869.62 961.152 1896.84C957.646 1901.26 946.205 1919.26 946.759 1927.06C947.066 1931.36 950.572 1935.67 952.294 1939.29C952.909 1939.41 953.463 1939.6 954.078 1939.72C961.09 1935.3 969.394 1932.41 976.959 1928.97C986.247 1924.67 994.797 1919.02 1004.39 1914.9C1008.76 1912.2 1013.19 1909.49 1017.56 1906.79C1023.4 1903.72 1029.24 1900.64 1035.08 1897.57C1040.87 1893.95 1046.59 1890.32 1052.37 1886.7C1053.97 1886.14 1055.57 1885.59 1057.17 1885.04C1062.7 1881.48 1068.24 1876.93 1074.14 1874.1C1109.26 1857.21 1144.75 1840.62 1179.94 1823.54C1190.02 1818.62 1199.99 1812.97 1210.2 1807.99C1211.37 1807.01 1212.54 1806.03 1213.71 1805.1C1222.44 1801.3 1231.05 1798.1 1239.54 1793.8C1245.57 1790.73 1250.67 1786.86 1257.13 1784.28C1266.73 1780.47 1274.72 1772.05 1284.75 1769.35C1285.12 1769.47 1285.55 1769.53 1285.92 1769.65C1283.46 1772.42 1279.27 1774.14 1276.01 1775.74C1270.17 1778.56 1263.9 1783.72 1257.99 1787.04C1250.73 1792.51 1243.54 1797.92 1236.28 1803.38C1230.93 1807.62 1223.92 1810.51 1218.56 1814.75C1196.61 1832.32 1172.68 1846.76 1150.6 1864.03C1144.88 1868.51 1137.87 1871.89 1132.33 1876.5C1115.05 1891 1097.89 1907.59 1082.14 1923.19C1068.24 1936.89 1054.09 1953.79 1044.43 1973.76C1041.91 1978.92 1035.76 1993.42 1039.51 1998.15C1047.33 2007.98 1067.87 2001.04 1076.42 1997.9C1081.89 1995.94 1087.31 1995.26 1093.09 1993.48C1094.93 1992.38 1096.72 1991.21 1098.56 1990.1C1100.35 1989.98 1102.13 1989.92 1103.91 1989.79C1107.66 1988.01 1111.42 1986.17 1115.23 1984.39C1121.69 1982.18 1127.78 1980.21 1134.24 1978C1146.42 1973.82 1157.67 1965.83 1171.02 1963.99C1172.62 1966.94 1167.94 1970.99 1166.34 1973.14C1160.81 1980.58 1151.09 1991.15 1158.47 1999.63C1164.19 2000.24 1168.62 1994.34 1172.31 1991.39C1181.91 1983.71 1193.65 1977.88 1202.33 1968.9C1208.66 1965.4 1215 1961.96 1221.39 1958.46C1224.29 1956 1227.11 1953.61 1230.01 1951.15C1233.33 1949.55 1236.59 1947.95 1239.91 1946.36C1245.32 1942.79 1250.8 1939.17 1256.21 1935.6C1257.93 1934.87 1259.65 1934.13 1261.44 1933.39C1265.07 1930.81 1268.69 1928.29 1272.32 1925.71C1283.52 1920.86 1295.02 1913.18 1304.8 1905.99C1308.67 1903.16 1311.75 1899.66 1315.69 1897.02C1326.39 1889.89 1336.29 1881.78 1346.5 1873.8C1349.39 1871.58 1356.71 1867.34 1356.47 1862.12C1355.85 1859.97 1352.16 1856.9 1349.21 1857.27C1338.08 1858.56 1327.25 1860.28 1315.75 1861.45L1311.63 1862.98C1310.46 1862.67 1309.29 1862.43 1308.06 1862.12C1285.55 1866.24 1262.11 1872.93 1241.51 1880.55C1234.68 1882.27 1227.79 1883.93 1220.9 1885.65C1212.6 1888.73 1203.99 1891.67 1195.31 1894.81C1190.39 1896.59 1186.21 1899.78 1180.74 1901.01C1180.8 1900.71 1180.86 1900.4 1180.92 1900.15C1182.77 1898 1184.12 1898.68 1186.27 1897.39C1196.98 1890.81 1205.89 1882.52 1217.58 1877.42C1223.36 1874.9 1230.13 1867.34 1235.73 1864.27C1244.71 1859.3 1253.75 1854.63 1262.48 1849.1C1267.65 1845.84 1272.75 1842.58 1277.92 1839.39C1283.21 1836.99 1287.27 1833.55 1292.19 1830.6C1294.22 1829.62 1296.19 1828.64 1298.22 1827.65C1305.78 1822.68 1313.29 1817.76 1320.85 1812.78C1322.27 1812.42 1323.74 1812.05 1325.16 1811.62C1338.57 1801.85 1352.78 1794.17 1366.92 1785.69C1375.1 1780.84 1382.42 1774.94 1391.1 1770.88C1398.85 1765.78 1406.66 1760.68 1414.41 1755.52C1436.06 1745.2 1455.99 1731.01 1476.35 1718.53C1484.59 1713.5 1493.57 1710.18 1502.43 1706.06C1513.74 1700.84 1524.26 1694.82 1535.95 1690.03C1541.73 1686.65 1547.57 1683.21 1553.36 1679.83C1562.58 1675.59 1571.81 1671.35 1581.1 1667.11C1605.39 1656.79 1629.5 1647.14 1654.17 1637.13C1664.75 1632.83 1675.27 1626.56 1686.28 1622.93C1694.33 1620.29 1717.09 1610.09 1713.65 1596.08C1712.72 1592.34 1700.42 1582.87 1694.7 1582.51C1692.18 1583.06 1689.66 1583.61 1687.14 1584.1C1681.72 1584.84 1676.56 1584.04 1671.39 1584.72C1632.03 1589.82 1593.64 1595.9 1556.37 1604.69C1495.85 1618.94 1436.37 1635.96 1378.43 1655.5C1330.02 1671.84 1283.52 1693.34 1236.46 1712.39C1221.89 1718.29 1207.86 1726.77 1193.65 1733.34C1177.72 1740.78 1161.55 1748.58 1146.6 1757.67C1136.33 1763.94 1126.12 1770.21 1115.17 1775.43C1111.97 1776.96 1109.76 1780.9 1105.7 1780.96C1108.77 1773.34 1116.95 1766.89 1122.12 1761.79C1132.51 1751.65 1141.37 1741.7 1151.77 1731.74C1153.55 1730.7 1155.4 1729.72 1157.18 1728.67C1168.13 1719.64 1181.72 1705.63 1185.9 1686.89C1180.68 1680.38 1173.42 1681.73 1166.22 1684.37C1151.77 1689.66 1138.11 1695.56 1123.04 1700.29C1119.97 1702.25 1116.89 1704.22 1113.82 1706.19C1109.51 1707.54 1105.27 1708.95 1100.96 1710.3C1090.69 1715.09 1080.17 1720.99 1069.84 1725.66C1062.83 1728.8 1055.2 1730.27 1048.06 1733.28C1043.2 1735.31 1038.47 1739.98 1033.55 1741.7C1027.03 1743.91 1021.86 1747.47 1015.89 1750.3C999.102 1758.1 984.094 1766.7 968.041 1775.37C961.459 1778.93 953.832 1781.08 947.62 1785.14C947.497 1785.14 947.435 1785.14 947.312 1785.07C950.757 1778.99 957.769 1776.04 962.443 1771.5L962.32 1771.74Z" fill="#FF1100"/>
</svg>
