<svg width="1240" height="817" viewBox="0 0 1440 1917" fill="none" xmlns="http://www.w3.org/2000/svg">
<path fill-rule="evenodd" clip-rule="evenodd" d="M1111.62 1264.02C1119.27 1256.07 1125.46 1247.97 1133.17 1240.4C1141.02 1232.74 1150.95 1226.35 1158.75 1218.59C1173.36 1204.01 1189.47 1192.05 1204.55 1178.47C1237.35 1149.01 1270.37 1120.4 1303.46 1091.17C1309.47 1086.23 1315.53 1081.28 1321.54 1076.33C1331.52 1067.19 1341.84 1058.32 1352.62 1050.26C1353.89 1049.3 1356.01 1049.03 1357.23 1048.03C1358.73 1046.81 1365.31 1040.2 1366.14 1038.87C1366.45 1038.04 1366.81 1037.2 1367.11 1036.37C1369.25 1033.93 1372.54 1031.25 1374.73 1028.9C1375.17 1027.53 1375.6 1026.17 1376.04 1024.8C1378.32 1020.95 1385.51 1012.33 1381.12 1006.83C1378.9 1004.05 1372.74 1001.89 1367.73 1002.16C1356.3 1002.75 1346.4 1005.46 1335.51 1007.57C1323.66 1009.86 1312.42 1014.5 1301.33 1017.93C1270.22 1027.51 1240.45 1038.35 1211.67 1051.09C1190.6 1060.42 1170.51 1071.7 1149.47 1080.84C1141.38 1084.36 1133.9 1090.08 1125.88 1094.08C1122.76 1096.27 1119.65 1098.5 1116.49 1100.69C1107.87 1105.68 1099.26 1110.66 1090.59 1115.65C1088.09 1117.48 1085.64 1119.35 1083.15 1121.18C1070.39 1127.95 1058.06 1136.06 1046.53 1144.68C1039.32 1150.05 1031.25 1154.05 1024.25 1159.86C1021.55 1161.5 1018.86 1163.14 1016.21 1164.77C1003.17 1175.91 987.75 1184.08 974.555 1195.03C970.067 1197.94 965.578 1200.85 961.138 1203.76C951.114 1212.81 939.887 1220.59 929.704 1229.26C912.859 1243.62 897.145 1258.57 881.01 1273.92C876.8 1277.89 871.267 1281.32 867.256 1285.47C857.092 1296.07 847.403 1306.46 836.923 1316.3C836.621 1317.37 836.32 1318.45 836.019 1319.52C829.05 1327.55 820.694 1334.56 814.707 1344.43C813.334 1346.66 814.791 1348.3 813.75 1350.32C811.492 1353.49 809.236 1356.71 806.931 1359.89C803.397 1365.28 802.264 1370.25 798.995 1376.31C796.587 1380.75 792.741 1385.47 791.503 1391.61C791.265 1393.11 791.075 1394.62 790.836 1396.08C790.963 1399.8 792.383 1407.39 794.597 1409.97C802.699 1419.46 811.858 1418.96 823.058 1416.01C827.413 1414.84 831.909 1414.98 835.761 1413.25C846.225 1408.54 856.088 1397.61 864.604 1389.63C866.871 1388.15 869.089 1386.62 871.356 1385.14C877.195 1379.38 884.099 1375.08 889.69 1369.13C892.708 1367 895.725 1364.86 898.79 1362.68C904.622 1356.72 911.178 1352.15 917.124 1346.67C926.064 1338.38 934.479 1330.31 943.275 1322.03C947.673 1317.91 953.853 1315.04 958.155 1310.93C960.494 1308.72 961.945 1305.96 964.435 1303.94C979.929 1291.03 996.807 1279.04 1011.85 1265.61C1021.31 1257.16 1030.56 1249.44 1039.57 1240.33C1045.31 1234.52 1053.19 1230.53 1059.19 1225.1C1063.97 1220.78 1071.89 1212.29 1077.91 1210.63C1078.01 1210.62 1078.06 1210.62 1078.16 1210.67C1076.86 1213.57 1074.57 1214.56 1072.81 1216.65C1069.28 1220.79 1066.52 1224.95 1062.88 1228.5C1060.62 1231.68 1058.37 1234.9 1056.06 1238.07C1050.42 1244.12 1044.46 1250.46 1038.77 1256.22C1037.44 1258.3 1036.16 1260.37 1034.83 1262.5C1030.36 1267.39 1025.4 1273.36 1020.89 1278.4C1019.79 1280.23 1018.69 1282.01 1017.59 1283.83C1002.06 1301.15 984.884 1318.57 972.23 1339.65C965.331 1351.11 945.698 1384.13 957.969 1396.91C975.851 1415.55 1001.34 1389.86 1014.81 1382.87C1051.31 1363.97 1083.69 1338.1 1121.3 1320.75C1125.22 1318.15 1129.19 1315.55 1133.1 1312.9C1137.1 1309.66 1144 1306.72 1148.9 1304.66C1153.62 1302.71 1158.68 1296.93 1164.18 1296.55C1164.18 1296.79 1164.19 1297.03 1164.25 1297.32C1148.37 1320.06 1130.28 1340.41 1114.08 1362.39C1111.45 1365.96 1102.97 1380.42 1103.61 1386.54C1103.97 1389.92 1106.84 1393.2 1108.28 1396.01C1108.77 1396.09 1109.21 1396.22 1109.7 1396.3C1115.08 1392.63 1121.51 1390.14 1127.35 1387.23C1134.52 1383.6 1141.07 1378.92 1148.48 1375.43C1151.84 1373.18 1155.24 1370.94 1158.59 1368.7C1163.09 1366.12 1167.59 1363.55 1172.09 1360.98C1176.52 1357.97 1180.91 1354.97 1185.35 1351.96C1186.59 1351.49 1187.83 1351.01 1189.07 1350.53C1193.31 1347.58 1197.53 1343.86 1202.09 1341.48C1229.17 1327.25 1256.56 1313.25 1283.69 1298.87C1291.47 1294.74 1299.13 1290.03 1307.01 1285.84C1307.9 1285.03 1308.79 1284.23 1309.68 1283.47C1316.43 1280.24 1323.09 1277.5 1329.63 1273.89C1334.28 1271.31 1338.18 1268.13 1343.17 1265.93C1350.6 1262.68 1356.64 1255.84 1364.43 1253.45C1364.72 1253.53 1365.06 1253.57 1365.35 1253.66C1363.5 1255.9 1360.27 1257.36 1357.75 1258.71C1353.25 1261.09 1348.46 1265.31 1343.92 1268.08C1338.38 1272.57 1332.88 1277.02 1327.34 1281.51C1323.25 1284.99 1317.83 1287.45 1313.75 1290.93C1297 1305.33 1278.63 1317.33 1261.78 1331.49C1257.41 1335.18 1252 1338.02 1247.79 1341.79C1234.62 1353.66 1221.61 1367.16 1209.68 1379.85C1199.15 1391 1188.51 1404.66 1181.48 1420.62C1179.64 1424.75 1175.21 1436.31 1178.28 1439.93C1184.67 1447.45 1200.59 1441.44 1207.21 1438.74C1211.45 1437.05 1215.68 1436.37 1220.17 1434.82C1221.59 1433.9 1222.95 1432.93 1224.37 1432.01C1225.77 1431.87 1227.16 1431.77 1228.56 1431.63C1231.45 1430.12 1234.35 1428.57 1237.29 1427.07C1242.29 1425.16 1247.02 1423.45 1252.02 1421.54C1261.46 1417.92 1270.07 1411.34 1280.49 1409.53C1281.82 1411.81 1278.27 1415.12 1277.07 1416.85C1272.93 1422.85 1265.59 1431.42 1271.61 1437.88C1276.12 1438.21 1279.43 1433.46 1282.24 1431.04C1289.56 1424.74 1298.62 1419.84 1305.18 1412.55C1310.05 1409.63 1314.93 1406.75 1319.85 1403.83C1322.05 1401.82 1324.2 1399.86 1326.41 1397.85C1328.97 1396.5 1331.48 1395.16 1334.04 1393.81C1338.19 1390.87 1342.39 1387.87 1346.54 1384.92C1347.87 1384.3 1349.2 1383.67 1350.58 1383.04C1353.35 1380.92 1356.13 1378.84 1358.91 1376.71C1367.56 1372.59 1376.37 1366.25 1383.85 1360.33C1386.81 1358 1389.13 1355.17 1392.14 1352.99C1400.34 1347.09 1407.89 1340.45 1415.68 1333.9C1417.89 1332.08 1423.52 1328.55 1423.18 1324.45C1422.64 1322.78 1419.66 1320.46 1417.36 1320.83C1408.66 1322.15 1400.22 1323.79 1391.23 1325.02L1388.04 1326.34C1387.11 1326.13 1386.19 1325.96 1385.22 1325.76C1367.67 1329.6 1349.47 1335.49 1333.52 1342.04C1328.21 1343.58 1322.85 1345.07 1317.5 1346.6C1311.07 1349.24 1304.39 1351.79 1297.68 1354.49C1293.87 1356.02 1290.67 1358.65 1286.41 1359.76C1286.45 1359.52 1286.49 1359.27 1286.53 1359.08C1287.92 1357.34 1289 1357.83 1290.66 1356.76C1298.87 1351.31 1305.64 1344.54 1314.67 1340.22C1319.14 1338.08 1324.24 1331.96 1328.55 1329.39C1335.45 1325.24 1342.42 1321.33 1349.12 1316.74C1353.08 1314.04 1357 1311.35 1360.97 1308.7C1365.05 1306.67 1368.14 1303.86 1371.92 1301.4C1373.49 1300.58 1375 1299.75 1376.57 1298.92C1382.37 1294.81 1388.12 1290.74 1393.92 1286.62C1395.02 1286.3 1396.17 1285.97 1397.26 1285.59C1407.52 1277.55 1418.45 1271.13 1429.32 1264.08C1435.6 1260.05 1441.18 1255.21 1447.88 1251.79C1453.82 1247.57 1459.81 1243.35 1465.74 1239.09C1482.45 1230.39 1497.69 1218.69 1513.32 1208.34C1519.65 1204.16 1526.6 1201.31 1533.44 1197.83C1542.17 1193.42 1550.26 1188.41 1559.3 1184.32C1563.74 1181.51 1568.23 1178.65 1572.67 1175.84C1579.79 1172.25 1586.92 1168.67 1594.09 1165.09C1612.86 1156.32 1631.51 1148.09 1650.58 1139.55C1658.77 1135.88 1666.85 1130.67 1675.38 1127.53C1681.63 1125.23 1699.2 1116.6 1696.12 1105.68C1695.3 1102.76 1685.4 1095.65 1680.9 1095.52C1678.94 1096.02 1676.97 1096.52 1675.01 1096.98C1670.78 1097.7 1666.71 1097.21 1662.68 1097.89C1631.94 1102.95 1602 1108.77 1573.01 1116.68C1525.92 1129.52 1479.74 1144.5 1434.82 1161.42C1397.3 1175.57 1361.41 1193.73 1325.02 1209.97C1313.75 1215 1302.98 1222.05 1292.01 1227.6C1279.72 1233.87 1267.24 1240.44 1255.77 1247.99C1247.88 1253.2 1240.04 1258.4 1231.6 1262.8C1229.13 1264.09 1227.5 1267.24 1224.32 1267.4C1226.52 1261.33 1232.77 1256.04 1236.68 1251.89C1244.56 1243.64 1251.24 1235.57 1259.12 1227.47C1260.49 1226.6 1261.91 1225.78 1263.28 1224.91C1271.62 1217.51 1281.91 1206.13 1284.68 1191.29C1280.41 1186.31 1274.75 1187.57 1269.18 1189.84C1257.98 1194.38 1247.43 1199.39 1235.74 1203.51C1233.38 1205.14 1231.03 1206.77 1228.67 1208.4C1225.33 1209.58 1222.04 1210.8 1218.7 1211.98C1210.77 1216.03 1202.68 1220.95 1194.7 1224.9C1189.29 1227.55 1183.34 1228.91 1177.83 1231.47C1174.07 1233.2 1170.49 1236.99 1166.67 1238.48C1161.62 1240.39 1157.66 1243.33 1153.06 1245.72C1140.1 1252.3 1128.56 1259.47 1116.21 1266.71C1111.14 1269.69 1105.22 1271.59 1100.46 1274.94C1100.36 1274.95 1100.31 1274.95 1100.21 1274.9C1102.75 1270.03 1108.17 1267.52 1111.71 1263.82L1111.62 1264.02Z" fill="#0269D9"/>
<path fill-rule="evenodd" clip-rule="evenodd" d="M552.932 547.348C541.481 550.78 530.756 553.535 520.465 558.416C516.745 560.156 511.817 563.201 507.855 564.506C505.826 564.989 503.748 565.424 501.671 565.908C500.463 566.826 499.255 567.744 498.047 568.662C496.743 568.856 495.438 569.049 494.134 569.194C484.133 574.366 472.972 580.649 462.488 584.66C454.613 587.657 448.042 590.46 440.07 593.215C437.655 594.761 435.239 596.356 432.775 597.903C426.059 600.658 420.552 603.703 414.561 606.216C404.56 610.372 395.863 615.35 386.828 619.749C382.287 621.924 377.745 622.89 373.397 625.548C360.739 633.33 348.177 642.126 334.166 648.506C327.596 645.703 326.146 639.419 317.933 637.438C315.227 637.535 312.522 637.631 309.816 637.728C293.631 637.728 279.475 640.676 266.382 644.929C224.494 658.414 189.031 676.006 155.211 697.707C144.872 704.328 135.451 711.143 125.788 718.151C118.831 723.177 110.762 726.851 105.883 733.907C105.593 734.004 105.303 734.1 105.061 734.197C101.003 727.769 87.137 723.371 76.218 724.821C74.3338 725.352 72.4978 725.932 70.6136 726.464C60.9991 724.579 53.752 731.635 46.7948 735.84C32.3973 744.588 18.5312 752.515 4.52014 761.553C-1.03598 765.129 -6.39886 769.769 -12.583 772.862C-14.8055 775.085 -17.0762 777.26 -19.2987 779.483C-21.9076 781.707 -25.1447 782.722 -27.9952 784.752C-29.6862 786.588 -31.3771 788.425 -33.0198 790.261C-43.6489 798.864 -52.9252 808.531 -62.9745 817.617C-88.5809 840.623 -114.574 865.32 -132.691 895.527C-141.775 910.655 -146.896 926.797 -153.998 943.907C-159.119 956.279 -165.014 970.44 -167.719 984.795C-168.106 986.873 -170.231 988.42 -170.811 990.063C-173.855 998.521 -174.628 1006.35 -178.107 1014.66C-183.276 1026.94 -190.33 1038.1 -191.006 1054.44C-194.195 1055.36 -197.336 1056.28 -200.524 1057.2C-205.935 1060.34 -211.347 1063.48 -216.758 1066.57C-223.763 1071.31 -230.286 1077.74 -235.504 1084.26C-238.886 1088.47 -244.248 1091.51 -247.534 1095.86C-257.486 1109.05 -264.782 1122.2 -272.174 1138.15C-274.831 1143.85 -278.938 1149.7 -281.402 1155.55C-283.528 1160.58 -285.895 1166.62 -287.006 1171.6C-287.489 1175.03 -287.924 1178.41 -288.407 1181.84C-289.18 1184.5 -291.499 1188.12 -292.321 1190.69C-294.302 1196.68 -292.417 1203.11 -294.012 1210.31C-295.22 1215.72 -296.089 1221.04 -295.993 1228.29C-293.142 1234.76 -292.611 1241.82 -289.567 1248.44C-286.33 1255.5 -269.082 1269.08 -261.835 1273.04C-259.419 1273.43 -257.003 1273.77 -254.539 1274.15C-253.235 1274.88 -251.93 1275.6 -250.626 1276.38C-246.809 1277.63 -241.978 1277.49 -238.886 1278.6H-222.362C-211.733 1280.44 -198.688 1275.51 -189.315 1273.09C-182.745 1271.4 -177.044 1270.77 -170.57 1269.76C-168.444 1268.84 -166.27 1267.92 -164.144 1267C-153.418 1263.67 -143.127 1261.59 -133.609 1256.75C-127.715 1253.76 -122.401 1248.15 -117.086 1244.58C-114.381 1242.74 -112.061 1242.5 -109.791 1240.42C-105.587 1241.19 -102.399 1244.67 -97.4707 1245.69C-91.4314 1246.9 -83.1697 1245.49 -77.8552 1244.58C-70.7047 1243.37 -63.1194 1244.09 -56.0173 1242.35C-48.8185 1240.61 -41.3298 1236.21 -35.2906 1232.98C-33.1648 1232.35 -30.9906 1231.67 -28.8648 1231.04C-25.4345 1229.01 -21.9559 1226.98 -18.5256 1224.95C-16.6414 1224.32 -14.8055 1223.65 -12.9212 1223.02C-7.46173 1219.97 -2.29214 1215.14 2.78082 1211.71C10.3178 1207.12 17.9031 1202.48 25.4884 1197.89C32.4939 1191.17 39.4995 1184.45 46.505 1177.73C53.8487 1171.89 60.9991 1165.36 66.9417 1158.11C72.063 1151.88 79.1652 1147.19 84.5763 1141.24C89.8908 1134.33 95.2054 1127.42 100.52 1120.51C103.226 1114.9 105.931 1109.25 108.637 1103.64C109.458 1099.97 110.328 1096.3 111.149 1092.57C114.048 1088.13 120.087 1083.49 124.29 1080.15C132.89 1073.39 139.606 1064.59 148.399 1057.78C153.037 1054.15 157.047 1049.41 160.719 1044.77C166.324 1037.67 174.15 1032.11 179.755 1024.86C182.46 1022.44 185.166 1020.08 187.872 1017.66C196.085 1007.66 206.617 999.101 213.913 988.371C220.773 978.27 229.518 965.559 232.127 952.171C234.736 938.783 219.614 932.645 228.214 921.481C236.475 910.848 249.134 901.568 260.149 893.594C270.971 884.459 281.794 875.373 292.616 866.238C296.53 862.275 300.443 858.312 304.357 854.349C319.865 842.459 333.49 829.071 349.192 817.327C353.202 813.46 357.212 809.594 361.222 805.727C368.904 800.459 375.136 793.838 382.528 788.328C415.672 763.679 446.496 736.662 478.866 711.24C516.648 681.564 549.55 647.104 588.104 618.395C596.753 611.967 604 602.881 612.744 596.55C628.93 584.902 654.149 560.494 657 536.57C652.217 530.722 645.163 532.124 635.983 530.239C612.599 525.309 582.983 536.28 563.706 542.66C560.082 544.207 556.41 545.802 552.787 547.348H552.932Z" fill="#0269D9"/>
<path fill-rule="evenodd" clip-rule="evenodd" d="M1393.52 235.746C1353.79 294.91 1448.67 241.85 1464.89 266.71C1474.45 281.425 1446.56 326.968 1415.03 355.55C1382.83 384.807 1346.41 400.821 1311.15 420.308C1207.7 477.417 1116.24 494.032 1069.45 486.243C1019.7 477.934 1029.41 441.848 1059.93 383.291C1061.5 380.317 1062.92 377.376 1064.36 374.505C1144.48 287.579 1263.41 289.743 1243.58 241.856C1191.85 249.775 1248.93 114.277 1364.42 67.9536C1435.56 41.2482 1495.05 30.3596 1517.33 46.7328C1532.24 57.6848 1514.05 97.2035 1543.92 96.0675C1563.78 95.2736 1587.15 91.8821 1612.59 85.7035C1620.24 83.8805 1686.46 67.7191 1638.35 107.188C1610.27 130.27 1579.9 124.942 1554.64 128.613C1512.6 134.768 1431.61 185.107 1401.11 225.116C1398.17 228.928 1395.67 232.413 1393.56 235.588L1393.52 235.746Z" fill="#0269D9"/>
</svg>
