<svg width="1440" height="582" viewBox="0 0 1440 582" fill="none" xmlns="http://www.w3.org/2000/svg">
<path fill-rule="evenodd" clip-rule="evenodd" d="M105.949 450.401C86.6686 479.111 132.713 453.363 140.583 465.427C145.224 472.567 131.692 494.669 116.389 508.539C100.762 522.736 83.0883 530.508 65.9802 539.964C15.7763 567.678 -28.6085 575.741 -51.3138 571.961C-75.4555 567.929 -70.7445 550.417 -55.9322 522.001C-55.1731 520.558 -54.483 519.13 -53.785 517.737C-14.9024 475.554 42.8103 476.604 33.1884 453.366C8.08658 457.208 35.7838 391.454 91.8267 368.975C126.349 356.015 155.222 350.731 166.034 358.677C173.27 363.992 164.44 383.169 178.937 382.618C188.573 382.233 199.917 380.587 212.258 377.589C215.975 376.704 248.11 368.861 224.761 388.015C211.135 399.216 196.394 396.63 184.138 398.411C163.739 401.398 124.432 425.827 109.634 445.242C108.205 447.092 106.995 448.783 105.968 450.324L105.949 450.401Z" fill="#0071EB"/>
<path fill-rule="evenodd" clip-rule="evenodd" d="M1657.67 62.3363C1651.58 63.38 1645.92 64.1222 1640.34 65.9809C1638.32 66.6401 1635.61 67.8925 1633.5 68.3138C1632.43 68.4348 1631.33 68.5281 1630.24 68.6461C1629.56 69.0412 1628.89 69.4362 1628.21 69.8313C1627.53 69.8489 1626.85 69.8667 1626.17 69.8596C1620.72 71.8849 1614.61 74.4072 1608.99 75.8082C1604.77 76.852 1601.23 77.8781 1596.97 78.7921C1595.63 79.4337 1594.3 80.1 1592.94 80.7386C1589.32 81.7309 1586.31 82.9471 1583.08 83.8608C1577.7 85.3662 1572.93 87.3738 1568.03 89.0632C1565.57 89.894 1563.18 90.106 1560.78 91.1964C1553.81 94.3928 1546.83 98.1152 1539.25 100.509C1536.06 98.6637 1535.7 95.3549 1531.62 93.8277C1530.23 93.7085 1528.83 93.5893 1527.44 93.4701C1519.15 92.4608 1511.71 93.0882 1504.73 94.4503C1482.43 98.7452 1463.15 105.545 1444.47 114.552C1438.76 117.299 1433.51 120.202 1428.12 123.189C1424.24 125.33 1419.87 126.708 1416.93 130.018C1416.78 130.05 1416.62 130.081 1416.49 130.115C1414.82 126.57 1407.98 123.452 1402.3 123.514C1401.3 123.669 1400.32 123.851 1399.32 124.006C1394.51 122.441 1390.36 125.604 1386.53 127.324C1378.61 130.907 1371.01 134.102 1363.26 137.858C1360.19 139.343 1357.16 141.385 1353.79 142.584C1352.52 143.584 1351.22 144.557 1349.94 145.557C1348.46 146.533 1346.74 146.851 1345.15 147.713C1344.17 148.548 1343.19 149.384 1342.24 150.222C1336.25 153.966 1330.9 158.339 1325.18 162.366C1310.62 172.553 1295.76 183.583 1284.59 197.926C1279 205.108 1275.37 213.058 1270.66 221.378C1267.26 227.397 1263.36 234.283 1261.08 241.467C1260.75 242.507 1259.57 243.167 1259.17 243.972C1257.08 248.115 1256.2 252.077 1253.89 256.118C1250.48 262.084 1246.17 267.363 1244.8 275.688C1243.11 275.96 1241.45 276.234 1239.75 276.506C1236.79 277.778 1233.82 279.049 1230.85 280.296C1226.97 282.286 1223.22 285.171 1220.14 288.188C1218.15 290.131 1215.21 291.356 1213.25 293.38C1207.33 299.517 1202.77 305.796 1197.99 313.505C1196.27 316.26 1193.8 319 1192.18 321.842C1190.77 324.284 1189.18 327.231 1188.3 329.711C1187.84 331.439 1187.41 333.145 1186.95 334.872C1186.39 336.186 1184.97 337.898 1184.39 339.159C1183 342.105 1183.57 345.515 1182.3 349.104C1181.34 351.802 1180.57 354.471 1180.17 358.19C1181.22 361.685 1181.05 365.333 1182.2 368.914C1183.42 372.73 1191.41 380.762 1194.88 383.244C1196.09 383.593 1197.31 383.917 1198.55 384.269C1199.17 384.721 1199.8 385.174 1200.42 385.652C1202.3 386.533 1204.78 386.76 1206.3 387.523L1214.76 388.553C1220.1 390.157 1227.09 388.445 1232.04 387.791C1235.52 387.335 1238.48 387.368 1241.86 387.252C1243 386.914 1244.18 386.58 1245.32 386.242C1251.03 385.203 1256.43 384.78 1261.61 382.898C1264.82 381.73 1267.89 379.19 1270.84 377.689C1272.34 376.917 1273.54 376.938 1274.83 376.015C1276.94 376.674 1278.36 378.655 1280.82 379.482C1283.84 380.478 1288.16 380.275 1290.94 380.136C1294.68 379.963 1298.52 380.807 1302.27 380.359C1306.07 379.917 1310.18 378.131 1313.48 376.849C1314.61 376.659 1315.76 376.448 1316.89 376.259C1318.78 375.433 1320.69 374.61 1322.57 373.785C1323.58 373.58 1324.56 373.348 1325.56 373.144C1328.55 371.925 1331.5 369.771 1334.32 368.33C1338.46 366.448 1342.64 364.544 1346.81 362.666C1350.82 359.661 1354.83 356.657 1358.84 353.653C1362.97 351.115 1367.04 348.219 1370.54 344.876C1373.55 342.002 1377.48 340.044 1380.63 337.336C1383.78 334.127 1386.93 330.918 1390.09 327.71C1391.83 325.007 1393.56 322.279 1395.3 319.576C1395.95 317.746 1396.62 315.918 1397.28 314.063C1399.04 311.966 1402.42 309.967 1404.79 308.52C1409.62 305.591 1413.61 301.504 1418.54 298.562C1421.14 296.994 1423.49 294.818 1425.66 292.671C1428.98 289.381 1433.33 287.022 1436.66 283.658C1438.19 282.589 1439.73 281.544 1441.27 280.475C1446.1 275.863 1452.03 272.138 1456.44 267.097C1460.58 262.351 1465.86 256.385 1468.03 249.69C1470.2 242.995 1462.83 238.908 1467.94 233.726C1472.83 228.795 1479.9 224.831 1486.04 221.433C1492.16 217.429 1498.27 213.45 1504.38 209.446C1506.64 207.66 1508.89 205.874 1511.14 204.088C1519.83 198.965 1527.65 192.957 1536.43 187.92C1538.72 186.19 1541.02 184.459 1543.31 182.729C1547.58 180.509 1551.19 177.506 1555.32 175.145C1573.84 164.586 1591.32 152.67 1609.49 141.666C1630.71 128.822 1649.72 113.223 1671.26 100.921C1676.1 98.1682 1680.38 93.9659 1685.25 91.2682C1694.27 86.3112 1708.72 75.3819 1711.67 63.3053C1709.59 60.0115 1705.88 60.2895 1701.3 58.7516C1689.62 54.7682 1673.76 58.5411 1663.48 60.6068C1661.53 61.1731 1659.55 61.761 1657.59 62.3273L1657.67 62.3363Z" fill="#FFBE00"/>
</svg>
