<svg width="260" height="333" viewBox="0 0 260 333" fill="none" xmlns="http://www.w3.org/2000/svg">
<rect width="260" height="333" fill="#F5F5F5"/>
<g id="DESIGN">
<path d="M-34961.2 -619C-34961.2 -620.105 -34960.3 -621 -34959.2 -621H3810.84C3811.94 -621 3812.84 -620.105 3812.84 -619V21250C3812.84 21251.1 3811.94 21252 3810.84 21252H-34959.2C-34960.3 21252 -34961.2 21251.1 -34961.2 21250V-619Z" fill="#282828"/>
<path d="M-34959.2 -621V-620H3810.84V-621V-622H-34959.2V-621ZM3812.84 -619H3811.84V21250H3812.84H3813.84V-619H3812.84ZM3810.84 21252V21251H-34959.2V21252V21253H3810.84V21252ZM-34961.2 21250H-34960.2V-619H-34961.2H-34962.2V21250H-34961.2ZM-34959.2 21252V21251C-34959.7 21251 -34960.2 21250.6 -34960.2 21250H-34961.2H-34962.2C-34962.2 21251.7 -34960.8 21253 -34959.2 21253V21252ZM3812.84 21250H3811.84C3811.84 21250.6 3811.39 21251 3810.84 21251V21252V21253C3812.49 21253 3813.84 21251.7 3813.84 21250H3812.84ZM3810.84 -621V-620C3811.39 -620 3811.84 -619.553 3811.84 -619H3812.84H3813.84C3813.84 -620.656 3812.5 -622 3810.84 -622V-621ZM-34959.2 -621V-622C-34960.8 -622 -34962.2 -620.657 -34962.2 -619H-34961.2H-34960.2C-34960.2 -619.552 -34959.7 -620 -34959.2 -620V-621Z" fill="white" fill-opacity="0.1"/>
<g id="12_01_News_PC" clip-path="url(#clip0_0_1)">
<rect width="1440" height="3011" transform="translate(-1180.16 -77)" fill="#FF3F31"/>
<path id="Vector" fill-rule="evenodd" clip-rule="evenodd" d="M477.503 5.33632C471.421 6.37998 465.752 7.12223 460.174 8.98088C458.159 9.64012 455.444 10.8925 453.332 11.3138C452.262 11.4348 451.17 11.5281 450.076 11.6461C449.399 12.0412 448.723 12.4362 448.047 12.8313C447.366 12.8489 446.686 12.8667 446.008 12.8596C440.56 14.8849 434.449 17.4072 428.826 18.8082C424.604 19.852 421.062 20.8781 416.804 21.7921C415.47 22.4337 414.133 23.1 412.773 23.7386C409.16 24.7309 406.148 25.9471 402.921 26.8608C397.536 28.3662 392.769 30.3738 387.865 32.0632C385.402 32.894 383.014 33.106 380.62 34.1964C373.648 37.3928 366.662 41.1152 359.084 43.5093C355.891 41.6637 355.54 38.3549 351.454 36.8277C350.062 36.7085 348.669 36.5893 347.277 36.4701C338.982 35.4608 331.544 36.0882 324.568 37.4503C302.261 41.7452 282.991 48.5451 264.306 57.5517C258.594 60.2986 253.341 63.2017 247.953 66.1888C244.074 68.3296 239.71 69.708 236.769 73.0181C236.615 73.0495 236.46 73.0809 236.33 73.1154C234.651 69.5697 227.819 66.4522 222.133 66.514C221.134 66.6688 220.157 66.8514 219.158 67.0062C214.349 65.4412 210.195 68.6037 206.367 70.3236C198.444 73.9067 190.843 77.1021 183.1 80.8578C180.029 82.3433 176.992 84.3855 173.63 85.5842C172.352 86.5844 171.053 87.5569 169.775 88.5571C168.3 89.5331 166.577 89.8512 164.99 90.7132C164.009 91.5485 163.028 92.3838 162.072 93.2221C156.088 96.9659 150.732 101.339 145.015 105.366C130.459 115.553 115.598 126.583 104.431 140.926C98.8327 148.108 95.202 156.058 90.4959 164.378C87.1001 170.397 83.1968 177.283 80.9156 184.467C80.5879 185.507 79.4021 186.167 79.0025 186.972C76.9155 191.115 76.0313 195.077 73.7305 199.118C70.316 205.084 66.0052 210.363 64.6403 218.688C62.9489 218.96 61.2823 219.234 59.5909 219.506C56.6219 220.778 53.653 222.049 50.6871 223.296C46.8016 225.286 43.0584 228.171 39.9776 231.188C37.9823 233.131 35.0442 234.356 33.0894 236.38C27.1664 242.517 22.6082 248.796 17.8259 256.505C16.1086 259.26 13.6395 262 12.0122 264.842C10.6095 267.284 9.01971 270.231 8.13995 272.711C7.67847 274.439 7.24476 276.145 6.78328 277.872C6.22144 279.186 4.80702 280.898 4.22645 282.159C2.83775 285.105 3.40273 288.515 2.13681 292.104C1.18042 294.802 0.403382 297.471 0.00104666 301.19C1.05824 304.685 0.890805 308.333 2.038 311.914C3.25712 315.73 11.25 323.762 14.717 326.244C15.9309 326.593 17.1479 326.917 18.3865 327.269C19.0099 327.721 19.6332 328.174 20.2535 328.652C22.1313 329.533 24.6163 329.76 26.1317 330.523L34.5996 331.553C39.9324 333.157 46.9249 331.445 51.879 330.791C55.3518 330.335 58.3127 330.368 61.6938 330.252C62.8405 329.914 64.0119 329.58 65.1586 329.242C70.8632 328.203 76.2666 327.78 81.4456 325.898C84.6531 324.73 87.7262 322.19 90.6727 320.689C92.1737 319.917 93.3773 319.938 94.6706 319.015C96.7765 319.674 98.1938 321.655 100.656 322.482C103.676 323.478 107.997 323.275 110.778 323.136C114.518 322.963 118.36 323.807 122.108 323.359C125.906 322.917 130.018 321.131 133.315 319.849C134.443 319.659 135.6 319.448 136.728 319.259C138.613 318.433 140.522 317.61 142.406 316.785C143.411 316.58 144.394 316.348 145.399 316.144C148.387 314.925 151.337 312.771 154.151 311.33C158.3 309.448 162.476 307.544 166.65 305.666C170.659 302.661 174.668 299.657 178.677 296.653C182.805 294.115 186.876 291.219 190.373 287.876C193.386 285.002 197.318 283.044 200.462 280.336C203.616 277.127 206.771 273.918 209.925 270.71C211.661 268.007 213.4 265.279 215.136 262.576C215.786 260.746 216.461 258.918 217.114 257.063C218.876 254.966 222.26 252.967 224.622 251.52C229.451 248.591 233.441 244.504 238.373 241.562C240.975 239.994 243.326 237.818 245.497 235.671C248.812 232.381 253.169 230.022 256.493 226.658C258.03 225.589 259.565 224.544 261.102 223.475C265.935 218.863 271.866 215.138 276.273 210.097C280.419 205.351 285.692 199.385 287.864 192.69C290.035 185.995 282.668 181.908 287.771 176.726C292.668 171.795 299.733 167.831 305.876 164.433C311.991 160.429 318.104 156.45 324.22 152.446C326.472 150.66 328.725 148.874 330.977 147.088C339.666 141.965 347.483 135.957 356.262 130.92C358.558 129.19 360.854 127.459 363.15 125.729C367.416 123.509 371.022 120.506 375.154 118.145C393.676 107.586 411.157 95.6696 429.331 84.6664C450.543 71.822 469.552 56.2225 491.1 43.9215C495.933 41.1682 500.213 36.9659 505.089 34.2682C514.11 29.3112 528.556 18.3819 531.508 6.30526C529.421 3.01148 525.719 3.28954 521.132 1.7516C509.455 -2.23175 493.593 1.54109 483.317 3.60681C481.363 4.17305 479.382 4.76104 477.429 5.32728L477.503 5.33632Z" fill="#FFBE00"/>
</g>
</g>
<defs>
<clipPath id="clip0_0_1">
<rect width="1440" height="3011" fill="white" transform="translate(-1180.16 -77)"/>
</clipPath>
</defs>
</svg>
