<svg width="234" height="218" viewBox="0 0 234 218" fill="none" xmlns="http://www.w3.org/2000/svg">
<rect width="234" height="218" fill="#F5F5F5"/>
<g id="DESIGN">
<path d="M-33781 -916.932C-33781 -918.036 -33780.1 -918.932 -33779 -918.932H4991C4992.11 -918.932 4993 -918.036 4993 -916.932V20952.1C4993 20953.2 4992.11 20954.1 4991 20954.1H-33779C-33780.1 20954.1 -33781 20953.2 -33781 20952.1V-916.932Z" fill="#282828"/>
<path d="M-33779 -918.932V-917.932H4991V-918.932V-919.932H-33779V-918.932ZM4993 -916.932H4992V20952.1H4993H4994V-916.932H4993ZM4991 20954.1V20953.1H-33779V20954.1V20955.1H4991V20954.1ZM-33781 20952.1H-33780V-916.932H-33781H-33782V20952.1H-33781ZM-33779 20954.1V20953.1C-33779.6 20953.1 -33780 20952.6 -33780 20952.1H-33781H-33782C-33782 20953.7 -33780.7 20955.1 -33779 20955.1V20954.1ZM4993 20952.1H4992C4992 20952.6 4991.55 20953.1 4991 20953.1V20954.1V20955.1C4992.66 20955.1 4994 20953.7 4994 20952.1H4993ZM4991 -918.932V-917.932C4991.55 -917.932 4992 -917.485 4992 -916.932H4993H4994C4994 -918.588 4992.66 -919.932 4991 -919.932V-918.932ZM-33779 -918.932V-919.932C-33780.7 -919.932 -33782 -918.589 -33782 -916.932H-33781H-33780C-33780 -917.484 -33779.6 -917.932 -33779 -917.932V-918.932Z" fill="white" fill-opacity="0.1"/>
<g id="12_01_News_PC" clip-path="url(#clip0_0_1)">
<rect width="1440" height="3011" transform="translate(0 -374.932)" fill="#FF3F31"/>
<path id="Vector" fill-rule="evenodd" clip-rule="evenodd" d="M105.949 95.4691C86.6686 124.18 132.713 98.431 140.583 110.495C145.224 117.636 131.692 139.737 116.389 153.607C100.762 167.805 83.0883 175.576 65.9802 185.032C15.7763 212.746 -28.6085 220.809 -51.3138 217.029C-75.4555 212.997 -70.7445 195.486 -55.9322 167.069C-55.1731 165.626 -54.483 164.198 -53.785 162.806C-14.9024 120.622 42.8103 121.673 33.1884 98.4341C8.08658 102.277 35.7838 36.5228 91.8267 14.0433C126.349 1.08383 155.222 -4.20018 166.034 3.74536C173.27 9.06012 164.44 28.2376 178.937 27.6863C188.573 27.3011 199.917 25.6552 212.258 22.6569C215.975 21.7723 248.11 13.9295 224.761 33.0829C211.135 44.2841 196.394 41.6982 184.138 43.4798C163.739 46.4668 124.432 70.8953 109.634 90.3103C108.205 92.1602 106.995 93.8516 105.968 95.3922L105.949 95.4691Z" fill="#0071EB"/>
</g>
</g>
<defs>
<clipPath id="clip0_0_1">
<rect width="1440" height="3011" fill="white" transform="translate(0 -374.932)"/>
</clipPath>
</defs>
</svg>
