<svg width="2440" height="2523" viewBox="0 0 1440 2523" fill="none" xmlns="http://www.w3.org/2000/svg">
<path fill-rule="evenodd" clip-rule="evenodd" d="M442.556 13.4277C434.172 15.9392 426.32 17.9555 418.785 21.5283C416.061 22.8017 412.453 25.0302 409.552 25.9853C408.067 26.3391 406.546 26.6575 405.025 27.0112C404.14 27.6833 403.256 28.3554 402.372 29.0275C401.416 29.169 400.461 29.3105 399.506 29.4166C392.184 33.2016 384.013 37.8001 376.336 40.7361C370.571 42.9293 365.76 44.981 359.923 46.9973C358.154 48.1293 356.386 49.2966 354.582 50.4286C349.665 52.4449 345.632 54.6734 341.246 56.5129C333.924 59.555 327.556 63.1984 320.941 66.4174C317.616 68.0093 314.291 68.7168 311.107 70.6623C301.84 76.3575 292.642 82.7955 282.384 87.4648C277.573 85.4131 276.512 80.8145 270.499 79.3642C268.518 79.435 266.537 79.5057 264.556 79.5765C252.706 79.5765 242.341 81.7342 232.755 84.8471C202.086 94.7163 176.122 107.592 151.36 123.475C143.79 128.321 136.892 133.309 129.817 138.438C124.724 142.117 118.816 144.805 115.243 149.97C115.031 150.041 114.819 150.112 114.642 150.182C111.671 145.478 101.519 142.259 93.5241 143.32C92.1445 143.709 90.8003 144.133 89.4207 144.522C82.3814 143.143 77.0753 148.307 71.9815 151.385C61.4402 157.788 51.2879 163.589 41.0296 170.204C36.9616 172.821 33.0351 176.217 28.5073 178.481C26.8801 180.108 25.2175 181.7 23.5903 183.327C21.6802 184.955 19.3101 185.697 17.2231 187.183C15.985 188.527 14.7469 189.872 13.5442 191.216C5.76202 197.512 -1.02971 204.587 -8.38744 211.237C-27.1355 228.075 -46.1665 246.151 -59.4316 268.26C-66.0819 279.332 -69.8315 291.146 -75.0314 303.669C-78.7811 312.724 -83.0966 323.089 -85.0775 333.595C-85.3605 335.116 -86.917 336.248 -87.3415 337.45C-89.57 343.641 -90.136 349.371 -92.6829 355.456C-96.4679 364.441 -101.632 372.612 -102.128 384.568C-104.462 385.24 -106.762 385.912 -109.096 386.585C-113.058 388.884 -117.02 391.183 -120.982 393.447C-126.111 396.914 -130.886 401.618 -134.707 406.394C-137.183 409.471 -141.109 411.7 -143.515 414.883C-150.802 424.54 -156.143 434.162 -161.555 445.835C-163.501 450.009 -166.508 454.29 -168.312 458.57C-169.868 462.249 -171.602 466.67 -172.415 470.314C-172.769 472.825 -173.087 475.302 -173.441 477.813C-174.007 479.759 -175.705 482.412 -176.306 484.287C-177.757 488.673 -176.377 493.378 -177.544 498.648C-178.429 502.61 -179.065 506.501 -178.995 511.807C-176.908 516.547 -176.518 521.712 -174.29 526.558C-171.92 531.723 -159.292 541.663 -153.985 544.563C-152.217 544.846 -150.448 545.094 -148.644 545.377C-147.689 545.907 -146.734 546.438 -145.779 547.004C-142.984 547.924 -139.447 547.818 -137.183 548.631H-125.085C-117.303 549.975 -107.752 546.367 -100.89 544.599C-96.0788 543.361 -91.9047 542.901 -87.1646 542.158C-85.6082 541.486 -84.0163 540.814 -82.4599 540.141C-74.6069 537.701 -67.0724 536.18 -60.1037 532.642C-55.7882 530.449 -51.8971 526.346 -48.006 523.728C-46.025 522.384 -44.3271 522.207 -42.6645 520.686C-39.587 521.252 -37.2524 523.799 -33.6443 524.542C-29.2225 525.426 -23.1736 524.4 -19.2825 523.728C-14.0472 522.844 -8.49358 523.374 -3.29364 522.101C1.97704 520.828 7.45995 517.609 11.8817 515.239C13.4381 514.779 15.0299 514.283 16.5864 513.824C19.0979 512.338 21.6448 510.852 24.1563 509.366C25.5359 508.907 26.8801 508.411 28.2597 507.952C32.2569 505.723 36.0419 502.186 39.7561 499.674C45.2744 496.314 50.8281 492.918 56.3817 489.557C61.5109 484.64 66.6401 479.723 71.7693 474.806C77.1461 470.526 82.3814 465.751 86.7323 460.445C90.482 455.881 95.6819 452.45 99.6437 448.099C103.535 443.041 107.426 437.982 111.317 432.924C113.298 428.821 115.279 424.682 117.26 420.579C117.861 417.89 118.498 415.202 119.099 412.478C121.222 409.224 125.643 405.828 128.721 403.387C135.017 398.435 139.934 391.997 146.372 387.009C149.768 384.356 152.704 380.889 155.393 377.493C159.496 372.294 165.226 368.226 169.33 362.92C171.311 361.151 173.292 359.417 175.273 357.649C181.286 350.326 188.998 344.065 194.339 336.212C199.362 328.819 205.765 319.516 207.675 309.718C209.585 299.919 198.513 295.427 204.81 287.255C210.858 279.473 220.126 272.681 228.192 266.845C236.115 260.159 244.039 253.509 251.963 246.823C254.828 243.923 257.693 241.022 260.559 238.121C271.913 229.419 281.889 219.621 293.385 211.025C296.321 208.195 299.257 205.365 302.193 202.535C307.818 198.68 312.381 193.833 317.793 189.801C342.059 171.76 364.628 151.986 388.328 133.38C415.99 111.66 440.08 86.4389 468.308 65.427C474.64 60.7223 479.946 54.0721 486.349 49.4381C498.199 40.9131 516.664 23.0493 518.751 5.53935C515.249 1.25914 510.084 2.28498 503.363 0.905407C486.242 -2.70271 464.558 5.32714 450.444 9.99646C447.791 11.1284 445.103 12.2958 442.45 13.4277H442.556Z" fill="#00A43E"/>
<path fill-rule="evenodd" clip-rule="evenodd" d="M1332.68 334.288C1328.28 334.667 1323.88 334.988 1319.42 335.377C1308.14 338.69 1294.36 341.847 1282.74 340.333C1270.15 338.671 1252.02 327.385 1237.61 335.398C1235.32 337.68 1232.95 339.913 1230.66 342.196C1222.03 348.289 1216.71 354.773 1209.74 361.815C1205.93 364.814 1202.11 367.753 1198.3 370.752C1190.81 378.414 1183.5 387.194 1176.39 395.281C1163.9 409.5 1149.83 419.688 1134.71 431.724C1109.04 452.139 1082.61 472.732 1048.48 486.024C1001.2 504.487 962.973 475.358 926.423 464.035C924.27 464.127 922.127 464.279 919.974 464.371C894.51 461.268 864.53 479.158 849.95 490.75C847.032 494.454 844.164 498.089 841.246 501.793C811.848 531.216 792.972 565.995 775.925 606.753C773.33 612.936 768.148 618.737 765.717 625.195C760.935 637.859 759.065 654.167 755.912 667.241C753.057 679.125 756.874 687.447 755.715 700.573C754.924 709.849 752.377 717.891 755.024 728.381C756.578 734.524 757.405 743.369 761.325 746.134C776.335 756.757 808.454 748.412 825.354 740.917C833.808 737.199 840.695 735.41 849.701 731.366C852.829 729.015 856.015 726.655 859.143 724.304C865.219 720.774 869.351 718.689 875.264 715.665C878.391 713.314 881.578 710.954 884.706 708.603C886.243 708.425 887.781 708.247 889.319 708.069C890.417 706.996 891.515 705.923 892.622 704.908C897.487 702.89 918.729 700.505 923.684 701.785C926.589 703.443 929.504 705.159 932.409 706.817C938.703 708.974 944.361 708.58 949.783 711.715C967.022 721.571 962.232 762.178 967.372 785.651C967.506 788.461 967.64 791.27 967.765 794.021C971.441 806.098 977.811 816.915 981.369 828.227C981.856 830.982 982.342 833.737 982.829 836.492C983.902 837.591 984.975 838.689 986.039 839.729C990.393 846.462 992.78 854.101 997.621 860.096C999.781 862.773 1003.58 865.135 1005.53 868.025C1010.06 874.73 1013.48 882.451 1019.54 886.933C1023.48 889.875 1040.23 894.208 1046.02 892.768C1051.31 891.528 1056.59 890.229 1061.87 888.989C1071.59 889.532 1078.2 884.413 1085.28 880.728C1098.8 873.576 1109.73 868.332 1125.03 862.169C1130.35 860.019 1137.53 855.416 1144.59 855.527C1148.92 856.663 1153.18 857.749 1157.51 858.886C1159.89 862.612 1161.55 868.257 1162.2 874.418C1162.47 877.327 1162.74 880.236 1163.01 883.145C1167.95 896.411 1185.01 896.119 1200.13 894.621C1207.68 889.357 1220.51 891.345 1229.46 888.093C1236.64 885.475 1247.6 883.959 1255.18 881.581C1260.18 880.866 1265.14 880.219 1270.15 879.504C1278.41 876.479 1287.62 873.004 1296.21 868.965C1307.54 863.598 1319.18 855.592 1330.51 850.225C1361.14 835.786 1389.62 822.164 1417.97 805.429C1437.16 794.086 1456.74 779.794 1475.8 767.99C1491.73 758.116 1506.65 750.628 1522.32 741.035C1546.7 726.241 1570.33 706.985 1593.36 690.472C1608.96 679.264 1625.38 670.639 1639.43 658.347C1645.84 652.717 1653.46 647.502 1659.96 642.764C1661.36 642.486 1662.82 642.2 1664.21 641.864C1664.7 640.764 1665.19 639.605 1665.68 638.506C1674.17 631.53 1683.08 626.839 1691.34 619.538C1700.13 610.648 1708.93 601.759 1717.73 592.869C1720.68 590.124 1728.45 585.91 1730.53 583.419C1734.62 577.185 1738.78 571.001 1742.88 564.767C1747.14 558.447 1751.3 556.176 1754.7 548.183C1760.8 533.93 1765.23 496.449 1753.96 481.212C1748.17 473.377 1739.35 466.553 1735.43 456.381C1735.38 454.521 1735.33 452.662 1735.28 450.802C1733.89 446.442 1730.41 438.369 1731.34 431.541C1735.53 401.445 1749.26 381.253 1761.77 359.022C1766.77 350.117 1776.61 344.86 1779.64 334.093C1786.34 310.474 1795.49 292.978 1776.31 270.595C1771.13 272.12 1769.91 268.936 1765.64 268.153C1760.32 267.23 1748.76 266.852 1740.9 269.755C1727.52 274.658 1711.17 279.899 1697.99 285.01C1692.08 286.106 1686.16 287.143 1680.25 288.239C1675.93 290.234 1664.08 295.742 1656.59 293.287C1650.61 290.782 1651.25 281.348 1652.84 276.044C1657.14 261.466 1666.69 249.268 1671.82 235.346C1673.44 231.001 1672.4 226.225 1673.77 221.495C1675.07 217.019 1678.48 211.854 1679.26 206.795C1682.01 189.147 1677.74 163.13 1671.76 149.001C1670.62 146.288 1666.22 142.813 1664.43 139.778C1660.28 132.774 1658.06 125.469 1651.32 122.357C1644.58 119.305 1632.45 115.222 1622.24 119.633C1618.35 121.32 1616.55 122.141 1612.01 122C1610.62 126.25 1600.04 133.309 1596.27 135.036C1594 135.147 1591.73 135.257 1589.47 135.427C1587.72 137.383 1585.97 139.28 1584.23 141.237C1570.54 152.388 1557.85 162.544 1543.95 173.488C1511.54 198.982 1482.47 229.377 1447.42 252.628C1441.47 256.561 1435.8 264.303 1430.57 269.389C1420.83 278.786 1410.1 285.325 1399.67 294.166C1384.92 306.627 1367.56 321.239 1348.45 329.256C1342.8 331.636 1337.19 332.687 1332.32 334.284L1332.68 334.288Z" fill="#00A43E"/>
<path fill-rule="evenodd" clip-rule="evenodd" d="M208.321 1273.52C218.409 1263.75 226.651 1253.74 236.8 1244.46C247.133 1235.06 260.05 1227.38 270.322 1217.86C289.574 1199.98 310.61 1185.48 330.416 1168.89C373.472 1132.88 416.774 1097.99 460.199 1062.29C468.072 1056.27 476.006 1050.25 483.879 1044.23C496.981 1033.04 510.513 1022.23 524.598 1012.46C526.259 1011.29 528.965 1011.05 530.565 1009.82C532.533 1008.34 541.205 1000.23 542.312 998.576C542.743 997.531 543.235 996.487 543.666 995.442C546.495 992.431 550.801 989.175 553.692 986.287C554.307 984.567 554.922 982.847 555.537 981.126C558.612 976.334 568.146 965.705 562.795 958.516C560.089 954.891 552.339 951.881 545.942 952.004C531.364 952.249 518.632 955.26 504.669 957.472C489.477 959.868 474.961 965.275 460.691 969.146C420.649 979.959 382.267 992.431 345.055 1007.36C317.807 1018.3 291.727 1031.75 264.54 1042.44C254.084 1046.56 244.304 1053.5 233.909 1058.23C229.849 1060.88 225.79 1063.58 221.669 1066.22C210.474 1072.18 199.28 1078.14 188.024 1084.1C184.764 1086.31 181.565 1088.59 178.305 1090.8C161.759 1098.85 145.706 1108.62 130.636 1119.06C121.225 1125.57 110.769 1130.3 101.604 1137.37C98.098 1139.34 94.5921 1141.3 91.1476 1143.27C74.0483 1156.85 54.0578 1166.55 36.7739 1179.89C30.9306 1183.39 25.0873 1186.89 19.3055 1190.39C6.14272 1201.45 -8.49632 1210.85 -21.8437 1221.42C-43.9252 1238.93 -64.5921 1257.24 -85.8125 1276.04C-91.3483 1280.89 -98.5447 1285.01 -103.834 1290.11C-117.243 1303.14 -130.037 1315.92 -143.815 1327.96C-144.246 1329.31 -144.676 1330.66 -145.107 1332.01C-154.333 1341.9 -165.281 1350.45 -173.339 1362.73C-175.184 1365.5 -173.401 1367.65 -174.815 1370.17C-177.829 1374.1 -180.843 1378.09 -183.918 1382.03C-188.655 1388.72 -190.315 1394.99 -194.744 1402.55C-198.004 1408.08 -203.109 1413.91 -204.954 1421.65C-205.324 1423.56 -205.631 1425.46 -206 1427.31C-206 1432.04 -204.524 1441.75 -201.817 1445.12C-191.915 1457.54 -180.228 1457.29 -165.835 1454.03C-160.238 1452.74 -154.517 1453.11 -149.535 1451.08C-136.003 1445.55 -122.964 1432.1 -111.769 1422.33C-108.817 1420.55 -105.926 1418.71 -102.973 1416.92C-95.2847 1409.86 -86.3046 1404.7 -78.9236 1397.39C-74.987 1394.81 -71.0503 1392.22 -67.0523 1389.58C-59.3637 1382.27 -50.814 1376.74 -43.0024 1370.04C-31.2543 1359.91 -20.1828 1350.01 -8.61919 1339.88C-2.83739 1334.84 5.15874 1331.46 10.8175 1326.42C13.8929 1323.72 15.8611 1320.28 19.121 1317.82C39.4188 1302.09 61.4389 1287.59 81.1831 1271.19C93.6078 1260.86 105.725 1251.46 117.596 1240.28C125.162 1233.16 135.372 1228.42 143.245 1221.79C149.519 1216.5 159.976 1206.06 167.726 1204.22C167.849 1204.22 167.91 1204.22 168.033 1204.28C166.25 1207.9 163.297 1209.07 160.96 1211.65C156.285 1216.75 152.595 1221.91 147.797 1226.27C144.783 1230.21 141.769 1234.2 138.694 1238.13C131.251 1245.57 123.378 1253.37 115.874 1260.43C114.09 1263.02 112.368 1265.6 110.584 1268.24C104.679 1274.26 98.0979 1281.63 92.1316 1287.84C90.6554 1290.11 89.1794 1292.32 87.7032 1294.6C67.1593 1315.92 44.5241 1337.3 27.4863 1363.53C18.1985 1377.79 -8.25027 1418.89 6.81932 1435.66C28.7779 1460.12 62.3615 1428.6 79.8299 1420.3C127.13 1397.88 169.509 1366.42 218.163 1346.02C223.268 1342.89 228.435 1339.75 233.54 1336.56C238.768 1332.63 247.687 1329.19 254.022 1326.79C260.111 1324.52 266.816 1317.39 273.828 1317.14C273.828 1317.45 273.828 1317.76 273.889 1318.13C252.669 1346.33 228.742 1371.4 207.153 1398.61C203.647 1403.04 192.206 1421.04 192.76 1428.84C193.067 1433.14 196.573 1437.44 198.295 1441.07C198.91 1441.19 199.464 1441.38 200.079 1441.5C207.091 1437.08 215.395 1434.19 222.96 1430.75C232.248 1426.45 240.798 1420.79 250.393 1416.68C254.76 1413.97 259.189 1411.27 263.556 1408.57C269.399 1405.5 275.242 1402.42 281.086 1399.35C286.868 1395.73 292.588 1392.1 298.37 1388.48C299.969 1387.92 301.568 1387.37 303.168 1386.82C308.703 1383.25 314.239 1378.71 320.144 1375.88C355.265 1358.99 390.756 1342.4 425.938 1325.32C436.026 1320.4 445.99 1314.75 456.201 1309.77C457.369 1308.79 458.538 1307.81 459.707 1306.88C468.441 1303.07 477.052 1299.88 485.54 1295.58C491.568 1292.51 496.673 1288.64 503.132 1286.06C512.727 1282.25 520.723 1273.83 530.749 1271.13C531.118 1271.25 531.548 1271.31 531.917 1271.43C529.457 1274.2 525.275 1275.92 522.015 1277.52C516.171 1280.34 509.898 1285.5 503.993 1288.82C496.735 1294.29 489.538 1299.7 482.28 1305.16C476.929 1309.4 469.917 1312.29 464.566 1316.53C442.607 1334.1 418.68 1348.54 396.599 1365.81C390.878 1370.29 383.867 1373.67 378.331 1378.28C361.047 1392.78 343.886 1409.37 328.14 1424.97C314.239 1438.67 300.092 1455.57 290.435 1475.54C287.913 1480.7 281.762 1495.2 285.514 1499.93C293.326 1509.76 313.87 1502.82 322.419 1499.68C327.894 1497.72 333.307 1497.04 339.088 1495.26C340.934 1494.15 342.717 1492.99 344.563 1491.88C346.346 1491.76 348.13 1491.7 349.914 1491.57C353.666 1489.79 357.418 1487.95 361.231 1486.17C367.69 1483.96 373.779 1481.99 380.238 1479.78C392.416 1475.6 403.672 1467.61 417.02 1465.77C418.619 1468.72 413.944 1472.77 412.345 1474.92C406.809 1482.36 397.091 1492.93 404.472 1501.4C410.192 1502.02 414.621 1496.12 418.311 1493.17C427.907 1485.49 439.655 1479.65 448.327 1470.68C454.663 1467.18 460.998 1463.74 467.395 1460.24C470.286 1457.78 473.115 1455.39 476.006 1452.93C479.328 1451.33 482.588 1449.73 485.909 1448.14C491.322 1444.57 496.796 1440.95 502.209 1437.38C503.931 1436.65 505.654 1435.91 507.437 1435.17C511.066 1432.59 514.695 1430.07 518.324 1427.49C529.519 1422.64 541.021 1414.96 550.801 1407.77C554.676 1404.94 557.751 1401.44 561.688 1398.8C572.39 1391.67 582.293 1383.56 592.503 1375.57C595.394 1373.36 602.714 1369.12 602.468 1363.9C601.853 1361.75 598.162 1358.68 595.21 1359.05C584.077 1360.34 573.251 1362.06 561.749 1363.22L557.628 1364.76C556.46 1364.45 555.291 1364.21 554.061 1363.9C531.548 1368.02 508.114 1374.71 487.509 1382.33C480.681 1384.05 473.792 1385.71 466.903 1387.43C458.599 1390.5 449.988 1393.45 441.316 1396.59C436.395 1398.37 432.212 1401.56 426.738 1402.79C426.8 1402.49 426.861 1402.18 426.923 1401.93C428.768 1399.78 430.121 1400.46 432.274 1399.17C442.976 1392.59 451.895 1384.3 463.582 1379.2C469.363 1376.68 476.129 1369.12 481.727 1366.05C490.707 1361.07 499.749 1356.4 508.483 1350.88C513.649 1347.62 518.755 1344.36 523.921 1341.17C529.211 1338.77 533.271 1335.33 538.191 1332.38C540.221 1331.4 542.189 1330.42 544.219 1329.43C551.785 1324.46 559.289 1319.54 566.854 1314.56C568.269 1314.2 569.745 1313.83 571.16 1313.4C584.569 1303.63 598.777 1295.95 612.924 1287.47C621.105 1282.61 628.424 1276.72 637.097 1272.66C644.847 1267.56 652.659 1262.46 660.409 1257.3C682.06 1246.98 701.989 1232.79 722.348 1220.31C730.59 1215.28 739.57 1211.96 748.428 1207.84C759.745 1202.62 770.263 1196.6 781.95 1191.81C787.732 1188.43 793.575 1184.99 799.357 1181.61C808.583 1177.37 817.809 1173.13 827.097 1168.89C851.393 1158.57 875.504 1148.92 900.169 1138.91C910.749 1134.6 921.267 1128.34 932.277 1124.71C940.334 1122.07 963.092 1111.87 959.648 1097.86C958.725 1094.12 946.424 1084.65 940.703 1084.29C938.181 1084.84 935.659 1085.39 933.138 1085.88C927.725 1086.62 922.558 1085.82 917.391 1086.5C878.026 1091.6 839.645 1097.68 802.37 1106.47C741.846 1120.72 682.367 1137.74 624.426 1157.28C576.019 1173.62 529.519 1195.12 482.465 1214.17C467.887 1220.07 453.863 1228.55 439.655 1235.12C423.724 1242.56 407.547 1250.36 392.601 1259.45C382.329 1265.72 372.119 1271.99 361.17 1277.21C357.972 1278.74 355.757 1282.68 351.698 1282.74C354.773 1275.12 362.954 1268.67 368.12 1263.57C378.515 1253.43 387.372 1243.48 397.767 1233.52C399.551 1232.48 401.396 1231.5 403.18 1230.45C414.129 1221.42 427.722 1207.41 431.905 1188.67C426.677 1182.16 419.418 1183.51 412.222 1186.15C397.767 1191.44 384.113 1197.34 369.043 1202.07C365.968 1204.03 362.892 1206 359.817 1207.96C355.511 1209.32 351.267 1210.73 346.962 1212.08C336.69 1216.87 326.172 1222.77 315.838 1227.44C308.826 1230.57 301.199 1232.05 294.064 1235.06C289.205 1237.09 284.469 1241.76 279.548 1243.48C273.028 1245.69 267.861 1249.25 261.895 1252.08C245.103 1259.88 230.095 1268.48 214.042 1277.15C207.46 1280.71 199.833 1282.86 193.621 1286.92C193.498 1286.92 193.436 1286.92 193.313 1286.85C196.758 1280.77 203.77 1277.82 208.444 1273.28L208.321 1273.52Z" fill="#00A43E"/>
<path fill-rule="evenodd" clip-rule="evenodd" d="M761.194 2130.8C762.926 2130.98 764.471 2132.11 766.297 2131.26C770.135 2129.49 774.676 2117.23 777.672 2113.35C780.153 2110.59 782.681 2107.88 785.162 2105.12C796.397 2088.23 807.491 2071.48 819.522 2055.3C824.343 2048.8 830.663 2043 835.485 2036.45C850.886 2015.59 866.287 1995.1 882.203 1974.75C885.526 1970.54 890.301 1967.08 893.578 1962.91C905.655 1947.57 919.559 1934.19 931.355 1918.66C933.836 1916.18 936.364 1913.66 938.845 1911.18C950.782 1896.07 963.796 1881.9 976.622 1867.63C982.146 1861.5 986.64 1852.33 993.802 1848.03H994.551C992.959 1852.94 991.321 1857.85 989.729 1862.76C985.282 1881.24 981.444 1900.7 980.273 1920.82C982.427 1923.62 985.048 1931.15 988.512 1932.42C993.147 1934.1 998.858 1930.92 1002.56 1929.28C1012.25 1924.98 1023.81 1909.68 1029.66 1900.98C1033.31 1895.51 1038.37 1890.92 1042.25 1885.73C1045.58 1880.91 1048.85 1876.05 1052.18 1871.23C1059.43 1861.88 1067.62 1852.99 1074.69 1843.4C1082.14 1834.93 1089.53 1826.47 1096.98 1818C1102.45 1810.19 1109.24 1803.59 1114.67 1795.97C1118.04 1791.2 1121.55 1784.18 1127.26 1781.93H1127.5C1130.63 1793.39 1127.5 1808.83 1134.99 1815.8C1139.85 1815.33 1143.08 1809.63 1145.38 1806.35C1150.76 1798.77 1157.22 1792.09 1162.56 1784.32C1167.85 1776.65 1175.85 1770.99 1181.42 1763.74C1183.67 1761.07 1185.96 1758.41 1188.21 1755.74C1190.65 1753.73 1193.03 1751.72 1195.47 1749.71C1201.88 1742.08 1209.93 1735.77 1216.3 1728.19C1220.65 1723 1224.77 1717.9 1229.36 1712.94C1237.04 1705.13 1244.71 1697.31 1252.34 1689.46C1259.6 1679.77 1268.45 1671.87 1277.29 1663.82C1282.68 1658.91 1287.31 1653.2 1293.02 1648.57C1295.04 1646.37 1297.05 1644.22 1299.06 1642.02C1307.72 1635.05 1314.84 1626.73 1323.5 1619.76C1330.66 1612.18 1337.87 1604.6 1345.03 1597.03C1368.3 1577.24 1389.27 1554.6 1413.28 1535.61C1421.29 1529.29 1427.56 1520.17 1435.8 1514.09C1442.12 1509.41 1446.75 1502.77 1452.98 1498.37C1468.66 1487.29 1481.39 1472.69 1496.33 1460.62C1501.24 1455.85 1506.16 1451.13 1511.07 1446.36C1525.21 1435.13 1538.6 1422.73 1553.2 1412.02C1569.21 1400.23 1586.06 1389.15 1599.45 1374.79C1606.85 1366.84 1614.39 1361.64 1618.32 1349.86C1619.11 1347.47 1620.56 1345.83 1619.77 1342.84C1612.19 1338.63 1592.81 1351.49 1586.11 1353.97C1553.11 1366.04 1524.98 1381.85 1497.26 1398.74C1487.34 1404.77 1476.71 1410.06 1467.26 1416.89C1466.37 1417.87 1465.48 1418.81 1464.59 1419.79C1461.12 1421.89 1457.61 1422.69 1454.2 1424.89C1452.6 1426.34 1450.97 1427.79 1449.37 1429.24C1448.06 1429.7 1446.8 1430.22 1445.49 1430.69C1439.73 1435.36 1433.36 1440.46 1427.33 1444.72C1421.9 1448.56 1416.04 1451.17 1410.61 1455.1C1400.64 1462.4 1390.53 1469.84 1380.61 1477.37C1379.25 1478.82 1377.85 1480.27 1376.49 1481.72C1348.64 1501.69 1321.72 1522.74 1295.88 1544.87C1288.29 1551.37 1280.01 1556.89 1271.91 1562.78C1262.6 1569.57 1254.26 1577.94 1244.81 1584.82C1242.23 1587.39 1239.66 1589.96 1237.08 1592.53C1229.55 1598.94 1222.24 1605.4 1214.57 1611.67C1209.89 1616.44 1205.2 1621.16 1200.52 1625.93C1194.44 1630.75 1189.66 1636.08 1184.79 1642.12C1181.24 1645.67 1177.68 1649.23 1174.12 1652.78L1173.37 1653.02C1171.27 1643.29 1177.73 1637.16 1168.27 1630.75C1160.59 1625.56 1144.49 1640.25 1140.18 1643.8C1132.22 1650.4 1124.59 1657.18 1116.45 1663.64C1113.22 1666.77 1109.99 1669.9 1106.76 1673.08C1103.39 1675.8 1099.27 1678.6 1096.6 1682.02C1091.31 1688.8 1080.5 1702.27 1073.38 1706.44C1073.24 1706.2 1073.05 1705.97 1072.91 1705.69C1071.28 1700.82 1076.33 1689.64 1078.02 1686.32C1084.38 1673.55 1091.22 1659.85 1094.21 1644.22C1095.76 1636.18 1094.87 1617.84 1089.63 1615.46C1086.63 1614.1 1082.46 1616.91 1080.17 1617.65C1072.07 1620.27 1062.66 1623.08 1055.97 1627.57C1050.58 1631.22 1044.55 1633.7 1038.79 1636.79C1031.77 1640.53 1026.01 1647.26 1019.64 1651.8C1008.27 1659.85 997.641 1668.13 986.219 1675.98C982.567 1678.51 979.384 1682.63 975.826 1685.43C964.077 1694.6 953.731 1704.89 943.152 1715.18C939.219 1719.02 934.913 1722.15 931.542 1726.55C928.593 1730.39 924.052 1734.27 920.167 1737.22C918.622 1739.13 917.078 1741.1 915.58 1743.02C912.256 1747.13 908.183 1750.22 904.906 1754.62C901.442 1757.98 897.978 1761.4 894.514 1764.77C888.288 1772.53 881.22 1779.08 875.134 1787.03C869.891 1792.69 864.648 1798.31 859.405 1803.97C852.711 1811.97 846.158 1820.15 839.791 1828.38C836 1831.71 832.208 1834.98 828.416 1838.3C817.134 1852.15 805.806 1866.04 794.524 1879.89C787.971 1888.4 783.992 1898.69 778.047 1907.72C775.238 1911.51 772.382 1915.3 769.574 1919.08C766.905 1925.35 765.08 1931.06 761.85 1936.72C755.764 1947.34 749.211 1958 744.202 1969.84C743.64 1972.18 743.078 1974.51 742.516 1976.85C740.269 1982 736.478 1988.17 734.793 1993.55V1997.67C732.826 2002.39 729.83 2008.05 727.771 2013.15C726.413 2016.52 726.647 2019.33 725.337 2022.6C724.213 2025.41 720 2032.33 720 2035.18C722.996 2039.11 720.936 2045.52 721.217 2052.12C721.592 2061.33 722.762 2070.03 721.451 2079.95C721.779 2080.18 722.107 2080.42 722.434 2080.7C723.183 2080.46 723.885 2080.23 724.634 2079.95C725.617 2086.78 726.554 2093.66 727.537 2100.53C728.754 2105.02 732.873 2110.12 734.558 2114.33C735.963 2117.84 735.495 2120.65 737.461 2123.27C740.223 2126.96 743.921 2125.79 748.602 2127.85C750.989 2128.93 752.675 2132.06 754.407 2133.88C758.058 2134.45 759.696 2132.9 761.194 2130.75V2130.8Z" fill="#00A43E"/>
<path fill-rule="evenodd" clip-rule="evenodd" d="M293.88 2268.19C256.434 2323.95 345.861 2273.94 361.146 2297.37C370.16 2311.24 343.877 2354.17 314.157 2381.11C283.806 2408.68 249.48 2423.78 216.252 2442.14C118.746 2495.97 32.5416 2511.63 -11.5568 2504.29C-58.4451 2496.46 -49.2954 2462.44 -20.5268 2407.25C-19.0525 2404.45 -17.7122 2401.68 -16.3566 2398.97C59.1616 2317.04 171.252 2319.08 152.564 2273.95C103.811 2281.41 157.605 2153.71 266.452 2110.05C333.502 2084.88 389.579 2074.61 410.578 2090.04C424.632 2100.37 407.482 2137.61 435.637 2136.54C454.353 2135.79 476.385 2132.6 500.354 2126.77C507.573 2125.06 569.986 2109.82 524.637 2147.02C498.173 2168.78 469.544 2163.76 445.74 2167.22C406.121 2173.02 329.779 2220.46 301.036 2258.17C298.263 2261.76 295.912 2265.05 293.917 2268.04L293.88 2268.19Z" fill="#00A43E"/>
</svg>
