<svg preserveAspectRatio="none" width="100%" height="100%" overflow="visible" style="display: block;" viewBox="0 0 107.498 32" fill="none" xmlns="http://www.w3.org/2000/svg">
<g id="Group">
<path id="Vector" d="M39.7248 15.4275C39.7248 18.4681 39.7367 20.9222 39.7248 23.3822C39.7128 25.2855 39.3477 27.0812 38.1985 28.6853C36.9834 30.3851 35.2536 31.3189 33.3323 31.7139C31.3092 32.1329 29.2383 32.073 27.1793 31.5044C24.019 30.6365 21.8522 28.0748 21.5649 24.7229C21.2118 20.569 21.4632 16.4151 21.3734 12.2612C21.3315 10.3698 21.4033 8.49038 21.6786 6.61095C22.1695 3.2591 24.2285 1.26594 27.311 0.46988C30.0942 -0.248374 32.9911 -0.236403 35.6487 1.16419C37.8813 2.33734 39.216 4.21079 39.5392 6.7546C39.9343 9.83112 39.5871 12.9196 39.7188 15.4155V15.4275H39.7248ZM31.7821 15.9183V8.64002C31.7821 7.91578 31.8 7.19154 31.7641 6.4673C31.7342 5.8508 31.4409 5.34802 30.7885 5.24627C30.0942 5.13853 29.7051 5.55153 29.4777 6.17401C29.334 6.56905 29.3281 6.97606 29.3281 7.38307V24.675C29.3281 25.1479 29.352 25.6147 29.5256 26.0696C29.6872 26.4946 29.9505 26.7221 30.4413 26.7101C30.9082 26.6981 31.2853 26.6502 31.5367 26.1714C31.7701 25.7225 31.7761 25.2616 31.7761 24.7947V15.9123L31.7821 15.9183Z" fill="var(--fill-0, #E94337)"/>
<path id="Vector_2" d="M12.838 29.236C12.0599 30.038 11.4853 30.9119 10.5336 31.3728C8.51655 32.3424 6.51741 32.109 4.55418 31.2112C1.63927 29.8764 0.280575 27.5241 0.15488 24.3818C-0.0725666 18.6178 -0.0366539 12.8538 0.178822 7.08982C0.280575 4.51608 2.34555 1.58321 4.82951 0.81109C8.45669 -0.32016 12.024 -0.350087 15.3579 1.8765C17.1535 3.07359 18.0095 4.81535 18.2968 6.85041C18.4943 8.28093 18.4703 9.74138 18.5661 11.1839C18.602 11.7405 18.4225 11.968 17.8239 11.962C15.6452 11.9321 13.4725 11.9321 11.2938 11.962C10.6893 11.968 10.5516 11.7405 10.5636 11.1899C10.5935 9.99277 10.5815 8.79568 10.5576 7.59859C10.5456 7.16165 10.4798 6.71873 10.39 6.29376C10.2583 5.66529 9.98298 5.18047 9.20487 5.22236C8.4148 5.26426 8.22925 5.8269 8.13947 6.43143C8.03771 7.11377 7.95392 7.80808 7.95392 8.4964C7.93596 13.5062 7.95392 18.522 7.94195 23.5318C7.94195 24.292 8.06165 25.0342 8.19333 25.7824C8.31903 26.4827 8.69013 26.7939 9.43232 26.7341C10.1506 26.6742 10.4738 26.3091 10.5935 25.6327C10.8988 23.9149 10.8329 22.1791 10.8628 20.4493C10.8748 19.773 10.6055 19.5216 9.977 19.5994C9.39042 19.6712 9.20487 19.4318 9.22283 18.8512C9.25874 17.7499 9.24677 16.6426 9.22882 15.5413C9.22283 15.0984 9.37845 14.9248 9.82736 14.9308C12.5388 14.9427 15.2502 14.9487 17.9616 14.9308C18.5122 14.9308 18.5601 15.2181 18.5601 15.643C18.5541 20.6229 18.5482 25.6028 18.5601 30.5827C18.5601 31.1872 18.3806 31.4326 17.7521 31.4147C16.5849 31.3788 15.4178 31.3788 14.2506 31.4147C13.6161 31.4386 13.3468 31.1394 13.2211 30.5707C13.1313 30.1518 12.9817 29.7447 12.838 29.2539V29.236Z" fill="var(--fill-0, #4385F4)"/>
<path id="Vector_3" d="M80.0425 0.75132C81.6825 0.75132 83.3226 0.769277 84.9626 0.73935C85.4953 0.727379 85.7706 0.865044 85.8484 1.42169C86.2315 4.15704 86.6385 6.8864 87.0455 9.61577C87.4405 12.2554 87.8476 14.8889 88.2366 17.5285C88.7274 20.8505 89.2063 24.1664 89.6911 27.4883C89.8467 28.5418 89.9903 29.6012 90.1939 30.6486C90.2956 31.1754 90.2058 31.3968 89.6192 31.3908C87.3508 31.3729 85.0763 31.3729 82.8078 31.3908C82.2631 31.3908 82.1015 31.1873 82.1075 30.6666C82.1255 29.248 81.8861 27.8415 81.7604 26.4349C81.7185 25.9979 81.5808 25.8004 81.1379 25.8363C80.9523 25.8543 80.7608 25.8363 80.5692 25.8363C78.7437 25.8363 78.7138 25.8363 78.7197 27.7277C78.7197 28.7093 78.5282 29.673 78.4863 30.6426C78.4624 31.1634 78.2529 31.4028 77.6663 31.3968C75.4277 31.3609 73.1892 31.3669 70.9506 31.3968C70.3281 31.3968 70.2683 31.2053 70.3222 30.6187C70.6274 27.2728 71.2619 23.9629 71.615 20.629C72.016 16.8821 72.6445 13.1651 73.0515 9.41825C73.3448 6.73677 73.7877 4.07324 74.1289 1.39775C74.2007 0.853073 74.4402 0.73935 74.925 0.745335C76.6248 0.763291 78.3307 0.745335 80.0306 0.745335H80.0425V0.75132ZM80.3957 8.52043L80.2341 8.47853C80.1742 8.74788 80.0784 9.01124 80.0485 9.28058C79.7373 12.3451 79.2165 15.3798 79.007 18.4563C78.8514 20.7667 78.624 20.2699 80.7249 20.3537C81.3114 20.3776 81.4551 20.216 81.3952 19.5995C81.0301 15.9065 80.7189 12.2135 80.3957 8.52043Z" fill="var(--fill-0, #00AB41)"/>
<path id="Vector_4" d="M94.4019 22.5022C95.3176 22.5022 96.2334 22.5321 97.1432 22.4902C97.6759 22.4663 97.8555 22.6339 97.8375 23.1785C97.8136 24.0883 97.7956 25.0101 97.9093 25.9139C98.0709 27.1768 98.9209 27.7095 99.8067 27.2008C100.016 27.0811 100.22 26.8895 100.345 26.686C101.022 25.5308 100.321 22.993 99.1782 22.2867C97.4066 21.1914 95.557 20.2217 93.8093 19.0785C91.8999 17.8276 91.0021 16.1277 90.8645 13.949C90.7627 12.309 90.8226 10.663 91.481 9.1307C92.0256 7.87376 93.0671 6.9939 94.3121 6.56294C97.4305 5.49155 100.621 5.40177 103.679 6.71258C105.589 7.5266 106.959 8.93917 106.947 11.2675C106.947 12.2012 107.432 13.3744 106.882 14.0088C106.355 14.6134 105.158 14.1645 104.26 14.1944C103.159 14.2303 102.051 14.1824 100.95 14.2123C100.441 14.2243 100.22 14.0986 100.232 13.536C100.244 12.8477 100.136 12.1534 100.112 11.465C100.094 10.7887 100.052 10.1841 99.1244 10.2201C98.3882 10.25 97.8555 10.7827 97.8195 11.6206C97.7058 13.925 98.2505 14.6852 100.471 15.8105C102.213 16.6903 104.014 17.4624 105.535 18.7433C106.792 19.7968 107.492 21.0657 107.48 22.7356C107.468 24.214 107.6 25.6924 107.289 27.1529C106.876 29.0742 105.684 30.3252 103.895 31.0374C101.321 32.0669 98.6874 31.9652 96.0359 31.4085C93.4382 30.8639 91.7024 28.9904 91.1937 26.1593C91.0141 25.1597 91.0141 24.1542 90.9961 23.1486C90.9961 22.6399 91.1757 22.4962 91.6545 22.5142C92.5703 22.5441 93.4801 22.5142 94.3959 22.5142V22.4962L94.4019 22.5022Z" fill="var(--fill-0, #E94337)"/>
<path id="Vector_5" d="M57.5132 19.0666C57.5132 15.4095 57.5192 11.7584 57.5132 8.10131C57.5132 6.59896 57.6987 6.84436 56.1904 6.82641C55.3105 6.81443 54.4247 6.79648 53.5448 6.83239C52.9942 6.85633 52.7548 6.71867 52.7727 6.10815C52.8146 4.56391 52.8026 3.01966 52.7727 1.47541C52.7667 0.984608 52.8505 0.733219 53.4311 0.739205C58.7881 0.757161 64.151 0.757161 69.508 0.739205C70.0587 0.739205 70.2023 0.936724 70.1963 1.45147C70.1724 3.02565 70.1724 4.59982 70.1963 6.17399C70.2023 6.67677 70.0228 6.83838 69.5379 6.82641C68.4965 6.80246 67.455 6.87429 66.4195 6.80246C65.5995 6.74859 65.4319 7.06582 65.4319 7.81999C65.4559 15.1581 65.4499 22.5023 65.4439 29.8405C65.4439 31.5942 65.7192 31.3608 63.8817 31.3787C62.0561 31.3907 60.2246 31.3488 58.399 31.3967C57.6927 31.4146 57.4892 31.2051 57.4952 30.4929C57.5311 26.6801 57.5132 22.8674 57.5132 19.0547V19.0666Z" fill="var(--fill-0, #4385F4)"/>
<path id="Vector_6" d="M46.8175 21.3591C45.369 21.3591 43.9205 21.3411 42.478 21.3711C41.9992 21.3711 41.8077 21.2573 41.8256 20.7426C41.8555 19.4198 41.8555 18.103 41.8256 16.7802C41.8136 16.2535 42.0411 16.1517 42.496 16.1577C45.3929 16.1697 48.2839 16.1697 51.1809 16.1577C51.6597 16.1577 51.8452 16.2954 51.8333 16.7982C51.8033 18.121 51.7974 19.4378 51.8333 20.7605C51.8452 21.2992 51.6118 21.3711 51.1569 21.3651C49.7084 21.3471 48.26 21.3651 46.8175 21.3651V21.3591Z" fill="var(--fill-0, #FFBE00)"/>
</g>
</svg>
