<svg preserveAspectRatio="none" width="100%" height="100%" overflow="visible" style="display: block;" viewBox="0 0 170.208 142.072" fill="none" xmlns="http://www.w3.org/2000/svg">
<g id="Group 17">
<path id="Vector" d="M89.7881 14.0516C92.3749 11.4648 92.3749 7.27064 89.7881 4.68378C87.2012 2.09692 83.0071 2.09692 80.4202 4.68378C77.8334 7.27064 77.8334 11.4648 80.4202 14.0516C83.0071 16.6385 87.2012 16.6385 89.7881 14.0516Z" fill="var(--fill-0, #00AB41)"/>
<g id="Group">
<path id="Vector_2" d="M5.84377 107.79C5.76624 107.79 5.68776 107.777 5.61119 107.752C5.22548 107.623 5.01779 107.206 5.14605 106.821L29.3175 34.3844C29.4496 33.9882 29.8315 33.7422 30.2469 33.7862C30.6622 33.8303 30.9848 34.1499 31.0317 34.5644L39.2388 106.971C39.2847 107.375 38.9947 107.738 38.5908 107.784C38.1869 107.829 37.8232 107.54 37.7773 107.136L29.8698 37.3734L6.54054 107.286C6.43813 107.594 6.151 107.788 5.84281 107.788L5.84377 107.79Z" fill="var(--fill-0, #00AB41)"/>
<path id="Vector_3" d="M56.312 107.79C56.0105 107.79 55.7282 107.603 55.62 107.303L29.5343 34.7759C29.3965 34.3941 29.5956 33.9729 29.9775 33.8351C30.3593 33.6982 30.7805 33.8964 30.9183 34.2782L57.003 106.806C57.1408 107.188 56.9418 107.609 56.5599 107.747C56.4776 107.777 56.3933 107.791 56.311 107.791L56.312 107.79Z" fill="var(--fill-0, #00AB41)"/>
<path id="Vector_4" d="M31.5803 119.091C47.9256 119.091 61.3853 114.117 63.1224 107.724C63.3157 107.013 62.7501 106.319 61.9815 106.319H1.17909C0.410544 106.319 -0.1551 107.013 0.0382338 107.724C1.77632 114.117 15.235 119.091 31.5813 119.091H31.5803Z" fill="var(--fill-0, #00AB41)"/>
<path id="Vector_5" d="M32.6321 35.1304C32.966 33.7156 32.0898 32.298 30.6751 31.9641C29.2603 31.6302 27.8428 32.5064 27.5089 33.9212C27.1749 35.3359 28.0511 36.7535 29.4659 37.0874C30.8806 37.4213 32.2982 36.5451 32.6321 35.1304Z" fill="var(--fill-0, #00AB41)"/>
</g>
<path id="Vector_6" d="M164.365 107.79C164.443 107.79 164.521 107.778 164.598 107.752C164.983 107.623 165.191 107.206 165.063 106.821L140.891 34.3845C140.759 33.9883 140.377 33.7423 139.962 33.7863C139.547 33.8304 139.224 34.15 139.177 34.5645L130.97 106.971C130.924 107.375 131.214 107.738 131.618 107.784C132.022 107.829 132.386 107.54 132.431 107.136L140.339 37.3735L163.668 107.286C163.771 107.594 164.058 107.788 164.366 107.788L164.365 107.79Z" fill="var(--fill-0, #00AB41)"/>
<path id="Vector_7" d="M113.897 107.79C114.199 107.79 114.481 107.603 114.589 107.303L140.674 34.776C140.812 34.3942 140.613 33.973 140.231 33.8352C139.849 33.6983 139.428 33.8965 139.29 34.2783L113.205 106.806C113.068 107.188 113.267 107.609 113.649 107.747C113.731 107.777 113.815 107.791 113.897 107.791V107.79Z" fill="var(--fill-0, #00AB41)"/>
<path id="Vector_8" d="M138.627 119.091C122.282 119.091 108.822 114.117 107.084 107.724C106.891 107.013 107.457 106.319 108.225 106.319H169.029C169.797 106.319 170.363 107.013 170.169 107.724C168.431 114.117 154.973 119.091 138.627 119.091Z" fill="var(--fill-0, #00AB41)"/>
<path id="Vector_9" d="M140.354 37.1531C141.803 37.0333 142.88 35.7617 142.76 34.3131C142.64 32.8644 141.369 31.7872 139.92 31.907C138.471 32.0269 137.394 33.2985 137.514 34.7471C137.634 36.1958 138.905 37.273 140.354 37.1531Z" fill="var(--fill-0, #00AB41)"/>
<path id="Vector_10" d="M145.303 36.5438C105.972 25.1955 61.9662 25.1955 22.6343 36.5438C20.6474 37.1171 18.4154 36.4308 17.5253 34.9665C16.5472 33.3576 17.5646 31.451 19.7496 30.8241C60.9488 19.0059 106.989 19.0059 148.187 30.8241C150.372 31.451 151.39 33.3576 150.411 34.9665C149.521 36.4299 147.289 37.1171 145.303 36.5438H145.303Z" fill="var(--fill-0, #00AB41)"/>
<g id="Group_2">
<path id="Vector_11" d="M110.316 132.622H59.8923C58.9687 132.872 58.2872 133.714 58.2872 134.717V142.072H111.92V134.717C111.92 133.714 111.24 132.873 110.315 132.622H110.316Z" fill="var(--fill-0, #00AB41)"/>
<g id="Group_3">
<path id="Vector_12" d="M95.0875 120.931V110.51C95.0875 106.354 92.5473 102.792 88.9352 101.29V14.099C88.9352 12.0154 87.246 10.3261 85.1624 10.3261C83.0788 10.3261 81.3895 12.0154 81.3895 14.099V101.244C77.7162 102.718 75.1205 106.31 75.1205 110.51V120.931H95.0875Z" fill="var(--fill-0, #00AB41)"/>
<path id="Vector_13" d="M99.9747 123.494H70.4665C67.2956 124.03 64.8694 126.754 64.7938 130.06H105.648C105.573 126.754 103.147 124.03 99.9757 123.494H99.9747Z" fill="var(--fill-0, #00AB41)"/>
</g>
</g>
</g>
</svg>
