<svg preserveAspectRatio="none" width="100%" height="100%" overflow="visible" style="display: block;" viewBox="0 0 915 435" fill="none" xmlns="http://www.w3.org/2000/svg">
<path id="Vector" fill-rule="evenodd" clip-rule="evenodd" d="M325.132 252.915C333.048 245.23 339.516 237.352 347.48 230.055C355.589 222.66 365.725 216.619 373.786 209.128C388.894 195.064 405.401 183.658 420.944 170.609C454.731 142.287 488.712 114.835 522.789 86.7556C528.967 82.0192 535.194 77.2829 541.372 72.5465C551.653 63.7504 562.272 55.2443 573.325 47.5598C574.629 46.6415 576.752 46.4482 578.007 45.4816C579.552 44.3217 586.357 37.9421 587.226 36.6372C587.564 35.8155 587.95 34.9939 588.288 34.1723C590.509 31.8041 593.887 29.2426 596.156 26.9711C596.639 25.6179 597.121 24.2646 597.604 22.9114C600.017 19.1416 607.499 10.7805 603.3 5.12589C601.176 2.2744 595.094 -0.0938024 590.074 0.00285804C578.635 0.196179 568.643 2.56439 557.686 4.30428C545.764 6.18916 534.373 10.4422 523.175 13.487C491.753 21.9931 461.634 31.8041 432.431 43.5484C411.049 52.1512 390.583 62.7355 369.249 71.1449C361.043 74.3831 353.369 79.8444 345.211 83.5658C342.026 85.644 338.84 87.7705 335.606 89.8487C326.821 94.5368 318.037 99.2248 309.204 103.913C306.646 105.653 304.136 107.441 301.577 109.181C288.593 115.512 275.995 123.197 264.17 131.413C256.785 136.536 248.579 140.257 241.387 145.815C238.636 147.362 235.885 148.908 233.182 150.455C219.763 161.136 204.076 168.772 190.513 179.26C185.928 182.014 181.342 184.769 176.805 187.524C166.476 196.224 154.988 203.618 144.514 211.931C127.186 225.705 110.968 240.107 94.3152 254.896C89.9711 258.714 84.3238 261.953 80.1728 265.964C69.6504 276.21 59.6107 286.263 48.7987 295.735C48.4608 296.799 48.123 297.862 47.7851 298.925C40.5449 306.706 31.9533 313.424 25.6302 323.09C24.1822 325.265 25.5818 326.957 24.4717 328.938C22.1066 332.031 19.7415 335.173 17.3281 338.266C13.6115 343.534 12.3082 348.464 8.83295 354.408C6.27475 358.758 2.26851 363.349 0.820471 369.439C0.530864 370.937 0.289607 372.435 0 373.885C0 377.607 1.15839 385.243 3.28218 387.901C11.0533 397.664 20.2242 397.47 31.5189 394.909C35.9113 393.894 40.4001 394.184 44.3098 392.589C54.9288 388.239 65.1615 377.655 73.9462 369.971C76.2631 368.569 78.5318 367.119 80.8486 365.718C86.8821 360.16 93.9291 356.1 99.7212 350.349C102.81 348.319 105.9 346.289 109.037 344.211C115.07 338.459 121.78 334.11 127.91 328.842C137.129 320.867 145.817 313.086 154.891 305.111C159.429 301.148 165.703 298.49 170.144 294.527C172.557 292.401 174.102 289.694 176.66 287.761C192.589 275.388 209.868 263.982 225.362 251.078C235.112 242.959 244.621 235.564 253.937 226.768C259.874 221.162 267.886 217.44 274.065 212.221C278.988 208.064 287.193 199.848 293.275 198.398C293.372 198.398 293.42 198.398 293.517 198.447C292.117 201.298 289.8 202.216 287.966 204.246C284.297 208.258 281.401 212.317 277.637 215.749C275.271 218.842 272.906 221.983 270.493 225.077C264.652 230.925 258.474 237.063 252.585 242.621C251.186 244.65 249.834 246.68 248.434 248.758C243.801 253.495 238.636 259.294 233.954 264.176C232.796 265.964 231.637 267.704 230.479 269.492C214.357 286.263 196.595 303.082 183.225 323.719C175.936 334.931 155.181 367.264 167.007 380.458C184.238 399.694 210.592 374.9 224.3 368.376C261.418 350.735 294.675 325.99 332.855 309.944C336.861 307.48 340.916 305.015 344.922 302.502C349.025 299.409 356.023 296.702 360.995 294.817C365.774 293.029 371.035 287.423 376.537 287.229C376.537 287.471 376.537 287.713 376.586 288.003C359.933 310.186 341.157 329.905 324.215 351.315C321.464 354.795 312.486 368.956 312.92 375.094C313.162 378.477 315.913 381.86 317.264 384.711C317.747 384.808 318.181 384.953 318.664 385.05C324.167 381.57 330.683 379.298 336.62 376.592C343.908 373.209 350.617 368.762 358.147 365.524C361.574 363.398 365.05 361.271 368.477 359.145C373.062 356.728 377.647 354.312 382.233 351.895C386.77 349.044 391.259 346.192 395.796 343.341C397.051 342.906 398.306 342.471 399.561 342.036C403.905 339.233 408.249 335.656 412.883 333.433C440.444 320.142 468.294 307.093 495.904 293.657C503.82 289.791 511.639 285.344 519.651 281.43C520.568 280.656 521.486 279.883 522.403 279.158C529.257 276.162 536.014 273.649 542.675 270.265C547.405 267.849 551.412 264.804 556.48 262.774C564.01 259.778 570.284 253.157 578.152 251.03C578.442 251.127 578.779 251.175 579.069 251.272C577.138 253.446 573.856 254.8 571.298 256.056C566.713 258.279 561.789 262.339 557.156 264.949C551.46 269.25 545.813 273.504 540.117 277.805C535.918 281.14 530.415 283.411 526.216 286.746C508.984 300.568 490.208 311.926 472.88 325.507C468.391 329.035 462.889 331.693 458.544 335.318C444.981 346.724 431.514 359.773 419.158 372.049C408.249 382.826 397.148 396.117 389.57 411.825C387.591 415.884 382.764 427.29 385.708 431.012C391.838 438.744 407.96 433.283 414.669 430.818C418.965 429.272 423.212 428.74 427.75 427.339C429.198 426.469 430.597 425.55 432.045 424.68C433.445 424.584 434.845 424.535 436.245 424.439C439.189 423.037 442.133 421.587 445.126 420.186C450.194 418.446 454.973 416.899 460.041 415.159C469.598 411.873 478.431 405.59 488.905 404.14C490.16 406.46 486.491 409.65 485.237 411.341C480.892 417.189 473.266 425.502 479.058 432.172C483.547 432.655 487.022 428.015 489.918 425.695C497.448 419.654 506.667 415.063 513.473 408.007C518.445 405.252 523.416 402.545 528.436 399.79C530.705 397.857 532.925 395.972 535.194 394.039C537.8 392.782 540.358 391.526 542.965 390.269C547.212 387.466 551.508 384.615 555.756 381.812C557.107 381.232 558.459 380.652 559.859 380.072C562.706 378.042 565.554 376.06 568.402 374.03C577.187 370.212 586.213 364.171 593.887 358.516C596.928 356.293 599.342 353.538 602.431 351.46C610.829 345.854 618.6 339.474 626.613 333.191C628.881 331.451 634.625 328.117 634.432 324.009C633.95 322.317 631.054 319.901 628.737 320.191C620 321.205 611.505 322.559 602.479 323.477L599.245 324.685C598.328 324.444 597.411 324.25 596.445 324.009C578.779 327.247 560.39 332.515 544.22 338.508C538.862 339.861 533.456 341.166 528.05 342.519C521.534 344.936 514.776 347.255 507.971 349.72C504.109 351.122 500.827 353.635 496.531 354.602C496.579 354.36 496.628 354.118 496.676 353.925C498.124 352.233 499.186 352.765 500.875 351.75C509.274 346.579 516.273 340.054 525.444 336.043C529.981 334.061 535.29 328.117 539.683 325.7C546.73 321.785 553.825 318.112 560.679 313.763C564.734 311.201 568.74 308.64 572.794 306.126C576.945 304.242 580.131 301.535 583.992 299.215C585.585 298.442 587.13 297.669 588.723 296.895C594.66 292.981 600.548 289.114 606.485 285.199C607.595 284.909 608.754 284.619 609.864 284.281C620.386 276.597 631.536 270.555 642.638 263.886C649.057 260.068 654.801 255.428 661.607 252.238C667.689 248.227 673.819 244.215 679.901 240.156C696.891 232.036 712.53 220.872 728.506 211.061C734.974 207.098 742.021 204.488 748.972 201.25C757.853 197.142 766.107 192.405 775.278 188.636C779.815 185.978 784.4 183.271 788.938 180.613C796.178 177.278 803.418 173.943 810.706 170.609C829.772 162.489 848.693 154.901 868.049 147.023C876.351 143.64 884.605 138.711 893.244 135.859C899.568 133.781 917.427 125.758 914.724 114.739C914 111.791 904.346 104.348 899.857 104.058C897.878 104.493 895.899 104.928 893.92 105.314C889.673 105.894 885.618 105.266 881.564 105.798C850.672 109.809 820.553 114.594 791.303 121.505C743.807 132.718 697.132 146.105 651.664 161.474C613.677 174.33 577.187 191.246 540.262 206.228C528.822 210.868 517.817 217.537 506.667 222.708C494.166 228.556 481.472 234.694 469.742 241.847C461.682 246.777 453.669 251.707 445.078 255.815C442.568 257.023 440.83 260.116 437.644 260.164C440.058 254.171 446.477 249.097 450.532 245.085C458.689 237.111 465.64 229.281 473.797 221.452C475.197 220.63 476.645 219.857 478.045 219.035C486.636 211.931 497.303 200.912 500.586 186.171C496.483 181.048 490.787 182.111 485.14 184.189C473.797 188.346 463.082 192.985 451.256 196.707C448.843 198.253 446.429 199.8 444.016 201.346C440.637 202.41 437.307 203.521 433.928 204.585C425.867 208.354 417.613 212.994 409.504 216.667C404.002 219.132 398.016 220.292 392.417 222.66C388.604 224.255 384.888 227.928 381.026 229.281C375.91 231.021 371.855 233.824 367.173 236.048C353.996 242.186 342.219 248.952 329.621 255.766C324.456 258.569 318.471 260.261 313.596 263.451C313.499 263.451 313.451 263.451 313.355 263.403C316.058 258.618 321.56 256.298 325.229 252.722L325.132 252.915Z" fill="var(--fill-0, #0269D9)"/>
</svg>
