<svg preserveAspectRatio="none" width="100%" height="100%" overflow="visible" style="display: block;" viewBox="0 0 688.403 361.77" fill="none" xmlns="http://www.w3.org/2000/svg">
<path id="Vector" fill-rule="evenodd" clip-rule="evenodd" d="M399.402 175.843C347.501 224.682 451.812 194.067 462.09 221.912C468.141 238.386 430.819 276.583 393.716 297.43C355.811 318.788 316.74 326.296 278.033 337.449C164.465 370.105 71.5981 365.95 27.716 347.946C-18.9361 328.775 -1.4416 295.754 41.3471 245.457C43.5339 242.906 45.5748 240.354 47.6159 237.876C145.075 170.959 260.539 199.534 251.865 148.435C199.673 144.645 285.469 25.2445 408.368 5.78185C483.667 -4.42329 544.096 -1.7991 562.174 19.1214C574.274 33.1171 547.741 67.5958 577.117 73.1357C596.653 76.7804 620.197 78.6757 646.366 78.3112C654.239 78.2383 722.395 77.2178 666.704 104.99C634.193 121.246 605.764 109.291 580.324 107.25C537.973 103.897 447.803 134.95 409.169 167.169C405.452 170.23 402.245 173.073 399.475 175.697L399.402 175.843Z" fill="var(--fill-0, #0269D9)"/>
</svg>
