<svg preserveAspectRatio="none" width="100%" height="100%" overflow="visible" style="display: block;" viewBox="0 0 953 750" fill="none" xmlns="http://www.w3.org/2000/svg">
<path id="Vector" fill-rule="evenodd" clip-rule="evenodd" d="M848.932 18.3464C837.481 21.7779 826.756 24.5328 816.465 29.4142C812.745 31.1541 807.817 34.199 803.855 35.5039C801.826 35.9872 799.748 36.4223 797.671 36.9056C796.463 37.8239 795.255 38.7421 794.047 39.6604C792.743 39.8538 791.438 40.0472 790.134 40.1921C780.133 45.3636 768.972 51.6466 758.488 55.6581C750.613 58.6546 744.042 61.4579 736.07 64.2128C733.655 65.7594 731.239 67.3543 728.775 68.9009C722.059 71.6558 716.552 74.7007 710.561 77.2139C700.56 81.3704 691.863 86.3485 682.828 90.7466C678.287 92.9215 673.745 93.8882 669.397 96.5465C656.739 104.328 644.177 113.124 630.166 119.504C623.596 116.701 622.146 110.417 613.933 108.436C611.227 108.533 608.522 108.629 605.816 108.726C589.631 108.726 575.475 111.674 562.382 115.927C520.494 129.412 485.031 147.004 451.211 168.705C440.872 175.326 431.451 182.141 421.788 189.149C414.831 194.176 406.762 197.849 401.883 204.905C401.593 205.002 401.303 205.098 401.061 205.195C397.003 198.767 383.137 194.369 372.218 195.819C370.334 196.35 368.498 196.93 366.614 197.462C356.999 195.577 349.752 202.634 342.795 206.838C328.397 215.586 314.531 223.513 300.52 232.551C294.964 236.127 289.601 240.767 283.417 243.86C281.195 246.083 278.924 248.258 276.701 250.482C274.092 252.705 270.855 253.72 268.005 255.75C266.314 257.586 264.623 259.423 262.98 261.259C252.351 269.862 243.075 279.529 233.026 288.615C207.419 311.621 181.426 336.318 163.309 366.525C154.225 381.653 149.104 397.795 142.002 414.905C136.881 427.277 130.986 441.439 128.281 455.793C127.894 457.871 125.769 459.418 125.189 461.061C122.145 469.519 121.372 477.349 117.893 485.662C112.724 497.938 105.67 509.102 104.994 525.438C101.805 526.357 98.6644 527.275 95.4757 528.193C90.0645 531.335 84.6534 534.476 79.2422 537.57C72.2367 542.306 65.7143 548.734 60.4964 555.259C57.1144 559.463 51.7516 562.508 48.4662 566.858C38.5135 580.053 31.2181 593.199 23.8261 609.148C21.1688 614.851 17.0621 620.699 14.5981 626.547C12.4723 631.574 10.1049 637.615 8.99373 642.593C8.51059 646.025 8.07576 649.408 7.59262 652.84C6.81959 655.498 4.50054 659.123 3.6792 661.684C1.69833 667.677 3.58254 674.105 1.98818 681.307C0.780332 686.72 -0.0893002 692.036 0.00732772 699.286C2.85785 705.762 3.38931 712.819 6.43309 719.44C9.67013 726.496 26.9182 740.077 34.1653 744.041C36.581 744.427 38.9967 744.766 41.4607 745.152C42.7652 745.877 44.0696 746.602 45.3741 747.376C49.1909 748.632 54.0223 748.487 57.1144 749.599H73.6378C84.2668 751.435 97.3116 746.506 106.685 744.089C113.255 742.397 118.956 741.769 125.43 740.754C127.556 739.836 129.73 738.918 131.856 737.999C142.582 734.664 152.873 732.586 162.391 727.753C168.285 724.756 173.599 719.15 178.914 715.574C181.619 713.737 183.939 713.495 186.209 711.417C190.413 712.19 193.601 715.67 198.529 716.685C204.569 717.894 212.83 716.492 218.145 715.574C225.295 714.365 232.881 715.09 239.983 713.35C247.182 711.61 254.67 707.212 260.709 703.974C262.835 703.346 265.009 702.669 267.135 702.041C270.565 700.011 274.044 697.981 277.474 695.951C279.359 695.323 281.195 694.646 283.079 694.018C288.538 690.973 293.708 686.14 298.781 682.708C306.318 678.117 313.903 673.477 321.488 668.886C328.494 662.167 335.499 655.45 342.505 648.731C349.849 642.883 356.999 636.359 362.942 629.109C368.063 622.874 375.165 618.186 380.576 612.241C385.891 605.33 391.205 598.418 396.52 591.507C399.226 585.901 401.931 580.246 404.637 574.64C405.458 570.966 406.328 567.293 407.149 563.572C410.048 559.125 416.087 554.485 420.29 551.151C428.89 544.384 435.606 535.588 444.399 528.773C449.037 525.148 453.047 520.412 456.719 515.772C462.324 508.667 470.15 503.109 475.755 495.86C478.46 493.443 481.166 491.075 483.872 488.658C492.085 478.654 502.617 470.099 509.913 459.369C516.773 449.268 525.518 436.557 528.127 423.169C530.736 409.782 515.614 403.643 524.214 392.479C532.475 381.846 545.134 372.566 556.149 364.592C566.972 355.457 577.794 346.371 588.616 337.236C592.53 333.273 596.443 329.31 600.357 325.347C615.865 313.457 629.49 300.069 645.192 288.325C649.202 284.458 653.212 280.592 657.222 276.726C664.904 271.457 671.136 264.836 678.528 259.326C711.672 234.677 742.496 207.66 774.866 182.238C812.648 152.562 845.55 118.102 884.104 89.3934C892.753 82.9653 900 73.8791 908.744 67.5477C924.93 55.8998 950.149 31.4924 953 7.56845C948.217 1.72037 941.163 3.12199 931.983 1.23706C908.599 -3.69273 878.983 7.27851 859.706 13.6582C856.082 15.2048 852.41 16.7998 848.787 18.3464H848.932Z" fill="var(--fill-0, #0269D9)"/>
</svg>
