<svg width="1440" height="483" viewBox="0 0 1440 483" fill="none" xmlns="http://www.w3.org/2000/svg">
<path fill-rule="evenodd" clip-rule="evenodd" d="M567.426 509.928C575.073 501.976 581.267 493.881 588.976 486.314C596.826 478.646 606.749 472.26 614.548 464.496C629.164 449.922 645.27 437.956 660.355 424.381C693.151 394.916 726.169 366.314 759.262 337.081C765.274 332.136 771.334 327.188 777.346 322.243C787.319 313.099 797.64 304.233 808.423 296.174C809.694 295.211 811.81 294.945 813.031 293.936C814.535 292.724 821.117 286.114 821.941 284.78C822.25 283.947 822.608 283.113 822.917 282.28C825.055 279.837 828.344 277.161 830.533 274.813C830.969 273.444 831.405 272.075 831.841 270.706C834.124 266.856 841.314 258.243 836.923 252.736C834.702 249.959 828.543 247.801 823.529 248.07C812.103 248.656 802.199 251.365 791.308 253.48C779.458 255.774 768.219 260.415 757.132 263.843C726.021 273.422 696.256 284.262 667.474 297.001C646.4 306.333 626.31 317.614 605.276 326.751C597.187 330.269 589.704 335.99 581.68 339.99C578.567 342.176 575.456 344.411 572.296 346.599C563.677 351.585 555.058 356.572 546.392 361.561C543.895 363.387 541.447 365.261 538.951 367.087C526.191 373.861 513.865 381.973 502.328 390.59C495.123 395.964 487.051 399.965 480.054 405.767C477.357 407.407 474.661 409.047 472.012 410.685C458.968 421.82 443.553 429.991 430.357 440.938C425.869 443.848 421.381 446.759 416.941 449.668C406.917 458.717 395.69 466.501 385.507 475.169C368.662 489.53 352.948 504.48 336.813 519.832C332.603 523.797 327.07 527.228 323.059 531.379C312.894 541.98 303.206 552.372 292.725 562.21C292.424 563.284 292.123 564.358 291.822 565.433C284.853 573.458 276.497 580.467 270.51 590.344C269.137 592.567 270.594 594.21 269.553 596.229C267.295 599.401 265.039 602.622 262.733 605.796C259.2 611.188 258.067 616.16 254.797 622.22C252.39 626.655 248.544 631.382 247.306 637.517C247.068 639.025 246.878 640.53 246.638 641.989C246.766 645.708 248.186 653.3 250.4 655.884C258.501 665.374 267.66 664.866 278.86 661.918C283.215 660.753 287.711 660.889 291.564 659.161C302.027 654.449 311.891 643.52 320.407 635.538C322.674 634.058 324.891 632.531 327.159 631.051C332.998 625.289 339.901 620.99 345.493 615.043C348.51 612.908 351.528 610.773 354.592 608.589C360.425 602.634 366.981 598.056 372.926 592.581C381.866 584.295 390.282 576.22 399.077 567.938C403.476 563.822 409.656 560.95 413.958 556.837C416.297 554.629 417.747 551.871 420.238 549.851C435.732 536.939 452.61 524.946 467.652 511.518C477.117 503.068 486.367 495.352 495.375 486.241C501.116 480.434 508.996 476.44 514.992 471.011C519.769 466.688 527.688 458.195 533.716 456.537C533.813 456.534 533.861 456.532 533.959 456.577C532.658 459.475 530.374 460.473 528.611 462.564C525.082 466.699 522.327 470.856 518.682 474.415C516.425 477.587 514.169 480.808 511.863 483.982C506.227 490.027 500.263 496.374 494.569 502.13C493.239 504.207 491.958 506.282 490.631 508.407C486.162 513.3 481.2 519.273 476.688 524.313C475.592 526.139 474.494 527.918 473.398 529.745C457.861 547.059 440.687 564.478 428.033 585.562C421.134 597.018 401.5 630.045 413.772 642.825C431.654 661.457 457.141 635.774 470.617 628.783C507.108 609.878 539.495 584.006 577.102 566.659C581.021 564.058 584.989 561.456 588.906 558.806C592.9 555.574 599.802 552.629 604.706 550.575C609.42 548.623 614.486 542.84 619.979 542.458C619.987 542.699 619.995 542.941 620.054 543.229C604.173 565.971 586.084 586.323 569.887 608.302C567.257 611.874 558.771 626.335 559.416 632.454C559.773 635.827 562.639 639.114 564.087 641.917C564.573 641.997 565.012 642.127 565.498 642.207C570.878 638.54 577.312 636.047 583.153 633.138C590.321 629.507 596.873 624.832 604.287 621.338C607.639 619.095 611.04 616.85 614.392 614.607C618.891 612.035 623.391 609.462 627.891 606.89C632.328 603.884 636.716 600.88 641.153 597.875C642.392 597.397 643.631 596.919 644.87 596.441C649.116 593.491 653.334 589.767 657.889 587.386C684.978 573.157 712.364 559.16 739.495 544.784C747.274 540.648 754.936 535.936 762.809 531.748C763.699 530.944 764.589 530.14 765.481 529.384C772.228 526.154 778.895 523.41 785.436 519.8C790.081 517.223 793.98 514.042 798.976 511.839C806.398 508.586 812.442 501.754 820.232 499.358C820.525 499.445 820.864 499.481 821.157 499.568C819.302 501.808 816.068 503.273 813.554 504.617C809.048 506.996 804.267 511.222 799.726 513.99C794.181 518.484 788.683 522.929 783.138 527.423C779.056 530.9 773.635 533.359 769.552 536.836C752.806 551.242 734.43 563.237 717.579 577.405C713.213 581.085 707.806 583.931 703.588 587.702C690.425 599.567 677.414 613.071 665.486 625.764C654.954 636.91 644.315 650.574 637.281 666.532C635.442 670.657 631.01 682.222 634.08 685.84C640.472 693.358 656.397 687.347 663.017 684.653C667.257 682.96 671.484 682.283 675.971 680.726C677.388 679.807 678.755 678.841 680.173 677.922C681.568 677.777 682.966 677.681 684.361 677.536C687.256 676.035 690.149 674.484 693.091 672.981C698.097 671.068 702.819 669.358 707.825 667.446C717.263 663.833 725.875 657.251 736.294 655.442C737.627 657.717 734.071 661.031 732.875 662.765C728.734 668.758 721.397 677.328 727.415 683.795C731.918 684.124 735.232 679.368 738.047 676.95C745.365 670.653 754.421 665.748 760.98 658.463C765.854 655.539 770.73 652.663 775.652 649.738C777.853 647.728 780.007 645.768 782.208 643.758C784.77 642.412 787.284 641.069 789.846 639.723C793.994 636.776 798.19 633.779 802.339 630.831C803.669 630.205 805 629.579 806.379 628.952C809.156 626.825 811.934 624.747 814.71 622.621C823.359 618.503 832.172 612.156 839.648 606.241C842.611 603.915 844.928 601.079 847.944 598.896C856.145 593.004 863.693 586.362 871.485 579.807C873.692 577.991 879.318 574.461 878.984 570.362C878.444 568.688 875.467 566.372 873.161 566.741C864.465 568.056 856.021 569.7 847.032 570.927L843.841 572.246C842.916 572.036 841.993 571.874 841.02 571.666C823.476 575.508 805.277 581.405 789.323 587.949C784.015 589.486 778.657 590.975 773.3 592.513C766.871 595.152 760.197 597.703 753.48 600.4C749.669 601.933 746.475 604.557 742.215 605.671C742.255 605.428 742.295 605.184 742.336 604.99C743.725 603.249 744.805 603.744 746.458 602.672C754.675 597.215 761.445 590.454 770.473 586.13C774.939 583.994 780.042 577.871 784.349 575.305C791.257 571.151 798.222 567.236 804.923 562.654C808.887 559.954 812.803 557.257 816.769 554.606C820.853 552.58 823.944 549.765 827.723 547.314C829.288 546.487 830.805 545.661 832.371 544.834C838.17 540.717 843.922 536.651 849.722 532.535C850.821 532.207 851.969 531.877 853.067 531.501C863.319 523.46 874.255 517.039 885.121 509.993C891.406 505.956 896.987 501.122 903.679 497.701C909.62 493.483 915.608 489.263 921.547 484.997C938.249 476.299 953.495 464.605 969.125 454.251C975.453 450.068 982.407 447.218 989.242 443.743C997.977 439.333 1006.06 434.316 1015.1 430.233C1019.54 427.421 1024.03 424.559 1028.48 421.746C1035.6 418.165 1042.72 414.583 1049.89 411C1068.66 402.231 1087.31 393.998 1106.39 385.461C1114.57 381.794 1122.65 376.584 1131.18 373.438C1137.43 371.144 1155.01 362.513 1151.93 351.593C1151.1 348.671 1141.2 341.564 1136.7 341.428C1134.74 341.931 1132.78 342.434 1130.81 342.888C1126.59 343.613 1122.51 343.125 1118.48 343.795C1087.74 348.865 1057.81 354.681 1028.81 362.592C981.728 375.429 935.54 390.41 890.626 407.331C853.103 421.484 817.215 439.642 780.826 455.883C769.552 460.913 758.783 467.956 747.817 473.507C735.524 479.781 723.048 486.351 711.571 493.903C703.684 499.106 695.846 504.308 687.4 508.708C684.933 510.002 683.303 513.153 680.121 513.311C682.327 507.239 688.569 501.946 692.483 497.798C700.362 489.548 707.039 481.485 714.923 473.38C716.294 472.511 717.714 471.688 719.085 470.819C727.428 463.424 737.71 452.045 740.485 437.2C736.208 432.221 730.553 433.479 724.98 435.75C713.786 440.293 703.237 445.298 691.546 449.423C689.187 451.052 686.828 452.68 684.469 454.309C681.129 455.487 677.838 456.713 674.498 457.891C666.572 461.936 658.482 466.856 650.504 470.805C645.089 473.458 639.147 474.822 633.633 477.381C629.877 479.106 626.288 482.905 622.476 484.39C617.422 486.304 613.466 489.245 608.863 491.628C595.905 498.214 584.366 505.381 572.01 512.624C566.945 515.603 561.021 517.499 556.258 520.854C556.162 520.857 556.114 520.859 556.015 520.814C558.553 515.939 563.972 513.432 567.516 509.732L567.426 509.928Z" fill="#F8B900"/>
<path fill-rule="evenodd" clip-rule="evenodd" d="M575.932 -70.1634C564.481 -66.7319 553.756 -63.977 543.465 -59.0955C539.745 -57.3556 534.817 -54.3108 530.855 -53.0058C528.826 -52.5225 526.748 -52.0875 524.671 -51.6042C523.463 -50.6859 522.255 -49.7676 521.047 -48.8493C519.743 -48.656 518.438 -48.4626 517.134 -48.3176C507.133 -43.1462 495.972 -36.8632 485.488 -32.8517C477.613 -29.8552 471.042 -27.0518 463.07 -24.297C460.655 -22.7504 458.239 -21.1554 455.775 -19.6088C449.059 -16.8539 443.552 -13.8091 437.561 -11.2958C427.56 -7.13934 418.863 -2.16127 409.828 2.23688C405.287 4.41178 400.745 5.37846 396.397 8.03669C383.739 15.818 371.177 24.6143 357.166 30.9941C350.596 28.1908 349.146 21.9077 340.933 19.9261C338.227 20.0228 335.522 20.1195 332.816 20.2161C316.631 20.2161 302.475 23.1643 289.382 27.4174C247.494 40.9019 212.031 58.4945 178.211 80.1953C167.872 86.8167 158.451 93.6313 148.788 100.639C141.831 105.666 133.762 109.339 128.883 116.395C128.593 116.492 128.303 116.589 128.061 116.685C124.003 110.257 110.137 105.859 99.218 107.309C97.3338 107.841 95.4978 108.421 93.6136 108.952C83.9991 107.067 76.752 114.124 69.7948 118.329C55.3973 127.077 41.5312 135.003 27.5201 144.041C21.964 147.617 16.6011 152.257 10.417 155.35C8.19452 157.574 5.92377 159.749 3.70132 161.972C1.09238 164.195 -2.14465 165.21 -4.99518 167.24C-6.68616 169.076 -8.37714 170.913 -10.0198 172.75C-20.6489 181.353 -29.9252 191.019 -39.9745 200.105C-65.5809 223.111 -91.5738 247.808 -109.691 278.015C-118.775 293.143 -123.896 309.286 -130.998 326.395C-136.119 338.768 -142.014 352.929 -144.719 367.283C-145.106 369.361 -147.231 370.908 -147.811 372.551C-150.855 381.009 -151.628 388.839 -155.107 397.152C-160.276 409.428 -167.33 420.593 -168.006 436.929C-171.195 437.847 -174.336 438.765 -177.524 439.683C-182.935 442.825 -188.347 445.967 -193.758 449.06C-200.763 453.796 -207.286 460.224 -212.504 466.749C-215.886 470.954 -221.248 473.999 -224.534 478.349C-234.486 491.543 -241.782 504.689 -249.174 520.638C-251.831 526.341 -255.938 532.189 -258.402 538.038C-260.528 543.064 -262.895 549.105 -264.006 554.084C-264.489 557.515 -264.924 560.898 -265.407 564.33C-266.18 566.988 -268.499 570.613 -269.321 573.174C-271.302 579.168 -269.417 585.596 -271.012 592.797C-272.22 598.21 -273.089 603.526 -272.993 610.776C-270.142 617.253 -269.611 624.309 -266.567 630.93C-263.33 637.987 -246.082 651.568 -238.835 655.531C-236.419 655.918 -234.003 656.256 -231.539 656.643C-230.235 657.367 -228.93 658.092 -227.626 658.866C-223.809 660.122 -218.978 659.977 -215.886 661.089H-199.362C-188.733 662.926 -175.688 657.996 -166.315 655.579C-159.745 653.888 -154.044 653.259 -147.57 652.244C-145.444 651.326 -143.27 650.408 -141.144 649.489C-130.418 646.155 -120.127 644.076 -110.609 639.243C-104.715 636.247 -99.4007 630.64 -94.0861 627.064C-91.3805 625.227 -89.0614 624.985 -86.7907 622.907C-82.5874 623.681 -79.3987 627.161 -74.4707 628.175C-68.4314 629.384 -60.1697 627.982 -54.8552 627.064C-47.7047 625.856 -40.1194 626.581 -33.0173 624.841C-25.8185 623.101 -18.3298 618.703 -12.2906 615.464C-10.1648 614.836 -7.99063 614.159 -5.86484 613.531C-2.43454 611.501 1.04407 609.471 4.47437 607.441C6.35861 606.813 8.19455 606.136 10.0788 605.508C15.5383 602.463 20.7079 597.63 25.7808 594.199C33.3178 589.607 40.9031 584.967 48.4884 580.376C55.4939 573.658 62.4995 566.94 69.505 560.222C76.8487 554.374 83.9991 547.849 89.9417 540.599C95.063 534.364 102.165 529.676 107.576 523.732C112.891 516.82 118.205 509.909 123.52 502.997C126.226 497.391 128.931 491.736 131.637 486.13C132.458 482.457 133.328 478.783 134.149 475.062C137.048 470.615 143.087 465.976 147.29 462.641C155.89 455.874 162.606 447.078 171.399 440.263C176.037 436.639 180.047 431.902 183.719 427.262C189.324 420.158 197.15 414.6 202.755 407.35C205.46 404.933 208.166 402.565 210.872 400.148C219.085 390.144 229.617 381.589 236.913 370.86C243.773 360.758 252.518 348.047 255.127 334.66C257.736 321.272 242.614 315.134 251.214 303.969C259.475 293.336 272.134 284.057 283.149 276.082C293.971 266.947 304.794 257.861 315.616 248.727C319.53 244.763 323.443 240.8 327.357 236.837C342.865 224.948 356.49 211.56 372.192 199.815C376.202 195.949 380.212 192.082 384.222 188.216C391.904 182.948 398.136 176.326 405.528 170.816C438.672 146.167 469.496 119.15 501.866 93.728C539.648 64.0526 572.55 29.5924 611.104 0.883606C619.753 -5.54446 627 -14.6307 635.744 -20.9621C651.93 -32.6099 677.149 -57.0173 680 -80.9413C675.217 -86.7894 668.163 -85.3878 658.983 -87.2727C635.599 -92.2025 605.983 -81.2313 586.706 -74.8515C583.082 -73.3049 579.41 -71.71 575.787 -70.1634H575.932Z" fill="#F8B900"/>
<path fill-rule="evenodd" clip-rule="evenodd" d="M1332.52 36.2345C1292.79 95.398 1387.67 42.3382 1403.89 67.1983C1413.45 81.9129 1385.56 127.457 1354.03 156.038C1321.83 185.295 1285.41 201.309 1250.15 220.796C1146.7 277.905 1055.24 294.52 1008.45 286.732C958.7 278.423 968.408 242.337 998.931 183.779C1000.5 180.805 1001.92 177.864 1003.36 174.993C1083.48 88.0675 1202.41 90.2316 1182.58 42.3445C1130.85 50.2631 1187.93 -85.2351 1303.42 -131.558C1374.56 -158.263 1434.05 -169.152 1456.33 -152.779C1471.24 -141.827 1453.05 -102.308 1482.92 -103.444C1502.78 -104.238 1526.15 -107.63 1551.59 -113.808C1559.24 -115.631 1625.46 -131.793 1577.35 -92.3237C1549.27 -69.2414 1518.9 -74.5701 1493.64 -70.8989C1451.6 -64.7437 1370.61 -14.4043 1340.11 25.604C1337.17 29.416 1334.67 32.9013 1332.56 36.0761L1332.52 36.2345Z" fill="#F8B900"/>
</svg>
