<svg width="680" height="483" viewBox="0 0 680 483" fill="none" xmlns="http://www.w3.org/2000/svg">
<rect width="680" height="483" fill="#F5F5F5"/>
<g id="DESIGN">
<path d="M-10566 -3986C-10566 -3987.1 -10565.1 -3988 -10564 -3988H28206C28207.1 -3988 28208 -3987.1 28208 -3986V17883C28208 17884.1 28207.1 17885 28206 17885H-10564C-10565.1 17885 -10566 17884.1 -10566 17883V-3986Z" fill="#282828"/>
<path d="M-10564 -3988V-3987H28206V-3988V-3989H-10564V-3988ZM28208 -3986H28207V17883H28208H28209V-3986H28208ZM28206 17885V17884H-10564V17885V17886H28206V17885ZM-10566 17883H-10565V-3986H-10566H-10567V17883H-10566ZM-10564 17885V17884C-10564.6 17884 -10565 17883.6 -10565 17883H-10566H-10567C-10567 17884.7 -10565.7 17886 -10564 17886V17885ZM28208 17883H28207C28207 17883.6 28206.6 17884 28206 17884V17885V17886C28207.7 17886 28209 17884.7 28209 17883H28208ZM28206 -3988V-3987C28206.6 -3987 28207 -3986.55 28207 -3986H28208H28209C28209 -3987.66 28207.7 -3989 28206 -3989V-3988ZM-10564 -3988V-3989C-10565.7 -3989 -10567 -3987.66 -10567 -3986H-10566H-10565C-10565 -3986.55 -10564.6 -3987 -10564 -3987V-3988Z" fill="white" fill-opacity="0.1"/>
<g id="02_01_Company_PC">
<rect width="1440" height="5407" transform="translate(0 -3444)" fill="#FF3F31"/>
<g id="Frame 178" clip-path="url(#clip0_0_1)">
<rect width="1440" height="483" fill="#FFBE00"/>
<path id="Vector" fill-rule="evenodd" clip-rule="evenodd" d="M575.932 -70.1634C564.481 -66.7319 553.756 -63.977 543.465 -59.0955C539.745 -57.3556 534.817 -54.3108 530.855 -53.0058C528.826 -52.5225 526.748 -52.0875 524.671 -51.6042C523.463 -50.6859 522.255 -49.7676 521.047 -48.8493C519.743 -48.656 518.438 -48.4626 517.134 -48.3176C507.133 -43.1462 495.972 -36.8632 485.488 -32.8517C477.613 -29.8552 471.042 -27.0518 463.07 -24.297C460.655 -22.7504 458.239 -21.1554 455.775 -19.6088C449.059 -16.8539 443.552 -13.8091 437.561 -11.2958C427.56 -7.13934 418.863 -2.16127 409.828 2.23688C405.287 4.41178 400.745 5.37846 396.397 8.03669C383.739 15.818 371.177 24.6143 357.166 30.9941C350.596 28.1908 349.146 21.9077 340.933 19.9261C338.227 20.0228 335.522 20.1195 332.816 20.2161C316.631 20.2161 302.475 23.1643 289.382 27.4174C247.494 40.9019 212.031 58.4945 178.211 80.1953C167.872 86.8167 158.451 93.6313 148.788 100.639C141.831 105.666 133.762 109.339 128.883 116.395C128.593 116.492 128.303 116.589 128.061 116.685C124.003 110.257 110.137 105.859 99.218 107.309C97.3338 107.841 95.4978 108.421 93.6136 108.952C83.9991 107.067 76.752 114.124 69.7948 118.329C55.3973 127.077 41.5312 135.003 27.5201 144.041C21.964 147.617 16.6011 152.257 10.417 155.35C8.19452 157.574 5.92377 159.749 3.70132 161.972C1.09238 164.195 -2.14465 165.21 -4.99518 167.24C-6.68616 169.076 -8.37714 170.913 -10.0198 172.75C-20.6489 181.353 -29.9252 191.019 -39.9745 200.105C-65.5809 223.111 -91.5738 247.808 -109.691 278.015C-118.775 293.143 -123.896 309.286 -130.998 326.395C-136.119 338.768 -142.014 352.929 -144.719 367.283C-145.106 369.361 -147.231 370.908 -147.811 372.551C-150.855 381.009 -151.628 388.839 -155.107 397.152C-160.276 409.428 -167.33 420.593 -168.006 436.929C-171.195 437.847 -174.336 438.765 -177.524 439.683C-182.935 442.825 -188.347 445.967 -193.758 449.06C-200.763 453.796 -207.286 460.224 -212.504 466.749C-215.886 470.954 -221.248 473.999 -224.534 478.349C-234.486 491.543 -241.782 504.689 -249.174 520.638C-251.831 526.341 -255.938 532.189 -258.402 538.038C-260.528 543.064 -262.895 549.105 -264.006 554.084C-264.489 557.515 -264.924 560.898 -265.407 564.33C-266.18 566.988 -268.499 570.613 -269.321 573.174C-271.302 579.168 -269.417 585.596 -271.012 592.797C-272.22 598.21 -273.089 603.526 -272.993 610.776C-270.142 617.253 -269.611 624.309 -266.567 630.93C-263.33 637.987 -246.082 651.568 -238.835 655.531C-236.419 655.918 -234.003 656.256 -231.539 656.643C-230.235 657.367 -228.93 658.092 -227.626 658.866C-223.809 660.122 -218.978 659.977 -215.886 661.089H-199.362C-188.733 662.926 -175.688 657.996 -166.315 655.579C-159.745 653.888 -154.044 653.259 -147.57 652.244C-145.444 651.326 -143.27 650.408 -141.144 649.489C-130.418 646.155 -120.127 644.076 -110.609 639.243C-104.715 636.247 -99.4007 630.64 -94.0861 627.064C-91.3805 625.227 -89.0614 624.985 -86.7907 622.907C-82.5874 623.681 -79.3987 627.161 -74.4707 628.175C-68.4314 629.384 -60.1697 627.982 -54.8552 627.064C-47.7047 625.856 -40.1194 626.581 -33.0173 624.841C-25.8185 623.101 -18.3298 618.703 -12.2906 615.464C-10.1648 614.836 -7.99063 614.159 -5.86484 613.531C-2.43454 611.501 1.04407 609.471 4.47437 607.441C6.35861 606.813 8.19455 606.136 10.0788 605.508C15.5383 602.463 20.7079 597.63 25.7808 594.199C33.3178 589.607 40.9031 584.967 48.4884 580.376C55.4939 573.658 62.4995 566.94 69.505 560.222C76.8487 554.374 83.9991 547.849 89.9417 540.599C95.063 534.364 102.165 529.676 107.576 523.732C112.891 516.82 118.205 509.909 123.52 502.997C126.226 497.391 128.931 491.736 131.637 486.13C132.458 482.457 133.328 478.783 134.149 475.062C137.048 470.615 143.087 465.976 147.29 462.641C155.89 455.874 162.606 447.078 171.399 440.263C176.037 436.639 180.047 431.902 183.719 427.262C189.324 420.158 197.15 414.6 202.755 407.35C205.46 404.933 208.166 402.565 210.872 400.148C219.085 390.144 229.617 381.589 236.913 370.86C243.773 360.758 252.518 348.047 255.127 334.66C257.736 321.272 242.614 315.134 251.214 303.969C259.475 293.336 272.134 284.057 283.149 276.082C293.971 266.947 304.794 257.861 315.616 248.727C319.53 244.763 323.443 240.8 327.357 236.837C342.865 224.948 356.49 211.56 372.192 199.815C376.202 195.949 380.212 192.082 384.222 188.216C391.904 182.948 398.136 176.326 405.528 170.816C438.672 146.167 469.496 119.15 501.866 93.728C539.648 64.0526 572.55 29.5924 611.104 0.883606C619.753 -5.54446 627 -14.6307 635.744 -20.9621C651.93 -32.6099 677.149 -57.0173 680 -80.9413C675.217 -86.7894 668.163 -85.3878 658.983 -87.2727C635.599 -92.2025 605.983 -81.2313 586.706 -74.8515C583.082 -73.3049 579.41 -71.71 575.787 -70.1634H575.932Z" fill="#F8B900"/>
</g>
</g>
</g>
<defs>
<clipPath id="clip0_0_1">
<rect width="1440" height="483" fill="white"/>
</clipPath>
</defs>
</svg>
