<svg width="906" height="235" viewBox="0 0 906 235" fill="none" xmlns="http://www.w3.org/2000/svg">
<rect width="906" height="235" fill="#F5F5F5"/>
<g id="DESIGN">
<path d="M-10812.6 -4234.05C-10812.6 -4235.15 -10811.7 -4236.05 -10810.6 -4236.05H27959.4C27960.5 -4236.05 27961.4 -4235.15 27961.4 -4234.05V17635C27961.4 17636.1 27960.5 17637 27959.4 17637H-10810.6C-10811.7 17637 -10812.6 17636.1 -10812.6 17635V-4234.05Z" fill="#282828"/>
<path d="M-10810.6 -4236.05V-4235.05H27959.4V-4236.05V-4237.05H-10810.6V-4236.05ZM27961.4 -4234.05H27960.4V17635H27961.4H27962.4V-4234.05H27961.4ZM27959.4 17637V17636H-10810.6V17637V17638H27959.4V17637ZM-10812.6 17635H-10811.6V-4234.05H-10812.6H-10813.6V17635H-10812.6ZM-10810.6 17637V17636C-10811.2 17636 -10811.6 17635.5 -10811.6 17635H-10812.6H-10813.6C-10813.6 17636.6 -10812.3 17638 -10810.6 17638V17637ZM27961.4 17635H27960.4C27960.4 17635.5 27959.9 17636 27959.4 17636V17637V17638C27961 17638 27962.4 17636.6 27962.4 17635H27961.4ZM27959.4 -4236.05V-4235.05C27959.9 -4235.05 27960.4 -4234.6 27960.4 -4234.05H27961.4H27962.4C27962.4 -4235.7 27961 -4237.05 27959.4 -4237.05V-4236.05ZM-10810.6 -4236.05V-4237.05C-10812.3 -4237.05 -10813.6 -4235.7 -10813.6 -4234.05H-10812.6H-10811.6C-10811.6 -4234.6 -10811.2 -4235.05 -10810.6 -4235.05V-4236.05Z" fill="white" fill-opacity="0.1"/>
<g id="02_01_Company_PC">
<rect width="1440" height="5407" transform="translate(-246.639 -3692.05)" fill="#FF3F31"/>
<g id="Frame 178" clip-path="url(#clip0_0_1)">
<rect width="1440" height="483" transform="translate(-246.639 -248.047)" fill="#FFBE00"/>
<path id="Vector" fill-rule="evenodd" clip-rule="evenodd" d="M320.787 261.881C328.435 253.93 334.628 245.834 342.337 238.267C350.188 230.599 360.11 224.213 367.909 216.45C382.525 201.875 398.632 189.909 413.717 176.334C446.512 146.869 479.53 118.268 512.623 89.0343C518.635 84.0887 524.695 79.1413 530.707 74.1957C540.68 65.0518 551.001 56.1862 561.784 48.1267C563.055 47.1642 565.171 46.8981 566.392 45.889C567.896 44.6767 574.478 38.0673 575.302 36.7333C575.611 35.9006 575.969 35.0662 576.279 34.2334C578.416 31.7904 581.705 29.1145 583.894 26.7664C584.33 25.3974 584.766 24.0284 585.202 22.6593C587.485 18.809 594.675 10.1959 590.284 4.68879C588.064 1.91189 581.904 -0.24613 576.891 0.0228075C565.464 0.608734 555.56 3.31856 544.67 5.43358C532.819 7.72663 521.581 12.3682 510.494 15.7957C479.382 25.3755 449.617 36.2147 420.836 48.9546C399.761 58.2864 379.671 69.567 358.638 78.7039C350.548 82.2218 343.066 87.9434 335.041 91.9427C331.928 94.129 328.818 96.3637 325.657 98.5517C317.038 103.539 308.42 108.525 299.753 113.514C297.256 115.341 294.809 117.214 292.312 119.041C279.553 125.814 267.226 133.926 255.69 142.544C248.485 147.917 240.412 151.918 233.415 157.72C230.718 159.36 228.022 161 225.374 162.638C212.33 173.774 196.914 181.944 183.719 192.891C179.231 195.802 174.742 198.712 170.303 201.621C160.278 210.67 149.051 218.455 138.868 227.122C122.023 241.483 106.309 256.434 90.1744 271.786C85.9639 275.751 80.4311 279.181 76.4202 283.332C66.2558 293.933 56.5671 304.325 46.0867 314.163C45.7855 315.237 45.4844 316.312 45.1832 317.386C38.2144 325.411 29.8585 332.42 23.8709 342.297C22.4984 344.521 23.9553 346.163 22.9139 348.182C20.6563 351.354 18.4005 354.575 16.0947 357.749C12.5612 363.142 11.4279 368.113 8.15873 374.174C5.75137 378.609 1.90511 383.335 0.666982 389.47C0.42898 390.978 0.2393 392.483 -0.000359853 393.942C0.127397 397.662 1.54726 405.253 3.76105 407.837C11.8627 417.327 21.0216 416.819 32.2217 413.872C36.5766 412.706 41.0728 412.842 44.9255 411.114C55.3888 406.402 65.2521 395.473 73.7679 387.491C76.0352 386.011 78.2528 384.484 80.5202 383.004C86.3593 377.242 93.2628 372.943 98.854 366.996C101.872 364.861 104.889 362.727 107.954 360.542C113.786 354.587 120.342 350.009 126.288 344.534C135.228 336.248 143.644 328.173 152.439 319.891C156.837 315.775 163.017 312.903 167.319 308.79C169.658 306.582 171.109 303.824 173.599 301.804C189.093 288.892 205.971 276.899 221.013 263.471C230.479 255.021 239.728 247.305 248.736 238.194C254.477 232.387 262.357 228.393 268.353 222.964C273.131 218.641 281.049 210.148 287.078 208.491C287.174 208.487 287.222 208.486 287.32 208.531C286.019 211.428 283.735 212.426 281.972 214.517C278.443 218.652 275.689 222.809 272.044 226.368C269.786 229.54 267.53 232.761 265.224 235.935C259.588 241.98 253.624 248.327 247.93 254.084C246.601 256.16 245.32 258.235 243.992 260.36C239.524 265.253 234.561 271.226 230.049 276.266C228.953 278.093 227.855 279.871 226.759 281.698C211.223 299.012 194.048 316.431 181.394 337.515C174.495 348.971 154.862 381.998 167.133 394.778C185.015 413.411 210.503 387.727 223.979 380.736C260.469 361.831 292.857 335.959 330.463 318.612C334.383 316.011 338.35 313.409 342.268 310.759C346.262 307.527 353.163 304.582 358.067 302.528C362.782 300.576 367.847 294.793 373.34 294.411C373.348 294.652 373.357 294.894 373.415 295.182C357.534 317.924 339.446 338.276 323.249 360.255C320.618 363.827 312.132 378.288 312.777 384.407C313.134 387.78 316 391.067 317.449 393.87C317.934 393.95 318.374 394.08 318.859 394.16C324.239 390.494 330.673 388 336.514 385.091C343.682 381.46 350.235 376.786 357.649 373.291C361.001 371.048 364.401 368.803 367.753 366.56C372.253 363.988 376.752 361.415 381.252 358.843C385.689 355.837 390.077 352.833 394.514 349.828C395.753 349.35 396.993 348.872 398.232 348.394C402.477 345.444 406.696 341.72 411.25 339.339C438.339 325.11 465.725 311.113 492.857 296.737C500.635 292.601 508.297 287.889 516.171 283.701C517.061 282.897 517.951 282.093 518.842 281.337C525.589 278.107 532.257 275.363 538.798 271.753C543.442 269.176 547.341 265.995 552.337 263.793C559.759 260.539 565.803 253.707 573.593 251.311C573.886 251.398 574.225 251.435 574.518 251.521C572.663 253.761 569.429 255.226 566.916 256.57C562.409 258.949 557.628 263.176 553.087 265.943C547.542 270.437 542.044 274.882 536.5 279.376C532.417 282.853 526.996 285.312 522.914 288.789C506.167 303.195 487.792 315.191 470.94 329.358C466.575 333.038 461.167 335.884 456.95 339.656C443.786 351.52 430.775 365.024 418.847 377.717C408.315 388.863 397.676 402.527 390.642 418.485C388.804 422.61 384.371 434.175 387.442 437.793C393.833 445.311 409.758 439.3 416.379 436.606C420.619 434.913 424.846 434.236 429.332 432.679C430.749 431.76 432.117 430.794 433.534 429.875C434.93 429.731 436.327 429.634 437.723 429.49C440.617 427.988 443.51 426.438 446.453 424.934C451.458 423.021 456.181 421.312 461.186 419.399C470.625 415.786 479.237 409.204 489.655 407.395C490.989 409.67 487.432 412.984 486.236 414.718C482.095 420.712 474.759 429.281 480.776 435.748C485.279 436.077 488.593 431.321 491.408 428.903C498.726 422.607 507.782 417.701 514.341 410.416C519.216 407.492 524.091 404.616 529.014 401.691C531.214 399.681 533.369 397.721 535.57 395.711C538.131 394.366 540.645 393.022 543.207 391.677C547.356 388.729 551.551 385.732 555.7 382.785C557.031 382.159 558.361 381.533 559.741 380.905C562.517 378.778 565.295 376.7 568.072 374.574C576.72 370.456 585.533 364.109 593.009 358.194C595.972 355.868 598.29 353.032 601.305 350.849C609.507 344.957 617.054 338.315 624.846 331.761C627.054 329.944 632.68 326.414 632.346 322.315C631.805 320.641 628.828 318.325 626.522 318.694C617.826 320.009 609.382 321.653 600.393 322.88L597.202 324.199C596.278 323.989 595.354 323.827 594.381 323.619C576.837 327.462 558.639 333.358 542.684 339.902C537.376 341.439 532.018 342.928 526.662 344.466C520.232 347.105 513.558 349.656 506.841 352.353C503.03 353.886 499.836 356.51 495.576 357.624C495.616 357.381 495.656 357.138 495.698 356.943C497.087 355.202 498.166 355.697 499.82 354.625C508.036 349.168 514.807 342.407 523.834 338.084C528.301 335.947 533.403 329.824 537.71 327.258C544.619 323.104 551.583 319.189 558.284 314.607C562.248 311.908 566.164 309.21 570.13 306.559C574.214 304.533 577.305 301.719 581.084 299.268C582.65 298.44 584.167 297.614 585.732 296.787C591.531 292.67 597.284 288.604 603.083 284.488C604.182 284.16 605.33 283.83 606.428 283.454C616.68 275.413 627.616 268.992 638.482 261.946C644.767 257.909 650.348 253.075 657.041 249.654C662.981 245.436 668.97 241.216 674.909 236.95C691.61 228.252 706.856 216.558 722.487 206.204C728.815 202.021 735.768 199.171 742.603 195.696C751.338 191.286 759.425 186.269 768.461 182.186C772.904 179.374 777.394 176.512 781.837 173.699C788.959 170.118 796.08 166.537 803.25 162.954C822.026 154.184 840.675 145.951 859.748 137.414C867.929 133.748 876.009 128.537 884.546 125.391C890.794 123.097 908.367 114.466 905.287 103.546C904.463 100.624 894.559 93.5172 890.063 93.3815C888.1 93.8842 886.137 94.3868 884.173 94.8412C879.948 95.5666 875.874 95.0779 871.84 95.7484C841.105 100.818 811.167 106.634 782.172 114.545C735.089 127.382 688.901 142.364 643.987 159.284C606.464 173.437 570.576 191.595 534.187 207.836C522.914 212.866 512.144 219.91 501.178 225.461C488.885 231.734 476.409 238.304 464.932 245.856C457.046 251.059 449.207 256.261 440.762 260.662C438.295 261.955 436.664 265.106 433.482 265.264C435.688 259.192 441.93 253.9 445.844 249.751C453.723 241.502 460.401 233.438 468.284 225.333C469.655 224.464 471.076 223.641 472.446 222.772C480.789 215.377 491.072 203.998 493.846 189.153C489.57 184.174 483.914 185.432 478.341 187.703C467.148 192.246 456.598 197.251 444.907 201.376C442.548 203.005 440.189 204.633 437.83 206.262C434.49 207.441 431.2 208.666 427.859 209.845C419.933 213.889 411.843 218.809 403.865 222.758C398.451 225.411 392.509 226.775 386.994 229.334C383.238 231.059 379.65 234.858 375.837 236.343C370.783 238.257 366.827 241.198 362.224 243.581C349.266 250.167 337.728 257.334 325.371 264.577C320.306 267.556 314.382 269.452 309.619 272.807C309.523 272.81 309.475 272.812 309.377 272.767C311.914 267.892 317.333 265.385 320.877 261.685L320.787 261.881Z" fill="#F8B900"/>
</g>
</g>
</g>
<defs>
<clipPath id="clip0_0_1">
<rect width="1440" height="483" fill="white" transform="translate(-246.639 -248.047)"/>
</clipPath>
</defs>
</svg>
