<svg width="467" height="289" viewBox="0 0 467 289" fill="none" xmlns="http://www.w3.org/2000/svg">
<rect width="467" height="289" fill="#F5F5F5"/>
<g id="DESIGN">
<path d="M-11539.6 -3986C-11539.6 -3987.1 -11538.7 -3988 -11537.6 -3988H27232.4C27233.5 -3988 27234.4 -3987.1 27234.4 -3986V17883C27234.4 17884.1 27233.5 17885 27232.4 17885H-11537.6C-11538.7 17885 -11539.6 17884.1 -11539.6 17883V-3986Z" fill="#282828"/>
<path d="M-11537.6 -3988V-3987H27232.4V-3988V-3989H-11537.6V-3988ZM27234.4 -3986H27233.4V17883H27234.4H27235.4V-3986H27234.4ZM27232.4 17885V17884H-11537.6V17885V17886H27232.4V17885ZM-11539.6 17883H-11538.6V-3986H-11539.6H-11540.6V17883H-11539.6ZM-11537.6 17885V17884C-11538.1 17884 -11538.6 17883.6 -11538.6 17883H-11539.6H-11540.6C-11540.6 17884.7 -11539.2 17886 -11537.6 17886V17885ZM27234.4 17883H27233.4C27233.4 17883.6 27233 17884 27232.4 17884V17885V17886C27234.1 17886 27235.4 17884.7 27235.4 17883H27234.4ZM27232.4 -3988V-3987C27233 -3987 27233.4 -3986.55 27233.4 -3986H27234.4H27235.4C27235.4 -3987.66 27234.1 -3989 27232.4 -3989V-3988ZM-11537.6 -3988V-3989C-11539.2 -3989 -11540.6 -3987.66 -11540.6 -3986H-11539.6H-11538.6C-11538.6 -3986.55 -11538.1 -3987 -11537.6 -3987V-3988Z" fill="white" fill-opacity="0.1"/>
<g id="02_01_Company_PC">
<rect width="1440" height="5407" transform="translate(-973.588 -3444)" fill="#FF3F31"/>
<g id="Frame 178" clip-path="url(#clip0_0_1)">
<rect width="1440" height="483" transform="translate(-973.588)" fill="#FFBE00"/>
<path id="Vector" fill-rule="evenodd" clip-rule="evenodd" d="M358.929 36.2345C319.198 95.398 414.081 42.3382 430.298 67.1983C439.862 81.9129 411.976 127.457 380.442 156.038C348.241 185.295 311.82 201.309 276.566 220.796C173.112 277.905 81.6487 294.52 34.8603 286.732C-14.8881 278.423 -5.1803 242.337 25.3432 183.779C26.9074 180.805 28.3295 177.864 29.7678 174.993C109.893 88.0675 228.82 90.2316 208.992 42.3445C157.266 50.2631 214.341 -85.2351 329.827 -131.558C400.968 -158.263 460.466 -169.152 482.745 -152.779C497.657 -141.827 479.461 -102.308 509.333 -103.444C529.19 -104.238 552.566 -107.63 577.998 -113.808C585.657 -115.631 651.877 -131.793 603.762 -92.3237C575.684 -69.2414 545.308 -74.5701 520.052 -70.8989C478.016 -64.7437 397.017 -14.4043 366.522 25.604C363.579 29.416 361.085 32.9013 358.968 36.0761L358.929 36.2345Z" fill="#F8B900"/>
</g>
</g>
</g>
<defs>
<clipPath id="clip0_0_1">
<rect width="1440" height="483" fill="white" transform="translate(-973.588)"/>
</clipPath>
</defs>
</svg>
