<svg width="1003" height="1578" viewBox="0 0 1203 1378" fill="none" xmlns="http://www.w3.org/2000/svg">
<path fill-rule="evenodd" clip-rule="evenodd" d="M1158.31 8.7818C1152.84 10.4244 1147.72 11.743 1142.81 14.0796C1141.03 14.9125 1138.68 16.3699 1136.79 16.9946C1135.82 17.2259 1134.83 17.4341 1133.84 17.6655C1133.26 18.105 1132.68 18.5446 1132.11 18.9841C1131.48 19.0767 1130.86 19.1692 1130.24 19.2386C1125.46 21.714 1120.14 24.7215 1115.13 26.6417C1111.37 28.076 1108.23 29.4179 1104.43 30.7365C1103.27 31.4768 1102.12 32.2403 1100.94 32.9806C1097.74 34.2993 1095.11 35.7567 1092.25 36.9597C1087.47 38.9493 1083.32 41.3321 1079.01 43.4374C1076.84 44.4784 1074.67 44.9412 1072.59 46.2136C1066.55 49.9382 1060.55 54.1487 1053.86 57.2025C1050.73 55.8607 1050.04 52.8532 1046.11 51.9047C1044.82 51.9509 1043.53 51.9972 1042.24 52.0435C1034.51 52.0435 1027.75 53.4546 1021.5 55.4905C1001.5 61.945 984.571 70.3661 968.424 80.7535C963.488 83.9229 958.99 87.1848 954.376 90.5394C951.055 92.9454 947.203 94.7036 944.873 98.0813C944.734 98.1275 944.596 98.1738 944.481 98.2201C942.543 95.1432 935.923 93.0379 930.71 93.7319C929.81 93.9864 928.934 94.264 928.034 94.5185C923.444 93.6163 919.984 96.9939 916.662 99.0066C909.788 103.194 903.168 106.988 896.478 111.314C893.826 113.026 891.265 115.247 888.313 116.728C887.251 117.792 886.167 118.833 885.106 119.897C883.861 120.961 882.315 121.447 880.954 122.419C880.147 123.298 879.339 124.177 878.555 125.056C873.48 129.174 869.052 133.801 864.254 138.15C852.028 149.162 839.618 160.984 830.968 175.443C826.631 182.684 824.186 190.411 820.795 198.601C818.35 204.523 815.536 211.302 814.244 218.173C814.06 219.168 813.045 219.908 812.768 220.695C811.315 224.743 810.946 228.491 809.285 232.47C806.817 238.346 803.449 243.69 803.126 251.51C801.604 251.949 800.104 252.389 798.582 252.829C795.998 254.332 793.415 255.836 790.831 257.317C787.487 259.584 784.373 262.661 781.881 265.784C780.267 267.797 777.706 269.254 776.138 271.336C771.386 277.652 767.903 283.945 764.374 291.579C763.105 294.309 761.144 297.108 759.968 299.907C758.953 302.313 757.823 305.205 757.292 307.588C757.061 309.231 756.854 310.85 756.623 312.493C756.254 313.765 755.147 315.5 754.755 316.726C753.809 319.595 754.708 322.672 753.947 326.119C753.371 328.71 752.955 331.255 753.002 334.725C754.362 337.825 754.616 341.203 756.069 344.372C757.615 347.75 765.85 354.25 769.31 356.147C770.463 356.333 771.617 356.495 772.793 356.68C773.416 357.027 774.039 357.374 774.661 357.744C776.484 358.345 778.79 358.276 780.267 358.808H788.156C793.23 359.687 799.458 357.327 803.933 356.171C807.071 355.361 809.792 355.06 812.883 354.574C813.898 354.135 814.936 353.695 815.951 353.256C821.072 351.659 825.986 350.665 830.53 348.351C833.344 346.917 835.881 344.233 838.419 342.521C839.71 341.642 840.818 341.526 841.902 340.532C843.909 340.902 845.431 342.568 847.784 343.053C850.667 343.632 854.612 342.961 857.149 342.521C860.563 341.943 864.184 342.29 867.575 341.457C871.012 340.624 874.588 338.519 877.471 336.969C878.486 336.668 879.524 336.344 880.539 336.044C882.177 335.072 883.838 334.1 885.475 333.129C886.375 332.828 887.251 332.504 888.151 332.203C890.758 330.746 893.226 328.432 895.648 326.79C899.246 324.592 902.868 322.371 906.489 320.173C909.834 316.958 913.179 313.742 916.524 310.526C920.03 307.727 923.444 304.604 926.281 301.133C928.726 298.149 932.117 295.905 934.7 293.06C937.238 289.751 939.775 286.443 942.312 283.135C943.604 280.451 944.896 277.744 946.188 275.061C946.58 273.303 946.995 271.544 947.387 269.763C948.771 267.635 951.655 265.414 953.661 263.817C957.767 260.579 960.974 256.368 965.172 253.106C967.386 251.371 969.301 249.104 971.054 246.883C973.73 243.482 977.466 240.822 980.142 237.351C981.434 236.195 982.726 235.061 984.018 233.904C987.939 229.116 992.968 225.021 996.451 219.885C999.726 215.05 1003.9 208.965 1005.15 202.557C1006.39 196.149 999.173 193.211 1003.28 187.867C1007.22 182.777 1013.27 178.335 1018.53 174.518C1023.69 170.146 1028.86 165.796 1034.03 161.424C1035.9 159.527 1037.76 157.63 1039.63 155.733C1047.04 150.042 1053.54 143.633 1061.04 138.012C1062.95 136.161 1064.87 134.31 1066.78 132.459C1070.45 129.938 1073.43 126.768 1076.95 124.131C1092.78 112.332 1107.5 99.3999 1122.95 87.2311C1140.99 73.0265 1156.7 56.5316 1175.1 42.7896C1179.23 39.7127 1182.69 35.3635 1186.87 32.3328C1194.6 26.7574 1206.64 15.0744 1208 3.62277C1205.71 0.823482 1202.35 1.49439 1197.96 0.592142C1186.8 -1.76759 1172.66 3.48398 1163.46 6.53775C1161.73 7.27805 1159.97 8.0415 1158.24 8.7818H1158.31Z" fill="#0071EB"/>
<path fill-rule="evenodd" clip-rule="evenodd" d="M113.857 1110.78C148.561 1099.02 188.308 1064.93 221.685 1061.63C248.686 1058.98 250.217 1090.26 285.024 1084.89C318.325 1079.79 348.826 1060.57 383.08 1056.72C464.705 1047.87 539 1119.83 627.767 1112.87C687.678 1108.18 670.203 1077.78 731.471 1073.64C852.671 1065.45 833.092 946.192 903.357 944.319C942.333 943.285 938.181 867.06 934.24 826.614C931.527 798.702 1008.6 728.692 1006.25 700.903C1004.37 678.58 1020.54 661.44 994.909 631.201C966.726 597.951 849.243 626.887 824.491 589.368C777.014 517.447 862.311 541.575 871.705 502.562C874.354 491.502 876.529 470.109 878.172 458.668C884.722 412.613 876.294 365.784 832.856 355.216C805.037 348.434 789.499 358.415 782.784 361.492C774.109 365.446 750.847 386.755 731.983 375.547C687.561 349.204 653.229 378.073 649.994 381.883C631.586 403.456 634.364 432.849 609.728 452.112C590.927 466.824 598.371 490.096 560.351 497.168C407.309 525.66 286.784 566.576 229.387 634.249C214.752 651.385 160.085 677.223 204.08 717.162C214.369 726.521 226.394 733.144 234.617 745.371C244.938 760.74 245.854 780.789 240.63 794.544C212.474 868.872 118.099 857.194 74.3308 912.742C59.1022 932.108 55.1088 950.373 49.0799 972.976C41.6664 1000.99 63.0908 1022.83 58.5523 1048.69C54.3009 1072.87 12.5882 1085.58 20.2381 1111.6C29.2144 1142.2 90.8998 1118.61 113.93 1110.8L113.857 1110.78Z" fill="#FF1100"/>
</svg>
