<svg preserveAspectRatio="none" width="100%" height="100%" overflow="visible" style="display: block;" viewBox="0 0 2077.61 5501.92" fill="none" xmlns="http://www.w3.org/2000/svg">
<g id="Group 69">
<path id="Vector" fill-rule="evenodd" clip-rule="evenodd" d="M732.556 13.4277C724.172 15.9392 716.32 17.9555 708.785 21.5283C706.061 22.8017 702.453 25.0302 699.552 25.9853C698.067 26.3391 696.546 26.6575 695.025 27.0112C694.14 27.6833 693.256 28.3554 692.372 29.0275C691.416 29.169 690.461 29.3105 689.506 29.4166C682.184 33.2016 674.013 37.8001 666.337 40.7361C660.571 42.9293 655.76 44.981 649.923 46.9973C648.154 48.1293 646.386 49.2966 644.582 50.4286C639.665 52.4449 635.632 54.6734 631.246 56.5129C623.923 59.555 617.556 63.1984 610.941 66.4174C607.616 68.0093 604.291 68.7168 601.107 70.6623C591.84 76.3575 582.642 82.7955 572.384 87.4648C567.573 85.4131 566.512 80.8145 560.499 79.3642C558.518 79.435 556.537 79.5057 554.556 79.5765C542.706 79.5765 532.341 81.7342 522.755 84.8471C492.086 94.7163 466.122 107.592 441.36 123.475C433.79 128.321 426.892 133.309 419.817 138.438C414.724 142.117 408.816 144.805 405.244 149.97C405.031 150.041 404.819 150.112 404.642 150.182C401.671 145.478 391.519 142.259 383.524 143.32C382.145 143.709 380.8 144.133 379.421 144.522C372.381 143.143 367.075 148.307 361.982 151.385C351.44 157.788 341.288 163.589 331.03 170.204C326.962 172.821 323.035 176.217 318.507 178.481C316.88 180.108 315.218 181.7 313.59 183.327C311.68 184.955 309.31 185.697 307.223 187.183C305.985 188.527 304.747 189.872 303.544 191.216C295.762 197.512 288.97 204.587 281.613 211.237C262.865 228.075 243.833 246.151 230.568 268.26C223.918 279.332 220.168 291.146 214.969 303.669C211.219 312.724 206.903 323.089 204.922 333.595C204.639 335.116 203.083 336.248 202.659 337.45C200.43 343.641 199.864 349.371 197.317 355.456C193.532 364.441 188.368 372.612 187.872 384.568C185.538 385.24 183.238 385.912 180.904 386.585C176.942 388.884 172.98 391.183 169.018 393.447C163.889 396.914 159.114 401.618 155.293 406.394C152.817 409.471 148.891 411.7 146.485 414.883C139.198 424.54 133.857 434.162 128.445 445.835C126.499 450.01 123.492 454.29 121.688 458.57C120.132 462.249 118.398 466.67 117.585 470.314C117.231 472.825 116.913 475.302 116.559 477.813C115.993 479.759 114.295 482.412 113.694 484.287C112.243 488.673 113.623 493.378 112.456 498.648C111.571 502.61 110.935 506.501 111.005 511.807C113.092 516.547 113.482 521.712 115.71 526.558C118.08 531.723 130.708 541.663 136.015 544.563C137.783 544.846 139.552 545.094 141.356 545.377C142.311 545.907 143.266 546.438 144.221 547.004C147.016 547.924 150.553 547.818 152.817 548.631H164.915C172.697 549.975 182.248 546.367 189.11 544.599C193.921 543.361 198.095 542.901 202.835 542.158C204.392 541.486 205.984 540.814 207.54 540.141C215.393 537.701 222.928 536.18 229.896 532.642C234.212 530.449 238.103 526.346 241.994 523.728C243.975 522.384 245.673 522.207 247.335 520.686C250.413 521.252 252.748 523.799 256.356 524.542C260.777 525.426 266.826 524.4 270.717 523.728C275.953 522.844 281.506 523.374 286.706 522.101C291.977 520.828 297.46 517.609 301.882 515.238C303.438 514.779 305.03 514.283 306.586 513.824C309.098 512.338 311.645 510.852 314.156 509.366C315.536 508.907 316.88 508.411 318.26 507.952C322.257 505.723 326.042 502.186 329.756 499.674C335.274 496.314 340.828 492.918 346.382 489.557C351.511 484.64 356.64 479.723 361.769 474.806C367.146 470.526 372.381 465.751 376.732 460.445C380.482 455.881 385.682 452.45 389.644 448.099C393.535 443.041 397.426 437.982 401.317 432.924C403.298 428.821 405.279 424.682 407.26 420.579C407.861 417.89 408.498 415.202 409.099 412.478C411.222 409.224 415.643 405.828 418.721 403.387C425.017 398.435 429.934 391.997 436.372 387.009C439.768 384.356 442.704 380.889 445.393 377.493C449.496 372.294 455.226 368.226 459.33 362.92C461.311 361.151 463.292 359.417 465.273 357.649C471.286 350.326 478.998 344.065 484.339 336.212C489.362 328.819 495.765 319.516 497.675 309.718C499.585 299.919 488.513 295.427 494.81 287.255C500.858 279.473 510.126 272.681 518.192 266.845C526.115 260.159 534.039 253.509 541.963 246.823C544.828 243.923 547.693 241.022 550.559 238.121C561.913 229.419 571.889 219.621 583.385 211.025C586.321 208.195 589.257 205.365 592.193 202.535C597.818 198.68 602.381 193.833 607.793 189.801C632.059 171.76 654.628 151.986 678.328 133.38C705.99 111.66 730.08 86.4389 758.308 65.427C764.64 60.7223 769.946 54.0721 776.349 49.4381C788.199 40.9131 806.664 23.0493 808.751 5.53935C805.249 1.25914 800.084 2.28498 793.363 0.905407C776.242 -2.70271 754.558 5.32714 740.444 9.99646C737.791 11.1284 735.103 12.2958 732.45 13.4277H732.556Z" fill="var(--fill-0, #0269D9)"/>
<path id="Vector_2" fill-rule="evenodd" clip-rule="evenodd" d="M1982.56 4966.43C1974.17 4968.94 1966.32 4970.96 1958.78 4974.53C1956.06 4975.8 1952.45 4978.03 1949.55 4978.99C1948.07 4979.34 1946.55 4979.66 1945.02 4980.01C1944.14 4980.68 1943.26 4981.36 1942.37 4982.03C1941.42 4982.17 1940.46 4982.31 1939.51 4982.42C1932.18 4986.2 1924.01 4990.8 1916.34 4993.74C1910.57 4995.93 1905.76 4997.98 1899.92 5000C1898.15 5001.13 1896.39 5002.3 1894.58 5003.43C1889.66 5005.44 1885.63 5007.67 1881.25 5009.51C1873.92 5012.55 1867.56 5016.2 1860.94 5019.42C1857.62 5021.01 1854.29 5021.72 1851.11 5023.66C1841.84 5029.36 1832.64 5035.8 1822.38 5040.46C1817.57 5038.41 1816.51 5033.81 1810.5 5032.36C1808.52 5032.43 1806.54 5032.51 1804.56 5032.58C1792.71 5032.58 1782.34 5034.73 1772.75 5037.85C1742.09 5047.72 1716.12 5060.59 1691.36 5076.48C1683.79 5081.32 1676.89 5086.31 1669.82 5091.44C1664.72 5095.12 1658.82 5097.81 1655.24 5102.97C1655.03 5103.04 1654.82 5103.11 1654.64 5103.18C1651.67 5098.48 1641.52 5095.26 1633.52 5096.32C1632.14 5096.71 1630.8 5097.13 1629.42 5097.52C1622.38 5096.14 1617.08 5101.31 1611.98 5104.38C1601.44 5110.79 1591.29 5116.59 1581.03 5123.2C1576.96 5125.82 1573.04 5129.22 1568.51 5131.48C1566.88 5133.11 1565.22 5134.7 1563.59 5136.33C1561.68 5137.95 1559.31 5138.7 1557.22 5140.18C1555.99 5141.53 1554.75 5142.87 1553.54 5144.22C1545.76 5150.51 1538.97 5157.59 1531.61 5164.24C1512.86 5181.08 1493.83 5199.15 1480.57 5221.26C1473.92 5232.33 1470.17 5244.15 1464.97 5256.67C1461.22 5265.72 1456.9 5276.09 1454.92 5286.59C1454.64 5288.12 1453.08 5289.25 1452.66 5290.45C1450.43 5296.64 1449.86 5302.37 1447.32 5308.46C1443.53 5317.44 1438.37 5325.61 1437.87 5337.57C1435.54 5338.24 1433.24 5338.91 1430.9 5339.58C1426.94 5341.88 1422.98 5344.18 1419.02 5346.45C1413.89 5349.91 1409.11 5354.62 1405.29 5359.39C1402.82 5362.47 1398.89 5364.7 1396.49 5367.88C1389.2 5377.54 1383.86 5387.16 1378.44 5398.84C1376.5 5403.01 1373.49 5407.29 1371.69 5411.57C1370.13 5415.25 1368.4 5419.67 1367.58 5423.31C1367.23 5425.83 1366.91 5428.3 1366.56 5430.81C1365.99 5432.76 1364.3 5435.41 1363.69 5437.29C1362.24 5441.67 1363.62 5446.38 1362.46 5451.65C1361.57 5455.61 1360.93 5459.5 1361.01 5464.81C1363.09 5469.55 1363.48 5474.71 1365.71 5479.56C1368.08 5484.72 1380.71 5494.66 1386.01 5497.56C1387.78 5497.85 1389.55 5498.09 1391.36 5498.38C1392.31 5498.91 1393.27 5499.44 1394.22 5500C1397.02 5500.92 1400.55 5500.82 1402.82 5501.63H1414.91C1422.7 5502.98 1432.25 5499.37 1439.11 5497.6C1443.92 5496.36 1448.1 5495.9 1452.84 5495.16C1454.39 5494.49 1455.98 5493.81 1457.54 5493.14C1465.39 5490.7 1472.93 5489.18 1479.9 5485.64C1484.21 5483.45 1488.1 5479.35 1491.99 5476.73C1493.97 5475.38 1495.67 5475.21 1497.34 5473.69C1500.41 5474.25 1502.75 5476.8 1506.36 5477.54C1510.78 5478.43 1516.83 5477.4 1520.72 5476.73C1525.95 5475.84 1531.51 5476.37 1536.71 5475.1C1541.98 5473.83 1547.46 5470.61 1551.88 5468.24C1553.44 5467.78 1555.03 5467.28 1556.59 5466.82C1559.1 5465.34 1561.64 5463.85 1564.16 5462.37C1565.54 5461.91 1566.88 5461.41 1568.26 5460.95C1572.26 5458.72 1576.04 5455.19 1579.76 5452.67C1585.27 5449.31 1590.83 5445.92 1596.38 5442.56C1601.51 5437.64 1606.64 5432.72 1611.77 5427.81C1617.15 5423.53 1622.38 5418.75 1626.73 5413.44C1630.48 5408.88 1635.68 5405.45 1639.64 5401.1C1643.53 5396.04 1647.43 5390.98 1651.32 5385.92C1653.3 5381.82 1655.28 5377.68 1657.26 5373.58C1657.86 5370.89 1658.5 5368.2 1659.1 5365.48C1661.22 5362.22 1665.64 5358.83 1668.72 5356.39C1675.02 5351.43 1679.93 5345 1686.37 5340.01C1689.77 5337.36 1692.7 5333.89 1695.39 5330.49C1699.5 5325.29 1705.23 5321.23 1709.33 5315.92C1711.31 5314.15 1713.29 5312.42 1715.27 5310.65C1721.29 5303.33 1729 5297.07 1734.34 5289.21C1739.36 5281.82 1745.76 5272.52 1747.67 5262.72C1749.59 5252.92 1738.51 5248.43 1744.81 5240.26C1750.86 5232.47 1760.13 5225.68 1768.19 5219.84C1776.12 5213.16 1784.04 5206.51 1791.96 5199.82C1794.83 5196.92 1797.69 5194.02 1800.56 5191.12C1811.91 5182.42 1821.89 5172.62 1833.39 5164.03C1836.32 5161.2 1839.26 5158.37 1842.19 5155.54C1847.82 5151.68 1852.38 5146.83 1857.79 5142.8C1882.06 5124.76 1904.63 5104.99 1928.33 5086.38C1955.99 5064.66 1980.08 5039.44 2008.31 5018.43C2014.64 5013.72 2019.95 5007.07 2026.35 5002.44C2038.2 4993.91 2056.66 4976.05 2058.75 4958.54C2055.25 4954.26 2050.08 4955.28 2043.36 4953.91C2026.24 4950.3 2004.56 4958.33 1990.44 4963C1987.79 4964.13 1985.1 4965.3 1982.45 4966.43H1982.56Z" fill="var(--fill-0, #0269D9)"/>
<path id="Vector_3" fill-rule="evenodd" clip-rule="evenodd" d="M1999.56 3686.43C1991.17 3688.94 1983.32 3690.96 1975.78 3694.53C1973.06 3695.8 1969.45 3698.03 1966.55 3698.99C1965.07 3699.34 1963.55 3699.66 1962.02 3700.01C1961.14 3700.68 1960.26 3701.36 1959.37 3702.03C1958.42 3702.17 1957.46 3702.31 1956.51 3702.42C1949.18 3706.2 1941.01 3710.8 1933.34 3713.74C1927.57 3715.93 1922.76 3717.98 1916.92 3720C1915.15 3721.13 1913.39 3722.3 1911.58 3723.43C1906.66 3725.44 1902.63 3727.67 1898.25 3729.51C1890.92 3732.55 1884.56 3736.2 1877.94 3739.42C1874.62 3741.01 1871.29 3741.72 1868.11 3743.66C1858.84 3749.36 1849.64 3755.8 1839.38 3760.46C1834.57 3758.41 1833.51 3753.81 1827.5 3752.36C1825.52 3752.43 1823.54 3752.51 1821.56 3752.58C1809.71 3752.58 1799.34 3754.73 1789.75 3757.85C1759.09 3767.72 1733.12 3780.59 1708.36 3796.48C1700.79 3801.32 1693.89 3806.31 1686.82 3811.44C1681.72 3815.12 1675.82 3817.81 1672.24 3822.97C1672.03 3823.04 1671.82 3823.11 1671.64 3823.18C1668.67 3818.48 1658.52 3815.26 1650.52 3816.32C1649.14 3816.71 1647.8 3817.13 1646.42 3817.52C1639.38 3816.14 1634.08 3821.31 1628.98 3824.38C1618.44 3830.79 1608.29 3836.59 1598.03 3843.2C1593.96 3845.82 1590.04 3849.22 1585.51 3851.48C1583.88 3853.11 1582.22 3854.7 1580.59 3856.33C1578.68 3857.95 1576.31 3858.7 1574.22 3860.18C1572.99 3861.53 1571.75 3862.87 1570.54 3864.22C1562.76 3870.51 1555.97 3877.59 1548.61 3884.24C1529.86 3901.08 1510.83 3919.15 1497.57 3941.26C1490.92 3952.33 1487.17 3964.15 1481.97 3976.67C1478.22 3985.72 1473.9 3996.09 1471.92 4006.59C1471.64 4008.12 1470.08 4009.25 1469.66 4010.45C1467.43 4016.64 1466.86 4022.37 1464.32 4028.46C1460.53 4037.44 1455.37 4045.61 1454.87 4057.57C1452.54 4058.24 1450.24 4058.91 1447.9 4059.58C1443.94 4061.88 1439.98 4064.18 1436.02 4066.45C1430.89 4069.91 1426.11 4074.62 1422.29 4079.39C1419.82 4082.47 1415.89 4084.7 1413.49 4087.88C1406.2 4097.54 1400.86 4107.16 1395.44 4118.84C1393.5 4123.01 1390.49 4127.29 1388.69 4131.57C1387.13 4135.25 1385.4 4139.67 1384.58 4143.31C1384.23 4145.83 1383.91 4148.3 1383.56 4150.81C1382.99 4152.76 1381.3 4155.41 1380.69 4157.29C1379.24 4161.67 1380.62 4166.38 1379.46 4171.65C1378.57 4175.61 1377.93 4179.5 1378.01 4184.81C1380.09 4189.55 1380.48 4194.71 1382.71 4199.56C1385.08 4204.72 1397.71 4214.66 1403.01 4217.56C1404.78 4217.85 1406.55 4218.09 1408.36 4218.38C1409.31 4218.91 1410.27 4219.44 1411.22 4220C1414.02 4220.92 1417.55 4220.82 1419.82 4221.63H1431.91C1439.7 4222.98 1449.25 4219.37 1456.11 4217.6C1460.92 4216.36 1465.1 4215.9 1469.84 4215.16C1471.39 4214.49 1472.98 4213.81 1474.54 4213.14C1482.39 4210.7 1489.93 4209.18 1496.9 4205.64C1501.21 4203.45 1505.1 4199.35 1508.99 4196.73C1510.97 4195.38 1512.67 4195.21 1514.34 4193.69C1517.41 4194.25 1519.75 4196.8 1523.36 4197.54C1527.78 4198.43 1533.83 4197.4 1537.72 4196.73C1542.95 4195.84 1548.51 4196.37 1553.71 4195.1C1558.98 4193.83 1564.46 4190.61 1568.88 4188.24C1570.44 4187.78 1572.03 4187.28 1573.59 4186.82C1576.1 4185.34 1578.64 4183.85 1581.16 4182.37C1582.54 4181.91 1583.88 4181.41 1585.26 4180.95C1589.26 4178.72 1593.04 4175.19 1596.76 4172.67C1602.27 4169.31 1607.83 4165.92 1613.38 4162.56C1618.51 4157.64 1623.64 4152.72 1628.77 4147.81C1634.15 4143.53 1639.38 4138.75 1643.73 4133.44C1647.48 4128.88 1652.68 4125.45 1656.64 4121.1C1660.53 4116.04 1664.43 4110.98 1668.32 4105.92C1670.3 4101.82 1672.28 4097.68 1674.26 4093.58C1674.86 4090.89 1675.5 4088.2 1676.1 4085.48C1678.22 4082.22 1682.64 4078.83 1685.72 4076.39C1692.02 4071.43 1696.93 4065 1703.37 4060.01C1706.77 4057.36 1709.7 4053.89 1712.39 4050.49C1716.5 4045.29 1722.23 4041.23 1726.33 4035.92C1728.31 4034.15 1730.29 4032.42 1732.27 4030.65C1738.29 4023.33 1746 4017.07 1751.34 4009.21C1756.36 4001.82 1762.76 3992.52 1764.67 3982.72C1766.59 3972.92 1755.51 3968.43 1761.81 3960.26C1767.86 3952.47 1777.13 3945.68 1785.19 3939.84C1793.12 3933.16 1801.04 3926.51 1808.96 3919.82C1811.83 3916.92 1814.69 3914.02 1817.56 3911.12C1828.91 3902.42 1838.89 3892.62 1850.39 3884.03C1853.32 3881.2 1856.26 3878.37 1859.19 3875.54C1864.82 3871.68 1869.38 3866.83 1874.79 3862.8C1899.06 3844.76 1921.63 3824.99 1945.33 3806.38C1972.99 3784.66 1997.08 3759.44 2025.31 3738.43C2031.64 3733.72 2036.95 3727.07 2043.35 3722.44C2055.2 3713.91 2073.66 3696.05 2075.75 3678.54C2072.25 3674.26 2067.08 3675.28 2060.36 3673.91C2043.24 3670.3 2021.56 3678.33 2007.44 3683C2004.79 3684.13 2002.1 3685.3 1999.45 3686.43H1999.56Z" fill="var(--fill-0, #0269D9)"/>
<path id="Vector_4" fill-rule="evenodd" clip-rule="evenodd" d="M1545.68 625.287C1541.28 625.667 1536.88 625.987 1532.42 626.376C1521.14 629.689 1507.36 632.847 1495.74 631.332C1483.15 629.67 1465.02 618.385 1450.61 626.397C1448.32 628.68 1445.95 630.912 1443.66 633.195C1435.03 639.288 1429.71 645.772 1422.74 652.814C1418.93 655.813 1415.11 658.753 1411.3 661.751C1403.81 669.414 1396.5 678.193 1389.39 686.281C1376.9 700.499 1362.83 710.687 1347.71 722.723C1322.04 743.138 1295.61 763.731 1261.48 777.024C1214.2 795.486 1175.97 766.357 1139.42 755.034C1137.27 755.127 1135.13 755.278 1132.97 755.37C1107.51 752.267 1077.53 770.158 1062.95 781.749C1060.03 785.453 1057.16 789.089 1054.25 792.792C1024.85 822.215 1005.97 856.994 988.925 897.752C986.33 903.935 981.148 909.736 978.717 916.194C973.935 928.858 972.065 945.166 968.912 958.241C966.057 970.124 969.874 978.446 968.715 991.572C967.924 1000.85 965.377 1008.89 968.024 1019.38C969.578 1025.52 970.405 1034.37 974.325 1037.13C989.335 1047.76 1021.45 1039.41 1038.35 1031.92C1046.81 1028.2 1053.7 1026.41 1062.7 1022.37C1065.83 1020.01 1069.02 1017.65 1072.14 1015.3C1078.22 1011.77 1082.35 1009.69 1088.26 1006.66C1091.39 1004.31 1094.58 1001.95 1097.71 999.602C1099.24 999.424 1100.78 999.246 1102.32 999.069C1103.42 997.995 1104.51 996.922 1105.62 995.907C1110.49 993.89 1131.73 991.504 1136.68 992.784C1139.59 994.442 1142.5 996.159 1145.41 997.816C1151.7 999.973 1157.36 999.579 1162.78 1002.71C1180.02 1012.57 1175.23 1053.18 1180.37 1076.65C1180.51 1079.46 1180.64 1082.27 1180.76 1085.02C1184.44 1097.1 1190.81 1107.91 1194.37 1119.23C1194.86 1121.98 1195.34 1124.74 1195.83 1127.49C1196.9 1128.59 1197.98 1129.69 1199.04 1130.73C1203.39 1137.46 1205.78 1145.1 1210.62 1151.1C1212.78 1153.77 1216.58 1156.13 1218.53 1159.02C1223.06 1165.73 1226.48 1173.45 1232.54 1177.93C1236.48 1180.87 1253.23 1185.21 1259.02 1183.77C1264.31 1182.53 1269.59 1181.23 1274.87 1179.99C1284.59 1180.53 1291.2 1175.41 1298.28 1171.73C1311.8 1164.58 1322.73 1159.33 1338.03 1153.17C1343.35 1151.02 1350.53 1146.41 1357.59 1146.53C1361.92 1147.66 1366.18 1148.75 1370.51 1149.88C1372.89 1153.61 1374.55 1159.26 1375.2 1165.42C1375.47 1168.33 1375.74 1171.24 1376.01 1174.14C1380.95 1187.41 1398.01 1187.12 1413.13 1185.62C1420.68 1180.36 1433.51 1182.34 1442.46 1179.09C1449.64 1176.47 1460.6 1174.96 1468.18 1172.58C1473.18 1171.87 1478.14 1171.22 1483.15 1170.5C1491.41 1167.48 1500.62 1164 1509.21 1159.96C1520.54 1154.6 1532.18 1146.59 1543.51 1141.22C1574.14 1126.79 1602.62 1113.16 1630.97 1096.43C1650.16 1085.09 1669.74 1070.79 1688.8 1058.99C1704.73 1049.12 1719.65 1041.63 1735.32 1032.03C1759.7 1017.24 1783.33 997.985 1806.36 981.472C1821.96 970.264 1838.38 961.638 1852.43 949.346C1858.84 943.716 1866.46 938.502 1872.96 933.763C1874.36 933.486 1875.82 933.199 1877.21 932.863C1877.7 931.763 1878.19 930.605 1878.68 929.505C1887.17 922.529 1896.08 917.838 1904.34 910.537C1913.13 901.647 1921.93 892.758 1930.73 883.868C1933.68 881.124 1941.45 876.909 1943.53 874.418C1947.62 868.184 1951.78 862 1955.88 855.766C1960.14 849.446 1964.3 847.175 1967.7 839.182C1973.8 824.929 1978.23 787.449 1966.96 772.211C1961.17 764.376 1952.35 757.552 1948.43 747.38C1948.38 745.521 1948.33 743.661 1948.28 741.802C1946.89 737.441 1943.41 729.368 1944.34 722.54C1948.53 692.444 1962.26 672.252 1974.77 650.021C1979.77 641.117 1989.61 635.859 1992.64 625.093C1999.34 601.473 2008.49 583.978 1989.31 561.595C1984.13 563.12 1982.91 559.936 1978.64 559.152C1973.32 558.23 1961.76 557.851 1953.9 560.754C1940.52 565.657 1924.17 570.898 1910.99 576.009C1905.08 577.105 1899.16 578.142 1893.25 579.238C1888.93 581.233 1877.08 586.741 1869.59 584.287C1863.61 581.781 1864.25 572.347 1865.84 567.043C1870.14 552.465 1879.69 540.268 1884.82 526.346C1886.44 522.001 1885.4 517.224 1886.77 512.494C1888.07 508.019 1891.48 502.853 1892.26 497.794C1895.01 480.146 1890.74 454.13 1884.76 440.001C1883.62 437.287 1879.22 433.812 1877.43 430.777C1873.28 423.773 1871.06 416.468 1864.32 413.357C1857.58 410.304 1845.45 406.221 1835.24 410.633C1831.35 412.319 1829.55 413.14 1825.01 412.999C1823.62 417.249 1813.04 424.308 1809.27 426.035C1807 426.146 1804.73 426.257 1802.47 426.426C1800.72 428.382 1798.97 430.28 1797.23 432.236C1783.54 443.388 1770.85 453.543 1756.95 464.487C1724.54 489.981 1695.47 520.376 1660.42 543.628C1654.47 547.56 1648.8 555.303 1643.57 560.388C1633.83 569.786 1623.1 576.324 1612.67 585.166C1597.92 597.626 1580.56 612.238 1561.45 620.255C1555.8 622.635 1550.19 623.686 1545.32 625.283L1545.68 625.287Z" fill="var(--fill-0, #0269D9)"/>
<path id="Vector_5" fill-rule="evenodd" clip-rule="evenodd" d="M414.321 1828.52C424.409 1818.75 432.651 1808.74 442.8 1799.46C453.133 1790.06 466.05 1782.38 476.322 1772.86C495.574 1754.98 516.61 1740.48 536.416 1723.89C579.472 1687.88 622.774 1652.99 666.199 1617.29C674.072 1611.27 682.006 1605.25 689.879 1599.23C702.981 1588.04 716.513 1577.23 730.598 1567.46C732.259 1566.29 734.965 1566.05 736.564 1564.82C738.533 1563.34 747.205 1555.23 748.312 1553.58C748.743 1552.53 749.235 1551.49 749.666 1550.44C752.495 1547.43 756.801 1544.18 759.692 1541.29C760.307 1539.57 760.922 1537.85 761.537 1536.13C764.612 1531.33 774.146 1520.7 768.795 1513.52C766.089 1509.89 758.339 1506.88 751.942 1507C737.364 1507.25 724.632 1510.26 710.669 1512.47C695.477 1514.87 680.961 1520.27 666.691 1524.15C626.649 1534.96 588.267 1547.43 551.055 1562.36C523.807 1573.3 497.727 1586.75 470.54 1597.44C460.084 1601.56 450.304 1608.5 439.909 1613.23C435.849 1615.88 431.79 1618.58 427.669 1621.22C416.474 1627.18 405.28 1633.14 394.024 1639.1C390.764 1641.31 387.565 1643.59 384.305 1645.8C367.759 1653.85 351.706 1663.62 336.636 1674.06C327.225 1680.57 316.769 1685.3 307.604 1692.37C304.098 1694.34 300.592 1696.3 297.148 1698.27C280.048 1711.85 260.058 1721.55 242.774 1734.89C236.931 1738.39 231.087 1741.89 225.306 1745.39C212.143 1756.45 197.504 1765.85 184.156 1776.42C162.075 1793.93 141.408 1812.24 120.188 1831.04C114.652 1835.89 107.455 1840.01 102.166 1845.11C88.7567 1858.14 75.9629 1870.92 62.185 1882.96C61.7545 1884.31 61.324 1885.66 60.8934 1887.01C51.6671 1896.9 40.7186 1905.45 32.661 1917.73C30.8158 1920.5 32.5994 1922.65 31.1847 1925.17C28.1708 1929.1 25.157 1933.09 22.0815 1937.03C17.3454 1943.72 15.6846 1949.99 11.256 1957.55C7.99602 1963.08 2.8908 1968.91 1.04554 1976.65C0.676489 1978.56 0.369051 1980.46 0 1982.31C0 1987.04 1.47616 1996.75 4.18253 2000.12C14.0854 2012.54 25.7721 2012.29 40.1651 2009.03C45.7623 2007.74 51.4826 2008.11 56.4648 2006.08C69.9966 2000.55 83.0364 1987.1 94.2309 1977.33C97.1833 1975.55 100.074 1973.71 103.027 1971.92C110.715 1964.86 119.695 1959.7 127.076 1952.39C131.013 1949.81 134.95 1947.22 138.948 1944.58C146.636 1937.27 155.186 1931.74 162.998 1925.04C174.746 1914.91 185.817 1905.01 197.381 1894.88C203.163 1889.84 211.159 1886.46 216.818 1881.42C219.893 1878.72 221.861 1875.28 225.121 1872.82C245.419 1857.09 267.439 1842.59 287.183 1826.19C299.608 1815.86 311.725 1806.46 323.596 1795.28C331.162 1788.16 341.372 1783.42 349.245 1776.79C355.519 1771.5 365.976 1761.06 373.726 1759.22C373.849 1759.22 373.91 1759.22 374.033 1759.28C372.25 1762.9 369.297 1764.07 366.96 1766.65C362.285 1771.75 358.595 1776.91 353.797 1781.27C350.783 1785.21 347.769 1789.2 344.694 1793.13C337.251 1800.57 329.378 1808.37 321.874 1815.43C320.09 1818.02 318.368 1820.6 316.584 1823.24C310.679 1829.26 304.098 1836.63 298.132 1842.84C296.655 1845.11 295.179 1847.32 293.703 1849.6C273.159 1870.92 250.524 1892.3 233.486 1918.53C224.198 1932.79 197.75 1973.89 212.819 1990.66C234.778 2015.12 268.361 1983.6 285.83 1975.3C333.13 1952.88 375.509 1921.42 424.163 1901.02C429.268 1897.89 434.435 1894.75 439.54 1891.56C444.768 1887.63 453.687 1884.19 460.022 1881.79C466.111 1879.52 472.816 1872.39 479.828 1872.14C479.828 1872.45 479.828 1872.76 479.889 1873.13C458.669 1901.33 434.742 1926.4 413.153 1953.61C409.647 1958.04 398.206 1976.04 398.76 1983.84C399.067 1988.14 402.573 1992.44 404.295 1996.07C404.91 1996.19 405.464 1996.38 406.079 1996.5C413.091 1992.08 421.395 1989.19 428.96 1985.75C438.248 1981.45 446.798 1975.79 456.393 1971.68C460.76 1968.97 465.189 1966.27 469.556 1963.57C475.399 1960.5 481.242 1957.42 487.086 1954.35C492.868 1950.73 498.588 1947.1 504.37 1943.48C505.969 1942.92 507.568 1942.37 509.167 1941.82C514.703 1938.25 520.239 1933.71 526.144 1930.88C561.265 1913.99 596.756 1897.4 631.938 1880.32C642.026 1875.4 651.99 1869.75 662.201 1864.77C663.369 1863.79 664.538 1862.81 665.707 1861.88C674.441 1858.07 683.052 1854.88 691.54 1850.58C697.568 1847.51 702.673 1843.64 709.132 1841.06C718.727 1837.25 726.723 1828.83 736.749 1826.13C737.118 1826.25 737.548 1826.31 737.918 1826.43C735.457 1829.2 731.275 1830.92 728.015 1832.52C722.171 1835.34 715.898 1840.5 709.993 1843.82C702.735 1849.29 695.538 1854.7 688.28 1860.16C682.929 1864.4 675.917 1867.29 670.566 1871.53C648.607 1889.1 624.68 1903.54 602.599 1920.81C596.878 1925.29 589.867 1928.67 584.331 1933.28C567.047 1947.78 549.886 1964.37 534.14 1979.97C520.239 1993.67 506.092 2010.57 496.435 2030.54C493.913 2035.7 487.762 2050.2 491.514 2054.93C499.326 2064.76 519.87 2057.82 528.42 2054.68C533.894 2052.72 539.307 2052.04 545.088 2050.26C546.934 2049.15 548.717 2047.99 550.563 2046.88C552.346 2046.76 554.13 2046.7 555.914 2046.57C559.666 2044.79 563.418 2042.95 567.231 2041.17C573.69 2038.96 579.779 2036.99 586.238 2034.78C598.416 2030.6 609.672 2022.61 623.02 2020.77C624.619 2023.72 619.944 2027.77 618.345 2029.92C612.809 2037.36 603.091 2047.93 610.472 2056.4C616.192 2057.02 620.621 2051.12 624.311 2048.17C633.907 2040.49 645.655 2034.65 654.327 2025.68C660.663 2022.18 666.998 2018.74 673.395 2015.24C676.286 2012.78 679.115 2010.39 682.006 2007.93C685.328 2006.33 688.588 2004.73 691.909 2003.14C697.322 1999.57 702.796 1995.95 708.209 1992.38C709.931 1991.65 711.653 1990.91 713.437 1990.17C717.066 1987.59 720.695 1985.07 724.324 1982.49C735.519 1977.64 747.021 1969.96 756.801 1962.77C760.676 1959.94 763.751 1956.44 767.688 1953.8C778.39 1946.67 788.293 1938.56 798.503 1930.57C801.394 1928.36 808.714 1924.12 808.468 1918.9C807.853 1916.75 804.162 1913.68 801.21 1914.05C790.077 1915.34 779.251 1917.06 767.749 1918.22L763.628 1919.76C762.46 1919.45 761.291 1919.21 760.061 1918.9C737.548 1923.02 714.114 1929.71 693.509 1937.33C686.681 1939.05 679.792 1940.71 672.903 1942.43C664.599 1945.5 655.988 1948.45 647.316 1951.59C642.395 1953.37 638.212 1956.56 632.738 1957.79C632.8 1957.49 632.861 1957.18 632.923 1956.93C634.768 1954.78 636.121 1955.46 638.274 1954.17C648.976 1947.59 657.895 1939.3 669.582 1934.2C675.363 1931.68 682.129 1924.12 687.727 1921.05C696.707 1916.07 705.749 1911.4 714.483 1905.88C719.649 1902.62 724.755 1899.36 729.921 1896.17C735.211 1893.77 739.271 1890.33 744.191 1887.38C746.221 1886.4 748.189 1885.42 750.219 1884.43C757.785 1879.46 765.289 1874.54 772.854 1869.56C774.269 1869.2 775.745 1868.83 777.16 1868.4C790.569 1858.63 804.777 1850.95 818.924 1842.47C827.105 1837.61 834.424 1831.72 843.097 1827.66C850.847 1822.56 858.659 1817.46 866.409 1812.3C888.06 1801.98 907.989 1787.79 928.348 1775.31C936.59 1770.28 945.57 1766.96 954.428 1762.84C965.745 1757.62 976.263 1751.6 987.95 1746.81C993.732 1743.43 999.575 1739.99 1005.36 1736.61C1014.58 1732.37 1023.81 1728.13 1033.1 1723.89C1057.39 1713.57 1081.5 1703.92 1106.17 1693.91C1116.75 1689.6 1127.27 1683.34 1138.28 1679.71C1146.33 1677.07 1169.09 1666.87 1165.65 1652.86C1164.73 1649.12 1152.42 1639.65 1146.7 1639.29C1144.18 1639.84 1141.66 1640.39 1139.14 1640.88C1133.72 1641.62 1128.56 1640.82 1123.39 1641.5C1084.03 1646.6 1045.64 1652.68 1008.37 1661.47C947.846 1675.72 888.367 1692.74 830.426 1712.28C782.019 1728.62 735.519 1750.12 688.465 1769.17C673.887 1775.07 659.863 1783.55 645.655 1790.12C629.724 1797.56 613.547 1805.36 598.601 1814.45C588.329 1820.72 578.119 1826.99 567.17 1832.21C563.972 1833.74 561.757 1837.68 557.698 1837.74C560.773 1830.12 568.954 1823.67 574.12 1818.57C584.515 1808.43 593.373 1798.48 603.767 1788.52C605.551 1787.48 607.396 1786.5 609.18 1785.45C620.129 1776.42 633.722 1762.41 637.905 1743.67C632.677 1737.16 625.418 1738.51 618.222 1741.15C603.767 1746.44 590.113 1752.34 575.043 1757.07C571.968 1759.03 568.892 1761 565.817 1762.96C561.511 1764.32 557.267 1765.73 552.962 1767.08C542.69 1771.87 532.172 1777.77 521.838 1782.44C514.826 1785.57 507.199 1787.05 500.064 1790.06C495.205 1792.09 490.469 1796.76 485.548 1798.48C479.028 1800.69 473.861 1804.25 467.895 1807.08C451.103 1814.88 436.095 1823.48 420.042 1832.15C413.46 1835.71 405.833 1837.86 399.621 1841.92C399.498 1841.92 399.436 1841.92 399.313 1841.85C402.758 1835.77 409.77 1832.82 414.444 1828.28L414.321 1828.52Z" fill="var(--fill-0, #0269D9)"/>
<path id="Vector_6" fill-rule="evenodd" clip-rule="evenodd" d="M1164.19 2749.8C1165.93 2749.98 1167.47 2751.11 1169.3 2750.26C1173.14 2748.49 1177.68 2736.23 1180.67 2732.35C1183.15 2729.59 1185.68 2726.88 1188.16 2724.12C1199.4 2707.23 1210.49 2690.48 1222.52 2674.3C1227.34 2667.8 1233.66 2662 1238.48 2655.45C1253.89 2634.59 1269.29 2614.1 1285.2 2593.75C1288.53 2589.54 1293.3 2586.08 1296.58 2581.91C1308.66 2566.57 1322.56 2553.19 1334.36 2537.66C1336.84 2535.18 1339.36 2532.66 1341.84 2530.18C1353.78 2515.07 1366.8 2500.9 1379.62 2486.63C1385.15 2480.5 1389.64 2471.33 1396.8 2467.03H1397.55C1395.96 2471.94 1394.32 2476.85 1392.73 2481.76C1388.28 2500.24 1384.44 2519.7 1383.27 2539.82C1385.43 2542.62 1388.05 2550.15 1391.51 2551.42C1396.15 2553.1 1401.86 2549.92 1405.56 2548.28C1415.25 2543.98 1426.81 2528.68 1432.66 2519.98C1436.31 2514.51 1441.37 2509.92 1445.25 2504.73C1448.58 2499.91 1451.85 2495.05 1455.18 2490.23C1462.43 2480.88 1470.62 2471.99 1477.69 2462.4C1485.14 2453.93 1492.53 2445.47 1499.98 2437C1505.45 2429.19 1512.24 2422.59 1517.67 2414.97C1521.04 2410.2 1524.55 2403.18 1530.26 2400.93H1530.5C1533.63 2412.39 1530.5 2427.83 1537.99 2434.8C1542.85 2434.33 1546.08 2428.63 1548.38 2425.35C1553.76 2417.77 1560.22 2411.09 1565.56 2403.32C1570.85 2395.65 1578.85 2389.99 1584.42 2382.74C1586.67 2380.07 1588.96 2377.41 1591.21 2374.74C1593.65 2372.73 1596.03 2370.72 1598.47 2368.71C1604.88 2361.08 1612.93 2354.77 1619.3 2347.19C1623.65 2342 1627.77 2336.9 1632.36 2331.94C1640.04 2324.13 1647.71 2316.31 1655.34 2308.46C1662.6 2298.77 1671.45 2290.87 1680.29 2282.82C1685.68 2277.91 1690.31 2272.2 1696.02 2267.57C1698.04 2265.37 1700.05 2263.22 1702.06 2261.02C1710.72 2254.05 1717.84 2245.73 1726.5 2238.76C1733.66 2231.18 1740.87 2223.6 1748.03 2216.03C1771.3 2196.24 1792.27 2173.6 1816.28 2154.61C1824.29 2148.29 1830.56 2139.17 1838.8 2133.09C1845.12 2128.41 1849.75 2121.77 1855.98 2117.37C1871.66 2106.29 1884.39 2091.69 1899.33 2079.62C1904.24 2074.85 1909.16 2070.13 1914.07 2065.36C1928.21 2054.13 1941.6 2041.73 1956.2 2031.02C1972.21 2019.23 1989.06 2008.15 2002.45 1993.79C2009.85 1985.84 2017.39 1980.64 2021.32 1968.86C2022.11 1966.47 2023.56 1964.83 2022.77 1961.84C2015.19 1957.63 1995.81 1970.49 1989.11 1972.97C1956.11 1985.04 1927.98 2000.85 1900.26 2017.74C1890.34 2023.77 1879.71 2029.06 1870.26 2035.89C1869.37 2036.87 1868.48 2037.81 1867.59 2038.79C1864.12 2040.89 1860.61 2041.69 1857.2 2043.89C1855.6 2045.34 1853.97 2046.79 1852.37 2048.24C1851.06 2048.7 1849.8 2049.22 1848.49 2049.69C1842.73 2054.36 1836.36 2059.46 1830.33 2063.72C1824.9 2067.56 1819.04 2070.17 1813.61 2074.1C1803.64 2081.4 1793.53 2088.84 1783.61 2096.37C1782.25 2097.82 1780.85 2099.27 1779.49 2100.72C1751.64 2120.69 1724.72 2141.74 1698.88 2163.87C1691.29 2170.37 1683.01 2175.89 1674.91 2181.78C1665.6 2188.57 1657.26 2196.94 1647.81 2203.82C1645.23 2206.39 1642.66 2208.96 1640.08 2211.53C1632.55 2217.94 1625.24 2224.4 1617.57 2230.67C1612.89 2235.44 1608.2 2240.16 1603.52 2244.93C1597.44 2249.75 1592.66 2255.08 1587.79 2261.12C1584.24 2264.67 1580.68 2268.23 1577.12 2271.78L1576.37 2272.02C1574.27 2262.29 1580.73 2256.16 1571.27 2249.75C1563.59 2244.56 1547.49 2259.25 1543.18 2262.8C1535.22 2269.4 1527.59 2276.18 1519.45 2282.64C1516.22 2285.77 1512.99 2288.9 1509.76 2292.08C1506.39 2294.8 1502.27 2297.6 1499.6 2301.02C1494.31 2307.8 1483.5 2321.27 1476.38 2325.44C1476.24 2325.2 1476.05 2324.97 1475.91 2324.69C1474.28 2319.82 1479.33 2308.64 1481.02 2305.32C1487.38 2292.55 1494.22 2278.85 1497.21 2263.22C1498.76 2255.18 1497.87 2236.84 1492.63 2234.46C1489.63 2233.1 1485.46 2235.91 1483.17 2236.65C1475.07 2239.27 1465.66 2242.08 1458.97 2246.57C1453.58 2250.22 1447.55 2252.7 1441.79 2255.79C1434.77 2259.53 1429.01 2266.26 1422.64 2270.8C1411.27 2278.85 1400.64 2287.13 1389.22 2294.98C1385.57 2297.51 1382.38 2301.63 1378.83 2304.43C1367.08 2313.6 1356.73 2323.89 1346.15 2334.18C1342.22 2338.02 1337.91 2341.15 1334.54 2345.55C1331.59 2349.39 1327.05 2353.27 1323.17 2356.22C1321.62 2358.13 1320.08 2360.1 1318.58 2362.02C1315.26 2366.13 1311.18 2369.22 1307.91 2373.62C1304.44 2376.98 1300.98 2380.4 1297.51 2383.77C1291.29 2391.53 1284.22 2398.08 1278.13 2406.03C1272.89 2411.69 1267.65 2417.31 1262.41 2422.97C1255.71 2430.97 1249.16 2439.15 1242.79 2447.38C1239 2450.71 1235.21 2453.98 1231.42 2457.3C1220.13 2471.15 1208.81 2485.04 1197.52 2498.89C1190.97 2507.4 1186.99 2517.69 1181.05 2526.72C1178.24 2530.51 1175.38 2534.3 1172.57 2538.08C1169.91 2544.35 1168.08 2550.06 1164.85 2555.72C1158.76 2566.34 1152.21 2577 1147.2 2588.84C1146.64 2591.18 1146.08 2593.51 1145.52 2595.85C1143.27 2601 1139.48 2607.17 1137.79 2612.55V2616.67C1135.83 2621.39 1132.83 2627.05 1130.77 2632.15C1129.41 2635.52 1129.65 2638.33 1128.34 2641.6C1127.21 2644.41 1123 2651.33 1123 2654.18C1126 2658.11 1123.94 2664.52 1124.22 2671.12C1124.59 2680.33 1125.76 2689.03 1124.45 2698.95C1124.78 2699.18 1125.11 2699.42 1125.43 2699.7C1126.18 2699.46 1126.89 2699.23 1127.63 2698.95C1128.62 2705.78 1129.55 2712.66 1130.54 2719.53C1131.75 2724.02 1135.87 2729.12 1137.56 2733.33C1138.96 2736.84 1138.49 2739.65 1140.46 2742.27C1143.22 2745.96 1146.92 2744.79 1151.6 2746.85C1153.99 2747.93 1155.67 2751.06 1157.41 2752.88C1161.06 2753.45 1162.7 2751.9 1164.19 2749.75V2749.8Z" fill="var(--fill-0, #0269D9)"/>
<path id="Vector_7" fill-rule="evenodd" clip-rule="evenodd" d="M518.88 3350.19C481.434 3405.95 570.861 3355.94 586.146 3379.37C595.16 3393.24 568.877 3436.17 539.157 3463.11C508.806 3490.68 474.48 3505.78 441.252 3524.14C343.746 3577.97 257.542 3593.63 213.443 3586.29C166.555 3578.46 175.705 3544.44 204.473 3489.25C205.948 3486.45 207.288 3483.68 208.643 3480.97C284.162 3399.04 396.252 3401.08 377.564 3355.95C328.811 3363.41 382.605 3235.71 491.452 3192.05C558.502 3166.88 614.579 3156.61 635.578 3172.04C649.632 3182.37 632.482 3219.61 660.637 3218.54C679.353 3217.79 701.385 3214.6 725.354 3208.77C732.573 3207.06 794.986 3191.82 749.637 3229.02C723.173 3250.78 694.544 3245.76 670.74 3249.22C631.121 3255.02 554.779 3302.46 526.036 3340.17C523.263 3343.76 520.912 3347.05 518.917 3350.04L518.88 3350.19Z" fill="var(--fill-0, #0269D9)"/>
<path id="Vector_8" fill-rule="evenodd" clip-rule="evenodd" d="M263.858 4958.78C298.562 4947.02 338.309 4912.93 371.686 4909.63C398.687 4906.98 400.218 4938.26 435.025 4932.89C468.326 4927.79 498.827 4908.57 533.081 4904.72C614.706 4895.87 689.001 4967.83 777.768 4960.87C837.679 4956.18 820.204 4925.78 881.472 4921.64C1002.67 4913.45 983.093 4794.19 1053.36 4792.32C1092.33 4791.28 1088.18 4715.06 1084.24 4674.61C1081.53 4646.7 1158.6 4576.69 1156.26 4548.9C1154.37 4526.58 1170.54 4509.44 1144.91 4479.2C1116.73 4445.95 999.244 4474.89 974.492 4437.37C927.015 4365.45 1012.31 4389.57 1021.71 4350.56C1024.36 4339.5 1026.53 4318.11 1028.17 4306.67C1034.72 4260.61 1026.3 4213.78 982.857 4203.22C955.038 4196.43 939.5 4206.42 932.785 4209.49C924.11 4213.45 900.848 4234.75 881.985 4223.55C837.563 4197.2 803.23 4226.07 799.995 4229.88C781.587 4251.46 784.366 4280.85 759.729 4300.11C740.928 4314.82 748.372 4338.1 710.352 4345.17C557.311 4373.66 436.785 4414.58 379.388 4482.25C364.753 4499.39 310.086 4525.22 354.081 4565.16C364.37 4574.52 376.395 4581.14 384.618 4593.37C394.939 4608.74 395.855 4628.79 390.631 4642.54C362.475 4716.87 268.1 4705.19 224.332 4760.74C209.103 4780.11 205.11 4798.37 199.081 4820.98C191.667 4848.99 213.092 4870.83 208.553 4896.69C204.302 4920.87 162.589 4933.58 170.239 4959.6C179.216 4990.2 240.901 4966.61 263.931 4958.8L263.858 4958.78Z" fill="var(--fill-0, #0269D9)"/>
</g>
</svg>
