<svg width="1940" height="1198" viewBox="0 0 1440 1198" fill="none" xmlns="http://www.w3.org/2000/svg">
<path fill-rule="evenodd" clip-rule="evenodd" d="M216.407 1084.76C234.427 1073.51 251.338 1061.07 269.18 1049.84C277.004 1044.92 283.646 1037.42 290.709 1032.14C320.174 1010.13 339.916 980.649 363.083 954.212C364.325 952.042 365.568 949.837 366.774 947.666C372.9 940.569 378.633 932.106 383.083 923.827C384.45 921.274 387.949 912.877 390.206 911.644C394.791 909.18 402.892 909.371 407.329 909.166C411.254 908.583 415.181 907.963 419.071 907.377C424.527 907.33 429.777 905.041 433.532 903.599C439.778 901.218 445.054 900.524 450.989 897.986C455.494 895.696 460.002 893.37 464.508 891.079C474.439 886.509 483.102 883.965 492.268 879.108C497.179 876.519 502.366 872.633 507.565 869.917C510.635 868.724 513.741 867.532 516.809 866.374C519.242 865.15 521.355 863.271 523.536 862.14C525.237 861.41 526.938 860.68 528.639 859.95C537.212 853.506 546.779 847.713 556.244 841.844C561.105 838.828 565.027 834.029 569.473 830.815C573.183 828.13 576.658 826.639 580.335 823.917C585.776 819.903 590.534 814.685 595.565 810.366C602.783 804.102 610.344 798.776 617.787 792.984C623.036 787.862 628.321 782.706 633.57 777.584C635.279 775.26 636.991 772.902 638.735 770.58C650.497 759.123 660.285 744.629 667.498 729.935C668.52 728.605 669.509 727.237 670.531 725.907C674.454 718.239 678.355 711.031 682.211 703.289C683.553 701.231 684.86 699.171 686.202 697.113C688.669 689.514 691.117 681.597 693.864 674.083C693.754 671.315 693.642 668.582 693.532 665.814C697.548 662.685 706.073 663.605 710.266 661.193C724.195 653.173 736.882 640.912 743.347 627.704C744.938 624.206 746.527 620.744 748.118 617.246C748.797 614.269 749.44 611.326 750.119 608.349C751.763 604.499 753.962 599.438 754.64 595.08C755.253 591.285 755.692 580.328 757.942 578.527C758.265 577.02 757.059 577.066 757.178 575.372C757.544 574.434 757.874 573.494 758.239 572.556C757.905 571.442 757.571 570.327 757.237 569.213C757.466 566.745 757.729 564.314 757.958 561.846C756.949 557.192 755.941 552.538 754.898 547.881C747.299 529.759 744.144 512.743 732.374 500.86C724.28 492.701 702.664 487.234 686.6 493.341C679.704 495.973 674.573 500.145 668.492 502.782C661.105 506.027 655.527 508.512 649.766 512.546C648.283 513.181 646.765 513.778 645.246 514.411C638.568 518.364 631.003 522.344 626.034 527.551C619.157 534.788 614.609 545.046 606.137 550.893C601.827 551.387 598.277 548.696 594.483 548.082C588.547 547.078 583.442 548.595 577.028 548.666C573.485 548.702 567.899 547.787 563.782 549.388C548.175 555.553 530.465 561.968 515.388 568.868C510.713 571.009 505.727 575.117 501.317 577.625C490.746 583.651 481.371 588.426 471.539 594.56C469.833 596.105 468.126 597.649 466.422 599.158C455.155 605.646 446.05 614.259 436.108 621.875C434.155 624.116 432.202 626.356 430.249 628.596C421.614 636.986 413.471 644.762 405.591 653.65C404.092 656.019 402.593 658.388 401.129 660.759C395.439 666.922 389.959 673.131 384.345 679.191C382.802 681.735 381.26 684.244 379.717 686.788C377.188 689.921 374.368 692.507 372.284 695.946C369.194 701.104 366.498 706.177 363.542 711.484C362.767 712.118 362.027 712.754 361.25 713.424C359.12 715.655 357.976 718.715 356.493 721.475C355.516 722.595 354.54 723.715 353.563 724.836C353.184 726.056 352.803 727.312 352.458 728.535C350.371 732.044 348.249 735.551 346.162 739.059C345.014 742.19 343.869 745.285 342.721 748.415C341.423 750.299 340.159 752.219 338.861 754.103C337.361 759.341 335.825 764.577 334.327 769.78C333.617 771.232 332.909 772.649 332.199 774.101C331.451 777.039 331.756 780.879 329.506 782.679C328.208 783.146 327.206 781.928 325.678 782.029C318.891 782.47 310.404 784.35 304.393 786.991C288.968 793.767 275.849 802.606 264.426 812.238C263.525 812.548 262.626 812.822 261.725 813.131C260.937 814.013 260.116 814.857 259.329 815.739C257.509 816.711 255.725 817.685 253.906 818.657C251.868 820.468 249.865 822.281 247.827 824.092C244.42 826.366 241.119 827.937 237.951 830.401C235.641 832.694 233.331 834.988 231.021 837.281C227.957 839.785 224.662 841.215 221.837 843.908C219.792 845.86 217.741 848.627 215.525 850.465C212.828 852.704 209.757 853.932 207.304 856.254C198.936 864.267 191.795 873.97 183.938 882.398C179.71 886.934 175.132 890.673 170.765 895.166C166.731 899.357 163.491 903.977 158.938 907.93C157.198 910.145 155.461 912.326 153.721 914.541C152.775 915.061 151.863 915.582 150.917 916.102C148.806 918.653 146.661 921.203 144.55 923.754C134.223 934.857 121.799 948.937 114.729 962.186C108.675 973.537 104.981 985.855 99.0271 997.318C96.8713 1001.5 94.0373 1006.49 92.6377 1011.13C90.8568 1017.03 89.9273 1022.9 87.4909 1028.44C84.0589 1036.21 80.1961 1045.51 78.2798 1054.12C76.7306 1061.06 77.0713 1067.02 75.6544 1073.44C72.0319 1090.01 81.9892 1109.84 94.5132 1115.81C110.843 1123.6 139.158 1119.7 159.672 1111.01C179.569 1102.62 199.333 1095.49 216.366 1084.86L216.407 1084.76Z" fill="#FF7D74"/>
<path fill-rule="evenodd" clip-rule="evenodd" d="M559.858 930.778C594.561 919.016 634.309 884.927 667.686 881.633C694.687 878.977 696.218 910.258 731.025 904.895C764.326 899.792 794.827 880.568 829.08 876.72C910.706 867.87 985.001 939.829 1073.77 932.869C1133.68 928.18 1116.2 897.785 1177.47 893.636C1298.67 885.454 1279.09 766.192 1349.36 764.319C1388.33 763.285 1384.18 687.06 1380.24 646.614C1377.53 618.702 1454.6 548.692 1452.26 520.903C1450.37 498.58 1466.54 481.44 1440.91 451.201C1412.73 417.951 1295.24 446.887 1270.49 409.368C1223.01 337.447 1308.31 361.575 1317.71 322.562C1320.36 311.502 1322.53 290.109 1324.17 278.668C1330.72 232.613 1322.3 185.784 1278.86 175.216C1251.04 168.434 1235.5 178.415 1228.78 181.492C1220.11 185.446 1196.85 206.755 1177.98 195.547C1133.56 169.204 1099.23 198.073 1095.99 201.883C1077.59 223.456 1080.37 252.849 1055.73 272.112C1036.93 286.824 1044.37 310.096 1006.35 317.168C853.31 345.66 732.785 386.576 675.388 454.249C660.753 471.385 606.086 497.223 650.081 537.162C660.37 546.521 672.395 553.144 680.618 565.371C690.939 580.74 691.855 600.789 686.631 614.544C658.475 688.872 564.1 677.194 520.332 732.742C505.103 752.108 501.11 770.373 495.081 792.976C487.667 820.986 509.092 842.828 504.553 868.691C500.302 892.867 458.589 905.58 466.239 931.596C475.215 962.195 536.901 938.612 559.931 930.802L559.858 930.778Z" fill="#FF1100"/>
<path fill-rule="evenodd" clip-rule="evenodd" d="M1595.31 47.7818C1589.85 49.4244 1584.73 50.743 1579.81 53.0796C1578.04 53.9125 1575.68 55.3699 1573.79 55.9946C1572.82 56.2259 1571.83 56.4341 1570.84 56.6655C1570.26 57.105 1569.69 57.5446 1569.11 57.9841C1568.49 58.0767 1567.86 58.1692 1567.24 58.2386C1562.47 60.714 1557.14 63.7215 1552.13 65.6417C1548.37 67.076 1545.24 68.4179 1541.43 69.7365C1540.28 70.4768 1539.12 71.2403 1537.95 71.9806C1534.74 73.2993 1532.11 74.7567 1529.25 75.9597C1524.47 77.9493 1520.32 80.3321 1516.01 82.4374C1513.84 83.4784 1511.67 83.9412 1509.6 85.2136C1503.55 88.9382 1497.56 93.1487 1490.87 96.2025C1487.73 94.8607 1487.04 91.8532 1483.12 90.9047C1481.82 90.9509 1480.53 90.9972 1479.24 91.0435C1471.51 91.0435 1464.75 92.4546 1458.5 94.4905C1438.5 100.945 1421.57 109.366 1405.43 119.753C1400.49 122.923 1395.99 126.185 1391.38 129.539C1388.06 131.945 1384.2 133.704 1381.87 137.081C1381.74 137.128 1381.6 137.174 1381.48 137.22C1379.55 134.143 1372.92 132.038 1367.71 132.732C1366.81 132.986 1365.94 133.264 1365.04 133.519C1360.45 132.616 1356.99 135.994 1353.66 138.007C1346.79 142.194 1340.17 145.988 1333.48 150.314C1330.83 152.026 1328.27 154.247 1325.31 155.728C1324.25 156.792 1323.17 157.833 1322.11 158.897C1320.86 159.961 1319.32 160.447 1317.96 161.419C1317.15 162.298 1316.34 163.177 1315.56 164.056C1310.48 168.174 1306.05 172.801 1301.26 177.15C1289.03 188.162 1276.62 199.984 1267.97 214.443C1263.63 221.684 1261.19 229.411 1257.8 237.601C1255.35 243.523 1252.54 250.302 1251.25 257.173C1251.06 258.168 1250.05 258.908 1249.77 259.695C1248.32 263.743 1247.95 267.491 1246.29 271.47C1243.82 277.346 1240.45 282.69 1240.13 290.51C1238.61 290.949 1237.11 291.389 1235.58 291.829C1233 293.332 1230.42 294.836 1227.83 296.317C1224.49 298.584 1221.37 301.661 1218.88 304.784C1217.27 306.797 1214.71 308.254 1213.14 310.336C1208.39 316.652 1204.9 322.945 1201.38 330.579C1200.11 333.309 1198.15 336.108 1196.97 338.907C1195.95 341.313 1194.82 344.205 1194.29 346.588C1194.06 348.231 1193.86 349.85 1193.63 351.493C1193.26 352.765 1192.15 354.5 1191.76 355.726C1190.81 358.595 1191.71 361.672 1190.95 365.119C1190.37 367.71 1189.96 370.255 1190 373.725C1191.36 376.825 1191.62 380.203 1193.07 383.372C1194.62 386.75 1202.85 393.25 1206.31 395.147C1207.47 395.333 1208.62 395.495 1209.79 395.68C1210.42 396.027 1211.04 396.374 1211.66 396.744C1213.49 397.345 1215.79 397.276 1217.27 397.808H1225.16C1230.23 398.687 1236.46 396.327 1240.94 395.171C1244.07 394.361 1246.79 394.06 1249.89 393.574C1250.9 393.135 1251.94 392.695 1252.95 392.256C1258.07 390.659 1262.99 389.665 1267.53 387.351C1270.35 385.917 1272.88 383.233 1275.42 381.521C1276.71 380.642 1277.82 380.526 1278.9 379.532C1280.91 379.902 1282.43 381.568 1284.79 382.053C1287.67 382.632 1291.61 381.961 1294.15 381.521C1297.56 380.943 1301.19 381.29 1304.58 380.457C1308.01 379.624 1311.59 377.519 1314.47 375.969C1315.49 375.668 1316.53 375.344 1317.54 375.044C1319.18 374.072 1320.84 373.1 1322.48 372.129C1323.38 371.828 1324.25 371.504 1325.15 371.203C1327.76 369.746 1330.23 367.432 1332.65 365.79C1336.25 363.592 1339.87 361.371 1343.49 359.173C1346.84 355.958 1350.18 352.742 1353.53 349.526C1357.03 346.727 1360.45 343.604 1363.28 340.133C1365.73 337.149 1369.12 334.905 1371.7 332.06C1374.24 328.751 1376.78 325.443 1379.31 322.135C1380.61 319.451 1381.9 316.744 1383.19 314.061C1383.58 312.303 1384 310.544 1384.39 308.763C1385.77 306.635 1388.66 304.414 1390.66 302.817C1394.77 299.579 1397.98 295.368 1402.17 292.106C1404.39 290.371 1406.3 288.104 1408.06 285.883C1410.73 282.482 1414.47 279.822 1417.14 276.351C1418.44 275.195 1419.73 274.061 1421.02 272.904C1424.94 268.116 1429.97 264.021 1433.45 258.885C1436.73 254.05 1440.9 247.965 1442.15 241.557C1443.39 235.149 1436.17 232.211 1440.28 226.867C1444.22 221.777 1450.27 217.335 1455.53 213.518C1460.69 209.146 1465.86 204.796 1471.03 200.424C1472.9 198.527 1474.77 196.63 1476.63 194.733C1484.04 189.042 1490.54 182.633 1498.04 177.012C1499.95 175.161 1501.87 173.31 1503.78 171.459C1507.45 168.938 1510.43 165.768 1513.96 163.131C1529.78 151.332 1544.5 138.4 1559.95 126.231C1577.99 112.027 1593.7 95.5316 1612.11 81.7896C1616.24 78.7127 1619.7 74.3635 1623.87 71.3328C1631.6 65.7574 1643.64 54.0744 1645 42.6228C1642.72 39.8235 1639.35 40.4944 1634.97 39.5921C1623.8 37.2324 1609.66 42.484 1600.46 45.5377C1598.73 46.2781 1596.97 47.0415 1595.24 47.7818H1595.31Z" fill="#00AB41"/>
<path fill-rule="evenodd" clip-rule="evenodd" d="M48.7938 336.013C66.2853 308.994 26.3064 335.909 20.1757 326.054C16.5431 320.22 28.9014 299.536 42.4176 285.894C56.2069 271.962 71.4429 263.474 86.2772 253.565C129.846 224.511 167.637 213.268 186.625 214.445C206.848 215.701 202.097 231.552 188.446 257.896C187.749 259.245 187.126 260.531 186.469 261.835C151.874 302.54 103.207 307.043 110.36 326.53C131.695 320.822 105.579 381.174 57.3394 406.183C27.6404 420.796 3.03751 428.171 -5.72404 422.192C-11.6062 418.185 -3.37597 400.501 -15.6075 402.364C-23.7571 403.588 -33.4275 406.109 -43.9441 409.912C-47.1244 411.043 -74.5843 420.948 -54.0659 401.92C-42.0979 390.824 -29.755 391.673 -19.3353 388.962C-2.00625 384.443 32.2036 359.25 45.5186 340.834C46.8052 339.055 47.8986 337.477 48.8198 336.02L48.7938 336.013Z" fill="#FFBE00"/>
</svg>
