<svg preserveAspectRatio="none" width="100%" height="100%" overflow="visible" style="display: block;" viewBox="0 0 822.454 985.586" fill="none" xmlns="http://www.w3.org/2000/svg">
<path id="Vector" fill-rule="evenodd" clip-rule="evenodd" d="M106.956 946.446C136.056 924.179 162.777 879.147 193.336 865.326C218.06 854.154 229.539 883.293 260.79 867.053C290.696 851.543 313.424 823.556 344.636 808.929C419.115 774.377 512.559 818.719 594.409 783.667C649.654 760.018 623.357 736.83 680.06 713.258C792.24 666.651 735.459 559.962 801.415 535.66C838.002 522.185 809.631 451.314 792.931 414.267C781.413 388.698 831.974 297.673 820.841 272.104C811.896 251.565 821.724 230.143 787.748 209.718C750.393 187.259 648.388 252.333 612.914 224.729C544.885 171.826 633.415 167.335 629.806 127.369C628.77 116.044 623.971 95.0821 621.859 83.7183C613.298 37.9943 590.302 -3.66014 545.768 0.255766C517.243 2.7512 505.726 17.1863 500.351 22.254C493.402 28.7805 478.199 56.4222 456.738 51.8536C406.216 41.1424 382.951 79.4953 381.108 84.1406C370.589 110.477 382.643 137.428 365.483 163.572C352.391 183.536 366.903 203.192 333.157 222.08C197.329 298.133 96.2831 375.53 63.6122 458.033C55.2429 478.956 11.7456 520.956 66.2228 544.682C78.9687 550.249 92.4824 552.667 104.192 561.613C118.896 572.861 126.19 591.558 125.652 606.262C122.811 685.693 29.6743 704.889 6.02532 771.536C-2.19041 794.763 -0.117296 813.344 1.41835 836.686C3.37631 865.594 30.6725 879.415 34.6652 905.368C38.3891 929.631 2.954 955.046 18.5408 977.236C36.8535 1003.34 87.7219 961.227 107.033 946.446H106.956Z" fill="var(--fill-0, #FF1100)"/>
</svg>
