<svg preserveAspectRatio="none" width="100%" height="100%" overflow="visible" style="display: block;" viewBox="0 0 205.735 256.563" fill="none" xmlns="http://www.w3.org/2000/svg">
<path id="Vector" fill-rule="evenodd" clip-rule="evenodd" d="M87.1392 153.696C97.0418 123.071 65.3913 159.417 56.9187 151.484C51.9 146.789 58.4837 123.611 68.0086 106.936C77.7223 89.9096 90.2422 77.7675 102.007 64.3572C136.571 25.0166 170.164 4.37498 188.809 0.597424C208.669 -3.42297 208.183 13.1173 201.815 42.0966C201.491 43.5806 201.221 44.9837 200.925 46.4138C178.043 94.6855 132.2 111.631 144.153 128.603C163.284 117.567 153.678 182.622 113.555 219.264C88.6502 241.066 66.7944 254.557 56.7838 251.049C50.0652 248.702 53.438 229.49 42.1053 234.455C34.5502 237.747 25.8619 242.685 16.6878 249.08C13.9086 250.995 -10.0519 267.671 4.84247 243.98C13.5308 230.165 25.673 227.79 35.0359 222.475C50.6048 213.624 77.1287 180.436 85.2234 159.201C86.0059 157.15 86.6535 155.342 87.1662 153.696H87.1392Z" fill="var(--fill-0, #FFBE00)"/>
</svg>
