<svg preserveAspectRatio="none" width="100%" height="100%" overflow="visible" style="display: block;" viewBox="0 0 455 359" fill="none" xmlns="http://www.w3.org/2000/svg">
<path id="Vector" fill-rule="evenodd" clip-rule="evenodd" d="M405.314 8.7818C399.847 10.4244 394.726 11.743 389.813 14.0796C388.037 14.9125 385.684 16.3699 383.792 16.9946C382.823 17.2259 381.832 17.4341 380.84 17.6655C380.263 18.105 379.686 18.5446 379.11 18.9841C378.487 19.0767 377.864 19.1692 377.241 19.2386C372.466 21.714 367.138 24.7215 362.132 26.6417C358.372 28.076 355.235 29.4179 351.429 30.7365C350.276 31.4768 349.123 32.2403 347.946 32.9806C344.74 34.2993 342.11 35.7567 339.25 36.9597C334.475 38.9493 330.323 41.3321 326.009 43.4374C323.841 44.4784 321.673 44.9412 319.597 46.2136C313.553 49.9382 307.556 54.1487 300.866 57.2025C297.729 55.8607 297.037 52.8532 293.116 51.9047C291.824 51.9509 290.532 51.9972 289.241 52.0435C281.513 52.0435 274.755 53.4546 268.503 55.4905C248.504 61.945 231.573 70.3661 215.426 80.7535C210.49 83.9229 205.992 87.1848 201.378 90.5394C198.057 92.9454 194.205 94.7036 191.875 98.0813C191.736 98.1275 191.598 98.1738 191.483 98.2201C189.545 95.1432 182.925 93.0379 177.712 93.7319C176.812 93.9864 175.935 94.264 175.036 94.5185C170.446 93.6163 166.986 96.9939 163.664 99.0066C156.79 103.194 150.17 106.988 143.48 111.314C140.828 113.026 138.267 115.247 135.315 116.728C134.253 117.792 133.169 118.833 132.108 119.897C130.863 120.961 129.317 121.447 127.956 122.419C127.149 123.298 126.341 124.177 125.557 125.056C120.482 129.174 116.054 133.801 111.256 138.15C99.0301 149.162 86.6201 160.984 77.97 175.443C73.6334 182.684 71.1883 190.411 67.7974 198.601C65.3523 204.523 62.5381 211.302 61.2464 218.173C61.0618 219.168 60.0469 219.908 59.7701 220.695C58.3169 224.743 57.9478 228.491 56.287 232.47C53.8188 238.346 50.451 243.69 50.1281 251.51C48.6057 251.949 47.1063 252.389 45.5839 252.829C43.0004 254.332 40.4169 255.836 37.8334 257.317C34.4887 259.584 31.3746 262.661 28.8834 265.784C27.2687 267.797 24.7082 269.254 23.1397 271.336C18.3879 277.652 14.9048 283.945 11.3755 291.579C10.1068 294.309 8.14614 297.108 6.96972 299.907C5.95478 302.313 4.8245 305.205 4.29396 307.588C4.06329 309.231 3.85569 310.85 3.62502 312.493C3.25594 313.765 2.14873 315.5 1.7566 316.726C0.810848 319.595 1.71045 322.672 0.949236 326.119C0.372561 328.71 -0.0426354 331.255 0.00349855 334.725C1.36445 337.825 1.61819 341.203 3.07141 344.372C4.6169 347.75 12.8518 354.25 16.3119 356.147C17.4652 356.333 18.6186 356.495 19.795 356.68C20.4178 357.027 21.0406 357.374 21.6634 357.744C23.4857 358.345 25.7924 358.276 27.2687 358.808H35.1576C40.2323 359.687 46.4604 357.327 50.9354 356.171C54.0725 355.361 56.7944 355.06 59.8854 354.574C60.9004 354.135 61.9384 353.695 62.9533 353.256C68.0742 351.659 72.9875 350.665 77.5317 348.351C80.3459 346.917 82.8832 344.233 85.4206 342.521C86.7123 341.642 87.8196 341.526 88.9037 340.532C90.9105 340.902 92.433 342.568 94.7858 343.053C97.6692 343.632 101.614 342.961 104.151 342.521C107.565 341.943 111.186 342.29 114.577 341.457C118.014 340.624 121.59 338.519 124.473 336.969C125.488 336.668 126.526 336.344 127.541 336.044C129.179 335.072 130.84 334.1 132.477 333.129C133.377 332.828 134.253 332.504 135.153 332.203C137.76 330.746 140.228 328.432 142.65 326.79C146.248 324.592 149.87 322.371 153.491 320.173C156.836 316.958 160.181 313.742 163.525 310.526C167.032 307.727 170.446 304.604 173.283 301.133C175.728 298.149 179.119 295.905 181.702 293.06C184.24 289.751 186.777 286.443 189.314 283.135C190.606 280.451 191.898 277.744 193.19 275.061C193.582 273.303 193.997 271.544 194.389 269.763C195.773 267.635 198.656 265.414 200.663 263.817C204.769 260.579 207.976 256.368 212.174 253.106C214.388 251.371 216.303 249.104 218.056 246.883C220.732 243.482 224.468 240.822 227.144 237.351C228.436 236.195 229.728 235.061 231.019 233.904C234.941 229.116 239.969 225.021 243.453 219.885C246.728 215.05 250.903 208.965 252.149 202.557C253.394 196.149 246.174 193.211 250.28 187.867C254.225 182.777 260.268 178.335 265.528 174.518C270.695 170.146 275.862 165.796 281.029 161.424C282.897 159.527 284.766 157.63 286.634 155.733C294.039 150.042 300.543 143.633 308.04 138.012C309.955 136.161 311.869 134.31 313.784 132.459C317.452 129.938 320.427 126.768 323.956 124.131C339.78 112.332 354.497 99.3999 369.952 87.2311C387.99 73.0265 403.699 56.5316 422.106 42.7896C426.235 39.7127 429.696 35.3635 433.871 32.3328C441.598 26.7574 453.639 15.0744 455 3.62277C452.716 0.823482 449.349 1.49439 444.966 0.592142C433.801 -1.76759 419.661 3.48398 410.458 6.53775C408.728 7.27805 406.975 8.0415 405.245 8.7818H405.314Z" fill="#00AB41"/>
</svg>
