<svg preserveAspectRatio="none" width="100%" height="100%" overflow="visible" style="display: block;" viewBox="0 0 657.327 657.737" fill="none" xmlns="http://www.w3.org/2000/svg">
<path id="Vector" fill-rule="evenodd" clip-rule="evenodd" d="M141.581 617.487C159.02 605.354 175.292 592.089 192.554 579.991C200.124 574.685 206.386 566.867 213.177 561.243C241.512 537.79 259.764 507.369 281.59 479.813C282.722 477.584 283.854 475.32 284.951 473.092C290.716 465.698 296.022 456.961 300.055 448.472C301.293 445.854 304.371 437.293 306.564 435.949C311.021 433.261 319.121 433.049 323.543 432.624C327.434 431.846 331.325 431.032 335.181 430.254C340.629 429.936 345.758 427.389 349.437 425.762C355.556 423.073 360.792 422.118 366.593 419.288C370.979 416.777 375.366 414.23 379.752 411.718C389.444 406.66 397.969 403.688 406.884 398.382C411.659 395.553 416.647 391.414 421.705 388.442C424.712 387.098 427.754 385.754 430.761 384.445C433.131 383.101 435.147 381.12 437.27 379.882C438.932 379.068 440.595 378.255 442.257 377.441C450.499 370.579 459.767 364.318 468.929 357.986C473.634 354.731 477.313 349.744 481.593 346.313C485.165 343.447 488.561 341.785 492.099 338.884C497.334 334.604 501.826 329.156 506.637 324.593C513.535 317.978 520.822 312.283 527.968 306.128C532.955 300.751 537.978 295.339 542.966 289.962C544.558 287.557 546.15 285.116 547.777 282.711C558.955 270.684 568.011 255.721 574.484 240.687C575.439 239.307 576.359 237.892 577.314 236.513C580.851 228.66 584.389 221.267 587.855 213.343C589.093 211.22 590.296 209.098 591.534 206.976C593.621 199.264 595.673 191.234 598.043 183.594C597.795 180.835 597.548 178.111 597.3 175.352C601.156 172.026 609.716 172.522 613.784 169.904C627.297 161.202 639.359 148.326 645.161 134.813C646.575 131.241 647.99 127.703 649.405 124.131C649.936 121.124 650.431 118.152 650.962 115.146C652.412 111.219 654.358 106.055 654.818 101.668C655.242 97.8479 655.136 86.8821 657.294 84.9719C657.541 83.4508 656.339 83.5569 656.374 81.859C656.692 80.9039 656.975 79.9488 657.294 78.9937C656.905 77.8971 656.515 76.8006 656.126 75.704C656.232 73.2278 656.374 70.7871 656.48 68.3109C655.242 63.7123 654.004 59.1138 652.731 54.5152C644.241 36.793 640.244 19.9551 627.898 8.67088C619.408 0.924045 597.548 -3.46222 581.806 3.43564C575.05 6.40703 570.133 10.8287 564.19 13.7647C556.974 17.3728 551.526 20.132 545.973 24.4476C544.522 25.1551 543.037 25.8272 541.551 26.5346C535.078 30.8149 527.72 35.1657 523.015 40.6133C516.507 48.1833 512.474 58.6538 504.303 64.915C500.022 65.6224 496.344 63.111 492.523 62.6865C486.545 61.9791 481.522 63.7476 475.119 64.1367C471.582 64.349 465.958 63.7123 461.925 65.5164C446.644 72.4496 429.275 79.7366 414.56 87.3773C409.996 89.7473 405.221 94.0983 400.941 96.8221C390.682 103.366 381.556 108.601 372.04 115.216C370.413 116.844 368.786 118.471 367.159 120.063C356.228 127.102 347.562 136.158 338.011 144.258C336.172 146.593 334.332 148.927 332.493 151.262C324.286 160.07 316.539 168.242 309.111 177.509C307.731 179.95 306.352 182.391 305.007 184.832C299.631 191.27 294.466 197.743 289.16 204.075C287.745 206.693 286.33 209.275 284.915 211.893C282.545 215.147 279.857 217.871 277.947 221.408C275.117 226.714 272.676 231.914 269.987 237.362C269.245 238.034 268.537 238.706 267.794 239.413C265.778 241.748 264.788 244.861 263.443 247.691C262.524 248.858 261.604 250.025 260.684 251.193C260.366 252.431 260.047 253.704 259.764 254.942C257.854 258.55 255.909 262.159 253.999 265.767C253.008 268.95 252.018 272.099 251.027 275.282C249.824 277.228 248.657 279.209 247.454 281.154C246.216 286.46 244.943 291.766 243.705 297.037C243.068 298.523 242.431 299.973 241.795 301.459C241.193 304.43 241.689 308.25 239.531 310.161C238.257 310.691 237.196 309.524 235.675 309.701C228.919 310.479 220.535 312.778 214.663 315.714C199.594 323.249 186.93 332.729 176 342.917C175.115 343.27 174.231 343.589 173.347 343.943C172.604 344.862 171.826 345.746 171.083 346.666C169.314 347.727 167.581 348.789 165.812 349.85C163.866 351.76 161.956 353.67 160.011 355.58C156.721 358.021 153.502 359.754 150.46 362.372C148.267 364.777 146.074 367.183 143.88 369.588C140.944 372.241 137.725 373.833 135.037 376.663C133.091 378.715 131.181 381.58 129.059 383.526C126.477 385.896 123.47 387.275 121.135 389.716C113.176 398.135 106.526 408.181 99.0973 416.989C95.1001 421.729 90.7138 425.691 86.575 430.396C82.7547 434.782 79.7479 439.557 75.3969 443.732C73.7698 446.031 72.1426 448.295 70.5154 450.594C69.5957 451.16 68.7113 451.726 67.7916 452.292C65.8107 454.945 63.7944 457.598 61.8135 460.251C52.0503 471.854 40.3416 486.534 33.939 500.117C28.4561 511.755 25.3786 524.242 20.0018 535.986C18.0563 540.266 15.474 545.395 14.3066 550.1C12.821 556.078 12.1842 561.986 10.0264 567.646C6.9843 575.569 3.58841 585.049 2.10271 593.751C0.90001 600.755 1.53673 606.698 0.440148 613.171C-2.35437 629.903 8.57611 649.217 21.3814 654.559C38.0777 661.527 66.1644 656.221 86.2213 646.529C105.677 637.155 125.062 629.054 141.546 617.593L141.581 617.487Z" fill="var(--fill-0, #FF7D74)"/>
</svg>
